<?xml version="1.0" encoding="utf-8"?>
<svg version="1.1" id="Layer_1"
xmlns="http://www.w3.org/2000/svg"
xmlns:xlink="http://www.w3.org/1999/xlink"
xmlns:author="http://www.sothink.com"
width="308px" height="356px"
xml:space="preserve">
<g id="PathID_1250" transform="matrix(0.0352941, 0, 0, 0.0352941, 0, 37.8)">
<path style="fill:#000000;fill-opacity:1" d="M904 -144q-172 188 -372 188q-144 0 -212 -68q-52 -52 -52 -200l0 -536l84 0q36 8 8 32l0 504q0 100 36 136q44 44 132 44q156 0 316 -176l60 76M648 -792q80 52 156 100l-40 52q-84 -56 -156 -100l40 -52M568 -704q80 48 156 100l-40 52q-80 -52 -156 -100l40 -52" />
</g>
<g id="PathID_1251" transform="matrix(0.0352941, 0, 0, 0.0352941, 48, 37.8)">
<path style="fill:#000000;fill-opacity:1" d="M512 -208q-48 28 -100 28q-68 0 -104 -36q-48 -48 -48 -108q0 -64 48 -112q48 -48 120 -48q48 0 92 12l0 -88l-440 28l-16 -84l456 -20l0 -188l72 0q44 8 8 32l0 152l340 -24l0 84l-340 16l0 152q16 72 16 160q-4 204 -228 344l-76 -56q200 -116 200 -244M436 -416q-44 0 -72 28q-24 24 -24 64q0 36 20 56q20 20 64 20q44 0 72 -28q24 -24 24 -60q0 -36 -24 -60q-20 -20 -60 -20" />
</g>
<g id="PathID_1252" transform="matrix(0.0352941, 0, 0, 0.0352941, 96, 37.8)">
<path style="fill:#000000;fill-opacity:1" d="M904 -628q-140 0 -220 28q-88 32 -164 108q-76 76 -76 196q0 96 60 156q80 80 308 88l-32 88q-236 -12 -328 -104q-92 -92 -92 -224q0 -188 148 -296q-188 28 -384 56l-24 -92q392 -28 788 -96l16 92" />
</g>
<g id="PathID_1253" transform="matrix(0.0352941, 0, 0, 0.0352941, 144, 37.8)">
<path style="fill:#000000;fill-opacity:1" d="M704 -48q-188 0 -312 -120l52 -68q108 104 260 100l220 0l0 88l-220 0M132 28q-12 -208 -12 -356q0 -180 44 -428l80 20q44 8 4 36q-40 232 -40 372q0 156 16 348l-92 8M872 -564q-172 -4 -448 24l0 -84q288 -28 448 -24l0 84" />
</g>
<g id="PathID_1254" transform="matrix(0.0352941, 0, 0, 0.0352941, 192, 37.8)">
<path style="fill:#000000;fill-opacity:1" d="M552 -564q-68 400 -164 496q-52 52 -108 52q-64 0 -100 -36q-96 -96 -96 -240q0 -176 124 -300q136 -136 332 -136q176 0 276 100q112 112 112 264q0 164 -104 268q-68 68 -208 132l-84 -84q140 -44 220 -124q76 -76 76 -184q0 -128 -84 -212q-84 -84 -264 -76l72 36q48 20 0 44M460 -640q-104 24 -180 100q-104 104 -104 256q0 92 60 152q12 12 36 12q24 0 52 -28q92 -92 136 -492" />
</g>
<g id="PathID_1255" transform="matrix(0.0352941, 0, 0, 0.0352941, 240, 37.8)">
<path style="fill:#000000;fill-opacity:1" d="M736 -512q8 152 0 304q120 44 232 124l-48 76q-84 -64 -184 -112q0 72 -44 116q-48 48 -140 48q-92 0 -140 -48q-40 -40 -40 -104q0 -56 32 -88q48 -48 144 -48q52 0 104 12q8 -136 0 -276l-296 20l0 -84l288 -16q-4 -112 -16 -200l84 0q44 8 8 32q4 84 8 164l216 -12l0 84l-208 8M132 24q-16 -112 -16 -260q0 -324 48 -520l88 16q28 12 -4 28q-44 140 -44 476q0 152 20 244l-92 16M652 -152q-68 -20 -104 -20q-56 0 -80 24q-20 20 -20 40q0 32 16 48q28 28 84 28q56 0 80 -28q28 -32 24 -92" />
</g>
<g id="PathID_1256" transform="matrix(0.0352941, 0, 0, 0.0352941, 0, 84)">
<path style="fill:#000000;fill-opacity:1" d="M784 -252q-40 180 -156 308l-84 -48q124 -116 164 -288q-140 -52 -284 -72q-108 232 -144 268q-48 48 -112 48q-48 0 -80 -32q-36 -36 -36 -108q0 -84 80 -164q88 -88 236 -88q48 -124 88 -232q-112 28 -224 52l-36 -80q132 -16 252 -44l48 -20l68 52q40 24 -4 36q-52 92 -112 240q128 16 272 64q8 -96 4 -236l76 16q44 8 8 32q0 132 -8 216q76 28 176 80l-40 80q-84 -48 -152 -80M340 -352q-92 0 -148 56q-64 64 -64 120q0 24 16 40q12 12 36 12q36 0 64 -44q24 -36 96 -184" />
</g>
<g id="PathID_1257" transform="matrix(0.0352941, 0, 0, 0.0352941, 48, 84)">
<path style="fill:#000000;fill-opacity:1" d="M612 -624q148 8 236 96q88 88 88 236q0 136 -80 216q-72 72 -200 116l-52 -76q132 -44 188 -100q60 -60 60 -160q0 -112 -60 -172q-76 -76 -196 -84q-44 168 -132 344l76 88l-64 48l-56 -64q-32 52 -68 88q-52 52 -104 52q-56 0 -104 -48q-52 -52 -52 -148q0 -144 156 -304q-28 -120 -40 -228l76 0q36 8 8 32q8 88 24 148q104 -64 212 -80q16 -60 32 -180l80 20q40 16 0 32l-28 128M364 -200q-52 -84 -92 -208q-100 120 -100 224q0 56 32 88q20 20 44 20q20 0 48 -28q24 -24 68 -96M512 -544q-96 16 -176 80q40 136 76 188q68 -132 100 -268" />
</g>
<g id="PathID_1258" transform="matrix(0.0352941, 0, 0, 0.0352941, 96, 84)">
<path style="fill:#000000;fill-opacity:1" d="M644 -20q64 -8 108 -52q48 -48 48 -128q0 -88 -52 -140q-52 -52 -164 -52q-132 0 -204 52q-68 48 -176 172l-68 -60q288 -288 436 -480q-132 16 -264 28l-28 -92q196 0 348 -20l36 -16l44 44q44 40 -20 52q-120 136 -240 268q84 -20 140 -20q152 0 224 72q72 72 72 184q0 116 -64 180q-96 96 -244 96q-140 0 -204 -64q-52 -52 -52 -124q0 -48 36 -84q40 -40 92 -40q72 0 120 48q56 56 76 176M564 -8q-12 -104 -48 -140q-28 -28 -56 -28q-32 0 -48 16q-20 20 -20 44q0 36 32 68q40 40 104 40q16 0 36 0" />
</g>
<g id="PathID_1259" transform="matrix(0.0352941, 0, 0, 0.0352941, 144, 84)">
<path style="fill:#000000;fill-opacity:1" d="M416 -464q48 -16 92 -16q52 0 84 32q24 24 28 88q120 -44 272 -92l28 96q-156 24 -292 76l0 176l-80 0l0 -144q-120 56 -156 92q-44 44 -44 88q0 24 24 48q28 28 108 28l336 0l0 76l-340 0q-128 0 -180 -52q-40 -40 -40 -100q0 -64 52 -116q80 -80 236 -144q-4 -48 -20 -64q-16 -16 -68 -16q-80 0 -244 144l-68 -68q188 -116 256 -256q-112 8 -224 16l-16 -80q144 -4 272 -12q20 -48 48 -160l76 20q40 16 0 32q-16 52 -36 104q144 -12 276 -32l12 84q-156 12 -312 24q-40 80 -80 128" />
</g>
<g id="PathID_1260" transform="matrix(0.0352941, 0, 0, 0.0352941, 192, 84)">
<path style="fill:#000000;fill-opacity:1" d="M576 -364q172 132 340 304l-80 68q-168 -176 -324 -296q-156 168 -356 300l-76 -68q424 -276 544 -552l-436 28l-12 -96l464 -20l48 -12l64 64q28 28 -16 36q-76 132 -160 244" />
</g>
<g id="PathID_1261" transform="matrix(0.0352941, 0, 0, 0.0352941, 240, 84)">
<path style="fill:#000000;fill-opacity:1" d="M472 -744q-16 48 -40 92l268 0l44 -16l52 52q16 20 -16 32q-32 160 -96 292l96 64l-60 88l-88 -64q-116 168 -332 276l-92 -68q240 -100 344 -264q-100 -64 -196 -116l48 -72q124 56 204 104q60 -124 72 -220l-292 0q-76 136 -188 248l-76 -52q204 -212 268 -448l96 40q32 16 -16 32" />
</g>
<g id="PathID_1262" transform="matrix(0.0352941, 0, 0, 0.0352941, 0, 132)">
<path style="fill:#000000;fill-opacity:1" d="M480 -480q196 56 396 152l-48 92q-212 -108 -348 -144l0 416l-92 0l0 -800l80 0q48 4 12 32l0 252" />
</g>
<g id="PathID_1263" transform="matrix(0.0352941, 0, 0, 0.0352941, 48, 132)">
<path style="fill:#000000;fill-opacity:1" d="M64 -328l0 -88l892 0l0 88l-892 0" />
</g>
<g id="PathID_1264" transform="matrix(0.0352941, 0, 0, 0.0352941, 96, 132)">
<path style="fill:#000000;fill-opacity:1" d="M36 -376q152 -168 188 -448l96 28q16 16 -12 20q-12 88 -56 216q48 12 12 32l0 612l-80 0l0 -504q-28 56 -80 112l-68 -68M976 -108l-8 80q-8 84 -88 84l-416 0q-72 0 -72 -68l0 -388l-80 24l-24 -80l104 -28l0 -224l76 0q32 4 4 24l0 176l128 -36l0 -268l76 0q32 4 4 24l0 220l144 -48l12 -20l76 40q32 12 0 28l-12 324q-4 76 -80 76l-80 0l-16 -76l60 0q36 0 36 -32l8 -256l-148 44l0 356l-80 0l0 -332l-128 40l0 372q0 32 28 32l344 0q32 0 36 -28l8 -80l88 20" />
</g>
<g id="PathID_1265" transform="matrix(0.0352941, 0, 0, 0.0352941, 144, 132)">
<path style="fill:#000000;fill-opacity:1" d="M276 -152q196 -180 288 -400l-252 0l0 -76l272 0l0 -200l76 0q32 4 4 24l0 176l288 0l0 76l-264 0q64 192 288 400l-56 80q-172 -172 -256 -348l0 232l116 0l0 76l-116 0l0 196l-80 0l0 -196l-104 0l0 -76l104 0l0 -232q-96 212 -248 344l-60 -76M308 -780q-20 104 -56 196q32 12 0 28l0 648l-80 0l0 -500q-28 60 -72 104l-56 -72q136 -184 188 -456l88 32q20 16 -12 20" />
</g>
<g id="PathID_1266" transform="matrix(0.0352941, 0, 0, 0.0352941, 192, 132)">
<path style="fill:#000000;fill-opacity:1" d="M156 -700l-80 0l0 -76l516 0l0 76l-120 0l0 776l-80 0l0 -204q-168 60 -284 88q-20 28 -24 12l-24 -100q48 -8 96 -16l0 -556M500 -4q124 -84 192 -176q-100 -148 -128 -396l-48 0l0 -76l344 0l16 -20l68 64l-20 12q-28 244 -128 420q64 84 168 148l-48 84q-104 -80 -172 -164q-80 92 -188 180l-56 -76M740 -248q64 -96 96 -328l-196 0q20 188 100 328M236 -700l0 136l156 0l0 -136l-156 0M236 -500l0 132l156 0l0 -132l-156 0M236 -304l0 144q76 -16 156 -44l0 -100l-156 0" />
</g>
<g id="PathID_1267" transform="matrix(0.0352941, 0, 0, 0.0352941, 240, 132)">
<path style="fill:#000000;fill-opacity:1" d="M516 -488q-32 -80 -84 -144l68 -40q64 72 88 140l-72 44M840 -708l-656 0l0 660l656 0l0 -660M840 68l0 -40l-656 0l0 48l-80 0l0 -860l816 0l0 852l-80 0M592 -300q104 52 196 124l-64 76q-88 -76 -192 -128q-92 92 -260 156l-52 -72q160 -64 236 -128q-92 -48 -208 -96l52 -64q96 36 216 92q92 -108 164 -316l88 36q32 8 -12 28q-76 192 -164 292M340 -628q52 60 88 140l-72 44q-32 -80 -84 -144l68 -40" />
</g>
<g id="PathID_1268" transform="matrix(0.0352941, 0, 0, 0.0352941, 0, 180)">
<path style="fill:#000000;fill-opacity:1" d="M48 4q96 -140 96 -280l0 -520l744 0l0 256l-80 0l0 -28l-112 0l0 88l180 0l0 76l-180 0l0 88l244 0l0 76l-304 0q20 52 60 92l112 -84l64 68q4 20 -20 12l-108 56q100 68 224 92l-28 88q-288 -64 -388 -324l-100 0l0 216l180 -28l12 72l-360 68q-4 28 -20 12l-32 -108l140 -8l0 -224l-148 0q-8 188 -112 320l-64 -76M224 -644l584 0l0 -76l-584 0l0 76M488 -316l128 0l0 -88l-128 0l0 88M488 -480l128 0l0 -88l-128 0l0 88M408 -480l0 -88l-184 0l0 252l184 0l0 -88l-144 0l0 -76l144 0" />
</g>
<g id="PathID_1269" transform="matrix(0.0352941, 0, 0, 0.0352941, 48, 180)">
<path style="fill:#000000;fill-opacity:1" d="M936 80q-268 -64 -360 -260q-48 204 -328 272l-24 -76q252 -56 284 -228l-264 0q-12 172 -120 284l-56 -64q96 -92 96 -252l0 -392l708 0l0 256l-80 0l0 -24l-548 0l0 116l272 0l0 -92l76 0q32 4 4 24l0 68l340 0l0 76l-300 0q56 148 332 208l-32 84M920 -780l0 76l-804 0l0 -76l804 0M792 -560l-548 0l0 80l548 0l0 -80" />
</g>
<g id="PathID_1270" transform="matrix(0.0352941, 0, 0, 0.0352941, 96, 180)">
<path style="fill:#000000;fill-opacity:1" d="M736 -348q80 132 220 232l-68 76q-132 -108 -224 -260l72 -48M564 -16q0 72 -68 72l-112 0l-16 -88l88 0q16 0 16 -16l0 -376l-392 0l0 -88l860 0l0 88l-376 0l0 408M212 -660l0 -88l608 0l0 88l-608 0M80 -100q112 -80 196 -244l80 44q32 20 -12 28q-68 144 -200 248l-64 -76" />
</g>
<g id="PathID_1271" transform="matrix(0.0352941, 0, 0, 0.0352941, 144, 180)">
<path style="fill:#000000;fill-opacity:1" d="M952 -56l0 88l-888 0l0 -88l480 0q84 -228 120 -460l112 36q16 16 -12 20q-44 204 -128 404l316 0M312 -496q60 116 104 336l-92 28q-52 -220 -96 -332l84 -32M456 -816l88 0q40 8 4 32l0 136l352 0l0 88l-784 0l0 -88l340 0l0 -168" />
</g>
<g id="PathID_1272" transform="matrix(0.0352941, 0, 0, 0.0352941, 192, 180)">
<path style="fill:#000000;fill-opacity:1" d="M428 -648q-80 116 -200 240l160 -8l-48 -72l64 -36q64 76 108 172l-76 36l-20 -40l-104 8l0 432l-80 0l0 -424l-152 12q-4 28 -20 12l-16 -88l88 0q32 -32 72 -76q-64 -56 -140 -112l44 -56l28 20q92 -132 120 -204l68 40q24 16 -8 20q-44 76 -128 180l64 52q60 -72 116 -172l72 44q20 16 -12 20M892 -28l76 0l0 76l-528 0l0 -76l96 0l0 -752l356 0l0 752M812 -28l0 -216l-196 0l0 216l196 0M812 -320l0 -156l-196 0l0 156l196 0M812 -552l0 -152l-196 0l0 152l196 0M424 -276q52 112 64 192l-80 24q0 -60 -56 -196l72 -20M196 -252q28 8 -4 24q-20 124 -68 232l-68 -40q44 -88 64 -228l76 12" />
</g>
<g id="PathID_1273" transform="matrix(0.0352941, 0, 0, 0.0352941, 240, 180)">
<path style="fill:#000000;fill-opacity:1" d="M716 -148q64 80 240 144l-40 88q-312 -104 -396 -440l-24 0q-40 56 -84 100l0 224l228 -44l12 68q-216 52 -424 92q-12 36 -24 12l-28 -96l156 -20l0 -172q-104 72 -232 116l-40 -80q200 -56 340 -200l-320 0l0 -76l388 0l0 -72l-288 0l0 -76l288 0l0 -72l-340 0l0 -76l340 0l0 -96l76 0q32 4 4 24l0 72l340 0l0 76l-340 0l0 72l288 0l0 76l-288 0l0 72l388 0l0 76l-340 0q24 76 80 160q76 -64 144 -140l60 60q4 20 -20 12q-68 64 -144 116" />
</g>
<g id="PathID_1274" transform="matrix(0.0352941, 0, 0, 0.0352941, 0, 228)">
<path style="fill:#000000;fill-opacity:1" d="M564 -244l-96 0q12 296 -380 340l-28 -88q332 -28 324 -252l-96 0l0 40l-80 0l0 -588l612 0l0 588l-80 0l0 -40l-96 0l0 204q0 32 28 32l144 0q36 0 48 -32l12 -60l88 24l-16 68q-16 76 -96 76l-216 0q-72 0 -72 -68l0 -244M288 -320l452 0l0 -88l-452 0l0 88M288 -484l452 0l0 -76l-452 0l0 76M288 -636l452 0l0 -80l-452 0l0 80" />
</g>
<g id="PathID_1275" transform="matrix(0.0352941, 0, 0, 0.0352941, 48, 228)">
<path style="fill:#000000;fill-opacity:1" d="M564 -804l376 0l0 816q0 64 -64 64l-96 0l-12 -76l76 0q16 0 16 -16l0 -456l-148 0l-148 0l0 -332M232 -184l0 -64l160 0l0 -96l-132 0l0 -64l504 0l0 64l-104 0l0 96l136 0l0 64l-136 0l0 240l-80 0l0 -240l-108 0q8 176 -180 260l-40 -76q140 -52 140 -184l-160 0M376 -740l-200 0l0 72l200 0l0 -72M456 -472l-280 0l0 560l-80 0l0 -892l360 0l0 332M580 -248l0 -96l-108 0l0 96l108 0M860 -668l0 -72l-216 0l0 72l216 0M644 -536l216 0l0 -68l-216 0l0 68M176 -536l200 0l0 -68l-200 0l0 68" />
</g>
<g id="PathID_1276" transform="matrix(0.0352941, 0, 0, 0.0352941, 96, 228)">
<path style="fill:#000000;fill-opacity:1" d="M460 -228q0 240 -300 324l-40 -80q248 -76 256 -220l-264 76q-4 28 -20 12l-20 -92l308 -72l0 -92l-232 0l0 -76l232 0l0 -128l-280 0l0 -76l280 0l0 -156l76 0q32 4 4 24l0 556M932 -652l0 76l-276 0l0 128l232 0l0 76l-232 0l0 140l316 0l0 76l-316 0l0 232l-80 0l0 -884l76 0q32 4 4 24l0 132l276 0" />
</g>
</svg>
