<?xml version="1.0" encoding="utf-8"?>
<svg version="1.1" id="Layer_1"
xmlns="http://www.w3.org/2000/svg"
xmlns:xlink="http://www.w3.org/1999/xlink"
xmlns:author="http://www.sothink.com"
width="113px" height="45px"
xml:space="preserve">
<g id="PathID_2127" transform="matrix(0.784314, 0, 0, 0.784314, 2, 36.25)">
<path style="fill:#000000;fill-opacity:1" d="M37.05 -27.25q-3.8 21.7 -24.9 31.05l-3.6 -3.8q19.5 -7.95 23.5 -27.45l-15.95 0q-4.55 7.55 -9.55 12.15l-4 -2.6q10.35 -9.35 13.35 -21.9l4.6 1.55q1.2 0.6 -0.4 1.2q-0.8 2.6 -2.2 5.2l14.35 0l1.8 -1l3.6 3.6q1.35 1.4 -0.6 2M38.25 -32.05q-3.2 -4.6 -6.2 -6.95l2.6 -2.2q3.4 2.95 6.35 6.95l-2.75 2.2M44 -34.45q-3.2 -3.95 -5.75 -6.35l2.35 -2.4q3 2.8 5.8 6.35l-2.4 2.4" />
</g>
<g id="PathID_2128" transform="matrix(0.784314, 0, 0, 0.784314, 39.6, 36.25)">
<path style="fill:#000000;fill-opacity:1" d="M10.95 0.2q19.3 -4.95 21.7 -20.9l-30.3 0l0 -4.4l30.5 0l1.8 -0.55l3.6 2.15q1.15 1 -0.4 1.8q-3.2 19.95 -23.35 25.9l-3.55 -4M33.45 -32.05l-27.5 0l0 -4.4l27.5 0l0 4.4" />
</g>
<g id="PathID_2129" transform="matrix(0.784314, 0, 0, 0.784314, 71.95, 36.25)">
<path style="fill:#000000;fill-opacity:1" d="M6.35 -3.15q24.9 -5.8 26.1 -26.5l-29.9 0l0 -4.4l30.3 0l2.8 -0.6l2.2 2q-0.8 26.5 -27.9 33.85l-3.6 -4.35" />
</g>
</svg>
