<?xml version="1.0" encoding="utf-8"?>
<svg version="1.1" id="Layer_1"
xmlns="http://www.w3.org/2000/svg"
xmlns:xlink="http://www.w3.org/1999/xlink"
xmlns:author="http://www.sothink.com"
width="202px" height="14px"
xml:space="preserve">
<g id="PathID_743" transform="matrix(0.0107353, 0, 0, 0.0107353, -0.2, 11.4)">
<path style="fill:#000000;fill-opacity:1" d="M524.5 -320.5q14 -22.5 26 -44q11.5 -21 23 -46q41 -4.5 81 -10q40 -5.5 84 -13l97 -16l23 35q8.5 14 16 27.5l16.5 32.5q10 21 14.5 27.5q4.5 6 10 5.5q8 -0.5 15.5 -11q7 -11 12 -27.5q5 -16.5 5 -34q0.5 -18 -11 -35.5q-11.5 -17.5 -41 -43.5q-30.5 -28.5 -66.5 -53q-35.5 -25 -80 -49.5l-10 10.5q18 16.5 30.5 30q13 13.5 25 29q12 15 27.5 37l-96 6.5l-73 4q-33 1.5 -69 2l-14.5 0.5l-10 0.5q65 -50 126 -107.5q60.5 -57.5 130 -135.5l10 0l6.5 0q18 0 25.5 -2.5q7.5 -2.5 7.5 -7.5q0.5 -4.5 -7 -11q-7.5 -6.5 -28.5 -19.5q-21.5 -13.5 -63 -38q-16 36 -44.5 80q-29 43.5 -79.5 108q-33.5 43 -60 73.5q-26 30 -56.5 60l-39 1l-27.5 1l-41.5 1l-24.5 0q-21 0 -39.5 -1l-45.5 -3q4.5 47.5 8 71.5q3.5 24 7 32.5q4 8 10 7.5q6 0 10.5 -9q4.5 -9.5 9 -30l143 -17.5q-22.5 54.5 -57.5 109.5q-35 55.5 -78 106.5q-42.5 51 -89.5 92.5l9 12q63.5 -38 111 -81q48 -43.5 95 -105.5q15 34.5 39.5 69q24 34.5 61 74.5q-44.5 37.5 -91.5 69q-46.5 31 -101.5 58.5q-54.5 27.5 -121.5 54l8 16q100.5 -25 185.5 -64q85 -38.5 159.5 -94.5q62.5 56.5 133 92.5q70.5 36.5 156 56q10 -29 26.5 -44.5q16 -16 43 -24l0 -14.5q-71 -6.5 -127 -18.5q-56 -12 -103 -31q-46.5 -18.5 -89.5 -45.5q40 -33.5 72 -70q32 -36.5 68.5 -89l31.5 -9.5q11.5 -3.5 14.5 -6q2.5 -0.5 4 -3q2 -2.5 2 -5q0 -2.5 -2 -5.5q-2 -3 -7 -8l-24 -20.5q-9.5 -8.5 -19.5 -16.5q-10.5 -8 -25 -20q-15 14.5 -23.5 23.5q-9 9 -22 23.5l-209.5 0M734 -297q-25 43.5 -52 77q-27 33.5 -65.5 69.5q-39.5 -32.5 -67.5 -65q-28 -32.5 -48.5 -70l4 -6q1 -2 3.5 -5.5l226 0M171 -196.5q0 59 -1.5 127q-1 67.5 -2.5 136q0.5 7.5 4.5 10q3.5 2.5 15 2.5q18.5 0 31 -2.5q12.5 -2 17 -6q1.5 -1.5 2.5 -4.5q1 -3.5 1.5 -8.5l-1 -172l0 -274.5q16 -4 24 -8.5q8 -4.5 8 -10q0 -5.5 -13.5 -11.5q-13.5 -6.5 -41 -14q20 -24.5 36 -44.5q16 -20 31 -41.5q14.5 -21 32.5 -48.5q23.5 0 35 -3q11 -3 11 -10q1 -4.5 -5 -9q-6 -4.5 -29.5 -14.5q-23 -10 -74 -30q-7.5 27.5 -17.5 52q-10 24.5 -25.5 52.5q-15 28 -39 65.5q-24.5 38.5 -45.5 67.5q-21 29 -45.5 58q-24.5 29 -59.5 67l12 14.5q30 -23 52.5 -42q22 -19 42.5 -38.5q20.5 -20 44.5 -45.5l0 186.5M369.5 -709.5q46.5 37 87.5 84.5q41 48 67.5 93.5q4 7 7.5 9.5q3 3 6.5 3q13.5 -1 23 -19q9.5 -18 10 -42.5q1 -15.5 -12 -30q-13 -14.5 -49.5 -38.5q27.5 -28.5 45.5 -49q18 -20 34 -41q16.5 -21.5 38 -53.5q25 -1 35 -4q9.5 -3.5 9 -9.5q1 -4 -7 -9q-7.5 -5.5 -30.5 -14.5q-22.5 -9.5 -67.5 -26.5q-7.5 38 -26 85q-18.5 47 -50 109.5q-17 -10 -32 -18.5l-33 -18.5q-18.5 -10 -44.5 -23.5l-11.5 12.5M45 -558q77.5 -46 143.5 -105q66 -59 119.5 -129.5q31 0 42.5 -3q11.5 -3 11 -10.5q0.5 -4 -6.5 -9.5q-7.5 -5.5 -32 -16q-24.5 -10.5 -75 -30.5q-9.5 27 -22 51.5q-13 24.5 -34.5 58q-33 51 -70 93q-37 42 -90 87l13.5 14.5" />
</g>
<g id="PathID_744" transform="matrix(0.0107353, 0, 0, 0.0107353, 10.75, 11.4)">
<path style="fill:#000000;fill-opacity:1" d="M540.5 -652.5l0 -142.5q27 -9.5 36 -14.5q8.5 -4.5 8 -9q0.5 -6 -10.5 -10.5q-10.5 -4.5 -37 -8.5q-26.5 -4 -73 -8.5q3 26 4.5 42.5q1.5 16.5 1.5 31l0 120l-307 0q-10 0 -19 -0.5l-21 -2l-34 -3.5l-11.5 -2l-16 -2l10 40.5l43 -4.5l25 -2q10 -0.5 22.5 -0.5l231 0q-1.5 106.5 -15 192q-13.5 86 -40 156.5q-26.5 71 -67.5 133q-40 60.5 -91 107q-51.5 46.5 -126.5 89.5q4.5 8.5 8.5 17.5l42 -18q17 -8 31 -16q14.5 -8 30.5 -17.5q65.5 -41 118 -96q52.5 -54.5 89.5 -121q28.5 -49.5 47 -105.5q18.5 -56 32 -130l301 0q-4 91 -13 172.5q-9 82 -21.5 140q-12.5 58.5 -26 78.5q-5.5 7.5 -13.5 10.5q-7.5 3 -23.5 3l-57 -2.5l-84.5 -6.5l-94.5 -8.5l0 14.5q63.5 11.5 100.5 20q37 8.5 55 17.5q18.5 9 24.5 22q6.5 13.5 8 34.5q53 -6.5 83 -15.5q29.5 -8.5 45.5 -24.5q16 -15.5 28 -44q20 -46 36 -143.5q16 -97.5 27.5 -244.5q26 -17.5 31.5 -22q5.5 -5 4.5 -8.5q0 -2.5 -3 -6q-2.5 -3.5 -10.5 -10.5l-32 -24q-13 -10 -33.5 -25q-12 14 -19.5 23.5q-7.5 9.5 -19 25.5l-290 0q4 -28.5 7 -53.5q2.5 -24.5 3.5 -51.5q1.5 -27 2 -63l506.5 0q5.5 0 9 -2q3.5 -2 3.5 -5q0 -2.5 -1.5 -5q-1.5 -2.5 -4.5 -5.5l-35.5 -31q-14.5 -12 -29 -24.5l-36 -29.5l-22 28q-9 11 -17.5 22.5l-22 28.5l-278.5 0" />
</g>
<g id="PathID_745" transform="matrix(0.0107353, 0, 0, 0.0107353, 21.7, 11.4)">
<path style="fill:#000000;fill-opacity:1" d="M292 -436q-16 34.5 -25.5 55.5q-9.5 21 -17 36.5l-16.5 32.5q-8.5 17.5 -23 45.5q-22.5 41.5 -41.5 72.5q-19 31 -34.5 48q-14.5 16.5 -19 27.5q-5 11 -4.5 30q0.5 33 8 52q8 18.5 22 18.5q7 0 13 -4.5q6 -5 11.5 -15q12.5 -22 36.5 -74q23.5 -51.5 54.5 -124.5q27 -63.5 42 -99.5l18.5 -43.5q16.5 -39 26.5 -61l14.5 -35l9.5 -22q3.5 -9 9 -21.5q28.5 -8.5 47 -13.5q18 -4.5 31.5 -6.5l28.5 -1.5q40.5 -0.5 57 21q16.5 21.5 16 72.5q0 39.5 -7.5 87q-8 48 -21.5 96.5q-13.5 49 -31.5 91.5q-19.5 47.5 -34.5 67q-15 19.5 -32 19q-16.5 0 -58 -18.5q-41 -18 -100.5 -52l-9.5 13q53.5 43.5 77 64.5q24 20.5 30 31.5q6.5 10.5 7 24q1.5 12 8 18q6.5 5.5 19.5 5.5q25 -0.5 51.5 -12.5q27 -12.5 46.5 -33.5q22.5 -25.5 42.5 -67q20.5 -41.5 36 -92.5q15.5 -51 24.5 -104.5q9 -54 9 -103.5q0 -80.5 -32 -120.5q-32.5 -39.5 -98.5 -39.5q-17 0 -36.5 2.5q-19.5 2.5 -52 10q22 -54 38 -88.5q16.5 -35 27 -51q9 -12.5 12 -18.5q3 -5.5 2.5 -11q0 -16.5 -18.5 -30q-18.5 -13.5 -53 -23.5q-21 -6 -39 -9.5q-18 -3.5 -29.5 -3.5q-9 -0.5 -15.5 2q-6.5 2 -15.5 8q44 14 62 29.5q17.5 16 17 39q0 18.5 -5.5 46.5q-5.5 28 -15 59.5q-9.5 32 -21.5 62q-62 16.5 -109 26q-47 10 -65 10q-28 0.5 -45 -12q-17.5 -12.5 -33 -44.5q-3 8 -4.5 13.5q-1.5 5.5 -1.5 9.5q0.5 14.5 10 37q9.5 22 24 40.5q10.5 13.5 23 22q13 8.5 22 9q5.5 0 12 -2q6.5 -2.5 17.5 -9.5q19 -11 49.5 -23q31 -12 83.5 -30l-30.5 66.5M714 -554q50 25.5 83 58q33 32 57 78.5q14 25.5 21.5 49q7.5 23.5 10.5 49q-15 6.5 -32 12.5q-16.5 6 -45 15q-29 9.5 -80 25q2.5 7 4.5 14l63.5 -6.5l34.5 -2q13 -0.5 30 -0.5q13.5 0 22 1.5q8.5 2 20 8.5q7 4.5 12.5 6q5 1.5 11 1.5q19 -0.5 30 -14.5q10.5 -14.5 11 -41q0 -34.5 -15 -71q-14.5 -36.5 -43.5 -74q-67.5 -88 -187.5 -123.5l-8 14.5" />
</g>
<g id="PathID_746" transform="matrix(0.0107353, 0, 0, 0.0107353, 32.65, 11.4)">
<path style="fill:#000000;fill-opacity:1" d="M372.5 -820.5q13.5 31.5 25 49.5q11.5 18 27.5 32.5q18.5 17.5 40.5 31q22.5 14 52.5 27.5q-15 6.5 -26 10.5q-11.5 4 -31.5 10l-63.5 18.5q-45.5 13.5 -70 24.5q-25 11 -35 22.5q-10 9 -13.5 20.5q-3.5 12 -3 38q-0.5 15 -5 45.5q-4 30.5 -14.5 89.5l-7.5 48.5l-5 37q-3.5 27 -6 38.5q-2 11.5 -5 22.5q-1 6 -2 10.5q-1 5 -1 6q0 9.5 5.5 22.5q5.5 13.5 16 30q12 17.5 22.5 25.5q11 8 22.5 8q8 0.5 14.5 -4.5q6.5 -4.5 14 -16q11.5 -19 24 -33.5q12 -14 32.5 -31q61 -52.5 125 -82q64 -29 119.5 -29.5q57 0.5 90 30.5q33.5 30 34 81q0 48 -24.5 88.5q-25 40.5 -78 77.5q-33.5 23 -70 40q-37 16.5 -82.5 29q-45.5 12.5 -104.5 22l3 16.5q71.5 -3 126.5 -12.5q55 -9 106 -27.5q96.5 -33.5 149 -90q52.5 -56.5 53 -128q-0.5 -47 -25.5 -83q-24.5 -36 -68.5 -56q-44 -20.5 -102 -21q-70 0 -155 32.5q-85 32.5 -178.5 94.5q1 -34.5 3.5 -72q2.5 -38 6 -73q3 -35.5 7 -63q1.5 -13.5 2 -21.5q1 -7.5 1 -11q0 -7.5 -1.5 -14q-1.5 -6.5 -6 -19q-3 -10 -4.5 -16.5q-1.5 -7 -1.5 -13q0 -8 3 -15q3 -7.5 8.5 -13q5 -5 15.5 -9q10.5 -4 31.5 -9q33.5 -9 69 -15.5q35.5 -6.5 68.5 -10q32.5 -3.5 58 -3.5l27.5 1l22.5 2l15 2.5q4.5 1 6.5 1q11 -0.5 18 -6.5q6.5 -6 7 -15q0 -9.5 -5.5 -21q-6 -11 -17.5 -24.5q-9 -11 -19 -17q-10 -6 -22.5 -8.5q-18.5 -4 -38.5 -9q-20.5 -5.5 -35.5 -10.5q-34.5 -11.5 -57 -23q-22.5 -11 -39.5 -27q-16.5 -15.5 -33.5 -40l-13.5 7" />
</g>
<g id="PathID_747" transform="matrix(0.0107353, 0, 0, 0.0107353, 43.6, 11.4)">
<path style="fill:#000000;fill-opacity:1" d="M82 122q27.5 -13 47 -27.5q19.5 -14 35 -33q20.5 -26 32 -57q11.5 -30.5 12 -62q-0.5 -43.5 -21.5 -68.5q-21 -25 -57.5 -25.5q-30.5 0.5 -49.5 19q-18.5 19 -19 48.5q-0.5 25 13.5 39q14 14.5 47 22.5q11 2 15.5 7q4 4.5 4 13.5q0 27.5 -19.5 51.5q-19 24 -59.5 48l20.5 24.5" />
</g>
<g id="PathID_748" transform="matrix(0.0107353, 0, 0, 0.0107353, 54.55, 11.4)">
<path style="fill:#000000;fill-opacity:1" d="M57.5 -381l40 -4.5l37 -2q20 -0.5 50 -0.5l786.5 0q5 0 8 -2q3 -1.5 3 -4q0 -1 -1 -3q-0.5 -1.5 -2 -3.5l-41.5 -35.5q-17 -14.5 -34.5 -28.5l-43 -34l-26 30.5q-10.5 12 -20.5 25q-10 12.5 -24 31.5l-605 0q-33.5 0 -55 -0.5q-22 -0.5 -40 -2.5q-18 -1.5 -39.5 -5q4 19 7.5 38.5" />
</g>
<g id="PathID_749" transform="matrix(0.0107353, 0, 0, 0.0107353, 65.5, 11.4)">
<path style="fill:#000000;fill-opacity:1" d="M483.5 -498.5l0 458.5q-34 -9 -64.5 -25q-30 -16 -59.5 -40.5q-16 -13.5 -27 -26q-11.5 -13 -22.5 -30.5q-10.5 -18 -25 -46q9 -22.5 16 -42.5q7 -20 13.5 -42.5q6.5 -22.5 13.5 -53q25 -3.5 38 -9.5q13 -5.5 13 -14q1 -6.5 -12 -11.5q-13.5 -5 -52.5 -13l-23.5 -4.5l-33 -7q-2 68 -25.5 146q-23.5 78 -66.5 160q-17 33 -32 57q-15.5 24 -34.5 47q-19 23 -47 52.5l10 11.5q34.5 -24 58.5 -44q24 -20 43.5 -41.5q19.5 -21.5 39.5 -49.5q19.5 -27 36 -54.5q16.5 -27 32.5 -60.5q20 41.5 37.5 69.5q17.5 28 36.5 48.5q19.5 20.5 46 40q36 27.5 84 43q48 15.5 121.5 22q73.5 6.5 186.5 6.5q19.5 0 51.5 -1q31.5 -0.5 79.5 -2q3.5 -20 9 -32.5q6 -12 18.5 -21.5q13 -9.5 36 -20.5l0 -11.5q-35.5 5 -89 9.5q-54 4 -114.5 6.5q-60 2.5 -115 2.5q-33.5 0 -60.5 -1q-26.5 -1 -47 -4l0 -241l317.5 0q1.5 -0.5 4.5 -3q2.5 -2.5 2.5 -4q0 -1 -0.5 -2l-1.5 -2l-32.5 -30q-13.5 -12 -27 -23l-33.5 -27l-29 34l-27.5 33.5l-173 0l0 -206.5l342 0q3.5 0 6 -2.5q3 -2.5 3 -5.5l-0.5 -3l-2.5 -3.5l-32.5 -29l-26 -22.5l-30.5 -26.5l-19.5 25.5q-7.5 10 -16 19.5l-20.5 24l-534.5 0l-31 -2q-21.5 -2 -59.5 -7q5 18.5 9.5 37.5l48.5 -4l33.5 -1l261 0M173 -716q1 -10 1 -16l0 -9.5l0 -14l0 -29l-15.5 0q-6.5 28 -11 43.5q-4 15 -9.5 28q-12 28 -29 52q-17.5 24.5 -33.5 35.5q-13.5 9.5 -17 11.5l-3 2.5q-4 4 -6.5 9.5q-2 5 -2 11q0.5 24.5 12 44.5q11 20 25 21.5q8.5 -0.5 21.5 -12.5q13 -12.5 26.5 -33q16.5 -26 25.5 -54.5q9 -28 13.5 -67.5l673.5 0l-2.5 20.5l-2.5 19.5l-4 27q-1.5 5 -3 14q-2 9 -3.5 20.5l15.5 3.5q15.5 -17.5 26.5 -29l20.5 -23.5l22.5 -27l20 -6q6.5 -2.5 20 -5q9.5 -2.5 15.5 -4.5q6.5 -2.5 8 -4q2.5 -1.5 4 -3q1.5 -1.5 1.5 -3q0 -2 -1 -4l-4.5 -5q-20 -14.5 -33.5 -24.5q-14 -10 -28.5 -20l-36 -24.5q-21 27.5 -42 54.5l-294 0l0 -95q21.5 -7 30.5 -12.5q9.5 -5.5 9.5 -11.5q1 -5.5 -9 -9.5q-10 -4 -35.5 -7.5q-26 -4 -73 -8.5q2.5 14 3.5 24q1 10.5 1.5 24l0 37l0 59.5l-298 0" />
</g>
<g id="PathID_750" transform="matrix(0.0107353, 0, 0, 0.0107353, 76.45, 11.4)">
<path style="fill:#000000;fill-opacity:1" d="M511 -3q64 -11 110 -25.5q46.5 -14.5 89.5 -38q97.5 -52.5 150.5 -133q53 -80.5 53.5 -177.5q0 -74.5 -24.5 -134.5q-24.5 -60.5 -74 -106q-50 -45.5 -118 -69.5q-68 -24.5 -146 -24.5q-67.5 0 -132.5 17.5q-65 17.5 -121.5 49.5q-56.5 32 -98.5 76q-43 48 -67.5 101q-24 53 -24.5 102q0 24 5.5 46.5q6 22.5 18 46.5q14.5 28.5 23 44.5q8 16.5 13 28q5 11 9 24q8.5 24 13.5 36q4.5 12 7.5 18q3.5 6 8 11.5q8.5 10 20 15.5q11.5 6 25 6q28 0 66 -38q38 -38 86.5 -114.5q39 -63.5 69.5 -129.5q30.5 -66.5 47.5 -125.5q17.5 -58.5 18 -99.5q0.5 -21.5 -6.5 -40q-7 -19 -25.5 -45l19.5 -1.5l16.5 -0.5q49.5 0 96 12.5q46.5 12 81.5 34.5q56.5 36.5 86 94q29.5 57.5 29.5 132.5q0 71 -23 133q-23 62 -68 114q-43 50 -100.5 84q-57 34 -139.5 58q3.5 9 7.5 17.5M484 -677q8.5 18.5 11.5 29.5q3 11 3 22q-0.5 32.5 -17 83.5q-16.5 50.5 -45.5 111q-29.5 60.5 -67.5 122q-38.5 60.5 -71 97.5q-33 36.5 -50.5 37.5q-8.5 0 -18.5 -8q-10 -7.5 -20.5 -21.5q-19.5 -27.5 -30 -63q-11 -35 -11 -72.5q1 -79.5 42.5 -150.5q42 -71 113.5 -120.5q71 -50 161 -67" />
</g>
<g id="PathID_751" transform="matrix(0.0107353, 0, 0, 0.0107353, 87.4, 11.4)">
<path style="fill:#000000;fill-opacity:1" d="M804 -393l0 47q1 3 3 4.5q2 1.5 5 1.5l0.5 0l0.5 0l12.5 -1l11 -1q22 -1 29 -4.5q7.5 -3 7 -12.5l-1.5 -27.5q-0.5 -10 -0.5 -12.5l0 -124l0 -12l0 -20q23.5 -17.5 28.5 -22q5.5 -4.5 4.5 -6.5q0 -3 -2.5 -6l-7 -6.5l-28.5 -22.5q-11 -8.5 -30 -21.5l-16 18l-15.5 19l-158 0l0 -62.5l0 -40l316.5 0q3.5 0 6.5 -2q2.5 -1.5 3 -3q0 -1.5 -1 -2.5q-0.5 -1.5 -2 -2.5l-33 -30.5l-27.5 -24l-35 -29.5l-21 24.5q-8.5 10 -16.5 20q-8.5 10.5 -19.5 26l-169.5 0l0 -79q22.5 -11.5 28.5 -16.5q6 -5 5.5 -9q1 -6 -12 -9.5q-13.5 -3.5 -53.5 -8l-16.5 -2l-23.5 -3q2.5 15 3.5 30q1.5 15 2 34.5q0.5 20 0.5 49l0 13.5l-162 0q-27 0 -46.5 -1l-39 -3q-19 -2.5 -43.5 -7.5q5 20.5 9.5 41l44.5 -3.5l36.5 -2q17.5 -0.5 38.5 -0.5l162 0l0 102.5l-141.5 0l-26 -14l-21.5 -10.5l-27 -12.5q2 28.5 3 68q1 39 1 99l0 49.5l-1 35q-0.5 16.5 -2 40.5l0 2l0 2q0 4 4 6q4 2.5 10.5 2.5q7 0 17.5 -1.5l19.5 -3q9 -1.5 11 -3q2 -1 3 -3q1.5 -1.5 2 -5l0 -42l133 0q-39.5 57.5 -78.5 102.5q-39 45 -85 84.5q-46 40 -106.5 82.5l8 11q92 -41.5 157.5 -90.5q65.5 -49.5 119 -116.5q-1 37.5 -1.5 68.5q-0.5 30.5 -0.5 49.5l0 16.5l0 16.5l-1 33q0 13 -1 26.5q-0.5 13.5 -2 34.5q0 4.5 3 7q3.5 2 10 2l7 0l15.5 -1q22.5 0 30 -3.5q8 -3.5 10 -15l-4 -232q33.5 15.5 79 49q45.5 34 88.5 72.5q42.5 39 67.5 71q8.5 12.5 13.5 16.5q5.5 4 12 4q5 0 8.5 -3.5q3.5 -3 5.5 -9q2.5 -7.5 4.5 -19.5q1.5 -12 2 -19.5q0 -11.5 -3 -22q-3 -10.5 -8.5 -20q-7.5 -14.5 -25 -27.5q-17.5 -13 -52.5 -31q-25.5 -12.5 -58.5 -27q-33 -14.5 -68 -28.5q-34.5 -14 -65.5 -25q-0.5 -17 -0.5 -25.5q-0.5 -8.5 -0.5 -14.5l0 -16.5l158 0M804 -416.5l-158 0l0 -163l158 0l0 163M581.5 -416.5l-147.5 0l0 -163l147.5 0l0 163M65.5 -828.5q31.5 36 48.5 59q17.5 23 30.5 46.5q14.5 25 28.5 56q14.5 30.5 22.5 52.5q4.5 11 8.5 16q3.5 5 8 4.5q9.5 -0.5 19.5 -12.5q10 -12.5 17 -30.5q7 -18.5 7.5 -35.5q0.5 -13 -9 -27q-9 -14 -31 -35.5q-31 -30.5 -65.5 -55.5q-34 -25 -74.5 -47q-5.5 4.5 -10.5 9M50 -398.5q24 -3.5 40.5 -5q16.5 -1 35.5 -1l63.5 0l0 264q-28 21.5 -50.5 36.5q-22.5 15 -46.5 28q-24 13 -56.5 28l12.5 26.5l10 19.5l14.5 26l6 12q4.5 10.5 9 15.5q4.5 5 9.5 5q6 0 9 -7q3 -6.5 3 -22l0 -18.5q19.5 -19.5 41.5 -46q22.5 -26.5 42.5 -53.5q20.5 -27.5 35 -50q20.5 45 38 71q18 25.5 41.5 46q36 31.5 88.5 47.5q52.5 16.5 122.5 18q9.5 0.5 47 0.5l89.5 1q52.5 0.5 107 0.5l98 1l64.5 0l8 0l18.5 -1q2.5 -29.5 14 -45.5q12 -16 36 -24l0 -12.5l-152 7l-102 4.5l-67.5 2.5q-27 1 -50 1q-23 0.5 -49.5 0.5q-78 0 -130.5 -4q-52.5 -4 -81.5 -12.5q-42 -11.5 -67 -33.5q-25 -22.5 -45.5 -68l0 -243.5q26.5 -18 33 -24q7 -5.5 6 -11q0 -2 -2 -4.5q-1.5 -2 -5.5 -4.5q-18.5 -14.5 -31 -23.5l-33 -22.5l-12.5 14.5l-10 12l-16.5 19.5l-58.5 0q-17 0 -40 -3q-22.5 -3 -48 -8.5l12 41" />
</g>
<g id="PathID_752" transform="matrix(0.0107353, 0, 0, 0.0107353, 98.35, 11.4)">
<path style="fill:#000000;fill-opacity:1" d="M637.5 -722l40.5 27q13 9 21.5 15.5q8.5 6.5 21 17q-23 13.5 -40.5 22q-17 8.5 -34 16l-36.5 14.5q-11.5 4.5 -17 7q-5 2 -11 5q-31 -39 -50.5 -64l-28.5 -34.5q-23.5 -26.5 -33 -38.5q-9.5 -12.5 -9 -15.5q0 -5.5 8 -8.5q7.5 -3 23.5 -3l17 1l29.5 3l5 -15q-34.5 -11.5 -63.5 -16.5q-29 -5.5 -56.5 -5q-33 0 -51 10q-18.5 10 -18.5 27.5q-0.5 10.5 7.5 19q8 8.5 31.5 21q31.5 18 70.5 54q38.5 36 71.5 79.5q-51.5 15 -100 23.5q-48 8 -89 8q-47.5 0.5 -85.5 -13q-38 -13 -78.5 -43.5l-11 10.5q38.5 46.5 84.5 68.5q45.5 21.5 103.5 21.5q50.5 0 101.5 -8.5q51.5 -8.5 106.5 -25.5q43 60 74.5 117.5q31.5 57 48.5 110.5q-42.5 -12.5 -95.5 -20q-53 -7 -105.5 -7q-127 0.5 -197.5 43.5q-70.5 43 -71.5 120.5q0.5 56 38.5 99.5q38 43.5 108 67.5q40 13.5 91.5 20.5q51 7 109 7q52.5 0.5 71.5 -6.5q18.5 -6.5 17.5 -25.5q-0.5 -11.5 -10.5 -24q-10 -13 -24.5 -22q-14.5 -9 -28.5 -9l-5.5 0.5l-6.5 1.5q-19.5 3.5 -40 5.5l-49.5 1.5q-41.5 0 -78.5 -6q-36.5 -5.5 -63.5 -16.5q-38 -16.5 -59 -43q-20.5 -27 -21 -60.5q1 -55.5 51.5 -87.5q50.5 -31.5 140 -32q49.5 0 97.5 10q48 10.5 88 29q17 8 35 20.5q18 12.5 33.5 27.5q10.5 10.5 17 14q6.5 3.5 14.5 3.5q15.5 0 21.5 -12.5q6.5 -12.5 6.5 -42q0 -18.5 -5.5 -36.5q-5 -18.5 -17 -40.5q-16 -29 -38.5 -66q-22.5 -37 -49 -77q-26 -40 -53 -78q48.5 -18.5 74.5 -29q26.5 -10.5 42 -18q15.5 -7 33 -16.5q29 -16.5 43 -29.5q13.5 -12.5 13.5 -24q-0.5 -15 -10.5 -23.5q-10.5 -8 -29.5 -8l-6 0l-5.5 1l-5 0q-9.5 0 -29 -4.5q-19.5 -4.5 -42.5 -11.5q-23 -7.5 -44 -15.5q-4 5.5 -7.5 11" />
</g>
<g id="PathID_753" transform="matrix(0.0107353, 0, 0, 0.0107353, 109.3, 11.4)">
<path style="fill:#000000;fill-opacity:1" d="M711.5 -540q30 28.5 55 59q24.5 31 40 60q14 26 19.5 33q5 7 11.5 6q11 -0.5 18 -14.5q7 -14 7.5 -35.5q0 -17.5 -9.5 -33q-10 -15 -30.5 -30.5q-20.5 -15 -47 -29.5q-26.5 -14.5 -55.5 -27l-9 12M811.5 -583q38.5 28.5 65 58.5q27 30 44 64.5q5 12 10 17q5 5 10 4.5q11 -0.5 18 -14q6.5 -14 7 -35q0 -20.5 -11 -36.5q-10.5 -15.5 -34 -29q-21.5 -12 -45.5 -22q-24.5 -10 -56 -19q-3.5 5.5 -7.5 11M96 -663.5q-6.5 10 -9 16q-2.5 6 -2 11.5q0 13 7 31.5q7 18 19.5 37q18 28 39 44q21 16 40 16.5q9 0.5 17.5 -2.5q8.5 -3 23.5 -12q25.5 -13.5 70 -31.5q44 -18 93.5 -34q58 -18.5 107.5 -32q49 -13.5 94.5 -23q45.5 -9.5 92 -16q-42.5 22 -72.5 40q-30 18.5 -52 36.5q-22.5 18.5 -42.5 40.5q-53.5 57 -82.5 122q-28.5 65 -29 128q0 71 30 129.5q30 58 88.5 100q29.5 20.5 66.5 37.5q37 16.5 74.5 26q37.5 10 68 10q16.5 0 26.5 -8q10 -8 10.5 -20.5q-0.5 -9.5 -8 -22.5q-8 -12.5 -23 -26.5q-10 -10 -19 -13.5q-9 -3.5 -24 -3q-23.5 -1 -50.5 -7.5q-27.5 -6.5 -54 -17q-66 -29 -100.5 -80.5q-34.5 -51.5 -34.5 -122.5q0.5 -65 29 -125.5q28.5 -60 77.5 -108q48.5 -48 110 -76.5q61.5 -28 127.5 -28.5l13 0.5q6 0 15.5 1.5q5.5 1 10.5 1l8 0q15 0 23.5 -7q8.5 -7 8.5 -18.5q0 -10.5 -7.5 -20q-7 -9 -22.5 -19q-15.5 -9.5 -30.5 -15.5q-15 -6 -24.5 -6q-6 0 -13.5 2q-7.5 1.5 -22.5 6q-15 5 -32 10q-17.5 4.5 -42.5 10q-25 6 -63.5 14l-92.5 18.5q-41.5 9 -73.5 17.5q-85 20.5 -137 32.5q-52 12 -80 18q-28 6 -42.5 8l-24 1.5q-15 0 -25.5 -3.5q-10 -4 -20.5 -14q-12 -10 -19.5 -22q-7.5 -12 -14.5 -31" />
</g>
<g id="PathID_754" transform="matrix(0.0107353, 0, 0, 0.0107353, 120.25, 11.4)">
<path style="fill:#000000;fill-opacity:1" d="M545.5 -265l320.5 0q9 0 9 -6q0 -1.5 -0.5 -3.5l-2.5 -5q-20 -17 -34 -28q-14 -11.5 -29 -23q-14.5 -11.5 -37 -28l-20.5 24q-8.5 10 -16.5 20l-19.5 26l-170 0l0 -176.5l421 0q8 0 11.5 -1.5q3 -2 2.5 -5.5q0 -1.5 -1.5 -4.5q-1.5 -2.5 -4.5 -6q-21.5 -17.5 -36.5 -29q-14.5 -11.5 -30 -23l-37 -28q-13 15 -21.5 25.5l-18 21.5l-22 27l-264 0l0 -166l339 0q4 0 6 -1.5q2 -1.5 2 -4.5q0 -2.5 -1.5 -5q-1.5 -2.5 -5.5 -6.5l-33 -28.5q-13.5 -11.5 -28 -23q-14.5 -11 -36.5 -27l-21.5 24.5q-9 10.5 -17.5 21q-9 11 -21 27l-182.5 0l0 -124q26.5 -7.5 36.5 -12.5q10 -5.5 9.5 -12q1 -5.5 -6 -8.5q-7.5 -3.5 -34 -6.5l-84.5 -9.5q3.5 24 5 42.5q1 18.5 1 44.5l0 86l-208 0q-35 0 -62.5 -2.5q-28 -2 -53 -6.5l8 39.5q20.5 -3 48.5 -5l59 -2l208 0l0 166l-316.5 0q-38.5 0 -64.5 -2.5q-26 -2.5 -48 -7.5l8 42.5q40 -9 104.5 -9l316.5 0l0 392q-38 -19.5 -66.5 -42q-28.5 -23 -53.5 -54q-10.5 -13 -18.5 -24.5q-8.5 -11.5 -17 -27q-9 -15.5 -21.5 -39.5q6.5 -15.5 11.5 -31.5q5 -16 13 -44q22.5 -3 31 -6.5q8.5 -3 8 -9q0.5 -9 -25.5 -18q-26.5 -8.5 -89.5 -20l0 24q0 8.5 -1 16q-4 33 -16 73.5q-12 40.5 -29 82q-16.5 41.5 -36 76.5q-20 37 -39 65.5q-19 28.5 -40.5 54q-22 25.5 -50.5 52.5l8.5 11.5q58 -37.5 101.5 -79.5q43.5 -42 77.5 -94.5q34.5 -52 63.5 -120.5q32.5 68 68.5 113.5q36 46 85 80.5q41 30 87 47.5q46.5 17 108 24.5q62 7 150 7q21.5 0 53 -1q31.5 -0.5 80 -2q6.5 -31 20.5 -48q13.5 -16.5 40 -26l-2 -12.5q-58 6 -99.5 9l-75 4.5q-33 1 -66 1q-58 0 -102.5 -4q-45 -4 -85 -13.5l0 -217.5" />
</g>
<g id="PathID_755" transform="matrix(0.0107353, 0, 0, 0.0107353, 131.2, 11.4)">
<path style="fill:#000000;fill-opacity:1" d="M412 -9q75.5 -8.5 133.5 -21.5q58 -13 104.5 -32q46 -19.5 86.5 -47q51.5 -34.5 80.5 -85.5q29.5 -51.5 30 -107q-0.5 -58.5 -29.5 -103.5q-28.5 -44.5 -80 -70q-51 -25 -118.5 -25.5l-43 1.5q-19 1.5 -37 4.5q-44.5 8 -104 26.5q-60 19 -129.5 46.5q-38.5 15.5 -59.5 22.5q-21 6.5 -30.5 6.5q-18.5 0 -35 -14.5q-16 -14 -28.5 -42q-4 7.5 -5.5 12q-2 5 -2 8.5q1 24.5 17.5 52.5q16.5 27.5 39.5 47.5q23 20 42.5 21q9 0 18 -4.5q9 -4.5 23 -15q55 -43 114.5 -74.5q59.5 -31 117.5 -48q57.5 -17 108 -17q69.5 1 110.5 41q41 40 42 108q0 46 -22 88.5q-21.5 42.5 -64 77q-53 45.5 -120.5 75q-68 29.5 -163 49l4 19.5" />
</g>
<g id="PathID_756" transform="matrix(0.0107353, 0, 0, 0.0107353, 142.15, 11.4)">
<path style="fill:#000000;fill-opacity:1" d="M107.5 -668q-6.5 9 -9 15q-2.5 6 -2 12q0 12.5 7 31q7 18.5 19.5 37.5q18 28 39 44q21 16 40 16.5q9 0.5 17.5 -2.5q8.5 -3 23.5 -12q25.5 -13.5 70 -31.5q44 -18 93.5 -34q58 -19 107.5 -32q49 -13.5 94.5 -23q45.5 -9 92 -15.5q-42.5 21.5 -72 39.5q-30 18.5 -52.5 36.5q-22.5 18.5 -42.5 40.5q-53.5 58 -82.5 122.5q-28.5 64.5 -29 127.5q0 71.5 30 129.5q30 58 88.5 100q29.5 20.5 66.5 37.5q37 16.5 74.5 26q37 10 67 10q17 0 27.5 -7.5q10 -8 10.5 -21q-0.5 -9.5 -8.5 -22.5q-8.5 -12.5 -22.5 -26.5q-10.5 -10 -19.5 -13.5q-8.5 -3.5 -23.5 -3q-22.5 -1 -50.5 -7.5q-28 -6.5 -54 -17q-66 -29 -100.5 -80q-34.5 -51 -34.5 -122q0.5 -65 29 -125.5q28.5 -60.5 77.5 -108.5q48.5 -48 110 -76q61.5 -28.5 127.5 -29l13 0.5q6 0 15.5 1.5q5.5 1 10.5 1l8 0q15 0 23.5 -7q8.5 -7 8.5 -18.5q0 -10.5 -7.5 -20q-7 -9 -22.5 -19q-15.5 -9.5 -30.5 -15.5q-15 -6 -24.5 -6q-6 0 -13.5 2q-7.5 1.5 -22.5 6q-15 5 -32 10q-17.5 4.5 -42.5 10q-25 5.5 -63.5 13q-51 10 -92.5 19q-41.5 9 -73.5 17q-85 20.5 -137 32.5q-52 12.5 -80 18.5q-28 6 -42.5 8l-24 1.5q-15 0 -25.5 -3.5q-10 -4 -20.5 -14q-12 -10.5 -19.5 -22.5q-7.5 -12 -14.5 -30" />
</g>
<g id="PathID_757" transform="matrix(0.0107353, 0, 0, 0.0107353, 153.1, 11.4)">
<path style="fill:#000000;fill-opacity:1" d="M177.5 -644.5q33.5 38 70.5 56.5q36.5 18.5 78.5 18.5q41.5 0 90 -8.5q49 -8 100.5 -24.5q18 28.5 37 60.5q18.5 32 35 62.5q-64 19.5 -119.5 29q-55 10 -99.5 10q-40.5 0.5 -68.5 -13.5q-28.5 -14 -52.5 -47l-12 9.5q12.5 24 23 37.5q11 13.5 26 24q22 15 47.5 22.5q26 7 59 7q31.5 0 69 -5q37.5 -4.5 75.5 -13.5q38.5 -8.5 73.5 -20.5q28.5 55 48.5 99q19.5 44.5 28 75.5q-55 -12 -101.5 -17.5q-46 -5 -91 -5q-81 0.5 -142 19.5q-60.5 19 -94 53q-33.5 34.5 -34 81q0.5 40.5 26 74q26 33.5 73 55q35 14.5 86 22.5q50.5 8 111 8l58 -2q28 -2.5 50 -5.5q22 -3.5 32 -8q8 -3 11.5 -8q4 -5 4 -11q-0.5 -13.5 -11 -25.5q-10 -12.5 -25.5 -20.5q-15.5 -8 -31 -8.5l-5.5 0.5q-3 1 -7 1.5q-35.5 8.5 -64 11.5q-28.5 3 -65 3q-94.5 0 -144 -25q-49 -24.5 -49.5 -72.5q0 -26 15 -46.5q15 -20.5 46.5 -36.5q26.5 -13.5 59.5 -21q33 -7.5 68.5 -7.5q45.5 0 90 9q44.5 9 82.5 24.5q38.5 16 65 37q11.5 10 17 13q5.5 3 11.5 2.5q15.5 -0.5 25 -18.5q9 -17.5 9 -48q0 -14.5 -4 -27.5q-4.5 -13.5 -13.5 -27.5l-17.5 -29l-12 -21l-17.5 -31.5l-9 -15.5q-4.5 -8.5 -13 -23l-24 -41.5q103.5 -36.5 151.5 -61.5q47.5 -25.5 47 -43.5q0 -12 -7.5 -19q-7.5 -6.5 -20 -7l-4 0.5l-4.5 0.5l-16 2q-3 0.5 -2 0q-15.5 0 -36.5 -7q-21 -7 -50 -21.5l-7 10.5q17.5 13.5 28 22.5q10 9.5 25.5 25.5q-13 8 -27 15q-14 6.5 -37 16q-23.5 9.5 -63 25q-21 -33.5 -33.5 -55q-12 -21 -17 -28.5l-12 -20.5l-10.5 -17.5q63 -20 101 -33q37.5 -13 49.5 -18.5q39.5 -16 53.5 -25.5q14 -9.5 13 -19.5q0 -13 -15 -20q-15 -6.5 -45 -6.5q-11.5 0 -19.5 2.5q-7.5 2.5 -13.5 7.5q-13 14 -29.5 25q-16 10.5 -43 22q-27.5 12 -74 29q-20 -39.5 -28.5 -57.5q-9 -18.5 -11 -26.5q-2 -8 -2.5 -17.5q-1 -20.5 -3.5 -27.5q-2 -7 -8.5 -12.5q-7 -6 -25 -9.5q-18 -3.5 -45 -3.5l-24 1q-11 1 -23 4q-20 4 -28 9q-8 5 -13 17.5q28.5 3 49 8.5q20 5.5 30 13q12 9 28 28q16 18.5 32 41.5q16 23 28 45.5q-23 8.5 -53 15.5q-30 7 -60.5 11q-30.5 4 -54.5 4q-39.5 0.5 -70 -10q-31 -10.5 -66 -36l-8 11" />
</g>
<g id="PathID_758" transform="matrix(0.0107353, 0, 0, 0.0107353, 164.05, 11.4)">
<path style="fill:#000000;fill-opacity:1" d="M177 -646q25 34 50.5 53.5q25.5 19 58.5 27q33.5 8 81.5 7.5q25.5 0 58 -1.5l74 -5.5l0 12l2 75l0 59l0 4.5l0 8l-56 5.5l-43.5 1.5q-45 0 -76 -6q-31 -5.5 -43.5 -16.5q-11.5 -8.5 -16.5 -22q-4.5 -13 -5 -36.5l-15.5 -1q-1 8.5 -1.5 16q-0.5 7.5 -0.5 13q0 24 12 44q11.5 20 34 33.5q18.5 11.5 52.5 17q34 5.5 83.5 5.5l28.5 -1l47.5 -2l0 15.5l0 10l0 17.5l0 30l0 9l0 7l0 14q0 7 0.5 20q0 13 0.5 37l-28.5 -1l-22.5 0q-69 0.5 -120.5 16q-52 15.5 -81.5 43.5q-29 28 -29.5 64.5q1 49 48 79q47 29.5 125 30.5q42 0 78.5 -10q36.5 -10 58.5 -28q18 -14 26.5 -35q8.5 -21 8.5 -51q0 -8.5 -1 -18.5q-0.5 -10 -2 -26.5q30.5 8 54 18q23 10 48.5 25q23 14 47.5 32.5q24.5 18 38.5 31q19 19 26.5 24q7.5 5.5 14 5q10.5 -0.5 16.5 -10q6 -9.5 6.5 -26q-0.5 -20 -8 -37.5q-7.5 -17 -22 -30q-21 -18.5 -55.5 -35q-35 -17 -78.5 -30.5q-43.5 -14 -91 -23q-2.5 -18 -3.5 -35q-1.5 -16.5 -3 -45q-0.5 -17.5 -0.5 -31l-1 -27.5l-1.5 -33.5q38 -3.5 83 -11.5q44.5 -8 84 -18.5q47.5 -12 63.5 -21.5q16.5 -9 15.5 -22.5q0 -6 -3 -11q-3.5 -5 -9.5 -8q-10 -6.5 -25.5 -11q-15 -4.5 -26.5 -4.5q-5 0 -8.5 1q-4 1 -7 3q-13.5 9.5 -23 14.5q-9.5 4.5 -28 11q-26.5 8.5 -56 15.5q-29.5 7 -61 12l-1 -53l0 -40l0 -31.5l1 -34q46 -5 95 -14q48.5 -9.5 100.5 -21.5q47 -11 64 -19.5q17 -8 16 -18.5q0 -7 -4.5 -13q-4.5 -6 -13 -11.5q-9.5 -6.5 -26 -12q-17 -5 -27 -5.5q-2.5 0 -6.5 1.5q-3.5 1 -6 2.5q-24.5 17.5 -70 32q-45 14 -120.5 28.5q2.5 -40 7 -67q4.5 -27 11.5 -41.5q9.5 -20.5 11.5 -26q2 -5.5 2 -9q0 -11.5 -8.5 -19.5q-8 -8 -26.5 -14q-18 -6.5 -41 -10q-23 -3.5 -45 -3.5q-20.5 -0.5 -31 3q-10.5 3 -20 13.5q28.5 3.5 46 11q17 7.5 26 25.5q8.5 18 12 52.5q3.5 35 5 93q-46 7 -80 10l-66.5 2.5q-38.5 0 -65.5 -4.5q-27 -4.5 -50 -16.5q-23 -12 -49.5 -34.5l-10 10.5M500.5 -145.5l0 3.5l-0.5 19.5l-1.5 19q-2.5 19 -7.5 32q-5.5 12.5 -15 21.5q-19 18 -49 27.5q-30 9.5 -68 9.5q-52.5 0 -82 -15.5q-29 -15 -29.5 -43q0 -40 55.5 -61.5q24 -9.5 52.5 -14.5q28.5 -5 59 -5l38.5 1.5l47.5 5.5" />
</g>
<g id="PathID_759" transform="matrix(0.0107353, 0, 0, 0.0107353, 175, 11.4)">
<path style="fill:#000000;fill-opacity:1" d="M846.5 -195.5q-26 22 -47 38q-20.5 16 -40 28.5q-20 12.5 -43 24.5q-59 31 -119.5 48q-61 17 -114 17.5q-27 0 -50.5 -7.5q-23.5 -7 -40.5 -20q-21.5 -17.5 -31.5 -47q-9.5 -29.5 -9.5 -76q0 -37 3.5 -91.5q3.5 -54 9.5 -115.5q6 -61.5 13 -119.5q7 -58 14 -102q7.5 -43.5 13 -63q6.5 -17 8.5 -24.5q1.5 -7.5 1.5 -12.5q0 -16 -15 -31.5q-15 -15 -44.5 -29q-24.5 -10.5 -49 -17q-25 -6.5 -43.5 -6.5q-8 0 -14 2q-6.5 2.5 -14.5 8.5q36 14.5 54 29.5q18 14.5 23.5 39q6 24.5 5.5 67.5q0 17.5 -0.5 37.5q-0.5 20 -2 52l-4.5 86.5q-3 47 -4.5 93q-2 46 -3 85.5q-1 40 -1 68.5q0 64.5 6.5 105.5q7 41.5 22 67.5q24 41.5 67.5 64q44 22.5 102.5 23q64 0 128 -25.5q63.5 -25 122.5 -72.5q59.5 -47 109 -114l-12.5 -11" />
</g>
<g id="PathID_760" transform="matrix(0.0107353, 0, 0, 0.0107353, 185.95, 11.4)">
<path style="fill:#000000;fill-opacity:1" d="M96 -591.5q28 48.5 61 70.5q33.5 22 79.5 21.5q22 0 45.5 -2.5q24 -2.5 53 -7.5q-34.5 100 -61.5 168.5q-27 68 -50.5 114.5q-23.5 47 -49 83.5q-10.5 15 -15.5 23q-4.5 8 -6 13.5q-1 5.5 -1 13.5q0 13.5 4 30q4 16.5 10.5 29.5q4.5 10.5 10 15.5q6 5 13.5 5q10.5 0.5 20 -11.5q9.5 -11.5 22.5 -43.5q13 -32.5 33 -92.5l33 -97.5l19 -56.5q7 -20.5 12 -36.5l13 -38l22 -68l11 -34l10 -28q49 -12.5 96.5 -28q47 -15.5 82.5 -31.5q32 -14 46 -25.5q14 -12 13.5 -24.5q0 -6 -4 -10.5q-4 -5 -12.5 -8q-13 -4.5 -28 -8q-15.5 -3 -26 -3q-6 -0.5 -11.5 3q-5.5 3 -17.5 14q-18 17 -47 32q-29 15.5 -71.5 30.5q19.5 -55 35 -93q16 -38 26 -53q9 -12.5 11 -16.5q2 -3.5 1.5 -8.5q0 -11.5 -11.5 -22q-11.5 -10.5 -34.5 -19q-23.5 -9 -46.5 -14q-23.5 -5 -41.5 -5q-9.5 -0.5 -16 1.5q-6 2 -15.5 7.5q42 14 57.5 27.5q16 14 15 37q0 18 -4.5 45.5q-4.5 28 -12 61q-8 33 -18.5 66.5q-35 10 -67.5 15q-32.5 4.5 -62.5 4.5q-32 0.5 -57 -12q-25 -12.5 -55.5 -44.5q-6 4.5 -12.5 8.5M551 -422.5q54 -20 100 -29q45.5 -9 95.5 -9q-23 23 -33.5 33l-17 15q-18 16.5 -26 24.5l-13 11.5q-4 4.5 -10 10l6 9.5q11.5 -6.5 17 -10q5.5 -3 19 -11.5q17 -11.5 25.5 -17q8.5 -5.5 15 -9l16 -9q14 -7.5 24.5 -11.5q11 -4.5 23.5 -6q12 -2 30.5 -3q22 -0.5 31 -6q8.5 -5.5 8 -17.5q0 -8.5 -4 -16.5q-4.5 -7.5 -12 -12q-13 -8.5 -30.5 -13.5q-17.5 -5 -34.5 -5q-60 0 -121 17.5q-60.5 18 -116.5 51q3 6.5 6.5 13.5M501.5 -249.5q-5 18 -7 33q-2 15 -2 31.5q0.5 51.5 23 90q22.5 38 64 58.5q34 16 82 24q48 8.5 107.5 8.5q60.5 0 90.5 -8.5q30.5 -8.5 30.5 -25.5q0 -6.5 -5 -13.5q-4.5 -7 -13.5 -15q-14 -10 -28.5 -17q-15 -7 -24 -7.5q-3 0 -7.5 1q-4.5 1 -10 3q-23.5 9 -45.5 12.5q-22 3 -52.5 3q-30.5 0 -59.5 -5q-29 -5 -50 -14.5q-38 -16.5 -58 -48q-20 -32 -20 -76l0 -11.5l1 -20l-15.5 -3" />
</g>
<g id="PathID_761" transform="matrix(0.0107353, 0, 0, 0.0107353, 196.9, 11.4)">
<path style="fill:#000000;fill-opacity:1" d="M192.5 -169q-36.5 0.5 -66.5 18q-29.5 18 -47.5 47.5q-17.5 30 -18 66.5q0.5 37 18 67q18 29.5 47.5 47.5q30 17.5 66.5 18q36.5 -0.5 66.5 -18q29.5 -18 47.5 -47.5q17.5 -30 18 -67q-0.5 -37 -18 -67q-17.5 -29.5 -47 -47q-30 -17.5 -67 -18M192.5 -136q42.5 1 70 29q28 28 29 70q-1 42.5 -29 70.5q-27.5 28 -70 29q-41.5 -1 -70 -29.5q-28 -28 -29 -70q1 -42 29 -70q27.5 -28 70 -29" />
</g>
</svg>
