<?xml version="1.0" encoding="utf-8"?>
<svg version="1.1" id="Layer_1"
xmlns="http://www.w3.org/2000/svg"
xmlns:xlink="http://www.w3.org/1999/xlink"
xmlns:author="http://www.sothink.com"
width="87px" height="13px"
xml:space="preserve">
<g id="PathID_833" transform="matrix(0.0107353, 0, 0, 0.0107353, -0.45, 11.35)">
<path style="fill:#000000;fill-opacity:1" d="M579.5 -700.5l10 -10.5l6.5 -8l42 -49.5l19 -21.5q5.5 -6.5 11.5 -13q23 -3.5 34.5 -8.5q11.5 -5 11.5 -12q1 -3.5 -6.5 -7.5q-7 -3.5 -33 -9.5q-25.5 -6 -80 -17.5q-4.5 30.5 -10.5 55.5q-5.5 25.5 -14 49.5q-8.5 24.5 -20.5 52.5l-73 0l-26 -18q-11 -7.5 -22.5 -14q-11 -6.5 -28 -16q1 19.5 2 50.5l1 81l1 128.5l0 192.5l0 76l-1 54l-1.5 40q-0.5 12.5 -0.5 17.5l0 9l0 10l0 12.5q2 5.5 5 7.5q3.5 2 9.5 2l39 -3q12 -1.5 14.5 -5.5q3 -3.5 2.5 -11l0 -2.5l0 -2.5l0 -56.5l342 0l0 54q0.5 8.5 2 11.5q1 3 4 3l45.5 -2.5q13.5 -1.5 16.5 -4.5q3 -3 2.5 -9.5l-1 -65q-0.5 -59.5 -2 -172q21 -13.5 27.5 -19q7 -5.5 6 -10q0.5 -2 -0.5 -4q-1 -2.5 -3.5 -6q-20 -16 -33.5 -25.5q-13 -9.5 -34 -23q-12 13.5 -19.5 23.5q-7 9.5 -17 25l-336 0l0 -122l321.5 0l0 29.5l0 3q0 6 4.5 9q5 2.5 15 2.5l2 0l2 0l5.5 0l3.5 -1q22 -0.5 29.5 -3q7 -2.5 6.5 -8.5l0 -0.5l0 -1.5q-0.5 -14.5 -1 -47q-0.5 -32.5 -0.5 -68q-0.5 -36 -0.5 -60l0 -7.5l0 -15l5.5 -4q3 -1.5 6 -3.5q6 -4.5 9.5 -7l3.5 -2q5.5 -4.5 8 -7.5q2.5 -2.5 2.5 -5q0 -2 -1.5 -4.5q-1.5 -2 -4 -4.5l-24 -17.5l-20 -14q-10 -6.5 -24.5 -16.5l-18.5 23.5q-7 9.5 -17 24.5l-205 0M471 -518l0 -159l321.5 0l0 159l-321.5 0M471 -172l0 -177l343 0l0 177l-343 0M72 -814q38 46 59.5 76q21.5 29.5 35.5 57q14 27.5 31 67.5q6 16 13.5 24q7.5 8 16 8q7 -0.5 14.5 -12q8 -11 13.5 -26.5q5.5 -16 5.5 -30.5q0.5 -16 -6 -30.5q-6.5 -14.5 -20.5 -28.5q-18 -20 -38 -37q-20 -17 -47 -35.5q-27.5 -18.5 -66.5 -42.5l-11 10.5M52.5 -391q18 -4 31 -5.5l30.5 -1l92 0l0 264.5q-40 32.5 -83 56.5q-43 24.5 -81 35.5l12.5 29q5 11 11.5 23l20 36q5.5 9 10 13.5q4 4 8.5 4q5.5 0 8.5 -5q3 -4.5 3 -12.5q0 -1.5 -1 -9.5l-1 -20q29.5 -28.5 49.5 -49.5q20 -21 38.5 -44q18.5 -23 44 -57q15.5 36.5 33.5 62q18.5 25.5 46 48.5q22.5 20 48 32.5q25.5 13 60.5 20q35 7.5 86.5 10q51.5 3 125.5 3l295 0q3.5 -20.5 9.5 -32.5q6 -12.5 18 -20.5q12 -8.5 35 -17.5l0 -13.5l-148 7l-102.5 4.5l-74.5 2.5q-32 1 -63 1q-30.5 0.5 -68.5 0.5q-47.5 0 -82 -3q-35 -2.5 -62 -9q-27.5 -6.5 -52.5 -18q-31 -12.5 -48.5 -30.5q-17.5 -17.5 -28.5 -47l0 -250q11.5 -8 17.5 -12.5l7 -5q1.5 -1.5 3 -4q1 -2.5 1 -4q0 -3 -1.5 -6q-1.5 -3 -5.5 -6.5q-13.5 -9.5 -22.5 -16q-9.5 -6.5 -19.5 -12.5q-9.5 -6.5 -24.5 -15.5l-16.5 21.5q-6.5 8.5 -15 22.5l-83 0q-17 0 -34 -2.5q-17.5 -2.5 -38 -7.5q5.5 20 10.5 40" />
</g>
<g id="PathID_834" transform="matrix(0.0107353, 0, 0, 0.0107353, 10.5, 11.35)">
<path style="fill:#000000;fill-opacity:1" d="M450.5 -414.5l-10 16.5l-7.5 13q-4.5 6.5 -12.5 19.5l-31 52.5q-11.5 19.5 -19.5 32.5q-7.5 13 -15.5 26l-20 33.5q-10.5 18.5 -16 27q-5.5 9 -9 14l-8.5 13q-19 -13.5 -30.5 -31.5q-12 -17.5 -23 -48.5q-11.5 -31.5 -17.5 -69q-6 -37.5 -6 -79.5q0 -31 4.5 -68.5q5 -37 14 -84l2.5 -15.5q0.5 -6.5 0.5 -11q0 -17.5 -11.5 -38q-11.5 -20.5 -34.5 -43q-23.5 -23 -43.5 -36.5q-20.5 -13.5 -33.5 -13.5l-4.5 0l-4.5 0q22 27.5 33 50q11 22 15 51q4 28.5 4.5 75q-0.5 54 0 85.5q1 31.5 2.5 52.5q1.5 20.5 4.5 42.5q7.5 61.5 25.5 114q18 52.5 44 90.5q16.5 24 37 43.5q20.5 20 41 31.5q20 12 34.5 12q9.5 0 16 -7.5q6.5 -7 6.5 -18q0 -4 -0.5 -8q-0.5 -4.5 -1.5 -8.5l-5 -24q-1 -5.5 -1 -10.5q-0.5 -20 8.5 -51q8.5 -31 29.5 -84.5q21 -53 58.5 -138l-15.5 -7M679 -580.5q43.5 23.5 75 56.5q31 33 52 77.5q8.5 19 15.5 43q7.5 23.5 11.5 48q4.5 24 4.5 43q0.5 14 -4 20q-4.5 6 -19.5 11l-41.5 12q-34.5 10 -97 27q1.5 7.5 3.5 15l43 -1.5q17.5 -0.5 34.5 -0.5q32.5 0 50 3q17.5 2.5 27 9.5q10.5 6.5 17 9q6.5 2.5 13.5 2q23.5 -0.5 37.5 -22q13.5 -21.5 14 -58.5q-0.5 -72 -31.5 -136q-30.5 -64 -82.5 -109.5q-52.5 -45.5 -117.5 -61l-5 12.5" />
</g>
<g id="PathID_835" transform="matrix(0.0107353, 0, 0, 0.0107353, 21.45, 11.35)">
<path style="fill:#000000;fill-opacity:1" d="M427 -52q74.5 -6.5 135 -21q60.5 -14 118 -38.5q112.5 -48.5 173.5 -126q61.5 -78 62 -174q-0.5 -67.5 -33.5 -118q-33 -50.5 -91.5 -79q-59 -28 -137.5 -28.5q-52.5 0 -108.5 10q-55.5 10 -120.5 31.5q-65 22 -145.5 57q-43.5 19 -74 28q-30 9 -50 9q-10.5 0 -20.5 -4q-10 -4 -21.5 -12.5q-9 -6.5 -15 -14.5q-6.5 -7.5 -13.5 -23.5q-4.5 9 -6.5 15q-2 5.5 -2 11q1 23.5 21.5 51q20 27 48.5 46q28 19.5 53 20.5q9 0 18 -3.5q9 -4 21 -14q68 -53 140 -91q72 -38.5 141.5 -59q69.5 -21 130 -21q85 1 135.5 47.5q51 46.5 52 124.5q-0.5 81.5 -49.5 153q-48.5 71 -139 122.5q-47.5 27.5 -102 48q-54.5 20.5 -124 38l5 15.5" />
</g>
<g id="PathID_836" transform="matrix(0.0107353, 0, 0, 0.0107353, 32.4, 11.35)">
<path style="fill:#000000;fill-opacity:1" d="M450.5 -414.5l-10 16.5l-7.5 13q-4.5 6.5 -12.5 19.5l-31 52.5q-11.5 19.5 -19.5 32.5q-7.5 13 -15.5 26l-20 33.5q-10.5 18.5 -16 27q-5.5 9 -9 14l-8.5 13q-19 -13.5 -30.5 -31.5q-12 -17.5 -23 -48.5q-11.5 -31.5 -17.5 -69q-6 -37.5 -6 -79.5q0 -31 4.5 -68.5q5 -37 14 -84l2.5 -15.5q0.5 -6.5 0.5 -11q0 -17.5 -11.5 -38q-11.5 -20.5 -34.5 -43q-23.5 -23 -43.5 -36.5q-20.5 -13.5 -33.5 -13.5l-4.5 0l-4.5 0q22 27.5 33 50q11 22 15 51q4 28.5 4.5 75q-0.5 54 0 85.5q1 31.5 2.5 52.5q1.5 20.5 4.5 42.5q7.5 61.5 25.5 114q18 52.5 44 90.5q16.5 24 37 43.5q20.5 20 41 31.5q20 12 34.5 12q9.5 0 16 -7.5q6.5 -7 6.5 -18q0 -4 -0.5 -8q-0.5 -4.5 -1.5 -8.5l-5 -24q-1 -5.5 -1 -10.5q-0.5 -20 8.5 -51q8.5 -31 29.5 -84.5q21 -53 58.5 -138l-15.5 -7M679 -580.5q43.5 23.5 75 56.5q31 33 52 77.5q8.5 19 15.5 43q7.5 23.5 11.5 48q4.5 24 4.5 43q0.5 14 -4 20q-4.5 6 -19.5 11l-41.5 12q-34.5 10 -97 27q1.5 7.5 3.5 15l43 -1.5q17.5 -0.5 34.5 -0.5q32.5 0 50 3q17.5 2.5 27 9.5q10.5 6.5 17 9q6.5 2.5 13.5 2q23.5 -0.5 37.5 -22q13.5 -21.5 14 -58.5q-0.5 -72 -31.5 -136q-30.5 -64 -82.5 -109.5q-52.5 -45.5 -117.5 -61l-5 12.5" />
</g>
<g id="PathID_837" transform="matrix(0.0107353, 0, 0, 0.0107353, 43.35, 11.35)">
<path style="fill:#000000;fill-opacity:1" d="M96 -591.5q28 48.5 61 70.5q33.5 22 79.5 21.5q22 0 45.5 -2.5q24 -2.5 53 -7.5q-34.5 100 -61.5 168.5q-27 68 -50.5 114.5q-23.5 47 -49 83.5q-10.5 15 -15.5 23q-4.5 8 -6 13.5q-1 5.5 -1 13.5q0 13.5 4 30q4 16.5 10.5 29.5q4.5 10.5 10 15.5q6 5 13.5 5q10.5 0.5 20 -11.5q9.5 -11.5 22.5 -43.5q13 -32.5 33 -92.5l33 -97.5l19 -56.5q7 -20.5 12 -36.5l13 -38l22 -68l11 -34l10 -28q49 -12.5 96.5 -28q47 -15.5 82.5 -31.5q32 -14 46 -25.5q14 -12 13.5 -24.5q0 -6 -4 -10.5q-4 -5 -12.5 -8q-13 -4.5 -28 -8q-15.5 -3 -26 -3q-6 -0.5 -11.5 3q-5.5 3 -17.5 14q-18 17 -47 32q-29 15.5 -71.5 30.5q19.5 -55 35 -93q16 -38 26 -53q9 -12.5 11 -16.5q2 -3.5 1.5 -8.5q0 -11.5 -11.5 -22q-11.5 -10.5 -34.5 -19q-23.5 -9 -46.5 -14q-23.5 -5 -41.5 -5q-9.5 -0.5 -16 1.5q-6 2 -15.5 7.5q42 14 57.5 27.5q16 14 15 37q0 18 -4.5 45.5q-4.5 28 -12 61q-8 33 -18.5 66.5q-35 10 -67.5 15q-32.5 4.5 -62.5 4.5q-32 0.5 -57 -12q-25 -12.5 -55.5 -44.5q-6 4.5 -12.5 8.5M551 -422.5q54 -20 100 -29q45.5 -9 95.5 -9q-23 23 -33.5 33l-17 15q-18 16.5 -26 24.5l-13 11.5q-4 4.5 -10 10l6 9.5q11.5 -6.5 17 -10q5.5 -3 19 -11.5q17 -11.5 25.5 -17q8.5 -5.5 15 -9l16 -9q14 -7.5 24.5 -11.5q11 -4.5 23.5 -6q12 -2 30.5 -3q22 -0.5 31 -6q8.5 -5.5 8 -17.5q0 -8.5 -4 -16.5q-4.5 -7.5 -12 -12q-13 -8.5 -30.5 -13.5q-17.5 -5 -34.5 -5q-60 0 -121 17.5q-60.5 18 -116.5 51q3 6.5 6.5 13.5M501.5 -249.5q-5 18 -7 33q-2 15 -2 31.5q0.5 51.5 23 90q22.5 38 64 58.5q34 16 82 24q48 8.5 107.5 8.5q60.5 0 90.5 -8.5q30.5 -8.5 30.5 -25.5q0 -6.5 -5 -13.5q-4.5 -7 -13.5 -15q-14 -10 -28.5 -17q-15 -7 -24 -7.5q-3 0 -7.5 1q-4.5 1 -10 3q-23.5 9 -45.5 12.5q-22 3 -52.5 3q-30.5 0 -59.5 -5q-29 -5 -50 -14.5q-38 -16.5 -58 -48q-20 -32 -20 -76l0 -11.5l1 -20l-15.5 -3" />
</g>
<g id="PathID_838" transform="matrix(0.0107353, 0, 0, 0.0107353, 54.3, 11.35)">
<path style="fill:#000000;fill-opacity:1" d="M317.5 -794q31.5 5.5 48.5 14q17 8.5 25 23q4 7 6 18q2.5 11 3.5 34q1.5 23 3 66l2.5 60.5q1 23 2 37.5q1 14 2.5 26q3.5 32.5 11 51q7 18.5 18.5 26.5q12.5 9 23 12.5q10 3 26.5 3q-45 24 -74 43q-29 19.5 -51 39q-50.5 42 -75.5 84.5q-25 43 -25 87.5q0.5 51.5 30 91.5q29.5 40 81.5 60q32.5 11.5 75.5 17.5q43 6 98.5 6q32 0 71 -2l74 -5q34.5 -3 52 -6.5q24 -4 34 -12q10 -8 10 -21.5q-1 -19.5 -18 -34.5q-16.5 -15 -37.5 -16q-4.5 0 -8.5 1l-12 2.5q-37.5 8.5 -80 15q-43 7 -84 10.5q-41 4 -73.5 4q-85.5 0 -128.5 -28q-43.5 -28.5 -43.5 -83.5q0 -36 19 -67.5q19.5 -32 61 -63.5q31.5 -24.5 67.5 -44q35.5 -19.5 81.5 -36.5q45.5 -17 107 -34.5q34.5 -9.5 49 -14.5q15 -5 19.5 -7q10.5 -4.5 16 -12.5q5.5 -8 5.5 -18q-1 -17 -15.5 -29.5q-14.5 -13 -33.5 -13.5q-9 0 -19 2.5q-9.5 3 -23 9.5q-46 22 -72.5 33.5q-26 11 -40.5 15q-14.5 4 -24.5 4q-23 1 -31.5 -15.5q-9 -16 -8.5 -60.5q0.5 -43 3.5 -84q3 -40.5 8 -73.5q5 -32.5 11 -50q5.5 -13 7 -17.5q1.5 -4 1.5 -9.5l0 -0.5l0 -1.5q0 -10.5 -6.5 -18.5q-7 -8 -22.5 -14q-12.5 -5.5 -30.5 -10q-18.5 -4 -37.5 -7q-19.5 -2.5 -35 -2.5q-15 -0.5 -24 3q-9.5 3.5 -20 13" />
</g>
<g id="PathID_839" transform="matrix(0.0107353, 0, 0, 0.0107353, 65.25, 11.35)">
<path style="fill:#000000;fill-opacity:1" d="M177.5 -644.5q33.5 38 70.5 56.5q36.5 18.5 78.5 18.5q41.5 0 90 -8.5q49 -8 100.5 -24.5q18 28.5 37 60.5q18.5 32 35 62.5q-64 19.5 -119.5 29q-55 10 -99.5 10q-40.5 0.5 -68.5 -13.5q-28.5 -14 -52.5 -47l-12 9.5q12.5 24 23 37.5q11 13.5 26 24q22 15 47.5 22.5q26 7 59 7q31.5 0 69 -5q37.5 -4.5 75.5 -13.5q38.5 -8.5 73.5 -20.5q28.5 55 48.5 99q19.5 44.5 28 75.5q-55 -12 -101.5 -17.5q-46 -5 -91 -5q-81 0.5 -142 19.5q-60.5 19 -94 53q-33.5 34.5 -34 81q0.5 40.5 26 74q26 33.5 73 55q35 14.5 86 22.5q50.5 8 111 8l58 -2q28 -2.5 50 -5.5q22 -3.5 32 -8q8 -3 11.5 -8q4 -5 4 -11q-0.5 -13.5 -11 -25.5q-10 -12.5 -25.5 -20.5q-15.5 -8 -31 -8.5l-5.5 0.5q-3 1 -7 1.5q-35.5 8.5 -64 11.5q-28.5 3 -65 3q-94.5 0 -144 -25q-49 -24.5 -49.5 -72.5q0 -26 15 -46.5q15 -20.5 46.5 -36.5q26.5 -13.5 59.5 -21q33 -7.5 68.5 -7.5q45.5 0 90 9q44.5 9 82.5 24.5q38.5 16 65 37q11.5 10 17 13q5.5 3 11.5 2.5q15.5 -0.5 25 -18.5q9 -17.5 9 -48q0 -14.5 -4 -27.5q-4.5 -13.5 -13.5 -27.5l-17.5 -29l-12 -21l-17.5 -31.5l-9 -15.5q-4.5 -8.5 -13 -23l-24 -41.5q103.5 -36.5 151.5 -61.5q47.5 -25.5 47 -43.5q0 -12 -7.5 -19q-7.5 -6.5 -20 -7l-4 0.5l-4.5 0.5l-16 2q-3 0.5 -2 0q-15.5 0 -36.5 -7q-21 -7 -50 -21.5l-7 10.5q17.5 13.5 28 22.5q10 9.5 25.5 25.5q-13 8 -27 15q-14 6.5 -37 16q-23.5 9.5 -63 25q-21 -33.5 -33.5 -55q-12 -21 -17 -28.5l-12 -20.5l-10.5 -17.5q63 -20 101 -33q37.5 -13 49.5 -18.5q39.5 -16 53.5 -25.5q14 -9.5 13 -19.5q0 -13 -15 -20q-15 -6.5 -45 -6.5q-11.5 0 -19.5 2.5q-7.5 2.5 -13.5 7.5q-13 14 -29.5 25q-16 10.5 -43 22q-27.5 12 -74 29q-20 -39.5 -28.5 -57.5q-9 -18.5 -11 -26.5q-2 -8 -2.5 -17.5q-1 -20.5 -3.5 -27.5q-2 -7 -8.5 -12.5q-7 -6 -25 -9.5q-18 -3.5 -45 -3.5l-24 1q-11 1 -23 4q-20 4 -28 9q-8 5 -13 17.5q28.5 3 49 8.5q20 5.5 30 13q12 9 28 28q16 18.5 32 41.5q16 23 28 45.5q-23 8.5 -53 15.5q-30 7 -60.5 11q-30.5 4 -54.5 4q-39.5 0.5 -70 -10q-31 -10.5 -66 -36l-8 11" />
</g>
<g id="PathID_840" transform="matrix(0.0107353, 0, 0, 0.0107353, 76.2, 11.35)">
<path style="fill:#000000;fill-opacity:1" d="M309.5 -382l-54.5 143.5q-8 22 -16 41.5q-8 19.5 -21 45.5q-10.5 -31.5 -15 -62.5q-4.5 -31.5 -4.5 -72.5q0 -33.5 3.5 -65.5q3 -32.5 10 -61.5q5.5 -24.5 14.5 -54q9 -29.5 19.5 -58.5q11 -28.5 21.5 -50.5q10 -20 14.5 -30.5q5 -10.5 6 -16.5q1 -6.5 1 -14.5q0 -16.5 -9.5 -37q-9.5 -20 -28.5 -43.5q-20.5 -27 -36.5 -38.5q-16 -11.5 -32.5 -12q15.5 27 22.5 49.5q6.5 22 6.5 47q0 15.5 -3.5 37.5q-3.5 22 -11 57.5l-16.5 78.5q-6.5 29 -9.5 46.5q-3 17 -5 32q-2.5 15 -5 36.5q-3.5 31 -6 58.5q-2 28 -2 51q0 62.5 9.5 120q9.5 57 26.5 98q8.5 20.5 19.5 31.5q11.5 10.5 24.5 10.5q8.5 0 15 -4.5q6.5 -4.5 9.5 -13q1.5 -4 2.5 -13q1 -9.5 1 -31q-0.5 -15.5 1 -28.5q1.5 -13.5 5.5 -32q3.5 -18 10.5 -48l33 -137q11.5 -48.5 13.5 -55.5q-7.5 -2.5 -14.5 -5M441.5 -639q32 31.5 64.5 44.5q32.5 13.5 74.5 13l16.5 -0.5l25.5 -1.5q-12.5 9.5 -37.5 30q-25 20.5 -59.5 50l10 10q21 -13.5 45.5 -27.5q24.5 -14.5 47.5 -26.5q23 -12 39 -18.5q29 -12 62.5 -20.5q33.5 -8 83 -15.5q16 -3 22.5 -8.5q6.5 -5 6 -15q0 -10 -7.5 -19.5q-8 -9.5 -24 -18.5q-11 -7 -20.5 -10.5q-9 -3.5 -15.5 -4q-5 0 -9 1.5q-4 1.5 -13.5 7q-22.5 12 -58.5 22.5q-36 10.5 -75 17q-39.5 6.5 -72 6.5q-27 0.5 -48 -6q-21.5 -6 -47.5 -21.5l-9 12M435 -329.5q-6.5 24 -9.5 43q-2.5 19 -2.5 37.5q0 42 14 75q13.5 33 41 58q35 31 102 46.5q67 16 163.5 16q43.5 0 77.5 -3q33.5 -3 50.5 -8q10.5 -4 16.5 -10.5q6 -6 6 -15.5q-0.5 -12.5 -11 -26.5q-10 -13.5 -25 -23.5q-15 -9.5 -28.5 -10q-6 0 -15.5 3q-16 6.5 -24 9.5q-8 3 -14 4q-6 1.5 -16 3q-21 3.5 -43 5.5l-44.5 1.5q-118 0.5 -171 -37q-53 -38 -52 -121.5q0 -9.5 1 -19q0.5 -9.5 2 -24l-17.5 -4" />
</g>
</svg>
