<?xml version="1.0" encoding="utf-8"?>
<svg version="1.1" id="Layer_1"
xmlns="http://www.w3.org/2000/svg"
xmlns:xlink="http://www.w3.org/1999/xlink"
xmlns:author="http://www.sothink.com"
width="252px" height="14px"
xml:space="preserve">
<g id="PathID_719" transform="matrix(0.0107353, 0, 0, 0.0107353, -11.4, 11.65)">
<path style="fill:#000000;fill-opacity:1" d="" />
</g>
<g id="PathID_720" transform="matrix(0.0107353, 0, 0, 0.0107353, -0.45, 11.65)">
<path style="fill:#000000;fill-opacity:1" d="M148.5 -72.5l-41 5.5l-28.5 3l-31 2q12 40.5 19 62.5q7.5 22 13 30.5q5 8.5 10 8q6.5 1 10 -7.5q3.5 -9 7.5 -34.5q55.5 -18 89.5 -29.5q34 -11.5 60 -20.5l56.5 -20l80.5 -29l0 42l-1 49q-0.5 28.5 -2 75l0 1l0 1q0 5 3 7.5q3 2.5 9 2.5q11.5 0 27.5 -2.5q16.5 -2 23 -4.5q4.5 -1.5 6.5 -4.5q2 -2.5 2.5 -8q-2 -42 -3 -78.5q-1 -36.5 -1.5 -75.5q-0.5 -38.5 -0.5 -86.5l0 -268.5l507 0q3 0 6 -2q3 -2 3 -4q0 -2.5 -1.5 -5q-2 -2.5 -6.5 -6.5l-43 -37.5q-22 -19 -44 -39l-21 25q-9 10 -17.5 20.5l-21 25l-680.5 0q-25.5 0 -41.5 -0.5l-28.5 -1.5l-27.5 -4l7 35.5q20 -3 42.5 -4.5l48 -1.5l10 0l0 380M212 -452.5l183 0l0 98.5l-183 0l0 -98.5M212 -330.5l183 0l0 101.5l-183 0l0 -101.5M212 -205.5l183 0l0 85q-31 7.5 -56 13q-25.5 5.5 -54.5 11l-72.5 13l0 -122M540.5 -360.5l-31.5 -1q-13 -1 -26.5 -4l7 33.5l26.5 -3.5l24.5 -1.5l9.5 0q16 47 32.5 82.5q16.5 35.5 38 67q21 31.5 50 65.5q-33.5 38.5 -62.5 66.5q-29 27.5 -59 50q-30 22 -66.5 44.5l8 11q48 -22 84.5 -42.5q36 -20 66.5 -42.5q30.5 -23 61 -52q30 29 59.5 51.5q29.5 22 64.5 41.5q34.5 19.5 82 40q3.5 -15 8.5 -24q5 -9 16 -19q9.5 -8.5 19.5 -13q10 -5 25.5 -8.5l0 -13.5q-53 -10 -93 -22q-40 -11.5 -74.5 -29q-34.5 -17 -71 -43q20.5 -23.5 38 -47.5q17.5 -24.5 37 -57q19.5 -32.5 45.5 -81q31.5 -11 40 -15.5q8.5 -5 7.5 -9q0 -2 -2.5 -5.5l-7 -8q-19.5 -16.5 -31 -26.5q-11.5 -10.5 -30.5 -25.5q-13.5 12.5 -22.5 20q-8.5 8 -21.5 21l-252 0M792.5 -337q-14 40 -26.5 69q-12.5 29 -28.5 54.5q-15.5 26 -38 56.5q-20.5 -17 -36.5 -34.5q-16.5 -17 -32 -37q-12.5 -16 -21.5 -29q-9 -13.5 -18.5 -32q-9 -18 -22.5 -47.5l224 0M255 -561l486.5 0l0 26.5q-0.5 6 3 8.5q3.5 2 13.5 2l28.5 -1q12 -1 17.5 -3.5q4.5 -1 6 -4q1.5 -2.5 2 -9l0 -1q-1 -24 -1.5 -51.5q-0.5 -27.5 -0.5 -69l0 -108q23.5 -16 28.5 -20.5q5.5 -4.5 4.5 -8q0 -2.5 -2 -5q-1.5 -2.5 -5.5 -6.5q-17 -16 -29 -25.5q-12 -10 -32.5 -24.5l-19.5 22.5l-18 22.5l-476.5 0l-26 -16.5l-21.5 -13l-27 -15.5l2.5 37.5l1 37.5q0.5 20.5 0.5 54q0 45.5 -0.5 76.5l-1 59.5l-2.5 63.5l0 1l0 1q-0.5 6 5 8.5q5.5 2 20.5 2q24 0 34.5 -2.5q10 -3 9.5 -9l0 -3l0 -26.5M741.5 -702.5l-486.5 0l0 -90l486.5 0l0 90M741.5 -679l0 94.5l-486.5 0l0 -94.5l486.5 0" />
</g>
<g id="PathID_721" transform="matrix(0.0107353, 0, 0, 0.0107353, 10.5, 11.65)">
<path style="fill:#000000;fill-opacity:1" d="M871 -695.5l1 30.5l0 21l0 24.5q0 82 -5 167.5q-5 85.5 -14 169.5q-9.5 85 -20.5 146.5q-10.5 61.5 -20.5 85q-5.5 15 -16.5 20.5q-10.5 5.5 -34 5q-15 0 -35 -1l-54.5 -3.5l-91.5 -7l0 16.5q31 4 56.5 9q26 5 45 10.5q21.5 5 32.5 17q10.5 12.5 15.5 37.5q35 -2.5 64 -10.5q28.5 -8 47.5 -20.5q21.5 -13.5 37 -50q15.5 -36 25.5 -95.5q10.5 -58.5 17 -112.5q7 -54 11.5 -114.5q4.5 -60 7.5 -137q2.5 -76.5 5 -180.5q24 -16 32.5 -23q9 -7 8.5 -11q0 -1.5 -2.5 -5q-2.5 -3 -8 -8.5q-19.5 -15 -32.5 -24q-13 -9.5 -34 -23q-12.5 11.5 -19.5 20q-7.5 8.5 -18.5 23l-303 0l-49 -2q-21 -1.5 -44 -6l7 37.5q22 -3.5 40.5 -5q18 -1 45.5 -1l75 0q-5 164 -41 306q-36 141.5 -100.5 247.5q-32.5 53 -72.5 98.5q-40 45 -100.5 97l9 13q28 -16 47.5 -28.5q19.5 -13 36 -26q16.5 -13 34.5 -30.5q61.5 -57 109 -128q47.5 -71.5 78.5 -154.5q30.5 -81.5 49 -183.5q18.5 -102 22.5 -211l156.5 0M286.5 -449.5q20.5 -25 39 -49.5q18.5 -24.5 39.5 -54l48.5 -71.5l30 -11q10.5 -4 13 -6.5q2.5 -1.5 3.5 -3.5q1.5 -2 1.5 -3.5q0 -3 -1.5 -5.5l-5.5 -6q-18 -17.5 -31 -28q-12.5 -10.5 -34.5 -25.5q-15.5 14 -24.5 23q-9.5 9 -23.5 23.5l-54.5 0l0 -146.5q20.5 -8.5 30.5 -14.5q9.5 -6 9.5 -11.5q0.5 -4.5 -7.5 -7.5q-8 -3.5 -31.5 -7q-24 -4 -71.5 -10q0.5 9.5 2.5 34q2 24 4.5 63.5l0 99.5l-87 0q-20 0 -41 -2q-21 -1.5 -44 -6.5l7 39q17.5 -2.5 40.5 -4.5q23 -2.5 37.5 -2.5l205 0q-29.5 53 -52.5 91q-22.5 38.5 -43.5 68.5q-21 30.5 -44.5 60.5q-43 55 -86 101.5q-43 46.5 -97.5 96.5q7 6 13.5 12q38 -26 67.5 -49q29.5 -22.5 58.5 -50q29.5 -27 66.5 -66l0 176.5q0 40 -1 90q-1 50 -2.5 97.5q-1.5 48 -3.5 81.5q1 6 4.5 9q3.5 2.5 11.5 2.5q14.5 0 31 -2q16.5 -2 21.5 -4q3.5 -1.5 5 -4q1.5 -2 2 -6.5q-1.5 -50.5 -2.5 -104l-2 -97q-0.5 -43 -0.5 -63l0 -144.5q32 18 61 40.5q29.5 23 50.5 45.5l26 29l10 10.5l2 2.5q5.5 7.5 11 12q5.5 4.5 9.5 4.5q9 -1 15.5 -15q6.5 -14.5 7 -34.5q0 -17 -5.5 -28q-5.5 -11.5 -20 -21q-18.5 -12.5 -40 -23q-21.5 -10 -55.5 -22q31 -24.5 66.5 -55q36 -30.5 63.5 -57.5l30.5 -6.5q10.5 -2.5 14 -5q2 -1 3.5 -3q1.5 -2.5 1.5 -4q0 -4 -2.5 -6.5q-2.5 -2.5 -8 -5q-10 -5 -34.5 -14q-24.5 -9 -51.5 -17.5q-18.5 40.5 -41.5 79q-23.5 38.5 -60 89q-12 -4 -19 -6q-6.5 -2.5 -13.5 -4.5l-20.5 -6l0 -81" />
</g>
<g id="PathID_722" transform="matrix(0.0107353, 0, 0, 0.0107353, 21.45, 11.65)">
<path style="fill:#000000;fill-opacity:1" d="M82 122q27.5 -13 47 -27.5q19.5 -14 35 -33q20.5 -26 32 -57q11.5 -30.5 12 -62q-0.5 -43.5 -21.5 -68.5q-21 -25 -57.5 -25.5q-30.5 0.5 -49.5 19q-18.5 19 -19 48.5q-0.5 25 13.5 39q14 14.5 47 22.5q11 2 15.5 7q4 4.5 4 13.5q0 27.5 -19.5 51.5q-19 24 -59.5 48l20.5 24.5" />
</g>
<g id="PathID_723" transform="matrix(0.0107353, 0, 0, 0.0107353, 32.4, 11.65)">
<path style="fill:#000000;fill-opacity:1" d="M455 -707.5l-287.5 0l0 -15l0 -10.5l0 -24.5l-15.5 0q-6.5 51 -27 84q-21 33 -64 61q-6 3.5 -8 7q-1.5 3.5 -1.5 11.5q0.5 26.5 9 43.5q8.5 16.5 23 17q13.5 -1 31.5 -18.5q18 -17.5 28.5 -41q8 -16.5 13.5 -39.5q5 -22.5 8 -51.5l290 0l0 87q-1 50 -1 78.5q-0.5 28.5 -1 43.5q0 15 -0.5 23.5q0 9 -0.5 19.5q2 6 5.5 8q3.5 2.5 12 2q33 0.5 46.5 -4.5q13.5 -5 13.5 -18q-0.5 -12.5 -0.5 -20q-0.5 -7 -0.5 -14.5l0 -22.5l0 -44l-1 -61.5l0 -77l334 0q-5 22.5 -9.5 38.5q-4 16.5 -9 32.5l-12.5 39.5l7.5 5q13 -10 21.5 -17.5q8.5 -7.5 18 -17q9 -9 24 -25.5l9 -10l12.5 -14l14 -1.5l21.5 -2.5q7 -0.5 12 -1.5q5 -1 6.5 -2.5q2.5 -1.5 4.5 -4q1.5 -3 1.5 -5q0 -3 -2.5 -7q-2.5 -3.5 -8.5 -9.5q-17 -14.5 -29 -24q-12 -9.5 -24 -18.5l-31 -22q-23 21.5 -43 43l-317.5 0l0 -84l337 0q4.5 0 8 -2q3 -2 3 -5q0 -1 -1 -3q-1.5 -1.5 -3 -3.5q-19.5 -16 -32.5 -27.5l-26 -22l-32.5 -26l-22 22.5l-17.5 19l-21 24l-456.5 0q-20 0 -51 -3q-31 -2.5 -60.5 -7l7 38.5l15 -2l11 -1l15 0l19 -0.5l16 -1q9.5 0 28.5 -0.5l191.5 0l0 84M519.5 -107.5l241.5 0l0 32.5q0.5 6.5 4 9q3.5 2.5 10.5 2.5q12.5 0 26 -2q13 -2 20 -4q3.5 -2.5 6 -5.5q2.5 -2.5 3 -8l-1 -84q-0.5 -33 -0.5 -52.5q-0.5 -20 -0.5 -33l0 -27l0 -27l0 -35.5q22.5 -12 30 -18q7.5 -5.5 7 -10.5q0 -4 -2 -7q-2 -2.5 -6.5 -6.5q-18.5 -15 -30.5 -24q-12 -9 -31.5 -21l-21 20.5l-21 22.5l-516.5 0q-15.5 -9.5 -27 -16q-11 -6.5 -22.5 -12q-11.5 -6 -29 -14q1 16.5 2 53.5q1.5 37 2 79q1 42 1 74.5l0 18l-0.5 24l-1.5 44l-3 76.5q0.5 7.5 4.5 11q4.5 3.5 13 3.5q12.5 0 24 -1.5q11.5 -1 19 -2.5q3.5 -1.5 6 -5q2.5 -3.5 4 -9.5l0 -45l226.5 0l0 85q0 34.5 8.5 52.5q8.5 18 28.5 25.5q10.5 3.5 33.5 5.5q22.5 2.5 63 3.5q40.5 1 104 1q108.5 0 170 -3q61.5 -3 79.5 -9.5q11 -4 17 -11.5q5.5 -8 5.5 -18q0 -7 -4.5 -13.5q-4.5 -6.5 -11.5 -9q-12 -4.5 -15 -7q-3 -3 -2.5 -9.5l0 -5.5l0 -7.5q8.5 -81 17.5 -162l-12.5 0l-10 28q-8 22 -21.5 61q-10 30 -17.5 49q-7 18.5 -12.5 28q-6.5 12.5 -11.5 17.5q-5.5 5 -15 7l-32 2q-25.5 1 -60 1.5q-34.5 0.5 -66.5 0.5l-21 -0.5l-44.5 -1l-45 -1l-24 -0.5l-21.5 -1.5q-5 -0.5 -9 -2.5q-3 -2 -4 -5.5q-1 -4 -1 -14l0 -85M519.5 -131l0 -108.5l241.5 0l0 108.5l-241.5 0M455 -131l-226.5 0l0 -108.5l226.5 0l0 108.5M519.5 -263l0 -100.5l241.5 0l0 100.5l-241.5 0M455 -263l-226.5 0l0 -100.5l226.5 0l0 100.5M177.5 -570.5l23.5 -2l20 -1l25 0l175 0q4 0 6.5 -2q3 -2 3 -4q0 -1 -1 -3q-0.5 -2 -2 -4.5q-15 -13.5 -25.5 -22l-20 -17.5l-25.5 -19.5l-21.5 25l-20.5 24l-68.5 0l-34 -1.5l-41 -5.5q3.5 16.5 6.5 33.5M563.5 -571.5l40 -2l36.5 0l174 0q5 0 7.5 -1.5q3 -1.5 3 -4.5q0 -1 -1.5 -3l-2.5 -4.5l-68.5 -60q-13.5 15 -21 25l-20 25l-71 0q-21 0 -33.5 -0.5q-13 -0.5 -24 -2q-11 -1.5 -26.5 -4.5q4 16 7.5 32.5M563.5 -463l32 -3l26.5 -1.5q13 -0.5 30.5 -0.5l215 0q3 0 5.5 -2q2.5 -2 2.5 -4l-0.5 -3l-2.5 -3.5l-26 -23.5l-21.5 -18.5q-11 -9 -28 -21.5q-15.5 16 -24.5 26q-9.5 10 -24 26.5l-96 0l-37.5 0l-26 -2q-12.5 -1.5 -33 -5q4 17.5 7.5 35.5M145.5 -465l30 -2l24 -1l29 0l194.5 0q4 0 6.5 -1.5q2 -1.5 2 -4.5q0 -1.5 -1.5 -4l-3.5 -4.5q-14.5 -14 -24.5 -23l-20 -18l-24.5 -20.5q-16 16 -25 26.5l-24 26l-80 0q-25 0 -44 -2q-19.5 -1.5 -48 -6l9 34.5" />
</g>
<g id="PathID_724" transform="matrix(0.0107353, 0, 0, 0.0107353, 43.35, 11.65)">
<path style="fill:#000000;fill-opacity:1" d="M758 -261.5l0 33q0.5 5 3.5 7q3.5 2 11 2q21.5 0 36 -2q14 -2 19 -5q2 -1.5 3 -4.5q1 -2.5 1 -8q-3 -54.5 -4 -114.5q-1 -59.5 -1 -134l0 -61.5q24 -11 33 -17.5q8.5 -6.5 8 -12q0 -3 -2.5 -6q-2.5 -3 -8 -7.5l-32.5 -23.5l-30.5 -21.5q-14 13.5 -22 22.5l-20 22.5l-213.5 0l0 -108.5l428.5 0q4.5 0 6.5 -1.5q2.5 -1.5 2.5 -3.5q0 -1.5 -1 -3.5q-1 -2 -4 -5l-33.5 -29.5q-13.5 -12 -27.5 -23.5l-35.5 -28.5q-13.5 15 -22 25l-17 20.5q-8.5 10.5 -20 26l-277 0l0 -28.5q0 -11.5 0.5 -24.5q0 -13 0.5 -35q24 -6.5 33.5 -12q9 -5 8.5 -11.5q1 -7.5 -13 -11.5q-14 -4 -51.5 -6l-22 -1.5l-31 -2.5q2.5 23.5 3.5 37.5q1 14.5 1.5 34.5q0.5 20.5 1 61l-308 0q-26 0 -44 -2q-18 -1.5 -36 -6l4 39.5q14.5 -4.5 33 -6q18.5 -2 43 -2l308 0l0 108.5l-205 0q-15.5 -10 -26.5 -16.5l-22 -13q-11.5 -6 -28 -15.5q2 30.5 3 59q1 29 1.5 64q0.5 35 0.5 84q0 44.5 -0.5 77q-0.5 33 -1.5 63.5q-1 31 -3 70q0 7 4 9.5q4 3 13.5 3q35 0 46.5 -3q11.5 -3 10.5 -13.5l0 -38l207 0q-0.5 35 -0.5 52q-0.5 17.5 -0.5 30.5l0 33.5l-307 0l-57.5 -2q-24.5 -2 -48 -7l5 40.5q17.5 -3.5 42.5 -6l58 -2l307 0q-1 71.5 -2 120.5q-1.5 49 -2 75q0 6 2.5 8q3 2.5 10.5 2.5l34 -2l23.5 -2.5q3.5 -1 5.5 -4q1.5 -3 1.5 -9q-0.5 -17.5 -0.5 -30q-0.5 -13 -0.5 -30l-1 -46.5q0 -30 -1 -82l450 0q3 0 5.5 -2q2.5 -1.5 2.5 -3q0 -2.5 -1 -4.5q-1 -2.5 -3 -5l-33 -32.5q-13.5 -13 -27.5 -25.5q-14 -12.5 -35 -30q-14.5 16.5 -24 28q-10 11 -19.5 22.5l-24 28.5l-292 0l0 -26.5l0 -7.5l0 -43.5l0 -21l0 -17.5l219.5 0M758 -285l-219.5 0l0 -135l219.5 0l0 135M758 -443.5l-219.5 0l0 -125l219.5 0l0 125M470 -285l-207 0l0 -135l207 0l0 135M470 -443.5l-207 0l0 -125l207 0l0 54.5l0 26.5l0 44" />
</g>
<g id="PathID_725" transform="matrix(0.0107353, 0, 0, 0.0107353, 54.3, 11.65)">
<path style="fill:#000000;fill-opacity:1" d="M755 -709q31 26 61 61q29.5 35.5 45.5 65q10.5 20 17 27q6.5 7.5 13.5 7q10.5 -0.5 17.5 -14q7 -14 7 -35q0.5 -19.5 -10.5 -35.5q-11 -15.5 -38.5 -33.5q-25.5 -17 -53 -31q-27 -14.5 -51.5 -23l-8 12M840 -777.5q42 33 68.5 59.5q26 27 46 58.5q10.5 15 17 21.5q7 6 13 6q8.5 -0.5 14.5 -14q5.5 -14 6 -35q0 -17 -13.5 -32.5q-13.5 -16 -41 -31q-25.5 -14.5 -51 -25.5q-25.5 -11 -51.5 -18.5l-8 11M289 -431l-25.5 55.5q-9.5 21 -17 36.5l-16.5 32q-8.5 17.5 -23 45q-21.5 41.5 -41.5 73q-19.5 31 -34.5 47.5q-14.5 17 -19 28q-5 11.5 -4.5 29.5q0.5 33 8 52q8 18.5 22 18.5q7 0 13 -4.5q6 -5 11.5 -15q12.5 -22 36.5 -74q23.5 -51.5 54.5 -124.5q26 -62 41.5 -97.5l19 -45.5q16.5 -38.5 26.5 -60.5q9.5 -22 14.5 -35l9.5 -21.5q3.5 -9.5 9 -22.5q28.5 -8 47 -12.5q18.5 -4.5 32 -6.5l27 -1.5q17 0 28 2.5q11 2.5 18.5 7.5q27.5 18.5 27.5 83.5q0 39.5 -7.5 87q-8 47.5 -21.5 96q-13.5 48.5 -31.5 91q-19.5 47.5 -35 67q-15 19.5 -31.5 19q-16.5 0 -58 -18.5q-41.5 -18 -100.5 -51l-9.5 12q53.5 43.5 77 64.5q24 20.5 30 31.5q6.5 10.5 7 24q1.5 12 8 18q6.5 5.5 19.5 5.5q25 -0.5 51.5 -13q27 -12.5 46.5 -33q22.5 -25 42.5 -66.5q20.5 -41.5 36 -92q15.5 -51 24.5 -104.5q9 -53.5 9 -103.5q0 -80.5 -32 -120.5q-32.5 -39.5 -98.5 -39.5q-18 0 -37 2q-19 2.5 -51.5 9.5q22 -53.5 38.5 -88.5q16.5 -35 26.5 -50q9 -13.5 12 -19q3 -6 2.5 -10.5q0 -16.5 -18.5 -30.5q-18.5 -14 -53 -24q-21 -6 -39.5 -9.5q-18.5 -3.5 -30 -4q-8 0 -14.5 2.5q-6.5 2.5 -15.5 9q43.5 13.5 61.5 29.5q18 15.5 17.5 39q0 18 -5.5 46q-5.5 28.5 -15 60.5q-9.5 32 -21.5 61.5q-38.5 10.5 -74 18.5q-35 8 -62 13q-26.5 4.5 -38 4.5q-28 0.5 -45 -12.5q-17.5 -12.5 -33 -44q-3 8 -4.5 13.5q-1.5 5.5 -1.5 9.5q0.5 14.5 10 37q9.5 22 24 40.5q10.5 13.5 23 22q13 8.5 22 9q5.5 0 12 -2q6.5 -2.5 17.5 -9.5q20.5 -11.5 50.5 -24q30 -12 82.5 -29l-30.5 66.5M711 -549q50 25 83 57q33 32.5 57 79.5q14 25 21.5 48.5q7.5 24 10.5 49.5q-15.5 6.5 -31.5 12.5l-44 15q-28.5 9 -81.5 25q2.5 6.5 4.5 13l63.5 -6.5l34.5 -2q13 -0.5 30 -0.5q13.5 -0.5 21.5 2q8 2 20.5 9q8 4.5 12.5 6q5 1.5 11 1.5q19 -0.5 30 -15q10.5 -14.5 11 -41.5q0 -33.5 -15 -70q-14.5 -36.5 -43.5 -74q-67.5 -88 -187.5 -123.5l-8 14.5" />
</g>
<g id="PathID_726" transform="matrix(0.0107353, 0, 0, 0.0107353, 65.25, 11.65)">
<path style="fill:#000000;fill-opacity:1" d="M324.5 -644l0 -124l163 0q7.5 0 10 -1q2.5 -1 2 -4q0 -1 -1 -3.5q-1.5 -2.5 -4 -5l-27 -26q-11 -10.5 -22.5 -20l-29.5 -23.5q-14.5 18 -23.5 30q-8.5 11.5 -22.5 29.5l-199.5 0q-15 -10.5 -25 -17q-10 -6.5 -20 -12.5l-24.5 -14.5q1.5 20.5 2.5 42q1 21 1.5 51l1 76l0 115.5l0 81l-1 61l-1 54.5l-2 61.5l0 3l0 1q-0.5 6 4.5 9q4.5 2.5 16 2.5q25 0 34.5 -3q9 -3.5 9.5 -12.5l0 -21.5l229 0q-2 60.5 -5 104.5q-3 44 -8 78.5q-5.5 34.5 -13.5 66q-6 26.5 -14 38.5q-8.5 11.5 -20 11.5q-12.5 0 -39.5 -3l-59.5 -7q-32 -4 -58.5 -8.5l-2 16.5q49 11.5 72 20.5q23 8.5 31 20.5q8 12 10.5 34.5q30 -2.5 45.5 -6q15.5 -3 27.5 -8q13.5 -6.5 26.5 -18.5q13 -12 20.5 -24.5q18 -34 30 -110.5q12.5 -76.5 17 -183.5q21 -10.5 27.5 -15q6 -4.5 5.5 -8.5q0 -2 -2 -5.5l-7.5 -10l-24 -22.5l-25 -22.5l-19 18l-21 21l-65.5 0l0 -136l147.5 0q12.5 0 12.5 -6q0 -1 -1.5 -3q-1 -2 -3 -4.5l-31 -30.5q-12.5 -12 -33.5 -30.5l-24.5 25.5q-9 9.5 -23.5 25.5l-43 0l0 -123l152.5 0q6 0 9 -1q2.5 -1 2.5 -4q0 -1 -1.5 -3.5l-2.5 -5q-14 -13.5 -24 -22.5q-9.5 -9 -19.5 -17l-25.5 -20.5q-13 14.5 -21 24l-21 26l-49 0M266 -644l-100 0l0 -124l100 0l0 124M266 -620.5l0 123l-100 0l0 -123l100 0M266 -474l0 136l-100 0l0 -136l100 0M700.5 -450.5q2 24 3.5 39l2.5 25l2 21q10 72.5 31 136q21 64 55.5 125q29.5 52.5 60 88.5q30.5 36.5 75 71q14.5 -24 24.5 -36.5q10.5 -12 22 -17.5q11.5 -5.5 31 -9.5l0 -15q-31 -12.5 -49.5 -22.5q-18.5 -10 -39.5 -27q-40 -31.5 -73 -70q-33 -38 -57 -80.5q-19.5 -34 -32.5 -67q-13 -33 -20.5 -71q-8 -38.5 -12.5 -89l124 0l0 48q0.5 7 4 9q3.5 2.5 13.5 2.5q30 0 42.5 -3.5q12 -4 11.5 -13l0 -6l-1 -20q0 -7 -0.5 -15l-0.5 -23.5q-0.5 -23.5 -0.5 -36q-0.5 -12.5 -0.5 -18.5l0 -10l0 -55l1 -56.5l0 -23l0 -19l0 -26.5l-1 -33q25 -11.5 31.5 -15.5q6.5 -4 5.5 -8q0 -3 -2.5 -7q-3 -4 -9 -8.5q-16.5 -14.5 -27.5 -23.5l-29.5 -23.5l-21 22.5l-20 21.5l-230 0q-16 -11 -27 -18q-10.5 -7.5 -21.5 -14.5l-27 -17.5q1 24 1.5 63q1 39.5 1 103q0.5 64 0.5 162.5q0 51 -3.5 109.5q-3 58.5 -9 113q-5.5 54 -12 91.5q-14.5 80.5 -39 144.5q-25 64 -62.5 118l11.5 9q22 -20.5 35 -35.5q12.5 -14.5 24.5 -32q25 -38 46 -83q20.5 -45.5 34.5 -94q10.5 -37 18 -76q7 -38.5 11 -87.5q4.5 -48.5 7 -115l98.5 0M603 -474q2 -61 3 -112.5q1 -51 1 -104.5l0 -32l-1 -45l241 0l0 294l-244 0M94.5 -244q-1 42 -12.5 75q-12 33 -33.5 51q-14.5 11.5 -18.5 20q-4.5 9 -4 24q0 23.5 5.5 37q5.5 14 15 14.5q11.5 -0.5 23 -12.5q12 -12.5 22 -35q10.5 -23.5 15.5 -55q5 -31 5 -72q0 -10.5 -1 -20.5q-0.5 -10 -2 -26.5l-14.5 0M145.5 -244q7.5 27 10.5 45.5q3 19 3 39.5q0 6 -1 19.5q-0.5 13.5 -2 38l0 6q0 11.5 3 17q3 5.5 9 5.5q12.5 -1 25 -17q12 -16 13 -32q0 -17 -4.5 -34.5q-4.5 -17 -15 -39q-11 -22 -29.5 -53.5l-11.5 5M211 -258q11.5 22 19.5 42q7.5 20 13 42.5q5.5 22.5 10.5 52.5q1 7.5 4 11q2.5 3.5 7.5 3.5q10.5 -1 19.5 -16q9.5 -15 10 -32.5q-0.5 -18 -19.5 -46.5q-19.5 -28.5 -54 -63q-5.5 3 -10.5 6.5M281.5 -270.5q14 20 22 37q8 17 13 38q4 14 6.5 25q3 11 3.5 15.5q1.5 7 4 10.5q2.5 3 5.5 3q10 -1 19 -14.5q9 -13.5 9.5 -28.5q0 -16 -18.5 -40q-19 -23.5 -55 -54l-9.5 8" />
</g>
<g id="PathID_727" transform="matrix(0.0107353, 0, 0, 0.0107353, 76.2, 11.65)">
<path style="fill:#000000;fill-opacity:1" d="M309.5 -382l-54.5 143.5q-8 22 -16 41.5q-8 19.5 -21 45.5q-10.5 -31.5 -15 -62.5q-4.5 -31.5 -4.5 -72.5q0 -33.5 3.5 -65.5q3 -32.5 10 -61.5q5.5 -24.5 14.5 -54q9 -29.5 19.5 -58.5q11 -28.5 21.5 -50.5q10 -20 14.5 -30.5q5 -10.5 6 -16.5q1 -6.5 1 -14.5q0 -16.5 -9.5 -37q-9.5 -20 -28.5 -43.5q-20.5 -27 -36.5 -38.5q-16 -11.5 -32.5 -12q15.5 27 22.5 49.5q6.5 22 6.5 47q0 15.5 -3.5 37.5q-3.5 22 -11 57.5l-16.5 78.5q-6.5 29 -9.5 46.5q-3 17 -5 32q-2.5 15 -5 36.5q-3.5 31 -6 58.5q-2 28 -2 51q0 62.5 9.5 120q9.5 57 26.5 98q8.5 20.5 19.5 31.5q11.5 10.5 24.5 10.5q8.5 0 15 -4.5q6.5 -4.5 9.5 -13q1.5 -4 2.5 -13q1 -9.5 1 -31q-0.5 -15.5 1 -28.5q1.5 -13.5 5.5 -32q3.5 -18 10.5 -48l33 -137q11.5 -48.5 13.5 -55.5q-7.5 -2.5 -14.5 -5M441.5 -639q32 31.5 64.5 44.5q32.5 13.5 74.5 13l16.5 -0.5l25.5 -1.5q-12.5 9.5 -37.5 30q-25 20.5 -59.5 50l10 10q21 -13.5 45.5 -27.5q24.5 -14.5 47.5 -26.5q23 -12 39 -18.5q29 -12 62.5 -20.5q33.5 -8 83 -15.5q16 -3 22.5 -8.5q6.5 -5 6 -15q0 -10 -7.5 -19.5q-8 -9.5 -24 -18.5q-11 -7 -20.5 -10.5q-9 -3.5 -15.5 -4q-5 0 -9 1.5q-4 1.5 -13.5 7q-22.5 12 -58.5 22.5q-36 10.5 -75 17q-39.5 6.5 -72 6.5q-27 0.5 -48 -6q-21.5 -6 -47.5 -21.5l-9 12M435 -329.5q-6.5 24 -9.5 43q-2.5 19 -2.5 37.5q0 42 14 75q13.5 33 41 58q35 31 102 46.5q67 16 163.5 16q43.5 0 77.5 -3q33.5 -3 50.5 -8q10.5 -4 16.5 -10.5q6 -6 6 -15.5q-0.5 -12.5 -11 -26.5q-10 -13.5 -25 -23.5q-15 -9.5 -28.5 -10q-6 0 -15.5 3q-16 6.5 -24 9.5q-8 3 -14 4q-6 1.5 -16 3q-21 3.5 -43 5.5l-44.5 1.5q-118 0.5 -171 -37q-53 -38 -52 -121.5q0 -9.5 1 -19q0.5 -9.5 2 -24l-17.5 -4" />
</g>
<g id="PathID_728" transform="matrix(0.0107353, 0, 0, 0.0107353, 87.15, 11.65)">
<path style="fill:#000000;fill-opacity:1" d="M298 -4l0 -581.5q22 -5.5 32.5 -10.5q10.5 -5 10.5 -11q1 -5 -6 -8.5q-6.5 -3.5 -32 -7.5q-25 -4 -79.5 -11q0.5 12 0.5 21.5q0.5 10 0.5 30.5q0.5 20.5 1 65l0 513l-62.5 0l-58 -2q-23 -2 -48.5 -8l6 37.5l25.5 -2.5l30.5 -1q17.5 -0.5 44.5 -0.5l805 0q5.5 0 8.5 -1.5q3.5 -1.5 3.5 -4.5q0 -4.5 -3 -9.5q-21.5 -20 -36 -33q-14.5 -13.5 -29.5 -26.5l-36 -31.5l-26.5 29.5l-21 24l-25 29.5l-232.5 0l0 -402.5l331 0q3.5 0 6.5 -1.5q2.5 -1.5 2.5 -3.5q0 -1.5 -1 -3.5q-0.5 -2 -2 -4l-34.5 -32l-28.5 -25l-35.5 -30q-13.5 15.5 -22.5 26.5l-18.5 22l-23.5 27.5l-174 0l0 -352.5q25 -6.5 35 -11.5q10.5 -5 10 -11q0.5 -6.5 -15 -11.5q-15.5 -5.5 -53.5 -10l-22 -2l-31 -4q1.5 13 2 25.5l1 33l0 60.5l0 709.5l-199 0" />
</g>
<g id="PathID_729" transform="matrix(0.0107353, 0, 0, 0.0107353, 98.1, 11.65)">
<path style="fill:#000000;fill-opacity:1" d="M177 -646q25 34 50.5 53.5q25.5 19 58.5 27q33.5 8 81.5 7.5q25.5 0 58 -1.5l74 -5.5l0 12l2 75l0 59l0 4.5l0 8l-56 5.5l-43.5 1.5q-45 0 -76 -6q-31 -5.5 -43.5 -16.5q-11.5 -8.5 -16.5 -22q-4.5 -13 -5 -36.5l-15.5 -1q-1 8.5 -1.5 16q-0.5 7.5 -0.5 13q0 24 12 44q11.5 20 34 33.5q18.5 11.5 52.5 17q34 5.5 83.5 5.5l28.5 -1l47.5 -2l0 15.5l0 10l0 17.5l0 30l0 9l0 7l0 14q0 7 0.5 20q0 13 0.5 37l-28.5 -1l-22.5 0q-69 0.5 -120.5 16q-52 15.5 -81.5 43.5q-29 28 -29.5 64.5q1 49 48 79q47 29.5 125 30.5q42 0 78.5 -10q36.5 -10 58.5 -28q18 -14 26.5 -35q8.5 -21 8.5 -51q0 -8.5 -1 -18.5q-0.5 -10 -2 -26.5q30.5 8 54 18q23 10 48.5 25q23 14 47.5 32.5q24.5 18 38.5 31q19 19 26.5 24q7.5 5.5 14 5q10.5 -0.5 16.5 -10q6 -9.5 6.5 -26q-0.5 -20 -8 -37.5q-7.5 -17 -22 -30q-21 -18.5 -55.5 -35q-35 -17 -78.5 -30.5q-43.5 -14 -91 -23q-2.5 -18 -3.5 -35q-1.5 -16.5 -3 -45q-0.5 -17.5 -0.5 -31l-1 -27.5l-1.5 -33.5q38 -3.5 83 -11.5q44.5 -8 84 -18.5q47.5 -12 63.5 -21.5q16.5 -9 15.5 -22.5q0 -6 -3 -11q-3.5 -5 -9.5 -8q-10 -6.5 -25.5 -11q-15 -4.5 -26.5 -4.5q-5 0 -8.5 1q-4 1 -7 3q-13.5 9.5 -23 14.5q-9.5 4.5 -28 11q-26.5 8.5 -56 15.5q-29.5 7 -61 12l-1 -53l0 -40l0 -31.5l1 -34q46 -5 95 -14q48.5 -9.5 100.5 -21.5q47 -11 64 -19.5q17 -8 16 -18.5q0 -7 -4.5 -13q-4.5 -6 -13 -11.5q-9.5 -6.5 -26 -12q-17 -5 -27 -5.5q-2.5 0 -6.5 1.5q-3.5 1 -6 2.5q-24.5 17.5 -70 32q-45 14 -120.5 28.5q2.5 -40 7 -67q4.5 -27 11.5 -41.5q9.5 -20.5 11.5 -26q2 -5.5 2 -9q0 -11.5 -8.5 -19.5q-8 -8 -26.5 -14q-18 -6.5 -41 -10q-23 -3.5 -45 -3.5q-20.5 -0.5 -31 3q-10.5 3 -20 13.5q28.5 3.5 46 11q17 7.5 26 25.5q8.5 18 12 52.5q3.5 35 5 93q-46 7 -80 10l-66.5 2.5q-38.5 0 -65.5 -4.5q-27 -4.5 -50 -16.5q-23 -12 -49.5 -34.5l-10 10.5M500.5 -145.5l0 3.5l-0.5 19.5l-1.5 19q-2.5 19 -7.5 32q-5.5 12.5 -15 21.5q-19 18 -49 27.5q-30 9.5 -68 9.5q-52.5 0 -82 -15.5q-29 -15 -29.5 -43q0 -40 55.5 -61.5q24 -9.5 52.5 -14.5q28.5 -5 59 -5l38.5 1.5l47.5 5.5" />
</g>
<g id="PathID_730" transform="matrix(0.0107353, 0, 0, 0.0107353, 109.05, 11.65)">
<path style="fill:#000000;fill-opacity:1" d="M412 -9q75.5 -8.5 133.5 -21.5q58 -13 104.5 -32q46 -19.5 86.5 -47q51.5 -34.5 80.5 -85.5q29.5 -51.5 30 -107q-0.5 -58.5 -29.5 -103.5q-28.5 -44.5 -80 -70q-51 -25 -118.5 -25.5l-43 1.5q-19 1.5 -37 4.5q-44.5 8 -104 26.5q-60 19 -129.5 46.5q-38.5 15.5 -59.5 22.5q-21 6.5 -30.5 6.5q-18.5 0 -35 -14.5q-16 -14 -28.5 -42q-4 7.5 -5.5 12q-2 5 -2 8.5q1 24.5 17.5 52.5q16.5 27.5 39.5 47.5q23 20 42.5 21q9 0 18 -4.5q9 -4.5 23 -15q55 -43 114.5 -74.5q59.5 -31 117.5 -48q57.5 -17 108 -17q69.5 1 110.5 41q41 40 42 108q0 46 -22 88.5q-21.5 42.5 -64 77q-53 45.5 -120.5 75q-68 29.5 -163 49l4 19.5" />
</g>
<g id="PathID_731" transform="matrix(0.0107353, 0, 0, 0.0107353, 120, 11.65)">
<path style="fill:#000000;fill-opacity:1" d="M107.5 -668q-6.5 9 -9 15q-2.5 6 -2 12q0 12.5 7 31q7 18.5 19.5 37.5q18 28 39 44q21 16 40 16.5q9 0.5 17.5 -2.5q8.5 -3 23.5 -12q25.5 -13.5 70 -31.5q44 -18 93.5 -34q58 -19 107.5 -32q49 -13.5 94.5 -23q45.5 -9 92 -15.5q-42.5 21.5 -72 39.5q-30 18.5 -52.5 36.5q-22.5 18.5 -42.5 40.5q-53.5 58 -82.5 122.5q-28.5 64.5 -29 127.5q0 71.5 30 129.5q30 58 88.5 100q29.5 20.5 66.5 37.5q37 16.5 74.5 26q37 10 67 10q17 0 27.5 -7.5q10 -8 10.5 -21q-0.5 -9.5 -8.5 -22.5q-8.5 -12.5 -22.5 -26.5q-10.5 -10 -19.5 -13.5q-8.5 -3.5 -23.5 -3q-22.5 -1 -50.5 -7.5q-28 -6.5 -54 -17q-66 -29 -100.5 -80q-34.5 -51 -34.5 -122q0.5 -65 29 -125.5q28.5 -60.5 77.5 -108.5q48.5 -48 110 -76q61.5 -28.5 127.5 -29l13 0.5q6 0 15.5 1.5q5.5 1 10.5 1l8 0q15 0 23.5 -7q8.5 -7 8.5 -18.5q0 -10.5 -7.5 -20q-7 -9 -22.5 -19q-15.5 -9.5 -30.5 -15.5q-15 -6 -24.5 -6q-6 0 -13.5 2q-7.5 1.5 -22.5 6q-15 5 -32 10q-17.5 4.5 -42.5 10q-25 5.5 -63.5 13q-51 10 -92.5 19q-41.5 9 -73.5 17q-85 20.5 -137 32.5q-52 12.5 -80 18.5q-28 6 -42.5 8l-24 1.5q-15 0 -25.5 -3.5q-10 -4 -20.5 -14q-12 -10.5 -19.5 -22.5q-7.5 -12 -14.5 -30" />
</g>
<g id="PathID_732" transform="matrix(0.0107353, 0, 0, 0.0107353, 130.95, 11.65)">
<path style="fill:#000000;fill-opacity:1" d="M450.5 -414.5l-10 16.5l-7.5 13q-4.5 6.5 -12.5 19.5l-31 52.5q-11.5 19.5 -19.5 32.5q-7.5 13 -15.5 26l-20 33.5q-10.5 18.5 -16 27q-5.5 9 -9 14l-8.5 13q-19 -13.5 -30.5 -31.5q-12 -17.5 -23 -48.5q-11.5 -31.5 -17.5 -69q-6 -37.5 -6 -79.5q0 -31 4.5 -68.5q5 -37 14 -84l2.5 -15.5q0.5 -6.5 0.5 -11q0 -17.5 -11.5 -38q-11.5 -20.5 -34.5 -43q-23.5 -23 -43.5 -36.5q-20.5 -13.5 -33.5 -13.5l-4.5 0l-4.5 0q22 27.5 33 50q11 22 15 51q4 28.5 4.5 75q-0.5 54 0 85.5q1 31.5 2.5 52.5q1.5 20.5 4.5 42.5q7.5 61.5 25.5 114q18 52.5 44 90.5q16.5 24 37 43.5q20.5 20 41 31.5q20 12 34.5 12q9.5 0 16 -7.5q6.5 -7 6.5 -18q0 -4 -0.5 -8q-0.5 -4.5 -1.5 -8.5l-5 -24q-1 -5.5 -1 -10.5q-0.5 -20 8.5 -51q8.5 -31 29.5 -84.5q21 -53 58.5 -138l-15.5 -7M679 -580.5q43.5 23.5 75 56.5q31 33 52 77.5q8.5 19 15.5 43q7.5 23.5 11.5 48q4.5 24 4.5 43q0.5 14 -4 20q-4.5 6 -19.5 11l-41.5 12q-34.5 10 -97 27q1.5 7.5 3.5 15l43 -1.5q17.5 -0.5 34.5 -0.5q32.5 0 50 3q17.5 2.5 27 9.5q10.5 6.5 17 9q6.5 2.5 13.5 2q23.5 -0.5 37.5 -22q13.5 -21.5 14 -58.5q-0.5 -72 -31.5 -136q-30.5 -64 -82.5 -109.5q-52.5 -45.5 -117.5 -61l-5 12.5" />
</g>
<g id="PathID_733" transform="matrix(0.0107353, 0, 0, 0.0107353, 141.9, 11.65)">
<path style="fill:#000000;fill-opacity:1" d="M601 -716.5l3.5 -1.5l1.5 -0.5l2 0l1 0q0 -1 0.5 -1l0.5 0q1 0 2 1q1 0.5 1 1q-1 3 -2.5 6q-1.5 2.5 -7.5 10.5q-30 38.5 -55 69.5q-25 31 -51 61.5q-26 31 -59 68.5q-33.5 38 -80 90l-66.5 73q-24.5 25.5 -40.5 40.5q-16.5 14.5 -35 28.5q-11 9 -16 18q-5.5 8.5 -5.5 18q0 15.5 5.5 30.5q5 15.5 12.5 25.5q8 10 16 10.5q7 0 14.5 -6q7.5 -6 20 -22q43.5 -54.5 100 -97.5q56.5 -42.5 115.5 -67.5q59 -24.5 110 -25q30.5 0 57.5 5.5q27.5 5.5 44 15q31 18.5 47 51.5q16.5 32.5 16.5 75.5q-0.5 65.5 -33 115.5q-32 50 -91 76q-11 -22 -21.5 -36.5q-10 -14.5 -23.5 -27q-25.5 -24 -59 -37q-33 -13.5 -71 -13.5q-48.5 1 -79 25q-30.5 24 -31.5 62q1 47.5 44.5 74.5q44 27.5 120 28q93.5 -0.5 166 -33.5q72.5 -33 114 -90q41 -57.5 42 -131.5q-0.5 -57.5 -27.5 -100.5q-27.5 -42.5 -76.5 -66.5q-49.5 -23.5 -115.5 -24q-63.5 -0.5 -130.5 23q-66.5 23 -148 74l-2 -2q10 -9.5 19 -19l31 -33l70 -75q35 -37 69 -71.5q34 -35 81.5 -82q22 -22 35.5 -34.5q13.5 -12 24 -19.5q11 -7.5 25.5 -14.5q9 -4.5 13 -9.5q4.5 -4.5 4.5 -10q0 -9 -6.5 -19q-7 -10.5 -24.5 -27q-19 -19 -32 -27.5q-13.5 -8.5 -23 -8.5q-4 0 -8 1.5q-3.5 1.5 -6.5 3.5q-10.5 9 -17 13.5q-7 4.5 -17 8.5l-29.5 10q-36 11 -75.5 21q-39.5 10 -71.5 16.5q-32.5 6.5 -46.5 6.5q-25.5 0 -45.5 -19.5q-19.5 -19 -31.5 -55.5q-5 8 -7 14q-2 6 -2 13q0 16 7.5 35.5q7.5 19.5 21 40q15 21.5 30 32.5q14.5 10.5 28.5 10.5q6 0 16.5 -3q10 -3.5 25.5 -10.5q36 -15.5 76 -31.5q40 -16.5 75 -29.5q35 -13 56 -19.5l5 -2M563 -21.5q-23 5 -38 7q-15 2 -34.5 2q-54.5 -0.5 -85.5 -17q-31 -16.5 -31.5 -45.5q0.5 -24 17.5 -38q17.5 -13.5 47 -14q43.5 0.5 76.5 28q32.5 28 48.5 77.5" />
</g>
<g id="PathID_734" transform="matrix(0.0107353, 0, 0, 0.0107353, 152.85, 11.65)">
<path style="fill:#000000;fill-opacity:1" d="M317.5 -794q31.5 5.5 48.5 14q17 8.5 25 23q4 7 6 18q2.5 11 3.5 34q1.5 23 3 66l2.5 60.5q1 23 2 37.5q1 14 2.5 26q3.5 32.5 11 51q7 18.5 18.5 26.5q12.5 9 23 12.5q10 3 26.5 3q-45 24 -74 43q-29 19.5 -51 39q-50.5 42 -75.5 84.5q-25 43 -25 87.5q0.5 51.5 30 91.5q29.5 40 81.5 60q32.5 11.5 75.5 17.5q43 6 98.5 6q32 0 71 -2l74 -5q34.5 -3 52 -6.5q24 -4 34 -12q10 -8 10 -21.5q-1 -19.5 -18 -34.5q-16.5 -15 -37.5 -16q-4.5 0 -8.5 1l-12 2.5q-37.5 8.5 -80 15q-43 7 -84 10.5q-41 4 -73.5 4q-85.5 0 -128.5 -28q-43.5 -28.5 -43.5 -83.5q0 -36 19 -67.5q19.5 -32 61 -63.5q31.5 -24.5 67.5 -44q35.5 -19.5 81.5 -36.5q45.5 -17 107 -34.5q34.5 -9.5 49 -14.5q15 -5 19.5 -7q10.5 -4.5 16 -12.5q5.5 -8 5.5 -18q-1 -17 -15.5 -29.5q-14.5 -13 -33.5 -13.5q-9 0 -19 2.5q-9.5 3 -23 9.5q-46 22 -72.5 33.5q-26 11 -40.5 15q-14.5 4 -24.5 4q-23 1 -31.5 -15.5q-9 -16 -8.5 -60.5q0.5 -43 3.5 -84q3 -40.5 8 -73.5q5 -32.5 11 -50q5.5 -13 7 -17.5q1.5 -4 1.5 -9.5l0 -0.5l0 -1.5q0 -10.5 -6.5 -18.5q-7 -8 -22.5 -14q-12.5 -5.5 -30.5 -10q-18.5 -4 -37.5 -7q-19.5 -2.5 -35 -2.5q-15 -0.5 -24 3q-9.5 3.5 -20 13" />
</g>
<g id="PathID_735" transform="matrix(0.0107353, 0, 0, 0.0107353, 163.8, 11.65)">
<path style="fill:#000000;fill-opacity:1" d="M82 122q27.5 -13 47 -27.5q19.5 -14 35 -33q20.5 -26 32 -57q11.5 -30.5 12 -62q-0.5 -43.5 -21.5 -68.5q-21 -25 -57.5 -25.5q-30.5 0.5 -49.5 19q-18.5 19 -19 48.5q-0.5 25 13.5 39q14 14.5 47 22.5q11 2 15.5 7q4 4.5 4 13.5q0 27.5 -19.5 51.5q-19 24 -59.5 48l20.5 24.5" />
</g>
<g id="PathID_736" transform="matrix(0.0107353, 0, 0, 0.0107353, 174.75, 11.65)">
<path style="fill:#000000;fill-opacity:1" d="M424 -707.5l18.5 -19q9 -9.5 20 -23.5q11.5 -14 30 -38.5q4 -4.5 10 -12.5q6 -8 14.5 -18q28 -6 38 -10.5q10 -4 9 -10q1 -5 -5 -8.5q-6 -4 -32 -11.5q-26 -7 -84 -22q-6 44.5 -18.5 88.5q-13 44 -31.5 85.5l-111.5 0l-31.5 -21.5q-12.5 -9 -25.5 -17q-13 -8.5 -32 -20q1.5 29 2.5 82l1 137.5q0.5 84.5 0.5 209q0 56 -0.5 124l-2 138q-1 70.5 -2.5 133l0 1l0 1q0 7 4 10q4.5 2.5 15.5 2.5l15.5 -0.5l18.5 -1.5l12 -1q5 -1.5 7.5 -5q2.5 -3 2.5 -8.5l0 -1l0 -2l0 -65.5l477.5 0l0 74.5q0 7 2.5 10q2.5 2.5 9 2.5l20 -1l22 -3q10.5 -1.5 14 -3q5.5 -1.5 7.5 -4.5q2.5 -3 3 -10l-3.5 -83.5q-1.5 -36 -2.5 -71.5l-1 -83q-0.5 -47 -0.5 -117.5l0 -176l0 -186.5q19 -9 26.5 -15.5q7.5 -6 7.5 -11q0 -4 -2.5 -7.5q-2.5 -4 -8 -9q-18 -15 -30 -24.5q-12 -10 -32.5 -25.5q-14.5 14.5 -22.5 24.5q-8.5 10 -21.5 26.5l-308 0M267 -495.5l0 -188.5l477.5 0l0 188.5l-477.5 0M744.5 -472l0 200l-477.5 0l0 -200l477.5 0M744.5 -248.5l0 212l-477.5 0l0 -212l477.5 0" />
</g>
<g id="PathID_737" transform="matrix(0.0107353, 0, 0, 0.0107353, 185.7, 11.65)">
<path style="fill:#000000;fill-opacity:1" d="M98.5 -244q-0.5 7 3.5 9.5q4.5 3 15 3l22 -1.5q12 -1 17 -2.5q6 -1.5 8 -4.5q2 -3.5 2 -10l0 -19.5l122.5 0l0 101.5l-160.5 0l-37 -1.5q-15.5 -1.5 -33.5 -4.5l7 34.5q18 -3 30.5 -4l28 -1l165.5 0l0 88q-77.5 7.5 -136 12q-59 4 -107.5 5.5q14.5 58 22.5 80q8.5 22.5 15.5 21.5q5 0 9.5 -8q4 -8.5 9 -29l24 -5.5l30.5 -6l57 -11.5q38 -8 104 -21q28 -6 58 -13q30 -6.5 71.5 -17q41 -10 102 -26.5l-2 -12l-70 9.5l-60.5 7.5l-67 7.5l0 -82l216 0q4 0 6.5 -2q2.5 -2 3 -5q0 -1.5 -1 -3.5q-1 -2 -3.5 -5q-15 -12.5 -26 -21l-21.5 -17q-11 -9 -27 -21.5q-14 15.5 -23.5 25.5l-24.5 26l-98.5 0l0 -101.5l128 0l0 12.5l0 3q0 6 5 9q5 3 14.5 3q24.5 0.5 34.5 -4q10 -4.5 9.5 -15.5l-1.5 -64q-0.5 -25 -0.5 -44.5l0 -19.5l0 -21.5q0 -12.5 0.5 -36.5q0 -24 0.5 -65.5q18.5 -13.5 23 -17.5q4.5 -4 3.5 -7q0 -2.5 -2.5 -5.5l-8.5 -8q-15.5 -12 -25 -20l-25.5 -20q-10.5 12.5 -18 20l-17.5 20l-120 0l0 -82l238.5 0q6.5 0 10 -1.5q3.5 -1.5 3.5 -4.5q0 -1.5 -1.5 -4l-3.5 -4.5l-27.5 -21.5q-11 -9 -23 -18l-28.5 -21.5q-15.5 15.5 -24.5 25.5q-9 10 -22.5 26.5l-121 0l0 -95l58 -12q26 -5.5 51.5 -11.5l55.5 -14.5l30 2l13 1q8.5 0 13.5 -2.5q5 -3 5 -6.5q0.5 -3.5 -3 -7q-4 -3 -18.5 -11.5l-31 -17.5q-18 -10.5 -38 -20.5q-28.5 16.5 -67.5 31.5q-38.5 14.5 -101.5 32q-67.5 19 -131 33.5q-63.5 14 -119.5 23l2 14q61.5 -3.5 113.5 -9q52 -5 107.5 -13.5l0 84l-164.5 0l-37 -2q-22 -2 -41 -5q4 17.5 7.5 35.5q24.5 -3 40 -4l30.5 -1l164.5 0l0 82l-115.5 0l-26 -14l-21.5 -11.5l-27 -14.5l3 65.5q0.5 20.5 1 31l0 23.5q0 38 -0.5 78.5q-0.5 40.5 -1.5 78l-2 68.5l0 2M477 -293l-128 0l0 -107.5l128 0l0 107.5M477 -424l-128 0l0 -103.5l128 0l0 103.5M288.5 -293l-122.5 0l0 -107.5l122.5 0l0 107.5M288.5 -424l-122.5 0l0 -103.5l122.5 0l0 103.5M768 -581.5q2 -39 3 -66q1 -27.5 1.5 -57.5l1.5 -78.5q26 -11.5 34 -17q8 -5.5 8 -11.5l0 -1q0.5 -7.5 -27 -13q-27.5 -5 -85.5 -8.5l2.5 37.5l1 33.5q0.5 17 0.5 41.5q0 30.5 -1 65q-1 34 -3 75.5l-48.5 0l-37.5 -1.5l-45 -5.5l10 36.5q23 -3.5 38 -5l27.5 -1l54.5 0q-6.5 120 -21 206.5q-14 86 -39.5 150q-25 64 -63.5 116.5q-36 48 -79 84q-43.5 36.5 -107.5 71.5l8 12.5q29.5 -11 50.5 -20.5q20.5 -9.5 38 -19.5q17 -10 35.5 -23.5q58 -40.5 101 -92q43 -51.5 70 -113q29 -65 47 -157q17.5 -91.5 25 -215.5l116.5 0q-4 194 -16 325.5q-12 131.5 -32 191.5q-4.5 14.5 -16 20.5q-11 6 -33 6q-10.5 0 -35 -1l-54 -3l-58.5 -4l0 14q40 7.5 62 14q22 6.5 35 14q10 4 15 12q5 8.5 15 35q33 -5 52.5 -11.5q19.5 -6.5 35.5 -17.5q20 -11 31.5 -30q11 -19 20.5 -56q16 -60 27.5 -179.5q11 -120 17.5 -306.5q17.5 -15 24.5 -21.5q6.5 -7 6.5 -10q0 -4 -2 -7q-2.5 -3.5 -8.5 -8.5l-27.5 -21.5q-11 -8.5 -29.5 -21l-19 21.5l-19 21l-108.5 0" />
</g>
<g id="PathID_738" transform="matrix(0.0107353, 0, 0, 0.0107353, 196.65, 11.65)">
<path style="fill:#000000;fill-opacity:1" d="M758 -261.5l0 33q0.5 5 3.5 7q3.5 2 11 2q21.5 0 36 -2q14 -2 19 -5q2 -1.5 3 -4.5q1 -2.5 1 -8q-3 -54.5 -4 -114.5q-1 -59.5 -1 -134l0 -61.5q24 -11 33 -17.5q8.5 -6.5 8 -12q0 -3 -2.5 -6q-2.5 -3 -8 -7.5l-32.5 -23.5l-30.5 -21.5q-14 13.5 -22 22.5l-20 22.5l-213.5 0l0 -108.5l428.5 0q4.5 0 6.5 -1.5q2.5 -1.5 2.5 -3.5q0 -1.5 -1 -3.5q-1 -2 -4 -5l-33.5 -29.5q-13.5 -12 -27.5 -23.5l-35.5 -28.5q-13.5 15 -22 25l-17 20.5q-8.5 10.5 -20 26l-277 0l0 -28.5q0 -11.5 0.5 -24.5q0 -13 0.5 -35q24 -6.5 33.5 -12q9 -5 8.5 -11.5q1 -7.5 -13 -11.5q-14 -4 -51.5 -6l-22 -1.5l-31 -2.5q2.5 23.5 3.5 37.5q1 14.5 1.5 34.5q0.5 20.5 1 61l-308 0q-26 0 -44 -2q-18 -1.5 -36 -6l4 39.5q14.5 -4.5 33 -6q18.5 -2 43 -2l308 0l0 108.5l-205 0q-15.5 -10 -26.5 -16.5l-22 -13q-11.5 -6 -28 -15.5q2 30.5 3 59q1 29 1.5 64q0.5 35 0.5 84q0 44.5 -0.5 77q-0.5 33 -1.5 63.5q-1 31 -3 70q0 7 4 9.5q4 3 13.5 3q35 0 46.5 -3q11.5 -3 10.5 -13.5l0 -38l207 0q-0.5 35 -0.5 52q-0.5 17.5 -0.5 30.5l0 33.5l-307 0l-57.5 -2q-24.5 -2 -48 -7l5 40.5q17.5 -3.5 42.5 -6l58 -2l307 0q-1 71.5 -2 120.5q-1.5 49 -2 75q0 6 2.5 8q3 2.5 10.5 2.5l34 -2l23.5 -2.5q3.5 -1 5.5 -4q1.5 -3 1.5 -9q-0.5 -17.5 -0.5 -30q-0.5 -13 -0.5 -30l-1 -46.5q0 -30 -1 -82l450 0q3 0 5.5 -2q2.5 -1.5 2.5 -3q0 -2.5 -1 -4.5q-1 -2.5 -3 -5l-33 -32.5q-13.5 -13 -27.5 -25.5q-14 -12.5 -35 -30q-14.5 16.5 -24 28q-10 11 -19.5 22.5l-24 28.5l-292 0l0 -26.5l0 -7.5l0 -43.5l0 -21l0 -17.5l219.5 0M758 -285l-219.5 0l0 -135l219.5 0l0 135M758 -443.5l-219.5 0l0 -125l219.5 0l0 125M470 -285l-207 0l0 -135l207 0l0 135M470 -443.5l-207 0l0 -125l207 0l0 54.5l0 26.5l0 44" />
</g>
<g id="PathID_739" transform="matrix(0.0107353, 0, 0, 0.0107353, 207.6, 11.65)">
<path style="fill:#000000;fill-opacity:1" d="M755 -709q31 26 61 61q29.5 35.5 45.5 65q10.5 20 17 27q6.5 7.5 13.5 7q10.5 -0.5 17.5 -14q7 -14 7 -35q0.5 -19.5 -10.5 -35.5q-11 -15.5 -38.5 -33.5q-25.5 -17 -53 -31q-27 -14.5 -51.5 -23l-8 12M840 -777.5q42 33 68.5 59.5q26 27 46 58.5q10.5 15 17 21.5q7 6 13 6q8.5 -0.5 14.5 -14q5.5 -14 6 -35q0 -17 -13.5 -32.5q-13.5 -16 -41 -31q-25.5 -14.5 -51 -25.5q-25.5 -11 -51.5 -18.5l-8 11M289 -431l-25.5 55.5q-9.5 21 -17 36.5l-16.5 32q-8.5 17.5 -23 45q-21.5 41.5 -41.5 73q-19.5 31 -34.5 47.5q-14.5 17 -19 28q-5 11.5 -4.5 29.5q0.5 33 8 52q8 18.5 22 18.5q7 0 13 -4.5q6 -5 11.5 -15q12.5 -22 36.5 -74q23.5 -51.5 54.5 -124.5q26 -62 41.5 -97.5l19 -45.5q16.5 -38.5 26.5 -60.5q9.5 -22 14.5 -35l9.5 -21.5q3.5 -9.5 9 -22.5q28.5 -8 47 -12.5q18.5 -4.5 32 -6.5l27 -1.5q17 0 28 2.5q11 2.5 18.5 7.5q27.5 18.5 27.5 83.5q0 39.5 -7.5 87q-8 47.5 -21.5 96q-13.5 48.5 -31.5 91q-19.5 47.5 -35 67q-15 19.5 -31.5 19q-16.5 0 -58 -18.5q-41.5 -18 -100.5 -51l-9.5 12q53.5 43.5 77 64.5q24 20.5 30 31.5q6.5 10.5 7 24q1.5 12 8 18q6.5 5.5 19.5 5.5q25 -0.5 51.5 -13q27 -12.5 46.5 -33q22.5 -25 42.5 -66.5q20.5 -41.5 36 -92q15.5 -51 24.5 -104.5q9 -53.5 9 -103.5q0 -80.5 -32 -120.5q-32.5 -39.5 -98.5 -39.5q-18 0 -37 2q-19 2.5 -51.5 9.5q22 -53.5 38.5 -88.5q16.5 -35 26.5 -50q9 -13.5 12 -19q3 -6 2.5 -10.5q0 -16.5 -18.5 -30.5q-18.5 -14 -53 -24q-21 -6 -39.5 -9.5q-18.5 -3.5 -30 -4q-8 0 -14.5 2.5q-6.5 2.5 -15.5 9q43.5 13.5 61.5 29.5q18 15.5 17.5 39q0 18 -5.5 46q-5.5 28.5 -15 60.5q-9.5 32 -21.5 61.5q-38.5 10.5 -74 18.5q-35 8 -62 13q-26.5 4.5 -38 4.5q-28 0.5 -45 -12.5q-17.5 -12.5 -33 -44q-3 8 -4.5 13.5q-1.5 5.5 -1.5 9.5q0.5 14.5 10 37q9.5 22 24 40.5q10.5 13.5 23 22q13 8.5 22 9q5.5 0 12 -2q6.5 -2.5 17.5 -9.5q20.5 -11.5 50.5 -24q30 -12 82.5 -29l-30.5 66.5M711 -549q50 25 83 57q33 32.5 57 79.5q14 25 21.5 48.5q7.5 24 10.5 49.5q-15.5 6.5 -31.5 12.5l-44 15q-28.5 9 -81.5 25q2.5 6.5 4.5 13l63.5 -6.5l34.5 -2q13 -0.5 30 -0.5q13.5 -0.5 21.5 2q8 2 20.5 9q8 4.5 12.5 6q5 1.5 11 1.5q19 -0.5 30 -15q10.5 -14.5 11 -41.5q0 -33.5 -15 -70q-14.5 -36.5 -43.5 -74q-67.5 -88 -187.5 -123.5l-8 14.5" />
</g>
<g id="PathID_740" transform="matrix(0.0107353, 0, 0, 0.0107353, 218.55, 11.65)">
<path style="fill:#000000;fill-opacity:1" d="M455 -707.5l-287.5 0l0 -15l0 -10.5l0 -24.5l-15.5 0q-6.5 51 -27 84q-21 33 -64 61q-6 3.5 -8 7q-1.5 3.5 -1.5 11.5q0.5 26.5 9 43.5q8.5 16.5 23 17q13.5 -1 31.5 -18.5q18 -17.5 28.5 -41q8 -16.5 13.5 -39.5q5 -22.5 8 -51.5l290 0l0 87q-1 50 -1 78.5q-0.5 28.5 -1 43.5q0 15 -0.5 23.5q0 9 -0.5 19.5q2 6 5.5 8q3.5 2.5 12 2q33 0.5 46.5 -4.5q13.5 -5 13.5 -18q-0.5 -12.5 -0.5 -20q-0.5 -7 -0.5 -14.5l0 -22.5l0 -44l-1 -61.5l0 -77l334 0q-5 22.5 -9.5 38.5q-4 16.5 -9 32.5l-12.5 39.5l7.5 5q13 -10 21.5 -17.5q8.5 -7.5 18 -17q9 -9 24 -25.5l9 -10l12.5 -14l14 -1.5l21.5 -2.5q7 -0.5 12 -1.5q5 -1 6.5 -2.5q2.5 -1.5 4.5 -4q1.5 -3 1.5 -5q0 -3 -2.5 -7q-2.5 -3.5 -8.5 -9.5q-17 -14.5 -29 -24q-12 -9.5 -24 -18.5l-31 -22q-23 21.5 -43 43l-317.5 0l0 -84l337 0q4.5 0 8 -2q3 -2 3 -5q0 -1 -1 -3q-1.5 -1.5 -3 -3.5q-19.5 -16 -32.5 -27.5l-26 -22l-32.5 -26l-22 22.5l-17.5 19l-21 24l-456.5 0q-20 0 -51 -3q-31 -2.5 -60.5 -7l7 38.5l15 -2l11 -1l15 0l19 -0.5l16 -1q9.5 0 28.5 -0.5l191.5 0l0 84M519.5 -107.5l241.5 0l0 32.5q0.5 6.5 4 9q3.5 2.5 10.5 2.5q12.5 0 26 -2q13 -2 20 -4q3.5 -2.5 6 -5.5q2.5 -2.5 3 -8l-1 -84q-0.5 -33 -0.5 -52.5q-0.5 -20 -0.5 -33l0 -27l0 -27l0 -35.5q22.5 -12 30 -18q7.5 -5.5 7 -10.5q0 -4 -2 -7q-2 -2.5 -6.5 -6.5q-18.5 -15 -30.5 -24q-12 -9 -31.5 -21l-21 20.5l-21 22.5l-516.5 0q-15.5 -9.5 -27 -16q-11 -6.5 -22.5 -12q-11.5 -6 -29 -14q1 16.5 2 53.5q1.5 37 2 79q1 42 1 74.5l0 18l-0.5 24l-1.5 44l-3 76.5q0.5 7.5 4.5 11q4.5 3.5 13 3.5q12.5 0 24 -1.5q11.5 -1 19 -2.5q3.5 -1.5 6 -5q2.5 -3.5 4 -9.5l0 -45l226.5 0l0 85q0 34.5 8.5 52.5q8.5 18 28.5 25.5q10.5 3.5 33.5 5.5q22.5 2.5 63 3.5q40.5 1 104 1q108.5 0 170 -3q61.5 -3 79.5 -9.5q11 -4 17 -11.5q5.5 -8 5.5 -18q0 -7 -4.5 -13.5q-4.5 -6.5 -11.5 -9q-12 -4.5 -15 -7q-3 -3 -2.5 -9.5l0 -5.5l0 -7.5q8.5 -81 17.5 -162l-12.5 0l-10 28q-8 22 -21.5 61q-10 30 -17.5 49q-7 18.5 -12.5 28q-6.5 12.5 -11.5 17.5q-5.5 5 -15 7l-32 2q-25.5 1 -60 1.5q-34.5 0.5 -66.5 0.5l-21 -0.5l-44.5 -1l-45 -1l-24 -0.5l-21.5 -1.5q-5 -0.5 -9 -2.5q-3 -2 -4 -5.5q-1 -4 -1 -14l0 -85M519.5 -131l0 -108.5l241.5 0l0 108.5l-241.5 0M455 -131l-226.5 0l0 -108.5l226.5 0l0 108.5M519.5 -263l0 -100.5l241.5 0l0 100.5l-241.5 0M455 -263l-226.5 0l0 -100.5l226.5 0l0 100.5M177.5 -570.5l23.5 -2l20 -1l25 0l175 0q4 0 6.5 -2q3 -2 3 -4q0 -1 -1 -3q-0.5 -2 -2 -4.5q-15 -13.5 -25.5 -22l-20 -17.5l-25.5 -19.5l-21.5 25l-20.5 24l-68.5 0l-34 -1.5l-41 -5.5q3.5 16.5 6.5 33.5M563.5 -571.5l40 -2l36.5 0l174 0q5 0 7.5 -1.5q3 -1.5 3 -4.5q0 -1 -1.5 -3l-2.5 -4.5l-68.5 -60q-13.5 15 -21 25l-20 25l-71 0q-21 0 -33.5 -0.5q-13 -0.5 -24 -2q-11 -1.5 -26.5 -4.5q4 16 7.5 32.5M563.5 -463l32 -3l26.5 -1.5q13 -0.5 30.5 -0.5l215 0q3 0 5.5 -2q2.5 -2 2.5 -4l-0.5 -3l-2.5 -3.5l-26 -23.5l-21.5 -18.5q-11 -9 -28 -21.5q-15.5 16 -24.5 26q-9.5 10 -24 26.5l-96 0l-37.5 0l-26 -2q-12.5 -1.5 -33 -5q4 17.5 7.5 35.5M145.5 -465l30 -2l24 -1l29 0l194.5 0q4 0 6.5 -1.5q2 -1.5 2 -4.5q0 -1.5 -1.5 -4l-3.5 -4.5q-14.5 -14 -24.5 -23l-20 -18l-24.5 -20.5q-16 16 -25 26.5l-24 26l-80 0q-25 0 -44 -2q-19.5 -1.5 -48 -6l9 34.5" />
</g>
<g id="PathID_741" transform="matrix(0.0107353, 0, 0, 0.0107353, 229.5, 11.65)">
<path style="fill:#000000;fill-opacity:1" d="M758 -261.5l0 33q0.5 5 3.5 7q3.5 2 11 2q21.5 0 36 -2q14 -2 19 -5q2 -1.5 3 -4.5q1 -2.5 1 -8q-3 -54.5 -4 -114.5q-1 -59.5 -1 -134l0 -61.5q24 -11 33 -17.5q8.5 -6.5 8 -12q0 -3 -2.5 -6q-2.5 -3 -8 -7.5l-32.5 -23.5l-30.5 -21.5q-14 13.5 -22 22.5l-20 22.5l-213.5 0l0 -108.5l428.5 0q4.5 0 6.5 -1.5q2.5 -1.5 2.5 -3.5q0 -1.5 -1 -3.5q-1 -2 -4 -5l-33.5 -29.5q-13.5 -12 -27.5 -23.5l-35.5 -28.5q-13.5 15 -22 25l-17 20.5q-8.5 10.5 -20 26l-277 0l0 -28.5q0 -11.5 0.5 -24.5q0 -13 0.5 -35q24 -6.5 33.5 -12q9 -5 8.5 -11.5q1 -7.5 -13 -11.5q-14 -4 -51.5 -6l-22 -1.5l-31 -2.5q2.5 23.5 3.5 37.5q1 14.5 1.5 34.5q0.5 20.5 1 61l-308 0q-26 0 -44 -2q-18 -1.5 -36 -6l4 39.5q14.5 -4.5 33 -6q18.5 -2 43 -2l308 0l0 108.5l-205 0q-15.5 -10 -26.5 -16.5l-22 -13q-11.5 -6 -28 -15.5q2 30.5 3 59q1 29 1.5 64q0.5 35 0.5 84q0 44.5 -0.5 77q-0.5 33 -1.5 63.5q-1 31 -3 70q0 7 4 9.5q4 3 13.5 3q35 0 46.5 -3q11.5 -3 10.5 -13.5l0 -38l207 0q-0.5 35 -0.5 52q-0.5 17.5 -0.5 30.5l0 33.5l-307 0l-57.5 -2q-24.5 -2 -48 -7l5 40.5q17.5 -3.5 42.5 -6l58 -2l307 0q-1 71.5 -2 120.5q-1.5 49 -2 75q0 6 2.5 8q3 2.5 10.5 2.5l34 -2l23.5 -2.5q3.5 -1 5.5 -4q1.5 -3 1.5 -9q-0.5 -17.5 -0.5 -30q-0.5 -13 -0.5 -30l-1 -46.5q0 -30 -1 -82l450 0q3 0 5.5 -2q2.5 -1.5 2.5 -3q0 -2.5 -1 -4.5q-1 -2.5 -3 -5l-33 -32.5q-13.5 -13 -27.5 -25.5q-14 -12.5 -35 -30q-14.5 16.5 -24 28q-10 11 -19.5 22.5l-24 28.5l-292 0l0 -26.5l0 -7.5l0 -43.5l0 -21l0 -17.5l219.5 0M758 -285l-219.5 0l0 -135l219.5 0l0 135M758 -443.5l-219.5 0l0 -125l219.5 0l0 125M470 -285l-207 0l0 -135l207 0l0 135M470 -443.5l-207 0l0 -125l207 0l0 54.5l0 26.5l0 44" />
</g>
<g id="PathID_742" transform="matrix(0.0107353, 0, 0, 0.0107353, 240.45, 11.65)">
<path style="fill:#000000;fill-opacity:1" d="M511 -3q64 -11 110 -25.5q46.5 -14.5 89.5 -38q97.5 -52.5 150.5 -133q53 -80.5 53.5 -177.5q0 -74.5 -24.5 -134.5q-24.5 -60.5 -74 -106q-50 -45.5 -118 -69.5q-68 -24.5 -146 -24.5q-67.5 0 -132.5 17.5q-65 17.5 -121.5 49.5q-56.5 32 -98.5 76q-43 48 -67.5 101q-24 53 -24.5 102q0 24 5.5 46.5q6 22.5 18 46.5q14.5 28.5 23 44.5q8 16.5 13 28q5 11 9 24q8.5 24 13.5 36q4.5 12 7.5 18q3.5 6 8 11.5q8.5 10 20 15.5q11.5 6 25 6q28 0 66 -38q38 -38 86.5 -114.5q39 -63.5 69.5 -129.5q30.5 -66.5 47.5 -125.5q17.5 -58.5 18 -99.5q0.5 -21.5 -6.5 -40q-7 -19 -25.5 -45l19.5 -1.5l16.5 -0.5q49.5 0 96 12.5q46.5 12 81.5 34.5q56.5 36.5 86 94q29.5 57.5 29.5 132.5q0 71 -23 133q-23 62 -68 114q-43 50 -100.5 84q-57 34 -139.5 58q3.5 9 7.5 17.5M484 -677q8.5 18.5 11.5 29.5q3 11 3 22q-0.5 32.5 -17 83.5q-16.5 50.5 -45.5 111q-29.5 60.5 -67.5 122q-38.5 60.5 -71 97.5q-33 36.5 -50.5 37.5q-8.5 0 -18.5 -8q-10 -7.5 -20.5 -21.5q-19.5 -27.5 -30 -63q-11 -35 -11 -72.5q1 -79.5 42.5 -150.5q42 -71 113.5 -120.5q71 -50 161 -67" />
</g>
</svg>
