<?xml version="1.0" encoding="utf-8"?>
<svg version="1.1" id="Layer_1"
xmlns="http://www.w3.org/2000/svg"
xmlns:xlink="http://www.w3.org/1999/xlink"
xmlns:author="http://www.sothink.com"
width="54px" height="14px"
xml:space="preserve">
<g id="PathID_841" transform="matrix(0.0107353, 0, 0, 0.0107353, -0.55, 11.5)">
<path style="fill:#000000;fill-opacity:1" d="M57.5 -381l40 -4.5l37 -2q20 -0.5 50 -0.5l786.5 0q5 0 8 -2q3 -1.5 3 -4q0 -1 -1 -3q-0.5 -1.5 -2 -3.5l-41.5 -35.5q-17 -14.5 -34.5 -28.5l-43 -34l-26 30.5q-10.5 12 -20.5 25q-10 12.5 -24 31.5l-605 0q-33.5 0 -55 -0.5q-22 -0.5 -40 -2.5q-18 -1.5 -39.5 -5q4 19 7.5 38.5" />
</g>
<g id="PathID_842" transform="matrix(0.0107353, 0, 0, 0.0107353, 10.4, 11.5)">
<path style="fill:#000000;fill-opacity:1" d="M221 -587l0.5 -56.5l0.5 -34q0.5 -13 0.5 -25.5q0 -12.5 0.5 -30.5l751 0q8 0 12 -1.5q4 -2 4 -5.5q0 -1 -1 -3.5q-1.5 -2.5 -3 -6l-38.5 -30l-31 -24q-15 -12 -37 -28.5q-13.5 15 -22 26q-9 11 -17.5 22l-21 27.5l-245.5 0l0 -62.5q25 -9.5 34.5 -15.5q10 -6 9.5 -12q1 -9 -27.5 -14q-28.5 -5.5 -97.5 -9.5l3 35.5q1 13 1 24l0 54l-264 0q-17.5 -12.5 -30 -20.5q-12 -8.5 -25 -16q-13.5 -8 -33.5 -19q0.5 15 1 23l1 17.5l1.5 27.5q1.5 32.5 2 49.5l1 29l0 29q0 18.5 -1 50.5l-1.5 69.5q-1 37 -2.5 71l-5.5 103.5q-2.5 44 -6 77q-3 32.5 -7 59.5q-14.5 83 -33.5 144q-19.5 60.5 -49.5 114l12 9q31.5 -38 52 -71.5q20.5 -33.5 38.5 -77q23.5 -55.5 38.5 -114q15.5 -58.5 24 -125.5q8 -66.5 10 -146.5l1 -90l171 0l0 85.5l0 49l-1 32l-1 33l0 2l0 1q0 5.5 3 8q3.5 2.5 10.5 2.5l17 -1l19.5 -2.5q9 -1.5 11.5 -2.5q3.5 -1.5 5.5 -4.5q2 -3 2.5 -9l0 -36l201 0l0 36q0.5 7 4 9.5q3 3 9.5 3l13.5 -1l15 -1.5q16.5 -2 21.5 -4q5 -2.5 5 -9l0 -35l0 -31l-0.5 -46l-0.5 -78.5l236.5 0q5 0 8 -2q3 -2 3.5 -4q0 -1 -1 -3q-0.5 -1.5 -2.5 -3.5l-37 -30l-30.5 -24.5l-39 -30.5l-20 26q-8.5 10.5 -16.5 21.5q-8 10.5 -19.5 26.5l-82 0l0 -67.5q16 -5.5 23 -10q7 -4.5 7.5 -10.5q1 -4.5 -6.5 -7.5q-7 -3 -29 -5.5l-65.5 -4.5q1.5 14.5 2 24l1 21l0 33l0 27.5l-201 0l0 -65.5q15.5 -5.5 24 -11.5q9 -5.5 9 -11q0.5 -4.5 -8.5 -7.5q-8.5 -3 -31 -5.5l-64 -4.5q1.5 19 2 31.5q1 12.5 1 28l0 46l-170 0M458.5 -563.5l201 0l0 134l-201 0l0 -134M1006.5 -42q-40.5 0 -70.5 -1.5q-30 -1.5 -58 -4.5q-28 -3.5 -63 -9.5q-57 -9.5 -106 -23q-49 -13.5 -90.5 -30.5q34.5 -23.5 62 -46.5q27.5 -22.5 52.5 -48.5q25 -26 52.5 -59.5q23 -3 34 -8q11 -4.5 11 -11.5q0 -3 -3.5 -7.5q-3.5 -5 -11 -12l-28 -25q-11.5 -10 -31.5 -25l-21 21q-8 8 -22 21l-380 0q-25.5 0 -51.5 -3q-26 -2.5 -45.5 -7.5l7 39q20 -3 40 -4q20.5 -1 50 -1l41 0q29.5 52 65 93q35.5 41 88 82q-87.5 60.5 -186 103q-98.5 42 -212.5 68l6 14.5q51 -7 93.5 -15.5q42.5 -9 83 -21q40 -12 84.5 -29q48.5 -18.5 91.5 -40q43.5 -22 85 -47q77 51 163.5 82.5q86.5 31 197 48.5q9.5 -27 18.5 -42q9 -15 22 -23.5q12.5 -8 33 -14.5l0 -12M711.5 -289q-23.5 32 -45 56q-21.5 24.5 -46 46.5q-25 22.5 -58.5 48q-52 -30.5 -90.5 -65.5q-38 -35 -73.5 -85l313.5 0" />
</g>
<g id="PathID_843" transform="matrix(0.0107353, 0, 0, 0.0107353, 21.35, 11.5)">
<path style="fill:#000000;fill-opacity:1" d="M298 -4l0 -581.5q22 -5.5 32.5 -10.5q10.5 -5 10.5 -11q1 -5 -6 -8.5q-6.5 -3.5 -32 -7.5q-25 -4 -79.5 -11q0.5 12 0.5 21.5q0.5 10 0.5 30.5q0.5 20.5 1 65l0 513l-62.5 0l-58 -2q-23 -2 -48.5 -8l6 37.5l25.5 -2.5l30.5 -1q17.5 -0.5 44.5 -0.5l805 0q5.5 0 8.5 -1.5q3.5 -1.5 3.5 -4.5q0 -4.5 -3 -9.5q-21.5 -20 -36 -33q-14.5 -13.5 -29.5 -26.5l-36 -31.5l-26.5 29.5l-21 24l-25 29.5l-232.5 0l0 -402.5l331 0q3.5 0 6.5 -1.5q2.5 -1.5 2.5 -3.5q0 -1.5 -1 -3.5q-0.5 -2 -2 -4l-34.5 -32l-28.5 -25l-35.5 -30q-13.5 15.5 -22.5 26.5l-18.5 22l-23.5 27.5l-174 0l0 -352.5q25 -6.5 35 -11.5q10.5 -5 10 -11q0.5 -6.5 -15 -11.5q-15.5 -5.5 -53.5 -10l-22 -2l-31 -4q1.5 13 2 25.5l1 33l0 60.5l0 709.5l-199 0" />
</g>
<g id="PathID_844" transform="matrix(0.0107353, 0, 0, 0.0107353, 32.3, 11.5)">
<path style="fill:#000000;fill-opacity:1" d="M177 -646q25 34 50.5 53.5q25.5 19 58.5 27q33.5 8 81.5 7.5q25.5 0 58 -1.5l74 -5.5l0 12l2 75l0 59l0 4.5l0 8l-56 5.5l-43.5 1.5q-45 0 -76 -6q-31 -5.5 -43.5 -16.5q-11.5 -8.5 -16.5 -22q-4.5 -13 -5 -36.5l-15.5 -1q-1 8.5 -1.5 16q-0.5 7.5 -0.5 13q0 24 12 44q11.5 20 34 33.5q18.5 11.5 52.5 17q34 5.5 83.5 5.5l28.5 -1l47.5 -2l0 15.5l0 10l0 17.5l0 30l0 9l0 7l0 14q0 7 0.5 20q0 13 0.5 37l-28.5 -1l-22.5 0q-69 0.5 -120.5 16q-52 15.5 -81.5 43.5q-29 28 -29.5 64.5q1 49 48 79q47 29.5 125 30.5q42 0 78.5 -10q36.5 -10 58.5 -28q18 -14 26.5 -35q8.5 -21 8.5 -51q0 -8.5 -1 -18.5q-0.5 -10 -2 -26.5q30.5 8 54 18q23 10 48.5 25q23 14 47.5 32.5q24.5 18 38.5 31q19 19 26.5 24q7.5 5.5 14 5q10.5 -0.5 16.5 -10q6 -9.5 6.5 -26q-0.5 -20 -8 -37.5q-7.5 -17 -22 -30q-21 -18.5 -55.5 -35q-35 -17 -78.5 -30.5q-43.5 -14 -91 -23q-2.5 -18 -3.5 -35q-1.5 -16.5 -3 -45q-0.5 -17.5 -0.5 -31l-1 -27.5l-1.5 -33.5q38 -3.5 83 -11.5q44.5 -8 84 -18.5q47.5 -12 63.5 -21.5q16.5 -9 15.5 -22.5q0 -6 -3 -11q-3.5 -5 -9.5 -8q-10 -6.5 -25.5 -11q-15 -4.5 -26.5 -4.5q-5 0 -8.5 1q-4 1 -7 3q-13.5 9.5 -23 14.5q-9.5 4.5 -28 11q-26.5 8.5 -56 15.5q-29.5 7 -61 12l-1 -53l0 -40l0 -31.5l1 -34q46 -5 95 -14q48.5 -9.5 100.5 -21.5q47 -11 64 -19.5q17 -8 16 -18.5q0 -7 -4.5 -13q-4.5 -6 -13 -11.5q-9.5 -6.5 -26 -12q-17 -5 -27 -5.5q-2.5 0 -6.5 1.5q-3.5 1 -6 2.5q-24.5 17.5 -70 32q-45 14 -120.5 28.5q2.5 -40 7 -67q4.5 -27 11.5 -41.5q9.5 -20.5 11.5 -26q2 -5.5 2 -9q0 -11.5 -8.5 -19.5q-8 -8 -26.5 -14q-18 -6.5 -41 -10q-23 -3.5 -45 -3.5q-20.5 -0.5 -31 3q-10.5 3 -20 13.5q28.5 3.5 46 11q17 7.5 26 25.5q8.5 18 12 52.5q3.5 35 5 93q-46 7 -80 10l-66.5 2.5q-38.5 0 -65.5 -4.5q-27 -4.5 -50 -16.5q-23 -12 -49.5 -34.5l-10 10.5M500.5 -145.5l0 3.5l-0.5 19.5l-1.5 19q-2.5 19 -7.5 32q-5.5 12.5 -15 21.5q-19 18 -49 27.5q-30 9.5 -68 9.5q-52.5 0 -82 -15.5q-29 -15 -29.5 -43q0 -40 55.5 -61.5q24 -9.5 52.5 -14.5q28.5 -5 59 -5l38.5 1.5l47.5 5.5" />
</g>
<g id="PathID_845" transform="matrix(0.0107353, 0, 0, 0.0107353, 43.25, 11.5)">
<path style="fill:#000000;fill-opacity:1" d="M601 -716.5l3.5 -1.5l1.5 -0.5l2 0l1 0q0 -1 0.5 -1l0.5 0q1 0 2 1q1 0.5 1 1q-1 3 -2.5 6q-1.5 2.5 -7.5 10.5q-30 38.5 -55 69.5q-25 31 -51 61.5q-26 31 -59 68.5q-33.5 38 -80 90l-66.5 73q-24.5 25.5 -40.5 40.5q-16.5 14.5 -35 28.5q-11 9 -16 18q-5.5 8.5 -5.5 18q0 15.5 5.5 30.5q5 15.5 12.5 25.5q8 10 16 10.5q7 0 14.5 -6q7.5 -6 20 -22q43.5 -54.5 100 -97.5q56.5 -42.5 115.5 -67.5q59 -24.5 110 -25q30.5 0 57.5 5.5q27.5 5.5 44 15q31 18.5 47 51.5q16.5 32.5 16.5 75.5q-0.5 65.5 -33 115.5q-32 50 -91 76q-11 -22 -21.5 -36.5q-10 -14.5 -23.5 -27q-25.5 -24 -59 -37q-33 -13.5 -71 -13.5q-48.5 1 -79 25q-30.5 24 -31.5 62q1 47.5 44.5 74.5q44 27.5 120 28q93.5 -0.5 166 -33.5q72.5 -33 114 -90q41 -57.5 42 -131.5q-0.5 -57.5 -27.5 -100.5q-27.5 -42.5 -76.5 -66.5q-49.5 -23.5 -115.5 -24q-63.5 -0.5 -130.5 23q-66.5 23 -148 74l-2 -2q10 -9.5 19 -19l31 -33l70 -75q35 -37 69 -71.5q34 -35 81.5 -82q22 -22 35.5 -34.5q13.5 -12 24 -19.5q11 -7.5 25.5 -14.5q9 -4.5 13 -9.5q4.5 -4.5 4.5 -10q0 -9 -6.5 -19q-7 -10.5 -24.5 -27q-19 -19 -32 -27.5q-13.5 -8.5 -23 -8.5q-4 0 -8 1.5q-3.5 1.5 -6.5 3.5q-10.5 9 -17 13.5q-7 4.5 -17 8.5l-29.5 10q-36 11 -75.5 21q-39.5 10 -71.5 16.5q-32.5 6.5 -46.5 6.5q-25.5 0 -45.5 -19.5q-19.5 -19 -31.5 -55.5q-5 8 -7 14q-2 6 -2 13q0 16 7.5 35.5q7.5 19.5 21 40q15 21.5 30 32.5q14.5 10.5 28.5 10.5q6 0 16.5 -3q10 -3.5 25.5 -10.5q36 -15.5 76 -31.5q40 -16.5 75 -29.5q35 -13 56 -19.5l5 -2M563 -21.5q-23 5 -38 7q-15 2 -34.5 2q-54.5 -0.5 -85.5 -17q-31 -16.5 -31.5 -45.5q0.5 -24 17.5 -38q17.5 -13.5 47 -14q43.5 0.5 76.5 28q32.5 28 48.5 77.5" />
</g>
</svg>
