<?xml version="1.0" encoding="utf-8"?>
<svg version="1.1" id="Layer_1"
xmlns="http://www.w3.org/2000/svg"
xmlns:xlink="http://www.w3.org/1999/xlink"
xmlns:author="http://www.sothink.com"
width="266px" height="14px"
xml:space="preserve">
<g id="PathID_693" transform="matrix(0.0107353, 0, 0, 0.0107353, -12.85, 11.55)">
<path style="fill:#000000;fill-opacity:1" d="" />
</g>
<g id="PathID_694" transform="matrix(0.0107353, 0, 0, 0.0107353, -1.9, 11.55)">
<path style="fill:#000000;fill-opacity:1" d="M177 -646q25 34 50.5 53.5q25.5 19 58.5 27q33.5 8 81.5 7.5q25.5 0 58 -1.5l74 -5.5l0 12l2 75l0 59l0 4.5l0 8l-56 5.5l-43.5 1.5q-45 0 -76 -6q-31 -5.5 -43.5 -16.5q-11.5 -8.5 -16.5 -22q-4.5 -13 -5 -36.5l-15.5 -1q-1 8.5 -1.5 16q-0.5 7.5 -0.5 13q0 24 12 44q11.5 20 34 33.5q18.5 11.5 52.5 17q34 5.5 83.5 5.5l28.5 -1l47.5 -2l0 15.5l0 10l0 17.5l0 30l0 9l0 7l0 14q0 7 0.5 20q0 13 0.5 37l-28.5 -1l-22.5 0q-69 0.5 -120.5 16q-52 15.5 -81.5 43.5q-29 28 -29.5 64.5q1 49 48 79q47 29.5 125 30.5q42 0 78.5 -10q36.5 -10 58.5 -28q18 -14 26.5 -35q8.5 -21 8.5 -51q0 -8.5 -1 -18.5q-0.5 -10 -2 -26.5q30.5 8 54 18q23 10 48.5 25q23 14 47.5 32.5q24.5 18 38.5 31q19 19 26.5 24q7.5 5.5 14 5q10.5 -0.5 16.5 -10q6 -9.5 6.5 -26q-0.5 -20 -8 -37.5q-7.5 -17 -22 -30q-21 -18.5 -55.5 -35q-35 -17 -78.5 -30.5q-43.5 -14 -91 -23q-2.5 -18 -3.5 -35q-1.5 -16.5 -3 -45q-0.5 -17.5 -0.5 -31l-1 -27.5l-1.5 -33.5q38 -3.5 83 -11.5q44.5 -8 84 -18.5q47.5 -12 63.5 -21.5q16.5 -9 15.5 -22.5q0 -6 -3 -11q-3.5 -5 -9.5 -8q-10 -6.5 -25.5 -11q-15 -4.5 -26.5 -4.5q-5 0 -8.5 1q-4 1 -7 3q-13.5 9.5 -23 14.5q-9.5 4.5 -28 11q-26.5 8.5 -56 15.5q-29.5 7 -61 12l-1 -53l0 -40l0 -31.5l1 -34q46 -5 95 -14q48.5 -9.5 100.5 -21.5q47 -11 64 -19.5q17 -8 16 -18.5q0 -7 -4.5 -13q-4.5 -6 -13 -11.5q-9.5 -6.5 -26 -12q-17 -5 -27 -5.5q-2.5 0 -6.5 1.5q-3.5 1 -6 2.5q-24.5 17.5 -70 32q-45 14 -120.5 28.5q2.5 -40 7 -67q4.5 -27 11.5 -41.5q9.5 -20.5 11.5 -26q2 -5.5 2 -9q0 -11.5 -8.5 -19.5q-8 -8 -26.5 -14q-18 -6.5 -41 -10q-23 -3.5 -45 -3.5q-20.5 -0.5 -31 3q-10.5 3 -20 13.5q28.5 3.5 46 11q17 7.5 26 25.5q8.5 18 12 52.5q3.5 35 5 93q-46 7 -80 10l-66.5 2.5q-38.5 0 -65.5 -4.5q-27 -4.5 -50 -16.5q-23 -12 -49.5 -34.5l-10 10.5M500.5 -145.5l0 3.5l-0.5 19.5l-1.5 19q-2.5 19 -7.5 32q-5.5 12.5 -15 21.5q-19 18 -49 27.5q-30 9.5 -68 9.5q-52.5 0 -82 -15.5q-29 -15 -29.5 -43q0 -40 55.5 -61.5q24 -9.5 52.5 -14.5q28.5 -5 59 -5l38.5 1.5l47.5 5.5" />
</g>
<g id="PathID_695" transform="matrix(0.0107353, 0, 0, 0.0107353, 9.05, 11.55)">
<path style="fill:#000000;fill-opacity:1" d="M412 -9q75.5 -8.5 133.5 -21.5q58 -13 104.5 -32q46 -19.5 86.5 -47q51.5 -34.5 80.5 -85.5q29.5 -51.5 30 -107q-0.5 -58.5 -29.5 -103.5q-28.5 -44.5 -80 -70q-51 -25 -118.5 -25.5l-43 1.5q-19 1.5 -37 4.5q-44.5 8 -104 26.5q-60 19 -129.5 46.5q-38.5 15.5 -59.5 22.5q-21 6.5 -30.5 6.5q-18.5 0 -35 -14.5q-16 -14 -28.5 -42q-4 7.5 -5.5 12q-2 5 -2 8.5q1 24.5 17.5 52.5q16.5 27.5 39.5 47.5q23 20 42.5 21q9 0 18 -4.5q9 -4.5 23 -15q55 -43 114.5 -74.5q59.5 -31 117.5 -48q57.5 -17 108 -17q69.5 1 110.5 41q41 40 42 108q0 46 -22 88.5q-21.5 42.5 -64 77q-53 45.5 -120.5 75q-68 29.5 -163 49l4 19.5" />
</g>
<g id="PathID_696" transform="matrix(0.0107353, 0, 0, 0.0107353, 20, 11.55)">
<path style="fill:#000000;fill-opacity:1" d="M362.5 58.5q47.5 -21 85.5 -45.5q38 -24.5 67 -52q53.5 -50.5 82 -117.5q28.5 -66.5 29 -142.5q0 -26 -3 -47q-2.5 -21 -10 -42.5q-7 -21 -20 -46.5l-1 -20.5l0 -14.5q0 -19.5 1 -44.5q1 -25 2.5 -50q1.5 -25 4 -45l56 -3q25.5 -1 53.5 -1l81.5 2.5q37 2.5 76 8l33.5 4l14.5 1.5l7.5 0.5q11.5 0 17 -4.5q5.5 -4.5 5.5 -13q0 -8 -3.5 -14.5q-4 -6.5 -13 -13q-20 -16 -45.5 -27q-25 -10.5 -41.5 -11q-5.5 -0.5 -12.5 2q-7 2 -25.5 9q-12 4.5 -25 7.5q-13 3 -38 5.5l-73 5.5l-29 2.5l-17.5 1.5l-20 2.5q3 -36.5 8.5 -60q5.5 -24 14 -39.5q6.5 -12.5 8.5 -17.5q2 -4.5 1.5 -10q0 -11 -10 -20.5q-10 -9 -29 -15.5q-22.5 -7 -47.5 -10.5q-25.5 -4 -52 -4q-20 0 -29 3.5q-9.5 4 -18 15q39 5.5 59.5 17q20.5 12 28.5 33.5q6 16 9 42q2.5 26 2.5 71.5l-68 7.5l-57 7.5q-27.5 3.5 -60 8.5l-77 12.5q-33.5 5 -53.5 7l-35 2q-30.5 0 -55 -13q-24.5 -13 -44 -39q-2.5 3.5 -4 7q-1 3.5 -1 5q0 13 12 34.5q11.5 21 28.5 40q18 18.5 35 29q17 10 31 10q4.5 0 11.5 -2q7 -1.5 12 -3q17 -9 32.5 -15.5q15 -6 34 -12q63 -19 130 -32q67 -13.5 128 -19l1 12.5l0 7.5q0 17 -0.5 38.5q0 21.5 -0.5 40.5l0 28q-19.5 -10.5 -31.5 -14q-12 -4 -26 -3.5q-38 0.5 -68 20.5q-29.5 20 -46.5 55.5q-17 35 -17.5 80.5q0.5 42.5 16.5 75.5q16.5 33 45 52.5q28 19 64.5 19.5q17.5 0 32.5 -5q15.5 -5 33 -15.5q-12.5 54 -35.5 97q-23 43 -61.5 81q-38.5 38 -97.5 78l8 13.5M551 -344q0 47.5 -16.5 71.5q-16 24.5 -49 24.5q-37 -1 -59.5 -31.5q-23 -30.5 -23.5 -80q1 -48 23.5 -78.5q23 -31 58.5 -32q33.5 0 50 31q16.5 31 16.5 95" />
</g>
<g id="PathID_697" transform="matrix(0.0107353, 0, 0, 0.0107353, 30.95, 11.55)">
<path style="fill:#000000;fill-opacity:1" d="M673.5 -750.5q19 17.5 40.5 42.5q21 25.5 40 53q18.5 27.5 30.5 51q6.5 12.5 12 18q5.5 5.5 11.5 5.5q11 -0.5 17.5 -14.5q6.5 -14 7 -36q0 -18 -10 -34q-10 -16 -32 -33.5q-23.5 -19 -50 -34.5q-27 -15 -59.5 -29q-3.5 6 -7.5 11.5M764 -815q13 11 24.5 21.5q11.5 10.5 28.5 27.5q15 15.5 23.5 25.5q8.5 9.5 17.5 21.5q9 12 24.5 35q6 9 11.5 14q6 4.5 11 4.5q10.5 -0.5 16.5 -13q6 -12 6 -33q0.5 -17.5 -5.5 -28.5q-6 -11.5 -22 -24q-18 -15 -49.5 -30.5q-31 -15.5 -78.5 -33q-4 6.5 -8 12.5M443 -811q32 21 44.5 34.5q12.5 13.5 12 26q0.5 11.5 -12.5 34q-13 23 -47 66.5q-33.5 43.5 -95 117.5q-31 38 -48.5 62.5q-17 24.5 -24 41.5q-7 17.5 -6.5 33q0 20.5 9 41q9.5 20.5 30 45.5q39.5 46 63 74q23.5 27.5 37.5 45q14 17 24.5 32q11 14.5 24.5 34q27 38.5 49.5 76q22.5 38 36.5 68.5q12.5 27 19 35q6.5 8 16 7q16 0 25.5 -16q9 -16 9 -45.5q0.5 -20.5 -3 -36q-4 -15.5 -12 -30.5q-17.5 -35.5 -62 -84.5q-44 -49 -126.5 -124.5l-41 -38q-13 -12 -18.5 -18q-6 -5.5 -12.5 -12.5q-30.5 -31 -30.5 -52.5q-0.5 -14.5 11 -34q11.5 -19 38 -48.5q17.5 -19.5 51 -52.5q34 -32.5 71.5 -66.5q37.5 -34.5 66 -58.5q27 -21.5 39.5 -33q13 -11.5 16.5 -18q4 -6.5 3.5 -13.5q0 -10.5 -5 -19.5q-5.5 -9 -17.5 -20.5q-15 -14 -36 -26q-21 -12.5 -42 -20q-21 -8 -36 -8l-11.5 0.5l-10 2.5" />
</g>
<g id="PathID_698" transform="matrix(0.0107353, 0, 0, 0.0107353, 41.9, 11.55)">
<path style="fill:#000000;fill-opacity:1" d="M119 -635.5q15 24.5 33.5 43q18 18.5 41 31.5q19 11.5 41 16.5q21.5 5 49 5l22 -1l26.5 -3q-30.5 71 -61 128.5q-30 57 -67 112q-10.5 15.5 -21.5 29.5q-11.5 14 -28 32q-6.5 7 -9 14.5q-2.5 7.5 -2 22.5q0 31 9 51.5q9 20.5 22.5 21q9 0.5 17.5 -8q8 -8.5 19.5 -29q4 -7.5 18 -38q14.5 -30.5 33.5 -72q19 -41.5 37 -82q18.5 -40.5 30 -68q21 -46 34.5 -77q13 -31.5 20 -47q121 -28 174.5 -49q53 -21.5 52 -41q-0.5 -13 -20 -22q-19 -8.5 -50 -8.5q-7 0 -11.5 1.5q-4 1.5 -10 6.5q-13.5 12 -25.5 19.5q-11.5 8 -31.5 16q-19.5 8 -56.5 21q27.5 -57 43.5 -88.5q15.5 -31.5 19 -37.5q6 -9 8 -15q2 -6 2 -11.5q0.5 -10.5 -11 -20.5q-11 -10 -37 -22.5q-22.5 -11 -44.5 -17.5q-21.5 -6 -37.5 -6q-5.5 -0.5 -11 1q-5.5 1.5 -13.5 6q36.5 18 51 36q15 18 14.5 43q0 26 -9 61q-8.5 35 -27.5 84q-29 6.5 -51.5 9.5q-22.5 3 -42 3q-25 0 -45 -5q-20.5 -5.5 -40 -18.5q-20 -13 -44 -36q-6 4 -12 8.5M670 -570q53 17.5 83 33q29.5 16 49 37.5l-28 6l-14.5 4q-5.5 1.5 -13 3q-35.5 9.5 -59 21q-23 11.5 -38 27.5q-14 14.5 -21.5 33q-8 18 -11.5 45q-3 27 -3 68.5l0 13.5q0.5 8.5 1 28q0.5 20 2 59.5q-19 -3 -32 -4l-29.5 -1q-57.5 0.5 -100 15.5q-43 15.5 -67 43q-24 27.5 -24.5 63.5q1 49 43 78.5q42.5 29.5 112.5 30q43.5 0 78 -11.5q34.5 -11.5 55.5 -32.5q15 -16.5 22 -36.5q7 -20.5 6.5 -50.5l0 -8.5l0 -11q39.5 18.5 68 39.5q29 21 56 50.5q15.5 17.5 22 22.5q7 5 14 4.5q9 -0.5 14.5 -10q5.5 -9.5 6 -25q0 -24.5 -10.5 -45q-10 -20 -30.5 -36q-23 -18 -60.5 -35.5q-37.5 -17 -85 -31q-7.5 -52 -12 -86q-4.5 -34 -6.5 -55.5q-2 -21.5 -2 -35q-1 -52 23 -73q24 -20.5 84.5 -20q25.5 0 43 2q17 1.5 30 6.5q13.5 4.5 27.5 13q6.5 4.5 12 6.5q5.5 2 11.5 2q12.5 -0.5 19.5 -8.5q7 -8 7 -21.5q0 -18 -17 -39q-17 -21 -47.5 -41q-35 -23.5 -78.5 -37.5q-43.5 -14 -96.5 -18.5l-3 16.5M617.5 -110.5q0 48.5 -32 73.5q-31.5 25 -94 25q-48 0 -75 -16q-27 -16 -27.5 -44.5q0.5 -36.5 37.5 -57q37 -20.5 103 -21q24 0 44.5 2.5q20.5 3 43.5 10l0 27.5" />
</g>
<g id="PathID_699" transform="matrix(0.0107353, 0, 0, 0.0107353, 52.85, 11.55)">
<path style="fill:#000000;fill-opacity:1" d="M207 -167q0 44 -1.5 105.5q-1.5 61.5 -4.5 129q0.5 7 3.5 10.5q3 3 10.5 3q13.5 0 28 -2.5q15 -2 20.5 -4.5q3.5 -2.5 5.5 -5.5q1.5 -3 1.5 -9l-1 -62q-0.5 -24 -0.5 -45.5q-0.5 -22 -0.5 -51.5l0 -78.5l0 -206l36 -7.5q12.5 -2.5 24.5 -5.5l32.5 -7.5q5.5 16.5 9 28.5q3.5 12 6.5 25q2.5 9.5 6 14.5q4 5 9.5 4.5q12.5 -1 23.5 -21q10.5 -20 11 -44q0 -12 -5.5 -24q-5.5 -12.5 -17 -25.5q-21.5 -24.5 -44 -46q-23 -21.5 -49 -41l-10.5 10q14.5 21.5 23.5 37.5q9.5 15.5 16.5 30q7 14.5 14.5 33l-41 3.5l-33 2.5l-41.5 2.5l-66 3q43 -51.5 74.5 -91q31.5 -39 61 -79.5q30 -40 67.5 -94q25.5 -0.5 35.5 -4q10 -3.5 9.5 -10q0.5 -5 -7.5 -10.5q-7.5 -5.5 -29 -14.5q-22 -8.5 -63 -23q-13.5 39 -37.5 89.5q-24 50 -56.5 107.5q-13 23 -24.5 42q-12 19.5 -25.5 40.5l-33 48q-19.5 0.5 -28.5 0.5l-12.5 0.5l-8 0l-20.5 -1l-26.5 -2q7 38.5 11.5 58.5q5 20.5 9 27.5q4 7.5 9 7q5 0.5 9.5 -7.5q4 -7.5 10 -29.5l54.5 -8q17.5 -2.5 28 -4.5l26 -4.5l0 206.5M56.5 -686q32 36 54 68.5q21.5 33 33 61.5q10 29.5 14.5 36q4 7 11 6q11.5 -1.5 20.5 -20.5q9 -18.5 9.5 -42q0.5 -17 -11 -32q-11 -15 -40.5 -35.5q22.5 -26.5 39 -47.5q16.5 -21 35 -47.5q18 -26 45 -67.5l6.5 0.5l4.5 0.5q21 0 30 -3.5q9.5 -3 9 -9q1 -5 -4 -9.5q-5 -4 -28.5 -13q-23 -8.5 -77 -27.5q-3.5 23.5 -14.5 58q-10.5 34.5 -26 74.5q-15.5 40.5 -34.5 80q-17 -12 -30 -20.5q-12.5 -8.5 -35.5 -22.5q-5 6.5 -10 12.5M627 -754.5l24.5 -20.5q10 -8.5 20.5 -19q10 -10 25.5 -27q24.5 -1.5 33.5 -4.5q9 -3 8.5 -10q0.5 -4.5 -6.5 -8.5q-7 -4 -29 -11q-22 -7 -67 -19.5q-4.5 29.5 -14 61q-9 32 -21 59l-66.5 0l-24.5 -16q-10.5 -6.5 -21 -12.5q-11 -6.5 -27 -15.5q1 21 1.5 56q1 35 1 76.5q0.5 41.5 0.5 82l0 35.5q0 14 -0.5 30q0 16 -1 42.5l-1.5 71.5q0.5 7 3.5 9q2.5 2.5 8.5 2.5q11 0 24 -2q13 -2 19.5 -4.5q4.5 -1 6 -4q2 -3 2 -9l0 -28l110.5 0l0 418q0 7.5 -2.5 10.5q-2.5 3 -9.5 3l-52.5 -2l-44 -2.5l-56.5 -5l0 15.5l58.5 14q17.5 4.5 24 6.5q6 2.5 11 5q16 8 23 18.5q7.5 10.5 9.5 28.5q43 -8 66 -17q22.5 -8.5 31 -21.5q8 -13 7.5 -34q-1.5 -37 -2 -62.5q-1 -25 -1 -44l-1 -35l0 -44q-0.5 -17 -1 -22.5l-5 -163.5q10.5 45.5 22 81q12 36 27 68q15.5 32.5 37 68q22 36.5 44.5 65.5q22.5 29 50.5 55.5q27.5 27 64.5 56q10 -25 25 -37q15 -12 40.5 -16l4 -15.5q-37.5 -15 -69.5 -34q-32 -19 -69.5 -50q-29 -22.5 -50 -45q-21.5 -22.5 -40 -50.5q32 -15 53.5 -27.5q21.5 -12 41 -26q19.5 -14 45.5 -34.5l10 1l6.5 0q17.5 0 24.5 -2.5q7.5 -2.5 7 -7.5q0.5 -5 -5 -10q-5.5 -5 -25 -15.5q-19 -10.5 -59 -31q-25 42 -51.5 74.5q-26.5 32.5 -59 62q-20.5 -34 -33.5 -62q-13 -28.5 -21 -59.5q-8 -31 -14 -73.5l110.5 0l0 33q0 7 3 9.5q3.5 3 10.5 3q28 0 41.5 -5q13.5 -4.5 13.5 -13.5l0 -3q-2 -39.5 -3 -67.5q-1.5 -27.5 -1.5 -51.5q-0.5 -24.5 -0.5 -53.5l1 -125.5q17.5 -9 25 -15.5q8 -6 7.5 -11q0 -4 -3 -8.5q-3.5 -4 -10 -10l-25.5 -19l-28 -20q-13 13 -20.5 21.5q-8 8.5 -20 22.5l-172 0M526.5 -615.5l0 -115.5l282.5 0l0 115.5l-282.5 0M809 -592l0 128l-282.5 0l0 -128l282.5 0M45 36q25 -41.5 44.5 -84q19.5 -42.5 34.5 -90q15.5 -48 28.5 -106.5q20.5 -3 28 -7q7.5 -3.5 7 -9.5q0.5 -5 -6 -9q-6.5 -4 -26 -9.5q-19.5 -6 -58 -15.5q-0.5 18.5 -2 36q-1.5 18 -5 40q-3.5 22.5 -9.5 55q-6.5 36 -13 65q-6.5 29 -15.5 59.5q-9 30 -22.5 69.5l15 6M295 -300q14 33 23 59.5q9 26.5 15.5 53.5q6.5 27 11.5 61q4 23 6.5 30q3 6.5 8 6q8 -0.5 17 -11.5q9.5 -11 16 -26.5q6.5 -15.5 7 -28.5q0 -22.5 -24 -60.5q-23.5 -37.5 -69 -87l-11.5 4M446.5 -304l-27.5 -1.5q-13 -1 -33 -5.5q3.5 18 6.5 36.5q12 -3 27.5 -4.5l32.5 -1.5l75 0q-10.5 32 -21 56.5q-11 25 -24.5 48.5q-13.5 23.5 -33.5 51.5q-29 43.5 -57 74.5q-28.5 30.5 -69 64q5.5 7.5 10.5 15.5q45 -28.5 76 -54q30.5 -25 61 -59q38.5 -39.5 66 -81q27 -42 54 -99q27.5 -8 27.5 -15.5q0.5 -2.5 -2 -6.5q-2.5 -3.5 -10 -12q-14.5 -13.5 -24.5 -21.5l-25 -20.5l-16.5 16.5q-6.5 7 -16 18.5l-77 0" />
</g>
<g id="PathID_700" transform="matrix(0.0107353, 0, 0, 0.0107353, 63.8, 11.55)">
<path style="fill:#000000;fill-opacity:1" d="M300 -338l152.5 0q4.5 0 7.5 -1.5q2.5 -1.5 3 -4.5q0 -1.5 -1 -3.5l-1.5 -4l-26 -25l-22 -19.5q-11 -10 -27.5 -24q-14.5 17.5 -23.5 29q-9 11.5 -22.5 29.5l-39 0l0 -158.5l39 0l0 29.5l0 3q0 5.5 2 8q1.5 2.5 6 2.5l1 0l1 0l15 -1.5l11 -0.5q18.5 -0.5 25.5 -4.5q6.5 -4 7 -16l-1.5 -77q-0.5 -28 -0.5 -47l0 -41l0 -33.5l0 -46.5q15.5 -10.5 22.5 -18.5q7.5 -7.5 7 -12q0 -3 -2.5 -6.5q-3 -3.5 -8.5 -9l-27.5 -20q-11 -7.5 -28 -20l-17 20q-7 7.5 -17.5 20l-163 0l-26.5 -18.5q-11 -7.5 -22.5 -14.5l-27.5 -16q1.5 25 2 42.5q1 18 1 32q0 91 -0.5 147q0 56 -0.5 89l-1 53l0 3q0 5.5 3 8.5q3 3 9 3l1 0l1.5 0q3 -1 7.5 -1q5 -0.5 12 0q16.5 0 23.5 -3q7 -3 8 -10.5l0 -44l73.5 0l0 436q-37 9.5 -74.5 18.5l0 -285q17 -3 26 -7.5q8.5 -5 8.5 -12.5q0.5 -7 -14.5 -11.5q-14.5 -4.5 -46.5 -8l-17 -2l-23 -2q3.5 19.5 5 34.5q1 15 1 38l0 270.5l-27.5 5q-12 2.5 -32 5.5q12.5 39.5 20 60q7 20.5 11.5 27.5q4.5 7 9.5 6.5q7 0 10 -9q3 -8.5 4.5 -30q89.5 -31.5 148 -52.5q58.5 -21 97.5 -36q38.5 -15.5 69.5 -29q30.5 -13.5 64.5 -30l-4 -14.5q-23 7 -38.5 11.5q-15 4.5 -31.5 9l-44.5 11.5l-23.5 6.5l-33 9l0 -238M161 -767l178 0l0 223.5l-178 0l0 -223.5M617.5 -736q9.5 -17.5 16.5 -32.5q7.5 -15.5 18.5 -42.5q24.5 -1.5 36.5 -5.5q12.5 -4 12.5 -11q1 -3 -4 -6q-5 -3 -28.5 -10q-23.5 -6.5 -77 -22q-3.5 20 -8.5 38.5q-5 18.5 -12.5 40q-7.5 22 -19 52q-18.5 46 -37 83q-18.5 37.5 -41 72.5q-22.5 35 -52 75l11 9q28 -24.5 49 -45.5q20.5 -21.5 40.5 -47.5q19.5 -26.5 46 -65.5q15 34.5 28 58.5q13 24 29 46q16 22 40 51q-44.5 54.5 -87 96q-42 41 -94 80q-52 38.5 -125 85l7 15.5q36.5 -18 61 -31q24.5 -13 44.5 -24.5q20 -11.5 42 -25.5l0 155.5q0 19.5 -0.5 42.5l-0.5 59.5l-1 96q0 6.5 3.5 9.5q3 2.5 11 2.5l26 -1.5q13.5 -1 19 -3.5q3 -1.5 4 -3.5q1.5 -2 2 -6.5l0 -54.5l232.5 0l0 44q0 6 3 8.5q3 3 10.5 3q17 -0.5 33.5 -2.5q16.5 -2.5 23 -5q3 -2 4 -5q1.5 -3 2 -9q-2.5 -38 -4 -73q-1.5 -35 -2 -81.5l-1 -119q16 -11 23.5 -17q7 -6 7 -8.5q0 -2.5 -2.5 -5.5q-3 -3 -9.5 -8l-18 -12.5q-7 -4.5 -15.5 -10.5l-26.5 -17l-17.5 19q-7.5 8 -18 21l-210 0q-19 -11.5 -28.5 -18q-10 -6 -25 -16q46.5 -31.5 85.5 -65q39 -33.5 77.5 -75q38 37 74 65q36 27.5 79.5 51.5q43 24 102.5 50.5q5 -21.5 11 -33.5q5.5 -12 17 -21q11.5 -8.5 32.5 -18.5l0 -9.5q-49.5 -8.5 -85.5 -18.5q-36 -10 -68.5 -25q-32 -14.5 -70.5 -37l-29 -19q-13.5 -9 -30.5 -21q26 -31 46 -58.5q20.5 -27.5 41.5 -60.5q21 -33 48 -80.5q25 -7.5 35.5 -12.5q10 -5 9.5 -10q0.5 -2.5 -2.5 -5l-9.5 -8.5l-23 -17.5l-18.5 -14q-9.5 -7.5 -23.5 -18q-12 13.5 -20 22l-20 22.5l-180 0M797.5 -712.5q-19 41.5 -34.5 71q-15.5 29.5 -32.5 55.5q-16.5 25.5 -39.5 56q-23 -20.5 -39 -38.5q-16 -18.5 -31.5 -43q-16 -25 -38 -65q9 -13 12.5 -19.5l9 -16.5l193.5 0M577.5 -262l232.5 0l0 231.5l-232.5 0l0 -231.5" />
</g>
<g id="PathID_701" transform="matrix(0.0107353, 0, 0, 0.0107353, 74.75, 11.55)">
<path style="fill:#000000;fill-opacity:1" d="M317.5 -794q31.5 5.5 48.5 14q17 8.5 25 23q4 7 6 18q2.5 11 3.5 34q1.5 23 3 66l2.5 60.5q1 23 2 37.5q1 14 2.5 26q3.5 32.5 11 51q7 18.5 18.5 26.5q12.5 9 23 12.5q10 3 26.5 3q-45 24 -74 43q-29 19.5 -51 39q-50.5 42 -75.5 84.5q-25 43 -25 87.5q0.5 51.5 30 91.5q29.5 40 81.5 60q32.5 11.5 75.5 17.5q43 6 98.5 6q32 0 71 -2l74 -5q34.5 -3 52 -6.5q24 -4 34 -12q10 -8 10 -21.5q-1 -19.5 -18 -34.5q-16.5 -15 -37.5 -16q-4.5 0 -8.5 1l-12 2.5q-37.5 8.5 -80 15q-43 7 -84 10.5q-41 4 -73.5 4q-85.5 0 -128.5 -28q-43.5 -28.5 -43.5 -83.5q0 -36 19 -67.5q19.5 -32 61 -63.5q31.5 -24.5 67.5 -44q35.5 -19.5 81.5 -36.5q45.5 -17 107 -34.5q34.5 -9.5 49 -14.5q15 -5 19.5 -7q10.5 -4.5 16 -12.5q5.5 -8 5.5 -18q-1 -17 -15.5 -29.5q-14.5 -13 -33.5 -13.5q-9 0 -19 2.5q-9.5 3 -23 9.5q-46 22 -72.5 33.5q-26 11 -40.5 15q-14.5 4 -24.5 4q-23 1 -31.5 -15.5q-9 -16 -8.5 -60.5q0.5 -43 3.5 -84q3 -40.5 8 -73.5q5 -32.5 11 -50q5.5 -13 7 -17.5q1.5 -4 1.5 -9.5l0 -0.5l0 -1.5q0 -10.5 -6.5 -18.5q-7 -8 -22.5 -14q-12.5 -5.5 -30.5 -10q-18.5 -4 -37.5 -7q-19.5 -2.5 -35 -2.5q-15 -0.5 -24 3q-9.5 3.5 -20 13" />
</g>
<g id="PathID_702" transform="matrix(0.0107353, 0, 0, 0.0107353, 85.7, 11.55)">
<path style="fill:#000000;fill-opacity:1" d="M82 122q27.5 -13 47 -27.5q19.5 -14 35 -33q20.5 -26 32 -57q11.5 -30.5 12 -62q-0.5 -43.5 -21.5 -68.5q-21 -25 -57.5 -25.5q-30.5 0.5 -49.5 19q-18.5 19 -19 48.5q-0.5 25 13.5 39q14 14.5 47 22.5q11 2 15.5 7q4 4.5 4 13.5q0 27.5 -19.5 51.5q-19 24 -59.5 48l20.5 24.5" />
</g>
<g id="PathID_703" transform="matrix(0.0107353, 0, 0, 0.0107353, 96.65, 11.55)">
<path style="fill:#000000;fill-opacity:1" d="M262 -770.5q-3.5 7 -5 11.5q-1 4.5 -1 8q0 12 5 28q5 15.5 14.5 31.5q14.5 27 31 41.5q16.5 15 32.5 15q6.5 0 13.5 -2.5q6.5 -2.5 17 -9q21 -12.5 50.5 -26.5q29.5 -13.5 73.5 -31q44.5 -17.5 66.5 -26q22 -8 31 -10.5q9.5 -2.5 14 -2.5q6.5 0.5 10.5 4q4 3.5 4 9.5q0.5 12 -39.5 56q-39.5 44 -124.5 124.5q-105.5 102 -177 157q-71 55.5 -110.5 67.5q-15.5 4.5 -21.5 10q-6.5 6 -6.5 16.5q0.5 10.5 10 23q9.5 12.5 22.5 22q13.5 9 25 9.5q4.5 0 9.5 -2.5q5.5 -2 16 -9q24 -15 67 -35.5q42.5 -20 95.5 -41.5q52.5 -21 106 -40q53.5 -19 98.5 -31.5q-41.5 24 -67.5 43.5q-25.5 19.5 -48.5 44.5q-31.5 33.5 -47.5 70q-16 37 -16 75.5q0.5 60 36 106q35.5 46 98 72.5q62.5 26 144.5 26.5q26.5 0 39.5 -6.5q13 -6.5 12.5 -21q-0.5 -11.5 -10.5 -25q-10 -13.5 -24 -23q-14 -10 -25.5 -10.5l-6 0.5l-10.5 1.5l-9 1l-10.5 0q-23 0 -38.5 -1q-15 -1 -27 -3q-11.5 -2.5 -24.5 -7.5q-48 -16.5 -74.5 -49.5q-26.5 -33.5 -27 -78.5q0.5 -54.5 37 -104q36.5 -50 102.5 -85.5q40 -21 89.5 -35q49 -14 92.5 -16l40 -2.5l17.5 -1q4.5 -0.5 8 -1.5q9.5 -1 15 -6.5q5.5 -5.5 5.5 -13q0 -8.5 -3.5 -15q-4 -6.5 -14 -15q-13.5 -11 -28 -17.5q-14.5 -7 -25 -7q-7 0 -15.5 1.5q-8 2 -26.5 9q-17.5 6 -41 12.5q-23 7 -54.5 16q-76.5 22 -133.5 39q-57 17.5 -101 31.5q-44.5 14.5 -83.5 28.5q-39 14 -80 30q52.5 -39 106 -80l102.5 -80q49 -39 88.5 -71.5q57.5 -47.5 91 -73q33.5 -25.5 44 -30.5q16.5 -6.5 21 -11q5 -4.5 4.5 -12.5q-1 -16.5 -17.5 -39q-16.5 -22 -38 -39.5q-22 -17 -37.5 -18q-4.5 0 -9.5 2q-5 2 -9 5q-10 9 -13.5 11.5q-3 2 -7 4q-9.5 4.5 -29 11q-19.5 6 -51 14.5q-57 16.5 -100 26q-42.5 10 -57.5 10q-14 0 -24.5 -3q-10.5 -3 -17.5 -9.5q-13.5 -10 -22 -21q-9 -11 -17 -27" />
</g>
<g id="PathID_704" transform="matrix(0.0107353, 0, 0, 0.0107353, 107.6, 11.55)">
<path style="fill:#000000;fill-opacity:1" d="M511 -3q64 -11 110 -25.5q46.5 -14.5 89.5 -38q97.5 -52.5 150.5 -133q53 -80.5 53.5 -177.5q0 -74.5 -24.5 -134.5q-24.5 -60.5 -74 -106q-50 -45.5 -118 -69.5q-68 -24.5 -146 -24.5q-67.5 0 -132.5 17.5q-65 17.5 -121.5 49.5q-56.5 32 -98.5 76q-43 48 -67.5 101q-24 53 -24.5 102q0 24 5.5 46.5q6 22.5 18 46.5q14.5 28.5 23 44.5q8 16.5 13 28q5 11 9 24q8.5 24 13.5 36q4.5 12 7.5 18q3.5 6 8 11.5q8.5 10 20 15.5q11.5 6 25 6q28 0 66 -38q38 -38 86.5 -114.5q39 -63.5 69.5 -129.5q30.5 -66.5 47.5 -125.5q17.5 -58.5 18 -99.5q0.5 -21.5 -6.5 -40q-7 -19 -25.5 -45l19.5 -1.5l16.5 -0.5q49.5 0 96 12.5q46.5 12 81.5 34.5q56.5 36.5 86 94q29.5 57.5 29.5 132.5q0 71 -23 133q-23 62 -68 114q-43 50 -100.5 84q-57 34 -139.5 58q3.5 9 7.5 17.5M484 -677q8.5 18.5 11.5 29.5q3 11 3 22q-0.5 32.5 -17 83.5q-16.5 50.5 -45.5 111q-29.5 60.5 -67.5 122q-38.5 60.5 -71 97.5q-33 36.5 -50.5 37.5q-8.5 0 -18.5 -8q-10 -7.5 -20.5 -21.5q-19.5 -27.5 -30 -63q-11 -35 -11 -72.5q1 -79.5 42.5 -150.5q42 -71 113.5 -120.5q71 -50 161 -67" />
</g>
<g id="PathID_705" transform="matrix(0.0107353, 0, 0, 0.0107353, 118.55, 11.55)">
<path style="fill:#000000;fill-opacity:1" d="M207 -167q0 44 -1.5 105.5q-1.5 61.5 -4.5 129q0.5 7 3.5 10.5q3 3 10.5 3q13.5 0 28 -2.5q15 -2 20.5 -4.5q3.5 -2.5 5.5 -5.5q1.5 -3 1.5 -9l-1 -62q-0.5 -24 -0.5 -45.5q-0.5 -22 -0.5 -51.5l0 -78.5l0 -206l36 -7.5q12.5 -2.5 24.5 -5.5l32.5 -7.5q5.5 16.5 9 28.5q3.5 12 6.5 25q2.5 9.5 6 14.5q4 5 9.5 4.5q12.5 -1 23.5 -21q10.5 -20 11 -44q0 -12 -5.5 -24q-5.5 -12.5 -17 -25.5q-21.5 -24.5 -44 -46q-23 -21.5 -49 -41l-10.5 10q14.5 21.5 23.5 37.5q9.5 15.5 16.5 30q7 14.5 14.5 33l-41 3.5l-33 2.5l-41.5 2.5l-66 3q43 -51.5 74.5 -91q31.5 -39 61 -79.5q30 -40 67.5 -94q25.5 -0.5 35.5 -4q10 -3.5 9.5 -10q0.5 -5 -7.5 -10.5q-7.5 -5.5 -29 -14.5q-22 -8.5 -63 -23q-13.5 39 -37.5 89.5q-24 50 -56.5 107.5q-13 23 -24.5 42q-12 19.5 -25.5 40.5l-33 48q-19.5 0.5 -28.5 0.5l-12.5 0.5l-8 0l-20.5 -1l-26.5 -2q7 38.5 11.5 58.5q5 20.5 9 27.5q4 7.5 9 7q5 0.5 9.5 -7.5q4 -7.5 10 -29.5l54.5 -8q17.5 -2.5 28 -4.5l26 -4.5l0 206.5M56.5 -686q32 36 54 68.5q21.5 33 33 61.5q10 29.5 14.5 36q4 7 11 6q11.5 -1.5 20.5 -20.5q9 -18.5 9.5 -42q0.5 -17 -11 -32q-11 -15 -40.5 -35.5q22.5 -26.5 39 -47.5q16.5 -21 35 -47.5q18 -26 45 -67.5l6.5 0.5l4.5 0.5q21 0 30 -3.5q9.5 -3 9 -9q1 -5 -4 -9.5q-5 -4 -28.5 -13q-23 -8.5 -77 -27.5q-3.5 23.5 -14.5 58q-10.5 34.5 -26 74.5q-15.5 40.5 -34.5 80q-17 -12 -30 -20.5q-12.5 -8.5 -35.5 -22.5q-5 6.5 -10 12.5M627 -754.5l24.5 -20.5q10 -8.5 20.5 -19q10 -10 25.5 -27q24.5 -1.5 33.5 -4.5q9 -3 8.5 -10q0.5 -4.5 -6.5 -8.5q-7 -4 -29 -11q-22 -7 -67 -19.5q-4.5 29.5 -14 61q-9 32 -21 59l-66.5 0l-24.5 -16q-10.5 -6.5 -21 -12.5q-11 -6.5 -27 -15.5q1 21 1.5 56q1 35 1 76.5q0.5 41.5 0.5 82l0 35.5q0 14 -0.5 30q0 16 -1 42.5l-1.5 71.5q0.5 7 3.5 9q2.5 2.5 8.5 2.5q11 0 24 -2q13 -2 19.5 -4.5q4.5 -1 6 -4q2 -3 2 -9l0 -28l110.5 0l0 418q0 7.5 -2.5 10.5q-2.5 3 -9.5 3l-52.5 -2l-44 -2.5l-56.5 -5l0 15.5l58.5 14q17.5 4.5 24 6.5q6 2.5 11 5q16 8 23 18.5q7.5 10.5 9.5 28.5q43 -8 66 -17q22.5 -8.5 31 -21.5q8 -13 7.5 -34q-1.5 -37 -2 -62.5q-1 -25 -1 -44l-1 -35l0 -44q-0.5 -17 -1 -22.5l-5 -163.5q10.5 45.5 22 81q12 36 27 68q15.5 32.5 37 68q22 36.5 44.5 65.5q22.5 29 50.5 55.5q27.5 27 64.5 56q10 -25 25 -37q15 -12 40.5 -16l4 -15.5q-37.5 -15 -69.5 -34q-32 -19 -69.5 -50q-29 -22.5 -50 -45q-21.5 -22.5 -40 -50.5q32 -15 53.5 -27.5q21.5 -12 41 -26q19.5 -14 45.5 -34.5l10 1l6.5 0q17.5 0 24.5 -2.5q7.5 -2.5 7 -7.5q0.5 -5 -5 -10q-5.5 -5 -25 -15.5q-19 -10.5 -59 -31q-25 42 -51.5 74.5q-26.5 32.5 -59 62q-20.5 -34 -33.5 -62q-13 -28.5 -21 -59.5q-8 -31 -14 -73.5l110.5 0l0 33q0 7 3 9.5q3.5 3 10.5 3q28 0 41.5 -5q13.5 -4.5 13.5 -13.5l0 -3q-2 -39.5 -3 -67.5q-1.5 -27.5 -1.5 -51.5q-0.5 -24.5 -0.5 -53.5l1 -125.5q17.5 -9 25 -15.5q8 -6 7.5 -11q0 -4 -3 -8.5q-3.5 -4 -10 -10l-25.5 -19l-28 -20q-13 13 -20.5 21.5q-8 8.5 -20 22.5l-172 0M526.5 -615.5l0 -115.5l282.5 0l0 115.5l-282.5 0M809 -592l0 128l-282.5 0l0 -128l282.5 0M45 36q25 -41.5 44.5 -84q19.5 -42.5 34.5 -90q15.5 -48 28.5 -106.5q20.5 -3 28 -7q7.5 -3.5 7 -9.5q0.5 -5 -6 -9q-6.5 -4 -26 -9.5q-19.5 -6 -58 -15.5q-0.5 18.5 -2 36q-1.5 18 -5 40q-3.5 22.5 -9.5 55q-6.5 36 -13 65q-6.5 29 -15.5 59.5q-9 30 -22.5 69.5l15 6M295 -300q14 33 23 59.5q9 26.5 15.5 53.5q6.5 27 11.5 61q4 23 6.5 30q3 6.5 8 6q8 -0.5 17 -11.5q9.5 -11 16 -26.5q6.5 -15.5 7 -28.5q0 -22.5 -24 -60.5q-23.5 -37.5 -69 -87l-11.5 4M446.5 -304l-27.5 -1.5q-13 -1 -33 -5.5q3.5 18 6.5 36.5q12 -3 27.5 -4.5l32.5 -1.5l75 0q-10.5 32 -21 56.5q-11 25 -24.5 48.5q-13.5 23.5 -33.5 51.5q-29 43.5 -57 74.5q-28.5 30.5 -69 64q5.5 7.5 10.5 15.5q45 -28.5 76 -54q30.5 -25 61 -59q38.5 -39.5 66 -81q27 -42 54 -99q27.5 -8 27.5 -15.5q0.5 -2.5 -2 -6.5q-2.5 -3.5 -10 -12q-14.5 -13.5 -24.5 -21.5l-25 -20.5l-16.5 16.5q-6.5 7 -16 18.5l-77 0" />
</g>
<g id="PathID_706" transform="matrix(0.0107353, 0, 0, 0.0107353, 129.5, 11.55)">
<path style="fill:#000000;fill-opacity:1" d="M300 -338l152.5 0q4.5 0 7.5 -1.5q2.5 -1.5 3 -4.5q0 -1.5 -1 -3.5l-1.5 -4l-26 -25l-22 -19.5q-11 -10 -27.5 -24q-14.5 17.5 -23.5 29q-9 11.5 -22.5 29.5l-39 0l0 -158.5l39 0l0 29.5l0 3q0 5.5 2 8q1.5 2.5 6 2.5l1 0l1 0l15 -1.5l11 -0.5q18.5 -0.5 25.5 -4.5q6.5 -4 7 -16l-1.5 -77q-0.5 -28 -0.5 -47l0 -41l0 -33.5l0 -46.5q15.5 -10.5 22.5 -18.5q7.5 -7.5 7 -12q0 -3 -2.5 -6.5q-3 -3.5 -8.5 -9l-27.5 -20q-11 -7.5 -28 -20l-17 20q-7 7.5 -17.5 20l-163 0l-26.5 -18.5q-11 -7.5 -22.5 -14.5l-27.5 -16q1.5 25 2 42.5q1 18 1 32q0 91 -0.5 147q0 56 -0.5 89l-1 53l0 3q0 5.5 3 8.5q3 3 9 3l1 0l1.5 0q3 -1 7.5 -1q5 -0.5 12 0q16.5 0 23.5 -3q7 -3 8 -10.5l0 -44l73.5 0l0 436q-37 9.5 -74.5 18.5l0 -285q17 -3 26 -7.5q8.5 -5 8.5 -12.5q0.5 -7 -14.5 -11.5q-14.5 -4.5 -46.5 -8l-17 -2l-23 -2q3.5 19.5 5 34.5q1 15 1 38l0 270.5l-27.5 5q-12 2.5 -32 5.5q12.5 39.5 20 60q7 20.5 11.5 27.5q4.5 7 9.5 6.5q7 0 10 -9q3 -8.5 4.5 -30q89.5 -31.5 148 -52.5q58.5 -21 97.5 -36q38.5 -15.5 69.5 -29q30.5 -13.5 64.5 -30l-4 -14.5q-23 7 -38.5 11.5q-15 4.5 -31.5 9l-44.5 11.5l-23.5 6.5l-33 9l0 -238M161 -767l178 0l0 223.5l-178 0l0 -223.5M617.5 -736q9.5 -17.5 16.5 -32.5q7.5 -15.5 18.5 -42.5q24.5 -1.5 36.5 -5.5q12.5 -4 12.5 -11q1 -3 -4 -6q-5 -3 -28.5 -10q-23.5 -6.5 -77 -22q-3.5 20 -8.5 38.5q-5 18.5 -12.5 40q-7.5 22 -19 52q-18.5 46 -37 83q-18.5 37.5 -41 72.5q-22.5 35 -52 75l11 9q28 -24.5 49 -45.5q20.5 -21.5 40.5 -47.5q19.5 -26.5 46 -65.5q15 34.5 28 58.5q13 24 29 46q16 22 40 51q-44.5 54.5 -87 96q-42 41 -94 80q-52 38.5 -125 85l7 15.5q36.5 -18 61 -31q24.5 -13 44.5 -24.5q20 -11.5 42 -25.5l0 155.5q0 19.5 -0.5 42.5l-0.5 59.5l-1 96q0 6.5 3.5 9.5q3 2.5 11 2.5l26 -1.5q13.5 -1 19 -3.5q3 -1.5 4 -3.5q1.5 -2 2 -6.5l0 -54.5l232.5 0l0 44q0 6 3 8.5q3 3 10.5 3q17 -0.5 33.5 -2.5q16.5 -2.5 23 -5q3 -2 4 -5q1.5 -3 2 -9q-2.5 -38 -4 -73q-1.5 -35 -2 -81.5l-1 -119q16 -11 23.5 -17q7 -6 7 -8.5q0 -2.5 -2.5 -5.5q-3 -3 -9.5 -8l-18 -12.5q-7 -4.5 -15.5 -10.5l-26.5 -17l-17.5 19q-7.5 8 -18 21l-210 0q-19 -11.5 -28.5 -18q-10 -6 -25 -16q46.5 -31.5 85.5 -65q39 -33.5 77.5 -75q38 37 74 65q36 27.5 79.5 51.5q43 24 102.5 50.5q5 -21.5 11 -33.5q5.5 -12 17 -21q11.5 -8.5 32.5 -18.5l0 -9.5q-49.5 -8.5 -85.5 -18.5q-36 -10 -68.5 -25q-32 -14.5 -70.5 -37l-29 -19q-13.5 -9 -30.5 -21q26 -31 46 -58.5q20.5 -27.5 41.5 -60.5q21 -33 48 -80.5q25 -7.5 35.5 -12.5q10 -5 9.5 -10q0.5 -2.5 -2.5 -5l-9.5 -8.5l-23 -17.5l-18.5 -14q-9.5 -7.5 -23.5 -18q-12 13.5 -20 22l-20 22.5l-180 0M797.5 -712.5q-19 41.5 -34.5 71q-15.5 29.5 -32.5 55.5q-16.5 25.5 -39.5 56q-23 -20.5 -39 -38.5q-16 -18.5 -31.5 -43q-16 -25 -38 -65q9 -13 12.5 -19.5l9 -16.5l193.5 0M577.5 -262l232.5 0l0 231.5l-232.5 0l0 -231.5" />
</g>
<g id="PathID_707" transform="matrix(0.0107353, 0, 0, 0.0107353, 140.45, 11.55)">
<path style="fill:#000000;fill-opacity:1" d="M309.5 -382l-54.5 143.5q-8 22 -16 41.5q-8 19.5 -21 45.5q-10.5 -31.5 -15 -62.5q-4.5 -31.5 -4.5 -72.5q0 -33.5 3.5 -65.5q3 -32.5 10 -61.5q5.5 -24.5 14.5 -54q9 -29.5 19.5 -58.5q11 -28.5 21.5 -50.5q10 -20 14.5 -30.5q5 -10.5 6 -16.5q1 -6.5 1 -14.5q0 -16.5 -9.5 -37q-9.5 -20 -28.5 -43.5q-20.5 -27 -36.5 -38.5q-16 -11.5 -32.5 -12q15.5 27 22.5 49.5q6.5 22 6.5 47q0 15.5 -3.5 37.5q-3.5 22 -11 57.5l-16.5 78.5q-6.5 29 -9.5 46.5q-3 17 -5 32q-2.5 15 -5 36.5q-3.5 31 -6 58.5q-2 28 -2 51q0 62.5 9.5 120q9.5 57 26.5 98q8.5 20.5 19.5 31.5q11.5 10.5 24.5 10.5q8.5 0 15 -4.5q6.5 -4.5 9.5 -13q1.5 -4 2.5 -13q1 -9.5 1 -31q-0.5 -15.5 1 -28.5q1.5 -13.5 5.5 -32q3.5 -18 10.5 -48l33 -137q11.5 -48.5 13.5 -55.5q-7.5 -2.5 -14.5 -5M441.5 -639q32 31.5 64.5 44.5q32.5 13.5 74.5 13l16.5 -0.5l25.5 -1.5q-12.5 9.5 -37.5 30q-25 20.5 -59.5 50l10 10q21 -13.5 45.5 -27.5q24.5 -14.5 47.5 -26.5q23 -12 39 -18.5q29 -12 62.5 -20.5q33.5 -8 83 -15.5q16 -3 22.5 -8.5q6.5 -5 6 -15q0 -10 -7.5 -19.5q-8 -9.5 -24 -18.5q-11 -7 -20.5 -10.5q-9 -3.5 -15.5 -4q-5 0 -9 1.5q-4 1.5 -13.5 7q-22.5 12 -58.5 22.5q-36 10.5 -75 17q-39.5 6.5 -72 6.5q-27 0.5 -48 -6q-21.5 -6 -47.5 -21.5l-9 12M435 -329.5q-6.5 24 -9.5 43q-2.5 19 -2.5 37.5q0 42 14 75q13.5 33 41 58q35 31 102 46.5q67 16 163.5 16q43.5 0 77.5 -3q33.5 -3 50.5 -8q10.5 -4 16.5 -10.5q6 -6 6 -15.5q-0.5 -12.5 -11 -26.5q-10 -13.5 -25 -23.5q-15 -9.5 -28.5 -10q-6 0 -15.5 3q-16 6.5 -24 9.5q-8 3 -14 4q-6 1.5 -16 3q-21 3.5 -43 5.5l-44.5 1.5q-118 0.5 -171 -37q-53 -38 -52 -121.5q0 -9.5 1 -19q0.5 -9.5 2 -24l-17.5 -4" />
</g>
<g id="PathID_708" transform="matrix(0.0107353, 0, 0, 0.0107353, 151.4, 11.55)">
<path style="fill:#000000;fill-opacity:1" d="M529.5 -769l404.5 0q7.5 0 11 -1.5q3.5 -1.5 3.5 -4.5q0 -2.5 -1.5 -5l-5 -5.5l-35 -29.5q-14.5 -11.5 -29 -23.5l-36 -29l-23 26l-18 21.5l-22.5 27.5l-561 0q-29 0 -50 -1q-21.5 -0.5 -39.5 -2.5q-18.5 -2 -38.5 -5.5l6 38.5q25.5 -3 56 -4.5q30.5 -1.5 66 -1.5l240.5 0l0 411.5l-267.5 0q-38 0 -63 -1q-25 -0.5 -45 -3q-20.5 -2 -44.5 -6q2.5 20 5.5 40.5q33 -3.5 68.5 -5.5q35.5 -1.5 78.5 -1.5l267.5 0l0 193.5q0 31.5 -0.5 69.5q-0.5 38 -1.5 74.5q-1 36 -2 62q0.5 7.5 5 11q4 3.5 12.5 3l3 0l6.5 -0.5l15 -0.5q21.5 -1 30 -5.5q8 -4 7.5 -14q-2 -68 -3 -119.5q-1 -52 -1 -81l0 -192.5l455.5 0q12.5 0 12.5 -6q0 -1 -1 -2.5l-3 -4l-38.5 -34q-15.5 -13.5 -31.5 -26.5l-39.5 -31.5l-21.5 28l-17.5 23.5q-8.5 12 -21.5 29.5l-294 0l0 -411.5M157 -705.5q18.5 26.5 29.5 44.5q10.5 18 20.5 38.5q23.5 46 42.5 93.5q18.5 47 28.5 82.5q5.5 20 8.5 25.5q3 5.5 8.5 7q2.5 1 3 1q0.5 0.5 1.5 0l3 -2q11 -6 14 -9q3 -2.5 5.5 -7q9 -16 15 -33.5q6 -17.5 6.5 -30q0 -12.5 -8.5 -29.5q-8.5 -17 -30.5 -46.5q-31.5 -43 -64 -76q-33 -33 -74.5 -66l-9 7M621.5 -393.5q29 -26.5 51.5 -49.5q22 -22.5 43.5 -49q21.5 -26.5 48 -63.5q26.5 -37.5 64 -92.5l9 0l7.5 0q16 0 24.5 -3.5q8 -3 8 -9q1 -4.5 -7.5 -9.5q-8.5 -5.5 -34 -16q-25.5 -10 -76 -28.5q-3.5 15.5 -8 29.5q-4 14 -12 32.5q-8 19 -22 50.5q-21 45 -38 79q-17 34 -34 62.5q-16.5 29 -35.5 58l11 9" />
</g>
<g id="PathID_709" transform="matrix(0.0107353, 0, 0, 0.0107353, 162.35, 11.55)">
<path style="fill:#000000;fill-opacity:1" d="M706.5 -494.5l0 464q0.5 8 -3.5 11q-3.5 2.5 -14 3q-41.5 -1 -70.5 -2l-57.5 -3l-66.5 -4l0 17.5l68.5 10q22 3 35.5 6.5q13.5 3 21 6q18 8 26 20q7.5 12.5 9 36q36.5 -6.5 58 -13q21.5 -6.5 37 -15.5q17.5 -10.5 25 -22q7.5 -11.5 7.5 -28l0 -3.5l0 -6q-1 -63 -1.5 -107.5q-0.5 -44 -0.5 -82l0 -82.5l0 -205l205 0q3 0 6 -2q3 -2 3 -5q0 -1 -1 -2.5q-1 -2 -3 -5l-31 -30l-26 -23.5q-13 -12 -33 -28q-13 14.5 -22 25l-18 21l-21.5 26.5l-380.5 0q-19.5 0 -33.5 -0.5l-29 -3q-14.5 -2 -36 -6.5l8 40.5l50.5 -5.5l40 -1.5l248.5 0M201 -194.5q-3 209 -6 249l0 3l0 2q-0.5 5.5 4.5 7.5q5 2 18 1.5l19.5 -1l22.5 -3q6.5 -1 9 -3q2.5 -2.5 3 -8l0 -24l0 -18l0 -14l0 -19q-0.5 -49.5 -0.5 -78.5q-0.5 -28.5 -0.5 -45.5l0 -31l0 -33.5l0 -175q21 -6.5 27 -10q6.5 -3.5 6 -8.5q0.5 -6.5 -13.5 -11.5q-14 -5 -54 -14q21 -23 38.5 -44q17 -21 35 -44.5q17.5 -23.5 40 -55q2 1 4 1q2 0.5 3 0q19 0 29 -3.5q10 -3.5 10 -10.5q0.5 -6 -10 -12q-11 -6 -43.5 -19l-20 -8q-12 -5.5 -29 -12.5q-15.5 39 -35 75q-20 35.5 -53 83q-31.5 46 -58 80.5q-27 34.5 -54 62.5q-27 28.5 -59 55.5l9.5 13.5q31 -19 53.5 -35q23 -16 46.5 -37q24 -21 57.5 -54l0 198.5M66 -556q75.5 -44.5 140 -101q64.5 -56.5 128 -133.5l13 0.5l10.5 0.5q8.5 0 15 -3q6 -3.5 6.5 -8q-1.5 -4.5 -3 -7l-2 -3.5q-7 -5 -29.5 -16q-22.5 -11.5 -64 -29q-20 37 -36.5 63.5q-17 27 -38 54.5q-39 53.5 -75 94q-36 40.5 -75.5 76q5 6 10.5 12M411.5 -744.5q29 -4.5 49 -5.5l46.5 -1.5l409 0q5 0 8.5 -2.5q4 -2.5 4 -5.5q0 -1.5 -1 -3.5q-0.5 -1.5 -2 -4l-33.5 -29q-13.5 -11.5 -27.5 -22l-33.5 -25.5l-20 23.5q-8 10 -15.5 20q-8 10 -19.5 25l-269 0q-28.5 0 -52.5 -2.5q-23.5 -2.5 -50 -7.5l7 40.5" />
</g>
<g id="PathID_710" transform="matrix(0.0107353, 0, 0, 0.0107353, 173.3, 11.55)">
<path style="fill:#000000;fill-opacity:1" d="M119 -635.5q15 24.5 33.5 43q18 18.5 41 31.5q19 11.5 41 16.5q21.5 5 49 5l22 -1l26.5 -3q-30.5 71 -61 128.5q-30 57 -67 112q-10.5 15.5 -21.5 29.5q-11.5 14 -28 32q-6.5 7 -9 14.5q-2.5 7.5 -2 22.5q0 31 9 51.5q9 20.5 22.5 21q9 0.5 17.5 -8q8 -8.5 19.5 -29q4 -7.5 18 -38q14.5 -30.5 33.5 -72q19 -41.5 37 -82q18.5 -40.5 30 -68q21 -46 34.5 -77q13 -31.5 20 -47q121 -28 174.5 -49q53 -21.5 52 -41q-0.5 -13 -20 -22q-19 -8.5 -50 -8.5q-7 0 -11.5 1.5q-4 1.5 -10 6.5q-13.5 12 -25.5 19.5q-11.5 8 -31.5 16q-19.5 8 -56.5 21q27.5 -57 43.5 -88.5q15.5 -31.5 19 -37.5q6 -9 8 -15q2 -6 2 -11.5q0.5 -10.5 -11 -20.5q-11 -10 -37 -22.5q-22.5 -11 -44.5 -17.5q-21.5 -6 -37.5 -6q-5.5 -0.5 -11 1q-5.5 1.5 -13.5 6q36.5 18 51 36q15 18 14.5 43q0 26 -9 61q-8.5 35 -27.5 84q-29 6.5 -51.5 9.5q-22.5 3 -42 3q-25 0 -45 -5q-20.5 -5.5 -40 -18.5q-20 -13 -44 -36q-6 4 -12 8.5M670 -570q53 17.5 83 33q29.5 16 49 37.5l-28 6l-14.5 4q-5.5 1.5 -13 3q-35.5 9.5 -59 21q-23 11.5 -38 27.5q-14 14.5 -21.5 33q-8 18 -11.5 45q-3 27 -3 68.5l0 13.5q0.5 8.5 1 28q0.5 20 2 59.5q-19 -3 -32 -4l-29.5 -1q-57.5 0.5 -100 15.5q-43 15.5 -67 43q-24 27.5 -24.5 63.5q1 49 43 78.5q42.5 29.5 112.5 30q43.5 0 78 -11.5q34.5 -11.5 55.5 -32.5q15 -16.5 22 -36.5q7 -20.5 6.5 -50.5l0 -8.5l0 -11q39.5 18.5 68 39.5q29 21 56 50.5q15.5 17.5 22 22.5q7 5 14 4.5q9 -0.5 14.5 -10q5.5 -9.5 6 -25q0 -24.5 -10.5 -45q-10 -20 -30.5 -36q-23 -18 -60.5 -35.5q-37.5 -17 -85 -31q-7.5 -52 -12 -86q-4.5 -34 -6.5 -55.5q-2 -21.5 -2 -35q-1 -52 23 -73q24 -20.5 84.5 -20q25.5 0 43 2q17 1.5 30 6.5q13.5 4.5 27.5 13q6.5 4.5 12 6.5q5.5 2 11.5 2q12.5 -0.5 19.5 -8.5q7 -8 7 -21.5q0 -18 -17 -39q-17 -21 -47.5 -41q-35 -23.5 -78.5 -37.5q-43.5 -14 -96.5 -18.5l-3 16.5M617.5 -110.5q0 48.5 -32 73.5q-31.5 25 -94 25q-48 0 -75 -16q-27 -16 -27.5 -44.5q0.5 -36.5 37.5 -57q37 -20.5 103 -21q24 0 44.5 2.5q20.5 3 43.5 10l0 27.5" />
</g>
<g id="PathID_711" transform="matrix(0.0107353, 0, 0, 0.0107353, 184.25, 11.55)">
<path style="fill:#000000;fill-opacity:1" d="M552 -692q12.5 -11.5 19 -25.5q6.5 -14.5 6.5 -30q0 -13.5 -5.5 -24q-5.5 -11 -20 -23q-19 -17 -39.5 -33q-21 -15.5 -50.5 -34.5q-6.5 4 -12.5 8q15 19.5 25.5 37q10 17.5 18.5 40.5q8.5 22.5 18.5 58q3.5 12.5 6.5 18q2.5 5 8 8.5l-145.5 0l-23.5 -1.5l-11.5 -0.5l-9 0l-17 -1l-11.5 -1l-16.5 -2l11 35.5q16.5 -2.5 39 -4l39 -2l215 0q-5 20.5 -9.5 36q-4 15.5 -9 31q-5 15.5 -12.5 35.5l-85.5 0q-16 -10 -27.5 -16.5q-11.5 -7 -24 -13q-12 -6 -30.5 -14.5q2 43 3.5 125q1.5 82 1.5 195.5q0 27 -0.5 55q0 28 -1 62.5l-1.5 82l0 3l0 2q0 5.5 3.5 9q3.5 3 9.5 3.5l14.5 -1l21 -2q9.5 -0.5 11 -1.5q3.5 -1 5.5 -4q2 -3 3.5 -9l0 -20.5l328.5 0l0 20.5q0 8 4 11.5q4 3 15.5 3q13 -0.5 24 -2.5q11.5 -2 20 -6q3.5 -2 5.5 -5.5q2 -3 2.5 -10l-3 -96l-1.5 -57q-0.5 -20.5 -0.5 -36l0 -34l0 -203.5q11.5 -5 20.5 -12.5q9.5 -7 10 -11q0 -1.5 -2 -4l-7 -7.5l-29 -24q-11.5 -9.5 -30.5 -24q-14.5 14 -22.5 22.5l-21.5 20.5l-193.5 0q20 -19 33.5 -33q13.5 -14 27 -29.5l32 -40l298.5 0q8 0 10.5 -1.5q3 -2 3 -5.5q0 -5 -9 -12.5q-19.5 -16 -33 -26.5l-26.5 -21.5l-33 -25.5l-20 25.5l-15 20.5l-17 23.5l-148.5 0q36 -30.5 59 -54q23.5 -23.5 47.5 -54.5q31.5 -5.5 40.5 -9.5q9.5 -3.5 8.5 -10q0 -4 -2.5 -7q-2.5 -3 -7.5 -5.5q-1.5 0 -28.5 -7.5l-80 -22q-7 39 -23 83q-16 44 -37.5 87l-114.5 0M468 -430l0 -112.5l328.5 0l0 112.5l-328.5 0M796.5 -406.5l0 122l-328.5 0l0 -122l328.5 0M796.5 -261l0 127l-328.5 0l0 -127l328.5 0M67.5 -824q37 39.5 65.5 81.5q28 42.5 45 84q11.5 29 18.5 43.5q7 14.5 12 19q4.5 5 10.5 4.5q8.5 -0.5 17.5 -12.5q9 -12 15 -29q6 -17 6.5 -33.5q0.5 -17 -7.5 -30.5q-8.5 -13.5 -29.5 -31q-45.5 -39 -78 -62.5q-32.5 -23.5 -65 -42l-10.5 8.5M49 -400.5q19 -3 37 -4.5l32 -1.5l72.5 0l0 274.5q-31.5 22.5 -66.5 43q-35 20.5 -81 43l13.5 26.5q5 9.5 12 24.5l16 34q4.5 9.5 5.5 11q3 4 6.5 6q3 2 6 2.5q6 1 9 -8q2.5 -9 6.5 -40.5q28 -33 48 -58q20 -25 36 -46.5q15.5 -21.5 30.5 -44.5q16 45 32.5 70.5q16 26 40 45q33 27.5 72.5 43q40 15 100 21.5q60 6 153 6q67.5 0 121.5 -0.5q54 0 101 -0.5l94 -1q6 -18.5 10 -28.5q4 -10.5 5.5 -13.5q5.5 -10 16 -17.5q10.5 -8 30 -16l0 -9.5l-152 10l-140.5 7q-65.5 2.5 -113 2.5q-107.5 0 -173 -7.5q-65 -8 -102.5 -25q-21.5 -10 -37 -28.5q-15.5 -19 -29.5 -52.5l0 -248l10 -8l7.5 -6.5q4.5 -3 8 -6l5.5 -5q1.5 -1.5 2 -3.5q1 -2 1 -3.5q0 -2.5 -2 -5q-1.5 -2.5 -5.5 -5.5q-17 -14.5 -29.5 -23.5q-12.5 -9 -34 -23.5l-19.5 20.5l-19 21.5l-67.5 0l-35.5 -2q-20.5 -2.5 -43.5 -6l10 37.5" />
</g>
<g id="PathID_712" transform="matrix(0.0107353, 0, 0, 0.0107353, 195.2, 11.55)">
<path style="fill:#000000;fill-opacity:1" d="M300 -338l152.5 0q4.5 0 7.5 -1.5q2.5 -1.5 3 -4.5q0 -1.5 -1 -3.5l-1.5 -4l-26 -25l-22 -19.5q-11 -10 -27.5 -24q-14.5 17.5 -23.5 29q-9 11.5 -22.5 29.5l-39 0l0 -158.5l39 0l0 29.5l0 3q0 5.5 2 8q1.5 2.5 6 2.5l1 0l1 0l15 -1.5l11 -0.5q18.5 -0.5 25.5 -4.5q6.5 -4 7 -16l-1.5 -77q-0.5 -28 -0.5 -47l0 -41l0 -33.5l0 -46.5q15.5 -10.5 22.5 -18.5q7.5 -7.5 7 -12q0 -3 -2.5 -6.5q-3 -3.5 -8.5 -9l-27.5 -20q-11 -7.5 -28 -20l-17 20q-7 7.5 -17.5 20l-163 0l-26.5 -18.5q-11 -7.5 -22.5 -14.5l-27.5 -16q1.5 25 2 42.5q1 18 1 32q0 91 -0.5 147q0 56 -0.5 89l-1 53l0 3q0 5.5 3 8.5q3 3 9 3l1 0l1.5 0q3 -1 7.5 -1q5 -0.5 12 0q16.5 0 23.5 -3q7 -3 8 -10.5l0 -44l73.5 0l0 436q-37 9.5 -74.5 18.5l0 -285q17 -3 26 -7.5q8.5 -5 8.5 -12.5q0.5 -7 -14.5 -11.5q-14.5 -4.5 -46.5 -8l-17 -2l-23 -2q3.5 19.5 5 34.5q1 15 1 38l0 270.5l-27.5 5q-12 2.5 -32 5.5q12.5 39.5 20 60q7 20.5 11.5 27.5q4.5 7 9.5 6.5q7 0 10 -9q3 -8.5 4.5 -30q89.5 -31.5 148 -52.5q58.5 -21 97.5 -36q38.5 -15.5 69.5 -29q30.5 -13.5 64.5 -30l-4 -14.5q-23 7 -38.5 11.5q-15 4.5 -31.5 9l-44.5 11.5l-23.5 6.5l-33 9l0 -238M161 -767l178 0l0 223.5l-178 0l0 -223.5M617.5 -736q9.5 -17.5 16.5 -32.5q7.5 -15.5 18.5 -42.5q24.5 -1.5 36.5 -5.5q12.5 -4 12.5 -11q1 -3 -4 -6q-5 -3 -28.5 -10q-23.5 -6.5 -77 -22q-3.5 20 -8.5 38.5q-5 18.5 -12.5 40q-7.5 22 -19 52q-18.5 46 -37 83q-18.5 37.5 -41 72.5q-22.5 35 -52 75l11 9q28 -24.5 49 -45.5q20.5 -21.5 40.5 -47.5q19.5 -26.5 46 -65.5q15 34.5 28 58.5q13 24 29 46q16 22 40 51q-44.5 54.5 -87 96q-42 41 -94 80q-52 38.5 -125 85l7 15.5q36.5 -18 61 -31q24.5 -13 44.5 -24.5q20 -11.5 42 -25.5l0 155.5q0 19.5 -0.5 42.5l-0.5 59.5l-1 96q0 6.5 3.5 9.5q3 2.5 11 2.5l26 -1.5q13.5 -1 19 -3.5q3 -1.5 4 -3.5q1.5 -2 2 -6.5l0 -54.5l232.5 0l0 44q0 6 3 8.5q3 3 10.5 3q17 -0.5 33.5 -2.5q16.5 -2.5 23 -5q3 -2 4 -5q1.5 -3 2 -9q-2.5 -38 -4 -73q-1.5 -35 -2 -81.5l-1 -119q16 -11 23.5 -17q7 -6 7 -8.5q0 -2.5 -2.5 -5.5q-3 -3 -9.5 -8l-18 -12.5q-7 -4.5 -15.5 -10.5l-26.5 -17l-17.5 19q-7.5 8 -18 21l-210 0q-19 -11.5 -28.5 -18q-10 -6 -25 -16q46.5 -31.5 85.5 -65q39 -33.5 77.5 -75q38 37 74 65q36 27.5 79.5 51.5q43 24 102.5 50.5q5 -21.5 11 -33.5q5.5 -12 17 -21q11.5 -8.5 32.5 -18.5l0 -9.5q-49.5 -8.5 -85.5 -18.5q-36 -10 -68.5 -25q-32 -14.5 -70.5 -37l-29 -19q-13.5 -9 -30.5 -21q26 -31 46 -58.5q20.5 -27.5 41.5 -60.5q21 -33 48 -80.5q25 -7.5 35.5 -12.5q10 -5 9.5 -10q0.5 -2.5 -2.5 -5l-9.5 -8.5l-23 -17.5l-18.5 -14q-9.5 -7.5 -23.5 -18q-12 13.5 -20 22l-20 22.5l-180 0M797.5 -712.5q-19 41.5 -34.5 71q-15.5 29.5 -32.5 55.5q-16.5 25.5 -39.5 56q-23 -20.5 -39 -38.5q-16 -18.5 -31.5 -43q-16 -25 -38 -65q9 -13 12.5 -19.5l9 -16.5l193.5 0M577.5 -262l232.5 0l0 231.5l-232.5 0l0 -231.5" />
</g>
<g id="PathID_713" transform="matrix(0.0107353, 0, 0, 0.0107353, 206.15, 11.55)">
<path style="fill:#000000;fill-opacity:1" d="M755 -709q31 26 61 61q29.5 35.5 45.5 65q10.5 20 17 27q6.5 7.5 13.5 7q10.5 -0.5 17.5 -14q7 -14 7 -35q0.5 -19.5 -10.5 -35.5q-11 -15.5 -38.5 -33.5q-25.5 -17 -53 -31q-27 -14.5 -51.5 -23l-8 12M840 -777.5q42 33 68.5 59.5q26 27 46 58.5q10.5 15 17 21.5q7 6 13 6q8.5 -0.5 14.5 -14q5.5 -14 6 -35q0 -17 -13.5 -32.5q-13.5 -16 -41 -31q-25.5 -14.5 -51 -25.5q-25.5 -11 -51.5 -18.5l-8 11M289 -431l-25.5 55.5q-9.5 21 -17 36.5l-16.5 32q-8.5 17.5 -23 45q-21.5 41.5 -41.5 73q-19.5 31 -34.5 47.5q-14.5 17 -19 28q-5 11.5 -4.5 29.5q0.5 33 8 52q8 18.5 22 18.5q7 0 13 -4.5q6 -5 11.5 -15q12.5 -22 36.5 -74q23.5 -51.5 54.5 -124.5q26 -62 41.5 -97.5l19 -45.5q16.5 -38.5 26.5 -60.5q9.5 -22 14.5 -35l9.5 -21.5q3.5 -9.5 9 -22.5q28.5 -8 47 -12.5q18.5 -4.5 32 -6.5l27 -1.5q17 0 28 2.5q11 2.5 18.5 7.5q27.5 18.5 27.5 83.5q0 39.5 -7.5 87q-8 47.5 -21.5 96q-13.5 48.5 -31.5 91q-19.5 47.5 -35 67q-15 19.5 -31.5 19q-16.5 0 -58 -18.5q-41.5 -18 -100.5 -51l-9.5 12q53.5 43.5 77 64.5q24 20.5 30 31.5q6.5 10.5 7 24q1.5 12 8 18q6.5 5.5 19.5 5.5q25 -0.5 51.5 -13q27 -12.5 46.5 -33q22.5 -25 42.5 -66.5q20.5 -41.5 36 -92q15.5 -51 24.5 -104.5q9 -53.5 9 -103.5q0 -80.5 -32 -120.5q-32.5 -39.5 -98.5 -39.5q-18 0 -37 2q-19 2.5 -51.5 9.5q22 -53.5 38.5 -88.5q16.5 -35 26.5 -50q9 -13.5 12 -19q3 -6 2.5 -10.5q0 -16.5 -18.5 -30.5q-18.5 -14 -53 -24q-21 -6 -39.5 -9.5q-18.5 -3.5 -30 -4q-8 0 -14.5 2.5q-6.5 2.5 -15.5 9q43.5 13.5 61.5 29.5q18 15.5 17.5 39q0 18 -5.5 46q-5.5 28.5 -15 60.5q-9.5 32 -21.5 61.5q-38.5 10.5 -74 18.5q-35 8 -62 13q-26.5 4.5 -38 4.5q-28 0.5 -45 -12.5q-17.5 -12.5 -33 -44q-3 8 -4.5 13.5q-1.5 5.5 -1.5 9.5q0.5 14.5 10 37q9.5 22 24 40.5q10.5 13.5 23 22q13 8.5 22 9q5.5 0 12 -2q6.5 -2.5 17.5 -9.5q20.5 -11.5 50.5 -24q30 -12 82.5 -29l-30.5 66.5M711 -549q50 25 83 57q33 32.5 57 79.5q14 25 21.5 48.5q7.5 24 10.5 49.5q-15.5 6.5 -31.5 12.5l-44 15q-28.5 9 -81.5 25q2.5 6.5 4.5 13l63.5 -6.5l34.5 -2q13 -0.5 30 -0.5q13.5 -0.5 21.5 2q8 2 20.5 9q8 4.5 12.5 6q5 1.5 11 1.5q19 -0.5 30 -15q10.5 -14.5 11 -41.5q0 -33.5 -15 -70q-14.5 -36.5 -43.5 -74q-67.5 -88 -187.5 -123.5l-8 14.5" />
</g>
<g id="PathID_714" transform="matrix(0.0107353, 0, 0, 0.0107353, 217.1, 11.55)">
<path style="fill:#000000;fill-opacity:1" d="M177 -684q30.5 50 71 72q40.5 22.5 100 22l16 -0.5l23 -1.5l-5 45l-2.5 27.5q-1 10.5 -1.5 18.5q-2.5 29.5 -4 43l-1.5 20l-1 13q-44.5 19.5 -77.5 39.5q-32.5 19.5 -60.5 42.5q-48.5 40.5 -72.5 80.5q-24 40 -24 80q0 16.5 4 30q4 13.5 15.5 31.5q7.5 12.5 11 19.5l8.5 19.5q9.5 26.5 20.5 37q11 10.5 28.5 10q32 -0.5 79.5 -26.5q47.5 -25.5 98 -70.5q18 46.5 32.5 68q14 22 27 22q10.5 -0.5 17 -13.5q6 -12.5 6.5 -33.5q0 -14 -3 -24.5q-3 -10.5 -8.5 -18.5q-6 -8.5 -9 -13.5q-3.5 -5 -6.5 -11l-10 -18.5q31.5 -29 57.5 -60q25.5 -31.5 52 -73.5q24 -38.5 39 -70.5q14.5 -31.5 25.5 -69.5q41 5 69.5 13.5q28 8.5 49.5 22q36 24.5 55 61.5q19.5 37 19.5 84q-0.5 107.5 -84 184.5q-83 76.5 -239.5 115.5l3 16.5q121 -11 210.5 -50.5q89.5 -39.5 139 -102q49.5 -62 50 -140.5q0 -51 -17.5 -91.5q-17.5 -40 -52.5 -70q-37 -31.5 -84 -48.5q-47 -17 -114.5 -24.5q-7.5 -26 -26 -43.5q-18.5 -17 -39.5 -18q-1.5 0 -4.5 1l-6.5 1q18 16.5 25.5 29.5q7.5 13 7 27l0 6q-41 2.5 -80.5 10.5q-40 8 -83 22.5q1.5 -35.5 7 -77.5q5 -41.5 12.5 -77q57.5 -9.5 112 -22.5q54 -12.5 93.5 -26q50 -17 69.5 -29q19.5 -12 18.5 -25q0 -8 -4.5 -13.5q-4 -6 -12 -9q-9 -3.5 -22.5 -5.5q-14 -2.5 -25.5 -3q-7 0 -12.5 2q-5 2 -13 9.5q-26 21.5 -73 39.5q-47 18 -119.5 33q9 -40.5 16 -60q7 -20 15.5 -32q10 -12 12 -16.5q2 -4 1.5 -10q0 -12 -9.5 -22.5q-9 -10 -28.5 -19.5q-21.5 -10.5 -46.5 -17q-24.5 -6.5 -42.5 -6.5q-9.5 -0.5 -15.5 2q-6 2.5 -14 9q37 11 52 26.5q15 15 14.5 42q0 14.5 -3.5 46.5q-3 31.5 -8 67.5q-20 3 -32.5 4l-26.5 1q-50.5 0.5 -82.5 -13q-32.5 -13.5 -61 -47.5q-7 4 -13.5 8.5M370.5 -388l0 21.5l0 15q0 32 1.5 57q1 24.5 4.5 50q3.5 25.5 9.5 58q-43.5 37 -85 59.5q-42 23 -67.5 23.5q-18 -0.5 -28.5 -17q-10.5 -16.5 -10.5 -45.5q0 -24 8 -47.5q7.5 -24 23.5 -49q23 -36.5 55.5 -64.5q32.5 -28.5 89 -61M416.5 -408.5q31.5 -12.5 57 -20q25.5 -8 50.5 -12q24.5 -4.5 53.5 -7q-14.5 41.5 -33.5 76q-19 35 -46.5 69.5q-27 34.5 -66.5 75.5q-7 -32.5 -11 -70q-3.5 -38 -3.5 -79.5l0 -13.5l0 -19" />
</g>
<g id="PathID_715" transform="matrix(0.0107353, 0, 0, 0.0107353, 228.05, 11.55)">
<path style="fill:#000000;fill-opacity:1" d="M408.5 82q72.5 -29 127 -67.5q54.5 -39 99 -94.5q56.5 -68 84 -151.5q28 -83.5 28 -183.5q-0.5 -86 -21.5 -151.5q-21.5 -65.5 -59.5 -102.5q-37.5 -37 -87 -37.5q-34.5 0 -65.5 15q-31 14.5 -59.5 45q-37 39 -66.5 105q-29 65.5 -52 163.5l-2 0l-1 -22.5l0 -15.5q0.5 -48.5 10.5 -107q10 -58 27 -111.5q16.5 -53 36 -86.5q9 -14 12 -21.5q3 -8 2.5 -17q0 -15.5 -9 -29q-9.5 -13.5 -31 -28.5q-21 -15.5 -43 -24.5q-22 -9 -39 -9.5q-3 0 -7.5 1.5l-11 3.5q30.5 15 43 32q13 17 12.5 41q0 10 -2.5 27.5q-2.5 17 -8.5 47q-13.5 67 -20.5 113q-7 45.5 -10 83q-2.5 37 -2.5 78.5q0.5 96.5 17.5 152.5q17.5 56 47 57.5q13 0 20 -8q6.5 -8 6.5 -23l0 -11q0 -5.5 -1 -10.5l-3 -38q-1 -13 -1 -25.5q0 -53 13 -111q12.5 -58 35 -109q28 -63 62 -95.5q34.5 -32.5 73 -32.5q22.5 0 40.5 11.5q18.5 11.5 32 33.5q11.5 19.5 20 52q8.5 32 13 73q5 41 5 86q0 100.5 -27 187q-26.5 86.5 -80.5 158q-32.5 43 -71 77q-38 33.5 -91.5 66.5q4 7.5 8 15.5" />
</g>
<g id="PathID_716" transform="matrix(0.0107353, 0, 0, 0.0107353, 239, 11.55)">
<path style="fill:#000000;fill-opacity:1" d="M177 -646q25 34 50.5 53.5q25.5 19 58.5 27q33.5 8 81.5 7.5q25.5 0 58 -1.5l74 -5.5l0 12l2 75l0 59l0 4.5l0 8l-56 5.5l-43.5 1.5q-45 0 -76 -6q-31 -5.5 -43.5 -16.5q-11.5 -8.5 -16.5 -22q-4.5 -13 -5 -36.5l-15.5 -1q-1 8.5 -1.5 16q-0.5 7.5 -0.5 13q0 24 12 44q11.5 20 34 33.5q18.5 11.5 52.5 17q34 5.5 83.5 5.5l28.5 -1l47.5 -2l0 15.5l0 10l0 17.5l0 30l0 9l0 7l0 14q0 7 0.5 20q0 13 0.5 37l-28.5 -1l-22.5 0q-69 0.5 -120.5 16q-52 15.5 -81.5 43.5q-29 28 -29.5 64.5q1 49 48 79q47 29.5 125 30.5q42 0 78.5 -10q36.5 -10 58.5 -28q18 -14 26.5 -35q8.5 -21 8.5 -51q0 -8.5 -1 -18.5q-0.5 -10 -2 -26.5q30.5 8 54 18q23 10 48.5 25q23 14 47.5 32.5q24.5 18 38.5 31q19 19 26.5 24q7.5 5.5 14 5q10.5 -0.5 16.5 -10q6 -9.5 6.5 -26q-0.5 -20 -8 -37.5q-7.5 -17 -22 -30q-21 -18.5 -55.5 -35q-35 -17 -78.5 -30.5q-43.5 -14 -91 -23q-2.5 -18 -3.5 -35q-1.5 -16.5 -3 -45q-0.5 -17.5 -0.5 -31l-1 -27.5l-1.5 -33.5q38 -3.5 83 -11.5q44.5 -8 84 -18.5q47.5 -12 63.5 -21.5q16.5 -9 15.5 -22.5q0 -6 -3 -11q-3.5 -5 -9.5 -8q-10 -6.5 -25.5 -11q-15 -4.5 -26.5 -4.5q-5 0 -8.5 1q-4 1 -7 3q-13.5 9.5 -23 14.5q-9.5 4.5 -28 11q-26.5 8.5 -56 15.5q-29.5 7 -61 12l-1 -53l0 -40l0 -31.5l1 -34q46 -5 95 -14q48.5 -9.5 100.5 -21.5q47 -11 64 -19.5q17 -8 16 -18.5q0 -7 -4.5 -13q-4.5 -6 -13 -11.5q-9.5 -6.5 -26 -12q-17 -5 -27 -5.5q-2.5 0 -6.5 1.5q-3.5 1 -6 2.5q-24.5 17.5 -70 32q-45 14 -120.5 28.5q2.5 -40 7 -67q4.5 -27 11.5 -41.5q9.5 -20.5 11.5 -26q2 -5.5 2 -9q0 -11.5 -8.5 -19.5q-8 -8 -26.5 -14q-18 -6.5 -41 -10q-23 -3.5 -45 -3.5q-20.5 -0.5 -31 3q-10.5 3 -20 13.5q28.5 3.5 46 11q17 7.5 26 25.5q8.5 18 12 52.5q3.5 35 5 93q-46 7 -80 10l-66.5 2.5q-38.5 0 -65.5 -4.5q-27 -4.5 -50 -16.5q-23 -12 -49.5 -34.5l-10 10.5M500.5 -145.5l0 3.5l-0.5 19.5l-1.5 19q-2.5 19 -7.5 32q-5.5 12.5 -15 21.5q-19 18 -49 27.5q-30 9.5 -68 9.5q-52.5 0 -82 -15.5q-29 -15 -29.5 -43q0 -40 55.5 -61.5q24 -9.5 52.5 -14.5q28.5 -5 59 -5l38.5 1.5l47.5 5.5" />
</g>
<g id="PathID_717" transform="matrix(0.0107353, 0, 0, 0.0107353, 249.95, 11.55)">
<path style="fill:#000000;fill-opacity:1" d="M362.5 58.5q47.5 -21 85.5 -45.5q38 -24.5 67 -52q53.5 -50.5 82 -117.5q28.5 -66.5 29 -142.5q0 -26 -3 -47q-2.5 -21 -10 -42.5q-7 -21 -20 -46.5l-1 -20.5l0 -14.5q0 -19.5 1 -44.5q1 -25 2.5 -50q1.5 -25 4 -45l56 -3q25.5 -1 53.5 -1l81.5 2.5q37 2.5 76 8l33.5 4l14.5 1.5l7.5 0.5q11.5 0 17 -4.5q5.5 -4.5 5.5 -13q0 -8 -3.5 -14.5q-4 -6.5 -13 -13q-20 -16 -45.5 -27q-25 -10.5 -41.5 -11q-5.5 -0.5 -12.5 2q-7 2 -25.5 9q-12 4.5 -25 7.5q-13 3 -38 5.5l-73 5.5l-29 2.5l-17.5 1.5l-20 2.5q3 -36.5 8.5 -60q5.5 -24 14 -39.5q6.5 -12.5 8.5 -17.5q2 -4.5 1.5 -10q0 -11 -10 -20.5q-10 -9 -29 -15.5q-22.5 -7 -47.5 -10.5q-25.5 -4 -52 -4q-20 0 -29 3.5q-9.5 4 -18 15q39 5.5 59.5 17q20.5 12 28.5 33.5q6 16 9 42q2.5 26 2.5 71.5l-68 7.5l-57 7.5q-27.5 3.5 -60 8.5l-77 12.5q-33.5 5 -53.5 7l-35 2q-30.5 0 -55 -13q-24.5 -13 -44 -39q-2.5 3.5 -4 7q-1 3.5 -1 5q0 13 12 34.5q11.5 21 28.5 40q18 18.5 35 29q17 10 31 10q4.5 0 11.5 -2q7 -1.5 12 -3q17 -9 32.5 -15.5q15 -6 34 -12q63 -19 130 -32q67 -13.5 128 -19l1 12.5l0 7.5q0 17 -0.5 38.5q0 21.5 -0.5 40.5l0 28q-19.5 -10.5 -31.5 -14q-12 -4 -26 -3.5q-38 0.5 -68 20.5q-29.5 20 -46.5 55.5q-17 35 -17.5 80.5q0.5 42.5 16.5 75.5q16.5 33 45 52.5q28 19 64.5 19.5q17.5 0 32.5 -5q15.5 -5 33 -15.5q-12.5 54 -35.5 97q-23 43 -61.5 81q-38.5 38 -97.5 78l8 13.5M551 -344q0 47.5 -16.5 71.5q-16 24.5 -49 24.5q-37 -1 -59.5 -31.5q-23 -30.5 -23.5 -80q1 -48 23.5 -78.5q23 -31 58.5 -32q33.5 0 50 31q16.5 31 16.5 95" />
</g>
<g id="PathID_718" transform="matrix(0.0107353, 0, 0, 0.0107353, 260.9, 11.55)">
<path style="fill:#000000;fill-opacity:1" d="M192.5 -169q-36.5 0.5 -66.5 18q-29.5 18 -47.5 47.5q-17.5 30 -18 66.5q0.5 37 18 67q18 29.5 47.5 47.5q30 17.5 66.5 18q36.5 -0.5 66.5 -18q29.5 -18 47.5 -47.5q17.5 -30 18 -67q-0.5 -37 -18 -67q-17.5 -29.5 -47 -47q-30 -17.5 -67 -18M192.5 -136q42.5 1 70 29q28 28 29 70q-1 42.5 -29 70.5q-27.5 28 -70 29q-41.5 -1 -70 -29.5q-28 -28 -29 -70q1 -42 29 -70q27.5 -28 70 -29" />
</g>
</svg>
