<?xml version="1.0" encoding="utf-8"?>
<svg version="1.1" id="Layer_1"
xmlns="http://www.w3.org/2000/svg"
xmlns:xlink="http://www.w3.org/1999/xlink"
xmlns:author="http://www.sothink.com"
width="264px" height="14px"
xml:space="preserve">
<g id="PathID_762" transform="matrix(0.0107353, 0, 0, 0.0107353, -11.5, 11.65)">
<path style="fill:#000000;fill-opacity:1" d="" />
</g>
<g id="PathID_763" transform="matrix(0.0107353, 0, 0, 0.0107353, -0.55, 11.65)">
<path style="fill:#000000;fill-opacity:1" d="M455 -707.5l-287.5 0l0 -15l0 -10.5l0 -24.5l-15.5 0q-6.5 51 -27 84q-21 33 -64 61q-6 3.5 -8 7q-1.5 3.5 -1.5 11.5q0.5 26.5 9 43.5q8.5 16.5 23 17q13.5 -1 31.5 -18.5q18 -17.5 28.5 -41q8 -16.5 13.5 -39.5q5 -22.5 8 -51.5l290 0l0 87q-1 50 -1 78.5q-0.5 28.5 -1 43.5q0 15 -0.5 23.5q0 9 -0.5 19.5q2 6 5.5 8q3.5 2.5 12 2q33 0.5 46.5 -4.5q13.5 -5 13.5 -18q-0.5 -12.5 -0.5 -20q-0.5 -7 -0.5 -14.5l0 -22.5l0 -44l-1 -61.5l0 -77l334 0q-5 22.5 -9.5 38.5q-4 16.5 -9 32.5l-12.5 39.5l7.5 5q13 -10 21.5 -17.5q8.5 -7.5 18 -17q9 -9 24 -25.5l9 -10l12.5 -14l14 -1.5l21.5 -2.5q7 -0.5 12 -1.5q5 -1 6.5 -2.5q2.5 -1.5 4.5 -4q1.5 -3 1.5 -5q0 -3 -2.5 -7q-2.5 -3.5 -8.5 -9.5q-17 -14.5 -29 -24q-12 -9.5 -24 -18.5l-31 -22q-23 21.5 -43 43l-317.5 0l0 -84l337 0q4.5 0 8 -2q3 -2 3 -5q0 -1 -1 -3q-1.5 -1.5 -3 -3.5q-19.5 -16 -32.5 -27.5l-26 -22l-32.5 -26l-22 22.5l-17.5 19l-21 24l-456.5 0q-20 0 -51 -3q-31 -2.5 -60.5 -7l7 38.5l15 -2l11 -1l15 0l19 -0.5l16 -1q9.5 0 28.5 -0.5l191.5 0l0 84M519.5 -107.5l241.5 0l0 32.5q0.5 6.5 4 9q3.5 2.5 10.5 2.5q12.5 0 26 -2q13 -2 20 -4q3.5 -2.5 6 -5.5q2.5 -2.5 3 -8l-1 -84q-0.5 -33 -0.5 -52.5q-0.5 -20 -0.5 -33l0 -27l0 -27l0 -35.5q22.5 -12 30 -18q7.5 -5.5 7 -10.5q0 -4 -2 -7q-2 -2.5 -6.5 -6.5q-18.5 -15 -30.5 -24q-12 -9 -31.5 -21l-21 20.5l-21 22.5l-516.5 0q-15.5 -9.5 -27 -16q-11 -6.5 -22.5 -12q-11.5 -6 -29 -14q1 16.5 2 53.5q1.5 37 2 79q1 42 1 74.5l0 18l-0.5 24l-1.5 44l-3 76.5q0.5 7.5 4.5 11q4.5 3.5 13 3.5q12.5 0 24 -1.5q11.5 -1 19 -2.5q3.5 -1.5 6 -5q2.5 -3.5 4 -9.5l0 -45l226.5 0l0 85q0 34.5 8.5 52.5q8.5 18 28.5 25.5q10.5 3.5 33.5 5.5q22.5 2.5 63 3.5q40.5 1 104 1q108.5 0 170 -3q61.5 -3 79.5 -9.5q11 -4 17 -11.5q5.5 -8 5.5 -18q0 -7 -4.5 -13.5q-4.5 -6.5 -11.5 -9q-12 -4.5 -15 -7q-3 -3 -2.5 -9.5l0 -5.5l0 -7.5q8.5 -81 17.5 -162l-12.5 0l-10 28q-8 22 -21.5 61q-10 30 -17.5 49q-7 18.5 -12.5 28q-6.5 12.5 -11.5 17.5q-5.5 5 -15 7l-32 2q-25.5 1 -60 1.5q-34.5 0.5 -66.5 0.5l-21 -0.5l-44.5 -1l-45 -1l-24 -0.5l-21.5 -1.5q-5 -0.5 -9 -2.5q-3 -2 -4 -5.5q-1 -4 -1 -14l0 -85M519.5 -131l0 -108.5l241.5 0l0 108.5l-241.5 0M455 -131l-226.5 0l0 -108.5l226.5 0l0 108.5M519.5 -263l0 -100.5l241.5 0l0 100.5l-241.5 0M455 -263l-226.5 0l0 -100.5l226.5 0l0 100.5M177.5 -570.5l23.5 -2l20 -1l25 0l175 0q4 0 6.5 -2q3 -2 3 -4q0 -1 -1 -3q-0.5 -2 -2 -4.5q-15 -13.5 -25.5 -22l-20 -17.5l-25.5 -19.5l-21.5 25l-20.5 24l-68.5 0l-34 -1.5l-41 -5.5q3.5 16.5 6.5 33.5M563.5 -571.5l40 -2l36.5 0l174 0q5 0 7.5 -1.5q3 -1.5 3 -4.5q0 -1 -1.5 -3l-2.5 -4.5l-68.5 -60q-13.5 15 -21 25l-20 25l-71 0q-21 0 -33.5 -0.5q-13 -0.5 -24 -2q-11 -1.5 -26.5 -4.5q4 16 7.5 32.5M563.5 -463l32 -3l26.5 -1.5q13 -0.5 30.5 -0.5l215 0q3 0 5.5 -2q2.5 -2 2.5 -4l-0.5 -3l-2.5 -3.5l-26 -23.5l-21.5 -18.5q-11 -9 -28 -21.5q-15.5 16 -24.5 26q-9.5 10 -24 26.5l-96 0l-37.5 0l-26 -2q-12.5 -1.5 -33 -5q4 17.5 7.5 35.5M145.5 -465l30 -2l24 -1l29 0l194.5 0q4 0 6.5 -1.5q2 -1.5 2 -4.5q0 -1.5 -1.5 -4l-3.5 -4.5q-14.5 -14 -24.5 -23l-20 -18l-24.5 -20.5q-16 16 -25 26.5l-24 26l-80 0q-25 0 -44 -2q-19.5 -1.5 -48 -6l9 34.5" />
</g>
<g id="PathID_764" transform="matrix(0.0107353, 0, 0, 0.0107353, 10.4, 11.65)">
<path style="fill:#000000;fill-opacity:1" d="M758 -261.5l0 33q0.5 5 3.5 7q3.5 2 11 2q21.5 0 36 -2q14 -2 19 -5q2 -1.5 3 -4.5q1 -2.5 1 -8q-3 -54.5 -4 -114.5q-1 -59.5 -1 -134l0 -61.5q24 -11 33 -17.5q8.5 -6.5 8 -12q0 -3 -2.5 -6q-2.5 -3 -8 -7.5l-32.5 -23.5l-30.5 -21.5q-14 13.5 -22 22.5l-20 22.5l-213.5 0l0 -108.5l428.5 0q4.5 0 6.5 -1.5q2.5 -1.5 2.5 -3.5q0 -1.5 -1 -3.5q-1 -2 -4 -5l-33.5 -29.5q-13.5 -12 -27.5 -23.5l-35.5 -28.5q-13.5 15 -22 25l-17 20.5q-8.5 10.5 -20 26l-277 0l0 -28.5q0 -11.5 0.5 -24.5q0 -13 0.5 -35q24 -6.5 33.5 -12q9 -5 8.5 -11.5q1 -7.5 -13 -11.5q-14 -4 -51.5 -6l-22 -1.5l-31 -2.5q2.5 23.5 3.5 37.5q1 14.5 1.5 34.5q0.5 20.5 1 61l-308 0q-26 0 -44 -2q-18 -1.5 -36 -6l4 39.5q14.5 -4.5 33 -6q18.5 -2 43 -2l308 0l0 108.5l-205 0q-15.5 -10 -26.5 -16.5l-22 -13q-11.5 -6 -28 -15.5q2 30.5 3 59q1 29 1.5 64q0.5 35 0.5 84q0 44.5 -0.5 77q-0.5 33 -1.5 63.5q-1 31 -3 70q0 7 4 9.5q4 3 13.5 3q35 0 46.5 -3q11.5 -3 10.5 -13.5l0 -38l207 0q-0.5 35 -0.5 52q-0.5 17.5 -0.5 30.5l0 33.5l-307 0l-57.5 -2q-24.5 -2 -48 -7l5 40.5q17.5 -3.5 42.5 -6l58 -2l307 0q-1 71.5 -2 120.5q-1.5 49 -2 75q0 6 2.5 8q3 2.5 10.5 2.5l34 -2l23.5 -2.5q3.5 -1 5.5 -4q1.5 -3 1.5 -9q-0.5 -17.5 -0.5 -30q-0.5 -13 -0.5 -30l-1 -46.5q0 -30 -1 -82l450 0q3 0 5.5 -2q2.5 -1.5 2.5 -3q0 -2.5 -1 -4.5q-1 -2.5 -3 -5l-33 -32.5q-13.5 -13 -27.5 -25.5q-14 -12.5 -35 -30q-14.5 16.5 -24 28q-10 11 -19.5 22.5l-24 28.5l-292 0l0 -26.5l0 -7.5l0 -43.5l0 -21l0 -17.5l219.5 0M758 -285l-219.5 0l0 -135l219.5 0l0 135M758 -443.5l-219.5 0l0 -125l219.5 0l0 125M470 -285l-207 0l0 -135l207 0l0 135M470 -443.5l-207 0l0 -125l207 0l0 54.5l0 26.5l0 44" />
</g>
<g id="PathID_765" transform="matrix(0.0107353, 0, 0, 0.0107353, 21.35, 11.65)">
<path style="fill:#000000;fill-opacity:1" d="M311.5 -382q-27.5 66 -55.5 132l-43 102.5q-9 -30.5 -13 -59.5q-3.5 -29 -3.5 -67.5q0.5 -83 20.5 -169.5q20.5 -86.5 57.5 -164q8 -16.5 11.5 -24.5q3.5 -7.5 4.5 -11.5q0.5 -4 0.5 -9q0 -15 -9.5 -35q-9.5 -20.5 -27.5 -43q-21 -27 -38 -39q-16.5 -11.5 -34 -12q16 25.5 23 46.5q7 21 7 43.5q0 8 -1 17.5q-1 9.5 -4.5 26.5l-10 48q-17.5 79.5 -27.5 139q-10 59.5 -14.5 107.5q-4 48 -4 94.5q0 57.5 8.5 111.5q9 54 24 94q9.5 24 20.5 35q11 11 24 11q6 0 11 -3q4.5 -2.5 8.5 -8q3.5 -5.5 5 -13.5q1.5 -8 2 -31.5q0 -18 3 -36.5q3 -18 10.5 -50.5l16.5 -66.5l22 -83.5q11.5 -43 21 -76l-15.5 -5.5M420 -550.5q37 39 75.5 55.5q38.5 16.5 93 16l45 -2q22 -1.5 45.5 -6l1 130.5l2 109.5l0 6l0 11.5l-35 -2l-27.5 -1q-89 0.5 -140 31.5q-51.5 30.5 -52.5 84q1 47 42.5 75.5q41 28 109 29q77.5 -0.5 120 -31q43 -31 43.5 -86.5q0.5 -5.5 0 -11.5q0 -6.5 -1 -13q29 12 53.5 30q24.5 18 57.5 51.5q14.5 15 22.5 20.5q7.5 5.5 13 5q9 0 14.5 -10.5q6 -10.5 6 -27q0.5 -44.5 -40 -76q-40.5 -31.5 -129 -55q-5 -42 -8 -80q-2.5 -38.5 -4 -85q-1 -46.5 -1 -113.5q53.5 -10.5 94 -23q41 -13 64 -26q22.5 -13 23 -24.5q0 -5.5 -3.5 -10.5q-3.5 -5 -9.5 -8q-10 -5.5 -24.5 -9.5q-14 -3.5 -24 -4q-6.5 0 -10.5 2q-4.5 2 -12 9.5q-13 11.5 -36 21.5q-23 10.5 -58 20.5q3 -52.5 8 -84q5 -32 13.5 -53.5q6.5 -16.5 8 -22q1.5 -5 1 -9.5q0 -11.5 -11 -21q-11.5 -9 -34 -16q-15 -4 -33.5 -6.5q-18.5 -2.5 -36 -2.5q-19 -0.5 -29 3q-10 3.5 -20 13q24.5 2.5 41.5 8q16.5 6 26 16q6.5 6 9.5 17.5q3 11.5 4 40q1 28 0.5 84.5l0 19l0 26q-31.5 7 -60.5 11q-29 3.5 -56 3.5q-37.5 0.5 -67 -9q-29.5 -9.5 -65 -33l-9 11.5M681 -176q0 27.5 -3 43q-3 15.5 -10.5 28.5q-12.5 23.5 -41.5 36q-28.5 12 -71 12q-46 -0.5 -73 -17q-27 -16 -27.5 -43.5q0.5 -34 35 -52.5q35 -18.5 96 -19q28 0 51 3q23 3 44.5 9.5" />
</g>
<g id="PathID_766" transform="matrix(0.0107353, 0, 0, 0.0107353, 32.3, 11.65)">
<path style="fill:#000000;fill-opacity:1" d="M324.5 -644l0 -124l163 0q7.5 0 10 -1q2.5 -1 2 -4q0 -1 -1 -3.5q-1.5 -2.5 -4 -5l-27 -26q-11 -10.5 -22.5 -20l-29.5 -23.5q-14.5 18 -23.5 30q-8.5 11.5 -22.5 29.5l-199.5 0q-15 -10.5 -25 -17q-10 -6.5 -20 -12.5l-24.5 -14.5q1.5 20.5 2.5 42q1 21 1.5 51l1 76l0 115.5l0 81l-1 61l-1 54.5l-2 61.5l0 3l0 1q-0.5 6 4.5 9q4.5 2.5 16 2.5q25 0 34.5 -3q9 -3.5 9.5 -12.5l0 -21.5l229 0q-2 60.5 -5 104.5q-3 44 -8 78.5q-5.5 34.5 -13.5 66q-6 26.5 -14 38.5q-8.5 11.5 -20 11.5q-12.5 0 -39.5 -3l-59.5 -7q-32 -4 -58.5 -8.5l-2 16.5q49 11.5 72 20.5q23 8.5 31 20.5q8 12 10.5 34.5q30 -2.5 45.5 -6q15.5 -3 27.5 -8q13.5 -6.5 26.5 -18.5q13 -12 20.5 -24.5q18 -34 30 -110.5q12.5 -76.5 17 -183.5q21 -10.5 27.5 -15q6 -4.5 5.5 -8.5q0 -2 -2 -5.5l-7.5 -10l-24 -22.5l-25 -22.5l-19 18l-21 21l-65.5 0l0 -136l147.5 0q12.5 0 12.5 -6q0 -1 -1.5 -3q-1 -2 -3 -4.5l-31 -30.5q-12.5 -12 -33.5 -30.5l-24.5 25.5q-9 9.5 -23.5 25.5l-43 0l0 -123l152.5 0q6 0 9 -1q2.5 -1 2.5 -4q0 -1 -1.5 -3.5l-2.5 -5q-14 -13.5 -24 -22.5q-9.5 -9 -19.5 -17l-25.5 -20.5q-13 14.5 -21 24l-21 26l-49 0M266 -644l-100 0l0 -124l100 0l0 124M266 -620.5l0 123l-100 0l0 -123l100 0M266 -474l0 136l-100 0l0 -136l100 0M700.5 -450.5q2 24 3.5 39l2.5 25l2 21q10 72.5 31 136q21 64 55.5 125q29.5 52.5 60 88.5q30.5 36.5 75 71q14.5 -24 24.5 -36.5q10.5 -12 22 -17.5q11.5 -5.5 31 -9.5l0 -15q-31 -12.5 -49.5 -22.5q-18.5 -10 -39.5 -27q-40 -31.5 -73 -70q-33 -38 -57 -80.5q-19.5 -34 -32.5 -67q-13 -33 -20.5 -71q-8 -38.5 -12.5 -89l124 0l0 48q0.5 7 4 9q3.5 2.5 13.5 2.5q30 0 42.5 -3.5q12 -4 11.5 -13l0 -6l-1 -20q0 -7 -0.5 -15l-0.5 -23.5q-0.5 -23.5 -0.5 -36q-0.5 -12.5 -0.5 -18.5l0 -10l0 -55l1 -56.5l0 -23l0 -19l0 -26.5l-1 -33q25 -11.5 31.5 -15.5q6.5 -4 5.5 -8q0 -3 -2.5 -7q-3 -4 -9 -8.5q-16.5 -14.5 -27.5 -23.5l-29.5 -23.5l-21 22.5l-20 21.5l-230 0q-16 -11 -27 -18q-10.5 -7.5 -21.5 -14.5l-27 -17.5q1 24 1.5 63q1 39.5 1 103q0.5 64 0.5 162.5q0 51 -3.5 109.5q-3 58.5 -9 113q-5.5 54 -12 91.5q-14.5 80.5 -39 144.5q-25 64 -62.5 118l11.5 9q22 -20.5 35 -35.5q12.5 -14.5 24.5 -32q25 -38 46 -83q20.5 -45.5 34.5 -94q10.5 -37 18 -76q7 -38.5 11 -87.5q4.5 -48.5 7 -115l98.5 0M603 -474q2 -61 3 -112.5q1 -51 1 -104.5l0 -32l-1 -45l241 0l0 294l-244 0M94.5 -244q-1 42 -12.5 75q-12 33 -33.5 51q-14.5 11.5 -18.5 20q-4.5 9 -4 24q0 23.5 5.5 37q5.5 14 15 14.5q11.5 -0.5 23 -12.5q12 -12.5 22 -35q10.5 -23.5 15.5 -55q5 -31 5 -72q0 -10.5 -1 -20.5q-0.5 -10 -2 -26.5l-14.5 0M145.5 -244q7.5 27 10.5 45.5q3 19 3 39.5q0 6 -1 19.5q-0.5 13.5 -2 38l0 6q0 11.5 3 17q3 5.5 9 5.5q12.5 -1 25 -17q12 -16 13 -32q0 -17 -4.5 -34.5q-4.5 -17 -15 -39q-11 -22 -29.5 -53.5l-11.5 5M211 -258q11.5 22 19.5 42q7.5 20 13 42.5q5.5 22.5 10.5 52.5q1 7.5 4 11q2.5 3.5 7.5 3.5q10.5 -1 19.5 -16q9.5 -15 10 -32.5q-0.5 -18 -19.5 -46.5q-19.5 -28.5 -54 -63q-5.5 3 -10.5 6.5M281.5 -270.5q14 20 22 37q8 17 13 38q4 14 6.5 25q3 11 3.5 15.5q1.5 7 4 10.5q2.5 3 5.5 3q10 -1 19 -14.5q9 -13.5 9.5 -28.5q0 -16 -18.5 -40q-19 -23.5 -55 -54l-9.5 8" />
</g>
<g id="PathID_767" transform="matrix(0.0107353, 0, 0, 0.0107353, 43.25, 11.65)">
<path style="fill:#000000;fill-opacity:1" d="M148.5 -665.5q23 30 45 47.5q22 17 47.5 24.5q25.5 7 60 7l29.5 -1q14.5 -1.5 39 -5q-36 54 -65.5 93q-29.5 38.5 -59.5 68.5q-29.5 30 -65.5 58.5q-14 11 -20.5 17.5q-6 6 -8 12q-1.5 6 -1 16.5q0 24.5 7.5 39.5q7.5 14.5 20 14.5q7.5 0.5 15.5 -6.5q8.5 -6.5 22.5 -26q56 -71 113.5 -109.5q57 -38.5 108.5 -39q17.5 0 31 8.5q14 8 21.5 22q7.5 15.5 10.5 32.5q3 17.5 3.5 48.5q-49.5 31 -78.5 51.5q-29.5 21 -48.5 39.5q-37.5 36 -55.5 70q-18 34.5 -18 70.5q0 37 18 63.5q18.5 26.5 57.5 45q31 14.5 83.5 22q52 7.5 124.5 7.5q32.5 0 66.5 -2l65 -5q30.5 -3 52 -7.5q15.5 -3 23.5 -10q8.5 -7.5 8.5 -17.5q-0.5 -11.5 -11.5 -23.5q-11 -11.5 -27.5 -19.5q-16.5 -8 -33 -8l-9 0.5l-10.5 2.5q-47 13.5 -99.5 21q-52.5 7.5 -106.5 7.5q-86 0 -128.5 -20q-42.5 -20.5 -42.5 -62q0 -23 12.5 -46.5q12.5 -24 38 -48.5q19 -18.5 46 -37q27 -18.5 73.5 -44q-0.5 34 -2.5 60.5q-1.5 27 -4.5 49q-1 5.5 -1 9.5l0 8q0 13.5 9 22q9 8.5 23.5 8.5q9.5 0 17 -5.5q8 -5 12 -13.5q3.5 -8 6 -31q2 -22.5 2 -57l0 -34q0 -12.5 -0.5 -23q0 -10.5 -0.5 -26q41 -20.5 93 -42q52 -21.5 101 -38.5q49 -17.5 80.5 -25q21.5 -4.5 29.5 -11q8 -7 7.5 -20.5q-1 -21.5 -20 -45q-19 -24 -45.5 -41q-26.5 -16.5 -50 -17.5l-10.5 1q-5 1.5 -13 5q22.5 9.5 34.5 22.5q12.5 12.5 12.5 25.5q0.5 9 -10 19.5q-11 10 -38.5 25.5q-27.5 16 -77.5 41q-41 20.5 -59.5 30q-18 9.5 -26 13q-7.5 3.5 -15 7.5q-7.5 -47 -38.5 -74.5q-30.5 -27.5 -76.5 -28q-28 0 -59 9.5q-30.5 9.5 -73 31.5l17 -24l16 -24l22.5 -34q17 -26 29 -43.5q12 -18 25 -36.5q41 -8 74.5 -15.5q34 -8 69 -18q35 -10 80 -24.5q23 -8 33.5 -16q10.5 -8 10.5 -17q-0.5 -15 -19.5 -24q-18.5 -9.5 -49 -10q-5.5 0 -10 2q-5 1.5 -9.5 5.5q-16.5 14 -34.5 24q-17.5 10.5 -44 20q-26.5 9.5 -69 21.5l8.5 -12.5l17 -27.5l14.5 -20.5q8 -12 15 -21.5q9 -11 13 -18q3.5 -6.5 3.5 -11.5q0 -9.5 -9 -18q-8.5 -8.5 -28 -16q-20 -8.5 -41 -13q-20.5 -4.5 -38.5 -4.5q-14 0 -24 2.5q-10 2 -22.5 9q39.5 9.5 56.5 23q17 14 16.5 34q0 17.5 -9.5 44.5q-9.5 27 -26.5 60q-34.5 7 -60 10.5q-25.5 3 -49.5 3q-27 0 -46.5 -4q-20 -4 -38.5 -14.5q-19 -10.5 -43 -29.5l-11 9" />
</g>
<g id="PathID_768" transform="matrix(0.0107353, 0, 0, 0.0107353, 54.2, 11.65)">
<path style="fill:#000000;fill-opacity:1" d="M471 -469l-238.5 0l0 -249l30.5 -11q9.5 -4 11.5 -6.5q2.5 -3 2 -8q0 -2.5 -1.5 -5.5q-1 -2.5 -2.5 -3.5q-6.5 -4 -34.5 -8q-27.5 -4 -80 -8.5q2 21.5 3 74q1 52 1 142l-2 150.5q-0.5 9 3.5 13q4 3.5 15 3.5l25.5 -1.5q13 -1 19.5 -2.5q4.5 -2.5 6.5 -5.5q2 -3.5 2.5 -11l0 -39l238.5 0l0 419l-282.5 0l0 -242q26.5 -8.5 34 -12q7 -4 6 -10.5q1 -6 -4.5 -10q-5 -3.5 -30 -7q-24.5 -4 -81 -11.5q2 27 3 52.5q1 25 1.5 53q0.5 28 0.5 64.5q0 40 -0.5 70.5q-0.5 30.5 -2 61.5q-1 30.5 -3.5 72l0 3q-0.5 8.5 5 12q5 3.5 17.5 3.5l19.5 -1.5l19 -2q8.5 -1 11.5 -5q3.5 -3.5 4 -11l0 -56.5l651 0l0 61.5q0.5 9 5 11.5q4.5 3 19.5 3l20.5 -1q10.5 -1 19.5 -3.5q7 -1 9.5 -4.5q2.5 -3 3 -10.5q-2.5 -87 -3.5 -151.5q-1 -64 -1 -112l0 -26.5l0 -34q18.5 -4.5 27 -10q9 -5.5 9 -12.5q0.5 -6 -7.5 -10q-7.5 -3.5 -32 -7.5q-24 -4 -73 -10q1.5 21 2.5 49.5q1.5 28.5 1.5 58l0 186.5l-293.5 0l0 -419l251 0l0 39q0 10.5 3.5 14q4 3.5 14 3.5l25.5 -1.5l19.5 -1.5q6.5 -2 9 -5.5q2 -3.5 2 -13q-1.5 -54.5 -2 -88.5q-1 -34.5 -1 -61l0 -19.5q0 -8.5 0.5 -22.5q0 -14.5 0.5 -42l1 -75q21 -6.5 28.5 -11.5q8 -5 7.5 -11q0.5 -6 -7 -10q-8 -3.5 -32.5 -7.5q-24 -4 -73 -10l0.5 15q0.5 5.5 0.5 11q0.5 5.5 1 16l1.5 33.5q0.5 12 0.5 20.5l0 20.5l0 183.5l-251 0l0 -328.5q22.5 -7 31.5 -12q9 -5 8.5 -12q0.5 -6.5 -7 -11q-8 -4.5 -34 -8q-25.5 -4 -78 -9.5l3 51l1 33.5l0 39.5l0 257" />
</g>
<g id="PathID_769" transform="matrix(0.0107353, 0, 0, 0.0107353, 65.15, 11.65)">
<path style="fill:#000000;fill-opacity:1" d="M244 -813l-23.5 -1l-31 -2l-25.5 -2l8 33.5l50 -3.5l22 -1.5l192.5 0q-33 63 -70.5 114.5q-37.5 52 -88.5 104.5q-57.5 60.5 -116 106.5q-58 46.5 -126.5 85l7 13.5q70.5 -31 127 -66q57 -35 115 -82.5q71 -59 125.5 -122.5q54 -63 101.5 -143q40 78.5 85.5 137.5q45.5 59 103 109.5q50.5 45 107 82.5q56 38 109 63q17 -26.5 27 -39.5q10 -12.5 21 -17.5q10.5 -5 29 -8.5l1 -7.5q-68.5 -14.5 -135 -42.5q-67 -28 -129.5 -69q27.5 -17 47.5 -31.5q20 -14 42.5 -32.5q22.5 -18.5 57.5 -48.5q30 -2 37.5 -4q8 -2.5 6.5 -8.5q0 -3 -2 -5.5q-2.5 -2.5 -7 -5.5q-10 -6 -33 -17q-23 -11 -47 -22q-22.5 42.5 -51.5 85q-29.5 42 -64 81q-27 -19.5 -49.5 -38.5q-22 -19.5 -47 -45.5l18 -15q5 -3.5 6.5 -5.5q41 -36 60.5 -52.5l28 -25l21.5 -18l12 -0.5l8.5 -0.5l9.5 -0.5q4.5 -0.5 7.5 -1.5q2.5 -1 4.5 -3q1.5 -2.5 2 -5q0 -2.5 -2.5 -5l-7 -6.5q-4 -3.5 -9.5 -7q-6 -3.5 -22 -11q-16 -7 -50.5 -22.5q-18.5 41.5 -41.5 80.5q-22.5 39 -56.5 87q-23 -25.5 -40 -49q-17 -23.5 -39 -59.5l19 -9l7.5 -4q2 -1 3.5 -3l2 -3.5q-0.5 -3 -3.5 -7q-3 -4 -7 -8l-30 -24q-12 -9.5 -32.5 -24.5l-22 26.5l-21 28l-201.5 0M179.5 -271.5l-31.5 -1l-38 -3l-33 -3l7 36.5l58.5 -4.5l20.5 -1.5l184.5 0q-8.5 53 -22 89.5q-13.5 36.5 -37.5 69.5q-36.5 51.5 -94 89.5q-57.5 38.5 -138.5 65.5l6 15q113 -26.5 186.5 -69q73.5 -43 113.5 -106.5q40 -63.5 52.5 -153.5l156.5 0l0 239q0 21.5 5 34q5 12.5 15.5 18q7.5 5 19.5 7q11.5 2.5 33 3.5q21 1 58 1q38 0 78.5 -1.5l73.5 -4q33 -2 46.5 -4.5q14.5 -3.5 24 -13q9.5 -9 10 -20q-0.5 -7.5 -8 -16q-7 -8.5 -14.5 -10.5q-11 -1.5 -13.5 -2.5q-3 -1 -4 -5q-1.5 -3 -2 -8q-1 -4.5 -1 -9.5l4 -131l-14 -2q-14.5 63 -27 103q-12.5 40 -20.5 49.5q-4 5.5 -15.5 8q-11 2.5 -37.5 3.5q-26.5 1 -77 1l-32.5 -1q-16 -0.5 -22.5 -2q-7 -1 -10.5 -6q-3 -5.5 -3 -14.5l-1 -216.5l296 0q5.5 0 7.5 -1.5q2.5 -1.5 2.5 -3.5q0 -1 -1 -3l-3 -3l-33.5 -29.5q-13.5 -11.5 -27 -22q-13 -11 -32.5 -26.5q-17.5 19.5 -28.5 32.5l-28 33l-152.5 0l0 -175l102.5 0q5 0 7.5 -1.5q2.5 -1.5 2.5 -3.5q0 -1 -1 -3q-0.5 -2 -3 -4.5q-17.5 -14.5 -29.5 -25l-24.5 -20l-31 -24.5q-14.5 17.5 -23 29q-9 11.5 -22 29.5l-277.5 0l-37 -1.5l-45 -5.5l5 35.5l46 -4l27 -1l24.5 0q0 48.5 -0.5 77q-0.5 28 -1.5 49q-1 21.5 -3 49l-171 0M416 -271.5q2.5 -27 3.5 -48.5q1 -21 1.5 -49.5l1 -77l148.5 0l0 175l-154.5 0M100.5 -740.5q22 14.5 40.5 33q19 18 45.5 50q12.5 15.5 21 28q8 12.5 17 29.5q5 9 9.5 13.5q4.5 4 10 4q11.5 -0.5 19 -17.5q7 -16.5 7.5 -43q0.5 -16.5 -8 -27.5q-8 -11.5 -30 -25q-22 -13.5 -53.5 -27.5q-31 -14 -72.5 -27.5l-6 10" />
</g>
<g id="PathID_770" transform="matrix(0.0107353, 0, 0, 0.0107353, 76.1, 11.65)">
<path style="fill:#000000;fill-opacity:1" d="M846.5 -195.5q-26 22 -47 38q-20.5 16 -40 28.5q-20 12.5 -43 24.5q-59 31 -119.5 48q-61 17 -114 17.5q-27 0 -50.5 -7.5q-23.5 -7 -40.5 -20q-21.5 -17.5 -31.5 -47q-9.5 -29.5 -9.5 -76q0 -37 3.5 -91.5q3.5 -54 9.5 -115.5q6 -61.5 13 -119.5q7 -58 14 -102q7.5 -43.5 13 -63q6.5 -17 8.5 -24.5q1.5 -7.5 1.5 -12.5q0 -16 -15 -31.5q-15 -15 -44.5 -29q-24.5 -10.5 -49 -17q-25 -6.5 -43.5 -6.5q-8 0 -14 2q-6.5 2.5 -14.5 8.5q36 14.5 54 29.5q18 14.5 23.5 39q6 24.5 5.5 67.5q0 17.5 -0.5 37.5q-0.5 20 -2 52l-4.5 86.5q-3 47 -4.5 93q-2 46 -3 85.5q-1 40 -1 68.5q0 64.5 6.5 105.5q7 41.5 22 67.5q24 41.5 67.5 64q44 22.5 102.5 23q64 0 128 -25.5q63.5 -25 122.5 -72.5q59.5 -47 109 -114l-12.5 -11" />
</g>
<g id="PathID_771" transform="matrix(0.0107353, 0, 0, 0.0107353, 87.05, 11.65)">
<path style="fill:#000000;fill-opacity:1" d="M96 -591.5q28 48.5 61 70.5q33.5 22 79.5 21.5q22 0 45.5 -2.5q24 -2.5 53 -7.5q-34.5 100 -61.5 168.5q-27 68 -50.5 114.5q-23.5 47 -49 83.5q-10.5 15 -15.5 23q-4.5 8 -6 13.5q-1 5.5 -1 13.5q0 13.5 4 30q4 16.5 10.5 29.5q4.5 10.5 10 15.5q6 5 13.5 5q10.5 0.5 20 -11.5q9.5 -11.5 22.5 -43.5q13 -32.5 33 -92.5l33 -97.5l19 -56.5q7 -20.5 12 -36.5l13 -38l22 -68l11 -34l10 -28q49 -12.5 96.5 -28q47 -15.5 82.5 -31.5q32 -14 46 -25.5q14 -12 13.5 -24.5q0 -6 -4 -10.5q-4 -5 -12.5 -8q-13 -4.5 -28 -8q-15.5 -3 -26 -3q-6 -0.5 -11.5 3q-5.5 3 -17.5 14q-18 17 -47 32q-29 15.5 -71.5 30.5q19.5 -55 35 -93q16 -38 26 -53q9 -12.5 11 -16.5q2 -3.5 1.5 -8.5q0 -11.5 -11.5 -22q-11.5 -10.5 -34.5 -19q-23.5 -9 -46.5 -14q-23.5 -5 -41.5 -5q-9.5 -0.5 -16 1.5q-6 2 -15.5 7.5q42 14 57.5 27.5q16 14 15 37q0 18 -4.5 45.5q-4.5 28 -12 61q-8 33 -18.5 66.5q-35 10 -67.5 15q-32.5 4.5 -62.5 4.5q-32 0.5 -57 -12q-25 -12.5 -55.5 -44.5q-6 4.5 -12.5 8.5M551 -422.5q54 -20 100 -29q45.5 -9 95.5 -9q-23 23 -33.5 33l-17 15q-18 16.5 -26 24.5l-13 11.5q-4 4.5 -10 10l6 9.5q11.5 -6.5 17 -10q5.5 -3 19 -11.5q17 -11.5 25.5 -17q8.5 -5.5 15 -9l16 -9q14 -7.5 24.5 -11.5q11 -4.5 23.5 -6q12 -2 30.5 -3q22 -0.5 31 -6q8.5 -5.5 8 -17.5q0 -8.5 -4 -16.5q-4.5 -7.5 -12 -12q-13 -8.5 -30.5 -13.5q-17.5 -5 -34.5 -5q-60 0 -121 17.5q-60.5 18 -116.5 51q3 6.5 6.5 13.5M501.5 -249.5q-5 18 -7 33q-2 15 -2 31.5q0.5 51.5 23 90q22.5 38 64 58.5q34 16 82 24q48 8.5 107.5 8.5q60.5 0 90.5 -8.5q30.5 -8.5 30.5 -25.5q0 -6.5 -5 -13.5q-4.5 -7 -13.5 -15q-14 -10 -28.5 -17q-15 -7 -24 -7.5q-3 0 -7.5 1q-4.5 1 -10 3q-23.5 9 -45.5 12.5q-22 3 -52.5 3q-30.5 0 -59.5 -5q-29 -5 -50 -14.5q-38 -16.5 -58 -48q-20 -32 -20 -76l0 -11.5l1 -20l-15.5 -3" />
</g>
<g id="PathID_772" transform="matrix(0.0107353, 0, 0, 0.0107353, 98, 11.65)">
<path style="fill:#000000;fill-opacity:1" d="M511 -3q64 -11 110 -25.5q46.5 -14.5 89.5 -38q97.5 -52.5 150.5 -133q53 -80.5 53.5 -177.5q0 -74.5 -24.5 -134.5q-24.5 -60.5 -74 -106q-50 -45.5 -118 -69.5q-68 -24.5 -146 -24.5q-67.5 0 -132.5 17.5q-65 17.5 -121.5 49.5q-56.5 32 -98.5 76q-43 48 -67.5 101q-24 53 -24.5 102q0 24 5.5 46.5q6 22.5 18 46.5q14.5 28.5 23 44.5q8 16.5 13 28q5 11 9 24q8.5 24 13.5 36q4.5 12 7.5 18q3.5 6 8 11.5q8.5 10 20 15.5q11.5 6 25 6q28 0 66 -38q38 -38 86.5 -114.5q39 -63.5 69.5 -129.5q30.5 -66.5 47.5 -125.5q17.5 -58.5 18 -99.5q0.5 -21.5 -6.5 -40q-7 -19 -25.5 -45l19.5 -1.5l16.5 -0.5q49.5 0 96 12.5q46.5 12 81.5 34.5q56.5 36.5 86 94q29.5 57.5 29.5 132.5q0 71 -23 133q-23 62 -68 114q-43 50 -100.5 84q-57 34 -139.5 58q3.5 9 7.5 17.5M484 -677q8.5 18.5 11.5 29.5q3 11 3 22q-0.5 32.5 -17 83.5q-16.5 50.5 -45.5 111q-29.5 60.5 -67.5 122q-38.5 60.5 -71 97.5q-33 36.5 -50.5 37.5q-8.5 0 -18.5 -8q-10 -7.5 -20.5 -21.5q-19.5 -27.5 -30 -63q-11 -35 -11 -72.5q1 -79.5 42.5 -150.5q42 -71 113.5 -120.5q71 -50 161 -67" />
</g>
<g id="PathID_773" transform="matrix(0.0107353, 0, 0, 0.0107353, 108.95, 11.65)">
<path style="fill:#000000;fill-opacity:1" d="M317.5 -794q31.5 5.5 48.5 14q17 8.5 25 23q4 7 6 18q2.5 11 3.5 34q1.5 23 3 66l2.5 60.5q1 23 2 37.5q1 14 2.5 26q3.5 32.5 11 51q7 18.5 18.5 26.5q12.5 9 23 12.5q10 3 26.5 3q-45 24 -74 43q-29 19.5 -51 39q-50.5 42 -75.5 84.5q-25 43 -25 87.5q0.5 51.5 30 91.5q29.5 40 81.5 60q32.5 11.5 75.5 17.5q43 6 98.5 6q32 0 71 -2l74 -5q34.5 -3 52 -6.5q24 -4 34 -12q10 -8 10 -21.5q-1 -19.5 -18 -34.5q-16.5 -15 -37.5 -16q-4.5 0 -8.5 1l-12 2.5q-37.5 8.5 -80 15q-43 7 -84 10.5q-41 4 -73.5 4q-85.5 0 -128.5 -28q-43.5 -28.5 -43.5 -83.5q0 -36 19 -67.5q19.5 -32 61 -63.5q31.5 -24.5 67.5 -44q35.5 -19.5 81.5 -36.5q45.5 -17 107 -34.5q34.5 -9.5 49 -14.5q15 -5 19.5 -7q10.5 -4.5 16 -12.5q5.5 -8 5.5 -18q-1 -17 -15.5 -29.5q-14.5 -13 -33.5 -13.5q-9 0 -19 2.5q-9.5 3 -23 9.5q-46 22 -72.5 33.5q-26 11 -40.5 15q-14.5 4 -24.5 4q-23 1 -31.5 -15.5q-9 -16 -8.5 -60.5q0.5 -43 3.5 -84q3 -40.5 8 -73.5q5 -32.5 11 -50q5.5 -13 7 -17.5q1.5 -4 1.5 -9.5l0 -0.5l0 -1.5q0 -10.5 -6.5 -18.5q-7 -8 -22.5 -14q-12.5 -5.5 -30.5 -10q-18.5 -4 -37.5 -7q-19.5 -2.5 -35 -2.5q-15 -0.5 -24 3q-9.5 3.5 -20 13" />
</g>
<g id="PathID_774" transform="matrix(0.0107353, 0, 0, 0.0107353, 119.9, 11.65)">
<path style="fill:#000000;fill-opacity:1" d="M200.5 -760l626 0l0 717q0 6 -3 8.5q-3 2.5 -9.5 2.5l-2 0l-3 0l-37 -1l-31.5 -1.5l-44.5 -1.5l-74 -3l0 15.5l65.5 8.5q21 3 30.5 5.5q9 3 16.5 7.5q12.5 6 20 18q7.5 12 15.5 38q36.5 -5 60 -12q23.5 -6.5 41.5 -16.5q17 -9.5 23.5 -19.5q6.5 -10.5 7 -29.5l0 -26.5l0 -20l0 -16l0 -21.5l-1 -102.5q-0.5 -37 -0.5 -56q-0.5 -19 -0.5 -30l0 -23.5l0 -417l11.5 -8.5q5 -3.5 8 -6q1.5 -1.5 3 -2q1.5 -1 2 -2q6 -5 9 -8q2.5 -3.5 2.5 -6q0 -3 -3 -6.5q-3 -3.5 -8.5 -8l-24.5 -18.5q-10 -7.5 -20.5 -14.5q-10.5 -7 -26.5 -17l-18.5 24.5q-7.5 9.5 -18 25.5l-602.5 0l-32 -16l-25.5 -13l-31.5 -16q1 25.5 1.5 81.5q1 56 1 136.5q0.5 80 0.5 178.5q0 54.5 -0.5 119.5q0 64.5 -1 131q-0.5 66.5 -1.5 125q-1 58.5 -2 100.5q-0.5 8 5 12q6 3.5 19.5 3q30.5 0.5 43 -3.5q12 -4.5 12 -15.5l-1 -95q-0.5 -35.5 -0.5 -57.5q-0.5 -22.5 -0.5 -43.5l0 -52l0 -552M262 -584q37.5 -6 55 -8q18 -2 30.5 -2l422.5 0q5 0 8 -2.5q3.5 -3 3.5 -6.5q0 -1.5 -1.5 -4l-3.5 -5.5l-29.5 -26l-24.5 -20.5l-30 -25l-25.5 33q-13 16.5 -27 33.5l-288.5 0q-20 0 -42.5 -3q-22.5 -2.5 -60 -10.5l13 47M398.5 -208l232.5 0l0 61.5q0 9 4 12.5q4.5 4 14.5 4q29 0 40 -4.5q10.5 -4 10 -16q-1.5 -26.5 -2.5 -54l-1 -61q-0.5 -33.5 -0.5 -77.5l0 -36.5l1 -50.5q16.5 -13.5 23.5 -20.5q6.5 -6.5 6 -10.5q0 -1.5 -2 -4q-2.5 -3 -7 -7q-18 -14.5 -30 -23.5q-12 -9 -32.5 -22.5q-11.5 14.5 -19 23.5q-7 9 -18 22.5l-207.5 0q-17 -9 -29 -15q-12 -6.5 -24 -12q-12 -5.5 -30 -13q1.5 20.5 2.5 45.5l1 59.5q0.5 34.5 0.5 85.5q0 32 -0.5 59l-1 56.5l-2.5 68.5l0 3q0 6.5 5.5 9.5q5.5 3 17 3q10.5 0 23.5 -2q12.5 -1.5 17.5 -3q4.5 -2.5 6 -5.5q2 -3 2 -9l0 -66.5M398.5 -448.5l232.5 0l0 217l-232.5 0l0 -217" />
</g>
<g id="PathID_775" transform="matrix(0.0107353, 0, 0, 0.0107353, 130.85, 11.65)">
<path style="fill:#000000;fill-opacity:1" d="M824.5 -492.5l152.5 0q5 0 8 -2q3 -2 3.5 -5q0 -1.5 -1.5 -3.5q-1.5 -2 -5 -5l-32 -26l-26 -21.5l-32 -27l-54 66.5l-168.5 0l0 -164l253.5 0q4.5 0 8.5 -2q3.5 -2 3.5 -5q0 -1.5 -1.5 -4q-2 -2.5 -5.5 -5.5l-29 -27.5q-11.5 -11 -23.5 -21.5l-29.5 -26.5q-27.5 34.5 -55.5 68.5l-121 0l0 -107.5q25 -6 35.5 -11q10 -5.5 10 -11.5q0.5 -5 -9 -8.5q-9 -3.5 -35 -7.5q-25.5 -3.5 -74 -8.5q3 33 4 50q1 17 1 29l0 75.5l-127 0q-25 0 -44 -2q-19.5 -2 -41 -7l8 40.5q15.5 -4.5 32 -6q16.5 -2 45 -2l127 0l0 164l-133 0q-29.5 0 -46 -0.5l-29 -2q-12.5 -1.5 -27.5 -4.5l7 39q14 -4 25.5 -5.5q12 -2 28 -2.5q15.5 -0.5 42 -0.5l289 0l0 138l-270.5 0q-25 0 -42.5 -1q-17.5 -0.5 -33 -3q-15.5 -2 -33.5 -6q5 20.5 9.5 41.5q15.5 -3.5 27 -5q11.5 -2 27 -2.5q15.5 -0.5 43 -0.5l273 0l0 300q0 9 -3 12.5q-3 3 -11.5 3l-56 -2l-48.5 -2.5l-60.5 -4l0 15.5q35 4.5 55.5 8.5q21 3.5 32.5 7.5q11.5 4 19.5 9.5q13 9 19.5 21q6.5 12 9.5 32.5q45 -9 67 -18q21.5 -8.5 31 -22q5.5 -6.5 8 -13.5q2.5 -7 3.5 -19.5q1 -12.5 2 -35.5l-1 -48q-0.5 -28.5 -0.5 -53q-0.5 -25 -0.5 -32l0 -160l149.5 0q5 0 8.5 -2q3.5 -2 4 -5q0 -2.5 -2 -5q-1.5 -2.5 -5.5 -5.5l-25.5 -25l-21.5 -20l-27.5 -25.5l-28 32l-27.5 32.5l-24.5 0l0 -138M147.5 -160l138 0l0 57.5q0.5 6.5 4 9.5q3 2.5 9.5 2.5l15 -0.5q9.5 -1 18 -2.5q8.5 -1 11 -2q3.5 -1.5 5.5 -4q2 -3 2.5 -8.5q-1.5 -132 -1.5 -234.5q-0.5 -102.5 -0.5 -175.5l0 -195.5q17.5 -8.5 27 -15.5q9 -7 9 -12q0 -3 -3 -6.5q-3.5 -3.5 -9.5 -8l-27 -22.5l-27 -22.5q-12.5 13.5 -20 22.5q-7.5 8.5 -19 22.5l-128 0l-25.5 -19q-10.5 -7.5 -21 -14l-26 -16q2 48.5 3 86.5q1 38.5 1.5 79.5q0.5 41 0.5 98q0 108.5 -0.5 191.5q-0.5 83.5 -1.5 151.5l-2 132.5q0.5 7 4 10.5q3.5 3 10 3l3.5 0l6 -0.5l10 -0.5q20.5 -0.5 27 -4q7 -3.5 7 -12.5l0 -91M285.5 -480l-138 0l0 -252l138 0l0 252M285.5 -456.5l0 273l-138 0l0 -273l138 0M454.5 -279q43.5 42.5 72 81.5q29 39 48 80.5q6.5 13.5 12 19.5q5.5 6 11.5 6q11 -1 20.5 -21.5q9.5 -20 10 -46q0 -15 -10.5 -30q-10.5 -14.5 -32.5 -30.5q-33.5 -23.5 -63 -40.5q-29 -16.5 -59 -28l-9 9" />
</g>
<g id="PathID_776" transform="matrix(0.0107353, 0, 0, 0.0107353, 141.8, 11.65)">
<path style="fill:#000000;fill-opacity:1" d="M309.5 -382l-54.5 143.5q-8 22 -16 41.5q-8 19.5 -21 45.5q-10.5 -31.5 -15 -62.5q-4.5 -31.5 -4.5 -72.5q0 -33.5 3.5 -65.5q3 -32.5 10 -61.5q5.5 -24.5 14.5 -54q9 -29.5 19.5 -58.5q11 -28.5 21.5 -50.5q10 -20 14.5 -30.5q5 -10.5 6 -16.5q1 -6.5 1 -14.5q0 -16.5 -9.5 -37q-9.5 -20 -28.5 -43.5q-20.5 -27 -36.5 -38.5q-16 -11.5 -32.5 -12q15.5 27 22.5 49.5q6.5 22 6.5 47q0 15.5 -3.5 37.5q-3.5 22 -11 57.5l-16.5 78.5q-6.5 29 -9.5 46.5q-3 17 -5 32q-2.5 15 -5 36.5q-3.5 31 -6 58.5q-2 28 -2 51q0 62.5 9.5 120q9.5 57 26.5 98q8.5 20.5 19.5 31.5q11.5 10.5 24.5 10.5q8.5 0 15 -4.5q6.5 -4.5 9.5 -13q1.5 -4 2.5 -13q1 -9.5 1 -31q-0.5 -15.5 1 -28.5q1.5 -13.5 5.5 -32q3.5 -18 10.5 -48l33 -137q11.5 -48.5 13.5 -55.5q-7.5 -2.5 -14.5 -5M441.5 -639q32 31.5 64.5 44.5q32.5 13.5 74.5 13l16.5 -0.5l25.5 -1.5q-12.5 9.5 -37.5 30q-25 20.5 -59.5 50l10 10q21 -13.5 45.5 -27.5q24.5 -14.5 47.5 -26.5q23 -12 39 -18.5q29 -12 62.5 -20.5q33.5 -8 83 -15.5q16 -3 22.5 -8.5q6.5 -5 6 -15q0 -10 -7.5 -19.5q-8 -9.5 -24 -18.5q-11 -7 -20.5 -10.5q-9 -3.5 -15.5 -4q-5 0 -9 1.5q-4 1.5 -13.5 7q-22.5 12 -58.5 22.5q-36 10.5 -75 17q-39.5 6.5 -72 6.5q-27 0.5 -48 -6q-21.5 -6 -47.5 -21.5l-9 12M435 -329.5q-6.5 24 -9.5 43q-2.5 19 -2.5 37.5q0 42 14 75q13.5 33 41 58q35 31 102 46.5q67 16 163.5 16q43.5 0 77.5 -3q33.5 -3 50.5 -8q10.5 -4 16.5 -10.5q6 -6 6 -15.5q-0.5 -12.5 -11 -26.5q-10 -13.5 -25 -23.5q-15 -9.5 -28.5 -10q-6 0 -15.5 3q-16 6.5 -24 9.5q-8 3 -14 4q-6 1.5 -16 3q-21 3.5 -43 5.5l-44.5 1.5q-118 0.5 -171 -37q-53 -38 -52 -121.5q0 -9.5 1 -19q0.5 -9.5 2 -24l-17.5 -4" />
</g>
<g id="PathID_777" transform="matrix(0.0107353, 0, 0, 0.0107353, 152.75, 11.65)">
<path style="fill:#000000;fill-opacity:1" d="M82 122q27.5 -13 47 -27.5q19.5 -14 35 -33q20.5 -26 32 -57q11.5 -30.5 12 -62q-0.5 -43.5 -21.5 -68.5q-21 -25 -57.5 -25.5q-30.5 0.5 -49.5 19q-18.5 19 -19 48.5q-0.5 25 13.5 39q14 14.5 47 22.5q11 2 15.5 7q4 4.5 4 13.5q0 27.5 -19.5 51.5q-19 24 -59.5 48l20.5 24.5" />
</g>
<g id="PathID_778" transform="matrix(0.0107353, 0, 0, 0.0107353, 163.7, 11.65)">
<path style="fill:#000000;fill-opacity:1" d="M424 -707.5l18.5 -19q9 -9.5 20 -23.5q11.5 -14 30 -38.5q4 -4.5 10 -12.5q6 -8 14.5 -18q28 -6 38 -10.5q10 -4 9 -10q1 -5 -5 -8.5q-6 -4 -32 -11.5q-26 -7 -84 -22q-6 44.5 -18.5 88.5q-13 44 -31.5 85.5l-111.5 0l-31.5 -21.5q-12.5 -9 -25.5 -17q-13 -8.5 -32 -20q1.5 29 2.5 82l1 137.5q0.5 84.5 0.5 209q0 56 -0.5 124l-2 138q-1 70.5 -2.5 133l0 1l0 1q0 7 4 10q4.5 2.5 15.5 2.5l15.5 -0.5l18.5 -1.5l12 -1q5 -1.5 7.5 -5q2.5 -3 2.5 -8.5l0 -1l0 -2l0 -65.5l477.5 0l0 74.5q0 7 2.5 10q2.5 2.5 9 2.5l20 -1l22 -3q10.5 -1.5 14 -3q5.5 -1.5 7.5 -4.5q2.5 -3 3 -10l-3.5 -83.5q-1.5 -36 -2.5 -71.5l-1 -83q-0.5 -47 -0.5 -117.5l0 -176l0 -186.5q19 -9 26.5 -15.5q7.5 -6 7.5 -11q0 -4 -2.5 -7.5q-2.5 -4 -8 -9q-18 -15 -30 -24.5q-12 -10 -32.5 -25.5q-14.5 14.5 -22.5 24.5q-8.5 10 -21.5 26.5l-308 0M267 -495.5l0 -188.5l477.5 0l0 188.5l-477.5 0M744.5 -472l0 200l-477.5 0l0 -200l477.5 0M744.5 -248.5l0 212l-477.5 0l0 -212l477.5 0" />
</g>
<g id="PathID_779" transform="matrix(0.0107353, 0, 0, 0.0107353, 174.65, 11.65)">
<path style="fill:#000000;fill-opacity:1" d="M98.5 -244q-0.5 7 3.5 9.5q4.5 3 15 3l22 -1.5q12 -1 17 -2.5q6 -1.5 8 -4.5q2 -3.5 2 -10l0 -19.5l122.5 0l0 101.5l-160.5 0l-37 -1.5q-15.5 -1.5 -33.5 -4.5l7 34.5q18 -3 30.5 -4l28 -1l165.5 0l0 88q-77.5 7.5 -136 12q-59 4 -107.5 5.5q14.5 58 22.5 80q8.5 22.5 15.5 21.5q5 0 9.5 -8q4 -8.5 9 -29l24 -5.5l30.5 -6l57 -11.5q38 -8 104 -21q28 -6 58 -13q30 -6.5 71.5 -17q41 -10 102 -26.5l-2 -12l-70 9.5l-60.5 7.5l-67 7.5l0 -82l216 0q4 0 6.5 -2q2.5 -2 3 -5q0 -1.5 -1 -3.5q-1 -2 -3.5 -5q-15 -12.5 -26 -21l-21.5 -17q-11 -9 -27 -21.5q-14 15.5 -23.5 25.5l-24.5 26l-98.5 0l0 -101.5l128 0l0 12.5l0 3q0 6 5 9q5 3 14.5 3q24.5 0.5 34.5 -4q10 -4.5 9.5 -15.5l-1.5 -64q-0.5 -25 -0.5 -44.5l0 -19.5l0 -21.5q0 -12.5 0.5 -36.5q0 -24 0.5 -65.5q18.5 -13.5 23 -17.5q4.5 -4 3.5 -7q0 -2.5 -2.5 -5.5l-8.5 -8q-15.5 -12 -25 -20l-25.5 -20q-10.5 12.5 -18 20l-17.5 20l-120 0l0 -82l238.5 0q6.5 0 10 -1.5q3.5 -1.5 3.5 -4.5q0 -1.5 -1.5 -4l-3.5 -4.5l-27.5 -21.5q-11 -9 -23 -18l-28.5 -21.5q-15.5 15.5 -24.5 25.5q-9 10 -22.5 26.5l-121 0l0 -95l58 -12q26 -5.5 51.5 -11.5l55.5 -14.5l30 2l13 1q8.5 0 13.5 -2.5q5 -3 5 -6.5q0.5 -3.5 -3 -7q-4 -3 -18.5 -11.5l-31 -17.5q-18 -10.5 -38 -20.5q-28.5 16.5 -67.5 31.5q-38.5 14.5 -101.5 32q-67.5 19 -131 33.5q-63.5 14 -119.5 23l2 14q61.5 -3.5 113.5 -9q52 -5 107.5 -13.5l0 84l-164.5 0l-37 -2q-22 -2 -41 -5q4 17.5 7.5 35.5q24.5 -3 40 -4l30.5 -1l164.5 0l0 82l-115.5 0l-26 -14l-21.5 -11.5l-27 -14.5l3 65.5q0.5 20.5 1 31l0 23.5q0 38 -0.5 78.5q-0.5 40.5 -1.5 78l-2 68.5l0 2M477 -293l-128 0l0 -107.5l128 0l0 107.5M477 -424l-128 0l0 -103.5l128 0l0 103.5M288.5 -293l-122.5 0l0 -107.5l122.5 0l0 107.5M288.5 -424l-122.5 0l0 -103.5l122.5 0l0 103.5M768 -581.5q2 -39 3 -66q1 -27.5 1.5 -57.5l1.5 -78.5q26 -11.5 34 -17q8 -5.5 8 -11.5l0 -1q0.5 -7.5 -27 -13q-27.5 -5 -85.5 -8.5l2.5 37.5l1 33.5q0.5 17 0.5 41.5q0 30.5 -1 65q-1 34 -3 75.5l-48.5 0l-37.5 -1.5l-45 -5.5l10 36.5q23 -3.5 38 -5l27.5 -1l54.5 0q-6.5 120 -21 206.5q-14 86 -39.5 150q-25 64 -63.5 116.5q-36 48 -79 84q-43.5 36.5 -107.5 71.5l8 12.5q29.5 -11 50.5 -20.5q20.5 -9.5 38 -19.5q17 -10 35.5 -23.5q58 -40.5 101 -92q43 -51.5 70 -113q29 -65 47 -157q17.5 -91.5 25 -215.5l116.5 0q-4 194 -16 325.5q-12 131.5 -32 191.5q-4.5 14.5 -16 20.5q-11 6 -33 6q-10.5 0 -35 -1l-54 -3l-58.5 -4l0 14q40 7.5 62 14q22 6.5 35 14q10 4 15 12q5 8.5 15 35q33 -5 52.5 -11.5q19.5 -6.5 35.5 -17.5q20 -11 31.5 -30q11 -19 20.5 -56q16 -60 27.5 -179.5q11 -120 17.5 -306.5q17.5 -15 24.5 -21.5q6.5 -7 6.5 -10q0 -4 -2 -7q-2.5 -3.5 -8.5 -8.5l-27.5 -21.5q-11 -8.5 -29.5 -21l-19 21.5l-19 21l-108.5 0" />
</g>
<g id="PathID_780" transform="matrix(0.0107353, 0, 0, 0.0107353, 185.6, 11.65)">
<path style="fill:#000000;fill-opacity:1" d="M758 -261.5l0 33q0.5 5 3.5 7q3.5 2 11 2q21.5 0 36 -2q14 -2 19 -5q2 -1.5 3 -4.5q1 -2.5 1 -8q-3 -54.5 -4 -114.5q-1 -59.5 -1 -134l0 -61.5q24 -11 33 -17.5q8.5 -6.5 8 -12q0 -3 -2.5 -6q-2.5 -3 -8 -7.5l-32.5 -23.5l-30.5 -21.5q-14 13.5 -22 22.5l-20 22.5l-213.5 0l0 -108.5l428.5 0q4.5 0 6.5 -1.5q2.5 -1.5 2.5 -3.5q0 -1.5 -1 -3.5q-1 -2 -4 -5l-33.5 -29.5q-13.5 -12 -27.5 -23.5l-35.5 -28.5q-13.5 15 -22 25l-17 20.5q-8.5 10.5 -20 26l-277 0l0 -28.5q0 -11.5 0.5 -24.5q0 -13 0.5 -35q24 -6.5 33.5 -12q9 -5 8.5 -11.5q1 -7.5 -13 -11.5q-14 -4 -51.5 -6l-22 -1.5l-31 -2.5q2.5 23.5 3.5 37.5q1 14.5 1.5 34.5q0.5 20.5 1 61l-308 0q-26 0 -44 -2q-18 -1.5 -36 -6l4 39.5q14.5 -4.5 33 -6q18.5 -2 43 -2l308 0l0 108.5l-205 0q-15.5 -10 -26.5 -16.5l-22 -13q-11.5 -6 -28 -15.5q2 30.5 3 59q1 29 1.5 64q0.5 35 0.5 84q0 44.5 -0.5 77q-0.5 33 -1.5 63.5q-1 31 -3 70q0 7 4 9.5q4 3 13.5 3q35 0 46.5 -3q11.5 -3 10.5 -13.5l0 -38l207 0q-0.5 35 -0.5 52q-0.5 17.5 -0.5 30.5l0 33.5l-307 0l-57.5 -2q-24.5 -2 -48 -7l5 40.5q17.5 -3.5 42.5 -6l58 -2l307 0q-1 71.5 -2 120.5q-1.5 49 -2 75q0 6 2.5 8q3 2.5 10.5 2.5l34 -2l23.5 -2.5q3.5 -1 5.5 -4q1.5 -3 1.5 -9q-0.5 -17.5 -0.5 -30q-0.5 -13 -0.5 -30l-1 -46.5q0 -30 -1 -82l450 0q3 0 5.5 -2q2.5 -1.5 2.5 -3q0 -2.5 -1 -4.5q-1 -2.5 -3 -5l-33 -32.5q-13.5 -13 -27.5 -25.5q-14 -12.5 -35 -30q-14.5 16.5 -24 28q-10 11 -19.5 22.5l-24 28.5l-292 0l0 -26.5l0 -7.5l0 -43.5l0 -21l0 -17.5l219.5 0M758 -285l-219.5 0l0 -135l219.5 0l0 135M758 -443.5l-219.5 0l0 -125l219.5 0l0 125M470 -285l-207 0l0 -135l207 0l0 135M470 -443.5l-207 0l0 -125l207 0l0 54.5l0 26.5l0 44" />
</g>
<g id="PathID_781" transform="matrix(0.0107353, 0, 0, 0.0107353, 196.55, 11.65)">
<path style="fill:#000000;fill-opacity:1" d="M309.5 -382l-54.5 143.5q-8 22 -16 41.5q-8 19.5 -21 45.5q-10.5 -31.5 -15 -62.5q-4.5 -31.5 -4.5 -72.5q0 -33.5 3.5 -65.5q3 -32.5 10 -61.5q5.5 -24.5 14.5 -54q9 -29.5 19.5 -58.5q11 -28.5 21.5 -50.5q10 -20 14.5 -30.5q5 -10.5 6 -16.5q1 -6.5 1 -14.5q0 -16.5 -9.5 -37q-9.5 -20 -28.5 -43.5q-20.5 -27 -36.5 -38.5q-16 -11.5 -32.5 -12q15.5 27 22.5 49.5q6.5 22 6.5 47q0 15.5 -3.5 37.5q-3.5 22 -11 57.5l-16.5 78.5q-6.5 29 -9.5 46.5q-3 17 -5 32q-2.5 15 -5 36.5q-3.5 31 -6 58.5q-2 28 -2 51q0 62.5 9.5 120q9.5 57 26.5 98q8.5 20.5 19.5 31.5q11.5 10.5 24.5 10.5q8.5 0 15 -4.5q6.5 -4.5 9.5 -13q1.5 -4 2.5 -13q1 -9.5 1 -31q-0.5 -15.5 1 -28.5q1.5 -13.5 5.5 -32q3.5 -18 10.5 -48l33 -137q11.5 -48.5 13.5 -55.5q-7.5 -2.5 -14.5 -5M441.5 -639q32 31.5 64.5 44.5q32.5 13.5 74.5 13l16.5 -0.5l25.5 -1.5q-12.5 9.5 -37.5 30q-25 20.5 -59.5 50l10 10q21 -13.5 45.5 -27.5q24.5 -14.5 47.5 -26.5q23 -12 39 -18.5q29 -12 62.5 -20.5q33.5 -8 83 -15.5q16 -3 22.5 -8.5q6.5 -5 6 -15q0 -10 -7.5 -19.5q-8 -9.5 -24 -18.5q-11 -7 -20.5 -10.5q-9 -3.5 -15.5 -4q-5 0 -9 1.5q-4 1.5 -13.5 7q-22.5 12 -58.5 22.5q-36 10.5 -75 17q-39.5 6.5 -72 6.5q-27 0.5 -48 -6q-21.5 -6 -47.5 -21.5l-9 12M435 -329.5q-6.5 24 -9.5 43q-2.5 19 -2.5 37.5q0 42 14 75q13.5 33 41 58q35 31 102 46.5q67 16 163.5 16q43.5 0 77.5 -3q33.5 -3 50.5 -8q10.5 -4 16.5 -10.5q6 -6 6 -15.5q-0.5 -12.5 -11 -26.5q-10 -13.5 -25 -23.5q-15 -9.5 -28.5 -10q-6 0 -15.5 3q-16 6.5 -24 9.5q-8 3 -14 4q-6 1.5 -16 3q-21 3.5 -43 5.5l-44.5 1.5q-118 0.5 -171 -37q-53 -38 -52 -121.5q0 -9.5 1 -19q0.5 -9.5 2 -24l-17.5 -4" />
</g>
<g id="PathID_782" transform="matrix(0.0107353, 0, 0, 0.0107353, 207.5, 11.65)">
<path style="fill:#000000;fill-opacity:1" d="M579.5 -700.5l10 -10.5l6.5 -8l42 -49.5l19 -21.5q5.5 -6.5 11.5 -13q23 -3.5 34.5 -8.5q11.5 -5 11.5 -12q1 -3.5 -6.5 -7.5q-7 -3.5 -33 -9.5q-25.5 -6 -80 -17.5q-4.5 30.5 -10.5 55.5q-5.5 25.5 -14 49.5q-8.5 24.5 -20.5 52.5l-73 0l-26 -18q-11 -7.5 -22.5 -14q-11 -6.5 -28 -16q1 19.5 2 50.5l1 81l1 128.5l0 192.5l0 76l-1 54l-1.5 40q-0.5 12.5 -0.5 17.5l0 9l0 10l0 12.5q2 5.5 5 7.5q3.5 2 9.5 2l39 -3q12 -1.5 14.5 -5.5q3 -3.5 2.5 -11l0 -2.5l0 -2.5l0 -56.5l342 0l0 54q0.5 8.5 2 11.5q1 3 4 3l45.5 -2.5q13.5 -1.5 16.5 -4.5q3 -3 2.5 -9.5l-1 -65q-0.5 -59.5 -2 -172q21 -13.5 27.5 -19q7 -5.5 6 -10q0.5 -2 -0.5 -4q-1 -2.5 -3.5 -6q-20 -16 -33.5 -25.5q-13 -9.5 -34 -23q-12 13.5 -19.5 23.5q-7 9.5 -17 25l-336 0l0 -122l321.5 0l0 29.5l0 3q0 6 4.5 9q5 2.5 15 2.5l2 0l2 0l5.5 0l3.5 -1q22 -0.5 29.5 -3q7 -2.5 6.5 -8.5l0 -0.5l0 -1.5q-0.5 -14.5 -1 -47q-0.5 -32.5 -0.5 -68q-0.5 -36 -0.5 -60l0 -7.5l0 -15l5.5 -4q3 -1.5 6 -3.5q6 -4.5 9.5 -7l3.5 -2q5.5 -4.5 8 -7.5q2.5 -2.5 2.5 -5q0 -2 -1.5 -4.5q-1.5 -2 -4 -4.5l-24 -17.5l-20 -14q-10 -6.5 -24.5 -16.5l-18.5 23.5q-7 9.5 -17 24.5l-205 0M471 -518l0 -159l321.5 0l0 159l-321.5 0M471 -172l0 -177l343 0l0 177l-343 0M72 -814q38 46 59.5 76q21.5 29.5 35.5 57q14 27.5 31 67.5q6 16 13.5 24q7.5 8 16 8q7 -0.5 14.5 -12q8 -11 13.5 -26.5q5.5 -16 5.5 -30.5q0.5 -16 -6 -30.5q-6.5 -14.5 -20.5 -28.5q-18 -20 -38 -37q-20 -17 -47 -35.5q-27.5 -18.5 -66.5 -42.5l-11 10.5M52.5 -391q18 -4 31 -5.5l30.5 -1l92 0l0 264.5q-40 32.5 -83 56.5q-43 24.5 -81 35.5l12.5 29q5 11 11.5 23l20 36q5.5 9 10 13.5q4 4 8.5 4q5.5 0 8.5 -5q3 -4.5 3 -12.5q0 -1.5 -1 -9.5l-1 -20q29.5 -28.5 49.5 -49.5q20 -21 38.5 -44q18.5 -23 44 -57q15.5 36.5 33.5 62q18.5 25.5 46 48.5q22.5 20 48 32.5q25.5 13 60.5 20q35 7.5 86.5 10q51.5 3 125.5 3l295 0q3.5 -20.5 9.5 -32.5q6 -12.5 18 -20.5q12 -8.5 35 -17.5l0 -13.5l-148 7l-102.5 4.5l-74.5 2.5q-32 1 -63 1q-30.5 0.5 -68.5 0.5q-47.5 0 -82 -3q-35 -2.5 -62 -9q-27.5 -6.5 -52.5 -18q-31 -12.5 -48.5 -30.5q-17.5 -17.5 -28.5 -47l0 -250q11.5 -8 17.5 -12.5l7 -5q1.5 -1.5 3 -4q1 -2.5 1 -4q0 -3 -1.5 -6q-1.5 -3 -5.5 -6.5q-13.5 -9.5 -22.5 -16q-9.5 -6.5 -19.5 -12.5q-9.5 -6.5 -24.5 -15.5l-16.5 21.5q-6.5 8.5 -15 22.5l-83 0q-17 0 -34 -2.5q-17.5 -2.5 -38 -7.5q5.5 20 10.5 40" />
</g>
<g id="PathID_783" transform="matrix(0.0107353, 0, 0, 0.0107353, 218.45, 11.65)">
<path style="fill:#000000;fill-opacity:1" d="M450.5 -414.5l-10 16.5l-7.5 13q-4.5 6.5 -12.5 19.5l-31 52.5q-11.5 19.5 -19.5 32.5q-7.5 13 -15.5 26l-20 33.5q-10.5 18.5 -16 27q-5.5 9 -9 14l-8.5 13q-19 -13.5 -30.5 -31.5q-12 -17.5 -23 -48.5q-11.5 -31.5 -17.5 -69q-6 -37.5 -6 -79.5q0 -31 4.5 -68.5q5 -37 14 -84l2.5 -15.5q0.5 -6.5 0.5 -11q0 -17.5 -11.5 -38q-11.5 -20.5 -34.5 -43q-23.5 -23 -43.5 -36.5q-20.5 -13.5 -33.5 -13.5l-4.5 0l-4.5 0q22 27.5 33 50q11 22 15 51q4 28.5 4.5 75q-0.5 54 0 85.5q1 31.5 2.5 52.5q1.5 20.5 4.5 42.5q7.5 61.5 25.5 114q18 52.5 44 90.5q16.5 24 37 43.5q20.5 20 41 31.5q20 12 34.5 12q9.5 0 16 -7.5q6.5 -7 6.5 -18q0 -4 -0.5 -8q-0.5 -4.5 -1.5 -8.5l-5 -24q-1 -5.5 -1 -10.5q-0.5 -20 8.5 -51q8.5 -31 29.5 -84.5q21 -53 58.5 -138l-15.5 -7M679 -580.5q43.5 23.5 75 56.5q31 33 52 77.5q8.5 19 15.5 43q7.5 23.5 11.5 48q4.5 24 4.5 43q0.5 14 -4 20q-4.5 6 -19.5 11l-41.5 12q-34.5 10 -97 27q1.5 7.5 3.5 15l43 -1.5q17.5 -0.5 34.5 -0.5q32.5 0 50 3q17.5 2.5 27 9.5q10.5 6.5 17 9q6.5 2.5 13.5 2q23.5 -0.5 37.5 -22q13.5 -21.5 14 -58.5q-0.5 -72 -31.5 -136q-30.5 -64 -82.5 -109.5q-52.5 -45.5 -117.5 -61l-5 12.5" />
</g>
<g id="PathID_784" transform="matrix(0.0107353, 0, 0, 0.0107353, 229.4, 11.65)">
<path style="fill:#000000;fill-opacity:1" d="M275.5 -721q21 22.5 36.5 36q16 13.5 35.5 23.5q24.5 12.5 56 20q31.5 7.5 60.5 7.5q15 0 37 -1l40 -2l-14.5 8.5q-6.5 4 -22 12.5l-49.5 27q-19.5 10.5 -35.5 20l-39.5 23l7 15.5q13.5 -5 20 -8l20 -8.5l43 -18.5l21.5 -9l19.5 -7.5l74.5 -28q25.5 -9 41 -13.5q15.5 -4.5 34 -8.5q34 -7.5 50 -12q16 -5 20.5 -10q5 -5 4.5 -13.5q-0.5 -11.5 -10 -24q-10 -12 -24 -20.5q-14 -8.5 -27.5 -9q-2.5 0 -8 1.5q-5 1 -10.5 3q-30 9 -66.5 16q-36.5 7 -74.5 10.5q-38 4 -72 4q-34 0 -59.5 -4q-25.5 -4 -48.5 -14q-23 -10 -48.5 -27q-5.5 5 -10.5 10M237 -331q-8.5 25.5 -12.5 46.5q-4 21.5 -4 39.5q0.5 49.5 23 93q23 43.5 62 69q37.5 26 95.5 37.5q57.5 11.5 143 11.5q46 0 92 -2.5q45.5 -2.5 84 -7q38.5 -5 62.5 -11q16 -4 24.5 -12q8 -8 8 -19.5q0 -9.5 -5.5 -18.5q-6 -9 -17 -17.5q-13.5 -8.5 -28.5 -14.5q-15.5 -5.5 -27.5 -6q-4 0 -8.5 1q-4.5 1 -9 3q-46 17 -105.5 27q-59.5 10 -121 10q-123 0 -182.5 -44q-59.5 -44 -59 -135q0 -10.5 1 -20q0.5 -10 2 -26.5l-17 -4" />
</g>
<g id="PathID_785" transform="matrix(0.0107353, 0, 0, 0.0107353, 240.35, 11.65)">
<path style="fill:#000000;fill-opacity:1" d="M637.5 -722l40.5 27q13 9 21.5 15.5q8.5 6.5 21 17q-23 13.5 -40.5 22q-17 8.5 -34 16l-36.5 14.5q-11.5 4.5 -17 7q-5 2 -11 5q-31 -39 -50.5 -64l-28.5 -34.5q-23.5 -26.5 -33 -38.5q-9.5 -12.5 -9 -15.5q0 -5.5 8 -8.5q7.5 -3 23.5 -3l17 1l29.5 3l5 -15q-34.5 -11.5 -63.5 -16.5q-29 -5.5 -56.5 -5q-33 0 -51 10q-18.5 10 -18.5 27.5q-0.5 10.5 7.5 19q8 8.5 31.5 21q31.5 18 70.5 54q38.5 36 71.5 79.5q-51.5 15 -100 23.5q-48 8 -89 8q-47.5 0.5 -85.5 -13q-38 -13 -78.5 -43.5l-11 10.5q38.5 46.5 84.5 68.5q45.5 21.5 103.5 21.5q50.5 0 101.5 -8.5q51.5 -8.5 106.5 -25.5q43 60 74.5 117.5q31.5 57 48.5 110.5q-42.5 -12.5 -95.5 -20q-53 -7 -105.5 -7q-127 0.5 -197.5 43.5q-70.5 43 -71.5 120.5q0.5 56 38.5 99.5q38 43.5 108 67.5q40 13.5 91.5 20.5q51 7 109 7q52.5 0.5 71.5 -6.5q18.5 -6.5 17.5 -25.5q-0.5 -11.5 -10.5 -24q-10 -13 -24.5 -22q-14.5 -9 -28.5 -9l-5.5 0.5l-6.5 1.5q-19.5 3.5 -40 5.5l-49.5 1.5q-41.5 0 -78.5 -6q-36.5 -5.5 -63.5 -16.5q-38 -16.5 -59 -43q-20.5 -27 -21 -60.5q1 -55.5 51.5 -87.5q50.5 -31.5 140 -32q49.5 0 97.5 10q48 10.5 88 29q17 8 35 20.5q18 12.5 33.5 27.5q10.5 10.5 17 14q6.5 3.5 14.5 3.5q15.5 0 21.5 -12.5q6.5 -12.5 6.5 -42q0 -18.5 -5.5 -36.5q-5 -18.5 -17 -40.5q-16 -29 -38.5 -66q-22.5 -37 -49 -77q-26 -40 -53 -78q48.5 -18.5 74.5 -29q26.5 -10.5 42 -18q15.5 -7 33 -16.5q29 -16.5 43 -29.5q13.5 -12.5 13.5 -24q-0.5 -15 -10.5 -23.5q-10.5 -8 -29.5 -8l-6 0l-5.5 1l-5 0q-9.5 0 -29 -4.5q-19.5 -4.5 -42.5 -11.5q-23 -7.5 -44 -15.5q-4 5.5 -7.5 11" />
</g>
<g id="PathID_786" transform="matrix(0.0107353, 0, 0, 0.0107353, 251.3, 11.65)">
<path style="fill:#000000;fill-opacity:1" d="M174 -299q-24.5 39 -39.5 60q-15 20.5 -27 31q-11.5 11.5 -14.5 17q-3 5.5 -3 14q0.5 12 3.5 27.5q3 16 8 29q4.5 11.5 10.5 17.5q6 6 13 6q7 1 13.5 -9.5q6.5 -10 21.5 -46q34.5 37.5 58 66.5q23.5 29.5 32 45.5l5 13.5q3.5 9.5 7 20l5.5 15.5q3.5 14.5 10 21q6 6.5 14.5 6.5q19 -1 31 -31.5q12.5 -30 13 -75q0 -10.5 -0.5 -20.5q-0.5 -10 -2.5 -27.5q-5.5 -58 -8 -100.5q-2.5 -42.5 -2.5 -83q0 -11 0.5 -23.5q0 -12 0.5 -30q40.5 -48 78.5 -87.5q38 -39.5 77.5 -74.5q60.5 -54 103.5 -78.5q43 -25 75.5 -24.5q30 0 46 20.5q16.5 20.5 16.5 58q0 18 -1.5 34.5q-1.5 16.5 -7 45q-5.5 29 -17 82.5q-12.5 60.5 -19 107.5q-6.5 47 -6.5 75q0 70 30.5 106.5q30.5 37 89 37q55 -0.5 113 -30.5q58 -30.5 113.5 -87.5q-4 -6 -8 -12.5q-51.5 35 -101.5 54q-50 19 -89 19q-15 0 -28 -4q-13.5 -3.5 -24.5 -11.5q-13.5 -9.5 -19.5 -27.5q-6 -18 -6 -48q0 -32 4.5 -75q4.5 -43 14 -93.5q9.5 -51.5 14 -77.5q4.5 -26 5.5 -41q1 -14.5 1 -33q0 -29.5 -6.5 -51.5q-6.5 -21.5 -21 -38.5q-15.5 -17.5 -36.5 -27q-20.5 -9.5 -44.5 -9.5q-33 -0.5 -72.5 17q-39.5 17.5 -92.5 55.5q-21.5 15 -43.5 33.5q-22.5 18 -54 47q-31.5 29 -81 76q0 -11.5 0.5 -18.5q0 -7 1.5 -19.5q7.5 -18 15.5 -34q8 -16 17 -32.5q10 -15.5 12.5 -20.5q2.5 -5.5 2 -9q0.5 -6 -6.5 -14.5q-6.5 -8.5 -23 -25.5q3 -22 8 -43.5q5 -22 10.5 -37q5 -15 7 -22q2 -7 2.5 -11q0.5 -4 0.5 -9q-0.5 -15 -14.5 -32.5q-14 -18 -38.5 -35q-20 -13.5 -36.5 -20.5q-16.5 -7 -29 -7.5q-3.5 0 -6.5 1l-7 4.5q24.5 17.5 37 32.5q13 14.5 17.5 33.5q4.5 18.5 4 47.5q0 27 -1.5 52q-2 25 -5.5 56q-31 17.5 -60.5 31q-30 14 -53 22q-23.5 8.5 -34 8.5q-16.5 0 -33 -12.5q-17 -12 -33.5 -36.5q-1.5 5.5 -2.5 10.5q-1 5 -1 7q1 17 14 38.5q13 21.5 30.5 37.5q17.5 16 31.5 17q6.5 0 13.5 -3q7.5 -3.5 21.5 -13.5q9.5 -7 28 -19.5q18.5 -13 39 -26.5l36.5 -24.5l-1.5 16l-2 19.5q-0.5 13 -0.5 19.5q-0.5 6.5 -0.5 11.5l-1 12.5q-55.5 85.5 -111.5 171M284.5 -394.5q-1.5 20.5 -2.5 37.5l-1 35.5q-0.5 18.5 -0.5 43q-0.5 56.5 -0.5 89q-0.5 32 -0.5 49.5l-1 28l-1 25q-14.5 -8.5 -28 -18.5q-13.5 -9.5 -32 -24.5q-19 -15 -48.5 -40l17.5 -36.5l16.5 -33q8.5 -17 20 -39q22.5 -42 33.5 -61.5l16 -30.5q5.5 -10 12 -24" />
</g>
</svg>
