<?xml version="1.0" encoding="utf-8"?>
<svg version="1.1" id="Layer_1"
xmlns="http://www.w3.org/2000/svg"
xmlns:xlink="http://www.w3.org/1999/xlink"
xmlns:author="http://www.sothink.com"
width="244px" height="14px"
xml:space="preserve">
<g id="PathID_787" transform="matrix(0.0107353, 0, 0, 0.0107353, -1.9, 11.65)">
<path style="fill:#000000;fill-opacity:1" d="M177 -646q25 34 50.5 53.5q25.5 19 58.5 27q33.5 8 81.5 7.5q25.5 0 58 -1.5l74 -5.5l0 12l2 75l0 59l0 4.5l0 8l-56 5.5l-43.5 1.5q-45 0 -76 -6q-31 -5.5 -43.5 -16.5q-11.5 -8.5 -16.5 -22q-4.5 -13 -5 -36.5l-15.5 -1q-1 8.5 -1.5 16q-0.5 7.5 -0.5 13q0 24 12 44q11.5 20 34 33.5q18.5 11.5 52.5 17q34 5.5 83.5 5.5l28.5 -1l47.5 -2l0 15.5l0 10l0 17.5l0 30l0 9l0 7l0 14q0 7 0.5 20q0 13 0.5 37l-28.5 -1l-22.5 0q-69 0.5 -120.5 16q-52 15.5 -81.5 43.5q-29 28 -29.5 64.5q1 49 48 79q47 29.5 125 30.5q42 0 78.5 -10q36.5 -10 58.5 -28q18 -14 26.5 -35q8.5 -21 8.5 -51q0 -8.5 -1 -18.5q-0.5 -10 -2 -26.5q30.5 8 54 18q23 10 48.5 25q23 14 47.5 32.5q24.5 18 38.5 31q19 19 26.5 24q7.5 5.5 14 5q10.5 -0.5 16.5 -10q6 -9.5 6.5 -26q-0.5 -20 -8 -37.5q-7.5 -17 -22 -30q-21 -18.5 -55.5 -35q-35 -17 -78.5 -30.5q-43.5 -14 -91 -23q-2.5 -18 -3.5 -35q-1.5 -16.5 -3 -45q-0.5 -17.5 -0.5 -31l-1 -27.5l-1.5 -33.5q38 -3.5 83 -11.5q44.5 -8 84 -18.5q47.5 -12 63.5 -21.5q16.5 -9 15.5 -22.5q0 -6 -3 -11q-3.5 -5 -9.5 -8q-10 -6.5 -25.5 -11q-15 -4.5 -26.5 -4.5q-5 0 -8.5 1q-4 1 -7 3q-13.5 9.5 -23 14.5q-9.5 4.5 -28 11q-26.5 8.5 -56 15.5q-29.5 7 -61 12l-1 -53l0 -40l0 -31.5l1 -34q46 -5 95 -14q48.5 -9.5 100.5 -21.5q47 -11 64 -19.5q17 -8 16 -18.5q0 -7 -4.5 -13q-4.5 -6 -13 -11.5q-9.5 -6.5 -26 -12q-17 -5 -27 -5.5q-2.5 0 -6.5 1.5q-3.5 1 -6 2.5q-24.5 17.5 -70 32q-45 14 -120.5 28.5q2.5 -40 7 -67q4.5 -27 11.5 -41.5q9.5 -20.5 11.5 -26q2 -5.5 2 -9q0 -11.5 -8.5 -19.5q-8 -8 -26.5 -14q-18 -6.5 -41 -10q-23 -3.5 -45 -3.5q-20.5 -0.5 -31 3q-10.5 3 -20 13.5q28.5 3.5 46 11q17 7.5 26 25.5q8.5 18 12 52.5q3.5 35 5 93q-46 7 -80 10l-66.5 2.5q-38.5 0 -65.5 -4.5q-27 -4.5 -50 -16.5q-23 -12 -49.5 -34.5l-10 10.5M500.5 -145.5l0 3.5l-0.5 19.5l-1.5 19q-2.5 19 -7.5 32q-5.5 12.5 -15 21.5q-19 18 -49 27.5q-30 9.5 -68 9.5q-52.5 0 -82 -15.5q-29 -15 -29.5 -43q0 -40 55.5 -61.5q24 -9.5 52.5 -14.5q28.5 -5 59 -5l38.5 1.5l47.5 5.5" />
</g>
<g id="PathID_788" transform="matrix(0.0107353, 0, 0, 0.0107353, 9.05, 11.65)">
<path style="fill:#000000;fill-opacity:1" d="M846.5 -195.5q-26 22 -47 38q-20.5 16 -40 28.5q-20 12.5 -43 24.5q-59 31 -119.5 48q-61 17 -114 17.5q-27 0 -50.5 -7.5q-23.5 -7 -40.5 -20q-21.5 -17.5 -31.5 -47q-9.5 -29.5 -9.5 -76q0 -37 3.5 -91.5q3.5 -54 9.5 -115.5q6 -61.5 13 -119.5q7 -58 14 -102q7.5 -43.5 13 -63q6.5 -17 8.5 -24.5q1.5 -7.5 1.5 -12.5q0 -16 -15 -31.5q-15 -15 -44.5 -29q-24.5 -10.5 -49 -17q-25 -6.5 -43.5 -6.5q-8 0 -14 2q-6.5 2.5 -14.5 8.5q36 14.5 54 29.5q18 14.5 23.5 39q6 24.5 5.5 67.5q0 17.5 -0.5 37.5q-0.5 20 -2 52l-4.5 86.5q-3 47 -4.5 93q-2 46 -3 85.5q-1 40 -1 68.5q0 64.5 6.5 105.5q7 41.5 22 67.5q24 41.5 67.5 64q44 22.5 102.5 23q64 0 128 -25.5q63.5 -25 122.5 -72.5q59.5 -47 109 -114l-12.5 -11" />
</g>
<g id="PathID_789" transform="matrix(0.0107353, 0, 0, 0.0107353, 20, 11.65)">
<path style="fill:#000000;fill-opacity:1" d="M96 -591.5q28 48.5 61 70.5q33.5 22 79.5 21.5q22 0 45.5 -2.5q24 -2.5 53 -7.5q-34.5 100 -61.5 168.5q-27 68 -50.5 114.5q-23.5 47 -49 83.5q-10.5 15 -15.5 23q-4.5 8 -6 13.5q-1 5.5 -1 13.5q0 13.5 4 30q4 16.5 10.5 29.5q4.5 10.5 10 15.5q6 5 13.5 5q10.5 0.5 20 -11.5q9.5 -11.5 22.5 -43.5q13 -32.5 33 -92.5l33 -97.5l19 -56.5q7 -20.5 12 -36.5l13 -38l22 -68l11 -34l10 -28q49 -12.5 96.5 -28q47 -15.5 82.5 -31.5q32 -14 46 -25.5q14 -12 13.5 -24.5q0 -6 -4 -10.5q-4 -5 -12.5 -8q-13 -4.5 -28 -8q-15.5 -3 -26 -3q-6 -0.5 -11.5 3q-5.5 3 -17.5 14q-18 17 -47 32q-29 15.5 -71.5 30.5q19.5 -55 35 -93q16 -38 26 -53q9 -12.5 11 -16.5q2 -3.5 1.5 -8.5q0 -11.5 -11.5 -22q-11.5 -10.5 -34.5 -19q-23.5 -9 -46.5 -14q-23.5 -5 -41.5 -5q-9.5 -0.5 -16 1.5q-6 2 -15.5 7.5q42 14 57.5 27.5q16 14 15 37q0 18 -4.5 45.5q-4.5 28 -12 61q-8 33 -18.5 66.5q-35 10 -67.5 15q-32.5 4.5 -62.5 4.5q-32 0.5 -57 -12q-25 -12.5 -55.5 -44.5q-6 4.5 -12.5 8.5M551 -422.5q54 -20 100 -29q45.5 -9 95.5 -9q-23 23 -33.5 33l-17 15q-18 16.5 -26 24.5l-13 11.5q-4 4.5 -10 10l6 9.5q11.5 -6.5 17 -10q5.5 -3 19 -11.5q17 -11.5 25.5 -17q8.5 -5.5 15 -9l16 -9q14 -7.5 24.5 -11.5q11 -4.5 23.5 -6q12 -2 30.5 -3q22 -0.5 31 -6q8.5 -5.5 8 -17.5q0 -8.5 -4 -16.5q-4.5 -7.5 -12 -12q-13 -8.5 -30.5 -13.5q-17.5 -5 -34.5 -5q-60 0 -121 17.5q-60.5 18 -116.5 51q3 6.5 6.5 13.5M501.5 -249.5q-5 18 -7 33q-2 15 -2 31.5q0.5 51.5 23 90q22.5 38 64 58.5q34 16 82 24q48 8.5 107.5 8.5q60.5 0 90.5 -8.5q30.5 -8.5 30.5 -25.5q0 -6.5 -5 -13.5q-4.5 -7 -13.5 -15q-14 -10 -28.5 -17q-15 -7 -24 -7.5q-3 0 -7.5 1q-4.5 1 -10 3q-23.5 9 -45.5 12.5q-22 3 -52.5 3q-30.5 0 -59.5 -5q-29 -5 -50 -14.5q-38 -16.5 -58 -48q-20 -32 -20 -76l0 -11.5l1 -20l-15.5 -3" />
</g>
<g id="PathID_790" transform="matrix(0.0107353, 0, 0, 0.0107353, 30.95, 11.65)">
<path style="fill:#000000;fill-opacity:1" d="M755 -709q31 26 61 61q29.5 35.5 45.5 65q10.5 20 17 27q6.5 7.5 13.5 7q10.5 -0.5 17.5 -14q7 -14 7 -35q0.5 -19.5 -10.5 -35.5q-11 -15.5 -38.5 -33.5q-25.5 -17 -53 -31q-27 -14.5 -51.5 -23l-8 12M840 -777.5q42 33 68.5 59.5q26 27 46 58.5q10.5 15 17 21.5q7 6 13 6q8.5 -0.5 14.5 -14q5.5 -14 6 -35q0 -17 -13.5 -32.5q-13.5 -16 -41 -31q-25.5 -14.5 -51 -25.5q-25.5 -11 -51.5 -18.5l-8 11M289 -431l-25.5 55.5q-9.5 21 -17 36.5l-16.5 32q-8.5 17.5 -23 45q-21.5 41.5 -41.5 73q-19.5 31 -34.5 47.5q-14.5 17 -19 28q-5 11.5 -4.5 29.5q0.5 33 8 52q8 18.5 22 18.5q7 0 13 -4.5q6 -5 11.5 -15q12.5 -22 36.5 -74q23.5 -51.5 54.5 -124.5q26 -62 41.5 -97.5l19 -45.5q16.5 -38.5 26.5 -60.5q9.5 -22 14.5 -35l9.5 -21.5q3.5 -9.5 9 -22.5q28.5 -8 47 -12.5q18.5 -4.5 32 -6.5l27 -1.5q17 0 28 2.5q11 2.5 18.5 7.5q27.5 18.5 27.5 83.5q0 39.5 -7.5 87q-8 47.5 -21.5 96q-13.5 48.5 -31.5 91q-19.5 47.5 -35 67q-15 19.5 -31.5 19q-16.5 0 -58 -18.5q-41.5 -18 -100.5 -51l-9.5 12q53.5 43.5 77 64.5q24 20.5 30 31.5q6.5 10.5 7 24q1.5 12 8 18q6.5 5.5 19.5 5.5q25 -0.5 51.5 -13q27 -12.5 46.5 -33q22.5 -25 42.5 -66.5q20.5 -41.5 36 -92q15.5 -51 24.5 -104.5q9 -53.5 9 -103.5q0 -80.5 -32 -120.5q-32.5 -39.5 -98.5 -39.5q-18 0 -37 2q-19 2.5 -51.5 9.5q22 -53.5 38.5 -88.5q16.5 -35 26.5 -50q9 -13.5 12 -19q3 -6 2.5 -10.5q0 -16.5 -18.5 -30.5q-18.5 -14 -53 -24q-21 -6 -39.5 -9.5q-18.5 -3.5 -30 -4q-8 0 -14.5 2.5q-6.5 2.5 -15.5 9q43.5 13.5 61.5 29.5q18 15.5 17.5 39q0 18 -5.5 46q-5.5 28.5 -15 60.5q-9.5 32 -21.5 61.5q-38.5 10.5 -74 18.5q-35 8 -62 13q-26.5 4.5 -38 4.5q-28 0.5 -45 -12.5q-17.5 -12.5 -33 -44q-3 8 -4.5 13.5q-1.5 5.5 -1.5 9.5q0.5 14.5 10 37q9.5 22 24 40.5q10.5 13.5 23 22q13 8.5 22 9q5.5 0 12 -2q6.5 -2.5 17.5 -9.5q20.5 -11.5 50.5 -24q30 -12 82.5 -29l-30.5 66.5M711 -549q50 25 83 57q33 32.5 57 79.5q14 25 21.5 48.5q7.5 24 10.5 49.5q-15.5 6.5 -31.5 12.5l-44 15q-28.5 9 -81.5 25q2.5 6.5 4.5 13l63.5 -6.5l34.5 -2q13 -0.5 30 -0.5q13.5 -0.5 21.5 2q8 2 20.5 9q8 4.5 12.5 6q5 1.5 11 1.5q19 -0.5 30 -15q10.5 -14.5 11 -41.5q0 -33.5 -15 -70q-14.5 -36.5 -43.5 -74q-67.5 -88 -187.5 -123.5l-8 14.5" />
</g>
<g id="PathID_791" transform="matrix(0.0107353, 0, 0, 0.0107353, 41.9, 11.65)">
<path style="fill:#000000;fill-opacity:1" d="M82 122q27.5 -13 47 -27.5q19.5 -14 35 -33q20.5 -26 32 -57q11.5 -30.5 12 -62q-0.5 -43.5 -21.5 -68.5q-21 -25 -57.5 -25.5q-30.5 0.5 -49.5 19q-18.5 19 -19 48.5q-0.5 25 13.5 39q14 14.5 47 22.5q11 2 15.5 7q4 4.5 4 13.5q0 27.5 -19.5 51.5q-19 24 -59.5 48l20.5 24.5" />
</g>
<g id="PathID_792" transform="matrix(0.0107353, 0, 0, 0.0107353, 52.85, 11.65)">
<path style="fill:#000000;fill-opacity:1" d="M846.5 -195.5q-26 22 -47 38q-20.5 16 -40 28.5q-20 12.5 -43 24.5q-59 31 -119.5 48q-61 17 -114 17.5q-27 0 -50.5 -7.5q-23.5 -7 -40.5 -20q-21.5 -17.5 -31.5 -47q-9.5 -29.5 -9.5 -76q0 -37 3.5 -91.5q3.5 -54 9.5 -115.5q6 -61.5 13 -119.5q7 -58 14 -102q7.5 -43.5 13 -63q6.5 -17 8.5 -24.5q1.5 -7.5 1.5 -12.5q0 -16 -15 -31.5q-15 -15 -44.5 -29q-24.5 -10.5 -49 -17q-25 -6.5 -43.5 -6.5q-8 0 -14 2q-6.5 2.5 -14.5 8.5q36 14.5 54 29.5q18 14.5 23.5 39q6 24.5 5.5 67.5q0 17.5 -0.5 37.5q-0.5 20 -2 52l-4.5 86.5q-3 47 -4.5 93q-2 46 -3 85.5q-1 40 -1 68.5q0 64.5 6.5 105.5q7 41.5 22 67.5q24 41.5 67.5 64q44 22.5 102.5 23q64 0 128 -25.5q63.5 -25 122.5 -72.5q59.5 -47 109 -114l-12.5 -11" />
</g>
<g id="PathID_793" transform="matrix(0.0107353, 0, 0, 0.0107353, 63.8, 11.65)">
<path style="fill:#000000;fill-opacity:1" d="M763 -798q30 28 51.5 55.5q22 27.5 36.5 55.5q11 20 16 28.5l6.5 11.5q1.5 2.5 2 4q4.5 5 9 7.5q4 2.5 8.5 2.5q3.5 0 7 -2q4 -2 6.5 -5q4.5 -6 8 -17q3 -11.5 3 -21q0.5 -17 -4.5 -28.5q-5 -11.5 -17 -25q-16 -16.5 -47 -36q-31 -19.5 -78 -41.5l-8 11M857 -852q36.5 27 62 57q25 30.5 47 73q6 12 11.5 17.5q6 5 13 5q11.5 -0.5 18.5 -14q7 -14 7 -37q-0.5 -29 -39 -57.5q-38.5 -29 -112.5 -54.5q-3.5 5.5 -7.5 10.5M299 -367.5q-27.5 65.5 -55.5 131l-43 103.5q-9 -30.5 -12.5 -60q-3.5 -29 -3.5 -68q0 -82.5 20.5 -169q20 -86 57 -164q8 -16.5 11.5 -24.5q3.5 -7.5 4.5 -11.5q0.5 -4 0.5 -9q0 -15 -9.5 -35q-9.5 -20.5 -27.5 -43q-21 -27 -37.5 -39q-16.5 -11.5 -34 -12q16 25.5 23 46.5q6.5 21 6.5 43.5q0 8 -1 17.5q-1 9.5 -4.5 26.5q-3 17 -9.5 48q-17.5 80 -27.5 139q-10 59.5 -14.5 107.5q-4 48.5 -4 95q0 57.5 8.5 111.5q9 54 24 94q9.5 24 20 35q11 11 24 11q6 0 11 -3q4.5 -2.5 8.5 -8q3.5 -5.5 5 -13.5q1.5 -8 2 -31.5q0 -18 3 -36.5q3 -18 10.5 -50.5l16.5 -67l22 -83.5q11.5 -42.5 21 -76l-15.5 -5M408 -536.5q37 39 75.5 55.5q38.5 16.5 93 16l45 -2l45.5 -6l1 131l2 109.5l0 6l0 11.5l-35 -2l-27.5 -1q-89 0.5 -140 31.5q-51.5 30.5 -52.5 84q1 47 42.5 75.5q41 28 109 29q77.5 -0.5 120 -31q43 -31 43.5 -86.5q0.5 -5.5 0 -11.5q0 -6.5 -1 -13q29 12 53.5 30q24.5 18 57.5 51.5q14.5 15 22.5 20.5q7.5 5.5 13 5q9 0 14.5 -10.5q6 -10.5 6 -27q0.5 -44.5 -40 -76q-40.5 -31.5 -129 -55q-5 -42 -8 -80.5q-2.5 -38 -4 -84.5q-1 -46.5 -1 -114q53.5 -10.5 94 -23q41 -13 64 -26q22.5 -13 23 -24.5q0 -5.5 -3.5 -10.5q-3.5 -5 -9.5 -8q-10 -5.5 -24.5 -9.5q-14 -3.5 -24 -4q-6.5 0 -10.5 2q-4.5 2 -12 9.5q-13 11.5 -36 21.5q-23 10.5 -58 20.5q3 -52.5 8 -84q5 -32 13.5 -53.5q6.5 -16.5 8 -22q1.5 -5 1 -9.5q0 -11.5 -11 -21q-11.5 -9 -34 -16q-15 -4 -33.5 -6.5q-18.5 -2.5 -36 -2.5q-19 -0.5 -29 3q-10 3.5 -20 13q24.5 2.5 41.5 8q16.5 6 26 16q6.5 6 9.5 17.5q3 11.5 4 40q1 28 0.5 84.5l0 19l0 26q-31.5 7 -60.5 11q-29 3.5 -56 3.5q-37.5 0.5 -67 -9q-29.5 -9.5 -65 -33l-9 11.5M669 -161.5q0 27.5 -3 43q-3 15.5 -10.5 28.5q-12.5 23.5 -41.5 36q-28.5 12 -71 12q-46 -0.5 -73 -17q-27 -16 -27.5 -43.5q0.5 -34 35 -52.5q35 -18.5 96 -19q28 0 51 3q23 3 44.5 9.5" />
</g>
<g id="PathID_794" transform="matrix(0.0107353, 0, 0, 0.0107353, 74.75, 11.65)">
<path style="fill:#000000;fill-opacity:1" d="M372.5 -820.5q13.5 31.5 25 49.5q11.5 18 27.5 32.5q18.5 17.5 40.5 31q22.5 14 52.5 27.5q-15 6.5 -26 10.5q-11.5 4 -31.5 10l-63.5 18.5q-45.5 13.5 -70 24.5q-25 11 -35 22.5q-10 9 -13.5 20.5q-3.5 12 -3 38q-0.5 15 -5 45.5q-4 30.5 -14.5 89.5l-7.5 48.5l-5 37q-3.5 27 -6 38.5q-2 11.5 -5 22.5q-1 6 -2 10.5q-1 5 -1 6q0 9.5 5.5 22.5q5.5 13.5 16 30q12 17.5 22.5 25.5q11 8 22.5 8q8 0.5 14.5 -4.5q6.5 -4.5 14 -16q11.5 -19 24 -33.5q12 -14 32.5 -31q61 -52.5 125 -82q64 -29 119.5 -29.5q57 0.5 90 30.5q33.5 30 34 81q0 48 -24.5 88.5q-25 40.5 -78 77.5q-33.5 23 -70 40q-37 16.5 -82.5 29q-45.5 12.5 -104.5 22l3 16.5q71.5 -3 126.5 -12.5q55 -9 106 -27.5q96.5 -33.5 149 -90q52.5 -56.5 53 -128q-0.5 -47 -25.5 -83q-24.5 -36 -68.5 -56q-44 -20.5 -102 -21q-70 0 -155 32.5q-85 32.5 -178.5 94.5q1 -34.5 3.5 -72q2.5 -38 6 -73q3 -35.5 7 -63q1.5 -13.5 2 -21.5q1 -7.5 1 -11q0 -7.5 -1.5 -14q-1.5 -6.5 -6 -19q-3 -10 -4.5 -16.5q-1.5 -7 -1.5 -13q0 -8 3 -15q3 -7.5 8.5 -13q5 -5 15.5 -9q10.5 -4 31.5 -9q33.5 -9 69 -15.5q35.5 -6.5 68.5 -10q32.5 -3.5 58 -3.5l27.5 1l22.5 2l15 2.5q4.5 1 6.5 1q11 -0.5 18 -6.5q6.5 -6 7 -15q0 -9.5 -5.5 -21q-6 -11 -17.5 -24.5q-9 -11 -19 -17q-10 -6 -22.5 -8.5q-18.5 -4 -38.5 -9q-20.5 -5.5 -35.5 -10.5q-34.5 -11.5 -57 -23q-22.5 -11 -39.5 -27q-16.5 -15.5 -33.5 -40l-13.5 7" />
</g>
<g id="PathID_795" transform="matrix(0.0107353, 0, 0, 0.0107353, 85.7, 11.65)">
<path style="fill:#000000;fill-opacity:1" d="M484 -825.5q32 20.5 44.5 34q12.5 14 12 26.5q0.5 11.5 -12.5 34q-13 22.5 -47 66q-33.5 43.5 -95 118q-31 38 -48.5 62.5q-17 24.5 -24 42q-7 17 -6.5 33q0 20.5 9 40.5q9.5 20.5 30 45.5q39.5 46 63 74l37.5 45q14 17.5 24.5 32q11 14.5 24.5 34.5q27 38 49.5 76q22.5 37.5 36.5 68q12.5 27 19 35q6.5 8 16 7q16 0 25.5 -16q9 -16 9 -45.5q0.5 -20 -3 -36q-4 -15.5 -12 -31.5q-17.5 -35 -62 -83.5q-44 -49 -126.5 -125.5l-41 -37q-13 -12 -18.5 -17.5l-12.5 -13q-15 -15.5 -23 -29q-7.5 -13.5 -7.5 -24q-0.5 -14.5 11 -34q11.5 -19.5 38 -49q17.5 -19.5 51 -52q34 -33 71.5 -67q37.5 -34 66 -58q27 -22 39.5 -33.5q13 -11.5 16.5 -17.5q4 -6.5 3.5 -12.5q0 -10.5 -5 -20q-5.5 -9 -17.5 -21q-15 -14 -36 -26.5q-21 -12.5 -42 -20q-21 -7.5 -36 -8l-11.5 1q-4.5 1 -10 3" />
</g>
<g id="PathID_796" transform="matrix(0.0107353, 0, 0, 0.0107353, 96.65, 11.65)">
<path style="fill:#000000;fill-opacity:1" d="M846.5 -195.5q-26 22 -47 38q-20.5 16 -40 28.5q-20 12.5 -43 24.5q-59 31 -119.5 48q-61 17 -114 17.5q-27 0 -50.5 -7.5q-23.5 -7 -40.5 -20q-21.5 -17.5 -31.5 -47q-9.5 -29.5 -9.5 -76q0 -37 3.5 -91.5q3.5 -54 9.5 -115.5q6 -61.5 13 -119.5q7 -58 14 -102q7.5 -43.5 13 -63q6.5 -17 8.5 -24.5q1.5 -7.5 1.5 -12.5q0 -16 -15 -31.5q-15 -15 -44.5 -29q-24.5 -10.5 -49 -17q-25 -6.5 -43.5 -6.5q-8 0 -14 2q-6.5 2.5 -14.5 8.5q36 14.5 54 29.5q18 14.5 23.5 39q6 24.5 5.5 67.5q0 17.5 -0.5 37.5q-0.5 20 -2 52l-4.5 86.5q-3 47 -4.5 93q-2 46 -3 85.5q-1 40 -1 68.5q0 64.5 6.5 105.5q7 41.5 22 67.5q24 41.5 67.5 64q44 22.5 102.5 23q64 0 128 -25.5q63.5 -25 122.5 -72.5q59.5 -47 109 -114l-12.5 -11" />
</g>
<g id="PathID_797" transform="matrix(0.0107353, 0, 0, 0.0107353, 107.6, 11.65)">
<path style="fill:#000000;fill-opacity:1" d="M107.5 -668q-6.5 9 -9 15q-2.5 6 -2 12q0 12.5 7 31q7 18.5 19.5 37.5q18 28 39 44q21 16 40 16.5q9 0.5 17.5 -2.5q8.5 -3 23.5 -12q25.5 -13.5 70 -31.5q44 -18 93.5 -34q58 -19 107.5 -32q49 -13.5 94.5 -23q45.5 -9 92 -15.5q-42.5 21.5 -72 39.5q-30 18.5 -52.5 36.5q-22.5 18.5 -42.5 40.5q-53.5 58 -82.5 122.5q-28.5 64.5 -29 127.5q0 71.5 30 129.5q30 58 88.5 100q29.5 20.5 66.5 37.5q37 16.5 74.5 26q37 10 67 10q17 0 27.5 -7.5q10 -8 10.5 -21q-0.5 -9.5 -8.5 -22.5q-8.5 -12.5 -22.5 -26.5q-10.5 -10 -19.5 -13.5q-8.5 -3.5 -23.5 -3q-22.5 -1 -50.5 -7.5q-28 -6.5 -54 -17q-66 -29 -100.5 -80q-34.5 -51 -34.5 -122q0.5 -65 29 -125.5q28.5 -60.5 77.5 -108.5q48.5 -48 110 -76q61.5 -28.5 127.5 -29l13 0.5q6 0 15.5 1.5q5.5 1 10.5 1l8 0q15 0 23.5 -7q8.5 -7 8.5 -18.5q0 -10.5 -7.5 -20q-7 -9 -22.5 -19q-15.5 -9.5 -30.5 -15.5q-15 -6 -24.5 -6q-6 0 -13.5 2q-7.5 1.5 -22.5 6q-15 5 -32 10q-17.5 4.5 -42.5 10q-25 5.5 -63.5 13q-51 10 -92.5 19q-41.5 9 -73.5 17q-85 20.5 -137 32.5q-52 12.5 -80 18.5q-28 6 -42.5 8l-24 1.5q-15 0 -25.5 -3.5q-10 -4 -20.5 -14q-12 -10.5 -19.5 -22.5q-7.5 -12 -14.5 -30" />
</g>
<g id="PathID_798" transform="matrix(0.0107353, 0, 0, 0.0107353, 118.55, 11.65)">
<path style="fill:#000000;fill-opacity:1" d="M424 -707.5l18.5 -19q9 -9.5 20 -23.5q11.5 -14 30 -38.5q4 -4.5 10 -12.5q6 -8 14.5 -18q28 -6 38 -10.5q10 -4 9 -10q1 -5 -5 -8.5q-6 -4 -32 -11.5q-26 -7 -84 -22q-6 44.5 -18.5 88.5q-13 44 -31.5 85.5l-111.5 0l-31.5 -21.5q-12.5 -9 -25.5 -17q-13 -8.5 -32 -20q1.5 29 2.5 82l1 137.5q0.5 84.5 0.5 209q0 56 -0.5 124l-2 138q-1 70.5 -2.5 133l0 1l0 1q0 7 4 10q4.5 2.5 15.5 2.5l15.5 -0.5l18.5 -1.5l12 -1q5 -1.5 7.5 -5q2.5 -3 2.5 -8.5l0 -1l0 -2l0 -65.5l477.5 0l0 74.5q0 7 2.5 10q2.5 2.5 9 2.5l20 -1l22 -3q10.5 -1.5 14 -3q5.5 -1.5 7.5 -4.5q2.5 -3 3 -10l-3.5 -83.5q-1.5 -36 -2.5 -71.5l-1 -83q-0.5 -47 -0.5 -117.5l0 -176l0 -186.5q19 -9 26.5 -15.5q7.5 -6 7.5 -11q0 -4 -2.5 -7.5q-2.5 -4 -8 -9q-18 -15 -30 -24.5q-12 -10 -32.5 -25.5q-14.5 14.5 -22.5 24.5q-8.5 10 -21.5 26.5l-308 0M267 -495.5l0 -188.5l477.5 0l0 188.5l-477.5 0M744.5 -472l0 200l-477.5 0l0 -200l477.5 0M744.5 -248.5l0 212l-477.5 0l0 -212l477.5 0" />
</g>
<g id="PathID_799" transform="matrix(0.0107353, 0, 0, 0.0107353, 129.5, 11.65)">
<path style="fill:#000000;fill-opacity:1" d="M98.5 -244q-0.5 7 3.5 9.5q4.5 3 15 3l22 -1.5q12 -1 17 -2.5q6 -1.5 8 -4.5q2 -3.5 2 -10l0 -19.5l122.5 0l0 101.5l-160.5 0l-37 -1.5q-15.5 -1.5 -33.5 -4.5l7 34.5q18 -3 30.5 -4l28 -1l165.5 0l0 88q-77.5 7.5 -136 12q-59 4 -107.5 5.5q14.5 58 22.5 80q8.5 22.5 15.5 21.5q5 0 9.5 -8q4 -8.5 9 -29l24 -5.5l30.5 -6l57 -11.5q38 -8 104 -21q28 -6 58 -13q30 -6.5 71.5 -17q41 -10 102 -26.5l-2 -12l-70 9.5l-60.5 7.5l-67 7.5l0 -82l216 0q4 0 6.5 -2q2.5 -2 3 -5q0 -1.5 -1 -3.5q-1 -2 -3.5 -5q-15 -12.5 -26 -21l-21.5 -17q-11 -9 -27 -21.5q-14 15.5 -23.5 25.5l-24.5 26l-98.5 0l0 -101.5l128 0l0 12.5l0 3q0 6 5 9q5 3 14.5 3q24.5 0.5 34.5 -4q10 -4.5 9.5 -15.5l-1.5 -64q-0.5 -25 -0.5 -44.5l0 -19.5l0 -21.5q0 -12.5 0.5 -36.5q0 -24 0.5 -65.5q18.5 -13.5 23 -17.5q4.5 -4 3.5 -7q0 -2.5 -2.5 -5.5l-8.5 -8q-15.5 -12 -25 -20l-25.5 -20q-10.5 12.5 -18 20l-17.5 20l-120 0l0 -82l238.5 0q6.5 0 10 -1.5q3.5 -1.5 3.5 -4.5q0 -1.5 -1.5 -4l-3.5 -4.5l-27.5 -21.5q-11 -9 -23 -18l-28.5 -21.5q-15.5 15.5 -24.5 25.5q-9 10 -22.5 26.5l-121 0l0 -95l58 -12q26 -5.5 51.5 -11.5l55.5 -14.5l30 2l13 1q8.5 0 13.5 -2.5q5 -3 5 -6.5q0.5 -3.5 -3 -7q-4 -3 -18.5 -11.5l-31 -17.5q-18 -10.5 -38 -20.5q-28.5 16.5 -67.5 31.5q-38.5 14.5 -101.5 32q-67.5 19 -131 33.5q-63.5 14 -119.5 23l2 14q61.5 -3.5 113.5 -9q52 -5 107.5 -13.5l0 84l-164.5 0l-37 -2q-22 -2 -41 -5q4 17.5 7.5 35.5q24.5 -3 40 -4l30.5 -1l164.5 0l0 82l-115.5 0l-26 -14l-21.5 -11.5l-27 -14.5l3 65.5q0.5 20.5 1 31l0 23.5q0 38 -0.5 78.5q-0.5 40.5 -1.5 78l-2 68.5l0 2M477 -293l-128 0l0 -107.5l128 0l0 107.5M477 -424l-128 0l0 -103.5l128 0l0 103.5M288.5 -293l-122.5 0l0 -107.5l122.5 0l0 107.5M288.5 -424l-122.5 0l0 -103.5l122.5 0l0 103.5M768 -581.5q2 -39 3 -66q1 -27.5 1.5 -57.5l1.5 -78.5q26 -11.5 34 -17q8 -5.5 8 -11.5l0 -1q0.5 -7.5 -27 -13q-27.5 -5 -85.5 -8.5l2.5 37.5l1 33.5q0.5 17 0.5 41.5q0 30.5 -1 65q-1 34 -3 75.5l-48.5 0l-37.5 -1.5l-45 -5.5l10 36.5q23 -3.5 38 -5l27.5 -1l54.5 0q-6.5 120 -21 206.5q-14 86 -39.5 150q-25 64 -63.5 116.5q-36 48 -79 84q-43.5 36.5 -107.5 71.5l8 12.5q29.5 -11 50.5 -20.5q20.5 -9.5 38 -19.5q17 -10 35.5 -23.5q58 -40.5 101 -92q43 -51.5 70 -113q29 -65 47 -157q17.5 -91.5 25 -215.5l116.5 0q-4 194 -16 325.5q-12 131.5 -32 191.5q-4.5 14.5 -16 20.5q-11 6 -33 6q-10.5 0 -35 -1l-54 -3l-58.5 -4l0 14q40 7.5 62 14q22 6.5 35 14q10 4 15 12q5 8.5 15 35q33 -5 52.5 -11.5q19.5 -6.5 35.5 -17.5q20 -11 31.5 -30q11 -19 20.5 -56q16 -60 27.5 -179.5q11 -120 17.5 -306.5q17.5 -15 24.5 -21.5q6.5 -7 6.5 -10q0 -4 -2 -7q-2.5 -3.5 -8.5 -8.5l-27.5 -21.5q-11 -8.5 -29.5 -21l-19 21.5l-19 21l-108.5 0" />
</g>
<g id="PathID_800" transform="matrix(0.0107353, 0, 0, 0.0107353, 140.45, 11.65)">
<path style="fill:#000000;fill-opacity:1" d="M758 -261.5l0 33q0.5 5 3.5 7q3.5 2 11 2q21.5 0 36 -2q14 -2 19 -5q2 -1.5 3 -4.5q1 -2.5 1 -8q-3 -54.5 -4 -114.5q-1 -59.5 -1 -134l0 -61.5q24 -11 33 -17.5q8.5 -6.5 8 -12q0 -3 -2.5 -6q-2.5 -3 -8 -7.5l-32.5 -23.5l-30.5 -21.5q-14 13.5 -22 22.5l-20 22.5l-213.5 0l0 -108.5l428.5 0q4.5 0 6.5 -1.5q2.5 -1.5 2.5 -3.5q0 -1.5 -1 -3.5q-1 -2 -4 -5l-33.5 -29.5q-13.5 -12 -27.5 -23.5l-35.5 -28.5q-13.5 15 -22 25l-17 20.5q-8.5 10.5 -20 26l-277 0l0 -28.5q0 -11.5 0.5 -24.5q0 -13 0.5 -35q24 -6.5 33.5 -12q9 -5 8.5 -11.5q1 -7.5 -13 -11.5q-14 -4 -51.5 -6l-22 -1.5l-31 -2.5q2.5 23.5 3.5 37.5q1 14.5 1.5 34.5q0.5 20.5 1 61l-308 0q-26 0 -44 -2q-18 -1.5 -36 -6l4 39.5q14.5 -4.5 33 -6q18.5 -2 43 -2l308 0l0 108.5l-205 0q-15.5 -10 -26.5 -16.5l-22 -13q-11.5 -6 -28 -15.5q2 30.5 3 59q1 29 1.5 64q0.5 35 0.5 84q0 44.5 -0.5 77q-0.5 33 -1.5 63.5q-1 31 -3 70q0 7 4 9.5q4 3 13.5 3q35 0 46.5 -3q11.5 -3 10.5 -13.5l0 -38l207 0q-0.5 35 -0.5 52q-0.5 17.5 -0.5 30.5l0 33.5l-307 0l-57.5 -2q-24.5 -2 -48 -7l5 40.5q17.5 -3.5 42.5 -6l58 -2l307 0q-1 71.5 -2 120.5q-1.5 49 -2 75q0 6 2.5 8q3 2.5 10.5 2.5l34 -2l23.5 -2.5q3.5 -1 5.5 -4q1.5 -3 1.5 -9q-0.5 -17.5 -0.5 -30q-0.5 -13 -0.5 -30l-1 -46.5q0 -30 -1 -82l450 0q3 0 5.5 -2q2.5 -1.5 2.5 -3q0 -2.5 -1 -4.5q-1 -2.5 -3 -5l-33 -32.5q-13.5 -13 -27.5 -25.5q-14 -12.5 -35 -30q-14.5 16.5 -24 28q-10 11 -19.5 22.5l-24 28.5l-292 0l0 -26.5l0 -7.5l0 -43.5l0 -21l0 -17.5l219.5 0M758 -285l-219.5 0l0 -135l219.5 0l0 135M758 -443.5l-219.5 0l0 -125l219.5 0l0 125M470 -285l-207 0l0 -135l207 0l0 135M470 -443.5l-207 0l0 -125l207 0l0 54.5l0 26.5l0 44" />
</g>
<g id="PathID_801" transform="matrix(0.0107353, 0, 0, 0.0107353, 151.4, 11.65)">
<path style="fill:#000000;fill-opacity:1" d="M309.5 -382l-54.5 143.5q-8 22 -16 41.5q-8 19.5 -21 45.5q-10.5 -31.5 -15 -62.5q-4.5 -31.5 -4.5 -72.5q0 -33.5 3.5 -65.5q3 -32.5 10 -61.5q5.5 -24.5 14.5 -54q9 -29.5 19.5 -58.5q11 -28.5 21.5 -50.5q10 -20 14.5 -30.5q5 -10.5 6 -16.5q1 -6.5 1 -14.5q0 -16.5 -9.5 -37q-9.5 -20 -28.5 -43.5q-20.5 -27 -36.5 -38.5q-16 -11.5 -32.5 -12q15.5 27 22.5 49.5q6.5 22 6.5 47q0 15.5 -3.5 37.5q-3.5 22 -11 57.5l-16.5 78.5q-6.5 29 -9.5 46.5q-3 17 -5 32q-2.5 15 -5 36.5q-3.5 31 -6 58.5q-2 28 -2 51q0 62.5 9.5 120q9.5 57 26.5 98q8.5 20.5 19.5 31.5q11.5 10.5 24.5 10.5q8.5 0 15 -4.5q6.5 -4.5 9.5 -13q1.5 -4 2.5 -13q1 -9.5 1 -31q-0.5 -15.5 1 -28.5q1.5 -13.5 5.5 -32q3.5 -18 10.5 -48l33 -137q11.5 -48.5 13.5 -55.5q-7.5 -2.5 -14.5 -5M441.5 -639q32 31.5 64.5 44.5q32.5 13.5 74.5 13l16.5 -0.5l25.5 -1.5q-12.5 9.5 -37.5 30q-25 20.5 -59.5 50l10 10q21 -13.5 45.5 -27.5q24.5 -14.5 47.5 -26.5q23 -12 39 -18.5q29 -12 62.5 -20.5q33.5 -8 83 -15.5q16 -3 22.5 -8.5q6.5 -5 6 -15q0 -10 -7.5 -19.5q-8 -9.5 -24 -18.5q-11 -7 -20.5 -10.5q-9 -3.5 -15.5 -4q-5 0 -9 1.5q-4 1.5 -13.5 7q-22.5 12 -58.5 22.5q-36 10.5 -75 17q-39.5 6.5 -72 6.5q-27 0.5 -48 -6q-21.5 -6 -47.5 -21.5l-9 12M435 -329.5q-6.5 24 -9.5 43q-2.5 19 -2.5 37.5q0 42 14 75q13.5 33 41 58q35 31 102 46.5q67 16 163.5 16q43.5 0 77.5 -3q33.5 -3 50.5 -8q10.5 -4 16.5 -10.5q6 -6 6 -15.5q-0.5 -12.5 -11 -26.5q-10 -13.5 -25 -23.5q-15 -9.5 -28.5 -10q-6 0 -15.5 3q-16 6.5 -24 9.5q-8 3 -14 4q-6 1.5 -16 3q-21 3.5 -43 5.5l-44.5 1.5q-118 0.5 -171 -37q-53 -38 -52 -121.5q0 -9.5 1 -19q0.5 -9.5 2 -24l-17.5 -4" />
</g>
<g id="PathID_802" transform="matrix(0.0107353, 0, 0, 0.0107353, 162.35, 11.65)">
<path style="fill:#000000;fill-opacity:1" d="M579.5 -700.5l10 -10.5l6.5 -8l42 -49.5l19 -21.5q5.5 -6.5 11.5 -13q23 -3.5 34.5 -8.5q11.5 -5 11.5 -12q1 -3.5 -6.5 -7.5q-7 -3.5 -33 -9.5q-25.5 -6 -80 -17.5q-4.5 30.5 -10.5 55.5q-5.5 25.5 -14 49.5q-8.5 24.5 -20.5 52.5l-73 0l-26 -18q-11 -7.5 -22.5 -14q-11 -6.5 -28 -16q1 19.5 2 50.5l1 81l1 128.5l0 192.5l0 76l-1 54l-1.5 40q-0.5 12.5 -0.5 17.5l0 9l0 10l0 12.5q2 5.5 5 7.5q3.5 2 9.5 2l39 -3q12 -1.5 14.5 -5.5q3 -3.5 2.5 -11l0 -2.5l0 -2.5l0 -56.5l342 0l0 54q0.5 8.5 2 11.5q1 3 4 3l45.5 -2.5q13.5 -1.5 16.5 -4.5q3 -3 2.5 -9.5l-1 -65q-0.5 -59.5 -2 -172q21 -13.5 27.5 -19q7 -5.5 6 -10q0.5 -2 -0.5 -4q-1 -2.5 -3.5 -6q-20 -16 -33.5 -25.5q-13 -9.5 -34 -23q-12 13.5 -19.5 23.5q-7 9.5 -17 25l-336 0l0 -122l321.5 0l0 29.5l0 3q0 6 4.5 9q5 2.5 15 2.5l2 0l2 0l5.5 0l3.5 -1q22 -0.5 29.5 -3q7 -2.5 6.5 -8.5l0 -0.5l0 -1.5q-0.5 -14.5 -1 -47q-0.5 -32.5 -0.5 -68q-0.5 -36 -0.5 -60l0 -7.5l0 -15l5.5 -4q3 -1.5 6 -3.5q6 -4.5 9.5 -7l3.5 -2q5.5 -4.5 8 -7.5q2.5 -2.5 2.5 -5q0 -2 -1.5 -4.5q-1.5 -2 -4 -4.5l-24 -17.5l-20 -14q-10 -6.5 -24.5 -16.5l-18.5 23.5q-7 9.5 -17 24.5l-205 0M471 -518l0 -159l321.5 0l0 159l-321.5 0M471 -172l0 -177l343 0l0 177l-343 0M72 -814q38 46 59.5 76q21.5 29.5 35.5 57q14 27.5 31 67.5q6 16 13.5 24q7.5 8 16 8q7 -0.5 14.5 -12q8 -11 13.5 -26.5q5.5 -16 5.5 -30.5q0.5 -16 -6 -30.5q-6.5 -14.5 -20.5 -28.5q-18 -20 -38 -37q-20 -17 -47 -35.5q-27.5 -18.5 -66.5 -42.5l-11 10.5M52.5 -391q18 -4 31 -5.5l30.5 -1l92 0l0 264.5q-40 32.5 -83 56.5q-43 24.5 -81 35.5l12.5 29q5 11 11.5 23l20 36q5.5 9 10 13.5q4 4 8.5 4q5.5 0 8.5 -5q3 -4.5 3 -12.5q0 -1.5 -1 -9.5l-1 -20q29.5 -28.5 49.5 -49.5q20 -21 38.5 -44q18.5 -23 44 -57q15.5 36.5 33.5 62q18.5 25.5 46 48.5q22.5 20 48 32.5q25.5 13 60.5 20q35 7.5 86.5 10q51.5 3 125.5 3l295 0q3.5 -20.5 9.5 -32.5q6 -12.5 18 -20.5q12 -8.5 35 -17.5l0 -13.5l-148 7l-102.5 4.5l-74.5 2.5q-32 1 -63 1q-30.5 0.5 -68.5 0.5q-47.5 0 -82 -3q-35 -2.5 -62 -9q-27.5 -6.5 -52.5 -18q-31 -12.5 -48.5 -30.5q-17.5 -17.5 -28.5 -47l0 -250q11.5 -8 17.5 -12.5l7 -5q1.5 -1.5 3 -4q1 -2.5 1 -4q0 -3 -1.5 -6q-1.5 -3 -5.5 -6.5q-13.5 -9.5 -22.5 -16q-9.5 -6.5 -19.5 -12.5q-9.5 -6.5 -24.5 -15.5l-16.5 21.5q-6.5 8.5 -15 22.5l-83 0q-17 0 -34 -2.5q-17.5 -2.5 -38 -7.5q5.5 20 10.5 40" />
</g>
<g id="PathID_803" transform="matrix(0.0107353, 0, 0, 0.0107353, 173.3, 11.65)">
<path style="fill:#000000;fill-opacity:1" d="M450.5 -414.5l-10 16.5l-7.5 13q-4.5 6.5 -12.5 19.5l-31 52.5q-11.5 19.5 -19.5 32.5q-7.5 13 -15.5 26l-20 33.5q-10.5 18.5 -16 27q-5.5 9 -9 14l-8.5 13q-19 -13.5 -30.5 -31.5q-12 -17.5 -23 -48.5q-11.5 -31.5 -17.5 -69q-6 -37.5 -6 -79.5q0 -31 4.5 -68.5q5 -37 14 -84l2.5 -15.5q0.5 -6.5 0.5 -11q0 -17.5 -11.5 -38q-11.5 -20.5 -34.5 -43q-23.5 -23 -43.5 -36.5q-20.5 -13.5 -33.5 -13.5l-4.5 0l-4.5 0q22 27.5 33 50q11 22 15 51q4 28.5 4.5 75q-0.5 54 0 85.5q1 31.5 2.5 52.5q1.5 20.5 4.5 42.5q7.5 61.5 25.5 114q18 52.5 44 90.5q16.5 24 37 43.5q20.5 20 41 31.5q20 12 34.5 12q9.5 0 16 -7.5q6.5 -7 6.5 -18q0 -4 -0.5 -8q-0.5 -4.5 -1.5 -8.5l-5 -24q-1 -5.5 -1 -10.5q-0.5 -20 8.5 -51q8.5 -31 29.5 -84.5q21 -53 58.5 -138l-15.5 -7M679 -580.5q43.5 23.5 75 56.5q31 33 52 77.5q8.5 19 15.5 43q7.5 23.5 11.5 48q4.5 24 4.5 43q0.5 14 -4 20q-4.5 6 -19.5 11l-41.5 12q-34.5 10 -97 27q1.5 7.5 3.5 15l43 -1.5q17.5 -0.5 34.5 -0.5q32.5 0 50 3q17.5 2.5 27 9.5q10.5 6.5 17 9q6.5 2.5 13.5 2q23.5 -0.5 37.5 -22q13.5 -21.5 14 -58.5q-0.5 -72 -31.5 -136q-30.5 -64 -82.5 -109.5q-52.5 -45.5 -117.5 -61l-5 12.5" />
</g>
<g id="PathID_804" transform="matrix(0.0107353, 0, 0, 0.0107353, 184.25, 11.65)">
<path style="fill:#000000;fill-opacity:1" d="M427 -52q74.5 -6.5 135 -21q60.5 -14 118 -38.5q112.5 -48.5 173.5 -126q61.5 -78 62 -174q-0.5 -67.5 -33.5 -118q-33 -50.5 -91.5 -79q-59 -28 -137.5 -28.5q-52.5 0 -108.5 10q-55.5 10 -120.5 31.5q-65 22 -145.5 57q-43.5 19 -74 28q-30 9 -50 9q-10.5 0 -20.5 -4q-10 -4 -21.5 -12.5q-9 -6.5 -15 -14.5q-6.5 -7.5 -13.5 -23.5q-4.5 9 -6.5 15q-2 5.5 -2 11q1 23.5 21.5 51q20 27 48.5 46q28 19.5 53 20.5q9 0 18 -3.5q9 -4 21 -14q68 -53 140 -91q72 -38.5 141.5 -59q69.5 -21 130 -21q85 1 135.5 47.5q51 46.5 52 124.5q-0.5 81.5 -49.5 153q-48.5 71 -139 122.5q-47.5 27.5 -102 48q-54.5 20.5 -124 38l5 15.5" />
</g>
<g id="PathID_805" transform="matrix(0.0107353, 0, 0, 0.0107353, 195.2, 11.65)">
<path style="fill:#000000;fill-opacity:1" d="M177.5 -644.5q33.5 38 70.5 56.5q36.5 18.5 78.5 18.5q41.5 0 90 -8.5q49 -8 100.5 -24.5q18 28.5 37 60.5q18.5 32 35 62.5q-64 19.5 -119.5 29q-55 10 -99.5 10q-40.5 0.5 -68.5 -13.5q-28.5 -14 -52.5 -47l-12 9.5q12.5 24 23 37.5q11 13.5 26 24q22 15 47.5 22.5q26 7 59 7q31.5 0 69 -5q37.5 -4.5 75.5 -13.5q38.5 -8.5 73.5 -20.5q28.5 55 48.5 99q19.5 44.5 28 75.5q-55 -12 -101.5 -17.5q-46 -5 -91 -5q-81 0.5 -142 19.5q-60.5 19 -94 53q-33.5 34.5 -34 81q0.5 40.5 26 74q26 33.5 73 55q35 14.5 86 22.5q50.5 8 111 8l58 -2q28 -2.5 50 -5.5q22 -3.5 32 -8q8 -3 11.5 -8q4 -5 4 -11q-0.5 -13.5 -11 -25.5q-10 -12.5 -25.5 -20.5q-15.5 -8 -31 -8.5l-5.5 0.5q-3 1 -7 1.5q-35.5 8.5 -64 11.5q-28.5 3 -65 3q-94.5 0 -144 -25q-49 -24.5 -49.5 -72.5q0 -26 15 -46.5q15 -20.5 46.5 -36.5q26.5 -13.5 59.5 -21q33 -7.5 68.5 -7.5q45.5 0 90 9q44.5 9 82.5 24.5q38.5 16 65 37q11.5 10 17 13q5.5 3 11.5 2.5q15.5 -0.5 25 -18.5q9 -17.5 9 -48q0 -14.5 -4 -27.5q-4.5 -13.5 -13.5 -27.5l-17.5 -29l-12 -21l-17.5 -31.5l-9 -15.5q-4.5 -8.5 -13 -23l-24 -41.5q103.5 -36.5 151.5 -61.5q47.5 -25.5 47 -43.5q0 -12 -7.5 -19q-7.5 -6.5 -20 -7l-4 0.5l-4.5 0.5l-16 2q-3 0.5 -2 0q-15.5 0 -36.5 -7q-21 -7 -50 -21.5l-7 10.5q17.5 13.5 28 22.5q10 9.5 25.5 25.5q-13 8 -27 15q-14 6.5 -37 16q-23.5 9.5 -63 25q-21 -33.5 -33.5 -55q-12 -21 -17 -28.5l-12 -20.5l-10.5 -17.5q63 -20 101 -33q37.5 -13 49.5 -18.5q39.5 -16 53.5 -25.5q14 -9.5 13 -19.5q0 -13 -15 -20q-15 -6.5 -45 -6.5q-11.5 0 -19.5 2.5q-7.5 2.5 -13.5 7.5q-13 14 -29.5 25q-16 10.5 -43 22q-27.5 12 -74 29q-20 -39.5 -28.5 -57.5q-9 -18.5 -11 -26.5q-2 -8 -2.5 -17.5q-1 -20.5 -3.5 -27.5q-2 -7 -8.5 -12.5q-7 -6 -25 -9.5q-18 -3.5 -45 -3.5l-24 1q-11 1 -23 4q-20 4 -28 9q-8 5 -13 17.5q28.5 3 49 8.5q20 5.5 30 13q12 9 28 28q16 18.5 32 41.5q16 23 28 45.5q-23 8.5 -53 15.5q-30 7 -60.5 11q-30.5 4 -54.5 4q-39.5 0.5 -70 -10q-31 -10.5 -66 -36l-8 11" />
</g>
<g id="PathID_806" transform="matrix(0.0107353, 0, 0, 0.0107353, 206.15, 11.65)">
<path style="fill:#000000;fill-opacity:1" d="M177 -646q25 34 50.5 53.5q25.5 19 58.5 27q33.5 8 81.5 7.5q25.5 0 58 -1.5l74 -5.5l0 12l2 75l0 59l0 4.5l0 8l-56 5.5l-43.5 1.5q-45 0 -76 -6q-31 -5.5 -43.5 -16.5q-11.5 -8.5 -16.5 -22q-4.5 -13 -5 -36.5l-15.5 -1q-1 8.5 -1.5 16q-0.5 7.5 -0.5 13q0 24 12 44q11.5 20 34 33.5q18.5 11.5 52.5 17q34 5.5 83.5 5.5l28.5 -1l47.5 -2l0 15.5l0 10l0 17.5l0 30l0 9l0 7l0 14q0 7 0.5 20q0 13 0.5 37l-28.5 -1l-22.5 0q-69 0.5 -120.5 16q-52 15.5 -81.5 43.5q-29 28 -29.5 64.5q1 49 48 79q47 29.5 125 30.5q42 0 78.5 -10q36.5 -10 58.5 -28q18 -14 26.5 -35q8.5 -21 8.5 -51q0 -8.5 -1 -18.5q-0.5 -10 -2 -26.5q30.5 8 54 18q23 10 48.5 25q23 14 47.5 32.5q24.5 18 38.5 31q19 19 26.5 24q7.5 5.5 14 5q10.5 -0.5 16.5 -10q6 -9.5 6.5 -26q-0.5 -20 -8 -37.5q-7.5 -17 -22 -30q-21 -18.5 -55.5 -35q-35 -17 -78.5 -30.5q-43.5 -14 -91 -23q-2.5 -18 -3.5 -35q-1.5 -16.5 -3 -45q-0.5 -17.5 -0.5 -31l-1 -27.5l-1.5 -33.5q38 -3.5 83 -11.5q44.5 -8 84 -18.5q47.5 -12 63.5 -21.5q16.5 -9 15.5 -22.5q0 -6 -3 -11q-3.5 -5 -9.5 -8q-10 -6.5 -25.5 -11q-15 -4.5 -26.5 -4.5q-5 0 -8.5 1q-4 1 -7 3q-13.5 9.5 -23 14.5q-9.5 4.5 -28 11q-26.5 8.5 -56 15.5q-29.5 7 -61 12l-1 -53l0 -40l0 -31.5l1 -34q46 -5 95 -14q48.5 -9.5 100.5 -21.5q47 -11 64 -19.5q17 -8 16 -18.5q0 -7 -4.5 -13q-4.5 -6 -13 -11.5q-9.5 -6.5 -26 -12q-17 -5 -27 -5.5q-2.5 0 -6.5 1.5q-3.5 1 -6 2.5q-24.5 17.5 -70 32q-45 14 -120.5 28.5q2.5 -40 7 -67q4.5 -27 11.5 -41.5q9.5 -20.5 11.5 -26q2 -5.5 2 -9q0 -11.5 -8.5 -19.5q-8 -8 -26.5 -14q-18 -6.5 -41 -10q-23 -3.5 -45 -3.5q-20.5 -0.5 -31 3q-10.5 3 -20 13.5q28.5 3.5 46 11q17 7.5 26 25.5q8.5 18 12 52.5q3.5 35 5 93q-46 7 -80 10l-66.5 2.5q-38.5 0 -65.5 -4.5q-27 -4.5 -50 -16.5q-23 -12 -49.5 -34.5l-10 10.5M500.5 -145.5l0 3.5l-0.5 19.5l-1.5 19q-2.5 19 -7.5 32q-5.5 12.5 -15 21.5q-19 18 -49 27.5q-30 9.5 -68 9.5q-52.5 0 -82 -15.5q-29 -15 -29.5 -43q0 -40 55.5 -61.5q24 -9.5 52.5 -14.5q28.5 -5 59 -5l38.5 1.5l47.5 5.5" />
</g>
<g id="PathID_807" transform="matrix(0.0107353, 0, 0, 0.0107353, 217.1, 11.65)">
<path style="fill:#000000;fill-opacity:1" d="M846.5 -195.5q-26 22 -47 38q-20.5 16 -40 28.5q-20 12.5 -43 24.5q-59 31 -119.5 48q-61 17 -114 17.5q-27 0 -50.5 -7.5q-23.5 -7 -40.5 -20q-21.5 -17.5 -31.5 -47q-9.5 -29.5 -9.5 -76q0 -37 3.5 -91.5q3.5 -54 9.5 -115.5q6 -61.5 13 -119.5q7 -58 14 -102q7.5 -43.5 13 -63q6.5 -17 8.5 -24.5q1.5 -7.5 1.5 -12.5q0 -16 -15 -31.5q-15 -15 -44.5 -29q-24.5 -10.5 -49 -17q-25 -6.5 -43.5 -6.5q-8 0 -14 2q-6.5 2.5 -14.5 8.5q36 14.5 54 29.5q18 14.5 23.5 39q6 24.5 5.5 67.5q0 17.5 -0.5 37.5q-0.5 20 -2 52l-4.5 86.5q-3 47 -4.5 93q-2 46 -3 85.5q-1 40 -1 68.5q0 64.5 6.5 105.5q7 41.5 22 67.5q24 41.5 67.5 64q44 22.5 102.5 23q64 0 128 -25.5q63.5 -25 122.5 -72.5q59.5 -47 109 -114l-12.5 -11" />
</g>
<g id="PathID_808" transform="matrix(0.0107353, 0, 0, 0.0107353, 228.05, 11.65)">
<path style="fill:#000000;fill-opacity:1" d="M96 -591.5q28 48.5 61 70.5q33.5 22 79.5 21.5q22 0 45.5 -2.5q24 -2.5 53 -7.5q-34.5 100 -61.5 168.5q-27 68 -50.5 114.5q-23.5 47 -49 83.5q-10.5 15 -15.5 23q-4.5 8 -6 13.5q-1 5.5 -1 13.5q0 13.5 4 30q4 16.5 10.5 29.5q4.5 10.5 10 15.5q6 5 13.5 5q10.5 0.5 20 -11.5q9.5 -11.5 22.5 -43.5q13 -32.5 33 -92.5l33 -97.5l19 -56.5q7 -20.5 12 -36.5l13 -38l22 -68l11 -34l10 -28q49 -12.5 96.5 -28q47 -15.5 82.5 -31.5q32 -14 46 -25.5q14 -12 13.5 -24.5q0 -6 -4 -10.5q-4 -5 -12.5 -8q-13 -4.5 -28 -8q-15.5 -3 -26 -3q-6 -0.5 -11.5 3q-5.5 3 -17.5 14q-18 17 -47 32q-29 15.5 -71.5 30.5q19.5 -55 35 -93q16 -38 26 -53q9 -12.5 11 -16.5q2 -3.5 1.5 -8.5q0 -11.5 -11.5 -22q-11.5 -10.5 -34.5 -19q-23.5 -9 -46.5 -14q-23.5 -5 -41.5 -5q-9.5 -0.5 -16 1.5q-6 2 -15.5 7.5q42 14 57.5 27.5q16 14 15 37q0 18 -4.5 45.5q-4.5 28 -12 61q-8 33 -18.5 66.5q-35 10 -67.5 15q-32.5 4.5 -62.5 4.5q-32 0.5 -57 -12q-25 -12.5 -55.5 -44.5q-6 4.5 -12.5 8.5M551 -422.5q54 -20 100 -29q45.5 -9 95.5 -9q-23 23 -33.5 33l-17 15q-18 16.5 -26 24.5l-13 11.5q-4 4.5 -10 10l6 9.5q11.5 -6.5 17 -10q5.5 -3 19 -11.5q17 -11.5 25.5 -17q8.5 -5.5 15 -9l16 -9q14 -7.5 24.5 -11.5q11 -4.5 23.5 -6q12 -2 30.5 -3q22 -0.5 31 -6q8.5 -5.5 8 -17.5q0 -8.5 -4 -16.5q-4.5 -7.5 -12 -12q-13 -8.5 -30.5 -13.5q-17.5 -5 -34.5 -5q-60 0 -121 17.5q-60.5 18 -116.5 51q3 6.5 6.5 13.5M501.5 -249.5q-5 18 -7 33q-2 15 -2 31.5q0.5 51.5 23 90q22.5 38 64 58.5q34 16 82 24q48 8.5 107.5 8.5q60.5 0 90.5 -8.5q30.5 -8.5 30.5 -25.5q0 -6.5 -5 -13.5q-4.5 -7 -13.5 -15q-14 -10 -28.5 -17q-15 -7 -24 -7.5q-3 0 -7.5 1q-4.5 1 -10 3q-23.5 9 -45.5 12.5q-22 3 -52.5 3q-30.5 0 -59.5 -5q-29 -5 -50 -14.5q-38 -16.5 -58 -48q-20 -32 -20 -76l0 -11.5l1 -20l-15.5 -3" />
</g>
<g id="PathID_809" transform="matrix(0.0107353, 0, 0, 0.0107353, 239, 11.65)">
<path style="fill:#000000;fill-opacity:1" d="M192.5 -169q-36.5 0.5 -66.5 18q-29.5 18 -47.5 47.5q-17.5 30 -18 66.5q0.5 37 18 67q18 29.5 47.5 47.5q30 17.5 66.5 18q36.5 -0.5 66.5 -18q29.5 -18 47.5 -47.5q17.5 -30 18 -67q-0.5 -37 -18 -67q-17.5 -29.5 -47 -47q-30 -17.5 -67 -18M192.5 -136q42.5 1 70 29q28 28 29 70q-1 42.5 -29 70.5q-27.5 28 -70 29q-41.5 -1 -70 -29.5q-28 -28 -29 -70q1 -42 29 -70q27.5 -28 70 -29" />
</g>
</svg>
