<?xml version="1.0" encoding="utf-8"?>
<svg version="1.1" id="Layer_1"
xmlns="http://www.w3.org/2000/svg"
xmlns:xlink="http://www.w3.org/1999/xlink"
xmlns:author="http://www.sothink.com"
width="6px" height="8px"
xml:space="preserve">
<g id="PathID_825" transform="matrix(0.00784314, 0, 0, 0.00784314, -2.1, 7.7)">
<path style="fill:#000000;fill-opacity:1" d="M460 -206l-94 -160q-31.5 -54 -32 -54q-3.5 -3.5 -7.5 -6q-4.5 -2 -9 -2q-8 0.5 -20 11q-11.5 11 -20.5 24.5q-9 13.5 -9.5 23q0 12 15 36.5l59.5 95q25 41 39 66q16.5 27 24.5 39.5l11 17q3 4.5 5.5 7q6 7 12.5 10q7 3.5 13 3.5q10.5 0 23 -9q12 -8.5 28 -27q17.5 -20 38 -52.5q20.5 -32 50.5 -87q29.5 -54.5 74.5 -142q32.5 -64 54 -103.5q21 -40 26 -49q32 -61 45.5 -90q14 -29.5 14 -37q-0.5 -11.5 -8.5 -19q-7.5 -7.5 -19.5 -8q-9 -1 -17 6q-7.5 7 -23 34.5q-15.5 28 -47 88.5q-15.5 30.5 -41 75q-25.5 45 -56.5 98q-31.5 53 -64.5 107.5q-33 54.5 -64 103.5" />
</g>
</svg>
