<?xml version="1.0" encoding="utf-8"?>
<svg version="1.1" id="Layer_1"
xmlns="http://www.w3.org/2000/svg"
xmlns:xlink="http://www.w3.org/1999/xlink"
xmlns:author="http://www.sothink.com"
width="68px" height="21px"
xml:space="preserve">
<g id="PathID_2257" transform="matrix(0.235294, 0, 0, 0.235294, 2, 12.25)">
<path style="fill:#999999;fill-opacity:1" d="M44.2 -11.75q1 1.2 -0.4 1q-2.2 2.2 -5.4 5q0.2 0.8 2.8 3.4q1.2 1.2 2 0.2q1 -1 1.4 -4.4l3.4 2.6q-1.4 7.35 -4.6 7.35q-2.4 0 -4.8 -2.4q-2.35 -2.35 -3.55 -4.35q-6.8 4.55 -14.95 6.95l-2 -3.75q8.95 -2.4 15.15 -6.4q-1.6 -3.8 -2 -6.55l-8.95 0.55l-0.4 -4.15l8.75 -0.4l-0.4 -4l-6.55 0.4l-0.4 -4l6.75 -0.4l-0.2 -3.95l-7.35 0.4l-0.4 -3.8l7.55 -0.4l-0.4 -8.35l4 0q2 0.4 0.2 1.2l0.2 6.95l12.15 -1l0.6 3.8l-12.55 0.8l0.2 4.15l10.75 -0.75l0.2 3.95l-10.75 0.8l0.4 3.8l12.95 -0.8l0.2 3.8l-12.55 1q0.4 2.15 1.4 4.55q2.75 -2.2 4.95 -4.75l2.6 1.95M21.3 -28.25q-1.4 22.9 -14.55 32.25l-2.6 -3.4q7.6 -5.95 10.15 -13.7q-2.55 -1.8 -5.15 -3.4q-1.4 2.6 -3.6 5.35l-3 -2.55q5.6 -6.2 7.6 -21.55l-6 0l0 -3.75l19.95 0l0 3.75l-10.2 0q-0.4 3.4 -1.15 7l8.55 0M40.2 -34.05q-1.95 -2 -4.55 -3.6l2.6 -2.55q2.55 1.4 4.75 3.55l-2.8 2.6M15.5 -16.5q1 -3.8 1.6 -8.6l-4.95 0q-0.4 2 -1.8 5.4q2.55 1.6 5.15 3.2" />
</g>
<g id="PathID_2258" transform="matrix(0.235294, 0, 0, 0.235294, 14, 12.25)">
<path style="fill:#999999;fill-opacity:1" d="M15.5 -38.6q-1.4 7.35 -3.95 11.75l0.8 0.2q0.55 0.6 -0.4 1.15l0 29.9l-4 0l0 -24.7q-2 3 -4.2 5l-2.2 -4q8.8 -9.35 10.2 -21.9l4.35 1.6q0.8 0.8 -0.6 1M32.05 -11.75q-6.2 4.6 -15.15 7.6l-1 -3.4q9.2 -2.8 14.15 -6.95l-1.4 -1.8q-6.55 3.95 -12.95 5.75l-1.2 -3.15q7.8 -2 13.15 -6l-8.35 0l0 -8.35q-2 1.8 -4.6 3.15l-1.4 -3.55q8.4 -5.4 12 -13.55l3.75 1q0.8 0.8 -0.6 1l-0.6 1l7.6 0l0.6 -0.8l3.55 1.75q1.2 1 -0.8 1.4l-3.95 5.4l10.75 0l0 11.55l-11.95 0q-1 0.8 -2.4 1.8q2 1.4 3.6 4q4.75 -2.4 8.15 -5.2l3 3q0.2 1 -1 0.6q-3.4 1.8 -7.95 3.75q5.15 6.4 12.15 9.2l-2.4 3.75q-6.2 -3.35 -9.95 -8.75q1.4 11.75 -4.4 11.75l-4 0l-0.8 -3.8l3.4 0q3 0 2.4 -6.75q-7.2 6.2 -17.15 9.55l-1 -3.55q10.2 -3.4 17.55 -9.8l-0.8 -1.6M22.7 -22.9l7.95 0l0 -5.15l-7.95 0l0 5.15M34.05 -22.9l8.15 0l0 -5.15l-8.15 0l0 5.15M26.25 -35.85q-0.95 1.4 -3.75 4.6l8.55 0l3.2 -4.6l-8 0" />
</g>
<g id="PathID_2259" transform="matrix(0.235294, 0, 0, 0.235294, 26, 12.25)">
<path style="fill:#999999;fill-opacity:1" d="M35.65 -7.35q3.15 4 11.95 7.2l-2 4.35q-15.55 -5.15 -19.75 -21.9l-1.15 0q-2 2.8 -4.2 4.95l0 11.2l11.35 -2.2l0.6 3.4q-10.75 2.55 -21.1 4.55q-0.6 1.8 -1.2 0.6l-1.4 -4.8l7.75 -0.95l0 -8.6q-5.15 3.6 -11.55 5.8l-2 -4q9.95 -2.8 16.95 -9.95l-15.95 0l0 -3.8l19.35 0l0 -3.6l-14.35 0l0 -3.75l14.35 0l0 -3.6l-16.95 0l0 -3.8l16.95 0l0 -4.75l3.75 0q1.6 0.2 0.2 1.2l0 3.55l16.95 0l0 3.8l-16.95 0l0 3.6l14.35 0l0 3.75l-14.35 0l0 3.6l19.35 0l0 3.8l-16.95 0q1.2 3.8 4 7.95q3.8 -3.15 7.15 -6.95l3 3q0.2 0.95 -1 0.6q-3.4 3.15 -7.15 5.75" />
</g>
<g id="PathID_2260" transform="matrix(0.235294, 0, 0, 0.235294, 38, 12.25)">
<path style="fill:#999999;fill-opacity:1" d="M36.65 -17.3q3.95 6.55 10.95 11.55l-3.4 3.8q-6.55 -5.4 -11.15 -12.95l3.6 -2.4M28.05 -0.75q0 3.55 -3.35 3.55l-5.6 0l-0.8 -4.35l4.4 0q0.8 0 0.8 -0.8l0 -18.75l-19.55 0l0 -4.4l42.85 0l0 4.4l-18.75 0l0 20.35M10.55 -32.85l0 -4.4l30.25 0l0 4.4l-30.25 0M3.95 -4.95q5.6 -4 9.75 -12.15l4 2.2q1.6 1 -0.6 1.4q-3.4 7.15 -9.95 12.35l-3.2 -3.8" />
</g>
</svg>
