<?xml version="1.0" encoding="utf-8"?>
<svg version="1.1" id="Layer_1"
xmlns="http://www.w3.org/2000/svg"
xmlns:xlink="http://www.w3.org/1999/xlink"
xmlns:author="http://www.sothink.com"
width="68px" height="21px"
xml:space="preserve">
<g id="PathID_2253" transform="matrix(0.235294, 0, 0, 0.235294, 2, 12.25)">
<path style="fill:#999999;fill-opacity:1" d="M22.9 3.6q-6.2 0 -11.35 -4.75q-2.4 2.75 -7.4 5.55l-1.6 -4.95q2.2 -0.6 6.8 -3.6l0 -12.95l-6.2 0l0 -3.8l10.15 0l0 16.55q4 3.6 10.4 3.6l24.7 0l-0.8 4.35l-24.7 0M25.65 -35.05q5 1.2 6.4 1.8l3.8 -2.8l-18.35 0l0 -3.75l22.7 0l1 -0.6l3 2.15q1.2 1 -1 1.2l-7.75 5.2l2.6 1.2l-2.4 2.4l8.95 0l0 22.7q0 2.8 -2.8 2.8l-4.35 0l-0.2 -3.8l2.55 0q0.8 0 0.8 -0.8l0 -3.8l-7.55 0l0 7.8l-4 0l0 -7.8l-7.15 0l0 8.6l-4 0l0 -25.7l14.75 0q-8.35 -3.4 -9.95 -3.8l2.95 -3M33.05 -25.1l0 3.8l7.55 0l0 -3.8l-7.55 0M21.9 -25.1l0 3.8l7.15 0l0 -3.8l-7.15 0M29.05 -18.1l-7.15 0l0 3.8l7.15 0l0 -3.8M40.6 -18.1l-7.55 0l0 3.8l7.55 0l0 -3.8M8.15 -40.2q5.35 3.35 7.35 6.55l-3.35 3.6q-3.2 -4 -6.8 -6.8l2.8 -3.35" />
</g>
<g id="PathID_2254" transform="matrix(0.235294, 0, 0, 0.235294, 14, 12.25)">
<path style="fill:#999999;fill-opacity:1" d="M34.85 -2.35l3.95 0q0.8 0 0.8 -0.8l0 -5.4l-12.15 0l0 12.35l-3.95 0l0 -12.35l-11.35 0l0 9.75l-4 0l0 -13.55l15.35 0l0 -3.15l-5.2 0l-5.2 0l0 -10.95l24.35 0l0 10.95l-10 0l0 3.15l16.15 0l0 11q0 2.75 -2.8 2.75l-5.15 0l-0.8 -3.75M14.9 -32.65q-1.8 -3 -4.35 -5l3.15 -2.55q3.2 1.95 5 5.35l-3 2.2l7.8 0l0 -8.75l3.75 0q1.6 0.2 0.2 1.2l0 7.55l7.6 0l-3.2 -2l4 -6.15l3.55 2.2q1.4 0.95 -0.4 0.95l-3.35 5l11.15 0l0 9.35l-4 0l0 -6.15l-35.05 0l0 6.95l-4 0l0 -10.15l11.15 0M33.45 -23.3l-16.35 0l0 4.6l16.35 0l0 -4.6" />
</g>
<g id="PathID_2255" transform="matrix(0.235294, 0, 0, 0.235294, 26, 12.25)">
<path style="fill:#999999;fill-opacity:1" d="M35.65 -7.35q3.15 4 11.95 7.2l-2 4.35q-15.55 -5.15 -19.75 -21.9l-1.15 0q-2 2.8 -4.2 4.95l0 11.2l11.35 -2.2l0.6 3.4q-10.75 2.55 -21.1 4.55q-0.6 1.8 -1.2 0.6l-1.4 -4.8l7.75 -0.95l0 -8.6q-5.15 3.6 -11.55 5.8l-2 -4q9.95 -2.8 16.95 -9.95l-15.95 0l0 -3.8l19.35 0l0 -3.6l-14.35 0l0 -3.75l14.35 0l0 -3.6l-16.95 0l0 -3.8l16.95 0l0 -4.75l3.75 0q1.6 0.2 0.2 1.2l0 3.55l16.95 0l0 3.8l-16.95 0l0 3.6l14.35 0l0 3.75l-14.35 0l0 3.6l19.35 0l0 3.8l-16.95 0q1.2 3.8 4 7.95q3.8 -3.15 7.15 -6.95l3 3q0.2 0.95 -1 0.6q-3.4 3.15 -7.15 5.75" />
</g>
<g id="PathID_2256" transform="matrix(0.235294, 0, 0, 0.235294, 38, 12.25)">
<path style="fill:#999999;fill-opacity:1" d="M36.65 -17.3q3.95 6.55 10.95 11.55l-3.4 3.8q-6.55 -5.4 -11.15 -12.95l3.6 -2.4M28.05 -0.75q0 3.55 -3.35 3.55l-5.6 0l-0.8 -4.35l4.4 0q0.8 0 0.8 -0.8l0 -18.75l-19.55 0l0 -4.4l42.85 0l0 4.4l-18.75 0l0 20.35M10.55 -32.85l0 -4.4l30.25 0l0 4.4l-30.25 0M3.95 -4.95q5.6 -4 9.75 -12.15l4 2.2q1.6 1 -0.6 1.4q-3.4 7.15 -9.95 12.35l-3.2 -3.8" />
</g>
</svg>
