<?xml version="1.0" encoding="utf-8"?>
<svg version="1.1" id="Layer_1"
xmlns="http://www.w3.org/2000/svg"
xmlns:xlink="http://www.w3.org/1999/xlink"
xmlns:author="http://www.sothink.com"
width="311px" height="53px"
xml:space="preserve">
<g id="PathID_2290" transform="matrix(0.392157, 0, 0, 0.392157, 2, 19.1)">
<path style="fill:#000000;fill-opacity:1" d="M2.75 -16.3q0.6 -2.8 2.6 -4.8q2.2 -2.2 6.4 -2.2q4.95 0 7.15 2.2q2 2 2 4.6l0 12.55q0 2.2 1.6 3.4l-4.8 0q-0.8 -0.8 -0.8 -2.6q-3 3 -7.55 3q-3.8 0 -5.8 -2q-1.8 -1.8 -1.8 -4.2q0 -2.8 1.8 -4.6q2 -1.95 5.6 -2.55q2.4 -0.4 4.15 -1q2.6 -0.6 3.6 -1.2q0 -1.6 -1.2 -2.8q-1.2 -1.2 -3.35 -1.2q-2.8 0 -4 1.2q-0.8 0.8 -1.2 2.2l-4.4 0M16.9 -11.95q-1.2 0.4 -2.2 0.6q-3.35 0.8 -5.15 1.2q-1.6 0.4 -2.4 1.2q-1 1 -1 2.2q0 1.4 1 2.4q0.6 0.6 2.6 0.6q3.35 0 5.55 -2.2q1.4 -1.4 1.6 -2l0 -4" />
</g>
<g id="PathID_2291" transform="matrix(0.392157, 0, 0, 0.392157, 11.5, 19.1)">
<path style="fill:#000000;fill-opacity:1" d="M13.1 -39.8l4.2 0q2.2 0.4 0.4 1.55l0.4 9.6q0.2 4.15 1.4 6.75q5.6 -2.4 14.95 -4.95l2 5.15q-18.95 3.4 -25.3 9.75q-2.2 2.2 -2.2 4.6q0 1.8 1.4 3.2q1.4 1.4 5.75 1.4l19.15 0l0 4.35l-19.35 0q-6.55 0 -9.15 -2.55q-2.6 -2.6 -2.6 -6q0 -4.4 3.2 -7.55q2.4 -2.4 7.95 -5.6q-1.2 -3 -1.4 -6.55l-0.8 -13.15" />
</g>
<g id="PathID_2292" transform="matrix(0.392157, 0, 0, 0.392157, 26.8, 19.1)">
<path style="fill:#000000;fill-opacity:1" d="M2.55 -34.65l4 0l0 14.35q2.6 -3.2 6.35 -3.2q4 0 6.6 2.6q3.2 3.2 3.2 9.15q0 5.8 -3.2 9q-2.6 2.6 -6.75 2.6q-4.4 0 -6.2 -3.2l0 2.8l-4 0l0 -34.1M12.75 -19.9q-2.4 0 -4.4 2q-1.8 1.8 -1.8 5l0 2.35q0 3 2 5q1.8 1.8 4.2 1.8q1.95 0 3.35 -1.4q2.2 -2.2 2.2 -6.6q0 -4.55 -2 -6.55q-1.6 -1.6 -3.55 -1.6" />
</g>
<g id="PathID_2293" transform="matrix(0.392157, 0, 0, 0.392157, 36.7, 19.1)">
<path style="fill:#000000;fill-opacity:1" d="M27.45 -28.05q-3.35 19.9 -8.15 24.7q-2.6 2.6 -5.4 2.6q-3.15 0 -4.95 -1.8q-4.8 -4.8 -4.8 -11.95q0 -8.8 6.2 -14.95q6.75 -6.8 16.5 -6.8q8.8 0 13.75 5q5.6 5.6 5.6 13.15q0 8.15 -5.2 13.35q-3.35 3.4 -10.35 6.55l-4.2 -4.15q7 -2.2 11 -6.2q3.75 -3.8 3.75 -9.15q0 -6.4 -4.15 -10.55q-4.2 -4.2 -13.15 -3.8l3.55 1.8q2.4 1 0 2.2M22.9 -31.85q-5.2 1.2 -9 5q-5.15 5.15 -5.15 12.75q0 4.55 3 7.55q0.6 0.6 1.75 0.6q1.2 0 2.6 -1.4q4.6 -4.6 6.8 -24.5" />
</g>
<g id="PathID_2294" transform="matrix(0.392157, 0, 0, 0.392157, 56.7, 19.1)">
<path style="fill:#000000;fill-opacity:1" d="M14.1 -39.4q-0.8 5.15 -2.75 11.35q1.75 0.2 0.6 1.4l0 30.85l-4 0l0 -24.7q-1.4 2.2 -2.6 3.6l-3.2 -2.4q6.8 -8.15 8 -22.1l4.55 1q0.8 0.8 -0.6 1M33.65 -32.05l0 3.8l9.75 0l0 23.5l-18.5 0l0 -23.5l4.75 0l0 -3.8l-14.35 0l0 -3.8l14.35 0l0 -5.55l3.8 0q1.6 0.2 0.2 1.2l0 4.35l12.95 0l0 3.8l-12.95 0M28.25 -25.1l0 3.6l11.75 0l0 -3.6l-11.75 0M28.25 -18.3l0 3.4l11.75 0l0 -3.4l-11.75 0M28.25 -11.75l0 3.8l11.75 0l0 -3.8l-11.75 0M16.7 4.2l0 -31.85l3.8 0q1.6 0.2 0.2 1.2l0 25.1l27.5 0l0 3.75l-27.5 0l0 1.8l-4 0" />
</g>
<g id="PathID_2295" transform="matrix(0.392157, 0, 0, 0.392157, 76.7, 19.1)">
<path style="fill:#000000;fill-opacity:1" d="M15.7 -23.1q2.4 -0.8 4.6 -0.8q2.6 0 4.2 1.6q1.15 1.2 1.35 4.4q6 -2.2 13.55 -4.6l1.4 4.8q-7.75 1.2 -14.55 3.8l0 8.75l-3.95 0l0 -7.2q-6 2.8 -7.8 4.6q-2.15 2.2 -2.15 4.4q0 1.2 1.15 2.4q1.4 1.35 5.4 1.35l16.75 0l0 3.8l-16.95 0q-6.35 0 -8.95 -2.6q-2 -1.95 -2 -4.95q0 -3.2 2.6 -5.8q3.95 -3.95 11.75 -7.15q-0.2 -2.4 -1 -3.2q-0.8 -0.8 -3.4 -0.8q-4 0 -12.15 7.2l-3.4 -3.4q9.4 -5.8 12.75 -12.75q-5.55 0.4 -11.15 0.8l-0.8 -4q7.2 -0.2 13.55 -0.6q1 -2.4 2.4 -7.95l3.8 1q2 0.8 0 1.6q-0.8 2.55 -1.8 5.15q7.15 -0.6 13.75 -1.6l0.6 4.2q-7.8 0.6 -15.55 1.2q-2 3.95 -4 6.35" />
</g>
<g id="PathID_2296" transform="matrix(0.392157, 0, 0, 0.392157, 93.8, 19.1)">
<path style="fill:#000000;fill-opacity:1" d="M27.05 -6.75q3.6 -2.4 5.6 -5l-9.95 0q1.4 2.8 4.35 5M23.5 -14.9l11.15 0l0.6 -1l3.35 2.4q1 0.75 -0.35 0.95q-3 4.2 -8 8q5.6 3.2 17.55 4.2l-1.4 4.35q-12.15 -1 -19.55 -5.95q-10.95 5.95 -20.9 6.95l-1.6 -4.2q10.75 -0.95 19.35 -5.55q-1.6 -1.6 -3.8 -4.8q-6.2 5.6 -11.55 7l-2 -3.4q10.15 -3.4 15.15 -12.35l3.2 1.2q0.95 0.6 -0.4 0.8l-0.8 1.4M32.25 -20.9q0 3.4 -3 3.4l-2.8 0l-0.95 -3.8l2.15 0q0.6 0 0.6 -0.6l0 -9.75l-4.95 0l0 4.2q0 11.35 -13.75 14.7l-1.8 -3.75q11.55 -2.6 11.55 -10.95l0 -4.2l-15.15 0l0 -3.8l19.15 0l0 -5.95l4.35 0q2 0.4 0.2 1.6l0 4.35l19.15 0l0 3.8l-14.75 0l0 10.75M4.75 -22.9q5 -2.6 8.15 -6.75l3.6 2.8q0.6 0.8 -0.8 0.8q-2.95 4.15 -8.55 6.95l-2.4 -3.8M36.85 -29.45q5.95 3.2 9.55 6.95l-3.4 4q-4.6 -4.6 -8.95 -7.35l2.8 -3.6" />
</g>
<g id="PathID_2297" transform="matrix(0.392157, 0, 0, 0.392157, 113.8, 19.1)">
<path style="fill:#000000;fill-opacity:1" d="M6.35 -25.85q17.75 -1.2 22.7 -2l1.6 -0.8l3.4 3.35q-7.6 5.4 -12.75 11q4 -0.6 5.15 -0.2q2.2 0.8 2.2 3.35l0 6.8q0 2.4 2.4 2.2l11.55 0l-0.8 4.35l-9.95 0q-7.15 0 -7.15 -6.15l0 -5q0 -2.4 -3 -2.4q-2.6 0 -5.2 2.4q-5.15 4.8 -9.75 10.35l-3.6 -2.35q9.6 -11.2 22.5 -22.75l-17.9 2.2l-1.4 -4.35M30.25 -33.25q-8.95 -0.2 -18.5 -1.2l0.6 -4.55q7.55 1.55 18.5 1.55l-0.6 4.2" />
</g>
<g id="PathID_2298" transform="matrix(0.392157, 0, 0, 0.392157, 131.8, 19.1)">
<path style="fill:#000000;fill-opacity:1" d="M28.05 -0.95q3.2 -0.4 5.4 -2.6q2.4 -2.4 2.4 -6.4q0 -4.35 -2.6 -6.95q-2.6 -2.6 -8.15 -2.6q-6.6 0 -10.2 2.6q-3.35 2.4 -8.75 8.55l-3.4 -3q14.35 -14.3 21.75 -23.9q-6.6 0.8 -13.15 1.4l-1.4 -4.55q9.75 0 17.3 -1l1.8 -0.8l2.2 2.15q2.2 2 -1 2.6q-5.95 6.8 -11.95 13.35q4.2 -1 7 -1q7.55 0 11.15 3.6q3.55 3.6 3.55 9.15q0 5.8 -3.15 9q-4.8 4.75 -12.15 4.75q-7 0 -10.2 -3.2q-2.55 -2.55 -2.55 -6.15q0 -2.4 1.75 -4.2q2 -2 4.6 -2q3.6 0 6 2.4q2.75 2.8 3.75 8.8M24.1 -0.35q-0.6 -5.2 -2.4 -7q-1.4 -1.4 -2.8 -1.4q-1.6 0 -2.4 0.8q-1 1 -1 2.2q0 1.8 1.6 3.4q2 2 5.2 2q0.8 0 1.8 0" />
</g>
<g id="PathID_2299" transform="matrix(0.392157, 0, 0, 0.392157, 149.05, 19.1)">
<path style="fill:#000000;fill-opacity:1" d="M13.1 -39.8l4.2 0q2.2 0.4 0.4 1.55l0.4 9.6q0.2 4.15 1.4 6.75q5.6 -2.4 14.95 -4.95l2 5.15q-18.95 3.4 -25.3 9.75q-2.2 2.2 -2.2 4.6q0 1.8 1.4 3.2q1.4 1.4 5.75 1.4l19.15 0l0 4.35l-19.35 0q-6.55 0 -9.15 -2.55q-2.6 -2.6 -2.6 -6q0 -4.4 3.2 -7.55q2.4 -2.4 7.95 -5.6q-1.2 -3 -1.4 -6.55l-0.8 -13.15" />
</g>
<g id="PathID_2300" transform="matrix(0.392157, 0, 0, 0.392157, 164.35, 19.1)">
<path style="fill:#000000;fill-opacity:1" d="M37.05 -27.25q-3.8 21.7 -24.9 31.05l-3.6 -3.8q19.5 -7.95 23.5 -27.45l-15.95 0q-4.55 7.55 -9.55 12.15l-4 -2.6q10.35 -9.35 13.35 -21.9l4.6 1.55q1.2 0.6 -0.4 1.2q-0.8 2.6 -2.2 5.2l14.35 0l1.8 -1l3.6 3.6q1.35 1.4 -0.6 2M38.25 -32.05q-3.2 -4.6 -6.2 -6.95l2.6 -2.2q3.4 2.95 6.35 6.95l-2.75 2.2M44 -34.45q-3.2 -3.95 -5.75 -6.35l2.35 -2.4q3 2.8 5.8 6.35l-2.4 2.4" />
</g>
<g id="PathID_2301" transform="matrix(0.392157, 0, 0, 0.392157, 183.15, 19.1)">
<path style="fill:#000000;fill-opacity:1" d="M10.95 0.2q19.3 -4.95 21.7 -20.9l-30.3 0l0 -4.4l30.5 0l1.8 -0.55l3.6 2.15q1.15 1 -0.4 1.8q-3.2 19.95 -23.35 25.9l-3.55 -4M33.45 -32.05l-27.5 0l0 -4.4l27.5 0l0 4.4" />
</g>
<g id="PathID_2302" transform="matrix(0.392157, 0, 0, 0.392157, 199.3, 19.1)">
<path style="fill:#000000;fill-opacity:1" d="M6.35 -3.15q24.9 -5.8 26.1 -26.5l-29.9 0l0 -4.4l30.3 0l2.8 -0.6l2.2 2q-0.8 26.5 -27.9 33.85l-3.6 -4.35" />
</g>
<g id="PathID_2303" transform="matrix(0.392157, 0, 0, 0.392157, 215.35, 19.1)">
<path style="fill:#000000;fill-opacity:1" d="M36.65 -25.5q0.4 7.6 0 15.15q5.95 2.2 11.55 6.2l-2.4 3.8q-4.2 -3.2 -9.15 -5.6q0 3.6 -2.2 5.8q-2.4 2.35 -7 2.35q-4.55 0 -6.95 -2.35q-2 -2 -2 -5.2q0 -2.8 1.6 -4.4q2.4 -2.4 7.15 -2.4q2.6 0 5.2 0.6q0.4 -6.75 0 -13.75l-14.75 1l0 -4.15l14.35 -0.8q-0.2 -5.6 -0.8 -9.95l4.2 0q2.2 0.4 0.4 1.55q0.2 4.2 0.4 8.2l10.75 -0.6l0 4.2l-10.35 0.35M6.55 1.2q-0.8 -5.55 -0.8 -12.95q0 -16.1 2.4 -25.9l4.4 0.8q1.35 0.6 -0.2 1.4q-2.2 7 -2.2 23.7q0 7.6 1 12.15l-4.6 0.8M32.45 -7.55q-3.4 -1 -5.2 -1q-2.75 0 -3.95 1.2q-1 1 -1 2q0 1.6 0.8 2.4q1.4 1.4 4.15 1.4q2.8 0 4 -1.4q1.4 -1.6 1.2 -4.6" />
</g>
<g id="PathID_2304" transform="matrix(0.392157, 0, 0, 0.392157, 2, 39)">
<path style="fill:#000000;fill-opacity:1" d="M36.45 -21.7q-18.95 3.4 -25.3 9.75q-2.2 2.2 -2.2 4.6q0 1.8 1.4 3.2q1.4 1.4 5.75 1.4l19.15 0l0 4.35l-19.35 0q-6.55 0 -9.15 -2.55q-2.6 -2.6 -2.6 -6q0 -4.4 3.2 -7.55q2.4 -2.4 7.95 -5.6q-1.2 -3 -1.4 -6.55l-0.8 -13.15l4.2 0q2.2 0.4 0.4 1.55l0.4 9.6q0.2 4.15 1.4 6.75q5.6 -2.4 14.95 -4.95l2 5.15M31.25 -37.25q4.6 2.8 7.75 5l-1.95 2.6q-3.6 -2.4 -7.8 -5l2 -2.6M35.65 -41.2q4.35 2.8 7.75 4.95l-2 2.6q-4.15 -2.8 -7.75 -4.95l2 -2.6" />
</g>
<g id="PathID_2305" transform="matrix(0.392157, 0, 0, 0.392157, 19.6, 39)">
<path style="fill:#000000;fill-opacity:1" d="M27.45 -28.05q-3.35 19.9 -8.15 24.7q-2.6 2.6 -5.4 2.6q-3.15 0 -4.95 -1.8q-4.8 -4.8 -4.8 -11.95q0 -8.8 6.2 -14.95q6.75 -6.8 16.5 -6.8q8.8 0 13.75 5q5.6 5.6 5.6 13.15q0 8.15 -5.2 13.35q-3.35 3.4 -10.35 6.55l-4.2 -4.15q7 -2.2 11 -6.2q3.75 -3.8 3.75 -9.15q0 -6.4 -4.15 -10.55q-4.2 -4.2 -13.15 -3.8l3.55 1.8q2.4 1 0 2.2M22.9 -31.85q-5.2 1.2 -9 5q-5.15 5.15 -5.15 12.75q0 4.55 3 7.55q0.6 0.6 1.75 0.6q1.2 0 2.6 -1.4q4.6 -4.6 6.8 -24.5" />
</g>
<g id="PathID_2306" transform="matrix(0.392157, 0, 0, 0.392157, 39.6, 39)">
<path style="fill:#000000;fill-opacity:1" d="M39 -1.15q-9.15 -5.2 -14.7 -6.6q-0.2 5.2 -2.4 7.4q-3 2.95 -8.6 2.95q-4.75 0 -7.15 -2.4q-2.2 -2.15 -2.2 -5.15q0 -3 2.6 -5.6q2.4 -2.35 7.95 -2.35q3.6 0 5.8 0.35q-0.6 -10.75 -1.6 -26.25l4 0q1.8 0.4 0.4 1.55q0 3.2 0.4 9.8q5.35 0.2 15.1 -1.2l0 4.15q-6.95 1 -14.7 1.2q0.4 6 0.4 11.35q7.55 1.8 16.7 6.6l-2 4.2M20.1 -8.75q-3 -0.6 -5.4 -0.6q-3.95 0 -5.55 1.6q-1.4 1.4 -1.4 2.8q0 1.4 1 2.4q1.4 1.4 4.75 1.4q3.2 0 4.6 -1.4q2 -2 2 -6.2" />
</g>
<g id="PathID_2307" transform="matrix(0.392157, 0, 0, 0.392157, 56.85, 39)">
<path style="fill:#000000;fill-opacity:1" d="M10.55 0q8.15 -1.75 12.75 -6.35q3.75 -3.8 3.75 -8.95q0 -3.6 -1.95 -5.6q-1.8 -1.8 -4.6 -1.6q-5.6 0.6 -15.95 4l-2.2 -5.2q7.6 -1.4 14.15 -2.95q3.4 -0.8 5.2 -0.8q4.35 0 7.15 2.75q3.2 3.2 3.2 9.2q0 7.75 -5.4 13.15q-4.75 4.75 -12.95 6.95l-3.15 -4.6M27.05 -32.65q-7.95 -0.8 -19.3 -3.2l1.2 -4.95q11.15 2.55 19.1 3.35l-1 4.8" />
</g>
<g id="PathID_2308" transform="matrix(0.392157, 0, 0, 0.392157, 70.95, 39)">
<path style="fill:#000000;fill-opacity:1" d="M34.05 -2.35q-9.35 0 -15.55 -6l2.6 -3.4q5.35 5.2 12.95 5l10.95 0l0 4.4l-10.95 0M5.55 1.4q-0.6 -10.35 -0.6 -17.7q0 -9 2.2 -21.35l4 1q2.15 0.4 0.2 1.8q-2 11.55 -2 18.55q0 7.75 0.8 17.3l-4.6 0.4M42.4 -28.05q-8.55 -0.2 -22.3 1.2l0 -4.2q14.35 -1.4 22.3 -1.2l0 4.2" />
</g>
<g id="PathID_2309" transform="matrix(0.392157, 0, 0, 0.392157, 89.75, 39)">
<path style="fill:#000000;fill-opacity:1" d="M27.05 -6.75q3.6 -2.4 5.6 -5l-9.95 0q1.4 2.8 4.35 5M23.5 -14.9l11.15 0l0.6 -1l3.35 2.4q1 0.75 -0.35 0.95q-3 4.2 -8 8q5.6 3.2 17.55 4.2l-1.4 4.35q-12.15 -1 -19.55 -5.95q-10.95 5.95 -20.9 6.95l-1.6 -4.2q10.75 -0.95 19.35 -5.55q-1.6 -1.6 -3.8 -4.8q-6.2 5.6 -11.55 7l-2 -3.4q10.15 -3.4 15.15 -12.35l3.2 1.2q0.95 0.6 -0.4 0.8l-0.8 1.4M32.25 -20.9q0 3.4 -3 3.4l-2.8 0l-0.95 -3.8l2.15 0q0.6 0 0.6 -0.6l0 -9.75l-4.95 0l0 4.2q0 11.35 -13.75 14.7l-1.8 -3.75q11.55 -2.6 11.55 -10.95l0 -4.2l-15.15 0l0 -3.8l19.15 0l0 -5.95l4.35 0q2 0.4 0.2 1.6l0 4.35l19.15 0l0 3.8l-14.75 0l0 10.75M4.75 -22.9q5 -2.6 8.15 -6.75l3.6 2.8q0.6 0.8 -0.8 0.8q-2.95 4.15 -8.55 6.95l-2.4 -3.8M36.85 -29.45q5.95 3.2 9.55 6.95l-3.4 4q-4.6 -4.6 -8.95 -7.35l2.8 -3.6" />
</g>
<g id="PathID_2310" transform="matrix(0.392157, 0, 0, 0.392157, 109.75, 39)">
<path style="fill:#000000;fill-opacity:1" d="M3.15 -18.3q8.6 -7.75 10.75 -21.3l4.4 1.2q1.4 0.35 -0.6 1.55q-0.4 3 -2.8 8.8l1.2 0.4q0.8 0.6 -0.6 1.4l0 29.45l-3.95 0l0 -24.9q-2.4 3.8 -5.8 7l-2.6 -3.6M47.4 -8.55l-0.6 4.6q-0.8 5.75 -5.8 5.75l-13.35 0q-3.55 0 -3.55 -3.35l0 -37.45l3.75 0q2 0.2 0.2 1.15l0 14.75q7.6 -2.95 13.95 -7.75l3 3.6q1.4 1.2 -1 1.2q-8.55 4.35 -15.95 7.35l0 14.55q0 1.6 1.4 1.6l10.55 0q2.2 0 2.4 -2l0.4 -4.8l4.6 0.8" />
</g>
<g id="PathID_2311" transform="matrix(0.392157, 0, 0, 0.392157, 129.75, 39)">
<path style="fill:#000000;fill-opacity:1" d="M24.5 -10.35q-2.4 1.4 -5 1.4q-3.4 0 -5.2 -1.8q-2.35 -2.35 -2.35 -5.35q0 -3.2 2.35 -5.6q2.4 -2.4 6 -2.4q2.4 0 4.6 0.6l0 -4.35l-21.95 1.4l-0.8 -4.2l22.75 -1l0 -9.35l3.55 0q2.2 0.4 0.4 1.6l0 7.55l16.95 -1.2l0 4.2l-16.95 0.8l0 7.55q0.8 3.6 0.8 7.95q-0.2 10.2 -11.35 17.15l-3.8 -2.8q10 -5.75 10 -12.15M20.7 -20.7q-2.2 0 -3.6 1.4q-1.2 1.2 -1.2 3.2q0 1.8 1 2.8q1 0.95 3.2 0.95q2.2 0 3.6 -1.35q1.2 -1.2 1.2 -3q0 -1.8 -1.2 -3q-1 -1 -3 -1" />
</g>
<g id="PathID_2312" transform="matrix(0.392157, 0, 0, 0.392157, 148.95, 39)">
<path style="fill:#000000;fill-opacity:1" d="M28.05 -0.95q3.2 -0.4 5.4 -2.6q2.4 -2.4 2.4 -6.4q0 -4.35 -2.6 -6.95q-2.6 -2.6 -8.15 -2.6q-6.6 0 -10.2 2.6q-3.35 2.4 -8.75 8.55l-3.4 -3q14.35 -14.3 21.75 -23.9q-6.6 0.8 -13.15 1.4l-1.4 -4.55q9.75 0 17.3 -1l1.8 -0.8l2.2 2.15q2.2 2 -1 2.6q-5.95 6.8 -11.95 13.35q4.2 -1 7 -1q7.55 0 11.15 3.6q3.55 3.6 3.55 9.15q0 5.8 -3.15 9q-4.8 4.75 -12.15 4.75q-7 0 -10.2 -3.2q-2.55 -2.55 -2.55 -6.15q0 -2.4 1.75 -4.2q2 -2 4.6 -2q3.6 0 6 2.4q2.75 2.8 3.75 8.8M24.1 -0.35q-0.6 -5.2 -2.4 -7q-1.4 -1.4 -2.8 -1.4q-1.6 0 -2.4 0.8q-1 1 -1 2.2q0 1.8 1.6 3.4q2 2 5.2 2q0.8 0 1.8 0" />
</g>
<g id="PathID_2313" transform="matrix(0.392157, 0, 0, 0.392157, 166.2, 39)">
<path style="fill:#000000;fill-opacity:1" d="M3.35 0q5.8 -8.95 10.15 -23.3q-4.35 0.6 -8.55 1l-0.4 -4.35q3.6 0 9.95 -0.6q1.8 -6.2 3 -12.55l4.2 1.4q2.4 0.95 -0.2 1.75q-1.2 4.2 -2.4 9q2.4 -0.4 5 -0.4q2.75 0 4.15 1.4q2.4 2.35 2.4 10.75q0 11.55 -3.4 14.95q-1.95 1.95 -4.55 1.95q-3.8 0 -7.6 -4.35l2.6 -3.6q3.2 3.2 4.8 3.2q1 0 1.8 -0.8q2.15 -2.2 2.15 -12.15q0 -5.6 -1.15 -6.8q-0.6 -0.6 -2.4 -0.6q-1.8 0 -5 0.4q-4.2 14.75 -9.95 25.3l-4.6 -1.6M43.4 -9.95q-3.6 -12.95 -10.35 -19.3l3.6 -2.6q8.15 8.35 11.15 20.1l-4.4 1.8" />
</g>
<g id="PathID_2314" transform="matrix(0.392157, 0, 0, 0.392157, 186.2, 39)">
<path style="fill:#000000;fill-opacity:1" d="M39 -12.55q-1.95 9 -7.75 15.35l-4.2 -2.4q6.2 -5.75 8.2 -14.3q-7 -2.6 -14.15 -3.6q-5.4 11.55 -7.2 13.35q-2.35 2.4 -5.55 2.4q-2.4 0 -4 -1.6q-1.8 -1.8 -1.8 -5.4q0 -4.15 4 -8.15q4.4 -4.4 11.75 -4.4q2.4 -6.15 4.4 -11.55q-5.6 1.4 -11.15 2.6l-1.8 -4q6.55 -0.8 12.55 -2.2l2.4 -1l3.35 2.6q2 1.2 -0.2 1.8q-2.55 4.6 -5.55 11.95q6.35 0.8 13.55 3.2q0.4 -4.8 0.2 -11.75l3.75 0.8q2.2 0.4 0.4 1.6q0 6.55 -0.4 10.75q3.8 1.4 8.8 3.95l-2 4q-4.2 -2.4 -7.6 -4M16.9 -17.5q-4.55 0 -7.35 2.8q-3.2 3.15 -3.2 5.95q0 1.2 0.8 2q0.6 0.6 1.8 0.6q1.8 0 3.2 -2.2q1.15 -1.8 4.75 -9.15" />
</g>
<g id="PathID_2315" transform="matrix(0.392157, 0, 0, 0.392157, 206.2, 39)">
<path style="fill:#000000;fill-opacity:1" d="M43 -31.25q-6.95 0 -10.95 1.4q-4.4 1.6 -8.15 5.35q-3.8 3.8 -3.8 9.8q0 4.75 3 7.75q3.95 4 15.3 4.4l-1.55 4.35q-11.75 -0.6 -16.35 -5.15q-4.6 -4.6 -4.6 -11.15q0 -9.4 7.4 -14.75q-9.4 1.4 -19.15 2.8l-1.2 -4.6q19.55 -1.4 39.25 -4.8l0.8 4.6" />
</g>
<g id="PathID_2316" transform="matrix(0.392157, 0, 0, 0.392157, 224.2, 39)">
<path style="fill:#000000;fill-opacity:1" d="M39 -12.55q-1.95 9 -7.75 15.35l-4.2 -2.4q6.2 -5.75 8.2 -14.3q-7 -2.6 -14.15 -3.6q-5.4 11.55 -7.2 13.35q-2.35 2.4 -5.55 2.4q-2.4 0 -4 -1.6q-1.8 -1.8 -1.8 -5.4q0 -4.15 4 -8.15q4.4 -4.4 11.75 -4.4q2.4 -6.15 4.4 -11.55q-5.6 1.4 -11.15 2.6l-1.8 -4q6.55 -0.8 12.55 -2.2l2.4 -1l3.35 2.6q2 1.2 -0.2 1.8q-2.55 4.6 -5.55 11.95q6.35 0.8 13.55 3.2q0.4 -4.8 0.2 -11.75l3.75 0.8q2.2 0.4 0.4 1.6q0 6.55 -0.4 10.75q3.8 1.4 8.8 3.95l-2 4q-4.2 -2.4 -7.6 -4M16.9 -17.5q-4.55 0 -7.35 2.8q-3.2 3.15 -3.2 5.95q0 1.2 0.8 2q0.6 0.6 1.8 0.6q1.8 0 3.2 -2.2q1.15 -1.8 4.75 -9.15" />
</g>
<g id="PathID_2317" transform="matrix(0.392157, 0, 0, 0.392157, 244.2, 39)">
<path style="fill:#000000;fill-opacity:1" d="M39 -1.15q-9.15 -5.2 -14.7 -6.6q-0.2 5.2 -2.4 7.4q-3 2.95 -8.6 2.95q-4.75 0 -7.15 -2.4q-2.2 -2.15 -2.2 -5.15q0 -3 2.6 -5.6q2.4 -2.35 7.95 -2.35q3.6 0 5.8 0.35q-0.6 -10.75 -1.6 -26.25l4 0q1.8 0.4 0.4 1.55q0 3.2 0.4 9.8q5.35 0.2 15.1 -1.2l0 4.15q-6.95 1 -14.7 1.2q0.4 6 0.4 11.35q7.55 1.8 16.7 6.6l-2 4.2M20.1 -8.75q-3 -0.6 -5.4 -0.6q-3.95 0 -5.55 1.6q-1.4 1.4 -1.4 2.8q0 1.4 1 2.4q1.4 1.4 4.75 1.4q3.2 0 4.6 -1.4q2 -2 2 -6.2" />
</g>
<g id="PathID_2318" transform="matrix(0.392157, 0, 0, 0.392157, 261.45, 39)">
<path style="fill:#000000;fill-opacity:1" d="M10.55 0q8.15 -1.75 12.75 -6.35q3.75 -3.8 3.75 -8.95q0 -3.6 -1.95 -5.6q-1.8 -1.8 -4.6 -1.6q-5.6 0.6 -15.95 4l-2.2 -5.2q7.6 -1.4 14.15 -2.95q3.4 -0.8 5.2 -0.8q4.35 0 7.15 2.75q3.2 3.2 3.2 9.2q0 7.75 -5.4 13.15q-4.75 4.75 -12.95 6.95l-3.15 -4.6M27.05 -32.65q-7.95 -0.8 -19.3 -3.2l1.2 -4.95q11.15 2.55 19.1 3.35l-1 4.8" />
</g>
<g id="PathID_2319" transform="matrix(0.392157, 0, 0, 0.392157, 275.55, 39)">
<path style="fill:#000000;fill-opacity:1" d="M16.9 -7.55q2 2 2 5q0 2.95 -2 4.95q-2 2 -4.95 2q-3 0 -5 -2q-2 -2 -2 -4.95q0 -3 2 -5q2 -2 5 -2q2.95 0 4.95 2M15.1 0.6q1.4 -1.35 1.4 -3.15q0 -1.8 -1.4 -3.2q-1.4 -1.4 -3.15 -1.4q-1.8 0 -3.2 1.4q-1.4 1.4 -1.4 3.2q0 1.8 1.4 3.15q1.4 1.4 3.2 1.4q1.75 0 3.15 -1.4" />
</g>
</svg>
