<?xml version="1.0" encoding="utf-8"?>
<svg version="1.1" id="Layer_1"
xmlns="http://www.w3.org/2000/svg"
xmlns:xlink="http://www.w3.org/1999/xlink"
xmlns:author="http://www.sothink.com"
width="6px" height="12px"
xml:space="preserve">
<g id="PathID_611" transform="matrix(0.0115196, 0, 0, 0.0115196, -0.55, 10.1)">
<path style="fill:#000000;fill-opacity:1" d="M462.5 -214.5q0 -6 -4 -8.5q-3.5 -2.5 -8 -2.5q-2.5 0 -6 1q-3 1.5 -5.5 3q-28 75.5 -56 111.5q-28.5 35.5 -50.5 35l-235.5 0q17.5 -35 47 -71.5q29 -37 61.5 -70q32.5 -33 59.5 -57q46 -38 90 -76.5q44.5 -38.5 74 -87q29.5 -49 30.5 -118.5q-1 -64.5 -28 -105q-27 -40 -71 -58.5q-43.5 -18.5 -93.5 -18.5q-58.5 1 -99 23q-41 22 -65.5 55q-25 33 -36.5 66.5q-11 33 -11 56q0 14.5 6 31.5q5.5 17 19.5 29.5q14 12.5 38 13q26.5 -0.5 41.5 -18q14.5 -17.5 15 -46.5q-0.5 -19.5 -7 -28.5q-6.5 -9 -13 -17q-6.5 -8 -7 -24.5q1 -55.5 31.5 -86q30 -30 77 -30.5q45 0.5 69 21.5q24 21 33.5 56q9 35 8.5 78q-0.5 50.5 -20.5 94q-20 43 -50.5 82q-31 38.5 -64.5 75q-68 77.5 -106 133.5q-38.5 56 -55.5 92q-16.5 36.5 -20.5 54.5q-4 18 -3 19.5q-1 5 4 6.5q5.5 1.5 27.5 1.5l322.5 0q5.5 -1 10 -5q4 -4.5 5.5 -11.5l21.5 -87q11.5 -49 22.5 -102.5l1.5 -4.5q0.5 -2 0.5 -4" />
</g>
</svg>
