<?xml version="1.0" encoding="utf-8"?>
<svg version="1.1" id="Layer_1"
xmlns="http://www.w3.org/2000/svg"
xmlns:xlink="http://www.w3.org/1999/xlink"
xmlns:author="http://www.sothink.com"
width="6px" height="12px"
xml:space="preserve">
<g id="PathID_612" transform="matrix(0.0115196, 0, 0, 0.0115196, -0.5, 10.1)">
<path style="fill:#000000;fill-opacity:1" d="M466 -204q-1 -77 -45.5 -127.5q-44 -50.5 -117.5 -61q40 -8 71.5 -31q31.5 -23 50 -59.5q18.5 -36 19 -84.5q0 -40.5 -19 -79q-19.5 -39 -60 -64.5q-40.5 -25.5 -104.5 -26.5q-68.5 1 -112.5 25q-44 24 -65 60.5q-21 36.5 -21 74.5q-0.5 11 3.5 24.5q4 13.5 16.5 23.5q12 9.5 36.5 10q19 0.5 34 -13q15 -13.5 16 -44q-0.5 -13 -5 -23.5q-4.5 -10 -10.5 -20.5q-2 -5 -3 -9.5q-1 -4.5 -1 -9q0.5 -20 15.5 -37q14.5 -17.5 37 -28q23 -10.5 47 -11q48 1 70.5 24q23 23.5 29.5 59q6.5 35.5 5.5 73q-0.5 70.5 -28 112q-27 41.5 -71.5 42.5l-3 0q-11.5 -0.5 -21.5 -3.5q-10 -3 -21.5 -3.5q-16 -0.5 -28.5 3.5q-13 4.5 -13.5 20q1 14.5 15 18.5q14 4 26 3.5q14 -0.5 25 -4.5q11 -4 25 -4.5l7.5 0q56 1 80 46q24.5 45 24 120q0.5 51 -9.5 94.5q-10.5 43.5 -39 70.5q-29 26.5 -83.5 27.5q-42 -1 -65 -23q-23.5 -22.5 -24 -55q0 -2 0.5 -5q0.5 -2.5 0.5 -5q1 -9.5 4.5 -19q3.5 -10 3.5 -20q0.5 -5 -2.5 -18.5q-3 -13.5 -15 -26q-11.5 -12 -36.5 -13q-3 -0.5 -17 2.5q-14 3 -27.5 16q-13 13.5 -14 44q-0.5 17 8.5 41q9 24.5 30.5 48.5q21.5 24 58.5 40q37.5 16.5 94 17q76.5 -0.5 127.5 -29q51.5 -28.5 77 -76.5q26 -48 26 -106.5" />
</g>
</svg>
