<?xml version="1.0" encoding="utf-8"?>
<svg version="1.1" id="Layer_1"
xmlns="http://www.w3.org/2000/svg"
xmlns:xlink="http://www.w3.org/1999/xlink"
xmlns:author="http://www.sothink.com"
width="5px" height="10px"
xml:space="preserve">
<g id="PathID_606" transform="matrix(0.00980392, 0, 0, 0.00980392, -0.4, 8.6)">
<path style="fill:#000000;fill-opacity:1" d="M293 -390.5q49.5 0.5 82 22.5q32.5 22.5 48.5 59.5q16 37.5 16 83q0 43.5 -17 80q-17 36.5 -49.5 58.5q-33 22 -80 22.5q-48 -0.5 -81.5 -22q-33.5 -21.5 -51.5 -58q-17.5 -36.5 -17.5 -82q0 -46 17.5 -83q17 -37 50.5 -59q33.5 -21.5 82.5 -22M511 -541q-8.5 -88.5 -61.5 -136.5q-53 -48 -143.5 -48.5q-77 1 -129 32.5q-51.5 32 -82 87q-30.5 55 -43.5 124.5q-13 69 -12.5 145q-0.5 58 9 119q9 60.5 35.5 113q26 52 75.5 84.5q50 32 130 33q68.5 -0.5 115 -23.5q47 -22.5 75 -59q28 -36.5 40.5 -79q12 -42.5 12 -82.5q-0.5 -68 -26.5 -121q-26.5 -53 -76 -83.5q-49.5 -31 -119.5 -31.5q-59.5 0 -105 22.5q-45.5 23 -76.5 73l-2 -2q1 -43 8.5 -90q7 -47.5 25.5 -89.5q18 -42 52.5 -68.5q34.5 -26 89.5 -27q52 0.5 84 29.5q31.5 29 38 78.5l87 0" />
</g>
</svg>
