<?xml version="1.0" encoding="utf-8"?>
<svg version="1.1" id="Layer_1"
xmlns="http://www.w3.org/2000/svg"
xmlns:xlink="http://www.w3.org/1999/xlink"
xmlns:author="http://www.sothink.com"
width="6px" height="12px"
xml:space="preserve">
<g id="PathID_614" transform="matrix(0.0115196, 0, 0, 0.0115196, -0.6, 10.05)">
<path style="fill:#000000;fill-opacity:1" d="M468 -242.5q0 -61 -25 -109.5q-25 -48.5 -73 -76.5q-48 -28.5 -117 -29l-2 0q-14.5 -0.5 -38.5 5q-24.5 5.5 -50 19.5q-26 14 -45.5 40l5 -59.5l6 -72.5q3.5 -37.5 6 -71.5l5 -55.5l252 1q10.5 0 15.5 -4q4.5 -4.5 8 -13.5q8.5 -20.5 16.5 -41q1.5 -4 2 -6.5l0 -5q0 -5 -4 -7q-3.5 -2 -11.5 -2l-282.5 0q-17.5 0 -22 7q-4.5 6.5 -4.5 17.5q-2 34 -6.5 78.5q-4 44.5 -9 93q-5 48.5 -8.5 94.5q-3.5 46 -3.5 83l0 1q0.5 7.5 9 12q8.5 4.5 17.5 4.5l4.5 0q2.5 -0.5 4 -2q18.5 -41 54 -64.5q35.5 -23 76 -23.5l2 0q48 1 75 28.5q27 27.5 38 69.5q11 41.5 10.5 85q0.5 57 -11 109q-12 52 -40.5 85q-28.5 33.5 -79.5 34.5q-42 -1 -67 -20q-25 -19 -26 -46.5q0 -8.5 2.5 -17.5q3 -9 9 -17.5q4 -6.5 6.5 -16.5q2.5 -10.5 2.5 -20q0.5 -2 -2.5 -16q-3.5 -14.5 -15.5 -28.5q-12.5 -14 -39 -15q-7 -0.5 -21 2.5q-14 3.5 -26 17q-12 13.5 -12.5 44q-0.5 10 5 35q6 25.5 25 54q19 28.5 57.5 49q38.5 20.5 102.5 21.5q83 -1 133 -37q50 -36.5 72 -93q22 -57 21.5 -120.5" />
</g>
</svg>
