<?xml version="1.0" encoding="utf-8"?>
<svg version="1.1" id="Layer_1"
xmlns="http://www.w3.org/2000/svg"
xmlns:xlink="http://www.w3.org/1999/xlink"
xmlns:author="http://www.sothink.com"
width="5px" height="10px"
xml:space="preserve">
<g id="PathID_604" transform="matrix(0.00980392, 0, 0, 0.00980392, -0.7, 8.6)">
<path style="fill:#000000;fill-opacity:1" d="M133 -205q0.5 -42 20.5 -73q20.5 -31.5 55 -48.5q35 -17.5 78.5 -17.5q41.5 0.5 75 18q34 18 54 49.5q20 31 20.5 70.5q-1 62 -41.5 101q-40.5 39.5 -107 40.5q-69 -0.5 -111.5 -37.5q-42.5 -37 -43.5 -103M66.5 -541q0.5 50.5 28 90.5q27.5 40.5 73 60q-60.5 22 -93.5 69q-32.5 47.5 -33 112.5q0.5 74.5 33 123.5q32.5 49 88 73.5q55.5 24.5 126 24.5q67.5 -0.5 122 -26.5q54 -26 86 -75q31.5 -49.5 32.5 -120q0 -68 -32 -114q-32 -46.5 -97 -67.5q45 -21 72 -61q27.5 -40 28 -89.5q0.5 -46.5 -22 -88.5q-22 -42 -70.5 -69q-48.5 -26.5 -127.5 -27.5q-57 0 -105 21.5q-48 21.5 -77.5 62.5q-29.5 41.5 -30.5 101M158.5 -537.5q0.5 -36.5 17.5 -61.5q17 -24.5 45.5 -37.5q29 -12.5 64 -12.5q54 0 87.5 28.5q33.5 28.5 34.5 83q-1 55.5 -34 86q-33.5 30 -86 30.5q-36 0 -65.5 -12.5q-29 -12.5 -46 -38.5q-17 -25.5 -17.5 -65.5" />
</g>
</svg>
