<?xml version="1.0" encoding="utf-8"?>
<svg version="1.1" id="Layer_1"
xmlns="http://www.w3.org/2000/svg"
xmlns:xlink="http://www.w3.org/1999/xlink"
xmlns:author="http://www.sothink.com"
width="6px" height="12px"
xml:space="preserve">
<g id="PathID_609" transform="matrix(0.0115196, 0, 0, 0.0115196, -0.55, 10.1)">
<path style="fill:#000000;fill-opacity:1" d="M465 -248q0.5 -33 -8 -69.5q-8.5 -36 -29.5 -68q-20.5 -31.5 -57.5 -51.5q-37 -20 -93.5 -20.5q-44.5 1 -81 21.5q-36.5 20.5 -59.5 50q4 -54 14 -110.5q10.5 -57 27.5 -106q17.5 -49.5 44 -79.5q26.5 -30.5 63.5 -31.5q26 0 38.5 9.5q12.5 9 12.5 28.5q0 7 -1.5 16q-2 8.5 -5.5 18.5q-2.5 7 -3.5 12.5q-1 6 -0.5 11.5q1 24 17.5 35q17 11 35.5 11q17 -0.5 29 -10q11.5 -9 18 -23q6 -14 6.5 -27.5q-1 -45.5 -39.5 -74.5q-38 -29 -104 -30q-58.5 0.5 -103 33q-45 32.5 -75.5 90.5q-31 58 -46.5 134.5q-16 77 -16 165.5q0 53 10 108.5q10 55.5 34 103.5q23.5 48 63.5 78q40 29.5 99.5 30.5q56.5 -0.5 96.5 -23q40 -22.5 65.5 -59.5q25.5 -37.5 37 -82.5q12 -45 12 -91M375 -251q0 41 -5 82.5q-5.5 41 -18 76q-13 35 -35.5 56q-22.5 21.5 -56.5 22q-32.5 0.5 -61.5 -32q-29 -32 -47 -101q-18 -68.5 -18.5 -177l0 -10.5q10.5 -25 31.5 -45.5q21 -20.5 47 -33q25.5 -12 50.5 -12.5q34 0.5 56 17.5q22 17 34.5 44q12.5 27 17.5 57q5 30 5 56.5" />
</g>
</svg>
