<?xml version="1.0" encoding="utf-8"?>
<svg version="1.1" id="Layer_1"
xmlns="http://www.w3.org/2000/svg"
xmlns:xlink="http://www.w3.org/1999/xlink"
xmlns:author="http://www.sothink.com"
width="7px" height="12px"
xml:space="preserve">
<g id="PathID_613" transform="matrix(0.0115196, 0, 0, 0.0115196, -0.25, 10.1)">
<path style="fill:#000000;fill-opacity:1" d="M489.5 -198.5q0.5 -11 -2.5 -13.5q-3 -2.5 -16 -2l-95 0l0 -486.5q0.5 -26.5 -4 -32.5q-4.5 -5.5 -16.5 -4.5q-8.5 -1 -13 4q-4.5 4.5 -17 24.5q-25 42.5 -61.5 103q-36.5 60.5 -77.5 127.5q-40.5 67 -77.5 127.5q-37 60.5 -63 102l-16 25.5q-8 12.5 -8.5 28q-0.5 9 9.5 13q9.5 3.5 34.5 3.5l230.5 0l0 69.5q0.5 35.5 -5.5 52.5q-6.5 17 -23.5 23q-17.5 5.5 -51 6.5q-3 3 -6 8q-3 4.5 -3 9.5q-0.5 4.5 3 7q3 3 12.5 3l225 0q10 0 14 -3.5q3.5 -3 3.5 -7.5q0 -5 -2.5 -9.5q-3 -4.5 -7.5 -7q-37.5 -1.5 -54.5 -8.5q-16.5 -7 -21 -17.5q-4 -10 -3.5 -22l0 -22.5l0 -81l95 0q13.5 0.5 16.5 -2.5q2.5 -3 2 -17M303.5 -614.5l-2 54q-1.5 31 -2.5 63.5q-1.5 33 -2 60q-1 27.5 -1 42.5l0 180.5l-235.5 0l58.5 -95q32 -53 66 -108.5l64.5 -107.5q30.5 -51 54 -89.5" />
</g>
</svg>
