<?xml version="1.0" encoding="utf-8"?>
<svg version="1.1" id="Layer_1"
xmlns="http://www.w3.org/2000/svg"
xmlns:xlink="http://www.w3.org/1999/xlink"
xmlns:author="http://www.sothink.com"
width="5px" height="10px"
xml:space="preserve">
<g id="PathID_605" transform="matrix(0.00980392, 0, 0, 0.00980392, -0.35, 8.45)">
<path style="fill:#000000;fill-opacity:1" d="M481 -714l-358 0q-34 188.5 -67.5 377l74.5 4q25.5 -31 59.5 -49.5q34 -18.5 76 -19q48.5 0.5 85.5 21.5q36.5 21 57 58q20.5 37 21 85.5q-0.5 58 -21.5 96q-20.5 38 -55.5 57q-34.5 19 -76.5 19q-66 -1 -107 -37.5q-41 -36.5 -45.5 -93.5l-87 0q2.5 65.5 33.5 112q31 46.5 82.5 71q51.5 24.5 115.5 25q84 -1 140.5 -35.5q56.5 -34.5 84.5 -89q28.5 -55 28.5 -117.5q-1 -83 -32 -138.5q-31.5 -55 -84 -83q-53 -27.5 -118.5 -27.5q-37.5 0 -74 13q-36 12.5 -61 39.5l-2 -2l39 -209l292.5 0l0 -77" />
</g>
</svg>
