<?xml version="1.0" encoding="utf-8"?>
<svg version="1.1" id="Layer_1"
xmlns="http://www.w3.org/2000/svg"
xmlns:xlink="http://www.w3.org/1999/xlink"
xmlns:author="http://www.sothink.com"
width="19px" height="14px"
xml:space="preserve">
<g id="PathID_615" transform="matrix(0.0107353, 0, 0, 0.0107353, -7.5, 11.7)">
<path style="fill:#000000;fill-opacity:1" d="M941.5 -887q-75.5 62 -129 141.5q-53 79 -81 170q-28 90.5 -28 187.5q0 95 28 185.5q28 90.5 83 172q27 41.5 56.5 73.5q29.5 32.5 70.5 64.5l15 -15.5q-35 -47 -58.5 -82.5q-23.5 -35.5 -43.5 -73q-38 -70.5 -56.5 -150.5q-18.5 -80.5 -18.5 -175q0 -95 18 -175.5q18.5 -81 57 -151.5q20 -37 43.5 -72.5q23.5 -35.5 58.5 -83q-7.5 -7.5 -15 -15.5" />
</g>
<g id="PathID_616" transform="matrix(0.0107353, 0, 0, 0.0107353, 3.45, 11.7)">
<path style="fill:#000000;fill-opacity:1" d="M286.5 -753.5q19.5 -6 35 -11.5q15 -5 32 -12q17 -6.5 41.5 -17.5l25.5 4q12 2 15.5 2q6.5 0 11 -3q4.5 -2.5 4.5 -7.5q0.5 -5 -10.5 -13.5q-11.5 -8.5 -38.5 -24l-17 -9.5l-24 -13q-49.5 38.5 -123.5 71.5q-74 33.5 -171.5 60.5l3 15.5q31.5 -3 54 -6q23 -3 45.5 -7.5q23 -4 55 -11.5l0 162l-97.5 0l-45 -1.5q-15.5 -1 -29.5 -5.5l6 35.5q15 -3 28 -4l32.5 -1l93 0q-8 34.5 -15.5 58.5q-7 24.5 -16 50q-9.5 25.5 -24.5 63.5q-21.5 54 -38 92q-17 37.5 -35.5 72q-18.5 35 -45.5 79.5l12.5 8.5q33 -41 57 -74.5q24.5 -33.5 44 -67q19.5 -33.5 39 -74.5q19 -41 42 -96.5l-7 177.5l-1.5 59l-2.5 101.5l0 43l-1 40l-2 37.5q-0.5 20.5 -2 49.5q0 5.5 3.5 8q4 2.5 11.5 2.5l27.5 -2q15.5 -2 22 -4.5q5 -1.5 7 -3.5q2 -2 2 -6.5l-1 -61.5q-0.5 -25.5 -0.5 -48q-0.5 -22.5 -0.5 -50.5l0 -68l0 -102l0 -180q17.5 19 29 39q12 20.5 22.5 51q8 21.5 12.5 28q4.5 6.5 11 6q11 -1 19 -17q8 -16 8.5 -37.5q0.5 -17 -7.5 -28.5q-7.5 -12 -26.5 -23.5q-13.5 -8.5 -31 -18.5l-37.5 -19.5l0 -83l149.5 0q3.5 0 6 -2q2.5 -1.5 2.5 -4q0 -1.5 -1 -3.5q-1 -2 -4 -5q-15.5 -14.5 -26.5 -24q-11 -10 -22.5 -19.5q-11.5 -10 -29 -24l-23.5 29q-9 11.5 -24 29.5l-27.5 0l0 -179M648.5 -338q0 8.5 -3 11.5q-3 3 -11.5 3q-23.5 0 -42 -0.5l-39.5 -2l-54.5 -4l0 16.5q46.5 9 70.5 17q24 7.5 33.5 20q10 12 13.5 33.5q29 -5 46 -11q17 -6.5 30 -15.5q15 -9.5 20.5 -20q6 -10.5 7 -29q-0.5 -18 -0.5 -28.5q-0.5 -11 -0.5 -21l0 -27.5l0 -394q24.5 -9 33 -14q8.5 -5 8 -10.5q1 -5.5 -5.5 -9q-6.5 -3.5 -31 -8q-25 -4.5 -78 -12q2 37.5 3 63q1 25 1 54l0 388M770 -662.5q36 41 55 64.5q18.5 23.5 31 43q2.5 3.5 11 17.5l19 32l19.5 32.5q8.5 14.5 11 19.5q12 22 18 29q6 7.5 14 6.5q12.5 -0.5 21 -22q8.5 -21 8.5 -52.5q0.5 -18.5 -7 -31.5q-7.5 -13.5 -27.5 -31q-25 -23 -47.5 -41q-22.5 -17.5 -49.5 -35.5q-27 -17.5 -67 -41.5q-4.5 5.5 -9.5 10.5M388 -275.5q24 -30.5 40.5 -54.5q17 -24 31 -49.5q14 -26 31 -62q15.5 -33 27 -59.5q11.5 -27 21 -54q9.5 -27.5 21 -62.5q25.5 -2 34 -5.5q8.5 -3 8 -9q0.5 -5.5 -12 -12q-12.5 -6 -46.5 -16.5q-8 -1.5 -19 -5q-11.5 -3.5 -26 -8.5q-3.5 23.5 -7.5 44q-3.5 20 -9 44q-5.5 24 -14.5 58.5q-13 50.5 -25.5 88.5q-12.5 38 -28.5 74.5q-16 36 -39.5 81q7.5 4 14.5 8M337 63.5q45 -11.5 77.5 -21q32.5 -9.5 59.5 -20q27.5 -10.5 57.5 -24.5q80.5 -38 148 -87q67.5 -49.5 119.5 -108.5q19 -21.5 34.5 -42.5q15.5 -20.5 31.5 -46.5q16 -26 37.5 -63q25.5 -1 36 -4.5q10.5 -3.5 10 -9.5q0.5 -5 -7 -10.5q-7.5 -5 -30.5 -15l-69 -28q-7.5 22 -14 38q-6 15.5 -14 30.5q-7.5 15 -19 35q-32 53.5 -63.5 93.5q-32 40.5 -70.5 75q-38 34.5 -89.5 69q-40 28 -75.5 48.5q-35.5 21 -74.5 38.5q-39.5 18 -91 37l6.5 15.5" />
</g>
<g id="PathID_617" transform="matrix(0.0107353, 0, 0, 0.0107353, 14.4, 11.7)">
<path style="fill:#000000;fill-opacity:1" d="M83.5 107.5q75 -61 128.5 -140q53 -79.5 81 -170.5q28 -91.5 28.5 -188q0 -97 -28 -187.5q-28 -90.5 -81 -169q-53.5 -78.5 -129 -139.5l-15 15.5q50.5 67 84.5 125q34.5 58 54.5 113.5q20.5 55.5 29.5 115q8.5 59 8.5 129q0 69 -8.5 128.5q-9 59 -29.5 114.5q-20 55 -54.5 113q-34 58 -84.5 125l15 15.5" />
</g>
</svg>
