<?xml version="1.0" encoding="utf-8"?>
<svg version="1.1" id="Layer_1"
xmlns="http://www.w3.org/2000/svg"
xmlns:xlink="http://www.w3.org/1999/xlink"
xmlns:author="http://www.sothink.com"
width="352px" height="253px"
xml:space="preserve">
<g id="487" transform="matrix(1, 0, 0, 1, 175.75, 126.5)">
<path style="fill:none;stroke-width:1.5;stroke-linecap:round;stroke-linejoin:round;stroke-miterlimit:3;stroke:#666666;stroke-opacity:1" d="M113,-125.75L116 -125.75M107,-125.75L110 -125.75M101,-125.75L104 -125.75M95,-125.75L98 -125.75M89,-125.75L92 -125.75M83,-125.75L86 -125.75M155,-125.75L158 -125.75M149,-125.75L152 -125.75M143,-125.75L146 -125.75M137,-125.75L140 -125.75M131,-125.75L134 -125.75M125,-125.75L128 -125.75M119,-125.75L122 -125.75M35,-125.75L38 -125.75M29,-125.75L32 -125.75M23,-125.75L26 -125.75M17,-125.75L20 -125.75M11,-125.75L14 -125.75M5,-125.75L8 -125.75M77,-125.75L80 -125.75M71,-125.75L74 -125.75M65,-125.75L68 -125.75M59,-125.75L62 -125.75M53,-125.75L56 -125.75M47,-125.75L50 -125.75M41,-125.75L44 -125.75M77,-82.95L80 -82.95M71,-82.95L74 -82.95M65,-82.95L68 -82.95M59,-82.95L62 -82.95M53,-82.95L56 -82.95M47,-82.95L50 -82.95M41,-82.95L44 -82.95M35,-82.95L38 -82.95M29,-82.95L32 -82.95M23,-82.95L26 -82.95M17,-82.95L20 -82.95M11,-82.95L14 -82.95M5,-82.95L8 -82.95M155,-82.95L158 -82.95M149,-82.95L152 -82.95M143,-82.95L146 -82.95M137,-82.95L140 -82.95M131,-82.95L134 -82.95M125,-82.95L128 -82.95M113,-82.95L116 -82.95M107,-82.95L110 -82.95M101,-82.95L104 -82.95M95,-82.95L98 -82.95M89,-82.95L92 -82.95M83,-82.95L86 -82.95M119,-82.95L122 -82.95M173,-125.75L175 -125.75M167,-125.75L170 -125.75M173,-82.95L175 -82.95M167,-82.95L170 -82.95M161,-82.95L164 -82.95M161,-125.75L164 -125.75M-169,-125.75L-166 -125.75M-175,-125.75L-172 -125.75M-169,-82.95L-166 -82.95M-175,-82.95L-172 -82.95M-49,-125.75L-46 -125.75M-55,-125.75L-52 -125.75M-61,-125.75L-58 -125.75M-67,-125.75L-64 -125.75M-73,-125.75L-70 -125.75M-79,-125.75L-76 -125.75M-7,-125.75L-4 -125.75M-13,-125.75L-10 -125.75M-19,-125.75L-16 -125.75M-25,-125.75L-22 -125.75M-31,-125.75L-28 -125.75M-37,-125.75L-34 -125.75M-43,-125.75L-40 -125.75M-127,-125.75L-124 -125.75M-133,-125.75L-130 -125.75M-139,-125.75L-136 -125.75M-145,-125.75L-142 -125.75M-151,-125.75L-148 -125.75M-157,-125.75L-154 -125.75M-85,-125.75L-82 -125.75M-91,-125.75L-88 -125.75M-97,-125.75L-94 -125.75M-103,-125.75L-100 -125.75M-109,-125.75L-106 -125.75M-115,-125.75L-112 -125.75M-121,-125.75L-118 -125.75M-85,-82.95L-82 -82.95M-91,-82.95L-88 -82.95M-97,-82.95L-94 -82.95M-103,-82.95L-100 -82.95M-109,-82.95L-106 -82.95M-115,-82.95L-112 -82.95M-121,-82.95L-118 -82.95M-127,-82.95L-124 -82.95M-133,-82.95L-130 -82.95M-139,-82.95L-136 -82.95M-145,-82.95L-142 -82.95M-151,-82.95L-148 -82.95M-157,-82.95L-154 -82.95M-7,-82.95L-4 -82.95M-13,-82.95L-10 -82.95M-19,-82.95L-16 -82.95M-25,-82.95L-22 -82.95M-31,-82.95L-28 -82.95M-37,-82.95L-34 -82.95M-49,-82.95L-46 -82.95M-55,-82.95L-52 -82.95M-61,-82.95L-58 -82.95M-67,-82.95L-64 -82.95M-73,-82.95L-70 -82.95M-79,-82.95L-76 -82.95M-43,-82.95L-40 -82.95M-163,-82.95L-160 -82.95M-163,-125.75L-160 -125.75M-49,83.3L-46 83.3M-55,83.3L-52 83.3M-61,83.3L-58 83.3M-67,83.3L-64 83.3M-73,83.3L-70 83.3M-79,83.3L-76 83.3M-7,83.3L-4 83.3M-13,83.3L-10 83.3M-19,83.3L-16 83.3M-25,83.3L-22 83.3M-31,83.3L-28 83.3M-37,83.3L-34 83.3M-43,83.3L-40 83.3M-127,83.3L-124 83.3M-133,83.3L-130 83.3M-139,83.3L-136 83.3M-145,83.3L-142 83.3M-151,83.3L-148 83.3M-157,83.3L-154 83.3M-85,83.3L-82 83.3M-91,83.3L-88 83.3M-97,83.3L-94 83.3M-103,83.3L-100 83.3M-109,83.3L-106 83.3M-115,83.3L-112 83.3M-121,83.3L-118 83.3M-85,125.3L-82 125.3M-91,125.3L-88 125.3M-97,125.3L-94 125.3M-103,125.3L-100 125.3M-109,125.3L-106 125.3M-115,125.3L-112 125.3M-121,125.3L-118 125.3M-127,125.3L-124 125.3M-133,125.3L-130 125.3M-139,125.3L-136 125.3M-145,125.3L-142 125.3M-151,125.3L-148 125.3M-157,125.3L-154 125.3M-7,125.3L-4 125.3M-13,125.3L-10 125.3M-19,125.3L-16 125.3M-25,125.3L-22 125.3M-31,125.3L-28 125.3M-37,125.3L-34 125.3M-49,125.3L-46 125.3M-55,125.3L-52 125.3M-61,125.3L-58 125.3M-67,125.3L-64 125.3M-73,125.3L-70 125.3M-79,125.3L-76 125.3M-43,125.3L-40 125.3M-169,83.3L-166 83.3M-175,83.3L-172 83.3M-169,125.3L-166 125.3M-175,125.3L-172 125.3M-163,125.3L-160 125.3M-163,83.3L-160 83.3M173,83.3L175 83.3M167,83.3L170 83.3M173,125.3L175 125.3M167,125.3L170 125.3M113,83.3L116 83.3M107,83.3L110 83.3M101,83.3L104 83.3M95,83.3L98 83.3M89,83.3L92 83.3M83,83.3L86 83.3M155,83.3L158 83.3M149,83.3L152 83.3M143,83.3L146 83.3M137,83.3L140 83.3M131,83.3L134 83.3M125,83.3L128 83.3M119,83.3L122 83.3M35,83.3L38 83.3M29,83.3L32 83.3M23,83.3L26 83.3M17,83.3L20 83.3M11,83.3L14 83.3M5,83.3L8 83.3M77,83.3L80 83.3M71,83.3L74 83.3M65,83.3L68 83.3M59,83.3L62 83.3M53,83.3L56 83.3M47,83.3L50 83.3M41,83.3L44 83.3M77,125.3L80 125.3M71,125.3L74 125.3M65,125.3L68 125.3M59,125.3L62 125.3M53,125.3L56 125.3M47,125.3L50 125.3M41,125.3L44 125.3M35,125.3L38 125.3M29,125.3L32 125.3M23,125.3L26 125.3M17,125.3L20 125.3M11,125.3L14 125.3M5,125.3L8 125.3M155,125.3L158 125.3M149,125.3L152 125.3M143,125.3L146 125.3M137,125.3L140 125.3M131,125.3L134 125.3M125,125.3L128 125.3M113,125.3L116 125.3M107,125.3L110 125.3M101,125.3L104 125.3M95,125.3L98 125.3M89,125.3L92 125.3M83,125.3L86 125.3M119,125.3L122 125.3M161,125.3L164 125.3M161,83.3L164 83.3M-1,125.3L2 125.3M-1,83.3L2 83.3M-1,-82.95L2 -82.95M-1,-125.75L2 -125.75" />
</g>
</svg>
