<?xml version="1.0" encoding="utf-8"?>
<svg version="1.1" id="Layer_1"
xmlns="http://www.w3.org/2000/svg"
xmlns:xlink="http://www.w3.org/1999/xlink"
xmlns:author="http://www.sothink.com"
width="33px" height="33px"
xml:space="preserve">
<g id="69" transform="matrix(1, 0, 0, 1, 16.45, 16.45)">
<path style="fill:#FFFFFF;fill-opacity:1" d="M16.4,11.65Q15.85 14.5 14.85 15.35Q13.65 16.4 11.6 16.4L-11.7 16.4Q-16.45 16.4 -16.45 11.65L-16.45 -11.7Q-16.45 -13.75 -15.1 -15.1Q-13.9 -16.45 -11.7 -16.45L11.6 -16.45Q13.65 -16.45 15 -15.1Q16.4 -13.75 16.4 -11.7L16.4 11.65" />
<path style="fill:#000000;fill-opacity:1" d="M16.4,11.65Q15.85 14.5 14.85 15.35Q13.65 16.4 11.6 16.4L-11.7 16.4Q-16.45 16.4 -16.45 11.65L-16.45 -11.7Q-16.45 -13.75 -15.1 -15.1Q-13.9 -16.45 -11.7 -16.45L11.6 -16.45Q13.65 -16.45 15 -15.1Q16.4 -13.75 16.4 -11.7L16.4 11.65M-11.2,-15.25Q-15.3 -15.25 -15.3 -11.2L-15.3 11.3Q-15.3 15.35 -11.2 15.35L11.1 15.35Q15.2 15.35 15.2 11.3L15.2 -11.2Q15.2 -15.25 11.1 -15.25L-11.2 -15.25M-5.25,-11.7L-2.7 -11.5L1.9 -11.7Q1.55 -9.8 1.55 -6.6L1.55 8.55Q1.55 10.8 1.9 11.95L-1.3 11.95L-1 8.55L-1 -9.3L-5.25 -9.15L-5.25 -11.7" />
</g>
</svg>
