<?xml version="1.0" encoding="utf-8"?>
<svg version="1.1" id="Layer_1"
xmlns="http://www.w3.org/2000/svg"
xmlns:xlink="http://www.w3.org/1999/xlink"
xmlns:author="http://www.sothink.com"
width="34px" height="35px"
xml:space="preserve">
<g id="63" transform="matrix(1, 0, 0, 1, -257, -633.9)">
<path style="fill:#000000;fill-opacity:1" d="M290.9,663Q290.4 665.9 289.2 666.75Q287.65 667.95 285.95 667.95L261.95 667.95Q257 667.95 257 662.85L257 638.85Q257 633.9 261.95 633.9L285.95 633.9Q288.15 633.9 289.5 635.25Q290.9 636.65 290.9 638.85L290.9 663M267.75,657.05Q268.25 658.95 269.6 659.95Q270.95 661.15 273.7 661.15Q276.4 661.15 277.95 659.8Q279.65 658.6 279.65 656.4Q279.65 651.45 273.2 651.45L270.65 651.6L270.65 649.05L272.85 649.25L276.25 648.7Q278.8 647.85 278.8 644.45Q278.8 640.55 273.85 640.55Q271.3 640.55 270.1 641.75Q269.25 642.4 268.75 644.45L265.85 643.8Q266.55 641.75 267.4 640.7Q269.25 638.35 274.05 638.35Q277.45 638.35 279.5 640.05Q281.55 641.75 281.55 644.45Q281.55 647.7 279.3 649.25Q277.95 650.1 276.25 650.25Q278.8 650.4 280.15 651.6Q282.4 653.3 282.4 656.55Q282.4 659.8 280.15 661.65Q277.8 663.5 273.7 663.5Q268.75 663.5 266.55 660.8Q265.7 659.95 264.85 657.75L267.75 657.05M262.45,635.1Q258.2 635.1 258.2 639.35L258.2 662.5Q258.2 666.75 262.45 666.75L285.45 666.75Q289.7 666.75 289.7 662.5L289.7 639.35Q289.7 635.1 285.45 635.1L262.45 635.1" />
</g>
</svg>
