<?xml version="1.0" encoding="utf-8"?>
<svg version="1.1" id="Layer_1"
xmlns="http://www.w3.org/2000/svg"
xmlns:xlink="http://www.w3.org/1999/xlink"
xmlns:author="http://www.sothink.com"
width="34px" height="34px"
xml:space="preserve">
<g id="62" transform="matrix(1, 0, 0, 1, -257, -427.65)">
<path style="fill:#000000;fill-opacity:1" d="M290.9,456.75Q290.4 459.65 289.2 460.5Q287.65 461.65 285.95 461.65L261.95 461.65Q257 461.65 257 456.75L257 432.55Q257 427.65 261.95 427.65L285.95 427.65Q288.15 427.65 289.5 429Q290.9 430.35 290.9 432.55L290.9 456.75M265.35,456.9Q265.7 454.2 266.4 452.8Q267.4 449.6 271.15 446.5L275.9 443.1Q279.3 440.55 279.3 438.2Q279.3 434.25 274.2 434.25Q270.95 434.25 269.6 436.3Q268.95 437.15 268.4 439.55L265.7 439.05Q266.4 435.95 267.75 434.45Q269.8 432.05 274.2 432.05Q277.8 432.05 280 433.75Q282.05 435.45 282.05 438.35Q282.05 440.9 280 443.1L271.85 449.1Q269.45 451.3 268.6 454.35L278.65 454.35L282.4 454.2L282.4 456.9L268.95 456.75L265.35 456.9M262.45,428.8Q258.2 428.8 258.2 433.1L258.2 456.2Q258.2 460.5 262.45 460.5L285.45 460.5Q289.7 460.5 289.7 456.2L289.7 433.1Q289.7 428.8 285.45 428.8L262.45 428.8" />
</g>
</svg>
