<?xml version="1.0" encoding="utf-8"?>
<svg version="1.1" id="Layer_1"
xmlns="http://www.w3.org/2000/svg"
xmlns:xlink="http://www.w3.org/1999/xlink"
xmlns:author="http://www.sothink.com"
width="111px" height="54px"
xml:space="preserve">
<g id="66" transform="matrix(1, 0, 0, 1, -124.45, -74.3)">
<path style="fill:#F29B8F;fill-opacity:1" d="M124.45,85.7Q124.45 81.8 126.15 79.25Q127.7 77.05 130.05 75.85Q132.95 74.3 135.7 74.3L224 74.3Q228.1 74.3 230.45 76.2Q232.5 77.35 233.85 80.1Q235.4 83 235.4 85.7L235.4 116.15Q235.4 119.6 233.55 122.65Q232.35 124.7 229.6 126.05Q227.75 126.9 225.9 127.25L224 127.4L135.7 127.4Q132.1 127.4 129.2 125.7Q126.85 124.15 125.8 121.6Q124.95 119.9 124.6 117.85L124.45 116.15L124.45 85.7M127.85,116.85L128.2 118.7Q129.2 121.6 131.1 122.8Q132.95 124 135.7 124L224.7 124L226.55 123.65Q229.3 122.8 230.8 120.75Q232 119.05 232 116.15L232 85.55L231.85 85.05L231.5 83.15Q231 80.6 228.6 78.9Q226.9 77.7 224 77.7L135.5 77.7L135 77.9L133.1 78.2Q130.4 78.9 129.05 81.1Q127.7 82.8 127.7 85.7L127.7 116.35L127.85 116.85" />
</g>
</svg>
