<?xml version="1.0" encoding="utf-8"?>
<svg version="1.1" id="Layer_1"
xmlns="http://www.w3.org/2000/svg"
xmlns:xlink="http://www.w3.org/1999/xlink"
xmlns:author="http://www.sothink.com"
width="112px" height="1113px"
xml:space="preserve">
<g id="67" transform="matrix(1, 0, 0, 1, -124.45, -125.35)">
<path style="fill:#F5B1A5;fill-opacity:1" d="M126.85,135.05Q129.2 135.05 129.2 137.45Q129.2 139.85 126.85 139.85Q124.45 139.85 124.45 137.45Q124.45 135.05 126.85 135.05M126.85,144.6Q129.2 144.6 129.2 147.15Q129.2 149.55 126.85 149.55Q124.45 149.55 124.45 147.15Q124.45 144.6 126.85 144.6M126.85,173.55Q129.2 173.55 129.2 175.9Q129.2 178.3 126.85 178.3Q124.45 178.3 124.45 175.9Q124.45 173.55 126.85 173.55M126.85,164Q129.2 164 129.2 166.4Q129.2 168.75 126.85 168.75Q124.45 168.75 124.45 166.4Q124.45 164 126.85 164M126.85,154.3Q129.2 154.3 129.2 156.7Q129.2 159.05 126.85 159.05Q124.45 159.05 124.45 156.7Q124.45 154.3 126.85 154.3M126.85,183.25Q129.2 183.25 129.2 185.6Q129.2 188 126.85 188Q124.45 188 124.45 185.6Q124.45 183.25 126.85 183.25M126.85,192.75Q129.2 192.75 129.2 195.15Q129.2 197.7 126.85 197.7Q124.45 197.7 124.45 195.15Q124.45 192.75 126.85 192.75M126.85,212Q129.2 212 129.2 214.55Q129.2 216.95 126.85 216.95Q124.45 216.95 124.45 214.55Q124.45 212 126.85 212M126.85,221.7Q129.2 221.7 129.2 224.1Q129.2 226.45 126.85 226.45Q124.45 226.45 124.45 224.1Q124.45 221.7 126.85 221.7M126.85,202.45Q129.2 202.45 129.2 204.85Q129.2 207.25 126.85 207.25Q124.45 207.25 124.45 204.85Q124.45 202.45 126.85 202.45M126.85,240.95Q129.2 240.95 129.2 243.3Q129.2 245.85 126.85 245.85Q124.45 245.85 124.45 243.3Q124.45 240.95 126.85 240.95M126.85,250.65Q129.2 250.65 129.2 253Q129.2 255.4 126.85 255.4Q124.45 255.4 124.45 253Q124.45 250.65 126.85 250.65M126.85,231.4Q129.2 231.4 129.2 233.8Q129.2 236.15 126.85 236.15Q124.45 236.15 124.45 233.8Q124.45 231.4 126.85 231.4M126.85,269.85Q129.2 269.85 129.2 272.25Q129.2 274.6 126.85 274.6Q124.45 274.6 124.45 272.25Q124.45 269.85 126.85 269.85M126.85,260.15Q129.2 260.15 129.2 262.7Q129.2 265.1 126.85 265.1Q124.45 265.1 124.45 262.7Q124.45 260.15 126.85 260.15M126.85,279.55Q129.2 279.55 129.2 281.95Q129.2 284.35 126.85 284.35Q124.45 284.35 124.45 281.95Q124.45 279.55 126.85 279.55M126.85,289.1Q129.2 289.1 129.2 291.45Q129.2 294.05 126.85 294.05Q124.45 294.05 124.45 291.45Q124.45 289.1 126.85 289.1M126.85,298.8Q129.2 298.8 129.2 301.2Q129.2 303.55 126.85 303.55Q124.45 303.55 124.45 301.2Q124.45 298.8 126.85 298.8M126.85,308.3Q129.2 308.3 129.2 310.9Q129.2 313.25 126.85 313.25Q124.45 313.25 124.45 310.9Q124.45 308.3 126.85 308.3M126.85,318.05Q129.2 318.05 129.2 320.4Q129.2 322.8 126.85 322.8Q124.45 322.8 124.45 320.4Q124.45 318.05 126.85 318.05M126.85,346.95Q129.2 346.95 129.2 349.35Q129.2 351.7 126.85 351.7Q124.45 351.7 124.45 349.35Q124.45 346.95 126.85 346.95M126.85,337.25Q129.2 337.25 129.2 339.65Q129.2 342.2 126.85 342.2Q124.45 342.2 124.45 339.65Q124.45 337.25 126.85 337.25M126.85,327.75Q129.2 327.75 129.2 330.1Q129.2 332.5 126.85 332.5Q124.45 332.5 124.45 330.1Q124.45 327.75 126.85 327.75M126.85,356.5Q129.2 356.5 129.2 359.05Q129.2 361.45 126.85 361.45Q124.45 361.45 124.45 359.05Q124.45 356.5 126.85 356.5M126.85,366.2Q129.2 366.2 129.2 368.55Q129.2 370.95 126.85 370.95Q124.45 370.95 124.45 368.55Q124.45 366.2 126.85 366.2M126.85,385.4Q129.2 385.4 129.2 387.8Q129.2 390.2 126.85 390.2Q124.45 390.2 124.45 387.8Q124.45 385.4 126.85 385.4M126.85,395.1Q129.2 395.1 129.2 397.5Q129.2 399.9 126.85 399.9Q124.45 399.9 124.45 397.5Q124.45 395.1 126.85 395.1M126.85,375.9Q129.2 375.9 129.2 378.25Q129.2 380.65 126.85 380.65Q124.45 380.65 124.45 378.25Q124.45 375.9 126.85 375.9M126.85,423.9Q129.2 423.9 129.2 426.45Q129.2 428.8 126.85 428.8Q124.45 428.8 124.45 426.45Q124.45 423.9 126.85 423.9M126.85,414.35Q129.2 414.35 129.2 416.75Q129.2 419.1 126.85 419.1Q124.45 419.1 124.45 416.75Q124.45 414.35 126.85 414.35M126.85,404.65Q129.2 404.65 129.2 407.05Q129.2 409.6 126.85 409.6Q124.45 409.6 124.45 407.05Q124.45 404.65 126.85 404.65M126.85,433.6Q129.2 433.6 129.2 435.95Q129.2 438.35 126.85 438.35Q124.45 438.35 124.45 435.95Q124.45 433.6 126.85 433.6M126.85,443.3Q129.2 443.3 129.2 445.65Q129.2 448.05 126.85 448.05Q124.45 448.05 124.45 445.65Q124.45 443.3 126.85 443.3M126.85,472.05Q129.2 472.05 129.2 474.6Q129.2 477 126.85 477Q124.45 477 124.45 474.6Q124.45 472.05 126.85 472.05M126.85,452.8Q129.2 452.8 129.2 455.2Q129.2 457.75 126.85 457.75Q124.45 457.75 124.45 455.2Q124.45 452.8 126.85 452.8M126.85,462.5Q129.2 462.5 129.2 464.9Q129.2 467.3 126.85 467.3Q124.45 467.3 124.45 464.9Q124.45 462.5 126.85 462.5M126.85,481.75Q129.2 481.75 129.2 484.15Q129.2 486.5 126.85 486.5Q124.45 486.5 124.45 484.15Q124.45 481.75 126.85 481.75M126.85,491.45Q129.2 491.45 129.2 493.85Q129.2 496.2 126.85 496.2Q124.45 496.2 124.45 493.85Q124.45 491.45 126.85 491.45M126.85,510.7Q129.2 510.7 129.2 513.05Q129.2 515.45 126.85 515.45Q124.45 515.45 124.45 513.05Q124.45 510.7 126.85 510.7M126.85,520.2Q129.2 520.2 129.2 522.75Q129.2 525.15 126.85 525.15Q124.45 525.15 124.45 522.75Q124.45 520.2 126.85 520.2M126.85,501Q129.2 501 129.2 503.35Q129.2 505.9 126.85 505.9Q124.45 505.9 124.45 503.35Q124.45 501 126.85 501M126.85,529.9Q129.2 529.9 129.2 532.3Q129.2 534.7 126.85 534.7Q124.45 534.7 124.45 532.3Q124.45 529.9 126.85 529.9M126.85,539.6Q129.2 539.6 129.2 542Q129.2 544.4 126.85 544.4Q124.45 544.4 124.45 542Q124.45 539.6 126.85 539.6M126.85,558.85Q129.2 558.85 129.2 561.25Q129.2 563.6 126.85 563.6Q124.45 563.6 124.45 561.25Q124.45 558.85 126.85 558.85M126.85,568.4Q129.2 568.4 129.2 570.75Q129.2 573.3 126.85 573.3Q124.45 573.3 124.45 570.75Q124.45 568.4 126.85 568.4M126.85,549.15Q129.2 549.15 129.2 551.55Q129.2 553.9 126.85 553.9Q124.45 553.9 124.45 551.55Q124.45 549.15 126.85 549.15M126.85,578.1Q129.2 578.1 129.2 580.45Q129.2 582.85 126.85 582.85Q124.45 582.85 124.45 580.45Q124.45 578.1 126.85 578.1M126.85,587.6Q129.2 587.6 129.2 590.15Q129.2 592.55 126.85 592.55Q124.45 592.55 124.45 590.15Q124.45 587.6 126.85 587.6M126.85,597.3Q129.2 597.3 129.2 599.7Q129.2 602.1 126.85 602.1Q124.45 602.1 124.45 599.7Q124.45 597.3 126.85 597.3M126.85,607Q129.2 607 129.2 609.4Q129.2 611.8 126.85 611.8Q124.45 611.8 124.45 609.4Q124.45 607 126.85 607M126.85,616.55Q129.2 616.55 129.2 618.95Q129.2 621.5 126.85 621.5Q124.45 621.5 124.45 618.95Q124.45 616.55 126.85 616.55M129.2,647.9L129.05 648.95Q128.6 650.3 126.85 650.3Q125.05 650.3 124.6 648.95Q124.45 648.5 124.45 647.9L124.45 647.85Q124.45 645.5 126.85 645.5Q129.2 645.5 129.2 647.85L129.2 647.9M126.85,626.25Q129.2 626.25 129.2 628.65Q129.2 631 126.85 631Q124.45 631 124.45 628.65Q124.45 626.25 126.85 626.25M126.85,635.8Q129.2 635.8 129.2 638.35Q129.2 640.7 126.85 640.7Q124.45 640.7 124.45 638.35Q124.45 635.8 126.85 635.8M126.85,655.05Q129.2 655.05 129.2 657.6Q129.2 660 126.85 660Q124.45 660 124.45 657.6Q124.45 655.05 126.85 655.05M126.85,664.75Q129.2 664.75 129.2 667.15Q129.2 669.5 126.85 669.5Q124.45 669.5 124.45 667.15Q124.45 664.75 126.85 664.75M126.85,684Q129.2 684 129.2 686.35Q129.2 688.75 126.85 688.75Q124.45 688.75 124.45 686.35Q124.45 684 126.85 684M126.85,674.45Q129.2 674.45 129.2 676.85Q129.2 679.2 126.85 679.2Q124.45 679.2 124.45 676.85Q124.45 674.45 126.85 674.45M126.85,693.7Q129.2 693.7 129.2 696.05Q129.2 698.45 126.85 698.45Q124.45 698.45 124.45 696.05Q124.45 693.7 126.85 693.7M126.85,703.2Q129.2 703.2 129.2 705.6Q129.2 708.15 126.85 708.15Q124.45 708.15 124.45 705.6Q124.45 703.2 126.85 703.2M126.85,712.9Q129.2 712.9 129.2 715.3Q129.2 717.7 126.85 717.7Q124.45 717.7 124.45 715.3Q124.45 712.9 126.85 712.9M126.85,722.45Q129.2 722.45 129.2 725Q129.2 727.4 126.85 727.4Q124.45 727.4 124.45 725Q124.45 722.45 126.85 722.45M126.85,741.85Q129.2 741.85 129.2 744.25Q129.2 746.6 126.85 746.6Q124.45 746.6 124.45 744.25Q124.45 741.85 126.85 741.85M126.85,732.15Q129.2 732.15 129.2 734.55Q129.2 736.9 126.85 736.9Q124.45 736.9 124.45 734.55Q124.45 732.15 126.85 732.15M126.85,770.6Q129.2 770.6 129.2 773.15Q129.2 775.55 126.85 775.55Q124.45 775.55 124.45 773.15Q124.45 770.6 126.85 770.6M126.85,761.1Q129.2 761.1 129.2 763.45Q129.2 765.85 126.85 765.85Q124.45 765.85 124.45 763.45Q124.45 761.1 126.85 761.1M126.85,751.4Q129.2 751.4 129.2 753.75Q129.2 756.3 126.85 756.3Q124.45 756.3 124.45 753.75Q124.45 751.4 126.85 751.4M126.85,790Q129.2 790 129.2 792.4Q129.2 794.8 126.85 794.8Q124.45 794.8 124.45 792.4Q124.45 790 126.85 790M126.85,780.3Q129.2 780.3 129.2 782.7Q129.2 785.05 126.85 785.05Q124.45 785.05 124.45 782.7Q124.45 780.3 126.85 780.3M126.85,818.75Q129.2 818.75 129.2 821.35Q129.2 823.7 126.85 823.7Q124.45 823.7 124.45 821.35Q124.45 818.75 126.85 818.75M126.85,799.55Q129.2 799.55 129.2 801.9Q129.2 804.5 126.85 804.5Q124.45 804.5 124.45 801.9Q124.45 799.55 126.85 799.55M126.85,809.25Q129.2 809.25 129.2 811.65Q129.2 814 126.85 814Q124.45 814 124.45 811.65Q124.45 809.25 126.85 809.25M126.85,838.2Q129.2 838.2 129.2 840.55Q129.2 842.95 126.85 842.95Q124.45 842.95 124.45 840.55Q124.45 838.2 126.85 838.2M126.85,828.5Q129.2 828.5 129.2 830.85Q129.2 833.25 126.85 833.25Q124.45 833.25 124.45 830.85Q124.45 828.5 126.85 828.5M126.85,857.4Q129.2 857.4 129.2 859.8Q129.2 862.15 126.85 862.15Q124.45 862.15 124.45 859.8Q124.45 857.4 126.85 857.4M126.85,866.95Q129.2 866.95 129.2 869.5Q129.2 871.9 126.85 871.9Q124.45 871.9 124.45 869.5Q124.45 866.95 126.85 866.95M126.85,847.7Q129.2 847.7 129.2 850.1Q129.2 852.65 126.85 852.65Q124.45 852.65 124.45 850.1Q124.45 847.7 126.85 847.7M126.85,876.65Q129.2 876.65 129.2 879Q129.2 881.4 126.85 881.4Q124.45 881.4 124.45 879Q124.45 876.65 126.85 876.65M126.85,886.35Q129.2 886.35 129.2 888.7Q129.2 891.1 126.85 891.1Q124.45 891.1 124.45 888.7Q124.45 886.35 126.85 886.35M126.85,905.55Q129.2 905.55 129.2 907.95Q129.2 910.35 126.85 910.35Q124.45 910.35 124.45 907.95Q124.45 905.55 126.85 905.55M126.85,915.1Q129.2 915.1 129.2 917.5Q129.2 920.05 126.85 920.05Q124.45 920.05 124.45 917.5Q124.45 915.1 126.85 915.1M126.85,895.85Q129.2 895.85 129.2 898.25Q129.2 900.65 126.85 900.65Q124.45 900.65 124.45 898.25Q124.45 895.85 126.85 895.85M126.85,924.8Q129.2 924.8 129.2 927.2Q129.2 929.55 126.85 929.55Q124.45 929.55 124.45 927.2Q124.45 924.8 126.85 924.8M126.85,934.35Q129.2 934.35 129.2 936.9Q129.2 939.25 126.85 939.25Q124.45 939.25 124.45 936.9Q124.45 934.35 126.85 934.35M126.85,944.05Q129.2 944.05 129.2 946.4Q129.2 948.8 126.85 948.8Q124.45 948.8 124.45 946.4Q124.45 944.05 126.85 944.05M126.85,953.75Q129.2 953.75 129.2 956.1Q129.2 958.5 126.85 958.5Q124.45 958.5 124.45 956.1Q124.45 953.75 126.85 953.75M126.85,963.25Q129.2 963.25 129.2 965.65Q129.2 968.2 126.85 968.2Q124.45 968.2 124.45 965.65Q124.45 963.25 126.85 963.25M126.85,972.95Q129.2 972.95 129.2 975.35Q129.2 977.75 126.85 977.75Q124.45 977.75 124.45 975.35Q124.45 972.95 126.85 972.95M126.85,982.5Q129.2 982.5 129.2 985.05Q129.2 987.45 126.85 987.45Q124.45 987.45 124.45 985.05Q124.45 982.5 126.85 982.5M126.85,992.2Q129.2 992.2 129.2 994.6Q129.2 996.95 126.85 996.95Q124.45 996.95 124.45 994.6Q124.45 992.2 126.85 992.2M126.85,1001.9Q129.2 1001.9 129.2 1004.3Q129.2 1006.65 126.85 1006.65Q124.45 1006.65 124.45 1004.3Q124.45 1001.9 126.85 1001.9M126.85,1011.45Q129.2 1011.45 129.2 1013.8Q129.2 1016.35 126.85 1016.35Q124.45 1016.35 124.45 1013.8Q124.45 1011.45 126.85 1011.45M126.85,1030.65Q129.2 1030.65 129.2 1033.2Q129.2 1035.6 126.85 1035.6Q124.45 1035.6 124.45 1033.2Q124.45 1030.65 126.85 1030.65M126.85,1021.15Q129.2 1021.15 129.2 1023.5Q129.2 1025.9 126.85 1025.9Q124.45 1025.9 124.45 1023.5Q124.45 1021.15 126.85 1021.15M126.85,1040.35Q129.2 1040.35 129.2 1042.75Q129.2 1045.15 126.85 1045.15Q124.45 1045.15 124.45 1042.75Q124.45 1040.35 126.85 1040.35M126.85,1050.05Q129.2 1050.05 129.2 1052.45Q129.2 1054.85 126.85 1054.85Q124.45 1054.85 124.45 1052.45Q124.45 1050.05 126.85 1050.05M126.85,1059.6Q129.2 1059.6 129.2 1062Q129.2 1064.35 126.85 1064.35Q124.45 1064.35 124.45 1062Q124.45 1059.6 126.85 1059.6M126.85,1069.3Q129.2 1069.3 129.2 1071.7Q129.2 1074.05 126.85 1074.05Q124.45 1074.05 124.45 1071.7Q124.45 1069.3 126.85 1069.3M126.85,1088.55Q129.2 1088.55 129.2 1090.9Q129.2 1093.3 126.85 1093.3Q124.45 1093.3 124.45 1090.9Q124.45 1088.55 126.85 1088.55M126.85,1078.85Q129.2 1078.85 129.2 1081.2Q129.2 1083.75 126.85 1083.75Q124.45 1083.75 124.45 1081.2Q124.45 1078.85 126.85 1078.85M126.85,1117.45Q129.2 1117.45 129.2 1119.85Q129.2 1122.25 126.85 1122.25Q124.45 1122.25 124.45 1119.85Q124.45 1117.45 126.85 1117.45M126.85,1098.05Q129.2 1098.05 129.2 1100.6Q129.2 1103 126.85 1103Q124.45 1103 124.45 1100.6Q124.45 1098.05 126.85 1098.05M126.85,1107.75Q129.2 1107.75 129.2 1110.15Q129.2 1112.55 126.85 1112.55Q124.45 1112.55 124.45 1110.15Q124.45 1107.75 126.85 1107.75M126.85,1136.7Q129.2 1136.7 129.2 1139.1Q129.2 1141.45 126.85 1141.45Q124.45 1141.45 124.45 1139.1Q124.45 1136.7 126.85 1136.7M126.85,1127Q129.2 1127 129.2 1129.4Q129.2 1131.95 126.85 1131.95Q124.45 1131.95 124.45 1129.4Q124.45 1127 126.85 1127M129.2,1158.9Q128.9 1160.85 126.85 1160.85Q124.75 1160.85 124.5 1158.9L124.45 1158.3Q124.45 1155.95 126.85 1155.95Q129.2 1155.95 129.2 1158.3L129.2 1158.9M126.85,1165.65Q129.2 1165.65 129.2 1168Q129.2 1170.4 126.85 1170.4Q124.45 1170.4 124.45 1168Q124.45 1165.65 126.85 1165.65M126.85,1146.25Q129.2 1146.25 129.2 1148.8Q129.2 1151.15 126.85 1151.15Q124.45 1151.15 124.45 1148.8Q124.45 1146.25 126.85 1146.25M126.85,1184.85Q129.2 1184.85 129.2 1187.25Q129.2 1189.65 126.85 1189.65Q124.45 1189.65 124.45 1187.25Q124.45 1184.85 126.85 1184.85M126.85,1175.15Q129.2 1175.15 129.2 1177.7Q129.2 1180.1 126.85 1180.1Q124.45 1180.1 124.45 1177.7Q124.45 1175.15 126.85 1175.15M126.85,1213.8Q129.2 1213.8 129.2 1216.2Q129.2 1218.55 126.85 1218.55Q124.45 1218.55 124.45 1216.2Q124.45 1213.8 126.85 1213.8M126.85,1194.55Q129.2 1194.55 129.2 1196.95Q129.2 1199.35 126.85 1199.35Q124.45 1199.35 124.45 1196.95Q124.45 1194.55 126.85 1194.55M126.85,1204.1Q129.2 1204.1 129.2 1206.5Q129.2 1209.05 126.85 1209.05Q124.45 1209.05 124.45 1206.5Q124.45 1204.1 126.85 1204.1M126.85,1223.35Q129.2 1223.35 129.2 1225.9Q129.2 1228.25 126.85 1228.25Q124.45 1228.25 124.45 1225.9Q124.45 1223.35 126.85 1223.35" />
<path style="fill:#F5B1A5;fill-opacity:1" d="M127.85,1231.25Q129.7 1229.35 131.25 1231.25Q132.8 1233.1 131.1 1234.65Q129.7 1236.35 127.7 1234.65Q126.15 1232.75 127.85 1231.25" />
<path style="fill:#F5B1A5;fill-opacity:1" d="M143.85,1235.5Q143.85 1234.65 144.55 1233.8Q145.2 1233.1 146.25 1233.1Q148.6 1233.1 148.6 1235.5Q148.6 1238.05 146.25 1238.05Q143.85 1238.05 143.85 1235.5M153.55,1235.5Q153.55 1233.1 155.95 1233.1Q158.3 1233.1 158.3 1235.5Q158.3 1238.05 155.95 1238.05Q153.55 1238.05 153.55 1235.5M163.25,1235.5Q163.25 1234.65 163.95 1233.8Q164.6 1233.1 165.65 1233.1Q168 1233.1 168 1235.5Q168 1238.05 165.65 1238.05Q163.25 1238.05 163.25 1235.5M173.65,1237.35Q172.95 1236.5 172.95 1235.5Q172.95 1234.65 173.65 1233.8Q174.5 1233.1 175.35 1233.1Q176.35 1233.1 177.2 1233.8Q177.9 1234.65 177.9 1235.5Q177.9 1236.5 177.2 1237.35Q176.35 1238.05 175.35 1238.05Q174.5 1238.05 173.65 1237.35M182.8,1235.5Q182.8 1233.1 185.2 1233.1Q187.6 1233.1 187.6 1235.5Q187.6 1238.05 185.2 1238.05Q182.8 1238.05 182.8 1235.5M192.5,1235.5Q192.5 1234.65 193.2 1233.8Q193.9 1233.1 194.9 1233.1Q197.3 1233.1 197.3 1235.5Q197.3 1238.05 194.9 1238.05Q192.5 1238.05 192.5 1235.5M202.2,1235.5Q202.2 1234.65 202.9 1233.8Q203.6 1233.1 204.6 1233.1Q207 1233.1 207 1235.5Q207 1238.05 204.6 1238.05Q202.2 1238.05 202.2 1235.5M212.75,1237.35Q211.9 1236.5 211.9 1235.5Q211.9 1234.65 212.75 1233.8Q213.45 1233.1 214.45 1233.1Q215.3 1233.1 216.15 1233.8Q216.85 1234.65 216.85 1235.5Q216.85 1236.5 216.15 1237.35Q215.3 1238.05 214.45 1238.05Q213.45 1238.05 212.75 1237.35M221.8,1235.5Q221.8 1233.1 224.15 1233.1Q225.2 1233.1 225.9 1233.8Q226.55 1234.65 226.55 1235.5Q226.55 1238.05 224.15 1238.05Q221.8 1238.05 221.8 1235.5" />
<path style="fill:#F5B1A5;fill-opacity:1" d="M125.15,129.45Q124.45 128.95 124.45 127.75Q124.45 126.7 125.15 126.05Q125.8 125.35 126.85 125.35Q127.5 125.35 128.55 126.05Q129.2 127.05 129.2 127.75Q129.2 128.75 128.55 129.45Q127.7 130.3 126.85 130.3Q125.65 130.3 125.15 129.45M232.2,1237.15Q231.5 1236.5 231.5 1235.3Q231.5 1234.3 232.2 1233.6Q233.2 1232.9 233.9 1232.9Q234.55 1232.9 235.6 1233.6Q236.25 1234.3 236.25 1235.3Q236.25 1236.5 235.6 1237.15Q234.55 1237.85 233.9 1237.85Q233.2 1237.85 232.2 1237.15M125.15,1227.45Q124.45 1226.8 124.45 1225.75Q124.45 1224.6 125.15 1224.05Q125.65 1223.4 126.85 1223.4Q127.85 1223.4 128.55 1224.05Q129.2 1224.75 129.2 1225.75Q129.2 1226.45 128.55 1227.45Q127.5 1228.15 126.85 1228.15Q125.8 1228.15 125.15 1227.45M134.65,1237.15Q134 1236.15 134 1235.3Q134 1234.6 134.65 1233.6Q135.7 1232.9 136.35 1232.9Q137.4 1232.9 138.05 1233.6Q138.9 1234.45 138.9 1235.3Q138.9 1236.3 138.05 1237.15Q137.4 1237.85 136.35 1237.85Q135.7 1237.85 134.65 1237.15" />
</g>
</svg>
