<?xml version="1.0" encoding="utf-8"?>
<svg version="1.1" id="Layer_1"
xmlns="http://www.w3.org/2000/svg"
xmlns:xlink="http://www.w3.org/1999/xlink"
xmlns:author="http://www.sothink.com"
width="34px" height="35px"
xml:space="preserve">
<g id="61" transform="matrix(1, 0, 0, 1, -257, -221.35)">
<path style="fill:#000000;fill-opacity:1" d="M290.9,250.45Q290.4 253.35 289.2 254.2Q288 255.4 285.95 255.4L261.95 255.4Q257 255.4 257 250.45L257 226.3Q257 221.35 261.95 221.35L285.95 221.35Q288.15 221.35 289.5 222.9Q290.9 224.25 290.9 226.45L290.9 250.45M268.6,226.45L273.2 226.65L275.9 226.45L275.55 247.2L275.9 250.8L272.7 250.8L273 247.2L273 228.85L271.3 228.85L268.6 229L268.6 226.45M262.45,222.55Q258.2 222.55 258.2 226.8L258.2 249.95Q258.2 254.2 262.45 254.2L285.45 254.2Q289.7 254.2 289.7 249.95L289.7 226.8Q289.7 222.55 285.45 222.55L262.45 222.55" />
</g>
</svg>
