<?xml version="1.0" encoding="utf-8"?>
<svg version="1.1" id="Layer_1"
xmlns="http://www.w3.org/2000/svg"
xmlns:xlink="http://www.w3.org/1999/xlink"
xmlns:author="http://www.sothink.com"
width="102px" height="206px"
xml:space="preserve">
<g id="70" transform="matrix(1, 0, 0, 1, 50.6, 102.8)">
<path style="fill:#FFFFFF;fill-opacity:1" d="M50.65,98.05Q50.15 100.75 49.1 101.8Q47.9 102.8 45.9 102.8L22.55 102.8Q17.8 102.8 17.8 98.05L17.8 74.7Q17.8 69.95 22.55 69.95L45.9 69.95Q47.9 69.95 49.3 71.3Q50.65 72.7 50.65 74.7L50.65 98.05" />
<path style="fill:#FFFFFF;fill-opacity:1" d="M-17.75,-74.7Q-17.95 -72 -19.3 -70.95Q-20.5 -69.95 -22.55 -69.95L-45.85 -69.95Q-47.9 -69.95 -49.25 -71.3Q-50.6 -72.5 -50.6 -74.7L-50.6 -98.05Q-50.6 -100.05 -49.25 -101.45Q-47.9 -102.8 -45.85 -102.8L-22.55 -102.8Q-20.5 -102.8 -19.15 -101.45Q-17.75 -100.05 -17.75 -98.05L-17.75 -74.7" />
<path style="fill:#000000;fill-opacity:1" d="M-17.75,-74.7Q-17.95 -72 -19.3 -70.95Q-20.5 -69.95 -22.55 -69.95L-45.85 -69.95Q-47.9 -69.95 -49.25 -71.3Q-50.6 -72.5 -50.6 -74.7L-50.6 -98.05Q-50.6 -100.05 -49.25 -101.45Q-47.9 -102.8 -45.85 -102.8L-22.55 -102.8Q-20.5 -102.8 -19.15 -101.45Q-17.75 -100.05 -17.75 -98.05L-17.75 -74.7M-45.35,-101.6Q-49.4 -101.6 -49.4 -97.5L-49.4 -75.2Q-49.4 -71.15 -45.35 -71.15L-23.05 -71.15Q-18.95 -71.15 -18.95 -75.2L-18.95 -97.5Q-18.95 -101.6 -23.05 -101.6L-45.35 -101.6M-41.6,-78.45Q-40.05 -82.2 -36.85 -84.6L-32.25 -87.8Q-28.85 -90.05 -28.85 -92.6Q-28.85 -96.35 -33.95 -96.35Q-37.15 -96.35 -38.35 -94.45Q-39.2 -93.1 -39.4 -91.4L-42.1 -91.75Q-41.4 -94.8 -40.05 -96.15Q-38.2 -98.55 -33.95 -98.55Q-30.35 -98.55 -28.3 -96.85Q-26.3 -95.3 -26.3 -92.6Q-26.3 -90.05 -28.3 -88Q-29.15 -86.95 -31.4 -85.6Q-33.75 -83.75 -36.15 -82.05Q-38.7 -79.8 -39.4 -76.9L-25.95 -77.1L-25.95 -74.55L-42.45 -74.55L-41.6 -78.45" />
<path style="fill:#000000;fill-opacity:1" d="M50.65,98.05Q50.15 100.75 49.1 101.8Q47.9 102.8 45.9 102.8L22.55 102.8Q17.8 102.8 17.8 98.05L17.8 74.7Q17.8 69.95 22.55 69.95L45.9 69.95Q47.9 69.95 49.3 71.3Q50.65 72.7 50.65 74.7L50.65 98.05M23.1,71.15Q19 71.15 19 75.25L19 97.55Q19 101.6 23.1 101.6L45.35 101.6Q49.45 101.6 49.45 97.55L49.45 75.25Q49.45 71.15 45.35 71.15L23.1 71.15M25.95,98.2Q26.3 95.85 26.8 94.3Q28.35 90.55 31.6 88.15L36.2 84.95Q39.4 82.7 39.4 80.15Q39.4 76.4 34.5 76.4Q31.25 76.4 30.05 78.3Q29.2 79.3 29.05 81.35L26.3 81Q27.15 77.8 28.2 76.6Q30.05 74.2 34.5 74.2Q42.15 74.2 42.15 80.15Q42.15 82.7 40.1 84.75Q39.25 85.8 37.05 87.15L32.1 90.7Q29.7 93.1 29.05 95.85L38.75 95.85L42.5 95.65L42.5 98.2L29.35 98.05L25.95 98.2" />
</g>
</svg>
