<?xml version="1.0" encoding="utf-8"?>
<svg version="1.1" id="Layer_1"
xmlns="http://www.w3.org/2000/svg"
xmlns:xlink="http://www.w3.org/1999/xlink"
xmlns:author="http://www.sothink.com"
width="356px" height="404px"
xml:space="preserve">
<g id="PathID_412" transform="matrix(0.0352941, 0, 0, 0.0352941, 0, 37.8)">
<path style="fill:#000000;fill-opacity:1" d="" />
</g>
<g id="PathID_413" transform="matrix(0.0352941, 0, 0, 0.0352941, 48, 37.8)">
<path style="fill:#000000;fill-opacity:1" d="M192.5 -169q-36.5 0.5 -66.5 18q-29.5 18 -47.5 47.5q-17.5 30 -18 66.5q0.5 37 18 67q18 29.5 47.5 47.5q30 17.5 66.5 18q36.5 -0.5 66.5 -18q29.5 -18 47.5 -47.5q17.5 -30 18 -67q-0.5 -37 -18 -67q-17.5 -29.5 -47 -47q-30 -17.5 -67 -18M192.5 -136q42.5 1 70 29q28 28 29 70q-1 42.5 -29 70.5q-27.5 28 -70 29q-41.5 -1 -70 -29.5q-28 -28 -29 -70q1 -42 29 -70q27.5 -28 70 -29" />
</g>
<g id="PathID_414" transform="matrix(0.0352941, 0, 0, 0.0352941, 96, 37.8)">
<path style="fill:#000000;fill-opacity:1" d="M450.5 -414.5l-10 16.5l-7.5 13q-4.5 6.5 -12.5 19.5l-31 52.5q-11.5 19.5 -19.5 32.5q-7.5 13 -15.5 26l-20 33.5q-10.5 18.5 -16 27q-5.5 9 -9 14l-8.5 13q-19 -13.5 -30.5 -31.5q-12 -17.5 -23 -48.5q-11.5 -31.5 -17.5 -69q-6 -37.5 -6 -79.5q0 -31 4.5 -68.5q5 -37 14 -84l2.5 -15.5q0.5 -6.5 0.5 -11q0 -17.5 -11.5 -38q-11.5 -20.5 -34.5 -43q-23.5 -23 -43.5 -36.5q-20.5 -13.5 -33.5 -13.5l-4.5 0l-4.5 0q22 27.5 33 50q11 22 15 51q4 28.5 4.5 75q-0.5 54 0 85.5q1 31.5 2.5 52.5q1.5 20.5 4.5 42.5q7.5 61.5 25.5 114q18 52.5 44 90.5q16.5 24 37 43.5q20.5 20 41 31.5q20 12 34.5 12q9.5 0 16 -7.5q6.5 -7 6.5 -18q0 -4 -0.5 -8q-0.5 -4.5 -1.5 -8.5l-5 -24q-1 -5.5 -1 -10.5q-0.5 -20 8.5 -51q8.5 -31 29.5 -84.5q21 -53 58.5 -138l-15.5 -7M679 -580.5q43.5 23.5 75 56.5q31 33 52 77.5q8.5 19 15.5 43q7.5 23.5 11.5 48q4.5 24 4.5 43q0.5 14 -4 20q-4.5 6 -19.5 11l-41.5 12q-34.5 10 -97 27q1.5 7.5 3.5 15l43 -1.5q17.5 -0.5 34.5 -0.5q32.5 0 50 3q17.5 2.5 27 9.5q10.5 6.5 17 9q6.5 2.5 13.5 2q23.5 -0.5 37.5 -22q13.5 -21.5 14 -58.5q-0.5 -72 -31.5 -136q-30.5 -64 -82.5 -109.5q-52.5 -45.5 -117.5 -61l-5 12.5" />
</g>
<g id="PathID_415" transform="matrix(0.0352941, 0, 0, 0.0352941, 144, 37.8)">
<path style="fill:#000000;fill-opacity:1" d="M376.5 -853q28.5 46 70 72.5q41 26.5 103.5 39q-20.5 7.5 -67.5 28l-106 47.5l5.5 14.5q78.5 -23 123 -35.5l67.5 -18.5q23 -5.5 36 -7l28.5 -1.5q20.5 0 31 -6q11 -5.5 11 -16.5q0 -7.5 -5.5 -16.5q-5.5 -9 -16 -18.5q-15 -12.5 -28 -18.5q-12.5 -6 -27.5 -6l-23.5 0q-54.5 0 -104 -17q-49.5 -16.5 -87.5 -48.5l-10.5 8.5M452.5 81q43.5 -19 83.5 -49q40 -29.5 77.5 -71q61 -68.5 94 -153.5q32.5 -85.5 33 -177q0 -46.5 -10.5 -85q-10 -38.5 -28.5 -65.5q-23 -32 -57 -50.5q-34 -18 -70 -18.5q-25.5 0 -49 4.5q-23 5 -52 18q-29.5 12.5 -72 36q-39.5 21.5 -62 31q-22 9 -32.5 9q-20 0 -34.5 -18.5q-14.5 -18 -21.5 -52q-9.5 11 -13 19.5q-3.5 8.5 -3.5 18q0 14.5 7 32.5q7.5 18.5 20.5 36.5q16.5 22.5 34 34q17.5 12 33.5 12q11.5 0.5 20 -4.5q8.5 -5 22 -19q53.5 -58 104.5 -89.5q51 -31 92 -31.5q46 0.5 71.5 44q25.5 43 26 120q0 53 -10.5 108q-11 55.5 -30.5 107.5q-19.5 52 -46 96q-25.5 41.5 -58 76q-32.5 35 -77 71l9 11.5" />
</g>
<g id="PathID_416" transform="matrix(0.0352941, 0, 0, 0.0352941, 192, 37.8)">
<path style="fill:#000000;fill-opacity:1" d="M292 -436q-16 34.5 -25.5 55.5q-9.5 21 -17 36.5l-16.5 32.5q-8.5 17.5 -23 45.5q-22.5 41.5 -41.5 72.5q-19 31 -34.5 48q-14.5 16.5 -19 27.5q-5 11 -4.5 30q0.5 33 8 52q8 18.5 22 18.5q7 0 13 -4.5q6 -5 11.5 -15q12.5 -22 36.5 -74q23.5 -51.5 54.5 -124.5q27 -63.5 42 -99.5l18.5 -43.5q16.5 -39 26.5 -61l14.5 -35l9.5 -22q3.5 -9 9 -21.5q28.5 -8.5 47 -13.5q18 -4.5 31.5 -6.5l28.5 -1.5q40.5 -0.5 57 21q16.5 21.5 16 72.5q0 39.5 -7.5 87q-8 48 -21.5 96.5q-13.5 49 -31.5 91.5q-19.5 47.5 -34.5 67q-15 19.5 -32 19q-16.5 0 -58 -18.5q-41 -18 -100.5 -52l-9.5 13q53.5 43.5 77 64.5q24 20.5 30 31.5q6.5 10.5 7 24q1.5 12 8 18q6.5 5.5 19.5 5.5q25 -0.5 51.5 -12.5q27 -12.5 46.5 -33.5q22.5 -25.5 42.5 -67q20.5 -41.5 36 -92.5q15.5 -51 24.5 -104.5q9 -54 9 -103.5q0 -80.5 -32 -120.5q-32.5 -39.5 -98.5 -39.5q-17 0 -36.5 2.5q-19.5 2.5 -52 10q22 -54 38 -88.5q16.5 -35 27 -51q9 -12.5 12 -18.5q3 -5.5 2.5 -11q0 -16.5 -18.5 -30q-18.5 -13.5 -53 -23.5q-21 -6 -39 -9.5q-18 -3.5 -29.5 -3.5q-9 -0.5 -15.5 2q-6.5 2 -15.5 8q44 14 62 29.5q17.5 16 17 39q0 18.5 -5.5 46.5q-5.5 28 -15 59.5q-9.5 32 -21.5 62q-62 16.5 -109 26q-47 10 -65 10q-28 0.5 -45 -12q-17.5 -12.5 -33 -44.5q-3 8 -4.5 13.5q-1.5 5.5 -1.5 9.5q0.5 14.5 10 37q9.5 22 24 40.5q10.5 13.5 23 22q13 8.5 22 9q5.5 0 12 -2q6.5 -2.5 17.5 -9.5q19 -11 49.5 -23q31 -12 83.5 -30l-30.5 66.5M714 -554q50 25.5 83 58q33 32 57 78.5q14 25.5 21.5 49q7.5 23.5 10.5 49q-15 6.5 -32 12.5q-16.5 6 -45 15q-29 9.5 -80 25q2.5 7 4.5 14l63.5 -6.5l34.5 -2q13 -0.5 30 -0.5q13.5 0 22 1.5q8.5 2 20 8.5q7 4.5 12.5 6q5 1.5 11 1.5q19 -0.5 30 -14.5q10.5 -14.5 11 -41q0 -34.5 -15 -71q-14.5 -36.5 -43.5 -74q-67.5 -88 -187.5 -123.5l-8 14.5" />
</g>
<g id="PathID_417" transform="matrix(0.0352941, 0, 0, 0.0352941, 240, 37.8)">
<path style="fill:#000000;fill-opacity:1" d="M755 -709q31 26 61 61q29.5 35.5 45.5 65q10.5 20 17 27q6.5 7.5 13.5 7q10.5 -0.5 17.5 -14q7 -14 7 -35q0.5 -19.5 -10.5 -35.5q-11 -15.5 -38.5 -33.5q-25.5 -17 -53 -31q-27 -14.5 -51.5 -23l-8 12M840 -777.5q42 33 68.5 59.5q26 27 46 58.5q10.5 15 17 21.5q7 6 13 6q8.5 -0.5 14.5 -14q5.5 -14 6 -35q0 -17 -13.5 -32.5q-13.5 -16 -41 -31q-25.5 -14.5 -51 -25.5q-25.5 -11 -51.5 -18.5l-8 11M289 -431l-25.5 55.5q-9.5 21 -17 36.5l-16.5 32q-8.5 17.5 -23 45q-21.5 41.5 -41.5 73q-19.5 31 -34.5 47.5q-14.5 17 -19 28q-5 11.5 -4.5 29.5q0.5 33 8 52q8 18.5 22 18.5q7 0 13 -4.5q6 -5 11.5 -15q12.5 -22 36.5 -74q23.5 -51.5 54.5 -124.5q26 -62 41.5 -97.5l19 -45.5q16.5 -38.5 26.5 -60.5q9.5 -22 14.5 -35l9.5 -21.5q3.5 -9.5 9 -22.5q28.5 -8 47 -12.5q18.5 -4.5 32 -6.5l27 -1.5q17 0 28 2.5q11 2.5 18.5 7.5q27.5 18.5 27.5 83.5q0 39.5 -7.5 87q-8 47.5 -21.5 96q-13.5 48.5 -31.5 91q-19.5 47.5 -35 67q-15 19.5 -31.5 19q-16.5 0 -58 -18.5q-41.5 -18 -100.5 -51l-9.5 12q53.5 43.5 77 64.5q24 20.5 30 31.5q6.5 10.5 7 24q1.5 12 8 18q6.5 5.5 19.5 5.5q25 -0.5 51.5 -13q27 -12.5 46.5 -33q22.5 -25 42.5 -66.5q20.5 -41.5 36 -92q15.5 -51 24.5 -104.5q9 -53.5 9 -103.5q0 -80.5 -32 -120.5q-32.5 -39.5 -98.5 -39.5q-18 0 -37 2q-19 2.5 -51.5 9.5q22 -53.5 38.5 -88.5q16.5 -35 26.5 -50q9 -13.5 12 -19q3 -6 2.5 -10.5q0 -16.5 -18.5 -30.5q-18.5 -14 -53 -24q-21 -6 -39.5 -9.5q-18.5 -3.5 -30 -4q-8 0 -14.5 2.5q-6.5 2.5 -15.5 9q43.5 13.5 61.5 29.5q18 15.5 17.5 39q0 18 -5.5 46q-5.5 28.5 -15 60.5q-9.5 32 -21.5 61.5q-38.5 10.5 -74 18.5q-35 8 -62 13q-26.5 4.5 -38 4.5q-28 0.5 -45 -12.5q-17.5 -12.5 -33 -44q-3 8 -4.5 13.5q-1.5 5.5 -1.5 9.5q0.5 14.5 10 37q9.5 22 24 40.5q10.5 13.5 23 22q13 8.5 22 9q5.5 0 12 -2q6.5 -2.5 17.5 -9.5q20.5 -11.5 50.5 -24q30 -12 82.5 -29l-30.5 66.5M711 -549q50 25 83 57q33 32.5 57 79.5q14 25 21.5 48.5q7.5 24 10.5 49.5q-15.5 6.5 -31.5 12.5l-44 15q-28.5 9 -81.5 25q2.5 6.5 4.5 13l63.5 -6.5l34.5 -2q13 -0.5 30 -0.5q13.5 -0.5 21.5 2q8 2 20.5 9q8 4.5 12.5 6q5 1.5 11 1.5q19 -0.5 30 -15q10.5 -14.5 11 -41.5q0 -33.5 -15 -70q-14.5 -36.5 -43.5 -74q-67.5 -88 -187.5 -123.5l-8 14.5" />
</g>
<g id="PathID_418" transform="matrix(0.0352941, 0, 0, 0.0352941, 288, 37.8)">
<path style="fill:#000000;fill-opacity:1" d="M177.5 -644.5q33.5 38 70.5 56.5q36.5 18.5 78.5 18.5q41.5 0 90 -8.5q49 -8 100.5 -24.5q18 28.5 37 60.5q18.5 32 35 62.5q-64 19.5 -119.5 29q-55 10 -99.5 10q-40.5 0.5 -68.5 -13.5q-28.5 -14 -52.5 -47l-12 9.5q12.5 24 23 37.5q11 13.5 26 24q22 15 47.5 22.5q26 7 59 7q31.5 0 69 -5q37.5 -4.5 75.5 -13.5q38.5 -8.5 73.5 -20.5q28.5 55 48.5 99q19.5 44.5 28 75.5q-55 -12 -101.5 -17.5q-46 -5 -91 -5q-81 0.5 -142 19.5q-60.5 19 -94 53q-33.5 34.5 -34 81q0.5 40.5 26 74q26 33.5 73 55q35 14.5 86 22.5q50.5 8 111 8l58 -2q28 -2.5 50 -5.5q22 -3.5 32 -8q8 -3 11.5 -8q4 -5 4 -11q-0.5 -13.5 -11 -25.5q-10 -12.5 -25.5 -20.5q-15.5 -8 -31 -8.5l-5.5 0.5q-3 1 -7 1.5q-35.5 8.5 -64 11.5q-28.5 3 -65 3q-94.5 0 -144 -25q-49 -24.5 -49.5 -72.5q0 -26 15 -46.5q15 -20.5 46.5 -36.5q26.5 -13.5 59.5 -21q33 -7.5 68.5 -7.5q45.5 0 90 9q44.5 9 82.5 24.5q38.5 16 65 37q11.5 10 17 13q5.5 3 11.5 2.5q15.5 -0.5 25 -18.5q9 -17.5 9 -48q0 -14.5 -4 -27.5q-4.5 -13.5 -13.5 -27.5l-17.5 -29l-12 -21l-17.5 -31.5l-9 -15.5q-4.5 -8.5 -13 -23l-24 -41.5q103.5 -36.5 151.5 -61.5q47.5 -25.5 47 -43.5q0 -12 -7.5 -19q-7.5 -6.5 -20 -7l-4 0.5l-4.5 0.5l-16 2q-3 0.5 -2 0q-15.5 0 -36.5 -7q-21 -7 -50 -21.5l-7 10.5q17.5 13.5 28 22.5q10 9.5 25.5 25.5q-13 8 -27 15q-14 6.5 -37 16q-23.5 9.5 -63 25q-21 -33.5 -33.5 -55q-12 -21 -17 -28.5l-12 -20.5l-10.5 -17.5q63 -20 101 -33q37.5 -13 49.5 -18.5q39.5 -16 53.5 -25.5q14 -9.5 13 -19.5q0 -13 -15 -20q-15 -6.5 -45 -6.5q-11.5 0 -19.5 2.5q-7.5 2.5 -13.5 7.5q-13 14 -29.5 25q-16 10.5 -43 22q-27.5 12 -74 29q-20 -39.5 -28.5 -57.5q-9 -18.5 -11 -26.5q-2 -8 -2.5 -17.5q-1 -20.5 -3.5 -27.5q-2 -7 -8.5 -12.5q-7 -6 -25 -9.5q-18 -3.5 -45 -3.5l-24 1q-11 1 -23 4q-20 4 -28 9q-8 5 -13 17.5q28.5 3 49 8.5q20 5.5 30 13q12 9 28 28q16 18.5 32 41.5q16 23 28 45.5q-23 8.5 -53 15.5q-30 7 -60.5 11q-30.5 4 -54.5 4q-39.5 0.5 -70 -10q-31 -10.5 -66 -36l-8 11" />
</g>
<g id="PathID_419" transform="matrix(0.0352941, 0, 0, 0.0352941, 0, 84)">
<path style="fill:#000000;fill-opacity:1" d="M484 -825.5q32 20.5 44.5 34q12.5 14 12 26.5q0.5 11.5 -12.5 34q-13 22.5 -47 66q-33.5 43.5 -95 118q-31 38 -48.5 62.5q-17 24.5 -24 42q-7 17 -6.5 33q0 20.5 9 40.5q9.5 20.5 30 45.5q39.5 46 63 74l37.5 45q14 17.5 24.5 32q11 14.5 24.5 34.5q27 38 49.5 76q22.5 37.5 36.5 68q12.5 27 19 35q6.5 8 16 7q16 0 25.5 -16q9 -16 9 -45.5q0.5 -20 -3 -36q-4 -15.5 -12 -31.5q-17.5 -35 -62 -83.5q-44 -49 -126.5 -125.5l-41 -37q-13 -12 -18.5 -17.5l-12.5 -13q-15 -15.5 -23 -29q-7.5 -13.5 -7.5 -24q-0.5 -14.5 11 -34q11.5 -19.5 38 -49q17.5 -19.5 51 -52q34 -33 71.5 -67q37.5 -34 66 -58q27 -22 39.5 -33.5q13 -11.5 16.5 -17.5q4 -6.5 3.5 -12.5q0 -10.5 -5 -20q-5.5 -9 -17.5 -21q-15 -14 -36 -26.5q-21 -12.5 -42 -20q-21 -7.5 -36 -8l-11.5 1q-4.5 1 -10 3" />
</g>
<g id="PathID_420" transform="matrix(0.0352941, 0, 0, 0.0352941, 48, 84)">
<path style="fill:#000000;fill-opacity:1" d="M275.5 -721q21 22.5 36.5 36q16 13.5 35.5 23.5q24.5 12.5 56 20q31.5 7.5 60.5 7.5q15 0 37 -1l40 -2l-14.5 8.5q-6.5 4 -22 12.5l-49.5 27q-19.5 10.5 -35.5 20l-39.5 23l7 15.5q13.5 -5 20 -8l20 -8.5l43 -18.5l21.5 -9l19.5 -7.5l74.5 -28q25.5 -9 41 -13.5q15.5 -4.5 34 -8.5q34 -7.5 50 -12q16 -5 20.5 -10q5 -5 4.5 -13.5q-0.5 -11.5 -10 -24q-10 -12 -24 -20.5q-14 -8.5 -27.5 -9q-2.5 0 -8 1.5q-5 1 -10.5 3q-30 9 -66.5 16q-36.5 7 -74.5 10.5q-38 4 -72 4q-34 0 -59.5 -4q-25.5 -4 -48.5 -14q-23 -10 -48.5 -27q-5.5 5 -10.5 10M237 -331q-8.5 25.5 -12.5 46.5q-4 21.5 -4 39.5q0.5 49.5 23 93q23 43.5 62 69q37.5 26 95.5 37.5q57.5 11.5 143 11.5q46 0 92 -2.5q45.5 -2.5 84 -7q38.5 -5 62.5 -11q16 -4 24.5 -12q8 -8 8 -19.5q0 -9.5 -5.5 -18.5q-6 -9 -17 -17.5q-13.5 -8.5 -28.5 -14.5q-15.5 -5.5 -27.5 -6q-4 0 -8.5 1q-4.5 1 -9 3q-46 17 -105.5 27q-59.5 10 -121 10q-123 0 -182.5 -44q-59.5 -44 -59 -135q0 -10.5 1 -20q0.5 -10 2 -26.5l-17 -4" />
</g>
<g id="PathID_421" transform="matrix(0.0352941, 0, 0, 0.0352941, 96, 84)">
<path style="fill:#000000;fill-opacity:1" d="M846.5 -195.5q-26 22 -47 38q-20.5 16 -40 28.5q-20 12.5 -43 24.5q-59 31 -119.5 48q-61 17 -114 17.5q-27 0 -50.5 -7.5q-23.5 -7 -40.5 -20q-21.5 -17.5 -31.5 -47q-9.5 -29.5 -9.5 -76q0 -37 3.5 -91.5q3.5 -54 9.5 -115.5q6 -61.5 13 -119.5q7 -58 14 -102q7.5 -43.5 13 -63q6.5 -17 8.5 -24.5q1.5 -7.5 1.5 -12.5q0 -16 -15 -31.5q-15 -15 -44.5 -29q-24.5 -10.5 -49 -17q-25 -6.5 -43.5 -6.5q-8 0 -14 2q-6.5 2.5 -14.5 8.5q36 14.5 54 29.5q18 14.5 23.5 39q6 24.5 5.5 67.5q0 17.5 -0.5 37.5q-0.5 20 -2 52l-4.5 86.5q-3 47 -4.5 93q-2 46 -3 85.5q-1 40 -1 68.5q0 64.5 6.5 105.5q7 41.5 22 67.5q24 41.5 67.5 64q44 22.5 102.5 23q64 0 128 -25.5q63.5 -25 122.5 -72.5q59.5 -47 109 -114l-12.5 -11" />
</g>
<g id="PathID_422" transform="matrix(0.0352941, 0, 0, 0.0352941, 144, 84)">
<path style="fill:#000000;fill-opacity:1" d="M362.5 58.5q47.5 -21 85.5 -45.5q38 -24.5 67 -52q53.5 -50.5 82 -117.5q28.5 -66.5 29 -142.5q0 -26 -3 -47q-2.5 -21 -10 -42.5q-7 -21 -20 -46.5l-1 -20.5l0 -14.5q0 -19.5 1 -44.5q1 -25 2.5 -50q1.5 -25 4 -45l56 -3q25.5 -1 53.5 -1l81.5 2.5q37 2.5 76 8l33.5 4l14.5 1.5l7.5 0.5q11.5 0 17 -4.5q5.5 -4.5 5.5 -13q0 -8 -3.5 -14.5q-4 -6.5 -13 -13q-20 -16 -45.5 -27q-25 -10.5 -41.5 -11q-5.5 -0.5 -12.5 2q-7 2 -25.5 9q-12 4.5 -25 7.5q-13 3 -38 5.5l-73 5.5l-29 2.5l-17.5 1.5l-20 2.5q3 -36.5 8.5 -60q5.5 -24 14 -39.5q6.5 -12.5 8.5 -17.5q2 -4.5 1.5 -10q0 -11 -10 -20.5q-10 -9 -29 -15.5q-22.5 -7 -47.5 -10.5q-25.5 -4 -52 -4q-20 0 -29 3.5q-9.5 4 -18 15q39 5.5 59.5 17q20.5 12 28.5 33.5q6 16 9 42q2.5 26 2.5 71.5l-68 7.5l-57 7.5q-27.5 3.5 -60 8.5l-77 12.5q-33.5 5 -53.5 7l-35 2q-30.5 0 -55 -13q-24.5 -13 -44 -39q-2.5 3.5 -4 7q-1 3.5 -1 5q0 13 12 34.5q11.5 21 28.5 40q18 18.5 35 29q17 10 31 10q4.5 0 11.5 -2q7 -1.5 12 -3q17 -9 32.5 -15.5q15 -6 34 -12q63 -19 130 -32q67 -13.5 128 -19l1 12.5l0 7.5q0 17 -0.5 38.5q0 21.5 -0.5 40.5l0 28q-19.5 -10.5 -31.5 -14q-12 -4 -26 -3.5q-38 0.5 -68 20.5q-29.5 20 -46.5 55.5q-17 35 -17.5 80.5q0.5 42.5 16.5 75.5q16.5 33 45 52.5q28 19 64.5 19.5q17.5 0 32.5 -5q15.5 -5 33 -15.5q-12.5 54 -35.5 97q-23 43 -61.5 81q-38.5 38 -97.5 78l8 13.5M551 -344q0 47.5 -16.5 71.5q-16 24.5 -49 24.5q-37 -1 -59.5 -31.5q-23 -30.5 -23.5 -80q1 -48 23.5 -78.5q23 -31 58.5 -32q33.5 0 50 31q16.5 31 16.5 95" />
</g>
<g id="PathID_423" transform="matrix(0.0352941, 0, 0, 0.0352941, 192, 84)">
<path style="fill:#000000;fill-opacity:1" d="M262 -770.5q-3.5 7 -5 11.5q-1 4.5 -1 8q0 12 5 28q5 15.5 14.5 31.5q14.5 27 31 41.5q16.5 15 32.5 15q6.5 0 13.5 -2.5q6.5 -2.5 17 -9q21 -12.5 50.5 -26.5q29.5 -13.5 73.5 -31q44.5 -17.5 66.5 -26q22 -8 31 -10.5q9.5 -2.5 14 -2.5q6.5 0.5 10.5 4q4 3.5 4 9.5q0.5 12 -39.5 56q-39.5 44 -124.5 124.5q-105.5 102 -177 157q-71 55.5 -110.5 67.5q-15.5 4.5 -21.5 10q-6.5 6 -6.5 16.5q0.5 10.5 10 23q9.5 12.5 22.5 22q13.5 9 25 9.5q4.5 0 9.5 -2.5q5.5 -2 16 -9q24 -15 67 -35.5q42.5 -20 95.5 -41.5q52.5 -21 106 -40q53.5 -19 98.5 -31.5q-41.5 24 -67.5 43.5q-25.5 19.5 -48.5 44.5q-31.5 33.5 -47.5 70q-16 37 -16 75.5q0.5 60 36 106q35.5 46 98 72.5q62.5 26 144.5 26.5q26.5 0 39.5 -6.5q13 -6.5 12.5 -21q-0.5 -11.5 -10.5 -25q-10 -13.5 -24 -23q-14 -10 -25.5 -10.5l-6 0.5l-10.5 1.5l-9 1l-10.5 0q-23 0 -38.5 -1q-15 -1 -27 -3q-11.5 -2.5 -24.5 -7.5q-48 -16.5 -74.5 -49.5q-26.5 -33.5 -27 -78.5q0.5 -54.5 37 -104q36.5 -50 102.5 -85.5q40 -21 89.5 -35q49 -14 92.5 -16l40 -2.5l17.5 -1q4.5 -0.5 8 -1.5q9.5 -1 15 -6.5q5.5 -5.5 5.5 -13q0 -8.5 -3.5 -15q-4 -6.5 -14 -15q-13.5 -11 -28 -17.5q-14.5 -7 -25 -7q-7 0 -15.5 1.5q-8 2 -26.5 9q-17.5 6 -41 12.5q-23 7 -54.5 16q-76.5 22 -133.5 39q-57 17.5 -101 31.5q-44.5 14.5 -83.5 28.5q-39 14 -80 30q52.5 -39 106 -80l102.5 -80q49 -39 88.5 -71.5q57.5 -47.5 91 -73q33.5 -25.5 44 -30.5q16.5 -6.5 21 -11q5 -4.5 4.5 -12.5q-1 -16.5 -17.5 -39q-16.5 -22 -38 -39.5q-22 -17 -37.5 -18q-4.5 0 -9.5 2q-5 2 -9 5q-10 9 -13.5 11.5q-3 2 -7 4q-9.5 4.5 -29 11q-19.5 6 -51 14.5q-57 16.5 -100 26q-42.5 10 -57.5 10q-14 0 -24.5 -3q-10.5 -3 -17.5 -9.5q-13.5 -10 -22 -21q-9 -11 -17 -27" />
</g>
<g id="PathID_424" transform="matrix(0.0352941, 0, 0, 0.0352941, 240, 84)">
<path style="fill:#000000;fill-opacity:1" d="M107.5 -668q-6.5 9 -9 15q-2.5 6 -2 12q0 12.5 7 31q7 18.5 19.5 37.5q18 28 39 44q21 16 40 16.5q9 0.5 17.5 -2.5q8.5 -3 23.5 -12q25.5 -13.5 70 -31.5q44 -18 93.5 -34q58 -19 107.5 -32q49 -13.5 94.5 -23q45.5 -9 92 -15.5q-42.5 21.5 -72 39.5q-30 18.5 -52.5 36.5q-22.5 18.5 -42.5 40.5q-53.5 58 -82.5 122.5q-28.5 64.5 -29 127.5q0 71.5 30 129.5q30 58 88.5 100q29.5 20.5 66.5 37.5q37 16.5 74.5 26q37 10 67 10q17 0 27.5 -7.5q10 -8 10.5 -21q-0.5 -9.5 -8.5 -22.5q-8.5 -12.5 -22.5 -26.5q-10.5 -10 -19.5 -13.5q-8.5 -3.5 -23.5 -3q-22.5 -1 -50.5 -7.5q-28 -6.5 -54 -17q-66 -29 -100.5 -80q-34.5 -51 -34.5 -122q0.5 -65 29 -125.5q28.5 -60.5 77.5 -108.5q48.5 -48 110 -76q61.5 -28.5 127.5 -29l13 0.5q6 0 15.5 1.5q5.5 1 10.5 1l8 0q15 0 23.5 -7q8.5 -7 8.5 -18.5q0 -10.5 -7.5 -20q-7 -9 -22.5 -19q-15.5 -9.5 -30.5 -15.5q-15 -6 -24.5 -6q-6 0 -13.5 2q-7.5 1.5 -22.5 6q-15 5 -32 10q-17.5 4.5 -42.5 10q-25 5.5 -63.5 13q-51 10 -92.5 19q-41.5 9 -73.5 17q-85 20.5 -137 32.5q-52 12.5 -80 18.5q-28 6 -42.5 8l-24 1.5q-15 0 -25.5 -3.5q-10 -4 -20.5 -14q-12 -10.5 -19.5 -22.5q-7.5 -12 -14.5 -30" />
</g>
<g id="PathID_425" transform="matrix(0.0352941, 0, 0, 0.0352941, 288, 84)">
<path style="fill:#000000;fill-opacity:1" d="M711.5 -540q30 28.5 55 59q24.5 31 40 60q14 26 19.5 33q5 7 11.5 6q11 -0.5 18 -14.5q7 -14 7.5 -35.5q0 -17.5 -9.5 -33q-10 -15 -30.5 -30.5q-20.5 -15 -47 -29.5q-26.5 -14.5 -55.5 -27l-9 12M811.5 -583q38.5 28.5 65 58.5q27 30 44 64.5q5 12 10 17q5 5 10 4.5q11 -0.5 18 -14q6.5 -14 7 -35q0 -20.5 -11 -36.5q-10.5 -15.5 -34 -29q-21.5 -12 -45.5 -22q-24.5 -10 -56 -19q-3.5 5.5 -7.5 11M96 -663.5q-6.5 10 -9 16q-2.5 6 -2 11.5q0 13 7 31.5q7 18 19.5 37q18 28 39 44q21 16 40 16.5q9 0.5 17.5 -2.5q8.5 -3 23.5 -12q25.5 -13.5 70 -31.5q44 -18 93.5 -34q58 -18.5 107.5 -32q49 -13.5 94.5 -23q45.5 -9.5 92 -16q-42.5 22 -72.5 40q-30 18.5 -52 36.5q-22.5 18.5 -42.5 40.5q-53.5 57 -82.5 122q-28.5 65 -29 128q0 71 30 129.5q30 58 88.5 100q29.5 20.5 66.5 37.5q37 16.5 74.5 26q37.5 10 68 10q16.5 0 26.5 -8q10 -8 10.5 -20.5q-0.5 -9.5 -8 -22.5q-8 -12.5 -23 -26.5q-10 -10 -19 -13.5q-9 -3.5 -24 -3q-23.5 -1 -50.5 -7.5q-27.5 -6.5 -54 -17q-66 -29 -100.5 -80.5q-34.5 -51.5 -34.5 -122.5q0.5 -65 29 -125.5q28.5 -60 77.5 -108q48.5 -48 110 -76.5q61.5 -28 127.5 -28.5l13 0.5q6 0 15.5 1.5q5.5 1 10.5 1l8 0q15 0 23.5 -7q8.5 -7 8.5 -18.5q0 -10.5 -7.5 -20q-7 -9 -22.5 -19q-15.5 -9.5 -30.5 -15.5q-15 -6 -24.5 -6q-6 0 -13.5 2q-7.5 1.5 -22.5 6q-15 5 -32 10q-17.5 4.5 -42.5 10q-25 6 -63.5 14l-92.5 18.5q-41.5 9 -73.5 17.5q-85 20.5 -137 32.5q-52 12 -80 18q-28 6 -42.5 8l-24 1.5q-15 0 -25.5 -3.5q-10 -4 -20.5 -14q-12 -10 -19.5 -22q-7.5 -12 -14.5 -31" />
</g>
<g id="PathID_426" transform="matrix(0.0352941, 0, 0, 0.0352941, 0, 132)">
<path style="fill:#000000;fill-opacity:1" d="M317.5 -794q31.5 5.5 48.5 14q17 8.5 25 23q4 7 6 18q2.5 11 3.5 34q1.5 23 3 66l2.5 60.5q1 23 2 37.5q1 14 2.5 26q3.5 32.5 11 51q7 18.5 18.5 26.5q12.5 9 23 12.5q10 3 26.5 3q-45 24 -74 43q-29 19.5 -51 39q-50.5 42 -75.5 84.5q-25 43 -25 87.5q0.5 51.5 30 91.5q29.5 40 81.5 60q32.5 11.5 75.5 17.5q43 6 98.5 6q32 0 71 -2l74 -5q34.5 -3 52 -6.5q24 -4 34 -12q10 -8 10 -21.5q-1 -19.5 -18 -34.5q-16.5 -15 -37.5 -16q-4.5 0 -8.5 1l-12 2.5q-37.5 8.5 -80 15q-43 7 -84 10.5q-41 4 -73.5 4q-85.5 0 -128.5 -28q-43.5 -28.5 -43.5 -83.5q0 -36 19 -67.5q19.5 -32 61 -63.5q31.5 -24.5 67.5 -44q35.5 -19.5 81.5 -36.5q45.5 -17 107 -34.5q34.5 -9.5 49 -14.5q15 -5 19.5 -7q10.5 -4.5 16 -12.5q5.5 -8 5.5 -18q-1 -17 -15.5 -29.5q-14.5 -13 -33.5 -13.5q-9 0 -19 2.5q-9.5 3 -23 9.5q-46 22 -72.5 33.5q-26 11 -40.5 15q-14.5 4 -24.5 4q-23 1 -31.5 -15.5q-9 -16 -8.5 -60.5q0.5 -43 3.5 -84q3 -40.5 8 -73.5q5 -32.5 11 -50q5.5 -13 7 -17.5q1.5 -4 1.5 -9.5l0 -0.5l0 -1.5q0 -10.5 -6.5 -18.5q-7 -8 -22.5 -14q-12.5 -5.5 -30.5 -10q-18.5 -4 -37.5 -7q-19.5 -2.5 -35 -2.5q-15 -0.5 -24 3q-9.5 3.5 -20 13" />
</g>
<g id="PathID_427" transform="matrix(0.0352941, 0, 0, 0.0352941, 48, 132)">
<path style="fill:#000000;fill-opacity:1" d="M309.5 -382l-54.5 143.5q-8 22 -16 41.5q-8 19.5 -21 45.5q-10.5 -31.5 -15 -62.5q-4.5 -31.5 -4.5 -72.5q0 -33.5 3.5 -65.5q3 -32.5 10 -61.5q5.5 -24.5 14.5 -54q9 -29.5 19.5 -58.5q11 -28.5 21.5 -50.5q10 -20 14.5 -30.5q5 -10.5 6 -16.5q1 -6.5 1 -14.5q0 -16.5 -9.5 -37q-9.5 -20 -28.5 -43.5q-20.5 -27 -36.5 -38.5q-16 -11.5 -32.5 -12q15.5 27 22.5 49.5q6.5 22 6.5 47q0 15.5 -3.5 37.5q-3.5 22 -11 57.5l-16.5 78.5q-6.5 29 -9.5 46.5q-3 17 -5 32q-2.5 15 -5 36.5q-3.5 31 -6 58.5q-2 28 -2 51q0 62.5 9.5 120q9.5 57 26.5 98q8.5 20.5 19.5 31.5q11.5 10.5 24.5 10.5q8.5 0 15 -4.5q6.5 -4.5 9.5 -13q1.5 -4 2.5 -13q1 -9.5 1 -31q-0.5 -15.5 1 -28.5q1.5 -13.5 5.5 -32q3.5 -18 10.5 -48l33 -137q11.5 -48.5 13.5 -55.5q-7.5 -2.5 -14.5 -5M441.5 -639q32 31.5 64.5 44.5q32.5 13.5 74.5 13l16.5 -0.5l25.5 -1.5q-12.5 9.5 -37.5 30q-25 20.5 -59.5 50l10 10q21 -13.5 45.5 -27.5q24.5 -14.5 47.5 -26.5q23 -12 39 -18.5q29 -12 62.5 -20.5q33.5 -8 83 -15.5q16 -3 22.5 -8.5q6.5 -5 6 -15q0 -10 -7.5 -19.5q-8 -9.5 -24 -18.5q-11 -7 -20.5 -10.5q-9 -3.5 -15.5 -4q-5 0 -9 1.5q-4 1.5 -13.5 7q-22.5 12 -58.5 22.5q-36 10.5 -75 17q-39.5 6.5 -72 6.5q-27 0.5 -48 -6q-21.5 -6 -47.5 -21.5l-9 12M435 -329.5q-6.5 24 -9.5 43q-2.5 19 -2.5 37.5q0 42 14 75q13.5 33 41 58q35 31 102 46.5q67 16 163.5 16q43.5 0 77.5 -3q33.5 -3 50.5 -8q10.5 -4 16.5 -10.5q6 -6 6 -15.5q-0.5 -12.5 -11 -26.5q-10 -13.5 -25 -23.5q-15 -9.5 -28.5 -10q-6 0 -15.5 3q-16 6.5 -24 9.5q-8 3 -14 4q-6 1.5 -16 3q-21 3.5 -43 5.5l-44.5 1.5q-118 0.5 -171 -37q-53 -38 -52 -121.5q0 -9.5 1 -19q0.5 -9.5 2 -24l-17.5 -4" />
</g>
<g id="PathID_428" transform="matrix(0.0352941, 0, 0, 0.0352941, 96, 132)">
<path style="fill:#000000;fill-opacity:1" d="M511 -3q64 -11 110 -25.5q46.5 -14.5 89.5 -38q97.5 -52.5 150.5 -133q53 -80.5 53.5 -177.5q0 -74.5 -24.5 -134.5q-24.5 -60.5 -74 -106q-50 -45.5 -118 -69.5q-68 -24.5 -146 -24.5q-67.5 0 -132.5 17.5q-65 17.5 -121.5 49.5q-56.5 32 -98.5 76q-43 48 -67.5 101q-24 53 -24.5 102q0 24 5.5 46.5q6 22.5 18 46.5q14.5 28.5 23 44.5q8 16.5 13 28q5 11 9 24q8.5 24 13.5 36q4.5 12 7.5 18q3.5 6 8 11.5q8.5 10 20 15.5q11.5 6 25 6q28 0 66 -38q38 -38 86.5 -114.5q39 -63.5 69.5 -129.5q30.5 -66.5 47.5 -125.5q17.5 -58.5 18 -99.5q0.5 -21.5 -6.5 -40q-7 -19 -25.5 -45l19.5 -1.5l16.5 -0.5q49.5 0 96 12.5q46.5 12 81.5 34.5q56.5 36.5 86 94q29.5 57.5 29.5 132.5q0 71 -23 133q-23 62 -68 114q-43 50 -100.5 84q-57 34 -139.5 58q3.5 9 7.5 17.5M484 -677q8.5 18.5 11.5 29.5q3 11 3 22q-0.5 32.5 -17 83.5q-16.5 50.5 -45.5 111q-29.5 60.5 -67.5 122q-38.5 60.5 -71 97.5q-33 36.5 -50.5 37.5q-8.5 0 -18.5 -8q-10 -7.5 -20.5 -21.5q-19.5 -27.5 -30 -63q-11 -35 -11 -72.5q1 -79.5 42.5 -150.5q42 -71 113.5 -120.5q71 -50 161 -67" />
</g>
<g id="PathID_429" transform="matrix(0.0352941, 0, 0, 0.0352941, 144, 132)">
<path style="fill:#000000;fill-opacity:1" d="M311.5 -382q-27.5 66 -55.5 132l-43 102.5q-9 -30.5 -13 -59.5q-3.5 -29 -3.5 -67.5q0.5 -83 20.5 -169.5q20.5 -86.5 57.5 -164q8 -16.5 11.5 -24.5q3.5 -7.5 4.5 -11.5q0.5 -4 0.5 -9q0 -15 -9.5 -35q-9.5 -20.5 -27.5 -43q-21 -27 -38 -39q-16.5 -11.5 -34 -12q16 25.5 23 46.5q7 21 7 43.5q0 8 -1 17.5q-1 9.5 -4.5 26.5l-10 48q-17.5 79.5 -27.5 139q-10 59.5 -14.5 107.5q-4 48 -4 94.5q0 57.5 8.5 111.5q9 54 24 94q9.5 24 20.5 35q11 11 24 11q6 0 11 -3q4.5 -2.5 8.5 -8q3.5 -5.5 5 -13.5q1.5 -8 2 -31.5q0 -18 3 -36.5q3 -18 10.5 -50.5l16.5 -66.5l22 -83.5q11.5 -43 21 -76l-15.5 -5.5M420 -550.5q37 39 75.5 55.5q38.5 16.5 93 16l45 -2q22 -1.5 45.5 -6l1 130.5l2 109.5l0 6l0 11.5l-35 -2l-27.5 -1q-89 0.5 -140 31.5q-51.5 30.5 -52.5 84q1 47 42.5 75.5q41 28 109 29q77.5 -0.5 120 -31q43 -31 43.5 -86.5q0.5 -5.5 0 -11.5q0 -6.5 -1 -13q29 12 53.5 30q24.5 18 57.5 51.5q14.5 15 22.5 20.5q7.5 5.5 13 5q9 0 14.5 -10.5q6 -10.5 6 -27q0.5 -44.5 -40 -76q-40.5 -31.5 -129 -55q-5 -42 -8 -80q-2.5 -38.5 -4 -85q-1 -46.5 -1 -113.5q53.5 -10.5 94 -23q41 -13 64 -26q22.5 -13 23 -24.5q0 -5.5 -3.5 -10.5q-3.5 -5 -9.5 -8q-10 -5.5 -24.5 -9.5q-14 -3.5 -24 -4q-6.5 0 -10.5 2q-4.5 2 -12 9.5q-13 11.5 -36 21.5q-23 10.5 -58 20.5q3 -52.5 8 -84q5 -32 13.5 -53.5q6.5 -16.5 8 -22q1.5 -5 1 -9.5q0 -11.5 -11 -21q-11.5 -9 -34 -16q-15 -4 -33.5 -6.5q-18.5 -2.5 -36 -2.5q-19 -0.5 -29 3q-10 3.5 -20 13q24.5 2.5 41.5 8q16.5 6 26 16q6.5 6 9.5 17.5q3 11.5 4 40q1 28 0.5 84.5l0 19l0 26q-31.5 7 -60.5 11q-29 3.5 -56 3.5q-37.5 0.5 -67 -9q-29.5 -9.5 -65 -33l-9 11.5M681 -176q0 27.5 -3 43q-3 15.5 -10.5 28.5q-12.5 23.5 -41.5 36q-28.5 12 -71 12q-46 -0.5 -73 -17q-27 -16 -27.5 -43.5q0.5 -34 35 -52.5q35 -18.5 96 -19q28 0 51 3q23 3 44.5 9.5" />
</g>
<g id="PathID_430" transform="matrix(0.0352941, 0, 0, 0.0352941, 192, 132)">
<path style="fill:#000000;fill-opacity:1" d="M125 -715q19.5 43 48 62.5q29 20 71.5 19.5q15.5 0 34 -2.5q19 -2 45 -6.5q-38.5 48.5 -62.5 89q-24 40 -42 85q-20 49 -30.5 101q-10.5 52 -10.5 100.5q0.5 88.5 31.5 153q31.5 65 88 101q57 35.5 133.5 36q59 0 111 -23q52 -22.5 89.5 -65q46 -52 69 -127q22.5 -75.5 22.5 -177q0 -27.5 -1 -51.5q-0.5 -24 -3 -51q-2.5 -27 -7.5 -64q-4.5 -37 -12 -91l3 -1q19.5 66 37 116.5q17 50.5 34.5 93q17.5 42.5 38 84.5q30.5 62 52.5 90.5q22.5 29 39.5 28.5q11 -0.5 17.5 -11q6 -11 6.5 -29q0 -26.5 -8 -48.5q-7.5 -21.5 -22 -36.5q-21 -21 -41 -51q-19.5 -29.5 -41 -73q-21 -42 -39 -87.5q-17.5 -45 -29 -84.5q-11.5 -39 -13.5 -63.5q-0.5 -15.5 -3.5 -23q-3 -7 -12 -15q-10 -10 -23.5 -17.5q-14 -7 -26 -8l-0.5 0l-0.5 0q-8.5 0 -14 5.5q-5 5 -5.5 13q0 2.5 1.5 9.5q1.5 7 3.5 15q18 63 26 130.5q8 67 8 147q0 81.5 -13 146q-13 65 -38 113q-36.5 66 -94 102q-58 36 -128.5 36.5q-92 -1 -145 -60.5q-52.5 -59 -53.5 -164q0 -74.5 28.5 -149q28.5 -74 84 -143q29 -36.5 63.5 -66q34.5 -29.5 66.5 -45.5q22 -11 28 -16q6.5 -5 6 -11.5q-0.5 -9.5 -10.5 -21q-9.5 -11.5 -23 -19.5q-13 -8.5 -24 -8.5q-4 0 -7.5 1q-3.5 1.5 -6.5 4q-43.5 30.5 -95.5 48q-52 18 -99.5 18.5q-27 0.5 -45.5 -10q-18.5 -10.5 -41.5 -38l-14 10" />
</g>
<g id="PathID_431" transform="matrix(0.0352941, 0, 0, 0.0352941, 240, 132)">
<path style="fill:#000000;fill-opacity:1" d="M377.5 -785.5q33 5.5 51.5 14.5q18 9 26.5 26.5q8 17 11.5 46q2 20 4 37q1.5 17 2.5 43.5l2.5 73q1 46.5 2 125.5q1.5 79 3 201.5l-23 -1l-16 0q-40.5 0 -79 6.5q-39 6.5 -69.5 18q-48.5 18.5 -73.5 47q-25.5 28.5 -25.5 65.5q1 52 47 81.5q46.5 29.5 128 30q28.5 0 57 -4q28 -4.5 47.5 -11.5q36.5 -13.5 54.5 -38.5q18 -25 18 -62.5l0 -15l-0.5 -17l-1.5 -34.5q47 14 83 30q35.5 16 70 40q35 23.5 77.5 60q8 7 14 10q5.5 3 10.5 3q10 0 15.5 -10q5 -10 5 -28.5q0 -27 -15 -48.5q-15.5 -21.5 -48.5 -39.5q-45.5 -26.5 -100.5 -45.5q-55.5 -19 -115.5 -29.5q-3 -34 -5.5 -80.5q-2.5 -47 -4 -96q-1.5 -49.5 -2 -90.5l0 -18.5l0 -26.5q16.5 14 32 20q15 5.5 37 5.5q28.5 0 64.5 -8q36 -8.5 77.5 -24q35 -12.5 48 -21q13 -9 12.5 -20q0.5 -6.5 -4.5 -12q-5 -5.5 -17 -12.5q-11 -5.5 -24 -9q-12.5 -4 -20 -4q-4.5 0 -9.5 2.5q-5 2.5 -13 8.5q-19.5 15 -48.5 29q-29 13.5 -58 22.5q-29 8.5 -49 9q-9 0 -14.5 -2q-6 -2.5 -13.5 -9.5l0 -11l0 -8q0.5 -26.5 3 -54.5q3 -28 7.5 -52.5q4.5 -24.5 10 -40.5q6 -14.5 7.5 -19q1 -4.5 1 -10q0 -15 -12.5 -26q-13 -11 -39 -18q-22 -6 -42.5 -9q-21 -3 -39 -3q-16.5 -0.5 -26 3q-9.5 3 -21.5 12M480 -169q0 34.5 -1 55q-1.5 21 -5 33q-3.5 11.5 -10.5 19.5q-15 19.5 -49 30.5q-33.5 11.5 -79 11.5q-54.5 0 -84.5 -17q-29.5 -16.5 -30 -47.5q0.5 -26 23.5 -45.5q23 -19.5 64 -30.5q40.5 -11 93.5 -11l27.5 0q11.5 0 23 0.5l27.5 1.5" />
</g>
<g id="PathID_432" transform="matrix(0.0352941, 0, 0, 0.0352941, 288, 132)">
<path style="fill:#000000;fill-opacity:1" d="M601 -716.5l3.5 -1.5l1.5 -0.5l2 0l1 0q0 -1 0.5 -1l0.5 0q1 0 2 1q1 0.5 1 1q-1 3 -2.5 6q-1.5 2.5 -7.5 10.5q-30 38.5 -55 69.5q-25 31 -51 61.5q-26 31 -59 68.5q-33.5 38 -80 90l-66.5 73q-24.5 25.5 -40.5 40.5q-16.5 14.5 -35 28.5q-11 9 -16 18q-5.5 8.5 -5.5 18q0 15.5 5.5 30.5q5 15.5 12.5 25.5q8 10 16 10.5q7 0 14.5 -6q7.5 -6 20 -22q43.5 -54.5 100 -97.5q56.5 -42.5 115.5 -67.5q59 -24.5 110 -25q30.5 0 57.5 5.5q27.5 5.5 44 15q31 18.5 47 51.5q16.5 32.5 16.5 75.5q-0.5 65.5 -33 115.5q-32 50 -91 76q-11 -22 -21.5 -36.5q-10 -14.5 -23.5 -27q-25.5 -24 -59 -37q-33 -13.5 -71 -13.5q-48.5 1 -79 25q-30.5 24 -31.5 62q1 47.5 44.5 74.5q44 27.5 120 28q93.5 -0.5 166 -33.5q72.5 -33 114 -90q41 -57.5 42 -131.5q-0.5 -57.5 -27.5 -100.5q-27.5 -42.5 -76.5 -66.5q-49.5 -23.5 -115.5 -24q-63.5 -0.5 -130.5 23q-66.5 23 -148 74l-2 -2q10 -9.5 19 -19l31 -33l70 -75q35 -37 69 -71.5q34 -35 81.5 -82q22 -22 35.5 -34.5q13.5 -12 24 -19.5q11 -7.5 25.5 -14.5q9 -4.5 13 -9.5q4.5 -4.5 4.5 -10q0 -9 -6.5 -19q-7 -10.5 -24.5 -27q-19 -19 -32 -27.5q-13.5 -8.5 -23 -8.5q-4 0 -8 1.5q-3.5 1.5 -6.5 3.5q-10.5 9 -17 13.5q-7 4.5 -17 8.5l-29.5 10q-36 11 -75.5 21q-39.5 10 -71.5 16.5q-32.5 6.5 -46.5 6.5q-25.5 0 -45.5 -19.5q-19.5 -19 -31.5 -55.5q-5 8 -7 14q-2 6 -2 13q0 16 7.5 35.5q7.5 19.5 21 40q15 21.5 30 32.5q14.5 10.5 28.5 10.5q6 0 16.5 -3q10 -3.5 25.5 -10.5q36 -15.5 76 -31.5q40 -16.5 75 -29.5q35 -13 56 -19.5l5 -2M563 -21.5q-23 5 -38 7q-15 2 -34.5 2q-54.5 -0.5 -85.5 -17q-31 -16.5 -31.5 -45.5q0.5 -24 17.5 -38q17.5 -13.5 47 -14q43.5 0.5 76.5 28q32.5 28 48.5 77.5" />
</g>
<g id="PathID_433" transform="matrix(0.0352941, 0, 0, 0.0352941, 0, 180)">
<path style="fill:#000000;fill-opacity:1" d="M148.5 -665.5q23 30 45 47.5q22 17 47.5 24.5q25.5 7 60 7l29.5 -1q14.5 -1.5 39 -5q-36 54 -65.5 93q-29.5 38.5 -59.5 68.5q-29.5 30 -65.5 58.5q-14 11 -20.5 17.5q-6 6 -8 12q-1.5 6 -1 16.5q0 24.5 7.5 39.5q7.5 14.5 20 14.5q7.5 0.5 15.5 -6.5q8.5 -6.5 22.5 -26q56 -71 113.5 -109.5q57 -38.5 108.5 -39q17.5 0 31 8.5q14 8 21.5 22q7.5 15.5 10.5 32.5q3 17.5 3.5 48.5q-49.5 31 -78.5 51.5q-29.5 21 -48.5 39.5q-37.5 36 -55.5 70q-18 34.5 -18 70.5q0 37 18 63.5q18.5 26.5 57.5 45q31 14.5 83.5 22q52 7.5 124.5 7.5q32.5 0 66.5 -2l65 -5q30.5 -3 52 -7.5q15.5 -3 23.5 -10q8.5 -7.5 8.5 -17.5q-0.5 -11.5 -11.5 -23.5q-11 -11.5 -27.5 -19.5q-16.5 -8 -33 -8l-9 0.5l-10.5 2.5q-47 13.5 -99.5 21q-52.5 7.5 -106.5 7.5q-86 0 -128.5 -20q-42.5 -20.5 -42.5 -62q0 -23 12.5 -46.5q12.5 -24 38 -48.5q19 -18.5 46 -37q27 -18.5 73.5 -44q-0.5 34 -2.5 60.5q-1.5 27 -4.5 49q-1 5.5 -1 9.5l0 8q0 13.5 9 22q9 8.5 23.5 8.5q9.5 0 17 -5.5q8 -5 12 -13.5q3.5 -8 6 -31q2 -22.5 2 -57l0 -34q0 -12.5 -0.5 -23q0 -10.5 -0.5 -26q41 -20.5 93 -42q52 -21.5 101 -38.5q49 -17.5 80.5 -25q21.5 -4.5 29.5 -11q8 -7 7.5 -20.5q-1 -21.5 -20 -45q-19 -24 -45.5 -41q-26.5 -16.5 -50 -17.5l-10.5 1q-5 1.5 -13 5q22.5 9.5 34.5 22.5q12.5 12.5 12.5 25.5q0.5 9 -10 19.5q-11 10 -38.5 25.5q-27.5 16 -77.5 41q-41 20.5 -59.5 30q-18 9.5 -26 13q-7.5 3.5 -15 7.5q-7.5 -47 -38.5 -74.5q-30.5 -27.5 -76.5 -28q-28 0 -59 9.5q-30.5 9.5 -73 31.5l17 -24l16 -24l22.5 -34q17 -26 29 -43.5q12 -18 25 -36.5q41 -8 74.5 -15.5q34 -8 69 -18q35 -10 80 -24.5q23 -8 33.5 -16q10.5 -8 10.5 -17q-0.5 -15 -19.5 -24q-18.5 -9.5 -49 -10q-5.5 0 -10 2q-5 1.5 -9.5 5.5q-16.5 14 -34.5 24q-17.5 10.5 -44 20q-26.5 9.5 -69 21.5l8.5 -12.5l17 -27.5l14.5 -20.5q8 -12 15 -21.5q9 -11 13 -18q3.5 -6.5 3.5 -11.5q0 -9.5 -9 -18q-8.5 -8.5 -28 -16q-20 -8.5 -41 -13q-20.5 -4.5 -38.5 -4.5q-14 0 -24 2.5q-10 2 -22.5 9q39.5 9.5 56.5 23q17 14 16.5 34q0 17.5 -9.5 44.5q-9.5 27 -26.5 60q-34.5 7 -60 10.5q-25.5 3 -49.5 3q-27 0 -46.5 -4q-20 -4 -38.5 -14.5q-19 -10.5 -43 -29.5l-11 9" />
</g>
<g id="PathID_434" transform="matrix(0.0352941, 0, 0, 0.0352941, 48, 180)">
<path style="fill:#000000;fill-opacity:1" d="M833.5 -302l0 56.5q0 6.5 3 9.5q3 2.5 10.5 2.5q14 0 30 -2q16 -1.5 23.5 -4q4.5 -2 6 -4.5q2 -2.5 2 -8q-1.5 -43 -2.5 -78q-1 -35 -1.5 -68.5q-0.5 -33.5 -0.5 -72.5l0 -45l1 -61.5q19 -10.5 25.5 -16q7 -5.5 7.5 -10.5l0 -1q0 -4 -3 -7.5q-3 -3.5 -8.5 -8l-22.5 -16l-19 -13l-25 -16l-18 22.5l-18.5 22.5l-285 0l0 -184.5q29 -10 38 -15q9 -5 8 -11.5q1 -7.5 -13 -11q-14.5 -4 -55.5 -7.5l-22 -1l-31.5 -3q2 16 3 29q1.5 13 2 34q0.5 21 0.5 61l1 109.5l-253 0q-18.5 -11 -31.5 -18q-12.5 -7 -25.5 -13q-13 -5.5 -32 -13l1.5 70.5q0.5 30 0.5 55l0 51.5l-1 68.5q-0.5 61 -2 176.5q0 7.5 3.5 10.5q3.5 3 13 2.5l28.5 -1.5q16 -2 22.5 -3.5q4.5 -1.5 6 -3.5q2 -2.5 2 -7.5l0 -56.5l267.5 0l0 97.5l0 73q0 28.5 -0.5 52.5q0 24.5 -0.5 57.5l-1 87q-0.5 7 2.5 9q3 2.5 10.5 2.5q15 0 31.5 -2q17 -2 24 -4.5q3.5 -1 5.5 -3.5q1.5 -2 1.5 -6.5l-1.5 -104l-1 -70.5q0 -29.5 -0.5 -55.5l0 -57l0 -75.5l294 0M833.5 -325.5l-294 0l-1 -177.5l0 -94l295 0l0 271.5M469 -325.5l-267.5 0l0 -271.5l267.5 0l0 52l0 219.5" />
</g>
<g id="PathID_435" transform="matrix(0.0352941, 0, 0, 0.0352941, 96, 180)">
<path style="fill:#000000;fill-opacity:1" d="M165 -648.5q24 -3 46.5 -4.5l48.5 -1.5l598 0q8.5 0 12 -1.5q3.5 -2 3.5 -5.5q0 -1 -1.5 -3.5l-2.5 -5l-37 -34l-30.5 -27l-37 -32l-24.5 29.5q-10 12 -19.5 24.5l-23.5 31l-437.5 0q-21 0 -47.5 -3q-26.5 -2.5 -54 -7q3.5 19.5 6.5 39.5M62.5 -74q23 -3.5 45.5 -5.5q22.5 -1.5 57 -1.5l813 0q4 0 6 -1.5q2 -1.5 2 -3.5q0 -2.5 -1.5 -4.5q-1.5 -2.5 -5.5 -5l-39 -34.5q-16 -14 -32.5 -27.5q-16 -14 -40 -34l-25.5 31l-20 25l-24.5 31l-632.5 0q-22.5 0 -39 -1q-16.5 -0.5 -33 -2.5q-16 -2 -38.5 -5.5l8 39.5" />
</g>
<g id="PathID_436" transform="matrix(0.0352941, 0, 0, 0.0352941, 144, 180)">
<path style="fill:#000000;fill-opacity:1" d="M51 78q63 -15.5 112.5 -32.5q50 -16.5 95.5 -38q45.5 -21.5 95.5 -51.5q46.5 -27.5 86 -56.5q39.5 -29 74.5 -63.5q81.5 81.5 178 136.5q96.5 54.5 220.5 90q11 -32.5 29.5 -50.5q19 -18 54.5 -30.5l0 -10q-58 -7.5 -104.5 -17.5q-47 -9.5 -90 -23.5q-42.5 -13.5 -88 -33q-46 -20 -84.5 -43.5q-38.5 -23 -78.5 -55.5q21 -23.5 41.5 -51q20.5 -27.5 46 -67.5q25 -40 61 -101q30 -3.5 40 -7q10 -4 9 -11.5q0.5 -4.5 -8 -11q-8.5 -6.5 -32.5 -17.5q-24 -11 -69 -29.5q-14.5 61.5 -48.5 125.5q-34 64.5 -86.5 128.5q-46.5 -45 -80.5 -87.5q-34.5 -42 -53 -77q-19 -35 -19.5 -58q0 -1.5 0.5 -4.5q0 -2.5 0.5 -5.5q-21.5 9.5 -43 19.5q9.5 9 15.5 17.5q6.5 8.5 16.5 27.5q23.5 46 44 80.5q20.5 35 42 64q21 29 46 58q-26.5 29 -54 54q-27.5 25 -58.5 48.5q-46.5 36 -92.5 64.5q-46 28.5 -99.5 53.5q-53.5 24.5 -122.5 50l4 16.5M549 -706.5l0 -102.5q16 -6 26 -10q10 -3.5 13 -5.5q3 -2 5.5 -5.5q2.5 -3 2.5 -5.5q1 -6.5 -14.5 -11q-15.5 -4 -56 -8.5q-9.5 -0.5 -24 -2.5l-33.5 -3.5q1.5 26.5 2 44.5q1 18 1 39.5l0 70.5l-326.5 0q-13.5 0 -35.5 -3q-21.5 -2.5 -46.5 -7l8 40.5l31 -4.5l21.5 -2q9.5 -0.5 21.5 -0.5l836.5 0q3.5 0 5.5 -1.5q1.5 -1.5 2 -3.5q0 -1 -1 -2.5l-1 -3.5l-38 -33.5l-32 -27q-16 -13.5 -40 -33q-14.5 16.5 -23.5 28q-9.5 11.5 -18.5 23.5l-20.5 29.5l-265 0M74.5 -336q24 -11 42 -20.5q18 -9.5 37 -22.5q18.5 -12.5 45 -32.5q35.5 -27 57.5 -45q22 -18.5 43.5 -40q21.5 -21.5 55 -57.5q3.5 -4 10.5 -10.5l15 -16l14.5 1l6 0q27.5 0 27.5 -9.5q0.5 -5.5 -8 -13q-8.5 -7.5 -31.5 -20q-22.5 -12.5 -64 -33.5q-16.5 38 -38 73q-22 35.5 -53 75.5q-25.5 33 -49 59q-24 26 -52 50.5q-27.5 24 -64 51.5l6 10M597 -623.5q32.5 19 56.5 35q24.5 16 45 32q20.5 15.5 42 34.5q30 26 57 55.5q27.5 29.5 43.5 52q13 21 21 28.5q7.5 7.5 14.5 7q11.5 -0.5 19 -19q7.5 -18 8 -46.5q0 -20.5 -4 -33.5q-4 -13.5 -15 -24q-11 -10.5 -32.5 -23.5q-26 -16 -56.5 -31.5q-31 -16 -76 -35q-45 -19.5 -113 -47q-5 7.5 -9.5 15.5" />
</g>
<g id="PathID_437" transform="matrix(0.0352941, 0, 0, 0.0352941, 192, 180)">
<path style="fill:#000000;fill-opacity:1" d="M648 -640l326.5 0q4 0 6 -1.5q2.5 -1.5 2.5 -3.5q0 -1 -1 -2.5l-1 -2.5l-36.5 -33l-29 -26.5l-36 -32l-21 27q-9 11 -17.5 22.5l-21 28.5l-285.5 0q14.5 -25.5 24.5 -44q10 -18.5 18.5 -36.5q8.5 -18 18.5 -41.5l15 -3.5l11.5 -2.5q7 -1.5 12.5 -3.5q6 -2.5 10 -4.5q2.5 -2 3.5 -4.5q1.5 -2.5 1.5 -5q1 -4 -7 -8.5q-8.5 -5 -35 -13.5q-26.5 -9 -80.5 -26q-5 32 -13.5 63q-8.5 30.5 -22 66q-14 35.5 -35.5 82q-26 57 -49 100q-22.5 43 -47.5 81q-24.5 38.5 -57 82l11 9q38.5 -35.5 71 -73q32.5 -37 65 -83.5q32.5 -46 71 -109.5l56.5 0l0 461.5l0 19l-0.5 30.5l-1.5 59q-0.5 28.5 -0.5 45.5q-0.5 17 -0.5 29.5q-0.5 12 -0.5 26l-0.5 36.5q-0.5 9 4.5 12q5 3.5 17 3q31.5 0.5 44.5 -4q13 -4.5 12.5 -15.5l0 -0.5l0 -1.5l-1 -60.5l-1 -38.5q0 -16 -0.5 -32.5l-0.5 -42.5l-1 -39.5l0 -27l0 -44l305 0q4 0 6.5 -1.5q3 -1.5 3 -4.5q0 -1 -1.5 -3l-2.5 -4.5q-18.5 -17.5 -31.5 -29q-12.5 -12 -25.5 -23.5l-32.5 -28l-21 24.5l-17 20l-21 26l-162 0l0 -191.5l306 0q4 0 6.5 -1.5q3 -1.5 3 -3.5q0 -1.5 -1.5 -4l-3.5 -4.5q-18 -17.5 -31 -29q-12.5 -12 -25.5 -23.5l-33 -27l-20 23.5l-16 20l-20 26l-165 0l0 -178M53 -349.5q26 -24 46 -44.5q20 -20.5 41.5 -46.5q21.5 -26.5 52 -66.5l0 300q0 81 -1.5 146q-1.5 64.5 -4.5 127.5l0 3q-0.5 6.5 4 9q4.5 2.5 17.5 2q11.5 0 26 -2q15 -1.5 22 -4q5 -1.5 7 -4q2 -2.5 2 -6.5q0 -1.5 -0.5 -3q-0.5 -1.5 -0.5 -3q0 -27 0.5 -49l0.5 -35l0 -47.5q0 -25.5 -1 -55l-1 -48.5l0 -30l0 -286.5q18.5 -9 24.5 -13.5q6 -4.5 5 -10q0.5 -5.5 -2 -7.5q-2.5 -1.5 -10 -3l-36 -6l-17 -2.5l-12.5 -1.5q31.5 -42 55 -77.5q23 -35 46.5 -77.5q23.5 -42.5 55 -105l28 -6.5q10 -2 13 -3q2.5 -1.5 4 -4q1 -2.5 1 -5q0 -3 -1.5 -5q-1.5 -2 -5.5 -4.5l-22.5 -8.5l-41.5 -14q-23.5 -8.5 -47.5 -16q-6 39.5 -24 88.5q-18 49 -53 120q-30.5 62.5 -59 114q-29 51 -58.5 95.5q-30 45 -63.5 87.5l12 9" />
</g>
<g id="PathID_438" transform="matrix(0.0352941, 0, 0, 0.0352941, 240, 180)">
<path style="fill:#000000;fill-opacity:1" d="M198.5 -410.5l624 0l0 360.5q0 7 -3 9.5q-3.5 3 -12.5 2.5l-1.5 0l-2.5 0l-77.5 -4l-44.5 -2.5l-29.5 -1.5l-31 -2l-1 17.5q7.5 1.5 16 2.5l15.5 1.5q15.5 1.5 23.5 3l8.5 1q20.5 3 34.5 7q13.5 4 21 9.5q12 9 19.5 21.5q7 12.5 12 34q53 -10 80.5 -19.5q27 -9 36.5 -23q9 -14 9 -37.5l0 -113.5l-1 -116l0 -476.5q21 -14.5 27 -20q6.5 -5.5 6 -9.5q0 -3 -3 -7q-2.5 -3.5 -8.5 -9.5l-33 -27q-13 -10 -32.5 -24l-21 24.5q-7.5 10 -18 26.5l-603.5 0q-16.5 -12 -28.5 -19.5q-12 -8 -24.5 -15q-12.5 -7.5 -31.5 -17.5l1.5 37q0.5 14.5 0.5 35l0 61q0 115 -0.5 243l-2 256.5q-1 128 -2.5 242q-0.5 10 5 14q5.5 3.5 18.5 3.5q30.5 0 43 -5q12 -4.5 12 -17.5q-0.5 -49 -0.5 -79q-0.5 -30.5 -0.5 -52l0 -45l0 -59.5l0 -210M541.5 -434l0 -325l281 0l0 325l-281 0M469 -434l-270.5 0l0 -325l270.5 0l0 325" />
</g>
<g id="PathID_439" transform="matrix(0.0352941, 0, 0, 0.0352941, 288, 180)">
<path style="fill:#000000;fill-opacity:1" d="M721 -424q-2.5 98.5 -8.5 179q-5.5 81 -14 135.5q-6.5 39.5 -14 60.5q-7.5 21 -19 28.5q-12 7.5 -31.5 7l-41.5 -1.5l-68.5 -6.5l-118.5 -13.5l-1 18.5q40 7 63.5 12q24 5 37 9q13 3.5 21.5 7.5q16.5 8.5 24 20q7.5 12 8.5 32.5q60 -1.5 95.5 -7.5q35.5 -5.5 54.5 -18q18.5 -12.5 28.5 -34q19 -40 32.5 -140.5q14 -101 21.5 -263q21 -10.5 28.5 -16q8 -6 7.5 -11.5q0 -3 -2.5 -6.5q-3 -3.5 -9 -9q-18 -14.5 -30 -23q-12.5 -9 -33.5 -22l-21.5 19q-8.5 7.5 -21.5 20l-436 0l-42 -2q-19.5 -1.5 -46 -6l7 38.5q19.5 -3 41 -5l41 -2l130 0q-6.5 49 -13.5 85q-7 36 -16.5 65.5q-9.5 30 -23.5 60.5q-37.5 85 -103.5 152q-66.5 67 -171.5 124.5l7 14.5l47 -17.5q19.5 -8 36.5 -16q16.5 -8 35 -18q70.5 -39 120.5 -86q50 -47.5 81.5 -103.5q29.5 -53.5 48 -115q18.5 -62 30 -146l239.5 0M40 -377q43.5 -27 77.5 -52q34 -24.5 63 -50.5q29.5 -26 59 -58q33 -34.5 60.5 -69q27.5 -35 54 -77q26.5 -42 56.5 -98q28 -3.5 39 -7.5q11 -4 10.5 -11q1 -4.5 -11.5 -10.5q-12 -5.5 -50 -19l-22 -6.5q-13 -4.5 -29.5 -11q-12.5 40.5 -27 76q-15 35 -34 69.5q-19 34 -44.5 73q-29.5 46 -59 84q-29.5 37.5 -66 74.5q-36 37 -86 81l9.5 12M567.5 -826.5q9.5 8 16.5 18.5q7 10.5 16 28.5q25 51.5 44 85.5q19 34 37.5 60.5q18.5 26 42.5 54q40.5 46.5 85.5 84.5q45 38.5 109 80q17.5 -33.5 35 -48.5q17.5 -15 48 -22l-1 -13q-49.5 -15.5 -88.5 -32q-39 -17 -73.5 -38q-34.5 -21 -69.5 -49q-34 -27 -66.5 -63q-32.5 -36 -56.5 -72.5q-24.5 -36.5 -33.5 -64q-2.5 -6 -3.5 -12q-1 -5.5 -0.5 -14q-20.5 8.5 -41 16.5" />
</g>
<g id="PathID_440" transform="matrix(0.0352941, 0, 0, 0.0352941, 0, 228)">
<path style="fill:#000000;fill-opacity:1" d="M543.5 -507l0 -287.5q26.5 -8.5 36 -14q9.5 -5.5 9 -13q0.5 -6.5 -10 -11q-10.5 -4.5 -37 -9q-26.5 -4 -74.5 -9.5q1 38 2 61.5l1 39.5l1 32.5l0 39.5l0 51l0 36l0 36.5l0 47.5l-224.5 0q-37 0 -71.5 -3q-35 -2.5 -64.5 -7l5 39.5l20 -2l30.5 -1.5l66.5 -2.5l238.5 0l0 200l-303 0q-31.5 0 -58.5 -2.5q-27 -2.5 -57.5 -9q5 20 9.5 40l20 -3l27 -1q18 -0.5 56.5 -1l306 0l0 75q0 30 -0.5 54q0 24 -0.5 49.5l-1 60q-1 34.5 -2 86q0.5 8.5 4.5 11q4 2.5 16 2.5l28.5 -1.5q16 -1 21.5 -2.5q5 -1 7.5 -3.5q2 -3 2.5 -9l-3 -321.5l425 0q5 0 8.5 -2.5q3.5 -3 4 -6.5l-1.5 -3q-1 -1.5 -3 -3.5q-19.5 -18.5 -33 -30.5l-27.5 -24l-34.5 -28.5l-24.5 26.5l-19 21.5l-22 27l-272.5 0q-0.5 -55.5 -0.5 -87.5q-0.5 -32 -0.5 -50l0 -31l0 -31.5l384 0q5.5 0 9 -2q3 -2.5 3.5 -6q0 -1.5 -1.5 -4q-1.5 -2.5 -4 -5.5l-32.5 -29q-13.5 -11.5 -27.5 -22q-14 -10 -35 -24.5l-22 23q-9 9.5 -18 20q-9 10.5 -21.5 26.5l-234.5 0M168 -801q28.5 40.5 44 66q16 25 27.5 48q6.5 13 14.5 33q8.5 19.5 16 40q7.5 20 11.5 34.5q5.5 17 10.5 24q5.5 7 12 6.5q10 -0.5 19.5 -12q9 -11.5 15.5 -29q6 -18 6 -37q0 -16 -7 -30.5q-7 -14 -23.5 -33q-16 -18 -30 -31.5q-13.5 -13 -37 -32.5l-68.5 -54.5l-11 8M619.5 -526.5q47.5 -41 95.5 -95q48 -54 102 -128q28.5 -2.5 40.5 -6.5q12 -4.5 11.5 -12q0 -4 -2.5 -6.5q-2.5 -2.5 -7.5 -5l-23 -9.5q-16 -6.5 -36.5 -14q-20.5 -8 -41 -15.5q-30 76.5 -65.5 143.5q-35 67 -83 139.5l9.5 9" />
</g>
<g id="PathID_441" transform="matrix(0.0352941, 0, 0, 0.0352941, 48, 228)">
<path style="fill:#000000;fill-opacity:1" d="M238.5 -424q58.5 32.5 95 53q36.5 20.5 59.5 34.5q23.5 13.5 43 26q19 12.5 43.5 29q-17.5 19.5 -33 35q-16 15.5 -35 31.5q-34 30.5 -65.5 54q-31 24 -63.5 44.5q-32.5 20.5 -71.5 42l9 15q42 -16.5 75.5 -32.5q33 -16.5 64 -35.5q30.5 -19 65.5 -44.5q28 -20.5 50.5 -40q22.5 -19.5 43.5 -42q43.5 30.5 73.5 54.5q30 23.5 55 46.5q25 23.5 53 53.5q19 21 25.5 26.5q6.5 5 12.5 4.5q7.5 -0.5 12.5 -7.5q4.5 -7 5 -17q-1.5 -29 -7.5 -49q-6 -20 -17.5 -35q-17 -21.5 -63.5 -53.5q-46.5 -31.5 -110.5 -65.5q46.5 -56 81.5 -106.5q35 -51 65 -108.5q30.5 -58 62.5 -134l1.5 0l0.5 0q20.5 0 29 -3q8 -3 8 -10.5q0.5 -4.5 -8 -9.5q-8.5 -5.5 -30.5 -14q-22.5 -8.5 -64 -22.5q-20.5 92.5 -70 192q-49.5 99.5 -121.5 192q-47.5 -24 -87.5 -42.5q-40.5 -18.5 -82 -36q-42 -17.5 -94.5 -38.5l-8.5 13.5M260 -657.5q19 33 31.5 55.5q12.5 23 21 42q8.5 19.5 16 42q8 22.5 17.5 55q3 10 7 14.5q3.5 4 9.5 4q8.5 -0.5 17 -11q9 -10.5 14.5 -25.5q6 -15.5 6.5 -30q0 -11 -4.5 -22q-4 -11.5 -12 -23q-21 -28.5 -49 -56q-28 -27.5 -62.5 -53.5l-12.5 8M421 -708.5q30 44.5 51.5 87q21.5 42.5 35.5 84q6.5 21.5 11.5 29q4.5 7 12 6.5q7.5 -0.5 15.5 -11q8 -10.5 13.5 -25.5q5.5 -15 6 -29q0 -10 -4 -20q-4 -10 -11.5 -21q-19 -26.5 -45 -51q-26.5 -24 -73 -58.5q-6 4.5 -12 9.5M169 0l682 0l0 54.5q-0.5 7.5 4 10q4.5 2.5 16.5 2l25.5 -1.5q13 -1 18.5 -3.5q4.5 -1.5 6.5 -4.5q2.5 -3 2.5 -9l0 -42.5q0 -16.5 -0.5 -30q0 -13.5 -0.5 -31l-1 -47l-1 -93.5q-0.5 -37.5 -0.5 -66.5q-0.5 -28.5 -0.5 -57l0 -65l0 -91.5l0 -261.5q24 -14 31.5 -21q8 -7 7.5 -12.5q0 -3 -2.5 -6.5q-2.5 -3.5 -8 -9l-22.5 -18q-9 -7.5 -19 -14.5l-24 -16.5q-21.5 24.5 -42.5 49l-658.5 0l-30.5 -20q-12.5 -7.5 -25.5 -14q-12.5 -6 -31 -14l3 119q1 44 1 58q0 164.5 -0.5 281q0 116.5 -1 197q-0.5 80.5 -2 137q-1.5 56.5 -3.5 101q1 6.5 5 9q4 2.5 12 2l26 -1q12.5 -0.5 20 -3q6 -0.5 9 -4q3 -3.5 4.5 -10.5l0 -51M169 -763l682 0l0 739.5l-682 0l0 -739.5" />
</g>
<g id="PathID_442" transform="matrix(0.0352941, 0, 0, 0.0352941, 96, 228)">
<path style="fill:#000000;fill-opacity:1" d="M986 -430q-41.5 -5.5 -74 -12q-32.5 -6.5 -63.5 -15.5q-31 -9 -68.5 -22.5q-34 -13 -61 -25.5q-26.5 -13 -51.5 -28q39 -33 69 -62q30 -29 57 -59q26.5 -30.5 55.5 -68.5q32 -8 44.5 -14q12 -5.5 11.5 -12.5q0 -3 -2.5 -6.5q-3 -4 -9.5 -11q-15 -13 -25.5 -22.5q-10.5 -9 -21.5 -17.5l-26 -21l-21.5 25q-8.5 10 -22.5 25l-345 0l-34 -1.5q-16 -1 -40.5 -5.5l9 35.5q18.5 -3 31 -4l28.5 -1l13.5 0q21 47.5 42.5 85q21.5 37.5 46 69.5q24.5 32 55.5 63.5q-78 68.5 -151 117.5q-73 49 -155 87l7 13.5q79.5 -29.5 137 -56q57 -26 104.5 -55.5q48 -29.5 98.5 -68.5q55.5 45.5 127.5 84q72.5 38.5 160 69.5q12.5 -33 28.5 -48.5q16 -15.5 46.5 -23l0 -13.5M776 -754.5q-24.5 37 -47 66q-23 29 -49 57q-26 28 -61.5 62.5q-54.5 -44.5 -92.5 -90q-38.5 -45 -64 -95.5l314 0M164 -209q0 24 -1.5 91l-2.5 178l0 1q0 8.5 4 12.5q4 4 13.5 4l38 -3.5q12 -2 15.5 -6q3.5 -4 3.5 -12q0 -10 0.5 -17l0.5 -12.5l-0.5 -10q-0.5 -7 -0.5 -15.5l0 -69.5l0 -76l0 -64.5l0 -173q21.5 -8.5 26.5 -12q5 -3 4 -6.5q1 -6.5 -13.5 -11q-14.5 -5 -54 -11.5q33 -38.5 57 -71q24 -32.5 48.5 -72q28 -3.5 37 -7.5q9 -3.5 8 -11q1 -5 -4 -8.5q-5.5 -4 -28 -12l-73.5 -25.5q-4 16.5 -7 25.5q-2.5 8.5 -9 21.5q-7.5 16.5 -18.5 38.5l-22 44.5q-11.5 22 -20 36.5q-32.5 56.5 -69.5 103q-37 46.5 -82 87.5l12.5 11.5q26.5 -17.5 46.5 -33.5q20 -15.5 41 -36q21 -20.5 49.5 -51.5l0 174M575.5 -232.5l-153.5 0q-17.5 0 -40 -3q-22.5 -3 -43 -8.5l7 40l40.5 -4l29.5 -1l159.5 0l0 216l-195.5 0l-43.5 -2q-20.5 -2 -47.5 -8l9 38.5l46.5 -4q18 -1 35.5 -1l600 0q7.5 0 11 -1q3 -1 3 -4q0 -1.5 -1 -4.5q-1.5 -2.5 -4 -5l-32.5 -29.5l-27 -23.5l-34.5 -29.5q-13.5 15 -22.5 25.5q-9 10.5 -17.5 21l-20.5 27l-188.5 0l0 -216l299 0q2.5 0 4 -2q2 -1.5 2 -4q0 -1.5 -1.5 -4.5q-1.5 -2.5 -4.5 -6q-18.5 -16 -31.5 -26.5l-25.5 -22l-32 -26q-19 19.5 -30.5 32.5l-30 35l-149.5 0l0 -111.5q20 -6 29.5 -12q9.5 -5.5 9.5 -11.5q0.5 -5 -9 -8.5q-9 -3 -34 -6q-24.5 -3 -70.5 -7q1.5 24.5 2.5 36.5q0.5 12.5 1 18.5q0.5 6 0.5 11.5l0 90M48.5 -556q59 -40.5 103 -76q44 -36 80 -73.5q36 -37 70.5 -82.5l30.5 -3q6 -1 9.5 -2.5q4.5 -1 7.5 -4q2.5 -3 3 -6q0 -5 -9 -11q-9 -6.5 -32.5 -16.5q-23.5 -9.5 -67.5 -26q-10 26.5 -23 51.5q-13 25 -37 62.5q-22.5 36 -44 64.5q-21 28 -46 54q-24.5 26 -57.5 55.5q6 6.5 12.5 13" />
</g>
<g id="PathID_443" transform="matrix(0.0352941, 0, 0, 0.0352941, 144, 228)">
<path style="fill:#000000;fill-opacity:1" d="M189.5 -489.5q-5 47.5 -12 80q-6.5 33 -18.5 65.5q-13.5 39 -33.5 71.5q-19.5 32 -40.5 52.5q-17 15 -22 23.5q-5 8.5 -4.5 20.5q0.5 29.5 9 50.5q9 21 21.5 22q13 0 30 -17.5q17 -17 32.5 -47q17.5 -32 30 -75.5q13 -43 19.5 -93q7 -49.5 7 -100.5l0 -23q-0.5 -10 -1 -29.5l-17.5 0M318.5 -171l0 32l-1 40l-3 75.5q1 22.5 9.5 34q8 11.5 26 17.5q8 3.5 27.5 5l63 2.5q44 0.5 125.5 0.5q37 0 75.5 -1.5l69.5 -4q31 -2 43.5 -4.5q23 -5 34.5 -14q11.5 -9 11.5 -22q0 -11 -7.5 -18q-8 -7.5 -23 -9.5q-10 -2 -15.5 -6.5q-5 -4.5 -5 -12l0 -3l13 -223.5l-13 -1l-30 125q-12 47 -19.5 71.5q-7.5 25 -13 35q-4.5 10 -15 15.5q-10.5 5 -33 7l-63.5 2l-36 0q-22 -0.5 -45.5 -0.5q-23.5 0 -40.5 -0.5l-21.5 0q-25.5 -1 -33.5 -5.5q-8 -4 -7.5 -16l0 -532.5q21.5 -8 31.5 -12q9.5 -4 11.5 -6.5q2.5 -2.5 2 -7q1 -5.5 -7 -9.5q-8.5 -4 -35 -8.5q-26 -5 -80.5 -13q2 34 3.5 71q1.5 37.5 1.5 70.5l0 326.5M339 -814q71 35 132.5 80.5q61.5 45 108 97.5q11 13 17.5 18q6.5 5 11 5q9 -0.5 14.5 -13.5q6 -13 6 -33q0 -11 -2 -23q-2.5 -12.5 -6 -23q-4 -9 -10.5 -16q-7 -7 -19.5 -14.5q-32.5 -20.5 -66 -35.5q-33 -15.5 -75.5 -29q-43 -13 -103 -28l-7 14.5M769 -489.5q29.5 49 51.5 97q22 48 39.5 101.5q17 53.5 31.5 118q4.5 20.5 10 29.5q5 8.5 13 8.5q6.5 0 13.5 -7q7.5 -7 15 -21.5q9.5 -19 15 -39q5.5 -19.5 5.5 -34q0 -42.5 -46 -108q-45.5 -66 -135.5 -153l-13 8" />
</g>
<g id="PathID_444" transform="matrix(0.0352941, 0, 0, 0.0352941, 192, 228)">
<path style="fill:#000000;fill-opacity:1" d="M822.5 -617.5q-13.5 36.5 -25 63q-11 26.5 -27 56.5q-16 30 -42.5 77l9.5 9.5q29.5 -27 51 -48.5q21.5 -21 47.5 -50.5q26 -29.5 69 -80.5q38.5 -0.5 50.5 -3q12 -3 11 -11q0.5 -4 -2.5 -8q-3 -4 -10.5 -11.5l-29.5 -26l-24 -21q-11.5 -10 -28.5 -24l-24.5 26.5q-9.5 10.5 -24.5 28l-347.5 0q11.5 -22 21.5 -42.5q9.5 -20.5 20 -44.5q10.5 -24.5 24 -58.5q32.5 -1.5 44.5 -4.5q11.5 -3.5 11 -11q0 -2 -2.5 -5l-6.5 -5q-5.5 -3.5 -13.5 -6.5q-8.5 -3 -31.5 -9.5q-23.5 -7 -73 -21q-5.5 39.5 -19 87.5q-13.5 47.5 -36.5 107q-29.5 76.5 -62.5 137.5q-33 61 -72.5 113.5l12.5 7q55.5 -53 95.5 -104.5q39.5 -51.5 75.5 -116.5l360.5 0M86 -753.5q46.5 39 79 76.5q32.5 37.5 57 80q17 29 24.5 37.5q7.5 8.5 13.5 7.5q11 -0.5 19 -19.5q7.5 -18.5 7.5 -46q0.5 -22.5 -6.5 -36.5q-6.5 -14 -24 -27q-28 -20 -70 -42q-42 -21.5 -92 -41l-8 10.5M411.5 -400.5q-34.5 16 -64.5 28.5q-30.5 12 -66.5 25q-36 12.5 -88 29.5l-65 20.5q-26 8 -46 12.5q-19.5 5 -40.5 9q14.5 48 23 73q8.5 25 13.5 33.5q5 9 9.5 8q6.5 1 9.5 -8.5q3 -9.5 6 -37.5q70.5 -35 123.5 -63.5q53 -28 98 -56q45.5 -27.5 94 -60.5l-6.5 -13.5M112.5 60.5q40.5 -9 72 -18q31.5 -9 58.5 -19q27 -10.5 55 -23.5q83 -38.5 143.5 -93q60.5 -54 98 -124q14.5 -27 24.5 -56.5q9.5 -29.5 17 -69.5q7.5 -39.5 14 -97.5q14.5 96.5 36.5 169q22.5 72 56.5 128q33.5 56 83 104.5q23.5 24 42 39.5q18.5 16 38 28q19 11.5 44 23.5q15.5 -39.5 31.5 -55.5q16.5 -16 47.5 -23l0 -11.5q-114.5 -28 -193 -92q-79 -64.5 -124.5 -167q-23.5 -51 -35 -97.5q-12 -46 -15.5 -101q26.5 -9.5 35 -15q9 -5 8 -10.5q1 -5.5 -8 -9.5q-9 -4 -35.5 -8q-26.5 -4.5 -79 -11.5q1.5 20 1.5 32q0.5 11.5 0.5 25.5q-0.5 106.5 -29 195.5q-28.5 88.5 -82.5 150.5q-53.5 61 -129.5 109q-75.5 47.5 -179 85.5l4 12.5" />
</g>
<g id="PathID_445" transform="matrix(0.0352941, 0, 0, 0.0352941, 240, 228)">
<path style="fill:#000000;fill-opacity:1" d="M525.5 -698.5l0 -102.5q24.5 -8 32 -12.5q7.5 -4 7 -10q0.5 -5.5 -6.5 -9q-7 -3 -31 -6.5q-24 -3.5 -74 -9q2 23.5 3 40q1 16.5 1 37l0 237.5l-161 0l-29.5 -20.5q-12.5 -8.5 -25.5 -15.5q-12.5 -7.5 -32 -17.5q1 16.5 1.5 31.5q1 15.5 1 38q0.5 23 0.5 63.5l0 106.5l0 52q0 20 -0.5 36.5l-1.5 39.5l0 1.5l0 0.5q0 6 4.5 9q4.5 2.5 16 2.5q11 0 23.5 -2q12.5 -2 19.5 -4q4.5 -1.5 6 -4.5q2 -3 2 -11l0 -39l459 0l0 28.5q0 8.5 3.5 12q3 3.5 11 3.5l16.5 -1l22.5 -1.5l12 -1.5q3.5 -1.5 5.5 -4.5q1.5 -2.5 1.5 -8l-1.5 -63.5q-0.5 -25.5 -0.5 -45.5l0 -44.5l0 -34l0 -25.5l0 -35.5q20 -12 28.5 -19.5q8.5 -7 8.5 -12q0 -2.5 -2.5 -5.5q-2.5 -3.5 -8 -8q-20 -16 -33.5 -25.5q-13 -9.5 -34 -23.5q-9 12 -19 24.5l-18.5 23.5l-207 0l0 -141.5l379.5 0q4 0 7 -2.5q3.5 -2 3.5 -4.5q0 -1.5 -1 -4q-1 -2.5 -4 -5.5q-19.5 -18 -33 -30l-27 -24.5l-34.5 -29.5l-22.5 27l-19 22.5q-10 11 -24 27.5l-225 0M281.5 -510l459 0l0 220l-459 0l0 -220M210 -182.5q-3 30 -10.5 49.5q-8 20 -25.5 40.5q-16 20 -33.5 34q-18 14.5 -40 23.5q-19.5 8 -25 16q-5.5 7.5 -5 25q0.5 22 8.5 36.5q7.5 15 19.5 15.5q20.5 -0.5 45.5 -23.5q24.5 -22.5 44.5 -59.5q19.5 -35.5 28 -71q8 -35.5 8 -84.5l-14.5 -2M348 -180.5q15.5 39.5 24.5 78.5q8.5 39 11.5 83.5l3 33l1.5 14.5l2 6.5q2 5.5 6 8.5q4 3 9 3q11.5 -0.5 23.5 -13q12.5 -12 21 -29.5q8.5 -17 9 -32.5q0 -26 -25.5 -67q-26 -40.5 -76 -93.5l-9.5 8M554 -180.5q25.5 50.5 42.5 98.5q17 47.5 25 93q4.5 22.5 9 30.5q4.5 8 11.5 7.5q9 -0.5 18.5 -8.5q9 -7.5 15.5 -20.5q7 -13 11 -26q4.5 -13 4.5 -21q0 -9 -5 -19q-5 -10.5 -16.5 -25q-18 -23.5 -31 -39q-13.5 -16 -30 -32.5q-16.5 -17 -44.5 -44l-10.5 6M763 -180.5q28 36 48.5 66q20.5 30.5 36.5 60.5q16 29.5 30.5 64q10 24 16.5 33.5q7 9 14.5 8.5q7 -0.5 15 -12q8 -11.5 14 -28q5.5 -17 5.5 -32.5q0.5 -17.5 -14.5 -38.5q-15.5 -21 -53 -52q-38 -30.5 -104.5 -77.5l-9 8" />
</g>
<g id="PathID_446" transform="matrix(0.0352941, 0, 0, 0.0352941, 288, 228)">
<path style="fill:#000000;fill-opacity:1" d="M510 -585.5q9.5 -32.5 14 -49.5q5 -17 9 -32l11 -41.5l429.5 0q5 0 8 -2q3.5 -2 3.5 -4q0 -2.5 -1.5 -5q-1.5 -3 -3.5 -5.5q-21.5 -17.5 -36.5 -29q-14.5 -12 -30 -23q-15 -11 -38 -26.5l-22 24.5l-18 21l-22.5 26l-263 0l5.5 -23l5 -19l7 -27.5q26.5 -6 36.5 -11q10 -4.5 9.5 -10.5q1 -5.5 -5 -9q-6 -3.5 -29.5 -8q-23.5 -4.5 -74 -12q-4 30 -9 56.5q-5.5 27 -13.5 63.5l-323.5 0l-52.5 -2q-21 -2.5 -47 -9q3 19.5 6.5 39.5q18.5 -3 37.5 -4q19 -1 46 -1l326.5 0l-13 50.5q-8 31 -19.5 72.5l-36 0l-26 -17.5l-22 -13l-27.5 -14.5q1.5 47 2.5 138q1.5 90.5 1.5 228.5q0 38.5 -0.5 67.5l-1 58l-2.5 68q0 6.5 3.5 9.5q3.5 3 12 2.5q32.5 0.5 44.5 -4q11.5 -4 10.5 -15.5l0 -45l342 0l0 44q0 7.5 3 10.5q3 3 11.5 3l27 -1.5q13 -1.5 20 -3.5q4.5 -1.5 6 -4q1.5 -2 2 -7.5q-1 -32 -1.5 -86l-1 -120.5q0 -65.5 -0.5 -132l0 -123q21.5 -12 29.5 -18q8 -6 7.5 -11.5q0 -2.5 -2.5 -5.5q-2.5 -3 -7 -6q-19.5 -14.5 -32.5 -23.5q-12.5 -9 -33 -22.5l-20 21.5l-20 23.5l-223 0M402.5 -448.5l0 -113.5l342 0l0 113.5l-342 0M744.5 -425l0 125l-342 0l0 -125l342 0M744.5 -276.5l0 130l-342 0l0 -130l342 0M186.5 17.5l803.5 0q4 0 6.5 -2q3 -2 3 -4q0 -2 -1.5 -4.5q-1.5 -2.5 -4 -5q-20.5 -18 -35 -30l-29.5 -24l-36.5 -28l-23 25.5l-18 21.5l-22.5 27l-643 0l0 -527.5q25 -8 34 -13.5q9.5 -5.5 9 -12q0 -3 -2.5 -5.5q-2.5 -2.5 -7.5 -4.5q-4 -2.5 -11 -4q-7.5 -2 -28.5 -4.5l-66 -8l1.5 36.5q1 15 1 29.5q0.5 14.5 0.5 33q0 74.5 -0.5 159q0 84.5 -1 164.5l-1 140.5l-1.5 88q-0.5 7.5 3 10q3.5 2.5 13.5 2.5q18.5 0 33 -2q15 -2 20 -5.5q2 -1 3 -3.5q1 -2.5 1 -7.5l0 -42" />
</g>
<g id="PathID_447" transform="matrix(0.0352941, 0, 0, 0.0352941, 0, 276)">
<path style="fill:#000000;fill-opacity:1" d="M529.5 -533.5l0 -50q24.5 -6 33 -10q8.5 -4 8 -10.5q0.5 -4 -4 -7q-4 -2.5 -18 -5.5l-42.5 -7q21 -19.5 40 -40.5q19.5 -21.5 45 -53l53 0q21.5 27.5 35.5 58q14 30 25 72q2.5 11.5 6.5 17.5q4.5 5.5 10 5.5q7.5 -0.5 16 -10.5q9 -9.5 15 -22.5q6.5 -13.5 7 -24.5q0 -10.5 -7 -21q-7 -10.5 -25 -26.5q-19.5 -17.5 -32 -27q-13 -9.5 -32.5 -21l302 0q3.5 0 6.5 -2q2.5 -2 3 -5q0 -1.5 -1.5 -3.5q-1.5 -2 -5 -5q-48 -36.5 -96 -73.5l-29.5 31.5q-11 13 -30 34l-201.5 0q14 -18 23 -32q9 -13.5 22 -35.5q25 -3 36.5 -8q11.5 -4.5 11.5 -11.5q1 -4.5 -6.5 -8q-7 -3.5 -31.5 -8.5l-74.5 -13q-15 59 -40.5 115.5q-26 56.5 -64 115.5l-14 -1l-12.5 -2l3 38l1 19.5l0 15.5l0 22.5l-203 0q-23.5 0 -42 -2.5q-19 -2.5 -42.5 -9l8 43q19 -3.5 31 -5q11.5 -2 21.5 -2.5q10.5 -0.5 24 -0.5l203 0l0 124l-304 0q-22 0 -37.5 -0.5q-15 -1 -29 -3q-14.5 -2 -34 -6.5l7 40.5l32 -4.5l26 -2q13.5 -0.5 35.5 -0.5l495.5 0l0 118.5l-479 0q-23.5 0 -38 -1q-15 -0.5 -27 -3q-12 -2 -26.5 -6q3.5 20.5 7.5 41.5q11.5 -3.5 22 -5q10 -2 24 -2.5q14 -0.5 38 -0.5l479 0l0 197.5q0 10 -3 13.5q-3 3 -10.5 3l-2 0l-3 0l-58 -2.5l-39 -2l-33.5 -2l-42.5 -2.5l0 16q39 5 61 9q22.5 3.5 34.5 8q12 4.5 20 11q10.5 7 16 18.5q5 11.5 8 32.5q33.5 -5 54 -12q20.5 -6.5 36 -17.5q15 -9.5 21.5 -23q6.5 -13.5 9 -39.5q-0.5 -48.5 -0.5 -70q-0.5 -21.5 -0.5 -29.5l0 -14.5l0 -94l231.5 0q3 0 6 -2q3 -2 3 -4q0 -1.5 -1 -4q-0.5 -2 -3 -4.5q-18.5 -16 -31 -27.5l-26 -21.5q-12.5 -11 -31 -26.5l-20 23.5l-16.5 19l-20 24l-92 0l0 -118.5l243.5 0q5 0 8 -2q3.5 -2 3.5 -4q0 -1.5 -1.5 -4l-3.5 -5.5q-19 -17 -32 -28l-26.5 -22.5l-33 -26l-22.5 23.5q-9 10 -17.5 20q-9 10 -21 25l-291 0l0 -124l324.5 0q3.5 0 5.5 -2q2.5 -2 3 -4q0 -3 -3.5 -6.5q-16 -14.5 -27 -25l-22 -19.5q-11 -10 -27.5 -24q-15 17.5 -25.5 29q-10.5 11 -29 28.5l-198.5 0M231.5 -740.5q12.5 -19.5 20.5 -34.5q7.5 -15 18.5 -39q27.5 -4.5 37 -8q9.5 -3.5 9 -9.5q0 -2 -1.5 -4l-3.5 -4.5q-3 -2.5 -13.5 -5.5q-10 -2.5 -40 -7.5q-9 -1.5 -22 -4.5l-31 -6q-4 20 -9 37.5q-4.5 17.5 -12 36.5q-7.5 19 -19 45q-26 57 -52 100.5q-26.5 43 -61.5 85l15 10q43.5 -39.5 79.5 -80q36 -41 69 -88l55.5 0q14 25 23 45.5q9 20 15 39.5q5.5 19.5 10 43q4.5 20.5 7 26.5q2.5 6 8.5 5.5q15.5 -1.5 29 -19.5q13 -18.5 14 -39q0 -7.5 -4 -16.5q-4 -8.5 -12.5 -18.5q-18.5 -22.5 -35 -37q-17 -15 -40.5 -29.5l223 0q4 0 7 -2.5q3 -2 3 -4.5l-0.5 -2.5l-2.5 -3q-17 -15.5 -28.5 -26.5l-23.5 -22l-28.5 -27q-17.5 19.5 -28 32.5q-11 12.5 -27.5 32l-147.5 0M270.5 -192q35.5 30 60.5 60.5q24.5 30 47 70.5q15.5 30 22 38q6.5 8.5 13 7.5q11.5 -1.5 20.5 -20.5q8.5 -19.5 9 -45.5q0.5 -18.5 -14.5 -35.5q-14.5 -17 -50.5 -36.5q-36 -20 -99 -46.5l-8 8" />
</g>
<g id="PathID_448" transform="matrix(0.0352941, 0, 0, 0.0352941, 48, 276)">
<path style="fill:#000000;fill-opacity:1" d="M207 -167q0 44 -1.5 105.5q-1.5 61.5 -4.5 129q0.5 7 3.5 10.5q3 3 10.5 3q13.5 0 28 -2.5q15 -2 20.5 -4.5q3.5 -2.5 5.5 -5.5q1.5 -3 1.5 -9l-1 -62q-0.5 -24 -0.5 -45.5q-0.5 -22 -0.5 -51.5l0 -78.5l0 -206l36 -7.5q12.5 -2.5 24.5 -5.5l32.5 -7.5q5.5 16.5 9 28.5q3.5 12 6.5 25q2.5 9.5 6 14.5q4 5 9.5 4.5q12.5 -1 23.5 -21q10.5 -20 11 -44q0 -12 -5.5 -24q-5.5 -12.5 -17 -25.5q-21.5 -24.5 -44 -46q-23 -21.5 -49 -41l-10.5 10q14.5 21.5 23.5 37.5q9.5 15.5 16.5 30q7 14.5 14.5 33l-41 3.5l-33 2.5l-41.5 2.5l-66 3q43 -51.5 74.5 -91q31.5 -39 61 -79.5q30 -40 67.5 -94q25.5 -0.5 35.5 -4q10 -3.5 9.5 -10q0.5 -5 -7.5 -10.5q-7.5 -5.5 -29 -14.5q-22 -8.5 -63 -23q-13.5 39 -37.5 89.5q-24 50 -56.5 107.5q-13 23 -24.5 42q-12 19.5 -25.5 40.5l-33 48q-19.5 0.5 -28.5 0.5l-12.5 0.5l-8 0l-20.5 -1l-26.5 -2q7 38.5 11.5 58.5q5 20.5 9 27.5q4 7.5 9 7q5 0.5 9.5 -7.5q4 -7.5 10 -29.5l54.5 -8q17.5 -2.5 28 -4.5l26 -4.5l0 206.5M56.5 -686q32 36 54 68.5q21.5 33 33 61.5q10 29.5 14.5 36q4 7 11 6q11.5 -1.5 20.5 -20.5q9 -18.5 9.5 -42q0.5 -17 -11 -32q-11 -15 -40.5 -35.5q22.5 -26.5 39 -47.5q16.5 -21 35 -47.5q18 -26 45 -67.5l6.5 0.5l4.5 0.5q21 0 30 -3.5q9.5 -3 9 -9q1 -5 -4 -9.5q-5 -4 -28.5 -13q-23 -8.5 -77 -27.5q-3.5 23.5 -14.5 58q-10.5 34.5 -26 74.5q-15.5 40.5 -34.5 80q-17 -12 -30 -20.5q-12.5 -8.5 -35.5 -22.5q-5 6.5 -10 12.5M627 -754.5l24.5 -20.5q10 -8.5 20.5 -19q10 -10 25.5 -27q24.5 -1.5 33.5 -4.5q9 -3 8.5 -10q0.5 -4.5 -6.5 -8.5q-7 -4 -29 -11q-22 -7 -67 -19.5q-4.5 29.5 -14 61q-9 32 -21 59l-66.5 0l-24.5 -16q-10.5 -6.5 -21 -12.5q-11 -6.5 -27 -15.5q1 21 1.5 56q1 35 1 76.5q0.5 41.5 0.5 82l0 35.5q0 14 -0.5 30q0 16 -1 42.5l-1.5 71.5q0.5 7 3.5 9q2.5 2.5 8.5 2.5q11 0 24 -2q13 -2 19.5 -4.5q4.5 -1 6 -4q2 -3 2 -9l0 -28l110.5 0l0 418q0 7.5 -2.5 10.5q-2.5 3 -9.5 3l-52.5 -2l-44 -2.5l-56.5 -5l0 15.5l58.5 14q17.5 4.5 24 6.5q6 2.5 11 5q16 8 23 18.5q7.5 10.5 9.5 28.5q43 -8 66 -17q22.5 -8.5 31 -21.5q8 -13 7.5 -34q-1.5 -37 -2 -62.5q-1 -25 -1 -44l-1 -35l0 -44q-0.5 -17 -1 -22.5l-5 -163.5q10.5 45.5 22 81q12 36 27 68q15.5 32.5 37 68q22 36.5 44.5 65.5q22.5 29 50.5 55.5q27.5 27 64.5 56q10 -25 25 -37q15 -12 40.5 -16l4 -15.5q-37.5 -15 -69.5 -34q-32 -19 -69.5 -50q-29 -22.5 -50 -45q-21.5 -22.5 -40 -50.5q32 -15 53.5 -27.5q21.5 -12 41 -26q19.5 -14 45.5 -34.5l10 1l6.5 0q17.5 0 24.5 -2.5q7.5 -2.5 7 -7.5q0.5 -5 -5 -10q-5.5 -5 -25 -15.5q-19 -10.5 -59 -31q-25 42 -51.5 74.5q-26.5 32.5 -59 62q-20.5 -34 -33.5 -62q-13 -28.5 -21 -59.5q-8 -31 -14 -73.5l110.5 0l0 33q0 7 3 9.5q3.5 3 10.5 3q28 0 41.5 -5q13.5 -4.5 13.5 -13.5l0 -3q-2 -39.5 -3 -67.5q-1.5 -27.5 -1.5 -51.5q-0.5 -24.5 -0.5 -53.5l1 -125.5q17.5 -9 25 -15.5q8 -6 7.5 -11q0 -4 -3 -8.5q-3.5 -4 -10 -10l-25.5 -19l-28 -20q-13 13 -20.5 21.5q-8 8.5 -20 22.5l-172 0M526.5 -615.5l0 -115.5l282.5 0l0 115.5l-282.5 0M809 -592l0 128l-282.5 0l0 -128l282.5 0M45 36q25 -41.5 44.5 -84q19.5 -42.5 34.5 -90q15.5 -48 28.5 -106.5q20.5 -3 28 -7q7.5 -3.5 7 -9.5q0.5 -5 -6 -9q-6.5 -4 -26 -9.5q-19.5 -6 -58 -15.5q-0.5 18.5 -2 36q-1.5 18 -5 40q-3.5 22.5 -9.5 55q-6.5 36 -13 65q-6.5 29 -15.5 59.5q-9 30 -22.5 69.5l15 6M295 -300q14 33 23 59.5q9 26.5 15.5 53.5q6.5 27 11.5 61q4 23 6.5 30q3 6.5 8 6q8 -0.5 17 -11.5q9.5 -11 16 -26.5q6.5 -15.5 7 -28.5q0 -22.5 -24 -60.5q-23.5 -37.5 -69 -87l-11.5 4M446.5 -304l-27.5 -1.5q-13 -1 -33 -5.5q3.5 18 6.5 36.5q12 -3 27.5 -4.5l32.5 -1.5l75 0q-10.5 32 -21 56.5q-11 25 -24.5 48.5q-13.5 23.5 -33.5 51.5q-29 43.5 -57 74.5q-28.5 30.5 -69 64q5.5 7.5 10.5 15.5q45 -28.5 76 -54q30.5 -25 61 -59q38.5 -39.5 66 -81q27 -42 54 -99q27.5 -8 27.5 -15.5q0.5 -2.5 -2 -6.5q-2.5 -3.5 -10 -12q-14.5 -13.5 -24.5 -21.5l-25 -20.5l-16.5 16.5q-6.5 7 -16 18.5l-77 0" />
</g>
<g id="PathID_449" transform="matrix(0.0352941, 0, 0, 0.0352941, 96, 276)">
<path style="fill:#000000;fill-opacity:1" d="M369.5 -751.5l15 -18.5l10.5 -13.5l15.5 -19q25.5 -2.5 38.5 -7.5q13 -5 13 -12q-0.5 -2.5 -3.5 -5q-3 -3 -7 -5.5l-13.5 -5.5q-8 -2.5 -28 -8l-63 -17q-8 22.5 -17.5 42.5q-9 19.5 -23.5 42q-14 22.5 -35.5 52.5q-33.5 48 -67 86.5q-33 39 -71.5 74.5q-38 35 -87 72.5l7 10q36.5 -19 61.5 -33.5q25 -15 46 -29.5q21 -15 44.5 -34q1 46.5 1 68.5l1 34l0 29.5q0 106 -7 190q-6.5 84 -19 135.5q-7.5 34.5 -19.5 62.5q-11.5 28.5 -31 58q-19 30 -49.5 68l6 6q34.5 -24 59 -47q24.5 -22.5 43.5 -49q19 -26.5 37 -61.5q15.5 -30.5 24.5 -60.5q8.5 -29.5 15 -69.5l524.5 0l0 180q0.5 14 -5 19q-5.5 5 -20.5 4.5l-73.5 -4l-43.5 -3l-32 -2.5l-37.5 -3.5l-2 16.5q49 7.5 79.5 15.5q30 8.5 48.5 19q15.5 8.5 21.5 19.5q6.5 10.5 8 31q37 -10.5 57.5 -17.5q20 -6.5 30.5 -12q10.5 -5.5 17.5 -12.5q11 -9.5 16 -23q4.5 -13 6.5 -38.5l-1 -155.5l0 -74l0 -281.5q4.5 -4 8.5 -6.5l6 -3.5q5 -3.5 8.5 -5.5l6.5 -5q2 -1.5 3 -3.5l1.5 -4.5q0 -4 -3.5 -8.5q-3.5 -4 -12 -11l-26.5 -20.5q-10.5 -8 -28 -20.5l-18 20q-6.5 8 -16.5 21l-262 0q28 -23 47 -40q19 -17 36.5 -34.5q18 -18 41 -43.5l34 -6q11 -2 16 -3.5l7.5 -2.5q4 -2 6.5 -4.5q2.5 -2.5 3 -4q0 -2.5 -4.5 -7.5q-4.5 -5 -13 -12l-23.5 -18.5l-19 -15l-24 -18.5q-12.5 12.5 -20 21q-8 8.5 -20 23l-225.5 0M275.5 -585.5q-11 -9.5 -17.5 -14.5q-6.5 -4.5 -17.5 -11q25.5 -23 50 -49.5q24.5 -26 59.5 -67.5l241 0q-15.5 29 -27 49q-11.5 19.5 -25 40.5q-14 21 -36 53l-227.5 0M789.5 -423l-230.5 0l0 -139l230.5 0l0 139M789.5 -399.5l0 161l-230.5 0l0 -161l230.5 0M268.5 -238.5q2 -20 3 -39.5q1 -19 2 -47q1 -28 2 -74.5l215 0l0 161l-222 0M275.5 -423l0 -21.5q0.5 -15.5 0.5 -32.5l0.5 -24.5l0 -27l-1 -33.5l215 0l0 139l-215 0" />
</g>
<g id="PathID_450" transform="matrix(0.0352941, 0, 0, 0.0352941, 144, 276)">
<path style="fill:#000000;fill-opacity:1" d="M853 -748.5q0 33.5 -0.5 59.5l-1 50l-1.5 54.5q-4 79 -10 148q-5.5 69 -13 121.5q-7.5 52 -15 79.5q-9 29.5 -18 41q-9 12 -23 11.5l-7.5 -0.5l-11 -0.5l-39.5 -4l-22 -2.5l-24.5 -3l-37 -4.5l-19.5 -2l-18 -1.5l0 13l63.5 15.5q20 5 27.5 7.5q7 2.5 13 6q18.5 7 26 21q8 14 9 40.5q37 -2.5 59.5 -7.5q22.5 -5 37 -14q23.5 -14.5 41 -59.5q17 -45 29.5 -123q3.5 -21 6 -38.5q2.5 -17 4.5 -41q2 -23.5 4 -64q2 -40.5 4.5 -107.5l6.5 -171q15.5 -10 24 -16q8.5 -6 11 -8.5l3 -4.5q2 -2.5 2 -3.5q0 -3.5 -3 -7.5q-2.5 -4 -7.5 -8l-34 -23.5l-35.5 -24.5l-16.5 18l-12 12.5l-17.5 17.5l-436 0q-18 0 -36.5 -1l-47.5 -5l11 36.5q15.5 -2.5 37 -4.5q21 -2.5 36 -2.5l158.5 0l-2.5 48q-0.5 18.5 -0.5 28q-8.5 120.5 -39.5 220.5q-31.5 100 -84.5 177.5q-25.5 38 -57 71.5q-31 34 -82 77q5.5 6 11 11.5q47.5 -27 81 -53q34 -26 67.5 -62q50.5 -52 85 -110q34.5 -58 55.5 -127.5q21 -69 30.5 -154.5l4 -32q1 -12.5 2 -33q1.5 -20 3 -62l219.5 0M65.5 -826.5q37.5 41.5 66.5 84q29.5 42.5 46 78q14 30.5 20.5 44q7 13.5 10.5 16q3.5 3 8 2.5q8.5 0 16 -7.5q7.5 -7 13.5 -23q4 -11 7 -23q3.5 -12.5 3.5 -19q-0.5 -31.5 -47 -73.5q-46.5 -42 -133 -89.5q-6 5.5 -11.5 11M48 -404.5q19.5 -3 32.5 -4l29 -1l84 0l0 264q-45 36.5 -84.5 62.5q-39 25.5 -68 38q10 25 22 48.5q12 23 23 39.5q3 5.5 7 9q4 3.5 7.5 3.5q4.5 -0.5 7 -7q3 -6 3 -15.5l0 -11.5q0 -6.5 -1 -13q38 -38 69.5 -77q31 -39 54.5 -77q14.5 39 29.5 63q15 24 36 43.5q44 43.5 123 63.5q79 20 205.5 19.5l311.5 -4q9.5 -31 24 -47.5q14 -16.5 35.5 -22l0 -15.5q-43 4 -101 7l-122.5 6l-125.5 4q-62 1.5 -112 1.5q-68 0 -115 -7q-47 -7.5 -79.5 -22.5q-33.5 -16 -52 -35q-19 -19 -30 -48l0 -252l12.5 -9.5q4.5 -3 7.5 -5.5q3.5 -2.5 5.5 -4.5l4.5 -5q1.5 -3 1.5 -5q0 -3 -2 -6q-2.5 -3 -7 -6.5q-16.5 -14.5 -27.5 -23q-11 -9 -30 -21l-40.5 44l-76 0l-17 -0.5l-18.5 -1.5l-36 -5l10 35.5" />
</g>
<g id="PathID_451" transform="matrix(0.0352941, 0, 0, 0.0352941, 192, 276)">
<path style="fill:#000000;fill-opacity:1" d="M275.5 -743.5l142.5 0q5 0 8 -2q3 -2.5 3 -6q0 -1 -1.5 -3.5q-1 -2.5 -3.5 -6l-24.5 -24l-19.5 -19l-24.5 -22.5q-15.5 17.5 -25 29q-10 11.5 -24.5 30.5l-183 0l-39 -1.5q-16.5 -1.5 -28.5 -4.5l4 35.5q14 -3.5 28.5 -5q14 -1 35 -1l85 0l0 682q0 7.5 -1.5 9.5q-1.5 2 -6.5 1.5l-2 0l-2.5 0q-18.5 0 -32 -0.5l-30 -2l-46.5 -4.5l-21.5 -1.5l-29.5 -2.5l-3 16.5q50.5 11 75.5 20q24.5 8.5 34 22q9.5 13 14.5 37.5q31.5 -2.5 51 -8.5q20 -6 37 -17q18 -10.5 25 -23.5q7 -13 7.5 -37l-1.5 -73q-0.5 -24.5 -0.5 -35.5l0 -19.5l0 -86l0 -478M977 -765q4 0 7 -2.5q3 -3 3 -6.5q0 -2 -2 -4.5q-2 -3 -5 -6l-31.5 -25.5l-26 -20.5l-32.5 -25.5l-27 32.5l-29.5 34l-322.5 0q-27.5 0 -44 -2q-16.5 -2 -35 -7q3 20 6.5 40.5q14.5 -3 33 -5q18.5 -2 39.5 -2l123 0q-8 41 -12.5 62.5q-5 21.5 -9.5 36.5q-4.5 15 -12 36l-84 0l-25.5 -16.5q-10.5 -6.5 -21 -12.5l-26 -15q1 18 1.5 58q1 40.5 1 98.5q0.5 58.5 0.5 130l0 16q0 9 -1 31l-1.5 69.5q-1.5 47.5 -3.5 131.5l0 1l0 1q0 6 4.5 9q5 3.5 15 3.5l14 -1l18 -1q8.5 -0.5 10 -1.5q4.5 -1 6.5 -3.5q2 -2.5 2.5 -7.5l0 -21.5l318.5 0l0 25.5l0 0.5l0 1.5q0 6 4 8.5q4 2 15.5 2l25.5 -1.5q14 -1.5 19.5 -4q3.5 -0.5 5.5 -2.5q1.5 -2.5 1.5 -5.5l0 -3q-2.5 -48 -4 -93.5q-1 -45 -1.5 -98q-0.5 -53.5 -0.5 -126l0 -57.5l0 -78.5q17 -8 25 -14q8 -6.5 8 -12q0 -2 -2.5 -5q-2 -3 -9 -8l-29 -21.5q-11.5 -8 -30.5 -20.5l-17 21.5q-6.5 8.5 -15.5 22.5l-205 0q21.5 -22.5 37.5 -41q16 -18.5 32 -40q16 -22 38 -54l250 0M829.5 -496l-318.5 0l0 -110.5l318.5 0l0 110.5M829.5 -472.5l0 127l-318.5 0l0 -127l318.5 0M829.5 -322l0 137.5l-318.5 0l0 -137.5l318.5 0M707.5 -109q41.5 24 83 51.5q41.5 28 74.5 54q33 26.5 48.5 44q17 18.5 22.5 23.5q5.5 5 9 4.5q9.5 -0.5 15 -12.5q5.5 -12 5.5 -32.5q0.5 -25 -4.5 -37.5q-5 -12 -17 -20q-13 -9.5 -33.5 -19q-20.5 -9.5 -53.5 -21.5q-32.5 -11.5 -83 -27l-25 -8.5q-15 -5 -35 -11q-3.5 6 -6.5 12M299 62q61.5 -14 109.5 -30.5q48 -17 91.5 -40.5q43.5 -23.5 91 -57l15 1.5l14.5 0.5q8 0 12.5 -2.5q5 -3 5 -7.5q0 -4 -4 -7q-3.5 -3.5 -11.5 -7.5q-3 -1.5 -7 -3q-3.5 -2 -8 -5l-15.5 -8l-14 -7.5q-8.5 -4 -26 -13q-23 25 -42.5 42.5q-19.5 17 -43.5 34q-35.5 25 -62 41.5q-27 17 -52.5 29q-25.5 12.5 -56.5 24l4 16" />
</g>
<g id="PathID_452" transform="matrix(0.0352941, 0, 0, 0.0352941, 240, 276)">
<path style="fill:#000000;fill-opacity:1" d="M82 122q27.5 -13 47 -27.5q19.5 -14 35 -33q20.5 -26 32 -57q11.5 -30.5 12 -62q-0.5 -43.5 -21.5 -68.5q-21 -25 -57.5 -25.5q-30.5 0.5 -49.5 19q-18.5 19 -19 48.5q-0.5 25 13.5 39q14 14.5 47 22.5q11 2 15.5 7q4 4.5 4 13.5q0 27.5 -19.5 51.5q-19 24 -59.5 48l20.5 24.5" />
</g>
</svg>
