<?xml version="1.0" encoding="utf-8"?>
<svg version="1.1" id="Layer_1"
xmlns="http://www.w3.org/2000/svg"
xmlns:xlink="http://www.w3.org/1999/xlink"
xmlns:author="http://www.sothink.com"
width="164px" height="212px"
xml:space="preserve">
<g id="PathID_453" transform="matrix(0.0352941, 0, 0, 0.0352941, 0, 37.8)">
<path style="fill:#000000;fill-opacity:1" d="M692 -201.5q-0.5 -10 -3.5 -14q-2.5 -4 -6.5 -3.5q-3 0 -6.5 1q-3 1.5 -7 3q-14 29 -34.5 61q-20 32.5 -47.5 60.5q-27 28.5 -62 46.5q-34.5 18 -78 18.5l-126 0q-44 1 -63.5 -9.5q-19.5 -10 -24 -46q-4.5 -35.5 -3.5 -109.5l0 -174q0 -6.5 3.5 -9.5q3.5 -3 12 -3l116.5 0q39 -1 67.5 28q28.5 29 34 100q1 9.5 5.5 14q4 4.5 9.5 4.5q5 0 9 -3q4.5 -3.5 7.5 -10.5l0 -273q-0.5 -7 -3.5 -11.5q-2.5 -5 -7.5 -5q-3.5 0 -7.5 2.5q-4.5 2.5 -10 8q-7 66 -37 92q-29.5 25.5 -70.5 24.5l-116.5 0q-7 0 -10 -3.5q-2.5 -3.5 -2.5 -9l0 -151.5q-0.5 -70 1.5 -104q2 -34 11 -44q9.5 -10.5 30.5 -9.5l188.5 0q44.5 1 81 29q37 27.5 66 70q29.5 43 51.5 88.5q4 2 7.5 3q3.5 1 5.5 1q4 0 6.5 -3q3 -3.5 6 -10.5q-8 -37.5 -17.5 -75l-18.5 -68q-8.5 -30.5 -12 -46q-2 -10.5 -8 -13.5q-6 -3.5 -21 -3l-560.5 0q-8.5 0 -13 3.5q-4.5 3.5 -4.5 8.5q0 4 2.5 8q2.5 3.5 8.5 7.5q41 1.5 60.5 8q19 7 25 16.5q6 9.5 7 18.5q3 14.5 4 40q1 26 1 72.5l0 65.5l0 226.5q0 85 -0.5 141q-1 56 -4.5 75q-3 14.5 -9.5 23q-6 8 -23 12q-17 4 -51.5 6q-5.5 3 -9.5 8q-3.5 4.5 -4 9.5q0 4 4.5 6.5q4 2.5 14 2.5l549.5 0q10.5 1 18 -3.5q7 -4 15.5 -22q8 -18.5 20.5 -60q13 -41.5 34 -116" />
</g>
<g id="PathID_454" transform="matrix(0.0352941, 0, 0, 0.0352941, 48, 37.8)">
<path style="fill:#000000;fill-opacity:1" d="M734 -389q0 -77.5 -22.5 -147q-22 -69.5 -66 -123.5q-44 -54 -109.5 -85q-65 -31 -151 -31.5q-81.5 0.5 -144.5 33q-63.5 32.5 -107 88.5q-44 56.5 -66.5 127.5q-23 71.5 -23 150.5q0 77.5 22.5 148.5q22 70.5 66 126q44 55.5 109.5 87.5q65.5 32.5 152 33q81 -0.5 144 -34.5q63 -33.5 106.5 -91.5q44 -57.5 66.5 -130q23 -73 23 -151.5M622.5 -385q0 67 -13.5 133.5q-14 66 -41.5 121q-28 55 -70.5 88.5q-43 33 -101 34q-67 -1 -113 -34q-46.5 -33.5 -74.5 -88.5q-28 -55 -40.5 -121q-12.5 -66.5 -12.5 -133.5q0 -66 14 -130.5q13.5 -64.5 41.5 -117.5q28.5 -53 71 -85q43 -31.5 101 -32.5q66.5 1 112.5 32.5q46 32 74 85q28 53 40.5 117.5q12.5 64.5 12.5 130.5" />
</g>
<g id="PathID_455" transform="matrix(0.0352941, 0, 0, 0.0352941, 96, 37.8)">
<path style="fill:#000000;fill-opacity:1" d="M719.5 -214.5q0 -6 -4 -8.5q-3.5 -2.5 -8 -2.5q-2.5 0 -6 1q-3 1.5 -5.5 3q-28 75.5 -56 111.5q-28.5 35.5 -50.5 35l-235.5 0q17.5 -35 47 -71.5q29 -37 61.5 -70q32.5 -33 59.5 -57q46 -38 90 -76.5q44.5 -38.5 74 -87q29.5 -49 30.5 -118.5q-1 -64.5 -28 -105q-27 -40 -71 -58.5q-43.5 -18.5 -93.5 -18.5q-58.5 1 -99 23q-41 22 -65.5 55q-25 33 -36.5 66.5q-11 33 -11 56q0 14.5 6 31.5q5.5 17 19.5 29.5q14 12.5 38 13q26.5 -0.5 41.5 -18q14.5 -17.5 15 -46.5q-0.5 -19.5 -7 -28.5q-6.5 -9 -13 -17q-6.5 -8 -7 -24.5q1 -55.5 31.5 -86q30 -30 77 -30.5q45 0.5 69 21.5q24 21 33.5 56q9 35 8.5 78q-0.5 50.5 -20.5 94q-20 43 -50.5 82q-31 38.5 -64.5 75q-68 77.5 -106 133.5q-38.5 56 -55.5 92q-16.5 36.5 -20.5 54.5q-4 18 -3 19.5q-1 5 4 6.5q5.5 1.5 27.5 1.5l322.5 0q5.5 -1 10 -5q4 -4.5 5.5 -11.5l21.5 -87q11.5 -49 22.5 -102.5l1.5 -4.5q0.5 -2 0.5 -4" />
</g>
<g id="PathID_456" transform="matrix(0.0352941, 0, 0, 0.0352941, 0, 84)">
<path style="fill:#000000;fill-opacity:1" d="M830.5 -166.5q-1 -8.5 -4.5 -12q-3 -3.5 -7 -3.5q-3 0 -6 1.5q-3 1.5 -6 3.5q-49.5 75.5 -110.5 109.5q-61 33.5 -130.5 33q-73 0 -131.5 -38.5q-59 -38.5 -94 -117.5q-34.5 -78.5 -35.5 -199.5q1 -123 34.5 -202.5q33 -79.5 86 -118q53 -38 113 -38q62.5 0.5 107.5 23.5q45 23 77.5 66q32.5 43 57.5 102q4 4 7.5 5.5q4 2 7 1.5q7 0 10.5 -5.5q4 -5 4 -10.5l-42 -199q-1 -4.5 -3 -7q-2 -3 -5.5 -3q-2 0 -5 2.5q-2.5 2.5 -5 8q-5.5 10.5 -14.5 21.5q-8.5 10.5 -17.5 11l-2 0q-1 0 -2 -1q-25.5 -15.5 -55.5 -25q-30 -9.5 -59.5 -13.5q-30 -4.5 -55 -4.5q-81 1 -145.5 34q-64.5 33 -110 89q-46 56 -70 124.5q-24.5 68.5 -24.5 140.5q0.5 132.5 44 222.5q44 90.5 125 136.5q81 46.5 193.5 46.5q55 0 107.5 -19.5q52.5 -20 96 -61q43 -40.5 71 -103.5" />
</g>
<g id="PathID_457" transform="matrix(0.0352941, 0, 0, 0.0352941, 48, 84)">
<path style="fill:#000000;fill-opacity:1" d="M861 -370.5q-0.5 -126 -46 -212.5q-45 -86.5 -127 -131q-82.5 -44.5 -193.5 -44.5l-313 0q-10 0 -14.5 4q-5 3.5 -5 8q0 5 3.5 9q3.5 4 10 6.5q35.5 0.5 53 7q17.5 7 23 16q5.5 9.5 6 17q3.5 18.5 5 63.5q1 45.5 1 127l0 210q0 74.5 -0.5 118.5q-0.5 44 -1 66q-1 22 -2 30.5q-1 8 -2.5 12q-4 13.5 -9.5 21q-5.5 7 -20.5 10.5q-15.5 3.5 -49 6.5q-6 4 -9.5 7.5q-3.5 4 -4 8q0 4.5 5 7q5 3 15.5 3l317.5 0q96 -1 164 -32.5q68.5 -32 111 -85.5q43 -53.5 63 -119q20 -65.5 20 -133.5M756.5 -372.5q-1 111.5 -34.5 187.5q-34 76 -90 114.5q-56 39 -124 39l-71.5 0q-39 0.5 -56 -12q-17 -12 -21 -45.5q-3.5 -33.5 -3 -95l0 -364.5l0 -83.5q0.5 -28 1 -40.5q0.5 -12.5 2 -22.5q3.5 -15.5 16 -24q12.5 -9 22 -9l96 -1l3 0q77 0.5 135.5 42q58 42 91 121.5q33 79.5 33.5 193" />
</g>
<g id="PathID_458" transform="matrix(0.0352941, 0, 0, 0.0352941, 96, 84)">
<path style="fill:#000000;fill-opacity:1" d="M842.5 -201.5q-0.5 -10 -3.5 -14q-2.5 -4 -6.5 -3.5q-3 0 -6.5 1q-3 1.5 -7 3q-14 29 -34.5 61q-20 32.5 -47.5 60.5q-27 28.5 -62 46.5q-34.5 18 -78 18.5l-126 0q-44 1 -63.5 -9.5q-19.5 -10 -24 -46q-4.5 -35.5 -3.5 -109.5l0 -174q0 -6.5 3.5 -9.5q3.5 -3 12 -3l116.5 0q39 -1 67.5 28q28.5 29 34 100q1 9.5 5.5 14q4 4.5 9.5 4.5q5 0 9 -3q4.5 -3.5 7.5 -10.5l0 -273q-0.5 -7 -3.5 -11.5q-2.5 -5 -7.5 -5q-3.5 0 -7.5 2.5q-4.5 2.5 -10 8q-7 66 -37 92q-29.5 25.5 -70.5 24.5l-116.5 0q-7 0 -10 -3.5q-2.5 -3.5 -2.5 -9l0 -151.5q-0.5 -70 1.5 -104q2 -34 11 -44q9.5 -10.5 30.5 -9.5l188.5 0q44.5 1 81 29q37 27.5 66 70q29.5 43 51.5 88.5q4 2 7.5 3q3.5 1 5.5 1q4 0 6.5 -3q3 -3.5 6 -10.5q-8 -37.5 -17.5 -75q-10 -37.5 -18.5 -68q-8.5 -30.5 -12 -46q-2 -10.5 -8 -13.5q-6 -3.5 -21 -3l-560.5 0q-8.5 0 -13 3.5q-4.5 3.5 -4.5 8.5q0 4 2.5 8q2.5 3.5 8.5 7.5q41 1.5 60.5 8q19 7 25 16.5q6 9.5 7 18.5q3 14.5 4 40q1 26 1 72.5l0 65.5l0 226.5q0 85 -0.5 141q-1 56 -4.5 75q-3 14.5 -9.5 23q-6 8 -23 12q-17 4 -51.5 6q-5.5 3 -9.5 8q-3.5 4.5 -4 9.5q0 4 4.5 6.5q4 2.5 14 2.5l549.5 0q10.5 1 18 -3.5q7 -4 15.5 -22q8 -18.5 20.5 -60q13 -41.5 34 -116" />
</g>
<g id="PathID_459" transform="matrix(0.0352941, 0, 0, 0.0352941, 0, 132)">
<path style="fill:#000000;fill-opacity:1" d="M857 -389q0 -77.5 -22.5 -147q-22 -69.5 -66 -123.5q-44 -54 -109.5 -85q-65 -31 -151 -31.5q-81.5 0.5 -144.5 33q-63.5 32.5 -107 88.5q-44 56.5 -66.5 127.5q-23 71.5 -23 150.5q0 77.5 22.5 148.5q22 70.5 66 126q44 55.5 109.5 87.5q65.5 32.5 152 33q81 -0.5 144 -34.5q63 -33.5 106.5 -91.5q44 -57.5 66.5 -130q23 -73 23 -151.5M745.5 -385q0 67 -13.5 133.5q-14 66 -41.5 121q-28 55 -70.5 88.5q-43 33 -101 34q-67 -1 -113 -34q-46.5 -33.5 -74.5 -88.5q-28 -55 -40.5 -121q-12.5 -66.5 -12.5 -133.5q0 -66 14 -130.5q13.5 -64.5 41.5 -117.5q28.5 -53 71 -85q43 -31.5 101 -32.5q66.5 1 112.5 32.5q46 32 74 85q28 53 40.5 117.5q12.5 64.5 12.5 130.5" />
</g>
</svg>
