<?xml version="1.0" encoding="utf-8"?>
<svg version="1.1" id="Layer_1"
xmlns="http://www.w3.org/2000/svg"
xmlns:xlink="http://www.w3.org/1999/xlink"
xmlns:author="http://www.sothink.com"
width="116px" height="164px"
xml:space="preserve">
<g id="PathID_460" transform="matrix(0.0352941, 0, 0, 0.0352941, 0, 37.8)">
<path style="fill:#000000;fill-opacity:1" d="M304 -378q65 0.5 104.5 15q39.5 14.5 59.5 36q20 22 26.5 44q6.5 22.5 6 38.5q0.5 33 -17.5 67q-18.5 34 -63 57.5q-44.5 23 -122 24q-54 -0.5 -88.5 -8.5q-34.5 -8 -58 -17q-28 -10 -37.5 -13q-9 -3 -15 -2.5q-24 1 -37 19.5q-13 18.5 -13 41q1 24 14 35q13 11.5 28 17q37.5 16.5 88 28.5q50 12 121 12.5q88.5 -0.5 150 -22.5q62 -22 100.5 -58q38 -36 55.5 -79.5q17.5 -44 17.5 -88q-1 -56 -19 -94q-18.5 -38 -45.5 -61q-27 -23.5 -53.5 -36q-26.5 -12.5 -44 -18q18 -8.5 44.5 -27q26.5 -19 47 -54q21 -34.5 22.5 -91q-0.5 -64.5 -33.5 -113q-32.5 -48.5 -89.5 -75.5q-57 -27 -131 -27.5q-52 0.5 -91.5 11.5q-39.5 10.5 -66.5 24.5q-27.5 14 -42.5 24.5q-15 8 -28 21q-13.5 13 -14 35q0.5 21 15 38q14.5 17.5 37 18.5q10 -0.5 19 -4.5q8.5 -4 15 -8q23 -16.5 59.5 -31.5q36 -15.5 91 -16.5q32 0 63 11q31.5 11 52.5 36.5q21 25 21.5 66q-0.5 38.5 -21.5 65.5q-21 27 -55.5 41.5q-35 14 -77.5 14l-24.5 0q-25 0 -38.5 12.5q-13.5 13 -14 40q1 25 11.5 36q10.5 10.5 23 13q12 2.5 18 2l30.5 0" />
</g>
<g id="PathID_461" transform="matrix(0.0352941, 0, 0, 0.0352941, 48, 37.8)">
<path style="fill:#000000;fill-opacity:1" d="M451.5 -605q1.5 -7 6 -41q5 -34 8.5 -87l139.5 0q9.5 0.5 22 -2.5q12 -2.5 21.5 -13.5q9 -10.5 9.5 -34.5q-0.5 -23.5 -10.5 -33.5q-9.5 -10.5 -22 -12.5q-12.5 -2.5 -20.5 -2l-274 0q-11 -0.5 -23 2.5q-12 3 -20.5 13.5q-8 10.5 -8.5 33q0.5 24.5 10 35q10 10.5 22 12.5q12.5 2.5 20 2l38 0q-4.5 73.5 -15 127q-10 53.5 -25 93.5q-15 40.5 -34.5 75q-19 34.5 -41 70q-10 16.5 -14.5 27.5q-4 11 -4 20.5q0.5 21 16 37q15.5 16.5 35 17.5q12.5 -0.5 24 -11q11.5 -10.5 22.5 -26q11 -16 21 -33q22 18 48.5 42q27 23.5 65.5 60.5q-10.5 21.5 -29 54q-19 32.5 -52.5 73q-33.5 40.5 -86.5 85q-13 10.5 -22 22.5q-9.5 11.5 -10 29q0.5 20 16 37q15 17 39.5 18q11.5 0 22.5 -5.5q11.5 -5 21.5 -13q59.5 -47.5 112.5 -121.5q52.5 -74 87.5 -162q19.5 -51.5 32 -103q12.5 -51 19.5 -94.5q6.5 -44 9.5 -72.5q2.5 -29 2.5 -36q-0.5 -41 -16 -58.5q-15 -17.5 -37.5 -21.5q-22.5 -4 -44 -3l-82 0M498 -511q12.5 -1 23.5 4q10.5 4.5 11 23.5q0 3.5 -2.5 25.5q-2.5 21.5 -8.5 55.5q-6.5 34 -17.5 74q-25.5 -23.5 -51.5 -43.5q-25.5 -20 -57.5 -42.5q13 -30.5 21 -53.5q8 -23.5 13 -43l69 0M770 -750.5q0.5 -9 -2.5 -20q-2.5 -11.5 -13 -19.5q-10 -8.5 -31.5 -8.5q-22 0.5 -31.5 9.5q-9.5 9.5 -12 20.5q-2 11.5 -1.5 18l0 569.5q-1 15.5 7 31.5q8 15.5 39 16.5q22.5 -0.5 32.5 -9q9.5 -9 12 -20q2 -11.5 1.5 -19l0 -569.5M219 -613q30 -91 42.5 -148q12 -56.5 11.5 -68.5q-0.5 -17 -10 -26.5q-9.5 -9 -21.5 -12.5q-11.5 -3 -19.5 -3q-24.5 1 -33 14q-8.5 13 -11 30l-13.5 62.5q-6 25 -11.5 44.5q-5 19 -11.5 38.5q-15.5 46 -29.5 79q-14.5 32.5 -32 64.5q-18 32 -44 76.5q-7 11.5 -10 21q-3.5 9 -3.5 21q0.5 26.5 15 45.5q14.5 19.5 36.5 20.5q14.5 0 24.5 -11.5q10.5 -11.5 26.5 -39l0 451.5q-0.5 8 2 19q2 10.5 12 19q10 9 33 9.5q23 -1 33 -9.5q10 -9 12 -20q2.5 -11 2 -18l0 -660M958.5 -819q0.5 -11 -2.5 -23q-3 -12.5 -14 -21q-10.5 -9 -34 -9.5q-24 0.5 -34.5 10.5q-10.5 10 -12.5 22q-2.5 12.5 -2 21l0 752.5q0 18 -5.5 26q-6 7.5 -16 10l-74.5 0q-17 -0.5 -32.5 2q-16 2.5 -26.5 14q-10.5 11.5 -10.5 38q0 29.5 13 42q12.5 12.5 35 15.5q22.5 2.5 52 2l35.5 0l42.5 -2q21 -1 31.5 -4q36 -12 46 -40q10.5 -28 9.5 -58.5l0 -797.5" />
</g>
</svg>
