<?xml version="1.0" encoding="utf-8"?>
<svg version="1.1" id="Layer_1"
xmlns="http://www.w3.org/2000/svg"
xmlns:xlink="http://www.w3.org/1999/xlink"
xmlns:author="http://www.sothink.com"
width="164px" height="212px"
xml:space="preserve">
<g id="PathID_397" transform="matrix(0.0352941, 0, 0, 0.0352941, 0, 37.8)">
<path style="fill:#000000;fill-opacity:1" d="M904 -144q-172 188 -372 188q-144 0 -212 -68q-52 -52 -52 -200l0 -536l84 0q36 8 8 32l0 504q0 100 36 136q44 44 132 44q156 0 316 -176l60 76M648 -792q80 52 156 100l-40 52q-84 -56 -156 -100l40 -52M568 -704q80 48 156 100l-40 52q-80 -52 -156 -100l40 -52" />
</g>
<g id="PathID_398" transform="matrix(0.0352941, 0, 0, 0.0352941, 48, 37.8)">
<path style="fill:#000000;fill-opacity:1" d="M704 -48q-188 0 -312 -120l52 -68q108 104 260 100l220 0l0 88l-220 0M132 28q-12 -208 -12 -356q0 -180 44 -428l80 20q44 8 4 36q-40 232 -40 372q0 156 16 348l-92 8M872 -564q-172 -4 -448 24l0 -84q288 -28 448 -24l0 84" />
</g>
<g id="PathID_399" transform="matrix(0.0352941, 0, 0, 0.0352941, 96, 37.8)">
<path style="fill:#000000;fill-opacity:1" d="M736 -512q8 152 0 304q120 44 232 124l-48 76q-84 -64 -184 -112q0 72 -44 116q-48 48 -140 48q-92 0 -140 -48q-40 -40 -40 -104q0 -56 32 -88q48 -48 144 -48q52 0 104 12q8 -136 0 -276l-296 20l0 -84l288 -16q-4 -112 -16 -200l84 0q44 8 8 32l8 164l216 -12l0 84l-208 8M132 24q-16 -112 -16 -260q0 -324 48 -520l88 16q28 12 -4 28q-44 140 -44 476q0 152 20 244l-92 16M652 -152q-68 -20 -104 -20q-56 0 -80 24q-20 20 -20 40q0 32 16 48q28 28 84 28q56 0 80 -28q28 -32 24 -92" />
</g>
<g id="PathID_400" transform="matrix(0.0352941, 0, 0, 0.0352941, 0, 84)">
<path style="fill:#000000;fill-opacity:1" d="M884 -120q-224 -164 -412 -332q-24 -20 -48 -20q-24 0 -40 16q-184 164 -252 220l-80 -80q108 -64 284 -228q40 -36 80 -36q52 0 96 36q304 252 464 332l-92 92" />
</g>
<g id="PathID_401" transform="matrix(0.0352941, 0, 0, 0.0352941, 48, 84)">
<path style="fill:#000000;fill-opacity:1" d="M612 -624q148 8 236 96q88 88 88 236q0 136 -80 216q-72 72 -200 116l-52 -76q132 -44 188 -100q60 -60 60 -160q0 -112 -60 -172q-76 -76 -196 -84q-44 168 -132 344l76 88l-64 48l-56 -64q-32 52 -68 88q-52 52 -104 52q-56 0 -104 -48q-52 -52 -52 -148q0 -144 156 -304q-28 -120 -40 -228l76 0q36 8 8 32q8 88 24 148q104 -64 212 -80q16 -60 32 -180l80 20q40 16 0 32l-28 128M364 -200q-52 -84 -92 -208q-100 120 -100 224q0 56 32 88q20 20 44 20q20 0 48 -28q24 -24 68 -96M512 -544q-96 16 -176 80q40 136 76 188q68 -132 100 -268" />
</g>
<g id="PathID_402" transform="matrix(0.0352941, 0, 0, 0.0352941, 96, 84)">
<path style="fill:#000000;fill-opacity:1" d="M644 -20q64 -8 108 -52q48 -48 48 -128q0 -88 -52 -140q-52 -52 -164 -52q-132 0 -204 52q-68 48 -176 172l-68 -60q288 -288 436 -480q-132 16 -264 28l-28 -92q196 0 348 -20l36 -16l44 44q44 40 -20 52q-120 136 -240 268q84 -20 140 -20q152 0 224 72q72 72 72 184q0 116 -64 180q-96 96 -244 96q-140 0 -204 -64q-52 -52 -52 -124q0 -48 36 -84q40 -40 92 -40q72 0 120 48q56 56 76 176M564 -8q-12 -104 -48 -140q-28 -28 -56 -28q-32 0 -48 16q-20 20 -20 44q0 36 32 68q40 40 104 40l36 0" />
</g>
<g id="PathID_403" transform="matrix(0.0352941, 0, 0, 0.0352941, 0, 132)">
<path style="fill:#000000;fill-opacity:1" d="M936 80q-268 -64 -360 -260q-48 204 -328 272l-24 -76q252 -56 284 -228l-264 0q-12 172 -120 284l-56 -64q96 -92 96 -252l0 -392l708 0l0 256l-80 0l0 -24l-548 0l0 116l272 0l0 -92l76 0q32 4 4 24l0 68l340 0l0 76l-300 0q56 148 332 208l-32 84M920 -780l0 76l-804 0l0 -76l804 0M792 -560l-548 0l0 80l548 0l0 -80" />
</g>
<g id="PathID_404" transform="matrix(0.0352941, 0, 0, 0.0352941, 48, 132)">
<path style="fill:#000000;fill-opacity:1" d="M936 72q-244 -96 -340 -332q-68 244 -384 336l-44 -84q372 -96 372 -420l0 -156l-52 0q-52 104 -148 200l-68 -68q156 -156 204 -372l92 24q16 12 -12 28q-12 36 -40 112l356 0l16 -16l68 56q16 20 -16 24q-52 128 -164 284l-68 -60q96 -120 128 -212l-204 0l0 136q0 284 344 424l-40 96M352 -288q-108 120 -224 200q-8 32 -20 16l-56 -84q136 -88 244 -196l56 64M236 -532q-60 -68 -144 -112l60 -80q88 40 152 104l-68 88" />
</g>
</svg>
