<?xml version="1.0" encoding="utf-8"?>
<svg version="1.1" id="Layer_1"
xmlns="http://www.w3.org/2000/svg"
xmlns:xlink="http://www.w3.org/1999/xlink"
xmlns:author="http://www.sothink.com"
width="164px" height="212px"
xml:space="preserve">
<g id="PathID_405" transform="matrix(0.0352941, 0, 0, 0.0352941, 0, 37.8)">
<path style="fill:#000000;fill-opacity:1" d="M779 -29q-26.5 -2 -41.5 -8.5q-15 -6.5 -25 -21.5q-9.5 -14.5 -20.5 -41.5q-25 -60 -57 -140q-32 -80 -67 -169q-35 -89 -68.5 -175.5l-60.5 -157.5q-5 -14.5 -9.5 -25q-4.5 -10.5 -12 -11q-0.5 -0.5 -6.5 2q-6.5 2.5 -23 13.5q-8 5.5 -18 9q-10 3.5 -16 5q-8.5 3 -12.5 18.5q-4 15.5 -11 37q-38.5 102 -75 202q-36.5 99.5 -67.5 185q-31 85.5 -53.5 145q-22.5 59.5 -33.5 80.5q-10 22.5 -27 35.5q-17 12.5 -53.5 16q-7 3.5 -10 8q-2.5 4.5 -2.5 8q0 5.5 4.5 9q4.5 3.5 13 3.5l193.5 0q9 0 13.5 -4q4 -3.5 4 -8.5q0 -4.5 -3 -9q-2.5 -4.5 -7.5 -7q-35 -3.5 -53 -8q-17.5 -4 -23.5 -10.5q-5.5 -6.5 -5 -16.5q0.5 -15 11.5 -48.5q11.5 -33.5 26.5 -73.5q15.5 -40.5 28.5 -76q1 -4.5 4 -7.5q3 -2.5 11 -2.5l296 0l44.5 118l23 61.5q6.5 19 8 24.5q1.5 5 1.5 6q-1 18.5 -20.5 25q-20 6 -49 8q-7 3.5 -11 8q-3.5 4.5 -3.5 8q0 5.5 5 9q5.5 3.5 15.5 3.5l237.5 0q9.5 0 14.5 -3.5q5 -3.5 5 -9q0 -3 -3.5 -7.5q-3 -4 -10 -8M513 -305.5l-287 0q69 -191.5 137.5 -383q74.5 191.5 149.5 383" />
</g>
<g id="PathID_406" transform="matrix(0.0352941, 0, 0, 0.0352941, 48, 37.8)">
<path style="fill:#000000;fill-opacity:1" d="M700.5 -211.5q0 -89.5 -66 -138q-65.5 -49 -194 -56q49.5 -3.5 97.5 -22.5q47.5 -19 79 -56q31.5 -37 32.5 -94.5q-0.5 -63.5 -30.5 -103.5q-30.5 -40 -84.5 -58.5q-54 -18.5 -127 -18.5l-361.5 0q-10.5 0 -15.5 4q-5 3.5 -5 8q0 5 3.5 9q3.5 4.5 11 7.5q37 0.5 54.5 6.5q17 6.5 22.5 15q5 9 6 16.5q3 17 5 59q2 42.5 2 119.5l0 239.5q0 78 -1 132.5q-1.5 54 -5 72.5q-2.5 12.5 -8 20q-5.5 8 -21.5 12.5q-16.5 4.5 -51.5 7.5q-6 3 -9.5 8q-4 4.5 -4 9.5q0 4.5 5 7.5q5 3.5 15.5 3.5l342 0q40 0.5 92 -7.5q52 -8.5 101 -30.5q49.5 -22.5 82 -64q32.5 -41.5 33.5 -108.5M549 -583q-0.5 48 -17.5 80.5q-17 32.5 -43.5 52q-27 19.5 -57.5 28.5q-30.5 8.5 -58 8.5l-133 0q-5.5 0 -10 -1q-4.5 -1 -8.5 -3l0 -141.5q0 -29.5 0.5 -59q0.5 -29 1.5 -53q1 -23.5 3 -36q0 -4 6 -11.5q6 -7.5 16.5 -10l34.5 -1.5q25.5 -0.5 54 -0.5l46 0q68 0.5 104 21.5q36.5 20.5 49.5 54q13.5 33.5 12.5 72M593 -206q0 47.5 -21.5 87q-21.5 40 -65 64q-43.5 24 -109 24.5q-62.5 0.5 -98.5 -2.5q-35.5 -3 -52.5 -12.5q-17 -9 -21.5 -28q-4.5 -19 -4 -51l0 -256.5q1.5 -2 5.5 -3q4.5 -1 10 -1l144.5 0q65.5 -0.5 112.5 15q47.5 16 73.5 55q25.5 39.5 26 109" />
</g>
<g id="PathID_407" transform="matrix(0.0352941, 0, 0, 0.0352941, 96, 37.8)">
<path style="fill:#000000;fill-opacity:1" d="M687 -166.5q-1 -8.5 -4.5 -12q-3 -3.5 -7 -3.5q-3 0 -6 1.5q-3 1 -6.5 3.5q-49 75.5 -110 109.5q-61 33.5 -130.5 33q-73 0 -132 -38.5q-58.5 -38.5 -93.5 -117.5q-34.5 -79 -35.5 -199.5q1 -123.5 34.5 -203q33 -79.5 86 -118q53 -38.5 113 -38q62.5 0 107.5 23.5q45 23 77.5 66q32.5 43 57.5 102q4 4 7.5 5.5q4 2 7 2q7 -0.5 10.5 -5.5q4 -5.5 4 -11l-42 -198.5q-1 -4.5 -3 -7.5q-2.5 -2.5 -5.5 -2.5q-2 0 -5 2q-2.5 2.5 -5 8q-5.5 11 -14.5 21.5q-8.5 10.5 -17.5 11.5l-2 -0.5q-1 0 -2 -0.5q-25.5 -15.5 -55.5 -25q-30 -9.5 -59.5 -14q-30 -4.5 -55 -4q-81 0.5 -145.5 34q-64.5 33 -110 89q-46 55.5 -70 124.5q-24.5 68.5 -24.5 140.5q0.5 132.5 44 222.5q44 90.5 124.5 136.5q81 46.5 194 46.5q55 0 107.5 -20q52.5 -19.5 96 -60.5q43 -40.5 71 -103.5" />
</g>
<g id="PathID_408" transform="matrix(0.0352941, 0, 0, 0.0352941, 0, 84)">
<path style="fill:#000000;fill-opacity:1" d="M728 -371.5q-0.5 -126 -46 -212q-45 -86.5 -127.5 -131q-82 -44.5 -193 -44.5l-313.5 0q-10 0 -14.5 4q-5 3.5 -5 8q0 5 3.5 9q4 4 10 6.5q36 0.5 53 7q17.5 7 23 16q5.5 9.5 6 17q3.5 18.5 5 63.5q1 45.5 1 126.5l0 210q0 75 -0.5 119q0 44 -1 65.5q-1 22 -2 30.5q-1 8.5 -2.5 12.5q-4 13.5 -9.5 20.5q-5.5 7 -20.5 10.5q-15.5 4 -49 6.5q-6 4 -9.5 7.5q-3.5 4 -4 8q0 4.5 5 7q5 3 15.5 3l317.5 0q96 -1 164.5 -32.5q68 -32 111 -85.5q43 -53.5 63 -119q20 -65.5 20 -133.5M623.5 -373.5q-1 112 -34.5 187.5q-34 76 -90 114.5q-56.5 39 -124.5 39l-71.5 0q-39 0.5 -56 -12q-17 -12 -21 -45.5q-3.5 -33 -3 -95l0 -364.5l0 -83.5q0 -27.5 1 -40q0.5 -12.5 2 -23q3.5 -15 16 -24q12.5 -8.5 22 -8.5l96 -1l3.5 0q76.5 0.5 135 42q58.5 42 91.5 121.5q33 79.5 33.5 192.5" />
</g>
<g id="PathID_409" transform="matrix(0.0352941, 0, 0, 0.0352941, 48, 84)">
<path style="fill:#000000;fill-opacity:1" d="M692.5 -202q-1 -10 -4 -14q-2.5 -3.5 -6.5 -3.5q-3 0 -6 1l-7 3q-14.5 29 -34.5 61q-20.5 32 -47.5 60.5q-27.5 28 -62 46q-35 18 -78.5 18.5l-126 0q-44 1 -63.5 -9q-19.5 -10.5 -24 -46q-4.5 -35.5 -3.5 -109.5l0 -174q0 -6 3.5 -9q3.5 -3 12 -3l116.5 0q39 -1 67.5 28q28.5 28.5 34 99.5q1 9.5 5.5 14q4 4.5 10 4.5q4.5 0 9 -3q4 -3.5 7 -10l0 -273q-0.5 -7.5 -3 -12q-3 -4.5 -8 -4.5q-3 0 -7.5 2.5q-4.5 2.5 -10 7.5q-7 66.5 -37 92.5q-29.5 25.5 -70.5 24.5l-116.5 0q-7 0 -10 -3.5q-2.5 -3.5 -2.5 -9l0 -151.5q-0.5 -70.5 1.5 -104.5q2 -34 11 -44.5q9.5 -10 30.5 -9l188.5 0q44.5 1 81 29q37 27.5 66.5 70.5q29 42.5 51 88q4 2.5 7.5 3.5q3.5 1 6 1q3.5 0 6.5 -3.5q2.5 -3 5.5 -10q-8 -37.5 -17.5 -75l-18 -68.5q-8.5 -30.5 -12.5 -46q-2 -10.5 -8 -13.5q-5.5 -3.5 -20.5 -3l-561 0q-8.5 0 -13 3.5q-4.5 3.5 -4.5 8.5q0 4 2.5 8q2.5 3.5 9 7.5q40.5 1.5 60 8q19 7 25 16.5q6 9.5 7 18.5q3 14.5 4 40.5q1 25.5 1 72.5l0 30l0 35.5l0 226q0 85 -0.5 141q-1 55.5 -4.5 74.5q-3 15 -9.5 23q-6 8.5 -23 12q-17 4 -51.5 6q-5.5 3 -9.5 8q-3.5 4.5 -4 9.5q0 3.5 4.5 6.5q4 2.5 14 2.5l550 0q10 0.5 17.5 -3.5q7.5 -4 15.5 -22q8 -18 21 -60q12.5 -41.5 34 -115.5" />
</g>
<g id="PathID_410" transform="matrix(0.0352941, 0, 0, 0.0352941, 96, 84)">
<path style="fill:#000000;fill-opacity:1" d="M734 -389q0 -77.5 -22.5 -147q-22 -69.5 -66 -123.5q-44 -54 -109.5 -85.5q-65 -31 -151 -31.5q-81.5 0.5 -144.5 33q-63.5 32.5 -107 89q-44 56 -66.5 127.5q-23 71.5 -23 150q0 78 22.5 149q22 70.5 66 126q44 55.5 109.5 87.5q65.5 32.5 152 33q81 -1 144 -34.5q63 -33.5 106.5 -91.5q44 -57.5 66.5 -130.5q23 -72.5 23 -151M622.5 -385q0 67 -13.5 133q-13.5 66.5 -41.5 121.5q-28 55 -70.5 88.5q-43 33 -101 34q-67 -1 -113 -34q-46.5 -33.5 -74.5 -88.5q-28 -55 -40.5 -121.5q-13 -66 -12.5 -133q0 -66.5 13.5 -131q14 -64.5 42 -117.5q28.5 -53 71 -85q43 -31.5 101 -32.5q66.5 1 112.5 32.5q46 32 74 85q28 53 40.5 117.5q12.5 64.5 12.5 131" />
</g>
</svg>
