<?xml version="1.0" encoding="utf-8"?>
<svg version="1.1" id="Layer_1"
xmlns="http://www.w3.org/2000/svg"
xmlns:xlink="http://www.w3.org/1999/xlink"
xmlns:author="http://www.sothink.com"
width="31px" height="23px"
xml:space="preserve">
<g id="344" transform="matrix(1, 0, 0, 1, 0.75, 0.75)">
<path style="fill:#333333;fill-opacity:1" d="M26.5,2.35Q29 4.85 29 8.3Q29 11.8 26.5 14.15Q24.25 16.45 21.05 16.65L20.6 16.65L20 16.65L4.95 16.65L4.4 16.45L3.65 16.2L2.9 15.55L2.05 14.4L1.45 12.9L1.2 12.2L0.95 10.45L0.65 8.75L0.55 7L0.55 5.2Q0.5 4.35 1 3.8L2.15 3.75L3.55 4.8L4.75 6.1L4.9 6.4L5.65 8L6.1 9.25L6.45 10.05Q6.6 10.45 7.1 10.7L8.65 10.85L9.95 10.55L11.15 9.35L12 7.85L12.3 7Q12.6 5.2 13.55 3.75L14.7 2.35Q17.15 0 20.6 0Q23.85 0 26.2 2.15L26.5 2.35M23.7,8.4Q23.7 7.15 22.8 6.2Q21.85 5.25 20.6 5.3Q19.3 5.25 18.4 6.2Q17.45 7.15 17.5 8.4Q17.45 9.65 18.4 10.6Q19.3 11.5 20.6 11.5Q21.85 11.5 22.8 10.6Q23.7 9.65 23.7 8.4" />
<path style="fill:none;stroke-width:1.5;stroke-linecap:round;stroke-linejoin:round;stroke-miterlimit:3;stroke:#FFFFFF;stroke-opacity:1" d="M26.2,2.15Q23.85 0 20.6 0Q17.15 0 14.7 2.35L13.55 3.75Q12.6 5.2 12.3 7L12 7.85L11.15 9.35L9.95 10.55L8.65 10.85L7.1 10.7Q6.6 10.45 6.45 10.05L6.1 9.25L5.65 8L4.9 6.4L4.75 6.1L3.55 4.8L2.15 3.75L1 3.8Q0.5 4.35 0.55 5.2L0.55 7L0.65 8.75L0.95 10.45L1.2 12.2L1.45 12.9L2.05 14.4L2.9 15.55L3.65 16.2L4.4 16.45L4.95 16.65L20 16.65L20.6 16.65L21.05 16.65Q24.25 16.45 26.5 14.15Q29 11.8 29 8.3Q29 4.85 26.5 2.35L26.2 2.15M22.8,10.6Q21.85 11.5 20.6 11.5Q19.3 11.5 18.4 10.6Q17.45 9.65 17.5 8.4Q17.45 7.15 18.4 6.2Q19.3 5.25 20.6 5.3Q21.85 5.25 22.8 6.2Q23.7 7.15 23.7 8.4Q23.7 9.65 22.8 10.6" />
<path style="fill:#666666;fill-opacity:1" d="M2.15,10.85Q1.8 10.55 1.8 10.1L1.9 9.55L2.3 9.55L2.9 9.45L3.6 9.6L5 9.95L6.95 10.15L8.55 10.2L9.85 10.05L10.85 9.3L11.7 8.25L12.35 7.15L12.65 6.7L12.65 6.65L12.8 6.4L13.9 5.05Q16.35 2.65 19.9 2.65Q23.1 2.65 25.4 4.8L25.75 5.05Q28.2 7.55 28.2 11Q28.2 14.4 25.75 16.8Q23.45 19.1 20.35 19.3L19.9 19.35L19.25 19.3Q19.55 18.85 17.9 17.7Q15.5 15.85 15.35 15.2Q15.25 14.45 14.4 13.65Q13.5 12.75 13.25 12.05L13 11.35L12.7 11.5L11.3 12.15L9.3 12.5L6.8 12.5L4.75 12.3L3.75 12.05L3.05 11.65L2.45 11.1L2.15 10.85" />
<path style="fill:none;stroke-width:1;stroke-linecap:round;stroke-linejoin:round;stroke-miterlimit:3;stroke:#666666;stroke-opacity:1" d="M2.15,10.85Q1.45 10.85 1 10.25Q0.45 9.65 0.5 8.7Q0 4.45 3.7 4.5" />
<path style="fill:#666666;fill-opacity:1" d="M23.2,13.1Q23.2 11.8 22.25 10.85Q21.35 9.85 20.1 9.95Q18.8 9.85 17.85 10.85Q16.95 11.8 17 13.1Q16.95 14.3 17.85 15.25Q18.8 16.2 20.1 16.2Q21.35 16.2 22.25 15.25Q23.2 14.3 23.2 13.1M26,7.05Q28.4 9.45 28.4 12.9Q28.4 16.4 26 18.8Q23.65 21.1 20.55 21.3L20.1 21.3L19.45 21.3L4.45 21.3L3.9 21.1L3.15 20.8L2.4 20.2Q2 19.9 1.55 19L0.95 17.55L0.65 16.8L0.4 15.05L0.15 13.35L0.05 11.6L0.05 9.8Q0 8.95 0.45 8.45L1.6 8.4L3.05 9.4L4.2 10.7L4.4 11.05L5.05 12.65L5.55 13.9L5.9 14.65L6.55 15.35L8.05 15.45L9.35 15.2L10.6 14Q11.25 13.2 11.5 12.45L11.8 11.6Q12 9.8 13.05 8.4L14.15 7.05Q16.6 4.6 20.1 4.6Q23.35 4.6 25.7 6.75L26 7.05" />
<path style="fill:none;stroke-width:1.5;stroke-linecap:round;stroke-linejoin:round;stroke-miterlimit:3;stroke:#FFFFFF;stroke-opacity:1" d="M22.25,15.25Q21.35 16.2 20.1 16.2Q18.8 16.2 17.85 15.25Q16.95 14.3 17 13.1Q16.95 11.8 17.85 10.85Q18.8 9.85 20.1 9.95Q21.35 9.85 22.25 10.85Q23.2 11.8 23.2 13.1Q23.2 14.3 22.25 15.25M25.7,6.75Q23.35 4.6 20.1 4.6Q16.6 4.6 14.15 7.05L13.05 8.4Q12 9.8 11.8 11.6L11.5 12.45Q11.25 13.2 10.6 14L9.35 15.2L8.05 15.45L6.55 15.35L5.9 14.65L5.55 13.9L5.05 12.65L4.4 11.05L4.2 10.7L3.05 9.4L1.6 8.4L0.45 8.45Q0 8.95 0.05 9.8L0.05 11.6L0.15 13.35L0.4 15.05L0.65 16.8L0.95 17.55L1.55 19Q2 19.9 2.4 20.2L3.15 20.8L3.9 21.1L4.45 21.3L19.45 21.3L20.1 21.3L20.55 21.3Q23.65 21.1 26 18.8Q28.4 16.4 28.4 12.9Q28.4 9.45 26 7.05L25.7 6.75" />
<path style="fill:#333333;fill-opacity:1" d="M22.25,15.25Q21.35 16.2 20.05 16.2Q18.75 16.2 17.85 15.25Q16.95 14.3 16.95 13.1Q16.95 11.8 17.85 10.85Q18.75 9.85 20.05 9.95Q21.35 9.85 22.25 10.85Q23.15 11.8 23.2 13.1Q23.15 14.3 22.25 15.25" />
</g>
</svg>
