<?xml version="1.0" encoding="utf-8"?>
<svg version="1.1" id="Layer_1"
xmlns="http://www.w3.org/2000/svg"
xmlns:xlink="http://www.w3.org/1999/xlink"
xmlns:author="http://www.sothink.com"
width="117px" height="57px"
xml:space="preserve">
<g id="352" transform="matrix(1, 0, 0, 1, 0, 0)">
<path style="fill:#FFFFFF;fill-opacity:0" d="M116.6,56.6L0 56.6L0 0L116.6 0L116.6 56.6" />
<path style="fill:#000080;fill-opacity:1" d="M106.85,15.35Q106.9 16 106.55 16.85L105.45 19.4L108.6 19.4Q109.45 19.45 110 19.95Q110.5 20.45 110.55 21.3Q110.55 22.15 110.05 22.6Q109.55 23.05 108.6 23.05L104.65 23.05L104.65 26.95L107.85 26.95Q108.95 26.95 109.5 27.4Q110.05 27.85 110.05 28.8Q110.05 29.65 109.5 30.05Q109 30.5 107.85 30.5L104.65 30.5L104.65 34.55L107.85 34.55Q109 34.55 109.5 34.95Q110.05 35.4 110.05 36.3Q110.05 37.2 109.5 37.65Q108.95 38.1 107.85 38.1L104.65 38.1L104.65 42.45L108.85 42.45L110.25 42.95Q110.75 43.45 110.75 44.3Q110.75 45.15 110.25 45.65L108.85 46.1L96.65 46.1Q94.7 46.2 93.85 45.5Q93.05 44.8 92.95 43.05L92.95 27.1L92 27.95L91.1 28.2Q90.35 28.15 89.8 27.65Q89.3 27.15 89.25 26.45Q89.25 26.15 89.4 25.8L90.1 24.7L91.85 22.35L93.6 19.65L95.15 16.2Q95.65 14.85 96.2 14.3Q96.7 13.7 97.45 13.7Q98.2 13.75 98.7 14.3Q99.2 14.85 99.25 15.65L99.15 16.4L98.75 17.5L97.95 19.4L101.45 19.4L102.55 16.75L103.15 15.35L103.5 14.65L104.2 14L105.1 13.8Q105.9 13.8 106.35 14.25Q106.85 14.7 106.85 15.35M89.8,17.1L91.15 18.7L91.35 19.3L91.45 19.95Q91.45 20.7 91 21.15Q90.55 21.6 89.6 21.85L90.1 22.55L90.2 23.25Q90.2 24 89.75 24.45Q89.25 24.85 88.5 24.9L86.65 24.9L86.65 28.55L89.35 28.55Q90.15 28.6 90.65 29.05Q91.1 29.55 91.15 30.4Q91.1 31.2 90.65 31.65Q90.15 32.1 89.35 32.15L86.65 32.15L86.65 40.7L87.45 40.6L87.95 40.5L89.15 40.25L89.9 40.15Q90.5 40.2 90.95 40.7Q91.4 41.2 91.4 41.9Q91.4 42.6 90.85 43.1Q90.3 43.65 89.25 43.95L86.9 44.5L84.1 45L81.45 45.4L79.65 45.55Q78.75 45.55 78.25 45.05Q77.7 44.55 77.7 43.7Q77.7 43.2 77.95 42.8L78.65 42.2L79.4 42L80.85 41.7L81.75 41.55L82.35 41.45L83.05 41.25L83.05 32.15L79.5 32.15Q78.65 32.1 78.2 31.65Q77.7 31.2 77.7 30.4Q77.7 29.55 78.2 29.05Q78.7 28.6 79.5 28.55L83.05 28.55L83.05 24.9L80.4 24.9Q79.55 24.9 79.15 24.45Q78.7 24 78.7 23.2L78.8 22.65L79.1 22.05Q78.3 21.8 77.95 21.4Q77.6 20.95 77.65 20.35Q77.65 19.8 78.05 19.3L78.2 19.1L78.85 18.5L80.55 16.95L81.25 16.25L82.4 15Q83.05 14.15 83.6 13.8L84.8 13.5L86.1 13.85L87.95 15.25L89.8 17.1M85.1,18L84.85 18.05L84.4 18.4L83.4 19.45L81.5 21.3L88.5 21.3L87.05 19.65L85.8 18.45L85.1 18M97.95,23.05Q97.25 23.05 96.95 23.35Q96.65 23.65 96.65 24.4L96.65 26.95L100.95 26.95L100.95 23.05L97.95 23.05M100.95,34.55L100.95 30.5L96.65 30.5L96.65 34.55L100.95 34.55M91.2,36.05L90.45 38L89.55 39.45L88.55 39.9Q87.9 39.9 87.45 39.45Q87.05 39.05 87 38.4L87.1 37.95L87.45 36.9L88.35 34.35L89 33.15Q89.35 32.85 89.95 32.9Q90.65 32.9 91.05 33.35Q91.45 33.8 91.45 34.55L91.2 36.05M81.85,36.3L82.15 38.05L82.3 39.25Q82.3 40 81.8 40.45Q81.35 40.9 80.6 40.9L79.7 40.65L79.2 39.85L78.85 38.45L78.5 36.75L78.2 35.2L78.1 34.3Q78.1 33.7 78.55 33.3Q79 32.95 79.75 32.95Q80.45 32.95 80.85 33.35Q81.25 33.8 81.5 34.8L81.85 36.3M100.95,38.1L96.65 38.1L96.65 41.45Q96.65 42.1 96.9 42.3L97.95 42.45L100.95 42.45L100.95 38.1M68.3,17.45L67.4 18.9L65.4 21.3L68.95 21.3L71.45 21.65Q72.3 22 72.7 22.85Q73.05 23.7 73.05 25.25L73.05 41.75Q73.05 43.55 72.55 44.55Q72.1 45.6 70.9 46.05L67.7 46.45L65.5 46.3L63.6 45.85L62.4 45.25L61.95 44.75L61.8 44.1Q61.8 43.25 62.35 42.7Q62.85 42.15 63.65 42.15L64.7 42.2L66 42.45L66.95 42.6L67.8 42.65L68.65 42.45L68.95 41.75L68.95 37.95L49.9 37.95L49 40.8L48.05 42.9L46.95 44.75L45.75 46Q45.2 46.4 44.6 46.4Q43.8 46.35 43.2 45.8Q42.65 45.25 42.6 44.45L42.65 43.85L43 43.15L43.9 41.8L45.2 39.25Q45.7 37.9 46 35.95L46.45 31.3L46.6 24.8L45 25.5L43.9 25.7Q43.1 25.65 42.55 25.1Q42.05 24.55 42 23.7Q42 23.3 42.15 23L42.6 22.45L42.9 22.2L43.65 21.8L45.15 21L47.6 19.35L49.6 17.4L51.95 14.4L52.85 13.7L53.9 13.45L55 13.7L55.6 14.5L65.3 14.5Q66.9 14.5 67.7 14.95Q68.5 15.45 68.5 16.35L68.3 17.45M61.3,18.25L54.25 18.25L53.3 19.35L52.45 20.15L51.2 21.3L60.15 21.3L61.55 19.9L62.15 19.1L62.3 18.6L62.1 18.35L61.3 18.25M57.45,25.05L51.4 25.05L50.9 25.15L50.65 25.5L50.55 26.25L50.5 27.85L57.45 27.85L57.45 25.05M57.45,31.35L50.5 31.35L50.35 34.2L57.45 34.2L57.45 31.35M68,25.05L61.5 25.05L61.5 27.85L68.95 27.85L68.95 26.05L68.7 25.2L68 25.05M61.5,34.2L68.95 34.2L68.95 31.35L61.5 31.35L61.5 34.2M32.95,18Q32.65 17.7 32.1 17.65L27.5 17.65L27.5 31.5Q27.5 32 28 32.25L29.5 32.5L30.1 32.45L30.65 32.4L31.5 32.25L31.85 32.25L32.35 32.3L33.2 32.6L33.2 19.05L32.95 18M37.35,18.15L37.35 42.2Q37.35 43.95 36.45 44.8Q35.6 45.65 33.75 45.7L10.85 45.7Q8.75 45.75 7.9 44.95Q7.05 44.15 7 42.2L7 18.15Q7 16.55 7.35 15.65Q7.65 14.8 8.5 14.45L10.85 14.1L33.75 14.1Q35.85 14.15 36.65 15.05Q37.45 15.95 37.35 18.15M11.15,19.05L11.15 40.65Q11.15 41.45 11.4 41.7Q11.65 42 12.45 42L32.1 42Q32.6 42.05 32.9 41.7L33.2 40.65L33.2 35.9L32.65 35.95L32.3 36L31.1 36.2L30.2 36.25L29.05 36.25L25.8 35.95Q24.65 35.6 24.15 34.85Q23.65 34.05 23.65 32.7L23.65 17.65L20.15 17.65L20.15 20.05Q20.15 24.55 19.5 28.1Q18.85 31.7 17.65 34.05L16.9 35.35L15.95 36.55L14.95 37.45L13.75 37.7Q12.85 37.7 12.35 37.2Q11.8 36.7 11.8 35.9Q11.75 35.35 11.95 34.9L12.75 33.65Q14.05 31.95 14.8 30.1Q15.55 28.2 15.9 25.75L16.25 19.7L16.25 17.65L12.45 17.65Q11.7 17.65 11.4 17.95Q11.15 18.25 11.15 19.05" />
</g>
</svg>
