<?xml version="1.0" encoding="utf-8"?>
<svg version="1.1" id="Layer_1"
xmlns="http://www.w3.org/2000/svg"
xmlns:xlink="http://www.w3.org/1999/xlink"
xmlns:author="http://www.sothink.com"
width="137px" height="34px"
xml:space="preserve">
<g id="338" transform="matrix(1, 0, 0, 1, 0, 0)">
<linearGradient
id="LinearGradID_259" gradientUnits="userSpaceOnUse" gradientTransform="matrix(0, -0.0244141, -0.02034, 0, 68.5, 17)" spreadMethod ="pad" x1="-819.2" y1="0" x2="819.2" y2="0" >
<stop  offset="0" style="stop-color:#FFFFFF;stop-opacity:1" />
<stop  offset="1" style="stop-color:#AFBDC5;stop-opacity:1" />
</linearGradient>
<path style="fill:url(#LinearGradID_259) " d="M137,26Q137 29.3 134.65 31.65Q132.3 34 129 34L8 34Q4.7 34 2.35 31.65Q0 29.3 0 26L0 8Q0 4.7 2.35 2.35Q4.7 0 8 0L129 0Q132.3 0 134.65 2.35Q137 4.7 137 8L137 26" />
<path style="fill:#8A969E;fill-opacity:1" d="M129,1L8 1Q5.1 1 3.05 3.05Q1 5.1 1 8L1 26Q1 28.9 3.05 30.95Q5.1 33 8 33L129 33Q131.9 33 133.95 30.95Q136 28.9 136 26L136 8Q136 5.1 133.95 3.05Q131.9 1 129 1M134.65,2.35Q137 4.7 137 8L137 26Q137 29.3 134.65 31.65Q132.3 34 129 34L8 34Q4.7 34 2.35 31.65Q0 29.3 0 26L0 8Q0 4.7 2.35 2.35Q4.7 0 8 0L129 0Q132.3 0 134.65 2.35" />
</g>
</svg>
