<?xml version="1.0" encoding="utf-8"?>
<svg version="1.1" id="Layer_1"
xmlns="http://www.w3.org/2000/svg"
xmlns:xlink="http://www.w3.org/1999/xlink"
xmlns:author="http://www.sothink.com"
width="81px" height="57px"
xml:space="preserve">
<g id="348" transform="matrix(1, 0, 0, 1, 0, 0)">
<path style="fill:#FFFFFF;fill-opacity:0" d="M0,56.6L0 0L80.4 0L80.4 56.6L0 56.6" />
<path style="fill:#000080;fill-opacity:1" d="M67.05,15.35L67.4 14.65L68.1 14L69 13.8Q69.8 13.8 70.25 14.25Q70.75 14.7 70.75 15.35Q70.8 16 70.45 16.85L69.35 19.4L72.5 19.4Q73.35 19.45 73.9 19.95Q74.4 20.45 74.45 21.3Q74.45 22.15 73.95 22.6L72.5 23.05L68.55 23.05L68.55 26.95L71.75 26.95Q72.85 26.95 73.4 27.4Q73.95 27.85 73.95 28.8Q73.95 29.65 73.4 30.05Q72.9 30.5 71.75 30.5L68.55 30.5L68.55 34.55L71.75 34.55Q72.9 34.55 73.4 34.95Q73.95 35.4 73.95 36.3Q73.95 37.2 73.4 37.65Q72.85 38.1 71.75 38.1L68.55 38.1L68.55 42.45L72.75 42.45Q73.6 42.5 74.15 42.95Q74.65 43.45 74.65 44.3Q74.65 45.15 74.15 45.65Q73.6 46.1 72.75 46.1L60.55 46.1Q58.6 46.2 57.75 45.5Q56.95 44.8 56.85 43.05L56.85 27.1L55.9 27.95L55 28.2Q54.25 28.15 53.7 27.65Q53.2 27.15 53.15 26.45L53.3 25.8L54 24.7L55.75 22.35L57.5 19.65L59.05 16.2Q59.55 14.85 60.1 14.3Q60.6 13.7 61.35 13.7Q62.1 13.75 62.6 14.3Q63.1 14.85 63.15 15.65L63.05 16.4L62.65 17.5L61.85 19.4L65.35 19.4L66.45 16.75L67.05 15.35M61.85,23.05Q61.15 23.05 60.85 23.35Q60.55 23.65 60.55 24.4L60.55 26.95L64.85 26.95L64.85 23.05L61.85 23.05M48.7,13.5Q49.3 13.45 50 13.85L51.85 15.25L53.7 17.1L55.05 18.7L55.25 19.3L55.35 19.95Q55.35 20.7 54.9 21.15Q54.45 21.6 53.5 21.85L54 22.55L54.1 23.25Q54.1 24 53.65 24.45Q53.15 24.85 52.4 24.9L50.55 24.9L50.55 28.55L53.25 28.55Q54.05 28.6 54.55 29.05Q55 29.55 55.05 30.4Q55 31.2 54.55 31.65Q54.05 32.1 53.25 32.15L50.55 32.15L50.55 40.7L51.35 40.6L51.85 40.5L53.05 40.25L53.8 40.15Q54.4 40.2 54.85 40.7Q55.3 41.2 55.3 41.9Q55.3 42.6 54.75 43.1L53.15 43.95L50.8 44.5L48 45L45.35 45.4L43.55 45.55Q42.65 45.55 42.15 45.05Q41.6 44.55 41.6 43.7L41.85 42.8L42.55 42.2L43.3 42L44.75 41.7L45.65 41.55L46.25 41.45L46.95 41.25L46.95 32.15L43.4 32.15Q42.55 32.1 42.1 31.65Q41.6 31.2 41.6 30.4Q41.6 29.55 42.1 29.05Q42.6 28.6 43.4 28.55L46.95 28.55L46.95 24.9L44.3 24.9Q43.45 24.9 43.05 24.45Q42.6 24 42.6 23.2L42.7 22.65L43 22.05Q42.2 21.8 41.85 21.4Q41.5 20.95 41.55 20.35Q41.55 19.8 41.95 19.3L42.1 19.1L42.75 18.5L44.45 16.95L45.15 16.25L46.3 15Q46.95 14.15 47.5 13.8L48.7 13.5M48.75,18.05L48.3 18.4L47.3 19.45L45.4 21.3L52.4 21.3L50.95 19.65L49.7 18.45L49 18L48.75 18.05M54.95,33.35Q55.35 33.8 55.35 34.55L55.1 36.05L54.35 38L53.45 39.45Q53 39.9 52.45 39.9Q51.8 39.9 51.35 39.45Q50.95 39.05 50.9 38.4L51 37.95L51.35 36.9L52.25 34.35L52.9 33.15Q53.25 32.85 53.85 32.9Q54.55 32.9 54.95 33.35M60.55,34.55L64.85 34.55L64.85 30.5L60.55 30.5L60.55 34.55M44.75,33.35Q45.15 33.8 45.4 34.8L45.75 36.3L46.05 38.05L46.2 39.25Q46.2 40 45.7 40.45Q45.25 40.9 44.5 40.9L43.6 40.65L43.1 39.85L42.75 38.45L42.4 36.75L42.1 35.2L42 34.3Q42 33.7 42.45 33.3Q42.9 32.95 43.65 32.95Q44.35 32.95 44.75 33.35M60.55,41.45Q60.55 42.1 60.8 42.3L61.85 42.45L64.85 42.45L64.85 38.1L60.55 38.1L60.55 41.45M32.75,18.55L31.5 18.35L24.25 18.35L24.25 27.85L32.9 27.85L32.9 19.9Q33 18.85 32.75 18.55M36.4,15.2Q37.25 15.95 37.25 17.55L37.25 41.75L36.95 43.85Q36.7 44.7 36.05 45.15Q35.25 45.75 33.95 46.1L31 46.4Q28.75 46.4 27.7 45.85Q26.65 45.3 26.65 44.2Q26.65 43.2 27.1 42.75Q27.6 42.3 28.6 42.3L31.9 42.45L32.7 42.2L32.9 41.45L32.9 31.8L11.25 31.8L11.25 43.85L11.2 45.1L10.85 45.75L10.1 46.35L9.05 46.55Q7.95 46.6 7.4 45.95Q6.9 45.3 6.9 43.85L6.9 17.55Q6.85 15.95 7.6 15.2Q8.3 14.4 9.85 14.45L33.8 14.45Q35.6 14.45 36.4 15.2M11.5,18.55Q11.25 18.85 11.25 19.75L11.25 27.85L19.9 27.85L19.9 18.35L12.5 18.35Q11.7 18.3 11.5 18.55" />
</g>
</svg>
