<?xml version="1.0" encoding="utf-8"?>
<svg version="1.1" id="Layer_1"
xmlns="http://www.w3.org/2000/svg"
xmlns:xlink="http://www.w3.org/1999/xlink"
xmlns:author="http://www.sothink.com"
width="117px" height="57px"
xml:space="preserve">
<g id="351" transform="matrix(1, 0, 0, 1, 0, 0)">
<path style="fill:#FFFFFF;fill-opacity:0" d="M116.6,56.6L0 56.6L0 0L116.6 0L116.6 56.6" />
<path style="fill:#000080;fill-opacity:1" d="M102.8,19.55L102.45 20.05L107.75 20.05L108.9 20.15Q109.3 20.25 109.55 20.45L110.1 21.15L110.3 22.05Q110.3 23.05 109.7 23.5Q109.1 24 107.85 24L102.45 24L102.45 30.5L107.4 30.5Q108.6 30.5 109.25 31.05Q109.9 31.6 109.9 32.55Q109.9 33.5 109.3 33.9Q108.7 34.35 107.5 34.35L102.45 34.35L102.45 42.05L108.1 42.05Q109.45 42.05 110.15 42.55Q110.8 43.05 110.8 44.05Q110.85 45.05 110.2 45.5L108.1 45.9L91.3 45.9Q90.2 45.9 89.6 45.4Q89 44.85 88.95 43.9Q88.95 43 89.6 42.5Q90.2 42.05 91.5 42.05L98.2 42.05L98.2 34.35L94.25 34.35Q92.65 34.4 91.95 33.9Q91.2 33.45 91.25 32.45Q91.25 31.55 91.9 31Q92.55 30.5 93.7 30.5L98.2 30.5L98.2 24L93.45 24Q91.9 24 91.2 23.5Q90.5 23.05 90.5 21.95Q90.5 21.05 91.15 20.55Q91.8 20.05 93.05 20.05L99.4 20.05L98.9 19.6L98.6 19.25L97.7 18.4L97.2 17.95L95.85 16.8L95.25 16.05L95.15 15.25Q95.15 14.6 95.7 14.15Q96.25 13.7 97 13.65Q97.6 13.65 98.55 14.25L100.9 16.15L102.4 17.75Q102.9 18.45 102.9 19L102.8 19.55M86.45,16.65L86.45 20.25L87.3 20.25Q88.7 20.25 89.3 20.7Q89.95 21.15 89.95 22.15Q89.95 23 89.4 23.5Q88.8 24 87.75 24L86.45 24L86.45 26.15L89.25 29.5L90.45 31.2L90.65 32.15Q90.65 32.95 90.05 33.6Q89.45 34.2 88.7 34.25L88.15 34.15L87.55 33.65L86.45 32.35L86.45 43.65Q86.45 45 86 45.65Q85.5 46.3 84.45 46.3Q83.4 46.3 82.85 45.6Q82.3 44.9 82.3 43.55L82.3 34.95L81.05 36.75L79.95 37.2Q79.1 37.15 78.45 36.55Q77.85 35.95 77.8 35.15L77.9 34.55L78.35 33.6L79.4 31.8L80.75 29.15L81.65 26.7L82.15 24L80.9 24Q79.2 24 78.5 23.6Q77.8 23.15 77.85 22.1Q77.85 21.1 78.4 20.7Q78.95 20.25 80.2 20.25L82.3 20.25L82.3 16.15Q82.3 14.75 82.8 14.05Q83.3 13.35 84.35 13.35L85.05 13.5L85.65 13.85Q86.15 14.2 86.3 14.85L86.45 16.65M68.3,17.45L67.4 18.9L65.4 21.3L68.95 21.3L71.45 21.65Q72.3 22 72.7 22.85Q73.05 23.7 73.05 25.25L73.05 41.75Q73.05 43.55 72.55 44.55Q72.1 45.6 70.9 46.05L67.7 46.45L65.5 46.3L63.6 45.85L62.4 45.25L61.95 44.75L61.8 44.1Q61.8 43.25 62.35 42.7Q62.85 42.15 63.65 42.15L64.7 42.2L66 42.45L66.95 42.6L67.8 42.65L68.65 42.45L68.95 41.75L68.95 37.95L49.9 37.95L49 40.8L48.05 42.9L46.95 44.75L45.75 46Q45.2 46.4 44.6 46.4Q43.8 46.35 43.2 45.8Q42.65 45.25 42.6 44.45L42.65 43.85L43 43.15L43.9 41.8L45.2 39.25Q45.7 37.9 46 35.95L46.45 31.3L46.6 24.8L45 25.5L43.9 25.7Q43.1 25.65 42.55 25.1Q42.05 24.55 42 23.7Q42 23.3 42.15 23L42.6 22.45L42.9 22.2L43.65 21.8L45.15 21L47.6 19.35L49.6 17.4L51.95 14.4L52.85 13.7L53.9 13.45L55 13.7L55.6 14.5L65.3 14.5Q66.9 14.5 67.7 14.95Q68.5 15.45 68.5 16.35L68.3 17.45M61.3,18.25L54.25 18.25L53.3 19.35L52.45 20.15L51.2 21.3L60.15 21.3L61.55 19.9L62.15 19.1L62.3 18.6L62.1 18.35L61.3 18.25M57.45,25.05L51.4 25.05L50.9 25.15L50.65 25.5L50.55 26.25L50.5 27.85L57.45 27.85L57.45 25.05M57.45,31.35L50.5 31.35L50.35 34.2L57.45 34.2L57.45 31.35M68,25.05L61.5 25.05L61.5 27.85L68.95 27.85L68.95 26.05L68.7 25.2L68 25.05M61.5,34.2L68.95 34.2L68.95 31.35L61.5 31.35L61.5 34.2M36.15,15.5Q36.8 16.05 36.8 17.1Q36.8 18.05 36.15 18.55Q35.5 19.1 34.25 19.1L10 19.1Q8.9 19.1 8.25 18.5Q7.6 17.95 7.6 17Q7.6 16.1 8.25 15.5Q8.9 14.95 10 14.95L34.25 14.95Q35.5 14.95 36.15 15.5M10.35,27.15Q11 26.65 12.15 26.65L31.65 26.65Q32.9 26.65 33.6 27.15Q34.25 27.7 34.25 28.7Q34.25 29.7 33.6 30.2Q32.95 30.7 31.65 30.7L12.15 30.7Q11.05 30.7 10.4 30.15Q9.75 29.6 9.75 28.65Q9.75 27.65 10.35 27.15M5.95,42.65Q5.95 41.7 6.55 41.2Q7.15 40.7 8.25 40.7L36.1 40.7Q37.3 40.7 37.95 41.25Q38.6 41.8 38.6 42.75Q38.6 43.75 38 44.25Q37.35 44.75 36.1 44.75L8.25 44.75Q7.2 44.75 6.6 44.2Q5.95 43.6 5.95 42.65" />
</g>
</svg>
