<?xml version="1.0" encoding="utf-8"?>
<svg version="1.1" id="Layer_1"
xmlns="http://www.w3.org/2000/svg"
xmlns:xlink="http://www.w3.org/1999/xlink"
xmlns:author="http://www.sothink.com"
width="44px" height="644px"
xml:space="preserve">
<g id="21" transform="matrix(1, 0, 0, 1, -227.35, -30.6)">
<path style="fill:none;stroke-width:1.85;stroke-linecap:butt;stroke-linejoin:miter;stroke-miterlimit:4;stroke:#EA5532;stroke-opacity:1" d="M270.1,38.65L270.1 672.95" />
<path style="fill:#FFFFFF;fill-opacity:1" d="M260.2,58.7Q259.7 61.4 258.7 62.25Q257.5 63.45 255.3 63.45L232.15 63.45Q229.9 63.45 228.75 62.1Q227.35 60.75 227.35 58.7L227.35 35.35Q227.35 30.6 232.15 30.6L255.3 30.6Q257.5 30.6 258.85 31.95Q260.2 33.15 260.2 35.35L260.2 58.7" />
<path style="fill:#000000;fill-opacity:1" d="M260.2,58.7Q259.7 61.4 258.7 62.25Q257.5 63.45 255.3 63.45L232.15 63.45Q229.9 63.45 228.75 62.1Q227.35 60.75 227.35 58.7L227.35 35.35Q227.35 30.6 232.15 30.6L255.3 30.6Q257.5 30.6 258.85 31.95Q260.2 33.15 260.2 35.35L260.2 58.7M237.9,53.2Q238.4 55.1 239.75 56.1Q241.15 57.3 243.85 57.3Q249.8 57.3 249.8 52.35Q249.8 47.6 243.35 47.6L240.8 47.8L240.8 45.2L243 45.4L246.4 44.9Q248.95 43.7 248.95 40.65Q248.95 36.55 244.05 36.55Q241.8 36.55 240.3 37.75Q239.45 38.6 238.9 40.45L236.05 39.95Q236.7 37.9 237.55 36.9Q239.6 34.35 244.2 34.35Q247.6 34.35 249.65 36.05Q251.7 37.75 251.7 40.65Q251.7 43.85 249.45 45.4Q248.1 46.25 246.4 46.4Q248.95 46.6 250.3 47.8Q252.55 49.3 252.55 52.7Q252.55 55.95 250.3 57.8Q247.95 59.7 243.85 59.7Q239.1 59.7 236.7 56.95Q236.05 56.3 235 53.9L237.9 53.2M232.65,31.8Q228.55 31.8 228.55 35.9L228.55 58.15Q228.55 62.25 232.65 62.25L254.95 62.25Q259.05 62.25 259.05 58.15L259.05 35.9Q259.05 31.8 254.95 31.8L232.65 31.8" />
</g>
</svg>
