<?xml version="1.0" encoding="utf-8"?>
<svg version="1.1" id="Layer_1"
xmlns="http://www.w3.org/2000/svg"
xmlns:xlink="http://www.w3.org/1999/xlink"
xmlns:author="http://www.sothink.com"
width="19px" height="25px"
xml:space="preserve">
<g id="10" transform="matrix(1, 0, 0, 1, 13.35, 15)">
<path style="fill:#B5B5B6;fill-opacity:1" d="M4.7,3.4L2.5 9Q2.3 9.8 1.75 9.75L-0.95 9.85Q-1.6 9.8 -1.75 9.1L-3.8 3.3L-4.05 -3.65L4.8 -3.85L4.7 3.4" />
<path style="fill:none;stroke-width:0.15;stroke-linecap:butt;stroke-linejoin:miter;stroke-miterlimit:4;stroke:#000000;stroke-opacity:1" d="M4.8,-3.85L-4.05 -3.65L-3.8 3.3L-1.75 9.1Q-1.6 9.8 -0.95 9.85L1.75 9.75Q2.3 9.8 2.5 9L4.7 3.4L4.8 -3.85z" />
<path style="fill:#B5B5B6;fill-opacity:1" d="M-2.25,-14.8L2.15 -14.95L2.35 -5.45L-2.1 -5.4L-2.25 -14.8" />
<path style="fill:none;stroke-width:0.15;stroke-linecap:square;stroke-linejoin:miter;stroke-miterlimit:4;stroke:#000000;stroke-opacity:1" d="M-2.1,-5.4L2.35 -5.45L2.15 -14.95L-2.25 -14.8L-2.1 -5.4z" />
<path style="fill:none;stroke-width:0.15;stroke-linecap:square;stroke-linejoin:miter;stroke-miterlimit:4;stroke:#595757;stroke-opacity:1" d="M2,-14.85L2.2 -5.55" />
<path style="fill:none;stroke-width:0.15;stroke-linecap:square;stroke-linejoin:miter;stroke-miterlimit:4;stroke:#000000;stroke-opacity:1" d="M1.85,-14.85L2.05 -5.55" />
<path style="fill:none;stroke-width:0.1;stroke-linecap:square;stroke-linejoin:miter;stroke-miterlimit:4;stroke:#595757;stroke-opacity:1" d="M1.65,-14.85L1.85 -5.45" />
<path style="fill:none;stroke-width:0.1;stroke-linecap:square;stroke-linejoin:miter;stroke-miterlimit:4;stroke:#595757;stroke-opacity:1" d="M1.4,-14.85L1.65 -5.5" />
<path style="fill:#FFFFFF;fill-opacity:1" d="M-0.6,-0.55L0.2 -0.85L0.9 -0.55L1.15 0.15L0.95 0.85Q0.65 1.2 0.2 1.15Q-0.8 1.15 -0.8 0.2L-0.6 -0.55" />
<path style="fill:none;stroke-width:0.25;stroke-linecap:butt;stroke-linejoin:miter;stroke-miterlimit:4;stroke:#000000;stroke-opacity:1" d="M-0.8,0.2Q-0.8 1.15 0.2 1.15Q0.65 1.2 0.95 0.85L1.15 0.15L0.9 -0.55L0.2 -0.85L-0.6 -0.55L-0.8 0.2z" />
<path style="fill:none;stroke-width:0.15;stroke-linecap:butt;stroke-linejoin:miter;stroke-miterlimit:4;stroke:#000000;stroke-opacity:1" d="M-1.45,0.2Q-1.45 0.9 -0.95 1.35Q-0.45 1.8 0.25 1.85Q0.9 1.8 1.4 1.3Q1.9 0.85 1.9 0.1Q1.85 -0.6 1.4 -1.05Q0.85 -1.55 0.2 -1.5Q-0.5 -1.45 -1 -0.95Q-1.45 -0.5 -1.45 0.2z" />
<path style="fill:#C9CACA;fill-opacity:1" d="M-1.1,-3.75L-1.15 -5.4L1.5 -5.4L1.5 -3.8L-1.1 -3.75" />
<path style="fill:none;stroke-width:0.15;stroke-linecap:square;stroke-linejoin:miter;stroke-miterlimit:4;stroke:#000000;stroke-opacity:1" d="M-1.1,-3.75L-1.15 -5.4L1.5 -5.4L1.5 -3.8L-1.1 -3.75z" />
</g>
</svg>
