<?xml version="1.0" encoding="utf-8"?>
<svg version="1.1" id="Layer_1"
xmlns="http://www.w3.org/2000/svg"
xmlns:xlink="http://www.w3.org/1999/xlink"
xmlns:author="http://www.sothink.com"
width="111px" height="48px"
xml:space="preserve">
<g id="6" transform="matrix(1, 0, 0, 1, -77.15, -80.95)">
<path style="fill:#F29B8F;fill-opacity:1" d="M77.15,83.35Q77.15 81.65 78.7 81.65Q88.2 81.65 95 88.45Q98.45 91.85 100.15 95.95Q101.65 91.85 105.05 88.45Q111.85 81.65 121.4 81.65Q130.95 81.65 137.55 88.45Q141 91.85 142.7 95.8Q144.4 91.7 147.6 88.45Q154.4 81.65 163.95 81.65Q173.5 81.65 180.1 88.45Q186.95 95.25 186.95 104.65Q186.95 106.35 185.25 106.35Q183.55 106.35 183.55 104.65Q183.55 96.65 177.75 90.85Q171.95 85.05 163.95 85.05Q155.8 85.05 150 90.85Q144.55 96.65 144.4 104.45L144.4 104.65Q144.4 105.3 143.85 105.85L142.7 106.35Q142 106.35 141.5 105.85Q141 105.3 141 104.65L141 104.45Q140.8 96.45 135.2 90.85Q129.4 85.05 121.4 85.05Q113.25 85.05 107.45 90.85Q101.85 96.45 101.85 104.65L101.3 105.85Q100.8 106.35 100.15 106.35Q99.3 106.35 98.95 105.85Q98.45 105.3 98.45 104.65L98.45 104.45Q98.25 96.45 92.65 90.85Q86.85 85.05 78.7 85.05Q77.15 85.05 77.15 83.35" />
<path style="fill:#F29B8F;fill-opacity:1" d="M147.25,121.3Q140.3 114.35 140.3 104.65Q140.3 94.75 147.25 87.95Q154.25 80.95 163.95 80.95Q173.85 80.95 180.65 87.95Q187.6 94.75 187.6 104.65Q187.6 114.35 180.65 121.3Q173.85 128.3 163.95 128.3Q154.25 128.3 147.25 121.3" />
</g>
</svg>
