<?xml version="1.0" encoding="utf-8"?>
<svg version="1.1" id="Layer_1"
xmlns="http://www.w3.org/2000/svg"
xmlns:xlink="http://www.w3.org/1999/xlink"
xmlns:author="http://www.sothink.com"
width="33px" height="33px"
xml:space="preserve">
<g id="19" transform="matrix(1, 0, 0, 1, -342.1, -584.45)">
<path style="fill:#FFFFFF;fill-opacity:1" d="M374.95,612.55Q374.45 615.25 373.4 616.1Q372.2 617.3 370 617.3L346.85 617.3Q344.65 617.3 343.45 615.95Q342.1 614.6 342.1 612.55L342.1 589.2Q342.1 584.45 346.85 584.45L370 584.45Q372.2 584.45 373.6 585.8Q374.95 587 374.95 589.2L374.95 612.55" />
<path style="fill:#000000;fill-opacity:1" d="M374.95,612.55Q374.45 615.25 373.4 616.1Q372.2 617.3 370 617.3L346.85 617.3Q344.65 617.3 343.45 615.95Q342.1 614.6 342.1 612.55L342.1 589.2Q342.1 584.45 346.85 584.45L370 584.45Q372.2 584.45 373.6 585.8Q374.95 587 374.95 589.2L374.95 612.55M347.35,585.65Q343.3 585.65 343.3 589.75L343.3 612Q343.3 616.1 347.35 616.1L369.65 616.1Q373.75 616.1 373.75 612L373.75 589.75Q373.75 585.65 369.65 585.65L347.35 585.65M350.1,612.7Q350.45 610.15 351.1 608.6Q352.8 605.05 355.9 602.65L360.3 599.45Q363.7 596.9 363.7 594.65Q363.7 590.75 358.75 590.75Q355.7 590.75 354.35 592.8Q353.65 593.65 353.15 595.85L350.45 595.5Q351.1 592.6 352.5 590.9Q354.5 588.55 358.75 588.55Q362.2 588.55 364.4 590.25Q366.45 591.95 366.45 594.65Q366.45 597.2 364.4 599.25L356.4 605.2Q354 607.25 353.35 610.3L366.75 610.15L366.75 612.7L353.65 612.55L350.1 612.7" />
</g>
</svg>
