<?xml version="1.0" encoding="utf-8"?>
<svg version="1.1" id="Layer_1"
xmlns="http://www.w3.org/2000/svg"
xmlns:xlink="http://www.w3.org/1999/xlink"
xmlns:author="http://www.sothink.com"
width="14px" height="77px"
xml:space="preserve">
<g id="8" transform="matrix(1, 0, 0, 1, 4.95, 76.2)">
<path style="fill:#FDEFF5;fill-opacity:1" d="M5.85,-43.75L3.95 -43.8L2.85 -44.55L3.95 -45.75L5.9 -45.6L6.95 -44.6Q6.4 -44.1 5.85 -43.75" />
<path style="fill:#B5B5B6;fill-opacity:1" d="M6.1,-36.5L6.45 -36.05L6.4 -35.85L3.95 -35.55Q1.55 -35.85 1.55 -36.65Q1.6 -36.9 2.1 -36.9L6.1 -36.5" />
<path style="fill:none;stroke-width:0.2;stroke-linecap:butt;stroke-linejoin:miter;stroke-miterlimit:4;stroke:#000000;stroke-opacity:1" d="M2.1,-36.9Q1.6 -36.9 1.55 -36.65Q1.55 -35.85 3.95 -35.55L6.4 -35.85L6.45 -36.05L6.1 -36.5" />
<path style="fill:#B5B5B6;fill-opacity:1" d="M-3.3,-30.6L-3.4 -75.1L0.8 -76.1L0.65 -30.65L-3.3 -30.6" />
<path style="fill:none;stroke-width:0.2;stroke-linecap:butt;stroke-linejoin:miter;stroke-miterlimit:4;stroke:#000000;stroke-opacity:1" d="M0.8,-76.1L0.65 -30.65L-3.3 -30.6L-3.4 -75.1" />
<path style="fill:#BEDFC2;fill-opacity:1" d="M-1.25,-6.75L2.8 -44.75L3.95 -43.8L5.85 -43.75L6.9 -44.5L2.85 -6.3L0.1 0L-1.25 -6.75" />
<path style="fill:#FDEFF5;fill-opacity:1" d="M2.95,-7.5L2.85 -6.3L0.1 0L-1.25 -6.75L-1.1 -6.7L-0.35 -7.5L0.05 -8.25Q0.2 -6.15 0.4 -6.15L1.6 -7.7L2.2 -6.15Q2.75 -6.75 2.95 -7.5" />
<path style="fill:none;stroke-width:0.2;stroke-linecap:round;stroke-linejoin:miter;stroke-miterlimit:4;stroke:#000000;stroke-opacity:1" d="M2.95,-7.5Q2.75 -6.75 2.2 -6.15L1.6 -7.7L0.4 -6.15Q0.2 -6.15 0.05 -8.25L-0.35 -7.5L-1.1 -6.7L-1.25 -6.9L-1.25 -6.75L0.1 0L2.85 -6.3L2.95 -7.5L6.9 -44.5L5.9 -45.6L3.95 -45.75L2.8 -44.75L-1.25 -6.9" />
<path style="fill:none;stroke-width:0.15;stroke-linecap:butt;stroke-linejoin:miter;stroke-miterlimit:4;stroke:#000000;stroke-opacity:1" d="M1.8,-7.2L5.85 -43.75M3.95,-43.8L0.05 -8.25" />
<path style="fill:#000000;fill-opacity:1" d="M-0.25,-1.85L0.8 -1.45L0.1 0L-0.25 -1.85" />
<path style="fill:#B5B5B6;fill-opacity:1" d="M0.2,-23.3L0.55 -26.5L0 -27L-1.5 -27.15Q-5.15 -27.5 -4.8 -30.2Q-4.45 -32.9 -0.9 -32.4L0.55 -32.25L1.1 -32.85L1.55 -36.6L1.55 -36.65Q1.55 -35.85 3.95 -35.55L6.4 -35.85L6.45 -36.05L6.5 -36.05L5.05 -22.7L4.25 -22.1L2.45 -21.95Q0 -22.25 0.15 -23.1L0.2 -23.3" />
<path style="fill:none;stroke-width:0.2;stroke-linecap:butt;stroke-linejoin:miter;stroke-miterlimit:4;stroke:#000000;stroke-opacity:1" d="M0.2,-23.3L0.55 -26.5L0 -27L-1.5 -27.15Q-5.15 -27.5 -4.8 -30.2Q-4.45 -32.9 -0.9 -32.4L0.55 -32.25L1.1 -32.85L1.55 -36.6L1.55 -36.65Q1.55 -35.85 3.95 -35.55L6.4 -35.85L6.45 -36.05L6.5 -36.05L5.05 -22.7L4.25 -22.1L2.45 -21.95Q0 -22.25 0.15 -23.1L0.2 -23.3z" />
<path style="fill:#C9CACA;fill-opacity:1" d="M5.9,-30.2L6.7 -30.1L6.5 -28.05L5.65 -28.15L5.9 -30.2" />
<path style="fill:#B5B5B6;fill-opacity:1" d="M6.9,-31.8Q6.95 -32.5 7.7 -32.4Q8.3 -32.35 8.25 -31.7L7.6 -26Q7.55 -25.4 6.85 -25.4Q6.2 -25.5 6.25 -26.15L6.9 -31.8" />
<path style="fill:none;stroke-width:0.2;stroke-linecap:butt;stroke-linejoin:miter;stroke-miterlimit:4;stroke:#000000;stroke-opacity:1" d="M6.25,-26.15Q6.2 -25.5 6.85 -25.4Q7.55 -25.4 7.6 -26L8.25 -31.7Q8.3 -32.35 7.7 -32.4Q6.95 -32.5 6.9 -31.8L6.25 -26.15z" />
<path style="fill:none;stroke-width:0.2;stroke-linecap:butt;stroke-linejoin:miter;stroke-miterlimit:4;stroke:#595757;stroke-opacity:1" d="M5.9,-30.2L6.7 -30.1" />
<path style="fill:none;stroke-width:0.2;stroke-linecap:butt;stroke-linejoin:miter;stroke-miterlimit:4;stroke:#595757;stroke-opacity:1" d="M5.65,-28.15L6.5 -28.05" />
<path style="fill:#595757;fill-opacity:1" d="M-3.35,-31.05L-2.2 -31.3Q-1.6 -31.25 -1.15 -30.8Q-0.8 -30.35 -0.9 -29.7Q-1 -29.1 -1.45 -28.7Q-1.9 -28.3 -2.55 -28.35L-3.6 -28.95Q-4 -29.4 -3.95 -30Q-3.85 -30.65 -3.35 -31.05" />
<path style="fill:none;stroke-width:0.2;stroke-linecap:butt;stroke-linejoin:miter;stroke-miterlimit:4;stroke:#000000;stroke-opacity:1" d="M-3.95,-30Q-4 -29.4 -3.6 -28.95L-2.55 -28.35Q-1.9 -28.3 -1.45 -28.7Q-1 -29.1 -0.9 -29.7Q-0.8 -30.35 -1.15 -30.8Q-1.6 -31.25 -2.2 -31.3L-3.35 -31.05Q-3.85 -30.65 -3.95 -30z" />
<path style="fill:#000000;fill-opacity:1" d="M4.75,-44.3Q4.1 -44.35 4.1 -44.7Q4.1 -45.15 4.75 -45.1Q5.35 -45.05 5.4 -44.65Q5.3 -44.3 4.75 -44.3" />
<path style="fill:none;stroke-width:0.2;stroke-linecap:butt;stroke-linejoin:miter;stroke-miterlimit:4;stroke:#000000;stroke-opacity:1" d="M2.85,-44.55L3.95 -43.8L5.85 -43.75Q6.4 -44.1 6.95 -44.6" />
</g>
</svg>
