<?xml version="1.0" encoding="utf-8"?>
<svg version="1.1" id="Layer_1"
xmlns="http://www.w3.org/2000/svg"
xmlns:xlink="http://www.w3.org/1999/xlink"
xmlns:author="http://www.sothink.com"
width="34px" height="34px"
xml:space="preserve">
<g id="4" transform="matrix(1, 0, 0, 1, -147.65, -365.75)">
<path style="fill:#000000;fill-opacity:1" d="M153.05,366.95Q148.8 366.95 148.8 371.2L148.8 394.35Q148.8 398.45 153.05 398.45L176.05 398.45Q180.3 398.45 180.3 394.35L180.3 371.2Q180.3 366.95 176.05 366.95L153.05 366.95M181.5,394.7Q181 397.6 179.8 398.6Q178.6 399.6 176.55 399.6L152.55 399.6Q147.65 399.6 147.65 394.7L147.65 370.7Q147.65 365.75 152.55 365.75L176.55 365.75Q178.75 365.75 180.15 367.1Q181.5 368.5 181.5 370.7L181.5 394.7M155.95,395.05Q156.3 392.3 157 390.8Q158.2 387.55 161.75 384.5L166.5 381.25Q169.9 378.7 169.9 376.3Q169.9 372.4 164.8 372.4Q161.6 372.4 160.2 374.45Q159.55 375.3 159.05 377.65L156.3 377.15Q157 374.25 158.35 372.55Q160.4 370 164.8 370Q168.4 370 170.6 371.7Q172.65 373.4 172.65 376.3Q172.65 379.05 170.6 381.05L167.35 383.65L162.45 387.2Q160.05 389.4 159.2 392.5L169.25 392.5L173 392.3L173 395.05L159.55 394.85L155.95 395.05" />
</g>
</svg>
