<?xml version="1.0" encoding="utf-8"?>
<svg version="1.1" id="Layer_1"
xmlns="http://www.w3.org/2000/svg"
xmlns:xlink="http://www.w3.org/1999/xlink"
xmlns:author="http://www.sothink.com"
width="33px" height="33px"
xml:space="preserve">
<g id="13" transform="matrix(1, 0, 0, 1, -49.9, -261.6)">
<path style="fill:#FFFFFF;fill-opacity:1" d="M82.7,289.7Q82.2 292.4 81.2 293.25Q80 294.45 77.95 294.45L54.65 294.45Q52.45 294.45 51.25 293.1Q49.9 291.75 49.9 289.7L49.9 266.35Q49.9 261.6 54.65 261.6L77.95 261.6Q80 261.6 81.35 262.95Q82.7 264.15 82.7 266.35L82.7 289.7" />
<path style="fill:#000000;fill-opacity:1" d="M55.15,262.8Q51.05 262.8 51.05 266.9L51.05 289.15Q51.05 293.25 55.15 293.25L77.45 293.25Q81.55 293.25 81.55 289.15L81.55 266.9Q81.55 262.8 77.45 262.8L55.15 262.8M82.7,289.7Q82.2 292.4 81.2 293.25Q80 294.45 77.95 294.45L54.65 294.45Q52.45 294.45 51.25 293.1Q49.9 291.75 49.9 289.7L49.9 266.35Q49.9 261.6 54.65 261.6L77.95 261.6Q80 261.6 81.35 262.95Q82.7 264.15 82.7 266.35L82.7 289.7M61.1,266.35L65.7 266.55L68.25 266.35L67.9 286.45L68.25 289.85L65.2 289.85L65.35 268.75L63.85 268.75L61.1 268.9L61.1 266.35" />
</g>
</svg>
