<?xml version="1.0" encoding="utf-8"?>
<svg version="1.1" id="Layer_1"
xmlns="http://www.w3.org/2000/svg"
xmlns:xlink="http://www.w3.org/1999/xlink"
xmlns:author="http://www.sothink.com"
width="541px" height="712px"
xml:space="preserve">
<g id="7" transform="matrix(1, 0, 0, 1, 0, 0)">
<path style="fill:#ECF5FC;fill-opacity:1" d="M540.35,711.6L0 711.6L0 0L540.35 0L540.35 711.6" />
<path style="fill:none;stroke-width:2.85;stroke-linecap:butt;stroke-linejoin:miter;stroke-miterlimit:4;stroke:#000000;stroke-opacity:1" d="M38.65,362.55L501.75 362.55" />
<path style="fill:#000000;fill-opacity:1" d="M275.05,116.1Q275.05 117.95 273.7 119.5Q272.15 120.85 270.1 120.85Q268.25 120.85 266.7 119.5Q265.35 117.95 265.35 116.1Q265.35 114.05 266.7 112.7Q268.25 111.15 270.1 111.15Q272.15 111.15 273.7 112.7Q275.05 114.05 275.05 116.1" />
<path style="fill:none;stroke-width:0.3;stroke-linecap:butt;stroke-linejoin:miter;stroke-miterlimit:4;stroke:#000000;stroke-opacity:1" d="M275.05,116.1Q275.05 117.95 273.7 119.5Q272.15 120.85 270.1 120.85Q268.25 120.85 266.7 119.5Q265.35 117.95 265.35 116.1Q265.35 114.05 266.7 112.7Q268.25 111.15 270.1 111.15Q272.15 111.15 273.7 112.7Q275.05 114.05 275.05 116.1z" />
</g>
</svg>
