<?xml version="1.0" encoding="utf-8"?>
<svg version="1.1" id="Layer_1"
xmlns="http://www.w3.org/2000/svg"
xmlns:xlink="http://www.w3.org/1999/xlink"
xmlns:author="http://www.sothink.com"
width="34px" height="35px"
xml:space="preserve">
<g id="3" transform="matrix(1, 0, 0, 1, -147.65, -228.25)">
<path style="fill:#000000;fill-opacity:1" d="M153.05,229.45Q148.8 229.45 148.8 233.7L148.8 256.85Q148.8 261.1 153.05 261.1L176.05 261.1Q180.3 261.1 180.3 256.85L180.3 233.7Q180.3 229.45 176.05 229.45L153.05 229.45M181.5,257.35Q181 260.25 179.8 261.1Q178.25 262.3 176.55 262.3L152.55 262.3Q147.65 262.3 147.65 257.2L147.65 233.2Q147.65 228.25 152.55 228.25L176.55 228.25Q178.75 228.25 180.15 229.6Q181.5 230.95 181.5 233.2L181.5 257.35M159.2,233.2L163.8 233.35L166.5 233.2L166.2 253.95L166.5 257.5L163.3 257.5L163.65 253.95L163.65 235.75L161.9 235.75L159.2 235.9L159.2 233.2" />
</g>
</svg>
