<?xml version="1.0" encoding="utf-8"?>
<svg version="1.1" id="Layer_1"
xmlns="http://www.w3.org/2000/svg"
xmlns:xlink="http://www.w3.org/1999/xlink"
xmlns:author="http://www.sothink.com"
width="276px" height="356px"
xml:space="preserve">
<g id="17" transform="matrix(1, 0, 0, 1, -49.9, -261.6)">
<path style="fill:#FFFFFF;fill-opacity:1" d="M82.7,289.7Q82.2 292.4 81.2 293.25Q80 294.45 77.95 294.45L54.65 294.45Q52.45 294.45 51.25 293.1Q49.9 291.75 49.9 289.7L49.9 266.35Q49.9 261.6 54.65 261.6L77.95 261.6Q80 261.6 81.35 262.95Q82.7 264.15 82.7 266.35L82.7 289.7" />
<path style="fill:#000000;fill-opacity:1" d="M82.7,289.7Q82.2 292.4 81.2 293.25Q80 294.45 77.95 294.45L54.65 294.45Q52.45 294.45 51.25 293.1Q49.9 291.75 49.9 289.7L49.9 266.35Q49.9 261.6 54.65 261.6L77.95 261.6Q80 261.6 81.35 262.95Q82.7 264.15 82.7 266.35L82.7 289.7M55.15,262.8Q51.05 262.8 51.05 266.9L51.05 289.15Q51.05 293.25 55.15 293.25L77.45 293.25Q81.55 293.25 81.55 289.15L81.55 266.9Q81.55 262.8 77.45 262.8L55.15 262.8M61.1,266.35L65.7 266.55L68.25 266.35L67.9 286.45L68.25 289.85L65.2 289.85L65.35 268.75L63.85 268.75L61.1 268.9L61.1 266.35" />
<path style="fill:none;stroke-width:1.85;stroke-linecap:butt;stroke-linejoin:miter;stroke-miterlimit:4;stroke:#00A0E9;stroke-opacity:1" d="M324.75,519.45Q302.6 545.3 274.35 564.2L270.25 566.9Q243.2 583.95 212.75 593.45" />
<path style="fill:#FFFFFF;fill-opacity:1" d="M201.5,612.55Q201 615.25 200 616.1Q198.8 617.3 196.6 617.3L173.45 617.3Q171.2 617.3 170.05 615.95Q168.65 614.6 168.65 612.55L168.65 589.2Q168.65 584.45 173.45 584.45L196.6 584.45Q198.8 584.45 200.15 585.8Q201.5 587 201.5 589.2L201.5 612.55" />
<path style="fill:#000000;fill-opacity:1" d="M201.5,612.55Q201 615.25 200 616.1Q198.8 617.3 196.6 617.3L173.45 617.3Q171.2 617.3 170.05 615.95Q168.65 614.6 168.65 612.55L168.65 589.2Q168.65 584.45 173.45 584.45L196.6 584.45Q198.8 584.45 200.15 585.8Q201.5 587 201.5 589.2L201.5 612.55M173.95,585.65Q169.85 585.65 169.85 589.75L169.85 612Q169.85 616.1 173.95 616.1L196.25 616.1Q200.35 616.1 200.35 612L200.35 589.75Q200.35 585.65 196.25 585.65L173.95 585.65M177.7,608.6Q179.4 605.05 182.45 602.65Q183.3 601.8 186.9 599.45Q190.3 596.9 190.3 594.65Q190.3 590.75 185.35 590.75Q182.3 590.75 180.9 592.8Q180.25 593.65 179.75 595.85L177.2 595.5Q177.5 592.6 179.05 590.9Q181.1 588.55 185.35 588.55Q188.75 588.55 190.95 590.25Q193 591.95 193 594.65Q193 597.2 190.95 599.25Q187.05 602.3 182.95 605.2Q180.6 607.25 179.9 610.3L193.35 610.15L193.35 612.7L176.65 612.7Q177.35 609.3 177.7 608.6" />
</g>
</svg>
