<?xml version="1.0" encoding="utf-8"?>
<svg version="1.1" id="Layer_1"
xmlns="http://www.w3.org/2000/svg"
xmlns:xlink="http://www.w3.org/1999/xlink"
xmlns:author="http://www.sothink.com"
width="109px" height="14px"
xml:space="preserve">
<g id="PathID_123" transform="matrix(0.0107353, 0, 0, 0.0107353, -23.2, 11.4)">
<path style="fill:#000000;fill-opacity:1" d="" />
</g>
<g id="PathID_124" transform="matrix(0.0107353, 0, 0, 0.0107353, -12.25, 11.4)">
<path style="fill:#000000;fill-opacity:1" d="" />
</g>
<g id="PathID_125" transform="matrix(0.0107353, 0, 0, 0.0107353, -1.3, 11.4)">
<path style="fill:#000000;fill-opacity:1" d="M198.5 -410.5l624 0l0 360.5q0 7 -3 9.5q-3.5 3 -12.5 2.5l-1.5 0l-2.5 0l-77.5 -4l-44.5 -2.5l-29.5 -1.5l-31 -2l-1 17.5q7.5 1.5 16 2.5l15.5 1.5q15.5 1.5 23.5 3l8.5 1q20.5 3 34.5 7q13.5 4 21 9.5q12 9 19.5 21.5q7 12.5 12 34q53 -10 80.5 -19.5q27 -9 36.5 -23q9 -14 9 -37.5l0 -113.5l-1 -116l0 -476.5q21 -14.5 27 -20q6.5 -5.5 6 -9.5q0 -3 -3 -7q-2.5 -3.5 -8.5 -9.5l-33 -27q-13 -10 -32.5 -24l-21 24.5q-7.5 10 -18 26.5l-603.5 0q-16.5 -12 -28.5 -19.5q-12 -8 -24.5 -15q-12.5 -7.5 -31.5 -17.5l1.5 37q0.5 14.5 0.5 35l0 61q0 115 -0.5 243l-2 256.5q-1 128 -2.5 242q-0.5 10 5 14q5.5 3.5 18.5 3.5q30.5 0 43 -5q12 -4.5 12 -17.5q-0.5 -49 -0.5 -79q-0.5 -30.5 -0.5 -52l0 -45l0 -59.5l0 -210M541.5 -434l0 -325l281 0l0 325l-281 0M469 -434l-270.5 0l0 -325l270.5 0l0 325" />
</g>
<g id="PathID_126" transform="matrix(0.0107353, 0, 0, 0.0107353, 9.65, 11.4)">
<path style="fill:#000000;fill-opacity:1" d="M148.5 -665.5q23 30 45 47.5q22 17 47.5 24.5q25.5 7 60 7l29.5 -1q14.5 -1.5 39 -5q-36 54 -65.5 93q-29.5 38.5 -59.5 68.5q-29.5 30 -65.5 58.5q-14 11 -20.5 17.5q-6 6 -8 12q-1.5 6 -1 16.5q0 24.5 7.5 39.5q7.5 14.5 20 14.5q7.5 0.5 15.5 -6.5q8.5 -6.5 22.5 -26q56 -71 113.5 -109.5q57 -38.5 108.5 -39q17.5 0 31 8.5q14 8 21.5 22q7.5 15.5 10.5 32.5q3 17.5 3.5 48.5q-49.5 31 -78.5 51.5q-29.5 21 -48.5 39.5q-37.5 36 -55.5 70q-18 34.5 -18 70.5q0 37 18 63.5q18.5 26.5 57.5 45q31 14.5 83.5 22q52 7.5 124.5 7.5q32.5 0 66.5 -2l65 -5q30.5 -3 52 -7.5q15.5 -3 23.5 -10q8.5 -7.5 8.5 -17.5q-0.5 -11.5 -11.5 -23.5q-11 -11.5 -27.5 -19.5q-16.5 -8 -33 -8l-9 0.5l-10.5 2.5q-47 13.5 -99.5 21q-52.5 7.5 -106.5 7.5q-86 0 -128.5 -20q-42.5 -20.5 -42.5 -62q0 -23 12.5 -46.5q12.5 -24 38 -48.5q19 -18.5 46 -37q27 -18.5 73.5 -44q-0.5 34 -2.5 60.5q-1.5 27 -4.5 49q-1 5.5 -1 9.5l0 8q0 13.5 9 22q9 8.5 23.5 8.5q9.5 0 17 -5.5q8 -5 12 -13.5q3.5 -8 6 -31q2 -22.5 2 -57l0 -34q0 -12.5 -0.5 -23q0 -10.5 -0.5 -26q41 -20.5 93 -42q52 -21.5 101 -38.5q49 -17.5 80.5 -25q21.5 -4.5 29.5 -11q8 -7 7.5 -20.5q-1 -21.5 -20 -45q-19 -24 -45.5 -41q-26.5 -16.5 -50 -17.5l-10.5 1q-5 1.5 -13 5q22.5 9.5 34.5 22.5q12.5 12.5 12.5 25.5q0.5 9 -10 19.5q-11 10 -38.5 25.5q-27.5 16 -77.5 41q-41 20.5 -59.5 30q-18 9.5 -26 13q-7.5 3.5 -15 7.5q-7.5 -47 -38.5 -74.5q-30.5 -27.5 -76.5 -28q-28 0 -59 9.5q-30.5 9.5 -73 31.5l17 -24l16 -24l22.5 -34q17 -26 29 -43.5q12 -18 25 -36.5q41 -8 74.5 -15.5q34 -8 69 -18q35 -10 80 -24.5q23 -8 33.5 -16q10.5 -8 10.5 -17q-0.5 -15 -19.5 -24q-18.5 -9.5 -49 -10q-5.5 0 -10 2q-5 1.5 -9.5 5.5q-16.5 14 -34.5 24q-17.5 10.5 -44 20q-26.5 9.5 -69 21.5l8.5 -12.5l17 -27.5l14.5 -20.5q8 -12 15 -21.5q9 -11 13 -18q3.5 -6.5 3.5 -11.5q0 -9.5 -9 -18q-8.5 -8.5 -28 -16q-20 -8.5 -41 -13q-20.5 -4.5 -38.5 -4.5q-14 0 -24 2.5q-10 2 -22.5 9q39.5 9.5 56.5 23q17 14 16.5 34q0 17.5 -9.5 44.5q-9.5 27 -26.5 60q-34.5 7 -60 10.5q-25.5 3 -49.5 3q-27 0 -46.5 -4q-20 -4 -38.5 -14.5q-19 -10.5 -43 -29.5l-11 9" />
</g>
<g id="PathID_127" transform="matrix(0.0107353, 0, 0, 0.0107353, 20.6, 11.4)">
<path style="fill:#000000;fill-opacity:1" d="M292 -436q-16 34.5 -25.5 55.5q-9.5 21 -17 36.5l-16.5 32.5q-8.5 17.5 -23 45.5q-22.5 41.5 -41.5 72.5q-19 31 -34.5 48q-14.5 16.5 -19 27.5q-5 11 -4.5 30q0.5 33 8 52q8 18.5 22 18.5q7 0 13 -4.5q6 -5 11.5 -15q12.5 -22 36.5 -74q23.5 -51.5 54.5 -124.5q27 -63.5 42 -99.5l18.5 -43.5q16.5 -39 26.5 -61l14.5 -35l9.5 -22q3.5 -9 9 -21.5q28.5 -8.5 47 -13.5q18 -4.5 31.5 -6.5l28.5 -1.5q40.5 -0.5 57 21q16.5 21.5 16 72.5q0 39.5 -7.5 87q-8 48 -21.5 96.5q-13.5 49 -31.5 91.5q-19.5 47.5 -34.5 67q-15 19.5 -32 19q-16.5 0 -58 -18.5q-41 -18 -100.5 -52l-9.5 13q53.5 43.5 77 64.5q24 20.5 30 31.5q6.5 10.5 7 24q1.5 12 8 18q6.5 5.5 19.5 5.5q25 -0.5 51.5 -12.5q27 -12.5 46.5 -33.5q22.5 -25.5 42.5 -67q20.5 -41.5 36 -92.5q15.5 -51 24.5 -104.5q9 -54 9 -103.5q0 -80.5 -32 -120.5q-32.5 -39.5 -98.5 -39.5q-17 0 -36.5 2.5q-19.5 2.5 -52 10q22 -54 38 -88.5q16.5 -35 27 -51q9 -12.5 12 -18.5q3 -5.5 2.5 -11q0 -16.5 -18.5 -30q-18.5 -13.5 -53 -23.5q-21 -6 -39 -9.5q-18 -3.5 -29.5 -3.5q-9 -0.5 -15.5 2q-6.5 2 -15.5 8q44 14 62 29.5q17.5 16 17 39q0 18.5 -5.5 46.5q-5.5 28 -15 59.5q-9.5 32 -21.5 62q-62 16.5 -109 26q-47 10 -65 10q-28 0.5 -45 -12q-17.5 -12.5 -33 -44.5q-3 8 -4.5 13.5q-1.5 5.5 -1.5 9.5q0.5 14.5 10 37q9.5 22 24 40.5q10.5 13.5 23 22q13 8.5 22 9q5.5 0 12 -2q6.5 -2.5 17.5 -9.5q19 -11 49.5 -23q31 -12 83.5 -30l-30.5 66.5M714 -554q50 25.5 83 58q33 32 57 78.5q14 25.5 21.5 49q7.5 23.5 10.5 49q-15 6.5 -32 12.5q-16.5 6 -45 15q-29 9.5 -80 25q2.5 7 4.5 14l63.5 -6.5l34.5 -2q13 -0.5 30 -0.5q13.5 0 22 1.5q8.5 2 20 8.5q7 4.5 12.5 6q5 1.5 11 1.5q19 -0.5 30 -14.5q10.5 -14.5 11 -41q0 -34.5 -15 -71q-14.5 -36.5 -43.5 -74q-67.5 -88 -187.5 -123.5l-8 14.5" />
</g>
<g id="PathID_128" transform="matrix(0.0107353, 0, 0, 0.0107353, 31.55, 11.4)">
<path style="fill:#000000;fill-opacity:1" d="M177.5 -644.5q33.5 38 70.5 56.5q36.5 18.5 78.5 18.5q41.5 0 90 -8.5q49 -8 100.5 -24.5q18 28.5 37 60.5q18.5 32 35 62.5q-64 19.5 -119.5 29q-55 10 -99.5 10q-40.5 0.5 -68.5 -13.5q-28.5 -14 -52.5 -47l-12 9.5q12.5 24 23 37.5q11 13.5 26 24q22 15 47.5 22.5q26 7 59 7q31.5 0 69 -5q37.5 -4.5 75.5 -13.5q38.5 -8.5 73.5 -20.5q28.5 55 48.5 99q19.5 44.5 28 75.5q-55 -12 -101.5 -17.5q-46 -5 -91 -5q-81 0.5 -142 19.5q-60.5 19 -94 53q-33.5 34.5 -34 81q0.5 40.5 26 74q26 33.5 73 55q35 14.5 86 22.5q50.5 8 111 8l58 -2q28 -2.5 50 -5.5q22 -3.5 32 -8q8 -3 11.5 -8q4 -5 4 -11q-0.5 -13.5 -11 -25.5q-10 -12.5 -25.5 -20.5q-15.5 -8 -31 -8.5l-5.5 0.5q-3 1 -7 1.5q-35.5 8.5 -64 11.5q-28.5 3 -65 3q-94.5 0 -144 -25q-49 -24.5 -49.5 -72.5q0 -26 15 -46.5q15 -20.5 46.5 -36.5q26.5 -13.5 59.5 -21q33 -7.5 68.5 -7.5q45.5 0 90 9q44.5 9 82.5 24.5q38.5 16 65 37q11.5 10 17 13q5.5 3 11.5 2.5q15.5 -0.5 25 -18.5q9 -17.5 9 -48q0 -14.5 -4 -27.5q-4.5 -13.5 -13.5 -27.5l-17.5 -29l-12 -21l-17.5 -31.5l-9 -15.5q-4.5 -8.5 -13 -23l-24 -41.5q103.5 -36.5 151.5 -61.5q47.5 -25.5 47 -43.5q0 -12 -7.5 -19q-7.5 -6.5 -20 -7l-4 0.5l-4.5 0.5l-16 2q-3 0.5 -2 0q-15.5 0 -36.5 -7q-21 -7 -50 -21.5l-7 10.5q17.5 13.5 28 22.5q10 9.5 25.5 25.5q-13 8 -27 15q-14 6.5 -37 16q-23.5 9.5 -63 25q-21 -33.5 -33.5 -55q-12 -21 -17 -28.5l-12 -20.5l-10.5 -17.5q63 -20 101 -33q37.5 -13 49.5 -18.5q39.5 -16 53.5 -25.5q14 -9.5 13 -19.5q0 -13 -15 -20q-15 -6.5 -45 -6.5q-11.5 0 -19.5 2.5q-7.5 2.5 -13.5 7.5q-13 14 -29.5 25q-16 10.5 -43 22q-27.5 12 -74 29q-20 -39.5 -28.5 -57.5q-9 -18.5 -11 -26.5q-2 -8 -2.5 -17.5q-1 -20.5 -3.5 -27.5q-2 -7 -8.5 -12.5q-7 -6 -25 -9.5q-18 -3.5 -45 -3.5l-24 1q-11 1 -23 4q-20 4 -28 9q-8 5 -13 17.5q28.5 3 49 8.5q20 5.5 30 13q12 9 28 28q16 18.5 32 41.5q16 23 28 45.5q-23 8.5 -53 15.5q-30 7 -60.5 11q-30.5 4 -54.5 4q-39.5 0.5 -70 -10q-31 -10.5 -66 -36l-8 11" />
</g>
<g id="PathID_129" transform="matrix(0.0107353, 0, 0, 0.0107353, 42.5, 11.4)">
<path style="fill:#000000;fill-opacity:1" d="M82 122q27.5 -13 47 -27.5q19.5 -14 35 -33q20.5 -26 32 -57q11.5 -30.5 12 -62q-0.5 -43.5 -21.5 -68.5q-21 -25 -57.5 -25.5q-30.5 0.5 -49.5 19q-18.5 19 -19 48.5q-0.5 25 13.5 39q14 14.5 47 22.5q11 2 15.5 7q4 4.5 4 13.5q0 27.5 -19.5 51.5q-19 24 -59.5 48l20.5 24.5" />
</g>
<g id="PathID_130" transform="matrix(0.0107353, 0, 0, 0.0107353, 53.45, 11.4)">
<path style="fill:#000000;fill-opacity:1" d="M262 -770.5q-3.5 7 -5 11.5q-1 4.5 -1 8q0 12 5 28q5 15.5 14.5 31.5q14.5 27 31 41.5q16.5 15 32.5 15q6.5 0 13.5 -2.5q6.5 -2.5 17 -9q21 -12.5 50.5 -26.5q29.5 -13.5 73.5 -31q44.5 -17.5 66.5 -26q22 -8 31 -10.5q9.5 -2.5 14 -2.5q6.5 0.5 10.5 4q4 3.5 4 9.5q0.5 12 -39.5 56q-39.5 44 -124.5 124.5q-105.5 102 -177 157q-71 55.5 -110.5 67.5q-15.5 4.5 -21.5 10q-6.5 6 -6.5 16.5q0.5 10.5 10 23q9.5 12.5 22.5 22q13.5 9 25 9.5q4.5 0 9.5 -2.5q5.5 -2 16 -9q24 -15 67 -35.5q42.5 -20 95.5 -41.5q52.5 -21 106 -40q53.5 -19 98.5 -31.5q-41.5 24 -67.5 43.5q-25.5 19.5 -48.5 44.5q-31.5 33.5 -47.5 70q-16 37 -16 75.5q0.5 60 36 106q35.5 46 98 72.5q62.5 26 144.5 26.5q26.5 0 39.5 -6.5q13 -6.5 12.5 -21q-0.5 -11.5 -10.5 -25q-10 -13.5 -24 -23q-14 -10 -25.5 -10.5l-6 0.5l-10.5 1.5l-9 1l-10.5 0q-23 0 -38.5 -1q-15 -1 -27 -3q-11.5 -2.5 -24.5 -7.5q-48 -16.5 -74.5 -49.5q-26.5 -33.5 -27 -78.5q0.5 -54.5 37 -104q36.5 -50 102.5 -85.5q40 -21 89.5 -35q49 -14 92.5 -16l40 -2.5l17.5 -1q4.5 -0.5 8 -1.5q9.5 -1 15 -6.5q5.5 -5.5 5.5 -13q0 -8.5 -3.5 -15q-4 -6.5 -14 -15q-13.5 -11 -28 -17.5q-14.5 -7 -25 -7q-7 0 -15.5 1.5q-8 2 -26.5 9q-17.5 6 -41 12.5q-23 7 -54.5 16q-76.5 22 -133.5 39q-57 17.5 -101 31.5q-44.5 14.5 -83.5 28.5q-39 14 -80 30q52.5 -39 106 -80l102.5 -80q49 -39 88.5 -71.5q57.5 -47.5 91 -73q33.5 -25.5 44 -30.5q16.5 -6.5 21 -11q5 -4.5 4.5 -12.5q-1 -16.5 -17.5 -39q-16.5 -22 -38 -39.5q-22 -17 -37.5 -18q-4.5 0 -9.5 2q-5 2 -9 5q-10 9 -13.5 11.5q-3 2 -7 4q-9.5 4.5 -29 11q-19.5 6 -51 14.5q-57 16.5 -100 26q-42.5 10 -57.5 10q-14 0 -24.5 -3q-10.5 -3 -17.5 -9.5q-13.5 -10 -22 -21q-9 -11 -17 -27" />
</g>
<g id="PathID_131" transform="matrix(0.0107353, 0, 0, 0.0107353, 64.4, 11.4)">
<path style="fill:#000000;fill-opacity:1" d="M511 -3q64 -11 110 -25.5q46.5 -14.5 89.5 -38q97.5 -52.5 150.5 -133q53 -80.5 53.5 -177.5q0 -74.5 -24.5 -134.5q-24.5 -60.5 -74 -106q-50 -45.5 -118 -69.5q-68 -24.5 -146 -24.5q-67.5 0 -132.5 17.5q-65 17.5 -121.5 49.5q-56.5 32 -98.5 76q-43 48 -67.5 101q-24 53 -24.5 102q0 24 5.5 46.5q6 22.5 18 46.5q14.5 28.5 23 44.5q8 16.5 13 28q5 11 9 24q8.5 24 13.5 36q4.5 12 7.5 18q3.5 6 8 11.5q8.5 10 20 15.5q11.5 6 25 6q28 0 66 -38q38 -38 86.5 -114.5q39 -63.5 69.5 -129.5q30.5 -66.5 47.5 -125.5q17.5 -58.5 18 -99.5q0.5 -21.5 -6.5 -40q-7 -19 -25.5 -45l19.5 -1.5l16.5 -0.5q49.5 0 96 12.5q46.5 12 81.5 34.5q56.5 36.5 86 94q29.5 57.5 29.5 132.5q0 71 -23 133q-23 62 -68 114q-43 50 -100.5 84q-57 34 -139.5 58q3.5 9 7.5 17.5M484 -677q8.5 18.5 11.5 29.5q3 11 3 22q-0.5 32.5 -17 83.5q-16.5 50.5 -45.5 111q-29.5 60.5 -67.5 122q-38.5 60.5 -71 97.5q-33 36.5 -50.5 37.5q-8.5 0 -18.5 -8q-10 -7.5 -20.5 -21.5q-19.5 -27.5 -30 -63q-11 -35 -11 -72.5q1 -79.5 42.5 -150.5q42 -71 113.5 -120.5q71 -50 161 -67" />
</g>
<g id="PathID_132" transform="matrix(0.0107353, 0, 0, 0.0107353, 75.35, 11.4)">
<path style="fill:#000000;fill-opacity:1" d="M51 78q63 -15.5 112.5 -32.5q50 -16.5 95.5 -38q45.5 -21.5 95.5 -51.5q46.5 -27.5 86 -56.5q39.5 -29 74.5 -63.5q81.5 81.5 178 136.5q96.5 54.5 220.5 90q11 -32.5 29.5 -50.5q19 -18 54.5 -30.5l0 -10q-58 -7.5 -104.5 -17.5q-47 -9.5 -90 -23.5q-42.5 -13.5 -88 -33q-46 -20 -84.5 -43.5q-38.5 -23 -78.5 -55.5q21 -23.5 41.5 -51q20.5 -27.5 46 -67.5q25 -40 61 -101q30 -3.5 40 -7q10 -4 9 -11.5q0.5 -4.5 -8 -11q-8.5 -6.5 -32.5 -17.5q-24 -11 -69 -29.5q-14.5 61.5 -48.5 125.5q-34 64.5 -86.5 128.5q-46.5 -45 -80.5 -87.5q-34.5 -42 -53 -77q-19 -35 -19.5 -58q0 -1.5 0.5 -4.5q0 -2.5 0.5 -5.5q-21.5 9.5 -43 19.5q9.5 9 15.5 17.5q6.5 8.5 16.5 27.5q23.5 46 44 80.5q20.5 35 42 64q21 29 46 58q-26.5 29 -54 54q-27.5 25 -58.5 48.5q-46.5 36 -92.5 64.5q-46 28.5 -99.5 53.5q-53.5 24.5 -122.5 50l4 16.5M549 -706.5l0 -102.5q16 -6 26 -10q10 -3.5 13 -5.5q3 -2 5.5 -5.5q2.5 -3 2.5 -5.5q1 -6.5 -14.5 -11q-15.5 -4 -56 -8.5q-9.5 -0.5 -24 -2.5l-33.5 -3.5q1.5 26.5 2 44.5q1 18 1 39.5l0 70.5l-326.5 0q-13.5 0 -35.5 -3q-21.5 -2.5 -46.5 -7l8 40.5l31 -4.5l21.5 -2q9.5 -0.5 21.5 -0.5l836.5 0q3.5 0 5.5 -1.5q1.5 -1.5 2 -3.5q0 -1 -1 -2.5l-1 -3.5l-38 -33.5l-32 -27q-16 -13.5 -40 -33q-14.5 16.5 -23.5 28q-9.5 11.5 -18.5 23.5l-20.5 29.5l-265 0M74.5 -336q24 -11 42 -20.5q18 -9.5 37 -22.5q18.5 -12.5 45 -32.5q35.5 -27 57.5 -45q22 -18.5 43.5 -40q21.5 -21.5 55 -57.5q3.5 -4 10.5 -10.5l15 -16l14.5 1l6 0q27.5 0 27.5 -9.5q0.5 -5.5 -8 -13q-8.5 -7.5 -31.5 -20q-22.5 -12.5 -64 -33.5q-16.5 38 -38 73q-22 35.5 -53 75.5q-25.5 33 -49 59q-24 26 -52 50.5q-27.5 24 -64 51.5l6 10M597 -623.5q32.5 19 56.5 35q24.5 16 45 32q20.5 15.5 42 34.5q30 26 57 55.5q27.5 29.5 43.5 52q13 21 21 28.5q7.5 7.5 14.5 7q11.5 -0.5 19 -19q7.5 -18 8 -46.5q0 -20.5 -4 -33.5q-4 -13.5 -15 -24q-11 -10.5 -32.5 -23.5q-26 -16 -56.5 -31.5q-31 -16 -76 -35q-45 -19.5 -113 -47q-5 7.5 -9.5 15.5" />
</g>
<g id="PathID_133" transform="matrix(0.0107353, 0, 0, 0.0107353, 86.3, 11.4)">
<path style="fill:#000000;fill-opacity:1" d="M525.5 -698.5l0 -102.5q24.5 -8 32 -12.5q7.5 -4 7 -10q0.5 -5.5 -6.5 -9q-7 -3 -31 -6.5q-24 -3.5 -74 -9q2 23.5 3 40q1 16.5 1 37l0 237.5l-161 0l-29.5 -20.5q-12.5 -8.5 -25.5 -15.5q-12.5 -7.5 -32 -17.5q1 16.5 1.5 31.5q1 15.5 1 38q0.5 23 0.5 63.5l0 106.5l0 52q0 20 -0.5 36.5l-1.5 39.5l0 1.5l0 0.5q0 6 4.5 9q4.5 2.5 16 2.5q11 0 23.5 -2q12.5 -2 19.5 -4q4.5 -1.5 6 -4.5q2 -3 2 -11l0 -39l459 0l0 28.5q0 8.5 3.5 12q3 3.5 11 3.5l16.5 -1l22.5 -1.5l12 -1.5q3.5 -1.5 5.5 -4.5q1.5 -2.5 1.5 -8l-1.5 -63.5q-0.5 -25.5 -0.5 -45.5l0 -44.5l0 -34l0 -25.5l0 -35.5q20 -12 28.5 -19.5q8.5 -7 8.5 -12q0 -2.5 -2.5 -5.5q-2.5 -3.5 -8 -8q-20 -16 -33.5 -25.5q-13 -9.5 -34 -23.5q-9 12 -19 24.5l-18.5 23.5l-207 0l0 -141.5l379.5 0q4 0 7 -2.5q3.5 -2 3.5 -4.5q0 -1.5 -1 -4q-1 -2.5 -4 -5.5q-19.5 -18 -33 -30l-27 -24.5l-34.5 -29.5l-22.5 27l-19 22.5q-10 11 -24 27.5l-225 0M281.5 -510l459 0l0 220l-459 0l0 -220M210 -182.5q-3 30 -10.5 49.5q-8 20 -25.5 40.5q-16 20 -33.5 34q-18 14.5 -40 23.5q-19.5 8 -25 16q-5.5 7.5 -5 25q0.5 22 8.5 36.5q7.5 15 19.5 15.5q20.5 -0.5 45.5 -23.5q24.5 -22.5 44.5 -59.5q19.5 -35.5 28 -71q8 -35.5 8 -84.5l-14.5 -2M348 -180.5q15.5 39.5 24.5 78.5q8.5 39 11.5 83.5l3 33l1.5 14.5l2 6.5q2 5.5 6 8.5q4 3 9 3q11.5 -0.5 23.5 -13q12.5 -12 21 -29.5q8.5 -17 9 -32.5q0 -26 -25.5 -67q-26 -40.5 -76 -93.5l-9.5 8M554 -180.5q25.5 50.5 42.5 98.5q17 47.5 25 93q4.5 22.5 9 30.5q4.5 8 11.5 7.5q9 -0.5 18.5 -8.5q9 -7.5 15.5 -20.5q7 -13 11 -26q4.5 -13 4.5 -21q0 -9 -5 -19q-5 -10.5 -16.5 -25q-18 -23.5 -31 -39q-13.5 -16 -30 -32.5q-16.5 -17 -44.5 -44l-10.5 6M763 -180.5q28 36 48.5 66q20.5 30.5 36.5 60.5q16 29.5 30.5 64q10 24 16.5 33.5q7 9 14.5 8.5q7 -0.5 15 -12q8 -11.5 14 -28q5.5 -17 5.5 -32.5q0.5 -17.5 -14.5 -38.5q-15.5 -21 -53 -52q-38 -30.5 -104.5 -77.5l-9 8" />
</g>
<g id="PathID_134" transform="matrix(0.0107353, 0, 0, 0.0107353, 97.25, 11.4)">
<path style="fill:#000000;fill-opacity:1" d="M511 -3q64 -11 110 -25.5q46.5 -14.5 89.5 -38q97.5 -52.5 150.5 -133q53 -80.5 53.5 -177.5q0 -74.5 -24.5 -134.5q-24.5 -60.5 -74 -106q-50 -45.5 -118 -69.5q-68 -24.5 -146 -24.5q-67.5 0 -132.5 17.5q-65 17.5 -121.5 49.5q-56.5 32 -98.5 76q-43 48 -67.5 101q-24 53 -24.5 102q0 24 5.5 46.5q6 22.5 18 46.5q14.5 28.5 23 44.5q8 16.5 13 28q5 11 9 24q8.5 24 13.5 36q4.5 12 7.5 18q3.5 6 8 11.5q8.5 10 20 15.5q11.5 6 25 6q28 0 66 -38q38 -38 86.5 -114.5q39 -63.5 69.5 -129.5q30.5 -66.5 47.5 -125.5q17.5 -58.5 18 -99.5q0.5 -21.5 -6.5 -40q-7 -19 -25.5 -45l19.5 -1.5l16.5 -0.5q49.5 0 96 12.5q46.5 12 81.5 34.5q56.5 36.5 86 94q29.5 57.5 29.5 132.5q0 71 -23 133q-23 62 -68 114q-43 50 -100.5 84q-57 34 -139.5 58q3.5 9 7.5 17.5M484 -677q8.5 18.5 11.5 29.5q3 11 3 22q-0.5 32.5 -17 83.5q-16.5 50.5 -45.5 111q-29.5 60.5 -67.5 122q-38.5 60.5 -71 97.5q-33 36.5 -50.5 37.5q-8.5 0 -18.5 -8q-10 -7.5 -20.5 -21.5q-19.5 -27.5 -30 -63q-11 -35 -11 -72.5q1 -79.5 42.5 -150.5q42 -71 113.5 -120.5q71 -50 161 -67" />
</g>
</svg>
