<?xml version="1.0" encoding="utf-8"?>
<svg version="1.1" id="Layer_1"
xmlns="http://www.w3.org/2000/svg"
xmlns:xlink="http://www.w3.org/1999/xlink"
xmlns:author="http://www.sothink.com"
width="61px" height="13px"
xml:space="preserve">
<g id="PathID_150" transform="matrix(0.010049, 0, 0, 0.010049, -1.1, 10.4)">
<path style="fill:#000000;fill-opacity:1" d="M511 -3q64 -11 110 -25.5q46.5 -14.5 89.5 -38q97.5 -52.5 150.5 -133q53 -80.5 53.5 -177.5q0 -74.5 -24.5 -134.5q-24.5 -60.5 -74 -106q-50 -45.5 -118 -69.5q-68 -24.5 -146 -24.5q-67.5 0 -132.5 17.5q-65 17.5 -121.5 49.5q-56.5 32 -98.5 76q-43 48 -67.5 101q-24 53 -24.5 102q0 24 5.5 46.5q6 22.5 18 46.5q14.5 28.5 23 44.5q8 16.5 13 28q5 11 9 24q8.5 24 13.5 36q4.5 12 7.5 18q3.5 6 8 11.5q8.5 10 20 15.5q11.5 6 25 6q28 0 66 -38q38 -38 86.5 -114.5q39 -63.5 69.5 -129.5q30.5 -66.5 47.5 -125.5q17.5 -58.5 18 -99.5q0.5 -21.5 -6.5 -40q-7 -19 -25.5 -45l19.5 -1.5l16.5 -0.5q49.5 0 96 12.5q46.5 12 81.5 34.5q56.5 36.5 86 94q29.5 57.5 29.5 132.5q0 71 -23 133q-23 62 -68 114q-43 50 -100.5 84q-57 34 -139.5 58q3.5 9 7.5 17.5M484 -677q8.5 18.5 11.5 29.5q3 11 3 22q-0.5 32.5 -17 83.5q-16.5 50.5 -45.5 111q-29.5 60.5 -67.5 122q-38.5 60.5 -71 97.5q-33 36.5 -50.5 37.5q-8.5 0 -18.5 -8q-10 -7.5 -20.5 -21.5q-19.5 -27.5 -30 -63q-11 -35 -11 -72.5q1 -79.5 42.5 -150.5q42 -71 113.5 -120.5q71 -50 161 -67" />
</g>
<g id="PathID_151" transform="matrix(0.010049, 0, 0, 0.010049, 9.15, 10.4)">
<path style="fill:#000000;fill-opacity:1" d="M540.5 -652.5l0 -142.5q27 -9.5 36 -14.5q8.5 -4.5 8 -9q0.5 -6 -10.5 -10.5q-10.5 -4.5 -37 -8.5q-26.5 -4 -73 -8.5q3 26 4.5 42.5q1.5 16.5 1.5 31l0 120l-307 0q-10 0 -19 -0.5l-21 -2l-34 -3.5l-11.5 -2l-16 -2l10 40.5l43 -4.5l25 -2q10 -0.5 22.5 -0.5l231 0q-1.5 106.5 -15 192q-13.5 86 -40 156.5q-26.5 71 -67.5 133q-40 60.5 -91 107q-51.5 46.5 -126.5 89.5q4.5 8.5 8.5 17.5l42 -18q17 -8 31 -16q14.5 -8 30.5 -17.5q65.5 -41 118 -96q52.5 -54.5 89.5 -121q28.5 -49.5 47 -105.5q18.5 -56 32 -130l301 0q-4 91 -13 172.5q-9 82 -21.5 140q-12.5 58.5 -26 78.5q-5.5 7.5 -13.5 10.5q-7.5 3 -23.5 3l-57 -2.5l-84.5 -6.5l-94.5 -8.5l0 14.5q63.5 11.5 100.5 20q37 8.5 55 17.5q18.5 9 24.5 22q6.5 13.5 8 34.5q53 -6.5 83 -15.5q29.5 -8.5 45.5 -24.5q16 -15.5 28 -44q20 -46 36 -143.5q16 -97.5 27.5 -244.5q26 -17.5 31.5 -22q5.5 -5 4.5 -8.5q0 -2.5 -3 -6q-2.5 -3.5 -10.5 -10.5l-32 -24q-13 -10 -33.5 -25q-12 14 -19.5 23.5q-7.5 9.5 -19 25.5l-290 0q4 -28.5 7 -53.5q2.5 -24.5 3.5 -51.5q1.5 -27 2 -63l506.5 0q5.5 0 9 -2q3.5 -2 3.5 -5q0 -2.5 -1.5 -5q-1.5 -2.5 -4.5 -5.5l-35.5 -31q-14.5 -12 -29 -24.5l-36 -29.5l-22 28q-9 11 -17.5 22.5l-22 28.5l-278.5 0" />
</g>
<g id="PathID_152" transform="matrix(0.010049, 0, 0, 0.010049, 19.4, 10.4)">
<path style="fill:#000000;fill-opacity:1" d="M637 -388l0 -217l302 0q5 0 8 -2q3 -2 3.5 -5q0 -1.5 -1.5 -4q-1.5 -2.5 -5 -6.5q-19 -16.5 -32.5 -27.5q-13.5 -11.5 -27.5 -22.5q-14 -11 -35 -26.5q-19 20 -31 34l-31.5 36.5l-149.5 0l0 -166q32 -12 39.5 -16.5q8 -4.5 6.5 -10q0.5 -6 -9 -10q-9.5 -4 -36 -8q-26.5 -3.5 -77.5 -8.5q3 22 4.5 38.5q1.5 17 2 33.5q0.5 16.5 0.5 37.5l0 109.5l-126 0l-32.5 -1.5q-16 -2 -35 -5.5l8 34.5q14 -2 27.5 -3l31 -1l127 0l0 217l-185.5 0l-45.5 -2q-20.5 -1.5 -44.5 -6l7 37.5q23 -3 42.5 -4.5l40.5 -1.5l164 0q-7 27.5 -13 48q-6 20.5 -15 44q-8.5 24 -24.5 61.5q-16 40.5 -26 65q-10 24.5 -18.5 42.5q-8 18 -18 38l-49.5 2l-23 1l-16.5 0l-5 0l-11 0l-27 0q9.5 49 16 76q7 27.5 12 38.5q5 11 10 10.5q5 0.5 9 -9q4 -10 8.5 -37l47 -8l43 -7.5q22.5 -4 54.5 -9l81 -13.5l94.5 -15.5q38 -6.5 71 -14q33.5 -7 76 -17.5q4.5 9 7 15l6 11.5q19 39.5 29 58q10 19 15.5 24.5q5.5 5 12 4.5q8.5 -0.5 16 -12q7.5 -11.5 12.5 -29q5 -18 5 -36.5q1 -17.5 -11 -36.5q-11.5 -18.5 -44 -53q-32.5 -34 -75.5 -71.5q-43.5 -37.5 -102.5 -84q-5 3.5 -9.5 7q35.5 46.5 58 77.5q23 31 38.5 54.5q15.5 23.5 29.5 47.5l-41.5 4l-39 3.5l-53.5 3.5l-84 5l-132 7.5q37.5 -51 83 -128q45.5 -76.5 92 -169l351 0q5 0 7.5 -2q3 -2 3 -5q0 -2.5 -2 -5q-1.5 -2.5 -5.5 -6.5q-19.5 -17 -33.5 -28q-13.5 -11.5 -27.5 -22q-13.5 -10.5 -34 -25.5q-19.5 20 -32.5 34l-35 36.5l-187.5 0M113 -820q32 31.5 60 64.5q28.5 33.5 54.5 71.5q7 10 12.5 14.5q5 4 11 4q10.5 -0.5 18.5 -17q8.5 -16.5 9 -38q0.5 -20 -13.5 -36q-14 -16.5 -48.5 -33.5q-34.5 -17.5 -96.5 -40l-7 10M46 -606q34 34 63 70.5q29 36.5 51 73q7.5 12 12 16.5q5 5 10.5 5q11.5 -1 21 -19q9 -17.5 9.5 -41.5q0 -18 -7 -31q-7.5 -13 -25 -25.5q-13 -10 -26.5 -17.5q-14 -8 -37.5 -17.5l-64.5 -24.5q-3 6 -6.5 11.5M53.5 -227.5q50.5 15.5 70 37q20 22 19 62.5q0 28 -4 63q-4.5 34.5 -11.5 64q-1.5 10 -2.5 18.5q-1.5 8.5 -1.5 15.5q0 9 5.5 14.5q5.5 5.5 15 6q20 -0.5 38 -13q17.5 -12.5 28.5 -32q11 -20 11 -42q0 -41.5 -18.5 -98.5q-4.5 -15.5 -6 -23.5q-2 -8 -2 -14.5q0 -7 3.5 -21.5q4 -14 11 -36q80 -227.5 159.5 -455.5l-14 -4q-7.5 17 -12 28l-12.5 27.5q-8 16 -24 50l-41.5 89.5l-25.5 54.5l-19.5 42.5q-9 21 -23 52q-22 49 -34 73q-12 24 -19 32q-7 7.5 -14.5 6.5q-5.5 0 -24 -3.5l-49.5 -9.5l-2 17" />
</g>
<g id="PathID_153" transform="matrix(0.010049, 0, 0, 0.010049, 29.65, 10.4)">
<path style="fill:#000000;fill-opacity:1" d="M711.5 -540q30 28.5 55 59q24.5 31 40 60q14 26 19.5 33q5 7 11.5 6q11 -0.5 18 -14.5q7 -14 7.5 -35.5q0 -17.5 -9.5 -33q-10 -15 -30.5 -30.5q-20.5 -15 -47 -29.5q-26.5 -14.5 -55.5 -27l-9 12M811.5 -583q38.5 28.5 65 58.5q27 30 44 64.5q5 12 10 17q5 5 10 4.5q11 -0.5 18 -14q6.5 -14 7 -35q0 -20.5 -11 -36.5q-10.5 -15.5 -34 -29q-21.5 -12 -45.5 -22q-24.5 -10 -56 -19q-3.5 5.5 -7.5 11M96 -663.5q-6.5 10 -9 16q-2.5 6 -2 11.5q0 13 7 31.5q7 18 19.5 37q18 28 39 44q21 16 40 16.5q9 0.5 17.5 -2.5q8.5 -3 23.5 -12q25.5 -13.5 70 -31.5q44 -18 93.5 -34q58 -18.5 107.5 -32q49 -13.5 94.5 -23q45.5 -9.5 92 -16q-42.5 22 -72.5 40q-30 18.5 -52 36.5q-22.5 18.5 -42.5 40.5q-53.5 57 -82.5 122q-28.5 65 -29 128q0 71 30 129.5q30 58 88.5 100q29.5 20.5 66.5 37.5q37 16.5 74.5 26q37.5 10 68 10q16.5 0 26.5 -8q10 -8 10.5 -20.5q-0.5 -9.5 -8 -22.5q-8 -12.5 -23 -26.5q-10 -10 -19 -13.5q-9 -3.5 -24 -3q-23.5 -1 -50.5 -7.5q-27.5 -6.5 -54 -17q-66 -29 -100.5 -80.5q-34.5 -51.5 -34.5 -122.5q0.5 -65 29 -125.5q28.5 -60 77.5 -108q48.5 -48 110 -76.5q61.5 -28 127.5 -28.5l13 0.5q6 0 15.5 1.5q5.5 1 10.5 1l8 0q15 0 23.5 -7q8.5 -7 8.5 -18.5q0 -10.5 -7.5 -20q-7 -9 -22.5 -19q-15.5 -9.5 -30.5 -15.5q-15 -6 -24.5 -6q-6 0 -13.5 2q-7.5 1.5 -22.5 6q-15 5 -32 10q-17.5 4.5 -42.5 10q-25 6 -63.5 14l-92.5 18.5q-41.5 9 -73.5 17.5q-85 20.5 -137 32.5q-52 12 -80 18q-28 6 -42.5 8l-24 1.5q-15 0 -25.5 -3.5q-10 -4 -20.5 -14q-12 -10 -19.5 -22q-7.5 -12 -14.5 -31" />
</g>
<g id="PathID_154" transform="matrix(0.010049, 0, 0, 0.010049, 39.9, 10.4)">
<path style="fill:#000000;fill-opacity:1" d="M82 122q27.5 -13 47 -27.5q19.5 -14 35 -33q20.5 -26 32 -57q11.5 -30.5 12 -62q-0.5 -43.5 -21.5 -68.5q-21 -25 -57.5 -25.5q-30.5 0.5 -49.5 19q-18.5 19 -19 48.5q-0.5 25 13.5 39q14 14.5 47 22.5q11 2 15.5 7q4 4.5 4 13.5q0 27.5 -19.5 51.5q-19 24 -59.5 48l20.5 24.5" />
</g>
<g id="PathID_155" transform="matrix(0.010049, 0, 0, 0.010049, 50.15, 10.4)">
<path style="fill:#000000;fill-opacity:1" d="M525.5 -698.5l0 -102.5q24.5 -8 32 -12.5q7.5 -4 7 -10q0.5 -5.5 -6.5 -9q-7 -3 -31 -6.5q-24 -3.5 -74 -9q2 23.5 3 40q1 16.5 1 37l0 237.5l-161 0l-29.5 -20.5q-12.5 -8.5 -25.5 -15.5q-12.5 -7.5 -32 -17.5q1 16.5 1.5 31.5q1 15.5 1 38q0.5 23 0.5 63.5l0 106.5l0 52q0 20 -0.5 36.5l-1.5 39.5l0 1.5l0 0.5q0 6 4.5 9q4.5 2.5 16 2.5q11 0 23.5 -2q12.5 -2 19.5 -4q4.5 -1.5 6 -4.5q2 -3 2 -11l0 -39l459 0l0 28.5q0 8.5 3.5 12q3 3.5 11 3.5l16.5 -1l22.5 -1.5l12 -1.5q3.5 -1.5 5.5 -4.5q1.5 -2.5 1.5 -8l-1.5 -63.5q-0.5 -25.5 -0.5 -45.5l0 -44.5l0 -34l0 -25.5l0 -35.5q20 -12 28.5 -19.5q8.5 -7 8.5 -12q0 -2.5 -2.5 -5.5q-2.5 -3.5 -8 -8q-20 -16 -33.5 -25.5q-13 -9.5 -34 -23.5q-9 12 -19 24.5l-18.5 23.5l-207 0l0 -141.5l379.5 0q4 0 7 -2.5q3.5 -2 3.5 -4.5q0 -1.5 -1 -4q-1 -2.5 -4 -5.5q-19.5 -18 -33 -30l-27 -24.5l-34.5 -29.5l-22.5 27l-19 22.5q-10 11 -24 27.5l-225 0M281.5 -510l459 0l0 220l-459 0l0 -220M210 -182.5q-3 30 -10.5 49.5q-8 20 -25.5 40.5q-16 20 -33.5 34q-18 14.5 -40 23.5q-19.5 8 -25 16q-5.5 7.5 -5 25q0.5 22 8.5 36.5q7.5 15 19.5 15.5q20.5 -0.5 45.5 -23.5q24.5 -22.5 44.5 -59.5q19.5 -35.5 28 -71q8 -35.5 8 -84.5l-14.5 -2M348 -180.5q15.5 39.5 24.5 78.5q8.5 39 11.5 83.5l3 33l1.5 14.5l2 6.5q2 5.5 6 8.5q4 3 9 3q11.5 -0.5 23.5 -13q12.5 -12 21 -29.5q8.5 -17 9 -32.5q0 -26 -25.5 -67q-26 -40.5 -76 -93.5l-9.5 8M554 -180.5q25.5 50.5 42.5 98.5q17 47.5 25 93q4.5 22.5 9 30.5q4.5 8 11.5 7.5q9 -0.5 18.5 -8.5q9 -7.5 15.5 -20.5q7 -13 11 -26q4.5 -13 4.5 -21q0 -9 -5 -19q-5 -10.5 -16.5 -25q-18 -23.5 -31 -39q-13.5 -16 -30 -32.5q-16.5 -17 -44.5 -44l-10.5 6M763 -180.5q28 36 48.5 66q20.5 30.5 36.5 60.5q16 29.5 30.5 64q10 24 16.5 33.5q7 9 14.5 8.5q7 -0.5 15 -12q8 -11.5 14 -28q5.5 -17 5.5 -32.5q0.5 -17.5 -14.5 -38.5q-15.5 -21 -53 -52q-38 -30.5 -104.5 -77.5l-9 8" />
</g>
</svg>
