<?xml version="1.0" encoding="utf-8"?>
<svg version="1.1" id="Layer_1"
xmlns="http://www.w3.org/2000/svg"
xmlns:xlink="http://www.w3.org/1999/xlink"
xmlns:author="http://www.sothink.com"
width="64px" height="13px"
xml:space="preserve">
<g id="PathID_81" transform="matrix(0.0107353, 0, 0, 0.0107353, -1.6, 11.35)">
<path style="fill:#000000;fill-opacity:1" d="M148.5 -665.5q23 30 45 47.5q22 17 47.5 24.5q25.5 7 60 7l29.5 -1q14.5 -1.5 39 -5q-36 54 -65.5 93q-29.5 38.5 -59.5 68.5q-29.5 30 -65.5 58.5q-14 11 -20.5 17.5q-6 6 -8 12q-1.5 6 -1 16.5q0 24.5 7.5 39.5q7.5 14.5 20 14.5q7.5 0.5 15.5 -6.5q8.5 -6.5 22.5 -26q56 -71 113.5 -109.5q57 -38.5 108.5 -39q17.5 0 31 8.5q14 8 21.5 22q7.5 15.5 10.5 32.5q3 17.5 3.5 48.5q-49.5 31 -78.5 51.5q-29.5 21 -48.5 39.5q-37.5 36 -55.5 70q-18 34.5 -18 70.5q0 37 18 63.5q18.5 26.5 57.5 45q31 14.5 83.5 22q52 7.5 124.5 7.5q32.5 0 66.5 -2l65 -5q30.5 -3 52 -7.5q15.5 -3 23.5 -10q8.5 -7.5 8.5 -17.5q-0.5 -11.5 -11.5 -23.5q-11 -11.5 -27.5 -19.5q-16.5 -8 -33 -8l-9 0.5l-10.5 2.5q-47 13.5 -99.5 21q-52.5 7.5 -106.5 7.5q-86 0 -128.5 -20q-42.5 -20.5 -42.5 -62q0 -23 12.5 -46.5q12.5 -24 38 -48.5q19 -18.5 46 -37q27 -18.5 73.5 -44q-0.5 34 -2.5 60.5q-1.5 27 -4.5 49q-1 5.5 -1 9.5l0 8q0 13.5 9 22q9 8.5 23.5 8.5q9.5 0 17 -5.5q8 -5 12 -13.5q3.5 -8 6 -31q2 -22.5 2 -57l0 -34q0 -12.5 -0.5 -23q0 -10.5 -0.5 -26q41 -20.5 93 -42q52 -21.5 101 -38.5q49 -17.5 80.5 -25q21.5 -4.5 29.5 -11q8 -7 7.5 -20.5q-1 -21.5 -20 -45q-19 -24 -45.5 -41q-26.5 -16.5 -50 -17.5l-10.5 1q-5 1.5 -13 5q22.5 9.5 34.5 22.5q12.5 12.5 12.5 25.5q0.5 9 -10 19.5q-11 10 -38.5 25.5q-27.5 16 -77.5 41q-41 20.5 -59.5 30q-18 9.5 -26 13q-7.5 3.5 -15 7.5q-7.5 -47 -38.5 -74.5q-30.5 -27.5 -76.5 -28q-28 0 -59 9.5q-30.5 9.5 -73 31.5l17 -24l16 -24l22.5 -34q17 -26 29 -43.5q12 -18 25 -36.5q41 -8 74.5 -15.5q34 -8 69 -18q35 -10 80 -24.5q23 -8 33.5 -16q10.5 -8 10.5 -17q-0.5 -15 -19.5 -24q-18.5 -9.5 -49 -10q-5.5 0 -10 2q-5 1.5 -9.5 5.5q-16.5 14 -34.5 24q-17.5 10.5 -44 20q-26.5 9.5 -69 21.5l8.5 -12.5l17 -27.5l14.5 -20.5q8 -12 15 -21.5q9 -11 13 -18q3.5 -6.5 3.5 -11.5q0 -9.5 -9 -18q-8.5 -8.5 -28 -16q-20 -8.5 -41 -13q-20.5 -4.5 -38.5 -4.5q-14 0 -24 2.5q-10 2 -22.5 9q39.5 9.5 56.5 23q17 14 16.5 34q0 17.5 -9.5 44.5q-9.5 27 -26.5 60q-34.5 7 -60 10.5q-25.5 3 -49.5 3q-27 0 -46.5 -4q-20 -4 -38.5 -14.5q-19 -10.5 -43 -29.5l-11 9" />
</g>
<g id="PathID_82" transform="matrix(0.0107353, 0, 0, 0.0107353, 9.35, 11.35)">
<path style="fill:#000000;fill-opacity:1" d="M833.5 -302l0 56.5q0 6.5 3 9.5q3 2.5 10.5 2.5q14 0 30 -2q16 -1.5 23.5 -4q4.5 -2 6 -4.5q2 -2.5 2 -8q-1.5 -43 -2.5 -78q-1 -35 -1.5 -68.5q-0.5 -33.5 -0.5 -72.5l0 -45l1 -61.5q19 -10.5 25.5 -16q7 -5.5 7.5 -10.5l0 -1q0 -4 -3 -7.5q-3 -3.5 -8.5 -8l-22.5 -16l-19 -13l-25 -16l-18 22.5l-18.5 22.5l-285 0l0 -184.5q29 -10 38 -15q9 -5 8 -11.5q1 -7.5 -13 -11q-14.5 -4 -55.5 -7.5l-22 -1l-31.5 -3q2 16 3 29q1.5 13 2 34q0.5 21 0.5 61l1 109.5l-253 0q-18.5 -11 -31.5 -18q-12.5 -7 -25.5 -13q-13 -5.5 -32 -13l1.5 70.5q0.5 30 0.5 55l0 51.5l-1 68.5q-0.5 61 -2 176.5q0 7.5 3.5 10.5q3.5 3 13 2.5l28.5 -1.5q16 -2 22.5 -3.5q4.5 -1.5 6 -3.5q2 -2.5 2 -7.5l0 -56.5l267.5 0l0 97.5l0 73q0 28.5 -0.5 52.5q0 24.5 -0.5 57.5l-1 87q-0.5 7 2.5 9q3 2.5 10.5 2.5q15 0 31.5 -2q17 -2 24 -4.5q3.5 -1 5.5 -3.5q1.5 -2 1.5 -6.5l-1.5 -104l-1 -70.5q0 -29.5 -0.5 -55.5l0 -57l0 -75.5l294 0M833.5 -325.5l-294 0l-1 -177.5l0 -94l295 0l0 271.5M469 -325.5l-267.5 0l0 -271.5l267.5 0l0 52l0 219.5" />
</g>
<g id="PathID_83" transform="matrix(0.0107353, 0, 0, 0.0107353, 20.3, 11.35)">
<path style="fill:#000000;fill-opacity:1" d="M189.5 -489.5q-5 47.5 -12 80q-6.5 33 -18.5 65.5q-13.5 39 -33.5 71.5q-19.5 32 -40.5 52.5q-17 15 -22 23.5q-5 8.5 -4.5 20.5q0.5 29.5 9 50.5q9 21 21.5 22q13 0 30 -17.5q17 -17 32.5 -47q17.5 -32 30 -75.5q13 -43 19.5 -93q7 -49.5 7 -100.5l0 -23q-0.5 -10 -1 -29.5l-17.5 0M318.5 -171l0 32l-1 40l-3 75.5q1 22.5 9.5 34q8 11.5 26 17.5q8 3.5 27.5 5l63 2.5q44 0.5 125.5 0.5q37 0 75.5 -1.5l69.5 -4q31 -2 43.5 -4.5q23 -5 34.5 -14q11.5 -9 11.5 -22q0 -11 -7.5 -18q-8 -7.5 -23 -9.5q-10 -2 -15.5 -6.5q-5 -4.5 -5 -12l0 -3l13 -223.5l-13 -1l-30 125q-12 47 -19.5 71.5q-7.5 25 -13 35q-4.5 10 -15 15.5q-10.5 5 -33 7l-63.5 2l-36 0q-22 -0.5 -45.5 -0.5q-23.5 0 -40.5 -0.5l-21.5 0q-25.5 -1 -33.5 -5.5q-8 -4 -7.5 -16l0 -532.5q21.5 -8 31.5 -12q9.5 -4 11.5 -6.5q2.5 -2.5 2 -7q1 -5.5 -7 -9.5q-8.5 -4 -35 -8.5q-26 -5 -80.5 -13q2 34 3.5 71q1.5 37.5 1.5 70.5l0 326.5M339 -814q71 35 132.5 80.5q61.5 45 108 97.5q11 13 17.5 18q6.5 5 11 5q9 -0.5 14.5 -13.5q6 -13 6 -33q0 -11 -2 -23q-2.5 -12.5 -6 -23q-4 -9 -10.5 -16q-7 -7 -19.5 -14.5q-32.5 -20.5 -66 -35.5q-33 -15.5 -75.5 -29q-43 -13 -103 -28l-7 14.5M769 -489.5q29.5 49 51.5 97q22 48 39.5 101.5q17 53.5 31.5 118q4.5 20.5 10 29.5q5 8.5 13 8.5q6.5 0 13.5 -7q7.5 -7 15 -21.5q9.5 -19 15 -39q5.5 -19.5 5.5 -34q0 -42.5 -46 -108q-45.5 -66 -135.5 -153l-13 8" />
</g>
<g id="PathID_84" transform="matrix(0.0107353, 0, 0, 0.0107353, 31.25, 11.35)">
<path style="fill:#000000;fill-opacity:1" d="M317.5 -794q31.5 5.5 48.5 14q17 8.5 25 23q4 7 6 18q2.5 11 3.5 34q1.5 23 3 66l2.5 60.5q1 23 2 37.5q1 14 2.5 26q3.5 32.5 11 51q7 18.5 18.5 26.5q12.5 9 23 12.5q10 3 26.5 3q-45 24 -74 43q-29 19.5 -51 39q-50.5 42 -75.5 84.5q-25 43 -25 87.5q0.5 51.5 30 91.5q29.5 40 81.5 60q32.5 11.5 75.5 17.5q43 6 98.5 6q32 0 71 -2l74 -5q34.5 -3 52 -6.5q24 -4 34 -12q10 -8 10 -21.5q-1 -19.5 -18 -34.5q-16.5 -15 -37.5 -16q-4.5 0 -8.5 1l-12 2.5q-37.5 8.5 -80 15q-43 7 -84 10.5q-41 4 -73.5 4q-85.5 0 -128.5 -28q-43.5 -28.5 -43.5 -83.5q0 -36 19 -67.5q19.5 -32 61 -63.5q31.5 -24.5 67.5 -44q35.5 -19.5 81.5 -36.5q45.5 -17 107 -34.5q34.5 -9.5 49 -14.5q15 -5 19.5 -7q10.5 -4.5 16 -12.5q5.5 -8 5.5 -18q-1 -17 -15.5 -29.5q-14.5 -13 -33.5 -13.5q-9 0 -19 2.5q-9.5 3 -23 9.5q-46 22 -72.5 33.5q-26 11 -40.5 15q-14.5 4 -24.5 4q-23 1 -31.5 -15.5q-9 -16 -8.5 -60.5q0.5 -43 3.5 -84q3 -40.5 8 -73.5q5 -32.5 11 -50q5.5 -13 7 -17.5q1.5 -4 1.5 -9.5l0 -0.5l0 -1.5q0 -10.5 -6.5 -18.5q-7 -8 -22.5 -14q-12.5 -5.5 -30.5 -10q-18.5 -4 -37.5 -7q-19.5 -2.5 -35 -2.5q-15 -0.5 -24 3q-9.5 3.5 -20 13" />
</g>
<g id="PathID_85" transform="matrix(0.0107353, 0, 0, 0.0107353, 42.2, 11.35)">
<path style="fill:#000000;fill-opacity:1" d="M846.5 -195.5q-26 22 -47 38q-20.5 16 -40 28.5q-20 12.5 -43 24.5q-59 31 -119.5 48q-61 17 -114 17.5q-27 0 -50.5 -7.5q-23.5 -7 -40.5 -20q-21.5 -17.5 -31.5 -47q-9.5 -29.5 -9.5 -76q0 -37 3.5 -91.5q3.5 -54 9.5 -115.5q6 -61.5 13 -119.5q7 -58 14 -102q7.5 -43.5 13 -63q6.5 -17 8.5 -24.5q1.5 -7.5 1.5 -12.5q0 -16 -15 -31.5q-15 -15 -44.5 -29q-24.5 -10.5 -49 -17q-25 -6.5 -43.5 -6.5q-8 0 -14 2q-6.5 2.5 -14.5 8.5q36 14.5 54 29.5q18 14.5 23.5 39q6 24.5 5.5 67.5q0 17.5 -0.5 37.5q-0.5 20 -2 52l-4.5 86.5q-3 47 -4.5 93q-2 46 -3 85.5q-1 40 -1 68.5q0 64.5 6.5 105.5q7 41.5 22 67.5q24 41.5 67.5 64q44 22.5 102.5 23q64 0 128 -25.5q63.5 -25 122.5 -72.5q59.5 -47 109 -114l-12.5 -11" />
</g>
<g id="PathID_86" transform="matrix(0.0107353, 0, 0, 0.0107353, 53.15, 11.35)">
<path style="fill:#000000;fill-opacity:1" d="M107.5 -668q-6.5 9 -9 15q-2.5 6 -2 12q0 12.5 7 31q7 18.5 19.5 37.5q18 28 39 44q21 16 40 16.5q9 0.5 17.5 -2.5q8.5 -3 23.5 -12q25.5 -13.5 70 -31.5q44 -18 93.5 -34q58 -19 107.5 -32q49 -13.5 94.5 -23q45.5 -9 92 -15.5q-42.5 21.5 -72 39.5q-30 18.5 -52.5 36.5q-22.5 18.5 -42.5 40.5q-53.5 58 -82.5 122.5q-28.5 64.5 -29 127.5q0 71.5 30 129.5q30 58 88.5 100q29.5 20.5 66.5 37.5q37 16.5 74.5 26q37 10 67 10q17 0 27.5 -7.5q10 -8 10.5 -21q-0.5 -9.5 -8.5 -22.5q-8.5 -12.5 -22.5 -26.5q-10.5 -10 -19.5 -13.5q-8.5 -3.5 -23.5 -3q-22.5 -1 -50.5 -7.5q-28 -6.5 -54 -17q-66 -29 -100.5 -80q-34.5 -51 -34.5 -122q0.5 -65 29 -125.5q28.5 -60.5 77.5 -108.5q48.5 -48 110 -76q61.5 -28.5 127.5 -29l13 0.5q6 0 15.5 1.5q5.5 1 10.5 1l8 0q15 0 23.5 -7q8.5 -7 8.5 -18.5q0 -10.5 -7.5 -20q-7 -9 -22.5 -19q-15.5 -9.5 -30.5 -15.5q-15 -6 -24.5 -6q-6 0 -13.5 2q-7.5 1.5 -22.5 6q-15 5 -32 10q-17.5 4.5 -42.5 10q-25 5.5 -63.5 13q-51 10 -92.5 19q-41.5 9 -73.5 17q-85 20.5 -137 32.5q-52 12.5 -80 18.5q-28 6 -42.5 8l-24 1.5q-15 0 -25.5 -3.5q-10 -4 -20.5 -14q-12 -10.5 -19.5 -22.5q-7.5 -12 -14.5 -30" />
</g>
</svg>
