<?xml version="1.0" encoding="utf-8"?>
<svg version="1.1" id="Layer_1"
xmlns="http://www.w3.org/2000/svg"
xmlns:xlink="http://www.w3.org/1999/xlink"
xmlns:author="http://www.sothink.com"
width="36px" height="13px"
xml:space="preserve">
<g id="PathID_144" transform="matrix(0.0107353, 0, 0, 0.0107353, -1.6, 11.05)">
<path style="fill:#000000;fill-opacity:1" d="M148.5 -665.5q23 30 45 47.5q22 17 47.5 24.5q25.5 7 60 7l29.5 -1q14.5 -1.5 39 -5q-36 54 -65.5 93q-29.5 38.5 -59.5 68.5q-29.5 30 -65.5 58.5q-14 11 -20.5 17.5q-6 6 -8 12q-1.5 6 -1 16.5q0 24.5 7.5 39.5q7.5 14.5 20 14.5q7.5 0.5 15.5 -6.5q8.5 -6.5 22.5 -26q56 -71 113.5 -109.5q57 -38.5 108.5 -39q17.5 0 31 8.5q14 8 21.5 22q7.5 15.5 10.5 32.5q3 17.5 3.5 48.5q-49.5 31 -78.5 51.5q-29.5 21 -48.5 39.5q-37.5 36 -55.5 70q-18 34.5 -18 70.5q0 37 18 63.5q18.5 26.5 57.5 45q31 14.5 83.5 22q52 7.5 124.5 7.5q32.5 0 66.5 -2l65 -5q30.5 -3 52 -7.5q15.5 -3 23.5 -10q8.5 -7.5 8.5 -17.5q-0.5 -11.5 -11.5 -23.5q-11 -11.5 -27.5 -19.5q-16.5 -8 -33 -8l-9 0.5l-10.5 2.5q-47 13.5 -99.5 21q-52.5 7.5 -106.5 7.5q-86 0 -128.5 -20q-42.5 -20.5 -42.5 -62q0 -23 12.5 -46.5q12.5 -24 38 -48.5q19 -18.5 46 -37q27 -18.5 73.5 -44q-0.5 34 -2.5 60.5q-1.5 27 -4.5 49q-1 5.5 -1 9.5l0 8q0 13.5 9 22q9 8.5 23.5 8.5q9.5 0 17 -5.5q8 -5 12 -13.5q3.5 -8 6 -31q2 -22.5 2 -57l0 -34q0 -12.5 -0.5 -23q0 -10.5 -0.5 -26q41 -20.5 93 -42q52 -21.5 101 -38.5q49 -17.5 80.5 -25q21.5 -4.5 29.5 -11q8 -7 7.5 -20.5q-1 -21.5 -20 -45q-19 -24 -45.5 -41q-26.5 -16.5 -50 -17.5l-10.5 1q-5 1.5 -13 5q22.5 9.5 34.5 22.5q12.5 12.5 12.5 25.5q0.5 9 -10 19.5q-11 10 -38.5 25.5q-27.5 16 -77.5 41q-41 20.5 -59.5 30q-18 9.5 -26 13q-7.5 3.5 -15 7.5q-7.5 -47 -38.5 -74.5q-30.5 -27.5 -76.5 -28q-28 0 -59 9.5q-30.5 9.5 -73 31.5l17 -24l16 -24l22.5 -34q17 -26 29 -43.5q12 -18 25 -36.5q41 -8 74.5 -15.5q34 -8 69 -18q35 -10 80 -24.5q23 -8 33.5 -16q10.5 -8 10.5 -17q-0.5 -15 -19.5 -24q-18.5 -9.5 -49 -10q-5.5 0 -10 2q-5 1.5 -9.5 5.5q-16.5 14 -34.5 24q-17.5 10.5 -44 20q-26.5 9.5 -69 21.5l8.5 -12.5l17 -27.5l14.5 -20.5q8 -12 15 -21.5q9 -11 13 -18q3.5 -6.5 3.5 -11.5q0 -9.5 -9 -18q-8.5 -8.5 -28 -16q-20 -8.5 -41 -13q-20.5 -4.5 -38.5 -4.5q-14 0 -24 2.5q-10 2 -22.5 9q39.5 9.5 56.5 23q17 14 16.5 34q0 17.5 -9.5 44.5q-9.5 27 -26.5 60q-34.5 7 -60 10.5q-25.5 3 -49.5 3q-27 0 -46.5 -4q-20 -4 -38.5 -14.5q-19 -10.5 -43 -29.5l-11 9" />
</g>
<g id="PathID_145" transform="matrix(0.0107353, 0, 0, 0.0107353, 9.35, 11.05)">
<path style="fill:#000000;fill-opacity:1" d="M125 -715q19.5 43 48 62.5q29 20 71.5 19.5q15.5 0 34 -2.5q19 -2 45 -6.5q-38.5 48.5 -62.5 89q-24 40 -42 85q-20 49 -30.5 101q-10.5 52 -10.5 100.5q0.5 88.5 31.5 153q31.5 65 88 101q57 35.5 133.5 36q59 0 111 -23q52 -22.5 89.5 -65q46 -52 69 -127q22.5 -75.5 22.5 -177q0 -27.5 -1 -51.5q-0.5 -24 -3 -51q-2.5 -27 -7.5 -64q-4.5 -37 -12 -91l3 -1q19.5 66 37 116.5q17 50.5 34.5 93q17.5 42.5 38 84.5q30.5 62 52.5 90.5q22.5 29 39.5 28.5q11 -0.5 17.5 -11q6 -11 6.5 -29q0 -26.5 -8 -48.5q-7.5 -21.5 -22 -36.5q-21 -21 -41 -51q-19.5 -29.5 -41 -73q-21 -42 -39 -87.5q-17.5 -45 -29 -84.5q-11.5 -39 -13.5 -63.5q-0.5 -15.5 -3.5 -23q-3 -7 -12 -15q-10 -10 -23.5 -17.5q-14 -7 -26 -8l-0.5 0l-0.5 0q-8.5 0 -14 5.5q-5 5 -5.5 13q0 2.5 1.5 9.5q1.5 7 3.5 15q18 63 26 130.5q8 67 8 147q0 81.5 -13 146q-13 65 -38 113q-36.5 66 -94 102q-58 36 -128.5 36.5q-92 -1 -145 -60.5q-52.5 -59 -53.5 -164q0 -74.5 28.5 -149q28.5 -74 84 -143q29 -36.5 63.5 -66q34.5 -29.5 66.5 -45.5q22 -11 28 -16q6.5 -5 6 -11.5q-0.5 -9.5 -10.5 -21q-9.5 -11.5 -23 -19.5q-13 -8.5 -24 -8.5q-4 0 -7.5 1q-3.5 1.5 -6.5 4q-43.5 30.5 -95.5 48q-52 18 -99.5 18.5q-27 0.5 -45.5 -10q-18.5 -10.5 -41.5 -38l-14 10" />
</g>
<g id="PathID_146" transform="matrix(0.0107353, 0, 0, 0.0107353, 20.3, 11.05)">
<path style="fill:#000000;fill-opacity:1" d="M484 -825.5q32 20.5 44.5 34q12.5 14 12 26.5q0.5 11.5 -12.5 34q-13 22.5 -47 66q-33.5 43.5 -95 118q-31 38 -48.5 62.5q-17 24.5 -24 42q-7 17 -6.5 33q0 20.5 9 40.5q9.5 20.5 30 45.5q39.5 46 63 74l37.5 45q14 17.5 24.5 32q11 14.5 24.5 34.5q27 38 49.5 76q22.5 37.5 36.5 68q12.5 27 19 35q6.5 8 16 7q16 0 25.5 -16q9 -16 9 -45.5q0.5 -20 -3 -36q-4 -15.5 -12 -31.5q-17.5 -35 -62 -83.5q-44 -49 -126.5 -125.5l-41 -37q-13 -12 -18.5 -17.5l-12.5 -13q-15 -15.5 -23 -29q-7.5 -13.5 -7.5 -24q-0.5 -14.5 11 -34q11.5 -19.5 38 -49q17.5 -19.5 51 -52q34 -33 71.5 -67q37.5 -34 66 -58q27 -22 39.5 -33.5q13 -11.5 16.5 -17.5q4 -6.5 3.5 -12.5q0 -10.5 -5 -20q-5.5 -9 -17.5 -21q-15 -14 -36 -26.5q-21 -12.5 -42 -20q-21 -7.5 -36 -8l-11.5 1q-4.5 1 -10 3" />
</g>
<g id="PathID_147" transform="matrix(0.0107353, 0, 0, 0.0107353, 31.25, 11.05)">
<path style="fill:#000000;fill-opacity:1" d="M192.5 -169q-36.5 0.5 -66.5 18q-29.5 18 -47.5 47.5q-17.5 30 -18 66.5q0.5 37 18 67q18 29.5 47.5 47.5q30 17.5 66.5 18q36.5 -0.5 66.5 -18q29.5 -18 47.5 -47.5q17.5 -30 18 -67q-0.5 -37 -18 -67q-17.5 -29.5 -47 -47q-30 -17.5 -67 -18M192.5 -136q42.5 1 70 29q28 28 29 70q-1 42.5 -29 70.5q-27.5 28 -70 29q-41.5 -1 -70 -29.5q-28 -28 -29 -70q1 -42 29 -70q27.5 -28 70 -29" />
</g>
</svg>
