<?xml version="1.0" encoding="utf-8"?>
<svg version="1.1" id="Layer_1"
xmlns="http://www.w3.org/2000/svg"
xmlns:xlink="http://www.w3.org/1999/xlink"
xmlns:author="http://www.sothink.com"
width="9px" height="12px"
xml:space="preserve">
<g id="PathID_106" transform="matrix(0.0115196, 0, 0, 0.0115196, -2, 10.35)">
<path style="fill:#000000;fill-opacity:1" d="M849 -211q0 -90 -66 -138.5q-65.5 -49 -194 -56q49.5 -4 97.5 -23q47.5 -18.5 79 -55.5q31.5 -37 32.5 -94.5q-0.5 -63.5 -30.5 -103q-30.5 -40 -84.5 -58.5q-54 -18.5 -127 -18.5l-361.5 0q-10.5 0 -15.5 4q-5 3.5 -5 8q0 5 3.5 9q3.5 4.5 11 7.5q37 0.5 54.5 6.5q17 6.5 22.5 15q5 9 6 16.5q3 17 5 59q2 42 2 119l0 239.5q0 78.5 -1 133q-1.5 54.5 -5 73q-2.5 12 -8 20q-5.5 7.5 -21.5 12.5q-16.5 4.5 -51.5 7.5q-6 3 -10 8q-3.5 4.5 -3.5 9.5q0 4.5 5 7.5q5 3.5 15.5 3.5l342 0q40 0.5 92 -7.5q52 -8.5 101 -30.5q49.5 -22.5 82 -64.5q32.5 -41.5 33.5 -108.5M697.5 -582.5q-0.5 47.5 -17.5 80q-17 32.5 -43.5 52q-27 19.5 -57.5 28.5q-30.5 8.5 -58 8.5l-133 0q-5.5 0 -10 -1q-4.5 -1 -8.5 -3l0 -141.5q0 -29 0.5 -58.5q0.5 -29.5 1.5 -53q1 -23.5 3 -36q0 -4 6 -11.5q6 -7.5 16.5 -10l34.5 -1.5q25.5 -0.5 54 -0.5l46 0q68 0.5 104 21.5q36 20.5 49.5 54q13 33.5 12.5 72M741.5 -205.5q0 47.5 -21.5 87.5q-21.5 39.5 -65 64q-43.5 24 -109 24.5q-62.5 0.5 -98 -2.5q-36 -3 -53 -12.5q-17 -9 -21.5 -28q-4.5 -19.5 -4 -51.5l0 -257q1.5 -2 6 -3q4 -1 9.5 -1l144.5 0q65.5 -0.5 112.5 15.5q47.5 15.5 73.5 55q25.5 39 26 109" />
</g>
</svg>
