<?xml version="1.0" encoding="utf-8"?>
<svg version="1.1" id="Layer_1"
xmlns="http://www.w3.org/2000/svg"
xmlns:xlink="http://www.w3.org/1999/xlink"
xmlns:author="http://www.sothink.com"
width="11px" height="13px"
xml:space="preserve">
<g id="PathID_148" transform="matrix(0.010049, 0, 0, 0.010049, -0.15, 10.5)">
<path style="fill:#000000;fill-opacity:1" d="M560.5 -541.5q-5.5 37 -10 61q-5 23.5 -11.5 47.5q-16.5 59.5 -40.5 118q-23.5 58.5 -51 105.5q-39 69.5 -92.5 133.5q-53.5 63.5 -121.5 121.5l10.5 12q83.5 -54.5 142 -110q59 -55.5 105.5 -124.5q32.5 -47 57 -96.5q24 -49.5 42.5 -109q18.5 -60 35 -136.5q21.5 -10.5 28 -15.5q6.5 -5.5 5.5 -11q0 -4 -1.5 -6.5q-2 -3 -6.5 -7q-18 -14.5 -30 -23.5q-12 -9 -31.5 -22.5q-10 12.5 -17 20l-18 20l-129 0q11 -30 18.5 -56.5q7.5 -26.5 13.5 -55q5.5 -28.5 11 -66l213 0q7 0 10.5 -1.5q4 -1.5 4 -4.5q0 -2.5 -1.5 -5q-1 -3 -2.5 -5.5q-15.5 -16 -26.5 -26.5q-10.5 -10.5 -22 -21l-27.5 -25q-17.5 19.5 -28 32.5q-10.5 12.5 -27 33l-169 0q-26 0 -49.5 -2.5q-23.5 -2.5 -47 -7.5q4 18.5 8.5 37.5l28.5 -2.5l26 -1q13.5 -0.5 33.5 -0.5l6 0q-5 41.5 -10.5 75q-6 33.5 -13.5 65q-7.5 31.5 -18 67q-15 49.5 -32.5 92.5q-17.5 43.5 -39 85.5q-22 42 -50.5 88.5l9.5 10q29.5 -30.5 50 -55q20 -24.5 37 -51.5q17.5 -27 38 -65.5q17.5 25 31.5 55q13.5 30 21.5 62q6 21 10 27.5q3.5 6.5 9.5 6q8.5 -0.5 17.5 -10.5q9 -10.5 15 -25.5q6 -14.5 6.5 -28.5q-0.5 -10 -7 -22q-6.5 -11.5 -16.5 -21q-17.5 -15 -39.5 -31q-22 -15.5 -40.5 -26q12.5 -27 22 -49q9.5 -21.5 19 -47.5l142.5 0M27 -344q27 -29.5 46.5 -52.5q19 -23 35 -45q15.5 -21.5 32 -48l0 211l-1 124q-0.5 49 -0.5 79q-0.5 30 -0.5 49.5q-0.5 19 -0.5 35.5q-0.5 16 -0.5 37l0 1.5l0 1.5q0 7.5 2.5 10.5q3 3 9.5 2.5l25 -1q14.5 -1.5 22.5 -4q4.5 -0.5 6.5 -2.5q2 -2 3.5 -6.5l0 -24l0 -18l0 -15l0 -19l-1 -126.5q-0.5 -46 -0.5 -69.5q-0.5 -23.5 -0.5 -36.5l0 -27.5l0 -205q19 -5 25.5 -8.5q6.5 -3.5 6 -9q1 -7 -15 -12q-16.5 -5 -56.5 -9.5q30 -54.5 51.5 -99.5q21.5 -44.5 37.5 -86q16.5 -41.5 30 -86q22.5 -4 32 -8.5q9 -4.5 9 -12q0.5 -4.5 -7.5 -8.5q-7.5 -4 -31 -10.5q-23.5 -6 -70 -16.5q-5.5 45 -21.5 101q-16 56 -46.5 135.5q-21 54.5 -41 98.5q-19.5 43.5 -42 84q-22.5 40.5 -52 86l13.5 10M754 -686q16.5 -4.5 25 -10q8.5 -6 8.5 -12.5q0.5 -5 -6.5 -8.5q-7.5 -3 -29 -5.5l-63.5 -4.5q1.5 14 2 24.5q1 10 1.5 24.5q0 14 0.5 39l0 69l0 86q0 36 -0.5 67.5q0 31 -0.5 66l-1 81q-1 46.5 -2 113q-0.5 7 3 10q3 3.5 10 3.5q32 0 43 -3.5q10.5 -3.5 11.5 -14l0 -60.5q0 -22.5 -0.5 -38.5l0 -33q-0.5 -17 -0.5 -44l-1 -111l0 -88l0 -44l0 -106.5M650.5 -9l63.5 8q21.5 3 31 6q10 3 18 7.5q15 8 23.5 19.5q9 12 15.5 33.5q30.5 -5.5 49.5 -12.5q19 -7 34.5 -18q18 -12 25.5 -26q7.5 -14.5 7 -35.5l0 -5l0 -7l-1 -154l1 -107.5l0 -486.5q25 -8 34 -13q9.5 -4.5 9 -10.5q0.5 -8.5 -26 -15.5q-27 -6.5 -88.5 -14l1.5 22.5q0.5 9 0.5 20l0 31l0 727.5q0.5 11 -2.5 15q-3 4.5 -12 6.5q-24 0 -40 -0.5l-36.5 -2l-57.5 -4q-7.5 0 -20.5 -0.5l-29.5 -1.5l0 16.5" />
</g>
</svg>
