<?xml version="1.0" encoding="utf-8"?>
<svg version="1.1" id="Layer_1"
xmlns="http://www.w3.org/2000/svg"
xmlns:xlink="http://www.w3.org/1999/xlink"
xmlns:author="http://www.sothink.com"
width="7px" height="12px"
xml:space="preserve">
<g id="PathID_163" transform="matrix(0.0107353, 0, 0, 0.0107353, -2.5, 10.7)">
<path style="fill:#000000;fill-opacity:1" d="M790.5 -691q0 -40.5 -15 -62.5q-15.5 -22 -45.5 -22.5q-47 1 -104.5 49q-57.5 47.5 -113.5 131q-55.5 83 -96.5 190.5q-41.5 107.5 -56 227.5q-27.5 19.5 -58 34q-30.5 14 -66 25.5q-1.5 0.5 -1.5 3q-0.5 2 -0.5 5q0 7.5 3 14q2.5 6.5 7.5 7.5q34 -11.5 62.5 -26q28 -14.5 54 -29.5q0 5.5 -1 10.5q-1 4.5 -1 9q0.5 48.5 16 80.5q15.5 31.5 37.5 46.5q21.5 15.5 42 15.5q42 -0.5 75 -20q33 -19 57 -51.5q24 -32 37.5 -71l0 -1q0 -4.5 -6.5 -8.5q-6 -3.5 -12.5 -3.5l-3 0q-1.5 0 -1.5 1q-14.5 29.5 -33 55q-18 25 -41 40.5q-22.5 15.5 -50.5 16q-20.5 0.5 -37 -22.5q-16.5 -23.5 -17.5 -79q0 -10.5 1.5 -22.5q1 -11.5 2.5 -24.5q58.5 -39.5 122 -96.5q63 -57 118.5 -126q55 -69 89.5 -144q34.5 -75 35.5 -150.5M742.5 -717.5q-2.5 72 -31 145q-29 73 -75 141q-46.5 68.5 -101.5 125.5q-55 57.5 -110 98q8 -34.5 26 -87q18 -52.5 43.5 -113.5q26 -61 56 -121.5q30 -60 61.5 -110q32 -49.5 62 -79.5q30.5 -30 56 -31q7 0 10.5 8.5q3 9 3 24.5l-1 0" />
</g>
</svg>
