<?xml version="1.0" encoding="utf-8"?>
<svg version="1.1" id="Layer_1"
xmlns="http://www.w3.org/2000/svg"
xmlns:xlink="http://www.w3.org/1999/xlink"
xmlns:author="http://www.sothink.com"
width="130px" height="14px"
xml:space="preserve">
<g id="PathID_111" transform="matrix(0.0107353, 0, 0, 0.0107353, -1.6, 11.45)">
<path style="fill:#000000;fill-opacity:1" d="M148.5 -665.5q23 30 45 47.5q22 17 47.5 24.5q25.5 7 60 7l29.5 -1q14.5 -1.5 39 -5q-36 54 -65.5 93q-29.5 38.5 -59.5 68.5q-29.5 30 -65.5 58.5q-14 11 -20.5 17.5q-6 6 -8 12q-1.5 6 -1 16.5q0 24.5 7.5 39.5q7.5 14.5 20 14.5q7.5 0.5 15.5 -6.5q8.5 -6.5 22.5 -26q56 -71 113.5 -109.5q57 -38.5 108.5 -39q17.5 0 31 8.5q14 8 21.5 22q7.5 15.5 10.5 32.5q3 17.5 3.5 48.5q-49.5 31 -78.5 51.5q-29.5 21 -48.5 39.5q-37.5 36 -55.5 70q-18 34.5 -18 70.5q0 37 18 63.5q18.5 26.5 57.5 45q31 14.5 83.5 22q52 7.5 124.5 7.5q32.5 0 66.5 -2l65 -5q30.5 -3 52 -7.5q15.5 -3 23.5 -10q8.5 -7.5 8.5 -17.5q-0.5 -11.5 -11.5 -23.5q-11 -11.5 -27.5 -19.5q-16.5 -8 -33 -8l-9 0.5l-10.5 2.5q-47 13.5 -99.5 21q-52.5 7.5 -106.5 7.5q-86 0 -128.5 -20q-42.5 -20.5 -42.5 -62q0 -23 12.5 -46.5q12.5 -24 38 -48.5q19 -18.5 46 -37q27 -18.5 73.5 -44q-0.5 34 -2.5 60.5q-1.5 27 -4.5 49q-1 5.5 -1 9.5l0 8q0 13.5 9 22q9 8.5 23.5 8.5q9.5 0 17 -5.5q8 -5 12 -13.5q3.5 -8 6 -31q2 -22.5 2 -57l0 -34q0 -12.5 -0.5 -23q0 -10.5 -0.5 -26q41 -20.5 93 -42q52 -21.5 101 -38.5q49 -17.5 80.5 -25q21.5 -4.5 29.5 -11q8 -7 7.5 -20.5q-1 -21.5 -20 -45q-19 -24 -45.5 -41q-26.5 -16.5 -50 -17.5l-10.5 1q-5 1.5 -13 5q22.5 9.5 34.5 22.5q12.5 12.5 12.5 25.5q0.5 9 -10 19.5q-11 10 -38.5 25.5q-27.5 16 -77.5 41q-41 20.5 -59.5 30q-18 9.5 -26 13q-7.5 3.5 -15 7.5q-7.5 -47 -38.5 -74.5q-30.5 -27.5 -76.5 -28q-28 0 -59 9.5q-30.5 9.5 -73 31.5l17 -24l16 -24l22.5 -34q17 -26 29 -43.5q12 -18 25 -36.5q41 -8 74.5 -15.5q34 -8 69 -18q35 -10 80 -24.5q23 -8 33.5 -16q10.5 -8 10.5 -17q-0.5 -15 -19.5 -24q-18.5 -9.5 -49 -10q-5.5 0 -10 2q-5 1.5 -9.5 5.5q-16.5 14 -34.5 24q-17.5 10.5 -44 20q-26.5 9.5 -69 21.5l8.5 -12.5l17 -27.5l14.5 -20.5q8 -12 15 -21.5q9 -11 13 -18q3.5 -6.5 3.5 -11.5q0 -9.5 -9 -18q-8.5 -8.5 -28 -16q-20 -8.5 -41 -13q-20.5 -4.5 -38.5 -4.5q-14 0 -24 2.5q-10 2 -22.5 9q39.5 9.5 56.5 23q17 14 16.5 34q0 17.5 -9.5 44.5q-9.5 27 -26.5 60q-34.5 7 -60 10.5q-25.5 3 -49.5 3q-27 0 -46.5 -4q-20 -4 -38.5 -14.5q-19 -10.5 -43 -29.5l-11 9" />
</g>
<g id="PathID_112" transform="matrix(0.0107353, 0, 0, 0.0107353, 9.35, 11.45)">
<path style="fill:#000000;fill-opacity:1" d="M833.5 -302l0 56.5q0 6.5 3 9.5q3 2.5 10.5 2.5q14 0 30 -2q16 -1.5 23.5 -4q4.5 -2 6 -4.5q2 -2.5 2 -8q-1.5 -43 -2.5 -78q-1 -35 -1.5 -68.5q-0.5 -33.5 -0.5 -72.5l0 -45l1 -61.5q19 -10.5 25.5 -16q7 -5.5 7.5 -10.5l0 -1q0 -4 -3 -7.5q-3 -3.5 -8.5 -8l-22.5 -16l-19 -13l-25 -16l-18 22.5l-18.5 22.5l-285 0l0 -184.5q29 -10 38 -15q9 -5 8 -11.5q1 -7.5 -13 -11q-14.5 -4 -55.5 -7.5l-22 -1l-31.5 -3q2 16 3 29q1.5 13 2 34q0.5 21 0.5 61l1 109.5l-253 0q-18.5 -11 -31.5 -18q-12.5 -7 -25.5 -13q-13 -5.5 -32 -13l1.5 70.5q0.5 30 0.5 55l0 51.5l-1 68.5q-0.5 61 -2 176.5q0 7.5 3.5 10.5q3.5 3 13 2.5l28.5 -1.5q16 -2 22.5 -3.5q4.5 -1.5 6 -3.5q2 -2.5 2 -7.5l0 -56.5l267.5 0l0 97.5l0 73q0 28.5 -0.5 52.5q0 24.5 -0.5 57.5l-1 87q-0.5 7 2.5 9q3 2.5 10.5 2.5q15 0 31.5 -2q17 -2 24 -4.5q3.5 -1 5.5 -3.5q1.5 -2 1.5 -6.5l-1.5 -104l-1 -70.5q0 -29.5 -0.5 -55.5l0 -57l0 -75.5l294 0M833.5 -325.5l-294 0l-1 -177.5l0 -94l295 0l0 271.5M469 -325.5l-267.5 0l0 -271.5l267.5 0l0 52l0 219.5" />
</g>
<g id="PathID_113" transform="matrix(0.0107353, 0, 0, 0.0107353, 20.3, 11.45)">
<path style="fill:#000000;fill-opacity:1" d="M189.5 -489.5q-5 47.5 -12 80q-6.5 33 -18.5 65.5q-13.5 39 -33.5 71.5q-19.5 32 -40.5 52.5q-17 15 -22 23.5q-5 8.5 -4.5 20.5q0.5 29.5 9 50.5q9 21 21.5 22q13 0 30 -17.5q17 -17 32.5 -47q17.5 -32 30 -75.5q13 -43 19.5 -93q7 -49.5 7 -100.5l0 -23q-0.5 -10 -1 -29.5l-17.5 0M318.5 -171l0 32l-1 40l-3 75.5q1 22.5 9.5 34q8 11.5 26 17.5q8 3.5 27.5 5l63 2.5q44 0.5 125.5 0.5q37 0 75.5 -1.5l69.5 -4q31 -2 43.5 -4.5q23 -5 34.5 -14q11.5 -9 11.5 -22q0 -11 -7.5 -18q-8 -7.5 -23 -9.5q-10 -2 -15.5 -6.5q-5 -4.5 -5 -12l0 -3l13 -223.5l-13 -1l-30 125q-12 47 -19.5 71.5q-7.5 25 -13 35q-4.5 10 -15 15.5q-10.5 5 -33 7l-63.5 2l-36 0q-22 -0.5 -45.5 -0.5q-23.5 0 -40.5 -0.5l-21.5 0q-25.5 -1 -33.5 -5.5q-8 -4 -7.5 -16l0 -532.5q21.5 -8 31.5 -12q9.5 -4 11.5 -6.5q2.5 -2.5 2 -7q1 -5.5 -7 -9.5q-8.5 -4 -35 -8.5q-26 -5 -80.5 -13q2 34 3.5 71q1.5 37.5 1.5 70.5l0 326.5M339 -814q71 35 132.5 80.5q61.5 45 108 97.5q11 13 17.5 18q6.5 5 11 5q9 -0.5 14.5 -13.5q6 -13 6 -33q0 -11 -2 -23q-2.5 -12.5 -6 -23q-4 -9 -10.5 -16q-7 -7 -19.5 -14.5q-32.5 -20.5 -66 -35.5q-33 -15.5 -75.5 -29q-43 -13 -103 -28l-7 14.5M769 -489.5q29.5 49 51.5 97q22 48 39.5 101.5q17 53.5 31.5 118q4.5 20.5 10 29.5q5 8.5 13 8.5q6.5 0 13.5 -7q7.5 -7 15 -21.5q9.5 -19 15 -39q5.5 -19.5 5.5 -34q0 -42.5 -46 -108q-45.5 -66 -135.5 -153l-13 8" />
</g>
<g id="PathID_114" transform="matrix(0.0107353, 0, 0, 0.0107353, 31.25, 11.45)">
<path style="fill:#000000;fill-opacity:1" d="M317.5 -794q31.5 5.5 48.5 14q17 8.5 25 23q4 7 6 18q2.5 11 3.5 34q1.5 23 3 66l2.5 60.5q1 23 2 37.5q1 14 2.5 26q3.5 32.5 11 51q7 18.5 18.5 26.5q12.5 9 23 12.5q10 3 26.5 3q-45 24 -74 43q-29 19.5 -51 39q-50.5 42 -75.5 84.5q-25 43 -25 87.5q0.5 51.5 30 91.5q29.5 40 81.5 60q32.5 11.5 75.5 17.5q43 6 98.5 6q32 0 71 -2l74 -5q34.5 -3 52 -6.5q24 -4 34 -12q10 -8 10 -21.5q-1 -19.5 -18 -34.5q-16.5 -15 -37.5 -16q-4.5 0 -8.5 1l-12 2.5q-37.5 8.5 -80 15q-43 7 -84 10.5q-41 4 -73.5 4q-85.5 0 -128.5 -28q-43.5 -28.5 -43.5 -83.5q0 -36 19 -67.5q19.5 -32 61 -63.5q31.5 -24.5 67.5 -44q35.5 -19.5 81.5 -36.5q45.5 -17 107 -34.5q34.5 -9.5 49 -14.5q15 -5 19.5 -7q10.5 -4.5 16 -12.5q5.5 -8 5.5 -18q-1 -17 -15.5 -29.5q-14.5 -13 -33.5 -13.5q-9 0 -19 2.5q-9.5 3 -23 9.5q-46 22 -72.5 33.5q-26 11 -40.5 15q-14.5 4 -24.5 4q-23 1 -31.5 -15.5q-9 -16 -8.5 -60.5q0.5 -43 3.5 -84q3 -40.5 8 -73.5q5 -32.5 11 -50q5.5 -13 7 -17.5q1.5 -4 1.5 -9.5l0 -0.5l0 -1.5q0 -10.5 -6.5 -18.5q-7 -8 -22.5 -14q-12.5 -5.5 -30.5 -10q-18.5 -4 -37.5 -7q-19.5 -2.5 -35 -2.5q-15 -0.5 -24 3q-9.5 3.5 -20 13" />
</g>
<g id="PathID_115" transform="matrix(0.0107353, 0, 0, 0.0107353, 42.2, 11.45)">
<path style="fill:#000000;fill-opacity:1" d="M846.5 -195.5q-26 22 -47 38q-20.5 16 -40 28.5q-20 12.5 -43 24.5q-59 31 -119.5 48q-61 17 -114 17.5q-27 0 -50.5 -7.5q-23.5 -7 -40.5 -20q-21.5 -17.5 -31.5 -47q-9.5 -29.5 -9.5 -76q0 -37 3.5 -91.5q3.5 -54 9.5 -115.5q6 -61.5 13 -119.5q7 -58 14 -102q7.5 -43.5 13 -63q6.5 -17 8.5 -24.5q1.5 -7.5 1.5 -12.5q0 -16 -15 -31.5q-15 -15 -44.5 -29q-24.5 -10.5 -49 -17q-25 -6.5 -43.5 -6.5q-8 0 -14 2q-6.5 2.5 -14.5 8.5q36 14.5 54 29.5q18 14.5 23.5 39q6 24.5 5.5 67.5q0 17.5 -0.5 37.5q-0.5 20 -2 52l-4.5 86.5q-3 47 -4.5 93q-2 46 -3 85.5q-1 40 -1 68.5q0 64.5 6.5 105.5q7 41.5 22 67.5q24 41.5 67.5 64q44 22.5 102.5 23q64 0 128 -25.5q63.5 -25 122.5 -72.5q59.5 -47 109 -114l-12.5 -11" />
</g>
<g id="PathID_116" transform="matrix(0.0107353, 0, 0, 0.0107353, 53.15, 11.45)">
<path style="fill:#000000;fill-opacity:1" d="M107.5 -668q-6.5 9 -9 15q-2.5 6 -2 12q0 12.5 7 31q7 18.5 19.5 37.5q18 28 39 44q21 16 40 16.5q9 0.5 17.5 -2.5q8.5 -3 23.5 -12q25.5 -13.5 70 -31.5q44 -18 93.5 -34q58 -19 107.5 -32q49 -13.5 94.5 -23q45.5 -9 92 -15.5q-42.5 21.5 -72 39.5q-30 18.5 -52.5 36.5q-22.5 18.5 -42.5 40.5q-53.5 58 -82.5 122.5q-28.5 64.5 -29 127.5q0 71.5 30 129.5q30 58 88.5 100q29.5 20.5 66.5 37.5q37 16.5 74.5 26q37 10 67 10q17 0 27.5 -7.5q10 -8 10.5 -21q-0.5 -9.5 -8.5 -22.5q-8.5 -12.5 -22.5 -26.5q-10.5 -10 -19.5 -13.5q-8.5 -3.5 -23.5 -3q-22.5 -1 -50.5 -7.5q-28 -6.5 -54 -17q-66 -29 -100.5 -80q-34.5 -51 -34.5 -122q0.5 -65 29 -125.5q28.5 -60.5 77.5 -108.5q48.5 -48 110 -76q61.5 -28.5 127.5 -29l13 0.5q6 0 15.5 1.5q5.5 1 10.5 1l8 0q15 0 23.5 -7q8.5 -7 8.5 -18.5q0 -10.5 -7.5 -20q-7 -9 -22.5 -19q-15.5 -9.5 -30.5 -15.5q-15 -6 -24.5 -6q-6 0 -13.5 2q-7.5 1.5 -22.5 6q-15 5 -32 10q-17.5 4.5 -42.5 10q-25 5.5 -63.5 13q-51 10 -92.5 19q-41.5 9 -73.5 17q-85 20.5 -137 32.5q-52 12.5 -80 18.5q-28 6 -42.5 8l-24 1.5q-15 0 -25.5 -3.5q-10 -4 -20.5 -14q-12 -10.5 -19.5 -22.5q-7.5 -12 -14.5 -30" />
</g>
<g id="PathID_117" transform="matrix(0.0107353, 0, 0, 0.0107353, 64.1, 11.45)">
<path style="fill:#000000;fill-opacity:1" d="M529.5 -533.5l0 -50q24.5 -6 33 -10q8.5 -4 8 -10.5q0.5 -4 -4 -7q-4 -2.5 -18 -5.5l-42.5 -7q21 -19.5 40 -40.5q19.5 -21.5 45 -53l53 0q21.5 27.5 35.5 58q14 30 25 72q2.5 11.5 6.5 17.5q4.5 5.5 10 5.5q7.5 -0.5 16 -10.5q9 -9.5 15 -22.5q6.5 -13.5 7 -24.5q0 -10.5 -7 -21q-7 -10.5 -25 -26.5q-19.5 -17.5 -32 -27q-13 -9.5 -32.5 -21l302 0q3.5 0 6.5 -2q2.5 -2 3 -5q0 -1.5 -1.5 -3.5q-1.5 -2 -5 -5q-48 -36.5 -96 -73.5l-29.5 31.5q-11 13 -30 34l-201.5 0q14 -18 23 -32q9 -13.5 22 -35.5q25 -3 36.5 -8q11.5 -4.5 11.5 -11.5q1 -4.5 -6.5 -8q-7 -3.5 -31.5 -8.5l-74.5 -13q-15 59 -40.5 115.5q-26 56.5 -64 115.5l-14 -1l-12.5 -2l3 38l1 19.5l0 15.5l0 22.5l-203 0q-23.5 0 -42 -2.5q-19 -2.5 -42.5 -9l8 43q19 -3.5 31 -5q11.5 -2 21.5 -2.5q10.5 -0.5 24 -0.5l203 0l0 124l-304 0q-22 0 -37.5 -0.5q-15 -1 -29 -3q-14.5 -2 -34 -6.5l7 40.5l32 -4.5l26 -2q13.5 -0.5 35.5 -0.5l495.5 0l0 118.5l-479 0q-23.5 0 -38 -1q-15 -0.5 -27 -3q-12 -2 -26.5 -6q3.5 20.5 7.5 41.5q11.5 -3.5 22 -5q10 -2 24 -2.5q14 -0.5 38 -0.5l479 0l0 197.5q0 10 -3 13.5q-3 3 -10.5 3l-2 0l-3 0l-58 -2.5l-39 -2l-33.5 -2l-42.5 -2.5l0 16q39 5 61 9q22.5 3.5 34.5 8q12 4.5 20 11q10.5 7 16 18.5q5 11.5 8 32.5q33.5 -5 54 -12q20.5 -6.5 36 -17.5q15 -9.5 21.5 -23q6.5 -13.5 9 -39.5q-0.5 -48.5 -0.5 -70q-0.5 -21.5 -0.5 -29.5l0 -14.5l0 -94l231.5 0q3 0 6 -2q3 -2 3 -4q0 -1.5 -1 -4q-0.5 -2 -3 -4.5q-18.5 -16 -31 -27.5l-26 -21.5q-12.5 -11 -31 -26.5l-20 23.5l-16.5 19l-20 24l-92 0l0 -118.5l243.5 0q5 0 8 -2q3.5 -2 3.5 -4q0 -1.5 -1.5 -4l-3.5 -5.5q-19 -17 -32 -28l-26.5 -22.5l-33 -26l-22.5 23.5q-9 10 -17.5 20q-9 10 -21 25l-291 0l0 -124l324.5 0q3.5 0 5.5 -2q2.5 -2 3 -4q0 -3 -3.5 -6.5q-16 -14.5 -27 -25l-22 -19.5q-11 -10 -27.5 -24q-15 17.5 -25.5 29q-10.5 11 -29 28.5l-198.5 0M231.5 -740.5q12.5 -19.5 20.5 -34.5q7.5 -15 18.5 -39q27.5 -4.5 37 -8q9.5 -3.5 9 -9.5q0 -2 -1.5 -4l-3.5 -4.5q-3 -2.5 -13.5 -5.5q-10 -2.5 -40 -7.5q-9 -1.5 -22 -4.5l-31 -6q-4 20 -9 37.5q-4.5 17.5 -12 36.5q-7.5 19 -19 45q-26 57 -52 100.5q-26.5 43 -61.5 85l15 10q43.5 -39.5 79.5 -80q36 -41 69 -88l55.5 0q14 25 23 45.5q9 20 15 39.5q5.5 19.5 10 43q4.5 20.5 7 26.5q2.5 6 8.5 5.5q15.5 -1.5 29 -19.5q13 -18.5 14 -39q0 -7.5 -4 -16.5q-4 -8.5 -12.5 -18.5q-18.5 -22.5 -35 -37q-17 -15 -40.5 -29.5l223 0q4 0 7 -2.5q3 -2 3 -4.5l-0.5 -2.5l-2.5 -3q-17 -15.5 -28.5 -26.5l-23.5 -22l-28.5 -27q-17.5 19.5 -28 32.5q-11 12.5 -27.5 32l-147.5 0M270.5 -192q35.5 30 60.5 60.5q24.5 30 47 70.5q15.5 30 22 38q6.5 8.5 13 7.5q11.5 -1.5 20.5 -20.5q8.5 -19.5 9 -45.5q0.5 -18.5 -14.5 -35.5q-14.5 -17 -50.5 -36.5q-36 -20 -99 -46.5l-8 8" />
</g>
<g id="PathID_118" transform="matrix(0.0107353, 0, 0, 0.0107353, 75.05, 11.45)">
<path style="fill:#000000;fill-opacity:1" d="M846.5 -195.5q-26 22 -47 38q-20.5 16 -40 28.5q-20 12.5 -43 24.5q-59 31 -119.5 48q-61 17 -114 17.5q-27 0 -50.5 -7.5q-23.5 -7 -40.5 -20q-21.5 -17.5 -31.5 -47q-9.5 -29.5 -9.5 -76q0 -37 3.5 -91.5q3.5 -54 9.5 -115.5q6 -61.5 13 -119.5q7 -58 14 -102q7.5 -43.5 13 -63q6.5 -17 8.5 -24.5q1.5 -7.5 1.5 -12.5q0 -16 -15 -31.5q-15 -15 -44.5 -29q-24.5 -10.5 -49 -17q-25 -6.5 -43.5 -6.5q-8 0 -14 2q-6.5 2.5 -14.5 8.5q36 14.5 54 29.5q18 14.5 23.5 39q6 24.5 5.5 67.5q0 17.5 -0.5 37.5q-0.5 20 -2 52l-4.5 86.5q-3 47 -4.5 93q-2 46 -3 85.5q-1 40 -1 68.5q0 64.5 6.5 105.5q7 41.5 22 67.5q24 41.5 67.5 64q44 22.5 102.5 23q64 0 128 -25.5q63.5 -25 122.5 -72.5q59.5 -47 109 -114l-12.5 -11" />
</g>
<g id="PathID_119" transform="matrix(0.0107353, 0, 0, 0.0107353, 86, 11.45)">
<path style="fill:#000000;fill-opacity:1" d="M450.5 -414.5l-10 16.5l-7.5 13q-4.5 6.5 -12.5 19.5l-31 52.5q-11.5 19.5 -19.5 32.5q-7.5 13 -15.5 26l-20 33.5q-10.5 18.5 -16 27q-5.5 9 -9 14l-8.5 13q-19 -13.5 -30.5 -31.5q-12 -17.5 -23 -48.5q-11.5 -31.5 -17.5 -69q-6 -37.5 -6 -79.5q0 -31 4.5 -68.5q5 -37 14 -84l2.5 -15.5q0.5 -6.5 0.5 -11q0 -17.5 -11.5 -38q-11.5 -20.5 -34.5 -43q-23.5 -23 -43.5 -36.5q-20.5 -13.5 -33.5 -13.5l-4.5 0l-4.5 0q22 27.5 33 50q11 22 15 51q4 28.5 4.5 75q-0.5 54 0 85.5q1 31.5 2.5 52.5q1.5 20.5 4.5 42.5q7.5 61.5 25.5 114q18 52.5 44 90.5q16.5 24 37 43.5q20.5 20 41 31.5q20 12 34.5 12q9.5 0 16 -7.5q6.5 -7 6.5 -18q0 -4 -0.5 -8q-0.5 -4.5 -1.5 -8.5l-5 -24q-1 -5.5 -1 -10.5q-0.5 -20 8.5 -51q8.5 -31 29.5 -84.5q21 -53 58.5 -138l-15.5 -7M679 -580.5q43.5 23.5 75 56.5q31 33 52 77.5q8.5 19 15.5 43q7.5 23.5 11.5 48q4.5 24 4.5 43q0.5 14 -4 20q-4.5 6 -19.5 11l-41.5 12q-34.5 10 -97 27q1.5 7.5 3.5 15l43 -1.5q17.5 -0.5 34.5 -0.5q32.5 0 50 3q17.5 2.5 27 9.5q10.5 6.5 17 9q6.5 2.5 13.5 2q23.5 -0.5 37.5 -22q13.5 -21.5 14 -58.5q-0.5 -72 -31.5 -136q-30.5 -64 -82.5 -109.5q-52.5 -45.5 -117.5 -61l-5 12.5" />
</g>
<g id="PathID_120" transform="matrix(0.0107353, 0, 0, 0.0107353, 96.95, 11.45)">
<path style="fill:#000000;fill-opacity:1" d="M543.5 -507l0 -287.5q26.5 -8.5 36 -14q9.5 -5.5 9 -13q0.5 -6.5 -10 -11q-10.5 -4.5 -37 -9q-26.5 -4 -74.5 -9.5q1 38 2 61.5l1 39.5l1 32.5l0 39.5l0 51l0 36l0 36.5l0 47.5l-224.5 0q-37 0 -71.5 -3q-35 -2.5 -64.5 -7l5 39.5l20 -2l30.5 -1.5l66.5 -2.5l238.5 0l0 200l-303 0q-31.5 0 -58.5 -2.5q-27 -2.5 -57.5 -9q5 20 9.5 40l20 -3l27 -1q18 -0.5 56.5 -1l306 0l0 75q0 30 -0.5 54q0 24 -0.5 49.5l-1 60q-1 34.5 -2 86q0.5 8.5 4.5 11q4 2.5 16 2.5l28.5 -1.5q16 -1 21.5 -2.5q5 -1 7.5 -3.5q2 -3 2.5 -9l-3 -321.5l425 0q5 0 8.5 -2.5q3.5 -3 4 -6.5l-1.5 -3q-1 -1.5 -3 -3.5q-19.5 -18.5 -33 -30.5l-27.5 -24l-34.5 -28.5l-24.5 26.5l-19 21.5l-22 27l-272.5 0q-0.5 -55.5 -0.5 -87.5q-0.5 -32 -0.5 -50l0 -31l0 -31.5l384 0q5.5 0 9 -2q3 -2.5 3.5 -6q0 -1.5 -1.5 -4q-1.5 -2.5 -4 -5.5l-32.5 -29q-13.5 -11.5 -27.5 -22q-14 -10 -35 -24.5l-22 23q-9 9.5 -18 20q-9 10.5 -21.5 26.5l-234.5 0M168 -801q28.5 40.5 44 66q16 25 27.5 48q6.5 13 14.5 33q8.5 19.5 16 40q7.5 20 11.5 34.5q5.5 17 10.5 24q5.5 7 12 6.5q10 -0.5 19.5 -12q9 -11.5 15.5 -29q6 -18 6 -37q0 -16 -7 -30.5q-7 -14 -23.5 -33q-16 -18 -30 -31.5q-13.5 -13 -37 -32.5l-68.5 -54.5l-11 8M619.5 -526.5q47.5 -41 95.5 -95q48 -54 102 -128q28.5 -2.5 40.5 -6.5q12 -4.5 11.5 -12q0 -4 -2.5 -6.5q-2.5 -2.5 -7.5 -5l-23 -9.5q-16 -6.5 -36.5 -14q-20.5 -8 -41 -15.5q-30 76.5 -65.5 143.5q-35 67 -83 139.5l9.5 9" />
</g>
<g id="PathID_121" transform="matrix(0.0107353, 0, 0, 0.0107353, 107.9, 11.45)">
<path style="fill:#000000;fill-opacity:1" d="M986 -430q-41.5 -5.5 -74 -12q-32.5 -6.5 -63.5 -15.5q-31 -9 -68.5 -22.5q-34 -13 -61 -25.5q-26.5 -13 -51.5 -28q39 -33 69 -62q30 -29 57 -59q26.5 -30.5 55.5 -68.5q32 -8 44.5 -14q12 -5.5 11.5 -12.5q0 -3 -2.5 -6.5q-3 -4 -9.5 -11q-15 -13 -25.5 -22.5q-10.5 -9 -21.5 -17.5l-26 -21l-21.5 25q-8.5 10 -22.5 25l-345 0l-34 -1.5q-16 -1 -40.5 -5.5l9 35.5q18.5 -3 31 -4l28.5 -1l13.5 0q21 47.5 42.5 85q21.5 37.5 46 69.5q24.5 32 55.5 63.5q-78 68.5 -151 117.5q-73 49 -155 87l7 13.5q79.5 -29.5 137 -56q57 -26 104.5 -55.5q48 -29.5 98.5 -68.5q55.5 45.5 127.5 84q72.5 38.5 160 69.5q12.5 -33 28.5 -48.5q16 -15.5 46.5 -23l0 -13.5M776 -754.5q-24.5 37 -47 66q-23 29 -49 57q-26 28 -61.5 62.5q-54.5 -44.5 -92.5 -90q-38.5 -45 -64 -95.5l314 0M164 -209q0 24 -1.5 91l-2.5 178l0 1q0 8.5 4 12.5q4 4 13.5 4l38 -3.5q12 -2 15.5 -6q3.5 -4 3.5 -12q0 -10 0.5 -17l0.5 -12.5l-0.5 -10q-0.5 -7 -0.5 -15.5l0 -69.5l0 -76l0 -64.5l0 -173q21.5 -8.5 26.5 -12q5 -3 4 -6.5q1 -6.5 -13.5 -11q-14.5 -5 -54 -11.5q33 -38.5 57 -71q24 -32.5 48.5 -72q28 -3.5 37 -7.5q9 -3.5 8 -11q1 -5 -4 -8.5q-5.5 -4 -28 -12l-73.5 -25.5q-4 16.5 -7 25.5q-2.5 8.5 -9 21.5q-7.5 16.5 -18.5 38.5l-22 44.5q-11.5 22 -20 36.5q-32.5 56.5 -69.5 103q-37 46.5 -82 87.5l12.5 11.5q26.5 -17.5 46.5 -33.5q20 -15.5 41 -36q21 -20.5 49.5 -51.5l0 174M575.5 -232.5l-153.5 0q-17.5 0 -40 -3q-22.5 -3 -43 -8.5l7 40l40.5 -4l29.5 -1l159.5 0l0 216l-195.5 0l-43.5 -2q-20.5 -2 -47.5 -8l9 38.5l46.5 -4q18 -1 35.5 -1l600 0q7.5 0 11 -1q3 -1 3 -4q0 -1.5 -1 -4.5q-1.5 -2.5 -4 -5l-32.5 -29.5l-27 -23.5l-34.5 -29.5q-13.5 15 -22.5 25.5q-9 10.5 -17.5 21l-20.5 27l-188.5 0l0 -216l299 0q2.5 0 4 -2q2 -1.5 2 -4q0 -1.5 -1.5 -4.5q-1.5 -2.5 -4.5 -6q-18.5 -16 -31.5 -26.5l-25.5 -22l-32 -26q-19 19.5 -30.5 32.5l-30 35l-149.5 0l0 -111.5q20 -6 29.5 -12q9.5 -5.5 9.5 -11.5q0.5 -5 -9 -8.5q-9 -3 -34 -6q-24.5 -3 -70.5 -7q1.5 24.5 2.5 36.5q0.5 12.5 1 18.5q0.5 6 0.5 11.5l0 90M48.5 -556q59 -40.5 103 -76q44 -36 80 -73.5q36 -37 70.5 -82.5l30.5 -3q6 -1 9.5 -2.5q4.5 -1 7.5 -4q2.5 -3 3 -6q0 -5 -9 -11q-9 -6.5 -32.5 -16.5q-23.5 -9.5 -67.5 -26q-10 26.5 -23 51.5q-13 25 -37 62.5q-22.5 36 -44 64.5q-21 28 -46 54q-24.5 26 -57.5 55.5q6 6.5 12.5 13" />
</g>
<g id="PathID_122" transform="matrix(0.0107353, 0, 0, 0.0107353, 118.85, 11.45)">
<path style="fill:#000000;fill-opacity:1" d="M511 -3q64 -11 110 -25.5q46.5 -14.5 89.5 -38q97.5 -52.5 150.5 -133q53 -80.5 53.5 -177.5q0 -74.5 -24.5 -134.5q-24.5 -60.5 -74 -106q-50 -45.5 -118 -69.5q-68 -24.5 -146 -24.5q-67.5 0 -132.5 17.5q-65 17.5 -121.5 49.5q-56.5 32 -98.5 76q-43 48 -67.5 101q-24 53 -24.5 102q0 24 5.5 46.5q6 22.5 18 46.5q14.5 28.5 23 44.5q8 16.5 13 28q5 11 9 24q8.5 24 13.5 36q4.5 12 7.5 18q3.5 6 8 11.5q8.5 10 20 15.5q11.5 6 25 6q28 0 66 -38q38 -38 86.5 -114.5q39 -63.5 69.5 -129.5q30.5 -66.5 47.5 -125.5q17.5 -58.5 18 -99.5q0.5 -21.5 -6.5 -40q-7 -19 -25.5 -45l19.5 -1.5l16.5 -0.5q49.5 0 96 12.5q46.5 12 81.5 34.5q56.5 36.5 86 94q29.5 57.5 29.5 132.5q0 71 -23 133q-23 62 -68 114q-43 50 -100.5 84q-57 34 -139.5 58q3.5 9 7.5 17.5M484 -677q8.5 18.5 11.5 29.5q3 11 3 22q-0.5 32.5 -17 83.5q-16.5 50.5 -45.5 111q-29.5 60.5 -67.5 122q-38.5 60.5 -71 97.5q-33 36.5 -50.5 37.5q-8.5 0 -18.5 -8q-10 -7.5 -20.5 -21.5q-19.5 -27.5 -30 -63q-11 -35 -11 -72.5q1 -79.5 42.5 -150.5q42 -71 113.5 -120.5q71 -50 161 -67" />
</g>
</svg>
