<?xml version="1.0" encoding="utf-8"?>
<svg version="1.1" id="Layer_1"
xmlns="http://www.w3.org/2000/svg"
xmlns:xlink="http://www.w3.org/1999/xlink"
xmlns:author="http://www.sothink.com"
width="8px" height="13px"
xml:space="preserve">
<g id="PathID_182" transform="matrix(0.0114216, 0, 0, 0.0114216, -0.5, 11.55)">
<path style="fill:#FFFFFF;fill-opacity:1" d="M209 -112.5l64.5 -54.5q42 -36.5 91.5 -81q49.5 -44.5 93 -89q49.5 -50.5 78.5 -92q29 -41 41.5 -79.5q12.5 -38.5 12 -80.5q-1 -78.5 -37 -131.5q-35.5 -53.5 -93 -80.5q-57.5 -27.5 -124 -27.5q-55 0.5 -101.5 16q-46.5 15.5 -81 39q-34.5 23 -54 47.5q-19 24 -19.5 41.5q0.5 22.5 17 40q16 17.5 41.5 18.5q11 0 20 -4q9.5 -4.5 20 -14.5q16.5 -15 38.5 -31.5q22 -16.5 51.5 -28q30 -11.5 69.5 -12q37 0.5 66 18q29 17.5 45 47q16.5 30 17 67q1 27.5 -13 64q-14.5 36 -58.5 86q-43.5 46 -94.5 94q-51 48.5 -96.5 88.5q-45 39.5 -70.5 60q-31.5 25.5 -50.5 43.5q-19 17.5 -28 34.5q-8.5 16.5 -8.5 39q1 36.5 18.5 52.5q17.5 16 44 19q26.5 3.5 54.5 3l412.5 0q28 0 42.5 -14q15 -14 15 -43.5q-1 -31.5 -17.5 -43.5q-17 -12 -40 -11.5l-366.5 0" />
</g>
</svg>
