<?xml version="1.0" encoding="utf-8"?>
<svg version="1.1" id="Layer_1"
xmlns="http://www.w3.org/2000/svg"
xmlns:xlink="http://www.w3.org/1999/xlink"
xmlns:author="http://www.sothink.com"
width="35px" height="13px"
xml:space="preserve">
<g id="PathID_107" transform="matrix(0.0107353, 0, 0, 0.0107353, -2.8, 11)">
<path style="fill:#000000;fill-opacity:1" d="M317.5 -794q31.5 5.5 48.5 14q17 8.5 25 23q4 7 6 18q2.5 11 3.5 34q1.5 23 3 66l2.5 60.5q1 23 2 37.5q1 14 2.5 26q3.5 32.5 11 51q7 18.5 18.5 26.5q12.5 9 23 12.5q10 3 26.5 3q-45 24 -74 43q-29 19.5 -51 39q-50.5 42 -75.5 84.5q-25 43 -25 87.5q0.5 51.5 30 91.5q29.5 40 81.5 60q32.5 11.5 75.5 17.5q43 6 98.5 6q32 0 71 -2l74 -5q34.5 -3 52 -6.5q24 -4 34 -12q10 -8 10 -21.5q-1 -19.5 -18 -34.5q-16.5 -15 -37.5 -16q-4.5 0 -8.5 1l-12 2.5q-37.5 8.5 -80 15q-43 7 -84 10.5q-41 4 -73.5 4q-85.5 0 -128.5 -28q-43.5 -28.5 -43.5 -83.5q0 -36 19 -67.5q19.5 -32 61 -63.5q31.5 -24.5 67.5 -44q35.5 -19.5 81.5 -36.5q45.5 -17 107 -34.5q34.5 -9.5 49 -14.5q15 -5 19.5 -7q10.5 -4.5 16 -12.5q5.5 -8 5.5 -18q-1 -17 -15.5 -29.5q-14.5 -13 -33.5 -13.5q-9 0 -19 2.5q-9.5 3 -23 9.5q-46 22 -72.5 33.5q-26 11 -40.5 15q-14.5 4 -24.5 4q-23 1 -31.5 -15.5q-9 -16 -8.5 -60.5q0.5 -43 3.5 -84q3 -40.5 8 -73.5q5 -32.5 11 -50q5.5 -13 7 -17.5q1.5 -4 1.5 -9.5l0 -0.5l0 -1.5q0 -10.5 -6.5 -18.5q-7 -8 -22.5 -14q-12.5 -5.5 -30.5 -10q-18.5 -4 -37.5 -7q-19.5 -2.5 -35 -2.5q-15 -0.5 -24 3q-9.5 3.5 -20 13" />
</g>
<g id="PathID_108" transform="matrix(0.0107353, 0, 0, 0.0107353, 8.15, 11)">
<path style="fill:#000000;fill-opacity:1" d="M362.5 58.5q47.5 -21 85.5 -45.5q38 -24.5 67 -52q53.5 -50.5 82 -117.5q28.5 -66.5 29 -142.5q0 -26 -3 -47q-2.5 -21 -10 -42.5q-7 -21 -20 -46.5l-1 -20.5l0 -14.5q0 -19.5 1 -44.5q1 -25 2.5 -50q1.5 -25 4 -45l56 -3q25.5 -1 53.5 -1l81.5 2.5q37 2.5 76 8l33.5 4l14.5 1.5l7.5 0.5q11.5 0 17 -4.5q5.5 -4.5 5.5 -13q0 -8 -3.5 -14.5q-4 -6.5 -13 -13q-20 -16 -45.5 -27q-25 -10.5 -41.5 -11q-5.5 -0.5 -12.5 2q-7 2 -25.5 9q-12 4.5 -25 7.5q-13 3 -38 5.5l-73 5.5l-29 2.5l-17.5 1.5l-20 2.5q3 -36.5 8.5 -60q5.5 -24 14 -39.5q6.5 -12.5 8.5 -17.5q2 -4.5 1.5 -10q0 -11 -10 -20.5q-10 -9 -29 -15.5q-22.5 -7 -47.5 -10.5q-25.5 -4 -52 -4q-20 0 -29 3.5q-9.5 4 -18 15q39 5.5 59.5 17q20.5 12 28.5 33.5q6 16 9 42q2.5 26 2.5 71.5l-68 7.5l-57 7.5q-27.5 3.5 -60 8.5l-77 12.5q-33.5 5 -53.5 7l-35 2q-30.5 0 -55 -13q-24.5 -13 -44 -39q-2.5 3.5 -4 7q-1 3.5 -1 5q0 13 12 34.5q11.5 21 28.5 40q18 18.5 35 29q17 10 31 10q4.5 0 11.5 -2q7 -1.5 12 -3q17 -9 32.5 -15.5q15 -6 34 -12q63 -19 130 -32q67 -13.5 128 -19l1 12.5l0 7.5q0 17 -0.5 38.5q0 21.5 -0.5 40.5l0 28q-19.5 -10.5 -31.5 -14q-12 -4 -26 -3.5q-38 0.5 -68 20.5q-29.5 20 -46.5 55.5q-17 35 -17.5 80.5q0.5 42.5 16.5 75.5q16.5 33 45 52.5q28 19 64.5 19.5q17.5 0 32.5 -5q15.5 -5 33 -15.5q-12.5 54 -35.5 97q-23 43 -61.5 81q-38.5 38 -97.5 78l8 13.5M551 -344q0 47.5 -16.5 71.5q-16 24.5 -49 24.5q-37 -1 -59.5 -31.5q-23 -30.5 -23.5 -80q1 -48 23.5 -78.5q23 -31 58.5 -32q33.5 0 50 31q16.5 31 16.5 95" />
</g>
<g id="PathID_109" transform="matrix(0.0107353, 0, 0, 0.0107353, 19.1, 11)">
<path style="fill:#000000;fill-opacity:1" d="M601 -716.5l3.5 -1.5l1.5 -0.5l2 0l1 0q0 -1 0.5 -1l0.5 0q1 0 2 1q1 0.5 1 1q-1 3 -2.5 6q-1.5 2.5 -7.5 10.5q-30 38.5 -55 69.5q-25 31 -51 61.5q-26 31 -59 68.5q-33.5 38 -80 90l-66.5 73q-24.5 25.5 -40.5 40.5q-16.5 14.5 -35 28.5q-11 9 -16 18q-5.5 8.5 -5.5 18q0 15.5 5.5 30.5q5 15.5 12.5 25.5q8 10 16 10.5q7 0 14.5 -6q7.5 -6 20 -22q43.5 -54.5 100 -97.5q56.5 -42.5 115.5 -67.5q59 -24.5 110 -25q30.5 0 57.5 5.5q27.5 5.5 44 15q31 18.5 47 51.5q16.5 32.5 16.5 75.5q-0.5 65.5 -33 115.5q-32 50 -91 76q-11 -22 -21.5 -36.5q-10 -14.5 -23.5 -27q-25.5 -24 -59 -37q-33 -13.5 -71 -13.5q-48.5 1 -79 25q-30.5 24 -31.5 62q1 47.5 44.5 74.5q44 27.5 120 28q93.5 -0.5 166 -33.5q72.5 -33 114 -90q41 -57.5 42 -131.5q-0.5 -57.5 -27.5 -100.5q-27.5 -42.5 -76.5 -66.5q-49.5 -23.5 -115.5 -24q-63.5 -0.5 -130.5 23q-66.5 23 -148 74l-2 -2q10 -9.5 19 -19l31 -33l70 -75q35 -37 69 -71.5q34 -35 81.5 -82q22 -22 35.5 -34.5q13.5 -12 24 -19.5q11 -7.5 25.5 -14.5q9 -4.5 13 -9.5q4.5 -4.5 4.5 -10q0 -9 -6.5 -19q-7 -10.5 -24.5 -27q-19 -19 -32 -27.5q-13.5 -8.5 -23 -8.5q-4 0 -8 1.5q-3.5 1.5 -6.5 3.5q-10.5 9 -17 13.5q-7 4.5 -17 8.5l-29.5 10q-36 11 -75.5 21q-39.5 10 -71.5 16.5q-32.5 6.5 -46.5 6.5q-25.5 0 -45.5 -19.5q-19.5 -19 -31.5 -55.5q-5 8 -7 14q-2 6 -2 13q0 16 7.5 35.5q7.5 19.5 21 40q15 21.5 30 32.5q14.5 10.5 28.5 10.5q6 0 16.5 -3q10 -3.5 25.5 -10.5q36 -15.5 76 -31.5q40 -16.5 75 -29.5q35 -13 56 -19.5l5 -2M563 -21.5q-23 5 -38 7q-15 2 -34.5 2q-54.5 -0.5 -85.5 -17q-31 -16.5 -31.5 -45.5q0.5 -24 17.5 -38q17.5 -13.5 47 -14q43.5 0.5 76.5 28q32.5 28 48.5 77.5" />
</g>
<g id="PathID_110" transform="matrix(0.0107353, 0, 0, 0.0107353, 30.05, 11)">
<path style="fill:#000000;fill-opacity:1" d="M192.5 -169q-36.5 0.5 -66.5 18q-29.5 18 -47.5 47.5q-17.5 30 -18 66.5q0.5 37 18 67q18 29.5 47.5 47.5q30 17.5 66.5 18q36.5 -0.5 66.5 -18q29.5 -18 47.5 -47.5q17.5 -30 18 -67q-0.5 -37 -18 -67q-17.5 -29.5 -47 -47q-30 -17.5 -67 -18M192.5 -136q42.5 1 70 29q28 28 29 70q-1 42.5 -29 70.5q-27.5 28 -70 29q-41.5 -1 -70 -29.5q-28 -28 -29 -70q1 -42 29 -70q27.5 -28 70 -29" />
</g>
</svg>
