<?xml version="1.0" encoding="utf-8"?>
<svg version="1.1" id="Layer_1"
xmlns="http://www.w3.org/2000/svg"
xmlns:xlink="http://www.w3.org/1999/xlink"
xmlns:author="http://www.sothink.com"
width="16px" height="11px"
xml:space="preserve">
<g id="PathID_178" transform="matrix(0.00833333, 0, 0, 0.00833333, -0.7, 9)">
<path style="fill:#000000;fill-opacity:1" d="M390 -579q40.5 -3 84.5 -9q44 -6 81.5 -12.5q37.5 -6 58.5 -11q15 -2 30 -12q15 -9.5 16 -37q0.5 -20.5 -10.5 -38.5q-11 -18 -38.5 -19q-5 0 -14.5 2q-9 1.5 -17.5 3.5l-12.5 3q-30 6 -67.5 12q-38 5.5 -82 10.5l9.5 -41l10.5 -49.5q4.5 -24 5 -33.5q-1 -22 -19 -33.5q-18 -11.5 -42.5 -11.5q-22 0.5 -32 10q-10.5 9.5 -13 18.5q-4 11.5 -9 32l-9.5 44q-5 23.5 -8.5 43.5l-6 29q-10 0.5 -31.5 0.5q-21 0.5 -46.5 0.5l-47.5 0l-34 0q-28.5 0 -43 13.5q-14.5 13.5 -14.5 41.5q0 25.5 9 37.5q9.5 11.5 27.5 15q18 3.5 45.5 3q8.5 0 38.5 -0.5l72 -2.5q-23.5 93.5 -52 180q-28.5 86 -54.5 154q-26 68 -43 106.5l-26 60q-8.5 19.5 -11 27q-2 8 -2 13.5q0.5 19 11 30q10.5 11.5 24.5 16.5q14 5 25 4.5q19 1 31.5 -9.5q13 -10.5 28.5 -44q15 -34 40.5 -102q28.5 -76 65 -186q36 -110.5 74 -259M499.5 -486.5q0.5 24 8.5 34.5q8.5 10.5 19.5 13q10.5 2 19 1.5q5.5 0.5 12.5 0l28.5 -3q30.5 -3 63.5 -4.5q33 -1.5 64.5 -1.5l45.5 1.5l56 2.5l18 1.5l24 1l14.5 0.5q28 0.5 41 -12.5q13.5 -13 13 -40.5q1.5 -23.5 -11 -36.5q-12.5 -13 -51.5 -18q-39.5 -5 -118.5 -5q-41 0 -78.5 1.5l-66 4.5l-45 4q-28.5 3.5 -43 16q-14.5 12.5 -14.5 39.5M386 -127q0.5 48.5 24.5 79.5q24 31 63 48.5q39 17 84.5 24.5q45.5 7.5 89 9q44 2 78 1.5q32.5 0 68.5 -1l66.5 -4q30.5 -2.5 47 -7.5q20 -5.5 28.5 -20.5q9 -15 8.5 -32.5q-1 -30.5 -17 -42q-15.5 -12 -32 -11.5l-18.5 1.5l-26 3l-18 2l-38.5 3l-47.5 3q-25.5 1 -48 1q-57 0.5 -103.5 -5q-46 -5.5 -73.5 -20q-27.5 -14 -28 -40.5q0 -13.5 5.5 -25.5q5 -12.5 13 -22.5q12 -16 18.5 -27q6 -11 6 -19.5q-1 -17 -17.5 -29q-16 -11.5 -38 -12q-25.5 1.5 -47 25.5q-21.5 24 -34.5 57.5q-13 33 -13.5 60.5" />
</g>
<g id="PathID_179" transform="matrix(0.00833333, 0, 0, 0.00833333, 6.85, 9)">
<path style="fill:#000000;fill-opacity:1" d="M202 -293q-2.5 57.5 2 102.5q5 45 19.5 79q15.5 39 49 75q33.5 36 90.5 59.5q56.5 23 141 24q86 -1 149 -25q63 -24 107 -60.5q44.5 -36.5 73 -74.5q29 -38.5 46 -68q18.5 -31.5 33.5 -62q15 -30.5 24 -55.5q8.5 -25 9 -39.5q-0.5 -20.5 -12 -32.5q-11.5 -11.5 -26.5 -16q-14.5 -5 -25 -4.5q-18 -0.5 -31 9.5q-13 10.5 -24.5 37.5q-34 83.5 -78.5 145.5q-44 62.5 -104 97q-59.5 34.5 -140 35q-76.5 -1 -120.5 -33.5q-44 -32.5 -55.5 -81q-6.5 -30.5 -7.5 -62q-1 -31 0.5 -57l16 -437q2 -32 0 -55.5q-2 -23 -15 -35.5q-13 -12.5 -44.5 -12.5q-28 -0.5 -40.5 10.5q-12.5 11 -16 33.5q-3.5 23 -4 59.5l-15 444" />
</g>
</svg>
