<?xml version="1.0" encoding="utf-8"?>
<svg version="1.1" id="Layer_1"
xmlns="http://www.w3.org/2000/svg"
xmlns:xlink="http://www.w3.org/1999/xlink"
xmlns:author="http://www.sothink.com"
width="61px" height="13px"
xml:space="preserve">
<g id="PathID_157" transform="matrix(0.010049, 0, 0, 0.010049, -1.5, 10.65)">
<path style="fill:#000000;fill-opacity:1" d="M148.5 -665.5q23 30 45 47.5q22 17 47.5 24.5q25.5 7 60 7l29.5 -1q14.5 -1.5 39 -5q-36 54 -65.5 93q-29.5 38.5 -59.5 68.5q-29.5 30 -65.5 58.5q-14 11 -20.5 17.5q-6 6 -8 12q-1.5 6 -1 16.5q0 24.5 7.5 39.5q7.5 14.5 20 14.5q7.5 0.5 15.5 -6.5q8.5 -6.5 22.5 -26q56 -71 113.5 -109.5q57 -38.5 108.5 -39q17.5 0 31 8.5q14 8 21.5 22q7.5 15.5 10.5 32.5q3 17.5 3.5 48.5q-49.5 31 -78.5 51.5q-29.5 21 -48.5 39.5q-37.5 36 -55.5 70q-18 34.5 -18 70.5q0 37 18 63.5q18.5 26.5 57.5 45q31 14.5 83.5 22q52 7.5 124.5 7.5q32.5 0 66.5 -2l65 -5q30.5 -3 52 -7.5q15.5 -3 23.5 -10q8.5 -7.5 8.5 -17.5q-0.5 -11.5 -11.5 -23.5q-11 -11.5 -27.5 -19.5q-16.5 -8 -33 -8l-9 0.5l-10.5 2.5q-47 13.5 -99.5 21q-52.5 7.5 -106.5 7.5q-86 0 -128.5 -20q-42.5 -20.5 -42.5 -62q0 -23 12.5 -46.5q12.5 -24 38 -48.5q19 -18.5 46 -37q27 -18.5 73.5 -44q-0.5 34 -2.5 60.5q-1.5 27 -4.5 49q-1 5.5 -1 9.5l0 8q0 13.5 9 22q9 8.5 23.5 8.5q9.5 0 17 -5.5q8 -5 12 -13.5q3.5 -8 6 -31q2 -22.5 2 -57l0 -34q0 -12.5 -0.5 -23q0 -10.5 -0.5 -26q41 -20.5 93 -42q52 -21.5 101 -38.5q49 -17.5 80.5 -25q21.5 -4.5 29.5 -11q8 -7 7.5 -20.5q-1 -21.5 -20 -45q-19 -24 -45.5 -41q-26.5 -16.5 -50 -17.5l-10.5 1q-5 1.5 -13 5q22.5 9.5 34.5 22.5q12.5 12.5 12.5 25.5q0.5 9 -10 19.5q-11 10 -38.5 25.5q-27.5 16 -77.5 41q-41 20.5 -59.5 30q-18 9.5 -26 13q-7.5 3.5 -15 7.5q-7.5 -47 -38.5 -74.5q-30.5 -27.5 -76.5 -28q-28 0 -59 9.5q-30.5 9.5 -73 31.5l17 -24l16 -24l22.5 -34q17 -26 29 -43.5q12 -18 25 -36.5q41 -8 74.5 -15.5q34 -8 69 -18q35 -10 80 -24.5q23 -8 33.5 -16q10.5 -8 10.5 -17q-0.5 -15 -19.5 -24q-18.5 -9.5 -49 -10q-5.5 0 -10 2q-5 1.5 -9.5 5.5q-16.5 14 -34.5 24q-17.5 10.5 -44 20q-26.5 9.5 -69 21.5l8.5 -12.5l17 -27.5l14.5 -20.5q8 -12 15 -21.5q9 -11 13 -18q3.5 -6.5 3.5 -11.5q0 -9.5 -9 -18q-8.5 -8.5 -28 -16q-20 -8.5 -41 -13q-20.5 -4.5 -38.5 -4.5q-14 0 -24 2.5q-10 2 -22.5 9q39.5 9.5 56.5 23q17 14 16.5 34q0 17.5 -9.5 44.5q-9.5 27 -26.5 60q-34.5 7 -60 10.5q-25.5 3 -49.5 3q-27 0 -46.5 -4q-20 -4 -38.5 -14.5q-19 -10.5 -43 -29.5l-11 9" />
</g>
<g id="PathID_158" transform="matrix(0.010049, 0, 0, 0.010049, 8.75, 10.65)">
<path style="fill:#000000;fill-opacity:1" d="M667.5 -298l178.5 0l0 126q0 7.5 -3 11.5q-3.5 4 -10.5 4l-2 0l-3 0l-17 -1l-15.5 -1l-28 -2.5l-30.5 -1.5l-16.5 -0.5l-16.5 -1l0 14.5q4 1.5 7.5 2.5q4 1 8 1.5l19.5 5q19 4.5 30 8q11 3.5 17 6.5q10.5 5.5 15 13.5q4.5 8.5 8.5 30.5q28.5 -3 43 -6q14.5 -3 24.5 -8.5q19 -9.5 28 -23.5q8.5 -14.5 10 -37.5l0 -30l0 -23l-1 -41.5l0 -317q16 -8.5 24.5 -16q8 -7.5 8.5 -13l-1.5 -5q-1.5 -2.5 -4 -5q-18 -14.5 -29.5 -23q-12 -9 -30.5 -21l-22.5 22.5l-21.5 21.5l-141 0q3 -6 4.5 -11.5q1 -5.5 1 -12q0 -10.5 -0.5 -17q-0.5 -6.5 -2.5 -17q56.5 -33.5 92 -56q36 -22.5 64.5 -43.5q12.5 -4 22 -6.5q9 -3 16 -3.5l12.5 -3q9 -4 13.5 -7q4.5 -3 4.5 -7.5q0.5 -2.5 -2 -5q-2.5 -2.5 -8 -6.5l-27.5 -20l-22.5 -15.5l-28 -18.5q-12 13 -23 24l-20 21l-358.5 0q-23.5 0 -52 -2.5q-28.5 -3 -47.5 -6.5q4.5 19 9.5 38.5l25.5 -3l33.5 -2l31 -1l354.5 0q-21.5 26.5 -37.5 44.5q-16 18.5 -31 33.5q-14.5 14.5 -32 30.5q-34.5 -22.5 -84 -42q-50 -19.5 -106.5 -32.5l-8 10q26 12.5 49.5 29q23.5 16 52.5 41q13.5 10.5 21.5 18q8.5 7.5 17.5 18.5q9.5 10.5 25.5 31l-221 0l-23.5 -13.5q-10 -5.5 -20.5 -10.5q-10 -5.5 -25.5 -13q2 43 3 87q1 44 1 101q0 77.5 -0.5 149.5q-0.5 72 -1.5 129.5q-1 58 -2 92q1.5 4 4 5.5q3 1.5 8 1.5l17.5 -0.5l20.5 -1l11.5 -0.5q4.5 -1.5 6.5 -5q2 -3.5 2.5 -10.5l0 -8.5l0 -6.5l-1 -82l0 -104.5l170 0l0 35q-1.5 79 -3 122.5q-1.5 44 -2 52.5q1.5 5 3.5 7q2.5 2 7.5 2l22 -1l22 -3q7 -0.5 10 -3.5q3 -3.5 3.5 -11l0 -63l0 -39.5q0 -16 -0.5 -32l-0.5 -41.5l0 -24.5M667.5 -321.5l0 -118l178.5 0l0 118l-178.5 0M605 -321.5l-170 0l0 -118l170 0l0 118M667.5 -463l0 -121.5l178.5 0l0 121.5l-178.5 0M605 -463l-170 0l0 -121.5l170 0l0 121.5M68.5 -822q20.5 22.5 34 40q14 18 27.5 37.5q10 16.5 21 37q11.5 20.5 21 40.5q10 20 15.5 34.5q8.5 24.5 14 32.5q5.5 8 13.5 7.5q10 -0.5 19.5 -12q9.5 -11.5 16 -29q6 -17 6.5 -35q0 -10 -8.5 -24q-8.5 -14.5 -24.5 -31.5q-15 -16 -32 -30q-17 -14.5 -42.5 -32.5q-26 -18.5 -67.5 -46q-7 5 -13.5 10.5M49 -397.5q6.5 -1.5 12.5 -2l20 -1.5l44.5 -2.5l70.5 0l0 265q-28 21 -46 33q-18 12.5 -37 22.5q-19 10 -50 24.5q-4 2.5 -10.5 5.5l-15 8q20.5 42 32.5 65q12 22.5 18 31q6.5 9 9.5 8.5q5.5 -0.5 9 -6q3.5 -5.5 3.5 -14.5l0 -4l-1 -4.5l0 -15q6.5 -8.5 11.5 -14l14 -16.5q9.5 -10 28.5 -32l7 -8.5l9.5 -12l19.5 -25.5l17 -21.5l9.5 -12l10.5 -12q20.5 52 46 84q25.5 32 65.5 56.5q24.5 16 52.5 26q28 9.5 72.5 14.5q44 5.5 116.5 7q72.5 2 185.5 1.5l144.5 -3l32 -1q1.5 -28.5 12 -43q11 -14.5 42 -29.5l0 -10.5q-26 2.5 -71.5 4.5l-101.5 5l-111.5 4q-55.5 2 -101.5 3q-46 1 -72 1q-34 0 -62.5 -1.5q-28.5 -2 -49 -5.5q-43 -7 -79 -22.5q-36.5 -15 -60.5 -36q-12.5 -11 -19 -22q-7 -11.5 -12.5 -32.5l0 -246.5q15.5 -8.5 23.5 -15.5q8 -7 8 -11q0.5 -1.5 -1 -4q-1 -2 -5 -6.5q-18.5 -16.5 -31.5 -26q-13 -9.5 -35 -23q-11.5 13 -18.5 21.5q-7 8.5 -17 22.5l-62.5 0q-21.5 0 -43 -3q-21.5 -3 -44 -8.5l10 41" />
</g>
<g id="PathID_159" transform="matrix(0.010049, 0, 0, 0.010049, 19, 10.65)">
<path style="fill:#000000;fill-opacity:1" d="M408.5 82q72.5 -29 127 -67.5q54.5 -39 99 -94.5q56.5 -68 84 -151.5q28 -83.5 28 -183.5q-0.5 -86 -21.5 -151.5q-21.5 -65.5 -59.5 -102.5q-37.5 -37 -87 -37.5q-34.5 0 -65.5 15q-31 14.5 -59.5 45q-37 39 -66.5 105q-29 65.5 -52 163.5l-2 0l-1 -22.5l0 -15.5q0.5 -48.5 10.5 -107q10 -58 27 -111.5q16.5 -53 36 -86.5q9 -14 12 -21.5q3 -8 2.5 -17q0 -15.5 -9 -29q-9.5 -13.5 -31 -28.5q-21 -15.5 -43 -24.5q-22 -9 -39 -9.5q-3 0 -7.5 1.5l-11 3.5q30.5 15 43 32q13 17 12.5 41q0 10 -2.5 27.5q-2.5 17 -8.5 47q-13.5 67 -20.5 113q-7 45.5 -10 83q-2.5 37 -2.5 78.5q0.5 96.5 17.5 152.5q17.5 56 47 57.5q13 0 20 -8q6.5 -8 6.5 -23l0 -11q0 -5.5 -1 -10.5l-3 -38q-1 -13 -1 -25.5q0 -53 13 -111q12.5 -58 35 -109q28 -63 62 -95.5q34.5 -32.5 73 -32.5q22.5 0 40.5 11.5q18.5 11.5 32 33.5q11.5 19.5 20 52q8.5 32 13 73q5 41 5 86q0 100.5 -27 187q-26.5 86.5 -80.5 158q-32.5 43 -71 77q-38 33.5 -91.5 66.5q4 7.5 8 15.5" />
</g>
<g id="PathID_160" transform="matrix(0.010049, 0, 0, 0.010049, 29.25, 10.65)">
<path style="fill:#000000;fill-opacity:1" d="M82 122q27.5 -13 47 -27.5q19.5 -14 35 -33q20.5 -26 32 -57q11.5 -30.5 12 -62q-0.5 -43.5 -21.5 -68.5q-21 -25 -57.5 -25.5q-30.5 0.5 -49.5 19q-18.5 19 -19 48.5q-0.5 25 13.5 39q14 14.5 47 22.5q11 2 15.5 7q4 4.5 4 13.5q0 27.5 -19.5 51.5q-19 24 -59.5 48l20.5 24.5" />
</g>
<g id="PathID_161" transform="matrix(0.010049, 0, 0, 0.010049, 39.5, 10.65)">
<path style="fill:#000000;fill-opacity:1" d="M510 -585.5q9.5 -32.5 14 -49.5q5 -17 9 -32l11 -41.5l429.5 0q5 0 8 -2q3.5 -2 3.5 -4q0 -2.5 -1.5 -5q-1.5 -3 -3.5 -5.5q-21.5 -17.5 -36.5 -29q-14.5 -12 -30 -23q-15 -11 -38 -26.5l-22 24.5l-18 21l-22.5 26l-263 0l5.5 -23l5 -19l7 -27.5q26.5 -6 36.5 -11q10 -4.5 9.5 -10.5q1 -5.5 -5 -9q-6 -3.5 -29.5 -8q-23.5 -4.5 -74 -12q-4 30 -9 56.5q-5.5 27 -13.5 63.5l-323.5 0l-52.5 -2q-21 -2.5 -47 -9q3 19.5 6.5 39.5q18.5 -3 37.5 -4q19 -1 46 -1l326.5 0l-13 50.5q-8 31 -19.5 72.5l-36 0l-26 -17.5l-22 -13l-27.5 -14.5q1.5 47 2.5 138q1.5 90.5 1.5 228.5q0 38.5 -0.5 67.5l-1 58l-2.5 68q0 6.5 3.5 9.5q3.5 3 12 2.5q32.5 0.5 44.5 -4q11.5 -4 10.5 -15.5l0 -45l342 0l0 44q0 7.5 3 10.5q3 3 11.5 3l27 -1.5q13 -1.5 20 -3.5q4.5 -1.5 6 -4q1.5 -2 2 -7.5q-1 -32 -1.5 -86l-1 -120.5q0 -65.5 -0.5 -132l0 -123q21.5 -12 29.5 -18q8 -6 7.5 -11.5q0 -2.5 -2.5 -5.5q-2.5 -3 -7 -6q-19.5 -14.5 -32.5 -23.5q-12.5 -9 -33 -22.5l-20 21.5l-20 23.5l-223 0M402.5 -448.5l0 -113.5l342 0l0 113.5l-342 0M744.5 -425l0 125l-342 0l0 -125l342 0M744.5 -276.5l0 130l-342 0l0 -130l342 0M186.5 17.5l803.5 0q4 0 6.5 -2q3 -2 3 -4q0 -2 -1.5 -4.5q-1.5 -2.5 -4 -5q-20.5 -18 -35 -30l-29.5 -24l-36.5 -28l-23 25.5l-18 21.5l-22.5 27l-643 0l0 -527.5q25 -8 34 -13.5q9.5 -5.5 9 -12q0 -3 -2.5 -5.5q-2.5 -2.5 -7.5 -4.5q-4 -2.5 -11 -4q-7.5 -2 -28.5 -4.5l-66 -8l1.5 36.5q1 15 1 29.5q0.5 14.5 0.5 33q0 74.5 -0.5 159q0 84.5 -1 164.5l-1 140.5l-1.5 88q-0.5 7.5 3 10q3.5 2.5 13.5 2.5q18.5 0 33 -2q15 -2 20 -5.5q2 -1 3 -3.5q1 -2.5 1 -7.5l0 -42" />
</g>
<g id="PathID_162" transform="matrix(0.010049, 0, 0, 0.010049, 49.75, 10.65)">
<path style="fill:#000000;fill-opacity:1" d="M207 -167q0 44 -1.5 105.5q-1.5 61.5 -4.5 129q0.5 7 3.5 10.5q3 3 10.5 3q13.5 0 28 -2.5q15 -2 20.5 -4.5q3.5 -2.5 5.5 -5.5q1.5 -3 1.5 -9l-1 -62q-0.5 -24 -0.5 -45.5q-0.5 -22 -0.5 -51.5l0 -78.5l0 -206l36 -7.5q12.5 -2.5 24.5 -5.5l32.5 -7.5q5.5 16.5 9 28.5q3.5 12 6.5 25q2.5 9.5 6 14.5q4 5 9.5 4.5q12.5 -1 23.5 -21q10.5 -20 11 -44q0 -12 -5.5 -24q-5.5 -12.5 -17 -25.5q-21.5 -24.5 -44 -46q-23 -21.5 -49 -41l-10.5 10q14.5 21.5 23.5 37.5q9.5 15.5 16.5 30q7 14.5 14.5 33l-41 3.5l-33 2.5l-41.5 2.5l-66 3q43 -51.5 74.5 -91q31.5 -39 61 -79.5q30 -40 67.5 -94q25.5 -0.5 35.5 -4q10 -3.5 9.5 -10q0.5 -5 -7.5 -10.5q-7.5 -5.5 -29 -14.5q-22 -8.5 -63 -23q-13.5 39 -37.5 89.5q-24 50 -56.5 107.5q-13 23 -24.5 42q-12 19.5 -25.5 40.5l-33 48q-19.5 0.5 -28.5 0.5l-12.5 0.5l-8 0l-20.5 -1l-26.5 -2q7 38.5 11.5 58.5q5 20.5 9 27.5q4 7.5 9 7q5 0.5 9.5 -7.5q4 -7.5 10 -29.5l54.5 -8q17.5 -2.5 28 -4.5l26 -4.5l0 206.5M56.5 -686q32 36 54 68.5q21.5 33 33 61.5q10 29.5 14.5 36q4 7 11 6q11.5 -1.5 20.5 -20.5q9 -18.5 9.5 -42q0.5 -17 -11 -32q-11 -15 -40.5 -35.5q22.5 -26.5 39 -47.5q16.5 -21 35 -47.5q18 -26 45 -67.5l6.5 0.5l4.5 0.5q21 0 30 -3.5q9.5 -3 9 -9q1 -5 -4 -9.5q-5 -4 -28.5 -13q-23 -8.5 -77 -27.5q-3.5 23.5 -14.5 58q-10.5 34.5 -26 74.5q-15.5 40.5 -34.5 80q-17 -12 -30 -20.5q-12.5 -8.5 -35.5 -22.5q-5 6.5 -10 12.5M627 -754.5l24.5 -20.5q10 -8.5 20.5 -19q10 -10 25.5 -27q24.5 -1.5 33.5 -4.5q9 -3 8.5 -10q0.5 -4.5 -6.5 -8.5q-7 -4 -29 -11q-22 -7 -67 -19.5q-4.5 29.5 -14 61q-9 32 -21 59l-66.5 0l-24.5 -16q-10.5 -6.5 -21 -12.5q-11 -6.5 -27 -15.5q1 21 1.5 56q1 35 1 76.5q0.5 41.5 0.5 82l0 35.5q0 14 -0.5 30q0 16 -1 42.5l-1.5 71.5q0.5 7 3.5 9q2.5 2.5 8.5 2.5q11 0 24 -2q13 -2 19.5 -4.5q4.5 -1 6 -4q2 -3 2 -9l0 -28l110.5 0l0 418q0 7.5 -2.5 10.5q-2.5 3 -9.5 3l-52.5 -2l-44 -2.5l-56.5 -5l0 15.5l58.5 14q17.5 4.5 24 6.5q6 2.5 11 5q16 8 23 18.5q7.5 10.5 9.5 28.5q43 -8 66 -17q22.5 -8.5 31 -21.5q8 -13 7.5 -34q-1.5 -37 -2 -62.5q-1 -25 -1 -44l-1 -35l0 -44q-0.5 -17 -1 -22.5l-5 -163.5q10.5 45.5 22 81q12 36 27 68q15.5 32.5 37 68q22 36.5 44.5 65.5q22.5 29 50.5 55.5q27.5 27 64.5 56q10 -25 25 -37q15 -12 40.5 -16l4 -15.5q-37.5 -15 -69.5 -34q-32 -19 -69.5 -50q-29 -22.5 -50 -45q-21.5 -22.5 -40 -50.5q32 -15 53.5 -27.5q21.5 -12 41 -26q19.5 -14 45.5 -34.5l10 1l6.5 0q17.5 0 24.5 -2.5q7.5 -2.5 7 -7.5q0.5 -5 -5 -10q-5.5 -5 -25 -15.5q-19 -10.5 -59 -31q-25 42 -51.5 74.5q-26.5 32.5 -59 62q-20.5 -34 -33.5 -62q-13 -28.5 -21 -59.5q-8 -31 -14 -73.5l110.5 0l0 33q0 7 3 9.5q3.5 3 10.5 3q28 0 41.5 -5q13.5 -4.5 13.5 -13.5l0 -3q-2 -39.5 -3 -67.5q-1.5 -27.5 -1.5 -51.5q-0.5 -24.5 -0.5 -53.5l1 -125.5q17.5 -9 25 -15.5q8 -6 7.5 -11q0 -4 -3 -8.5q-3.5 -4 -10 -10l-25.5 -19l-28 -20q-13 13 -20.5 21.5q-8 8.5 -20 22.5l-172 0M526.5 -615.5l0 -115.5l282.5 0l0 115.5l-282.5 0M809 -592l0 128l-282.5 0l0 -128l282.5 0M45 36q25 -41.5 44.5 -84q19.5 -42.5 34.5 -90q15.5 -48 28.5 -106.5q20.5 -3 28 -7q7.5 -3.5 7 -9.5q0.5 -5 -6 -9q-6.5 -4 -26 -9.5q-19.5 -6 -58 -15.5q-0.5 18.5 -2 36q-1.5 18 -5 40q-3.5 22.5 -9.5 55q-6.5 36 -13 65q-6.5 29 -15.5 59.5q-9 30 -22.5 69.5l15 6M295 -300q14 33 23 59.5q9 26.5 15.5 53.5q6.5 27 11.5 61q4 23 6.5 30q3 6.5 8 6q8 -0.5 17 -11.5q9.5 -11 16 -26.5q6.5 -15.5 7 -28.5q0 -22.5 -24 -60.5q-23.5 -37.5 -69 -87l-11.5 4M446.5 -304l-27.5 -1.5q-13 -1 -33 -5.5q3.5 18 6.5 36.5q12 -3 27.5 -4.5l32.5 -1.5l75 0q-10.5 32 -21 56.5q-11 25 -24.5 48.5q-13.5 23.5 -33.5 51.5q-29 43.5 -57 74.5q-28.5 30.5 -69 64q5.5 7.5 10.5 15.5q45 -28.5 76 -54q30.5 -25 61 -59q38.5 -39.5 66 -81q27 -42 54 -99q27.5 -8 27.5 -15.5q0.5 -2.5 -2 -6.5q-2.5 -3.5 -10 -12q-14.5 -13.5 -24.5 -21.5l-25 -20.5l-16.5 16.5q-6.5 7 -16 18.5l-77 0" />
</g>
</svg>
