<?xml version="1.0" encoding="utf-8"?>
<svg version="1.1" id="Layer_1"
xmlns="http://www.w3.org/2000/svg"
xmlns:xlink="http://www.w3.org/1999/xlink"
xmlns:author="http://www.sothink.com"
width="37px" height="21px"
xml:space="preserve">
<g id="PathID_192" transform="matrix(0.0196078, 0, 0, 0.0196078, -1.45, 17.6)">
<path style="fill:#231815;fill-opacity:1" d="M936 80q-268 -64 -360 -260q-48 204 -328 272l-24 -76q252 -56 284 -228l-264 0q-12 172 -120 284l-56 -64q96 -92 96 -252l0 -392l708 0l0 256l-80 0l0 -24l-548 0l0 116l272 0l0 -92l76 0q32 4 4 24l0 68l340 0l0 76l-300 0q56 148 332 208l-32 84M920 -780l0 76l-804 0l0 -76l804 0M792 -560l-548 0l0 80l548 0l0 -80" />
</g>
<g id="PathID_193" transform="matrix(0.0196078, 0, 0, 0.0196078, 18.55, 17.6)">
<path style="fill:#231815;fill-opacity:1" d="M644 -20q64 -8 108 -52q48 -48 48 -128q0 -88 -52 -140q-52 -52 -164 -52q-132 0 -204 52q-68 48 -176 172l-68 -60q288 -288 436 -480q-132 16 -264 28l-28 -92q196 0 348 -20l36 -16l44 44q44 40 -20 52q-120 136 -240 268q84 -20 140 -20q152 0 224 72q72 72 72 184q0 116 -64 180q-96 96 -244 96q-140 0 -204 -64q-52 -52 -52 -124q0 -48 36 -84q40 -40 92 -40q72 0 120 48q56 56 76 176M564 -8q-12 -104 -48 -140q-28 -28 -56 -28q-32 0 -48 16q-20 20 -20 44q0 36 32 68q40 40 104 40l36 0" />
</g>
</svg>
