<?xml version="1.0" encoding="utf-8"?>
<svg version="1.1" id="Layer_1"
xmlns="http://www.w3.org/2000/svg"
xmlns:xlink="http://www.w3.org/1999/xlink"
xmlns:author="http://www.sothink.com"
width="18px" height="13px"
xml:space="preserve">
<g id="PathID_142" transform="matrix(0.0115196, 0, 0, 0.0115196, -0.2, 10.55)">
<path style="fill:#000000;fill-opacity:1" d="M661.5 -557q-0.5 -59.5 -25 -99q-24.5 -39 -66 -61.5q-41.5 -22.5 -93.5 -32q-52.5 -9.5 -108.5 -9l-335.5 0q-8 0 -12 3.5q-3.5 3 -3.5 7.5q0 4 3 8.5q3 4 8 8q37 0 56.5 5.5q19.5 5 27.5 13.5q8 8 9.5 17q3.5 17.5 5 61q1 43 1 120l0 240.5q0 79 -1 131q-1.5 51.5 -5 70q-3 13.5 -11 23q-7.5 9 -26 14q-18.5 5.5 -53.5 8q-5 4 -7.5 8q-2.5 4.5 -2.5 8.5q0 4.5 4 7.5q4 3.5 12.5 3.5l279.5 0q7.5 0 12 -3.5q4 -3 4 -7.5q0 -4 -2.5 -8.5q-3 -4.5 -7.5 -9q-43.5 -2 -67.5 -12.5q-24 -10.5 -30 -27.5q-4.5 -11.5 -5.5 -41.5q-1.5 -30.5 -1.5 -91.5l0 -146.5q19 2.5 44 4l50.5 2.5q25.5 0.5 46 0.5q39 0.5 90 -6.5q50.5 -7 99 -29q48 -21.5 80 -65q32 -43.5 33 -115.5M561 -553q-1 73 -33 113.5q-32 40 -79.5 55q-48 15.5 -97.5 15q-28.5 0 -58.5 -1.5q-30.5 -1.5 -51.5 -4.5q-21 -3 -22 -7.5l-1 -130q-0.5 -61.5 -0.5 -96q0.5 -34.5 1.5 -52q1 -17 3 -27q2 -13 8.5 -22.5q6 -9.5 23 -15.5q16.5 -5.5 50.5 -6l9.5 -0.5q9.5 0 22 -0.5l23 0q108.5 0.5 156 48q47.5 47 46.5 132" />
</g>
<g id="PathID_143" transform="matrix(0.0115196, 0, 0, 0.0115196, 8.5, 10.55)">
<path style="fill:#000000;fill-opacity:1" d="M687 -166.5q-1 -8.5 -4.5 -12q-3 -3.5 -7 -3.5q-3 0 -6 1.5q-3 1.5 -6 3.5q-49.5 75.5 -110.5 109.5q-61 33.5 -130.5 33q-73 0 -131.5 -38.5q-59 -38.5 -94 -117.5q-34.5 -78.5 -35.5 -199.5q1 -123 34.5 -202.5q33 -79.5 86 -118q53 -38 113 -38q62.5 0.5 107.5 23.5q45 23 77.5 66q32.5 43 57.5 102q4 4 7.5 5.5q4 2 7 1.5q7 0 10.5 -5.5q4 -5 4 -10.5l-42 -199q-1 -4.5 -3 -7q-2 -3 -5.5 -3q-2 0 -5 2.5q-2.5 2.5 -5 8q-5.5 10.5 -14.5 21q-8.5 10.5 -17.5 11.5l-2 0l-2 -1q-25.5 -15.5 -55.5 -25q-30 -9.5 -59.5 -13.5q-30 -4.5 -55 -4.5q-81 1 -145.5 34q-64.5 33 -110 89q-46 56 -70 124.5q-24.5 68.5 -24.5 140.5q0.5 132.5 44 222.5q44 90.5 125 136.5q81 46.5 193.5 46.5q55 0 107.5 -19.5q52.5 -20 96 -61q43 -40.5 71 -103.5" />
</g>
</svg>
