<?xml version="1.0" encoding="utf-8"?>
<svg version="1.1" id="Layer_1"
xmlns="http://www.w3.org/2000/svg"
xmlns:xlink="http://www.w3.org/1999/xlink"
xmlns:author="http://www.sothink.com"
width="64px" height="14px"
xml:space="preserve">
<g id="PathID_88" transform="matrix(0.0107353, 0, 0, 0.0107353, -1.65, 11.4)">
<path style="fill:#000000;fill-opacity:1" d="M309.5 -382l-54.5 143.5q-8 22 -16 41.5q-8 19.5 -21 45.5q-10.5 -31.5 -15 -62.5q-4.5 -31.5 -4.5 -72.5q0 -33.5 3.5 -65.5q3 -32.5 10 -61.5q5.5 -24.5 14.5 -54q9 -29.5 19.5 -58.5q11 -28.5 21.5 -50.5q10 -20 14.5 -30.5q5 -10.5 6 -16.5q1 -6.5 1 -14.5q0 -16.5 -9.5 -37q-9.5 -20 -28.5 -43.5q-20.5 -27 -36.5 -38.5q-16 -11.5 -32.5 -12q15.5 27 22.5 49.5q6.5 22 6.5 47q0 15.5 -3.5 37.5q-3.5 22 -11 57.5l-16.5 78.5q-6.5 29 -9.5 46.5q-3 17 -5 32q-2.5 15 -5 36.5q-3.5 31 -6 58.5q-2 28 -2 51q0 62.5 9.5 120q9.5 57 26.5 98q8.5 20.5 19.5 31.5q11.5 10.5 24.5 10.5q8.5 0 15 -4.5q6.5 -4.5 9.5 -13q1.5 -4 2.5 -13q1 -9.5 1 -31q-0.5 -15.5 1 -28.5q1.5 -13.5 5.5 -32q3.5 -18 10.5 -48l33 -137q11.5 -48.5 13.5 -55.5q-7.5 -2.5 -14.5 -5M441.5 -639q32 31.5 64.5 44.5q32.5 13.5 74.5 13l16.5 -0.5l25.5 -1.5q-12.5 9.5 -37.5 30q-25 20.5 -59.5 50l10 10q21 -13.5 45.5 -27.5q24.5 -14.5 47.5 -26.5q23 -12 39 -18.5q29 -12 62.5 -20.5q33.5 -8 83 -15.5q16 -3 22.5 -8.5q6.5 -5 6 -15q0 -10 -7.5 -19.5q-8 -9.5 -24 -18.5q-11 -7 -20.5 -10.5q-9 -3.5 -15.5 -4q-5 0 -9 1.5q-4 1.5 -13.5 7q-22.5 12 -58.5 22.5q-36 10.5 -75 17q-39.5 6.5 -72 6.5q-27 0.5 -48 -6q-21.5 -6 -47.5 -21.5l-9 12M435 -329.5q-6.5 24 -9.5 43q-2.5 19 -2.5 37.5q0 42 14 75q13.5 33 41 58q35 31 102 46.5q67 16 163.5 16q43.5 0 77.5 -3q33.5 -3 50.5 -8q10.5 -4 16.5 -10.5q6 -6 6 -15.5q-0.5 -12.5 -11 -26.5q-10 -13.5 -25 -23.5q-15 -9.5 -28.5 -10q-6 0 -15.5 3q-16 6.5 -24 9.5q-8 3 -14 4q-6 1.5 -16 3q-21 3.5 -43 5.5l-44.5 1.5q-118 0.5 -171 -37q-53 -38 -52 -121.5q0 -9.5 1 -19q0.5 -9.5 2 -24l-17.5 -4" />
</g>
<g id="PathID_89" transform="matrix(0.0107353, 0, 0, 0.0107353, 9.3, 11.4)">
<path style="fill:#000000;fill-opacity:1" d="M51 78q63 -15.5 112.5 -32.5q50 -16.5 95.5 -38q45.5 -21.5 95.5 -51.5q46.5 -27.5 86 -56.5q39.5 -29 74.5 -63.5q81.5 81.5 178 136.5q96.5 54.5 220.5 90q11 -32.5 29.5 -50.5q19 -18 54.5 -30.5l0 -10q-58 -7.5 -104.5 -17.5q-47 -9.5 -90 -23.5q-42.5 -13.5 -88 -33q-46 -20 -84.5 -43.5q-38.5 -23 -78.5 -55.5q21 -23.5 41.5 -51q20.5 -27.5 46 -67.5q25 -40 61 -101q30 -3.5 40 -7q10 -4 9 -11.5q0.5 -4.5 -8 -11q-8.5 -6.5 -32.5 -17.5q-24 -11 -69 -29.5q-14.5 61.5 -48.5 125.5q-34 64.5 -86.5 128.5q-46.5 -45 -80.5 -87.5q-34.5 -42 -53 -77q-19 -35 -19.5 -58q0 -1.5 0.5 -4.5q0 -2.5 0.5 -5.5q-21.5 9.5 -43 19.5q9.5 9 15.5 17.5q6.5 8.5 16.5 27.5q23.5 46 44 80.5q20.5 35 42 64q21 29 46 58q-26.5 29 -54 54q-27.5 25 -58.5 48.5q-46.5 36 -92.5 64.5q-46 28.5 -99.5 53.5q-53.5 24.5 -122.5 50l4 16.5M549 -706.5l0 -102.5q16 -6 26 -10q10 -3.5 13 -5.5q3 -2 5.5 -5.5q2.5 -3 2.5 -5.5q1 -6.5 -14.5 -11q-15.5 -4 -56 -8.5q-9.5 -0.5 -24 -2.5l-33.5 -3.5q1.5 26.5 2 44.5q1 18 1 39.5l0 70.5l-326.5 0q-13.5 0 -35.5 -3q-21.5 -2.5 -46.5 -7l8 40.5l31 -4.5l21.5 -2q9.5 -0.5 21.5 -0.5l836.5 0q3.5 0 5.5 -1.5q1.5 -1.5 2 -3.5q0 -1 -1 -2.5l-1 -3.5l-38 -33.5l-32 -27q-16 -13.5 -40 -33q-14.5 16.5 -23.5 28q-9.5 11.5 -18.5 23.5l-20.5 29.5l-265 0M74.5 -336q24 -11 42 -20.5q18 -9.5 37 -22.5q18.5 -12.5 45 -32.5q35.5 -27 57.5 -45q22 -18.5 43.5 -40q21.5 -21.5 55 -57.5q3.5 -4 10.5 -10.5l15 -16l14.5 1l6 0q27.5 0 27.5 -9.5q0.5 -5.5 -8 -13q-8.5 -7.5 -31.5 -20q-22.5 -12.5 -64 -33.5q-16.5 38 -38 73q-22 35.5 -53 75.5q-25.5 33 -49 59q-24 26 -52 50.5q-27.5 24 -64 51.5l6 10M597 -623.5q32.5 19 56.5 35q24.5 16 45 32q20.5 15.5 42 34.5q30 26 57 55.5q27.5 29.5 43.5 52q13 21 21 28.5q7.5 7.5 14.5 7q11.5 -0.5 19 -19q7.5 -18 8 -46.5q0 -20.5 -4 -33.5q-4 -13.5 -15 -24q-11 -10.5 -32.5 -23.5q-26 -16 -56.5 -31.5q-31 -16 -76 -35q-45 -19.5 -113 -47q-5 7.5 -9.5 15.5" />
</g>
<g id="PathID_90" transform="matrix(0.0107353, 0, 0, 0.0107353, 20.25, 11.4)">
<path style="fill:#000000;fill-opacity:1" d="M553 -13.5q57.5 -9.5 102 -24.5q44.5 -14.5 87.5 -38q83 -46.5 126 -109.5q43 -63 43 -139q-0.5 -62 -30.5 -110q-30 -48 -82 -75q-52.5 -27.5 -120 -28q-49 0 -101.5 13q-52.5 13.5 -107.5 40l-28 14q-13 6.5 -30.5 16l-47 25.5l1.5 -17.5l1.5 -16.5q11.5 -26.5 20.5 -42q9 -16 16.5 -25.5q12.5 -13.5 15.5 -18q2.5 -4 2 -8.5q0 -15.5 -37 -46q3 -25.5 8 -45.5q5 -20 12.5 -39.5l9 -23.5q2.5 -7 3 -10.5q0.5 -3.5 0.5 -7q0 -10.5 -9.5 -22.5q-9.5 -12 -28.5 -25.5q-21.5 -16 -44.5 -25.5q-23.5 -10 -39.5 -10.5q-3 0 -6.5 1q-3.5 1 -9 4q26.5 19 39.5 33.5q13 15 17 34q4.5 19 4 50.5q0 12 -1 32q-0.5 20.5 -2 40q-1 20 -2 30.5q-32 17.5 -64.5 32q-32 14.5 -57.5 23q-25.5 9 -37 9q-17.5 0 -33.5 -12.5q-15.5 -12 -29 -36.5l-3.5 10q-1.5 4 -1.5 7.5q0 10 7 25.5q7 15.5 18.5 30.5q12.5 16.5 27 25.5q14 9.5 27.5 9.5q7.5 0 17.5 -4.5q10 -4.5 24.5 -15q26.5 -19 40.5 -28.5q14 -9.5 26 -16.5q12 -7.5 34 -19.5q-1 10 -2 28.5l-2.5 46.5q-10 16.5 -30 46l-44 63.5l-45 62.5q-20.5 29 -32.5 44q-11.5 14.5 -22 26.5q-10.5 12 -22 23.5q-11 12 -15.5 20q-4 8.5 -4 18q0.5 17 5 34q4.5 16.5 11.5 27.5q7 10.5 14.5 11q6 0.5 12.5 -8q6.5 -8.5 17 -28.5q1.5 -4 4 -9q2.5 -5 6.5 -11.5q23 20 40.5 37.5q17 17.5 37 41q15.5 18 22.5 30q7 12 13.5 31.5l8 22q2 4.5 2 6.5q3.5 6.5 9.5 10q6 3.5 12 3.5q8 0 14.5 -5q6.5 -5.5 11.5 -15.5q9 -19.5 14.5 -44.5q6 -25 6 -50.5q0 -7 -0.5 -14.5q-0.5 -7.5 -2.5 -25.5q-3 -21 -5 -60.5q-2.5 -39.5 -4 -86q-2 -46.5 -2.5 -89q82.5 -69 165 -106.5q82 -37.5 151.5 -38q70 1 112.5 47q42 45.5 43 122q-0.5 102 -73 181q-73 79 -211.5 128l5 15.5M323.5 -393.5l-2.5 75l-2 85l-2 81q-0.5 38 -0.5 63.5q-37 -23 -55.5 -35q-18.5 -11.5 -32 -21.5q-13.5 -9.5 -35.5 -25.5q4 -7.5 8.5 -15q4 -7 15.5 -26l35.5 -59.5l9 -15q5 -9 18.5 -32l43 -75" />
</g>
<g id="PathID_91" transform="matrix(0.0107353, 0, 0, 0.0107353, 31.2, 11.4)">
<path style="fill:#000000;fill-opacity:1" d="M601 -716.5l3.5 -1.5l1.5 -0.5l2 0l1 0q0 -1 0.5 -1l0.5 0q1 0 2 1q1 0.5 1 1q-1 3 -2.5 6q-1.5 2.5 -7.5 10.5q-30 38.5 -55 69.5q-25 31 -51 61.5q-26 31 -59 68.5q-33.5 38 -80 90l-66.5 73q-24.5 25.5 -40.5 40.5q-16.5 14.5 -35 28.5q-11 9 -16 18q-5.5 8.5 -5.5 18q0 15.5 5.5 30.5q5 15.5 12.5 25.5q8 10 16 10.5q7 0 14.5 -6q7.5 -6 20 -22q43.5 -54.5 100 -97.5q56.5 -42.5 115.5 -67.5q59 -24.5 110 -25q30.5 0 57.5 5.5q27.5 5.5 44 15q31 18.5 47 51.5q16.5 32.5 16.5 75.5q-0.5 65.5 -33 115.5q-32 50 -91 76q-11 -22 -21.5 -36.5q-10 -14.5 -23.5 -27q-25.5 -24 -59 -37q-33 -13.5 -71 -13.5q-48.5 1 -79 25q-30.5 24 -31.5 62q1 47.5 44.5 74.5q44 27.5 120 28q93.5 -0.5 166 -33.5q72.5 -33 114 -90q41 -57.5 42 -131.5q-0.5 -57.5 -27.5 -100.5q-27.5 -42.5 -76.5 -66.5q-49.5 -23.5 -115.5 -24q-63.5 -0.5 -130.5 23q-66.5 23 -148 74l-2 -2q10 -9.5 19 -19l31 -33l70 -75q35 -37 69 -71.5q34 -35 81.5 -82q22 -22 35.5 -34.5q13.5 -12 24 -19.5q11 -7.5 25.5 -14.5q9 -4.5 13 -9.5q4.5 -4.5 4.5 -10q0 -9 -6.5 -19q-7 -10.5 -24.5 -27q-19 -19 -32 -27.5q-13.5 -8.5 -23 -8.5q-4 0 -8 1.5q-3.5 1.5 -6.5 3.5q-10.5 9 -17 13.5q-7 4.5 -17 8.5l-29.5 10q-36 11 -75.5 21q-39.5 10 -71.5 16.5q-32.5 6.5 -46.5 6.5q-25.5 0 -45.5 -19.5q-19.5 -19 -31.5 -55.5q-5 8 -7 14q-2 6 -2 13q0 16 7.5 35.5q7.5 19.5 21 40q15 21.5 30 32.5q14.5 10.5 28.5 10.5q6 0 16.5 -3q10 -3.5 25.5 -10.5q36 -15.5 76 -31.5q40 -16.5 75 -29.5q35 -13 56 -19.5l5 -2M563 -21.5q-23 5 -38 7q-15 2 -34.5 2q-54.5 -0.5 -85.5 -17q-31 -16.5 -31.5 -45.5q0.5 -24 17.5 -38q17.5 -13.5 47 -14q43.5 0.5 76.5 28q32.5 28 48.5 77.5" />
</g>
<g id="PathID_92" transform="matrix(0.0107353, 0, 0, 0.0107353, 42.15, 11.4)">
<path style="fill:#000000;fill-opacity:1" d="M198.5 -410.5l624 0l0 360.5q0 7 -3 9.5q-3.5 3 -12.5 2.5l-1.5 0l-2.5 0l-77.5 -4l-44.5 -2.5l-29.5 -1.5l-31 -2l-1 17.5q7.5 1.5 16 2.5l15.5 1.5q15.5 1.5 23.5 3l8.5 1q20.5 3 34.5 7q13.5 4 21 9.5q12 9 19.5 21.5q7 12.5 12 34q53 -10 80.5 -19.5q27 -9 36.5 -23q9 -14 9 -37.5l0 -113.5l-1 -116l0 -476.5q21 -14.5 27 -20q6.5 -5.5 6 -9.5q0 -3 -3 -7q-2.5 -3.5 -8.5 -9.5l-33 -27q-13 -10 -32.5 -24l-21 24.5q-7.5 10 -18 26.5l-603.5 0q-16.5 -12 -28.5 -19.5q-12 -8 -24.5 -15q-12.5 -7.5 -31.5 -17.5l1.5 37q0.5 14.5 0.5 35l0 61q0 115 -0.5 243l-2 256.5q-1 128 -2.5 242q-0.5 10 5 14q5.5 3.5 18.5 3.5q30.5 0 43 -5q12 -4.5 12 -17.5q-0.5 -49 -0.5 -79q-0.5 -30.5 -0.5 -52l0 -45l0 -59.5l0 -210M541.5 -434l0 -325l281 0l0 325l-281 0M469 -434l-270.5 0l0 -325l270.5 0l0 325" />
</g>
<g id="PathID_93" transform="matrix(0.0107353, 0, 0, 0.0107353, 53.1, 11.4)">
<path style="fill:#000000;fill-opacity:1" d="M148.5 -665.5q23 30 45 47.5q22 17 47.5 24.5q25.5 7 60 7l29.5 -1q14.5 -1.5 39 -5q-36 54 -65.5 93q-29.5 38.5 -59.5 68.5q-29.5 30 -65.5 58.5q-14 11 -20.5 17.5q-6 6 -8 12q-1.5 6 -1 16.5q0 24.5 7.5 39.5q7.5 14.5 20 14.5q7.5 0.5 15.5 -6.5q8.5 -6.5 22.5 -26q56 -71 113.5 -109.5q57 -38.5 108.5 -39q17.5 0 31 8.5q14 8 21.5 22q7.5 15.5 10.5 32.5q3 17.5 3.5 48.5q-49.5 31 -78.5 51.5q-29.5 21 -48.5 39.5q-37.5 36 -55.5 70q-18 34.5 -18 70.5q0 37 18 63.5q18.5 26.5 57.5 45q31 14.5 83.5 22q52 7.5 124.5 7.5q32.5 0 66.5 -2l65 -5q30.5 -3 52 -7.5q15.5 -3 23.5 -10q8.5 -7.5 8.5 -17.5q-0.5 -11.5 -11.5 -23.5q-11 -11.5 -27.5 -19.5q-16.5 -8 -33 -8l-9 0.5l-10.5 2.5q-47 13.5 -99.5 21q-52.5 7.5 -106.5 7.5q-86 0 -128.5 -20q-42.5 -20.5 -42.5 -62q0 -23 12.5 -46.5q12.5 -24 38 -48.5q19 -18.5 46 -37q27 -18.5 73.5 -44q-0.5 34 -2.5 60.5q-1.5 27 -4.5 49q-1 5.5 -1 9.5l0 8q0 13.5 9 22q9 8.5 23.5 8.5q9.5 0 17 -5.5q8 -5 12 -13.5q3.5 -8 6 -31q2 -22.5 2 -57l0 -34q0 -12.5 -0.5 -23q0 -10.5 -0.5 -26q41 -20.5 93 -42q52 -21.5 101 -38.5q49 -17.5 80.5 -25q21.5 -4.5 29.5 -11q8 -7 7.5 -20.5q-1 -21.5 -20 -45q-19 -24 -45.5 -41q-26.5 -16.5 -50 -17.5l-10.5 1q-5 1.5 -13 5q22.5 9.5 34.5 22.5q12.5 12.5 12.5 25.5q0.5 9 -10 19.5q-11 10 -38.5 25.5q-27.5 16 -77.5 41q-41 20.5 -59.5 30q-18 9.5 -26 13q-7.5 3.5 -15 7.5q-7.5 -47 -38.5 -74.5q-30.5 -27.5 -76.5 -28q-28 0 -59 9.5q-30.5 9.5 -73 31.5l17 -24l16 -24l22.5 -34q17 -26 29 -43.5q12 -18 25 -36.5q41 -8 74.5 -15.5q34 -8 69 -18q35 -10 80 -24.5q23 -8 33.5 -16q10.5 -8 10.5 -17q-0.5 -15 -19.5 -24q-18.5 -9.5 -49 -10q-5.5 0 -10 2q-5 1.5 -9.5 5.5q-16.5 14 -34.5 24q-17.5 10.5 -44 20q-26.5 9.5 -69 21.5l8.5 -12.5l17 -27.5l14.5 -20.5q8 -12 15 -21.5q9 -11 13 -18q3.5 -6.5 3.5 -11.5q0 -9.5 -9 -18q-8.5 -8.5 -28 -16q-20 -8.5 -41 -13q-20.5 -4.5 -38.5 -4.5q-14 0 -24 2.5q-10 2 -22.5 9q39.5 9.5 56.5 23q17 14 16.5 34q0 17.5 -9.5 44.5q-9.5 27 -26.5 60q-34.5 7 -60 10.5q-25.5 3 -49.5 3q-27 0 -46.5 -4q-20 -4 -38.5 -14.5q-19 -10.5 -43 -29.5l-11 9" />
</g>
</svg>
