<?xml version="1.0" encoding="utf-8"?>
<svg version="1.1" id="Layer_1"
xmlns="http://www.w3.org/2000/svg"
xmlns:xlink="http://www.w3.org/1999/xlink"
xmlns:author="http://www.sothink.com"
width="127px" height="13px"
xml:space="preserve">
<g id="PathID_165" transform="matrix(0.010049, 0, 0, 0.010049, -0.45, 10.65)">
<path style="fill:#000000;fill-opacity:1" d="M538.5 -729q56.5 -7 101 -13.5q44 -7 86 -15.5q42.5 -9 92.5 -21q17 6 25 7.5q8 2 15 1.5q6.5 0 11 -3q4.5 -3 4.5 -7q0 -5 -9.5 -14q-9.5 -8.5 -31.5 -23q-7 -5 -18 -13.5q-11.5 -8.5 -26 -20q-30 18 -85.5 35q-55 17.5 -141 35.5q-74 15.5 -146 27q-71.5 11.5 -147.5 20.5q-75.5 9 -161 16l2 15.5q66.5 -0.5 122 -2.5l112 -6q57 -4 128.5 -11l0 134l-266 0l-55 -2q-24 -1.5 -45.5 -6l6 36.5l31 -3l27.5 -1.5q14.5 -0.5 36 -0.5l46 0l0 169l-100.5 0l-55 -2q-21.5 -1.5 -45 -6l6 35.5q17.5 -2 39.5 -3q21.5 -1 54.5 -1l100.5 0l0 182l-55.5 0l-55 -2q-21.5 -2 -41 -7l6 35.5l36.5 -2.5q20 -0.5 53.5 -0.5l275.5 0l0 162l-312 0q-22 0 -38.5 -0.5l-33 -3q-17.5 -2 -42.5 -6.5q3 18 6.5 36.5l52.5 -2.5q26 -0.5 55 -0.5l807.5 0q4 0 6.5 -2q3 -2 3 -5q0 -1 -1.5 -3l-3.5 -4.5l-29.5 -26.5l-25 -22l-30.5 -26q-16.5 16.5 -25 25.5q-8.5 9 -17 17l-22.5 23l-284 0l0 -162l382 0q5 0 8.5 -2q3.5 -2 4 -5q0 -1.5 -1 -3l-1 -3.5l-28 -26.5q-11 -10.5 -23 -20.5q-11.5 -10.5 -29 -25.5q-17.5 18 -28.5 30q-11.5 12 -29 32.5l-26.5 0l0 -182l189.5 0q3 0 6 -2q3 -2 3 -5q0 -1 -1.5 -3q-1 -2 -3.5 -4.5l-27.5 -26.5q-11.5 -11 -23 -21q-11.5 -10 -28.5 -24q-16.5 19 -28 31l-30 31.5l-56.5 0l0 -169l154.5 0q3.5 0 5 -2q2 -2 2.5 -4q0 -1 -1 -3q-0.5 -1.5 -2.5 -3.5q-16 -16.5 -28 -27.5q-11.5 -11.5 -23.5 -21.5q-11.5 -10.5 -29 -25.5q-17.5 19.5 -28 32q-10.5 12 -25.5 31.5l-253 0l0 -142.5M700.5 -563l0 169l-162 0l0 -169l162 0M472 -563l0 169l-156.5 0l0 -169l156.5 0M700.5 -370.5l0 182l-162 0l0 -182l162 0M472 -370.5l0 182l-156.5 0l0 -182l156.5 0" />
</g>
<g id="PathID_166" transform="matrix(0.010049, 0, 0, 0.010049, 9.8, 10.65)">
<path style="fill:#000000;fill-opacity:1" d="M510 -585.5q9.5 -32.5 14 -49.5q5 -17 9 -32l11 -41.5l429.5 0q5 0 8 -2q3.5 -2 3.5 -4q0 -2.5 -1.5 -5q-1.5 -3 -3.5 -5.5q-21.5 -17.5 -36.5 -29q-14.5 -12 -30 -23q-15 -11 -38 -26.5l-22 24.5l-18 21l-22.5 26l-263 0l5.5 -23l5 -19l7 -27.5q26.5 -6 36.5 -11q10 -4.5 9.5 -10.5q1 -5.5 -5 -9q-6 -3.5 -29.5 -8q-23.5 -4.5 -74 -12q-4 30 -9 56.5q-5.5 27 -13.5 63.5l-323.5 0l-52.5 -2q-21 -2.5 -47 -9q3 19.5 6.5 39.5q18.5 -3 37.5 -4q19 -1 46 -1l326.5 0l-13 50.5q-8 31 -19.5 72.5l-36 0l-26 -17.5l-22 -13l-27.5 -14.5q1.5 47 2.5 138q1.5 90.5 1.5 228.5q0 38.5 -0.5 67.5l-1 58l-2.5 68q0 6.5 3.5 9.5q3.5 3 12 2.5q32.5 0.5 44.5 -4q11.5 -4 10.5 -15.5l0 -45l342 0l0 44q0 7.5 3 10.5q3 3 11.5 3l27 -1.5q13 -1.5 20 -3.5q4.5 -1.5 6 -4q1.5 -2 2 -7.5q-1 -32 -1.5 -86l-1 -120.5q0 -65.5 -0.5 -132l0 -123q21.5 -12 29.5 -18q8 -6 7.5 -11.5q0 -2.5 -2.5 -5.5q-2.5 -3 -7 -6q-19.5 -14.5 -32.5 -23.5q-12.5 -9 -33 -22.5l-20 21.5l-20 23.5l-223 0M402.5 -448.5l0 -113.5l342 0l0 113.5l-342 0M744.5 -425l0 125l-342 0l0 -125l342 0M744.5 -276.5l0 130l-342 0l0 -130l342 0M186.5 17.5l803.5 0q4 0 6.5 -2q3 -2 3 -4q0 -2 -1.5 -4.5q-1.5 -2.5 -4 -5q-20.5 -18 -35 -30l-29.5 -24l-36.5 -28l-23 25.5l-18 21.5l-22.5 27l-643 0l0 -527.5q25 -8 34 -13.5q9.5 -5.5 9 -12q0 -3 -2.5 -5.5q-2.5 -2.5 -7.5 -4.5q-4 -2.5 -11 -4q-7.5 -2 -28.5 -4.5l-66 -8l1.5 36.5q1 15 1 29.5q0.5 14.5 0.5 33q0 74.5 -0.5 159q0 84.5 -1 164.5l-1 140.5l-1.5 88q-0.5 7.5 3 10q3.5 2.5 13.5 2.5q18.5 0 33 -2q15 -2 20 -5.5q2 -1 3 -3.5q1 -2.5 1 -7.5l0 -42" />
</g>
<g id="PathID_167" transform="matrix(0.010049, 0, 0, 0.010049, 20.05, 10.65)">
<path style="fill:#000000;fill-opacity:1" d="M119 -635.5q15 24.5 33.5 43q18 18.5 41 31.5q19 11.5 41 16.5q21.5 5 49 5l22 -1l26.5 -3q-30.5 71 -61 128.5q-30 57 -67 112q-10.5 15.5 -21.5 29.5q-11.5 14 -28 32q-6.5 7 -9 14.5q-2.5 7.5 -2 22.5q0 31 9 51.5q9 20.5 22.5 21q9 0.5 17.5 -8q8 -8.5 19.5 -29q4 -7.5 18 -38q14.5 -30.5 33.5 -72q19 -41.5 37 -82q18.5 -40.5 30 -68q21 -46 34.5 -77q13 -31.5 20 -47q121 -28 174.5 -49q53 -21.5 52 -41q-0.5 -13 -20 -22q-19 -8.5 -50 -8.5q-7 0 -11.5 1.5q-4 1.5 -10 6.5q-13.5 12 -25.5 19.5q-11.5 8 -31.5 16q-19.5 8 -56.5 21q27.5 -57 43.5 -88.5q15.5 -31.5 19 -37.5q6 -9 8 -15q2 -6 2 -11.5q0.5 -10.5 -11 -20.5q-11 -10 -37 -22.5q-22.5 -11 -44.5 -17.5q-21.5 -6 -37.5 -6q-5.5 -0.5 -11 1q-5.5 1.5 -13.5 6q36.5 18 51 36q15 18 14.5 43q0 26 -9 61q-8.5 35 -27.5 84q-29 6.5 -51.5 9.5q-22.5 3 -42 3q-25 0 -45 -5q-20.5 -5.5 -40 -18.5q-20 -13 -44 -36q-6 4 -12 8.5M670 -570q53 17.5 83 33q29.5 16 49 37.5l-28 6l-14.5 4q-5.5 1.5 -13 3q-35.5 9.5 -59 21q-23 11.5 -38 27.5q-14 14.5 -21.5 33q-8 18 -11.5 45q-3 27 -3 68.5l0 13.5q0.5 8.5 1 28q0.5 20 2 59.5q-19 -3 -32 -4l-29.5 -1q-57.5 0.5 -100 15.5q-43 15.5 -67 43q-24 27.5 -24.5 63.5q1 49 43 78.5q42.5 29.5 112.5 30q43.5 0 78 -11.5q34.5 -11.5 55.5 -32.5q15 -16.5 22 -36.5q7 -20.5 6.5 -50.5l0 -8.5l0 -11q39.5 18.5 68 39.5q29 21 56 50.5q15.5 17.5 22 22.5q7 5 14 4.5q9 -0.5 14.5 -10q5.5 -9.5 6 -25q0 -24.5 -10.5 -45q-10 -20 -30.5 -36q-23 -18 -60.5 -35.5q-37.5 -17 -85 -31q-7.5 -52 -12 -86q-4.5 -34 -6.5 -55.5q-2 -21.5 -2 -35q-1 -52 23 -73q24 -20.5 84.5 -20q25.5 0 43 2q17 1.5 30 6.5q13.5 4.5 27.5 13q6.5 4.5 12 6.5q5.5 2 11.5 2q12.5 -0.5 19.5 -8.5q7 -8 7 -21.5q0 -18 -17 -39q-17 -21 -47.5 -41q-35 -23.5 -78.5 -37.5q-43.5 -14 -96.5 -18.5l-3 16.5M617.5 -110.5q0 48.5 -32 73.5q-31.5 25 -94 25q-48 0 -75 -16q-27 -16 -27.5 -44.5q0.5 -36.5 37.5 -57q37 -20.5 103 -21q24 0 44.5 2.5q20.5 3 43.5 10l0 27.5" />
</g>
<g id="PathID_168" transform="matrix(0.010049, 0, 0, 0.010049, 30.3, 10.65)">
<path style="fill:#000000;fill-opacity:1" d="M510 -585.5q9.5 -32.5 14 -49.5q5 -17 9 -32l11 -41.5l429.5 0q5 0 8 -2q3.5 -2 3.5 -4q0 -2.5 -1.5 -5q-1.5 -3 -3.5 -5.5q-21.5 -17.5 -36.5 -29q-14.5 -12 -30 -23q-15 -11 -38 -26.5l-22 24.5l-18 21l-22.5 26l-263 0l5.5 -23l5 -19l7 -27.5q26.5 -6 36.5 -11q10 -4.5 9.5 -10.5q1 -5.5 -5 -9q-6 -3.5 -29.5 -8q-23.5 -4.5 -74 -12q-4 30 -9 56.5q-5.5 27 -13.5 63.5l-323.5 0l-52.5 -2q-21 -2.5 -47 -9q3 19.5 6.5 39.5q18.5 -3 37.5 -4q19 -1 46 -1l326.5 0l-13 50.5q-8 31 -19.5 72.5l-36 0l-26 -17.5l-22 -13l-27.5 -14.5q1.5 47 2.5 138q1.5 90.5 1.5 228.5q0 38.5 -0.5 67.5l-1 58l-2.5 68q0 6.5 3.5 9.5q3.5 3 12 2.5q32.5 0.5 44.5 -4q11.5 -4 10.5 -15.5l0 -45l342 0l0 44q0 7.5 3 10.5q3 3 11.5 3l27 -1.5q13 -1.5 20 -3.5q4.5 -1.5 6 -4q1.5 -2 2 -7.5q-1 -32 -1.5 -86l-1 -120.5q0 -65.5 -0.5 -132l0 -123q21.5 -12 29.5 -18q8 -6 7.5 -11.5q0 -2.5 -2.5 -5.5q-2.5 -3 -7 -6q-19.5 -14.5 -32.5 -23.5q-12.5 -9 -33 -22.5l-20 21.5l-20 23.5l-223 0M402.5 -448.5l0 -113.5l342 0l0 113.5l-342 0M744.5 -425l0 125l-342 0l0 -125l342 0M744.5 -276.5l0 130l-342 0l0 -130l342 0M186.5 17.5l803.5 0q4 0 6.5 -2q3 -2 3 -4q0 -2 -1.5 -4.5q-1.5 -2.5 -4 -5q-20.5 -18 -35 -30l-29.5 -24l-36.5 -28l-23 25.5l-18 21.5l-22.5 27l-643 0l0 -527.5q25 -8 34 -13.5q9.5 -5.5 9 -12q0 -3 -2.5 -5.5q-2.5 -2.5 -7.5 -4.5q-4 -2.5 -11 -4q-7.5 -2 -28.5 -4.5l-66 -8l1.5 36.5q1 15 1 29.5q0.5 14.5 0.5 33q0 74.5 -0.5 159q0 84.5 -1 164.5l-1 140.5l-1.5 88q-0.5 7.5 3 10q3.5 2.5 13.5 2.5q18.5 0 33 -2q15 -2 20 -5.5q2 -1 3 -3.5q1 -2.5 1 -7.5l0 -42" />
</g>
<g id="PathID_169" transform="matrix(0.010049, 0, 0, 0.010049, 40.55, 10.65)">
<path style="fill:#000000;fill-opacity:1" d="M207 -167q0 44 -1.5 105.5q-1.5 61.5 -4.5 129q0.5 7 3.5 10.5q3 3 10.5 3q13.5 0 28 -2.5q15 -2 20.5 -4.5q3.5 -2.5 5.5 -5.5q1.5 -3 1.5 -9l-1 -62q-0.5 -24 -0.5 -45.5q-0.5 -22 -0.5 -51.5l0 -78.5l0 -206l36 -7.5q12.5 -2.5 24.5 -5.5l32.5 -7.5q5.5 16.5 9 28.5q3.5 12 6.5 25q2.5 9.5 6 14.5q4 5 9.5 4.5q12.5 -1 23.5 -21q10.5 -20 11 -44q0 -12 -5.5 -24q-5.5 -12.5 -17 -25.5q-21.5 -24.5 -44 -46q-23 -21.5 -49 -41l-10.5 10q14.5 21.5 23.5 37.5q9.5 15.5 16.5 30q7 14.5 14.5 33l-41 3.5l-33 2.5l-41.5 2.5l-66 3q43 -51.5 74.5 -91q31.5 -39 61 -79.5q30 -40 67.5 -94q25.5 -0.5 35.5 -4q10 -3.5 9.5 -10q0.5 -5 -7.5 -10.5q-7.5 -5.5 -29 -14.5q-22 -8.5 -63 -23q-13.5 39 -37.5 89.5q-24 50 -56.5 107.5q-13 23 -24.5 42q-12 19.5 -25.5 40.5l-33 48q-19.5 0.5 -28.5 0.5l-12.5 0.5l-8 0l-20.5 -1l-26.5 -2q7 38.5 11.5 58.5q5 20.5 9 27.5q4 7.5 9 7q5 0.5 9.5 -7.5q4 -7.5 10 -29.5l54.5 -8q17.5 -2.5 28 -4.5l26 -4.5l0 206.5M56.5 -686q32 36 54 68.5q21.5 33 33 61.5q10 29.5 14.5 36q4 7 11 6q11.5 -1.5 20.5 -20.5q9 -18.5 9.5 -42q0.5 -17 -11 -32q-11 -15 -40.5 -35.5q22.5 -26.5 39 -47.5q16.5 -21 35 -47.5q18 -26 45 -67.5l6.5 0.5l4.5 0.5q21 0 30 -3.5q9.5 -3 9 -9q1 -5 -4 -9.5q-5 -4 -28.5 -13q-23 -8.5 -77 -27.5q-3.5 23.5 -14.5 58q-10.5 34.5 -26 74.5q-15.5 40.5 -34.5 80q-17 -12 -30 -20.5q-12.5 -8.5 -35.5 -22.5q-5 6.5 -10 12.5M627 -754.5l24.5 -20.5q10 -8.5 20.5 -19q10 -10 25.5 -27q24.5 -1.5 33.5 -4.5q9 -3 8.5 -10q0.5 -4.5 -6.5 -8.5q-7 -4 -29 -11q-22 -7 -67 -19.5q-4.5 29.5 -14 61q-9 32 -21 59l-66.5 0l-24.5 -16q-10.5 -6.5 -21 -12.5q-11 -6.5 -27 -15.5q1 21 1.5 56q1 35 1 76.5q0.5 41.5 0.5 82l0 35.5q0 14 -0.5 30q0 16 -1 42.5l-1.5 71.5q0.5 7 3.5 9q2.5 2.5 8.5 2.5q11 0 24 -2q13 -2 19.5 -4.5q4.5 -1 6 -4q2 -3 2 -9l0 -28l110.5 0l0 418q0 7.5 -2.5 10.5q-2.5 3 -9.5 3l-52.5 -2l-44 -2.5l-56.5 -5l0 15.5l58.5 14q17.5 4.5 24 6.5q6 2.5 11 5q16 8 23 18.5q7.5 10.5 9.5 28.5q43 -8 66 -17q22.5 -8.5 31 -21.5q8 -13 7.5 -34q-1.5 -37 -2 -62.5q-1 -25 -1 -44l-1 -35l0 -44q-0.5 -17 -1 -22.5l-5 -163.5q10.5 45.5 22 81q12 36 27 68q15.5 32.5 37 68q22 36.5 44.5 65.5q22.5 29 50.5 55.5q27.5 27 64.5 56q10 -25 25 -37q15 -12 40.5 -16l4 -15.5q-37.5 -15 -69.5 -34q-32 -19 -69.5 -50q-29 -22.5 -50 -45q-21.5 -22.5 -40 -50.5q32 -15 53.5 -27.5q21.5 -12 41 -26q19.5 -14 45.5 -34.5l10 1l6.5 0q17.5 0 24.5 -2.5q7.5 -2.5 7 -7.5q0.5 -5 -5 -10q-5.5 -5 -25 -15.5q-19 -10.5 -59 -31q-25 42 -51.5 74.5q-26.5 32.5 -59 62q-20.5 -34 -33.5 -62q-13 -28.5 -21 -59.5q-8 -31 -14 -73.5l110.5 0l0 33q0 7 3 9.5q3.5 3 10.5 3q28 0 41.5 -5q13.5 -4.5 13.5 -13.5l0 -3q-2 -39.5 -3 -67.5q-1.5 -27.5 -1.5 -51.5q-0.5 -24.5 -0.5 -53.5l1 -125.5q17.5 -9 25 -15.5q8 -6 7.5 -11q0 -4 -3 -8.5q-3.5 -4 -10 -10l-25.5 -19l-28 -20q-13 13 -20.5 21.5q-8 8.5 -20 22.5l-172 0M526.5 -615.5l0 -115.5l282.5 0l0 115.5l-282.5 0M809 -592l0 128l-282.5 0l0 -128l282.5 0M45 36q25 -41.5 44.5 -84q19.5 -42.5 34.5 -90q15.5 -48 28.5 -106.5q20.5 -3 28 -7q7.5 -3.5 7 -9.5q0.5 -5 -6 -9q-6.5 -4 -26 -9.5q-19.5 -6 -58 -15.5q-0.5 18.5 -2 36q-1.5 18 -5 40q-3.5 22.5 -9.5 55q-6.5 36 -13 65q-6.5 29 -15.5 59.5q-9 30 -22.5 69.5l15 6M295 -300q14 33 23 59.5q9 26.5 15.5 53.5q6.5 27 11.5 61q4 23 6.5 30q3 6.5 8 6q8 -0.5 17 -11.5q9.5 -11 16 -26.5q6.5 -15.5 7 -28.5q0 -22.5 -24 -60.5q-23.5 -37.5 -69 -87l-11.5 4M446.5 -304l-27.5 -1.5q-13 -1 -33 -5.5q3.5 18 6.5 36.5q12 -3 27.5 -4.5l32.5 -1.5l75 0q-10.5 32 -21 56.5q-11 25 -24.5 48.5q-13.5 23.5 -33.5 51.5q-29 43.5 -57 74.5q-28.5 30.5 -69 64q5.5 7.5 10.5 15.5q45 -28.5 76 -54q30.5 -25 61 -59q38.5 -39.5 66 -81q27 -42 54 -99q27.5 -8 27.5 -15.5q0.5 -2.5 -2 -6.5q-2.5 -3.5 -10 -12q-14.5 -13.5 -24.5 -21.5l-25 -20.5l-16.5 16.5q-6.5 7 -16 18.5l-77 0" />
</g>
<g id="PathID_170" transform="matrix(0.010049, 0, 0, 0.010049, 50.8, 10.65)">
<path style="fill:#000000;fill-opacity:1" d="M148.5 -665.5q23 30 45 47.5q22 17 47.5 24.5q25.5 7 60 7l29.5 -1q14.5 -1.5 39 -5q-36 54 -65.5 93q-29.5 38.5 -59.5 68.5q-29.5 30 -65.5 58.5q-14 11 -20.5 17.5q-6 6 -8 12q-1.5 6 -1 16.5q0 24.5 7.5 39.5q7.5 14.5 20 14.5q7.5 0.5 15.5 -6.5q8.5 -6.5 22.5 -26q56 -71 113.5 -109.5q57 -38.5 108.5 -39q17.5 0 31 8.5q14 8 21.5 22q7.5 15.5 10.5 32.5q3 17.5 3.5 48.5q-49.5 31 -78.5 51.5q-29.5 21 -48.5 39.5q-37.5 36 -55.5 70q-18 34.5 -18 70.5q0 37 18 63.5q18.5 26.5 57.5 45q31 14.5 83.5 22q52 7.5 124.5 7.5q32.5 0 66.5 -2l65 -5q30.5 -3 52 -7.5q15.5 -3 23.5 -10q8.5 -7.5 8.5 -17.5q-0.5 -11.5 -11.5 -23.5q-11 -11.5 -27.5 -19.5q-16.5 -8 -33 -8l-9 0.5l-10.5 2.5q-47 13.5 -99.5 21q-52.5 7.5 -106.5 7.5q-86 0 -128.5 -20q-42.5 -20.5 -42.5 -62q0 -23 12.5 -46.5q12.5 -24 38 -48.5q19 -18.5 46 -37q27 -18.5 73.5 -44q-0.5 34 -2.5 60.5q-1.5 27 -4.5 49q-1 5.5 -1 9.5l0 8q0 13.5 9 22q9 8.5 23.5 8.5q9.5 0 17 -5.5q8 -5 12 -13.5q3.5 -8 6 -31q2 -22.5 2 -57l0 -34q0 -12.5 -0.5 -23q0 -10.5 -0.5 -26q41 -20.5 93 -42q52 -21.5 101 -38.5q49 -17.5 80.5 -25q21.5 -4.5 29.5 -11q8 -7 7.5 -20.5q-1 -21.5 -20 -45q-19 -24 -45.5 -41q-26.5 -16.5 -50 -17.5l-10.5 1q-5 1.5 -13 5q22.5 9.5 34.5 22.5q12.5 12.5 12.5 25.5q0.5 9 -10 19.5q-11 10 -38.5 25.5q-27.5 16 -77.5 41q-41 20.5 -59.5 30q-18 9.5 -26 13q-7.5 3.5 -15 7.5q-7.5 -47 -38.5 -74.5q-30.5 -27.5 -76.5 -28q-28 0 -59 9.5q-30.5 9.5 -73 31.5l17 -24l16 -24l22.5 -34q17 -26 29 -43.5q12 -18 25 -36.5q41 -8 74.5 -15.5q34 -8 69 -18q35 -10 80 -24.5q23 -8 33.5 -16q10.5 -8 10.5 -17q-0.5 -15 -19.5 -24q-18.5 -9.5 -49 -10q-5.5 0 -10 2q-5 1.5 -9.5 5.5q-16.5 14 -34.5 24q-17.5 10.5 -44 20q-26.5 9.5 -69 21.5l8.5 -12.5l17 -27.5l14.5 -20.5q8 -12 15 -21.5q9 -11 13 -18q3.5 -6.5 3.5 -11.5q0 -9.5 -9 -18q-8.5 -8.5 -28 -16q-20 -8.5 -41 -13q-20.5 -4.5 -38.5 -4.5q-14 0 -24 2.5q-10 2 -22.5 9q39.5 9.5 56.5 23q17 14 16.5 34q0 17.5 -9.5 44.5q-9.5 27 -26.5 60q-34.5 7 -60 10.5q-25.5 3 -49.5 3q-27 0 -46.5 -4q-20 -4 -38.5 -14.5q-19 -10.5 -43 -29.5l-11 9" />
</g>
<g id="PathID_171" transform="matrix(0.010049, 0, 0, 0.010049, 61.05, 10.65)">
<path style="fill:#000000;fill-opacity:1" d="M648 -640l326.5 0q4 0 6 -1.5q2.5 -1.5 2.5 -3.5q0 -1 -1 -2.5l-1 -2.5l-36.5 -33l-29 -26.5l-36 -32l-21 27q-9 11 -17.5 22.5l-21 28.5l-285.5 0q14.5 -25.5 24.5 -44q10 -18.5 18.5 -36.5q8.5 -18 18.5 -41.5l15 -3.5l11.5 -2.5q7 -1.5 12.5 -3.5q6 -2.5 10 -4.5q2.5 -2 3.5 -4.5q1.5 -2.5 1.5 -5q1 -4 -7 -8.5q-8.5 -5 -35 -13.5q-26.5 -9 -80.5 -26q-5 32 -13.5 63q-8.5 30.5 -22 66q-14 35.5 -35.5 82q-26 57 -49 100q-22.5 43 -47.5 81q-24.5 38.5 -57 82l11 9q38.5 -35.5 71 -73q32.5 -37 65 -83.5q32.5 -46 71 -109.5l56.5 0l0 461.5l0 19l-0.5 30.5l-1.5 59q-0.5 28.5 -0.5 45.5q-0.5 17 -0.5 29.5q-0.5 12 -0.5 26l-0.5 36.5q-0.5 9 4.5 12q5 3.5 17 3q31.5 0.5 44.5 -4q13 -4.5 12.5 -15.5l0 -0.5l0 -1.5l-1 -60.5l-1 -38.5q0 -16 -0.5 -32.5l-0.5 -42.5l-1 -39.5l0 -27l0 -44l305 0q4 0 6.5 -1.5q3 -1.5 3 -4.5q0 -1 -1.5 -3l-2.5 -4.5q-18.5 -17.5 -31.5 -29q-12.5 -12 -25.5 -23.5l-32.5 -28l-21 24.5l-17 20l-21 26l-162 0l0 -191.5l306 0q4 0 6.5 -1.5q3 -1.5 3 -3.5q0 -1.5 -1.5 -4l-3.5 -4.5q-18 -17.5 -31 -29q-12.5 -12 -25.5 -23.5l-33 -27l-20 23.5l-16 20l-20 26l-165 0l0 -178M53 -349.5q26 -24 46 -44.5q20 -20.5 41.5 -46.5q21.5 -26.5 52 -66.5l0 300q0 81 -1.5 146q-1.5 64.5 -4.5 127.5l0 3q-0.5 6.5 4 9q4.5 2.5 17.5 2q11.5 0 26 -2q15 -1.5 22 -4q5 -1.5 7 -4q2 -2.5 2 -6.5q0 -1.5 -0.5 -3q-0.5 -1.5 -0.5 -3q0 -27 0.5 -49l0.5 -35l0 -47.5q0 -25.5 -1 -55l-1 -48.5l0 -30l0 -286.5q18.5 -9 24.5 -13.5q6 -4.5 5 -10q0.5 -5.5 -2 -7.5q-2.5 -1.5 -10 -3l-36 -6l-17 -2.5l-12.5 -1.5q31.5 -42 55 -77.5q23 -35 46.5 -77.5q23.5 -42.5 55 -105l28 -6.5q10 -2 13 -3q2.5 -1.5 4 -4q1 -2.5 1 -5q0 -3 -1.5 -5q-1.5 -2 -5.5 -4.5l-22.5 -8.5l-41.5 -14q-23.5 -8.5 -47.5 -16q-6 39.5 -24 88.5q-18 49 -53 120q-30.5 62.5 -59 114q-29 51 -58.5 95.5q-30 45 -63.5 87.5l12 9" />
</g>
<g id="PathID_172" transform="matrix(0.010049, 0, 0, 0.010049, 71.3, 10.65)">
<path style="fill:#000000;fill-opacity:1" d="M238.5 -424q58.5 32.5 95 53q36.5 20.5 59.5 34.5q23.5 13.5 43 26q19 12.5 43.5 29q-17.5 19.5 -33 35q-16 15.5 -35 31.5q-34 30.5 -65.5 54q-31 24 -63.5 44.5q-32.5 20.5 -71.5 42l9 15q42 -16.5 75.5 -32.5q33 -16.5 64 -35.5q30.5 -19 65.5 -44.5q28 -20.5 50.5 -40q22.5 -19.5 43.5 -42q43.5 30.5 73.5 54.5q30 23.5 55 46.5q25 23.5 53 53.5q19 21 25.5 26.5q6.5 5 12.5 4.5q7.5 -0.5 12.5 -7.5q4.5 -7 5 -17q-1.5 -29 -7.5 -49q-6 -20 -17.5 -35q-17 -21.5 -63.5 -53.5q-46.5 -31.5 -110.5 -65.5q46.5 -56 81.5 -106.5q35 -51 65 -108.5q30.5 -58 62.5 -134l1.5 0l0.5 0q20.5 0 29 -3q8 -3 8 -10.5q0.5 -4.5 -8 -9.5q-8.5 -5.5 -30.5 -14q-22.5 -8.5 -64 -22.5q-20.5 92.5 -70 192q-49.5 99.5 -121.5 192q-47.5 -24 -87.5 -42.5q-40.5 -18.5 -82 -36q-42 -17.5 -94.5 -38.5l-8.5 13.5M260 -657.5q19 33 31.5 55.5q12.5 23 21 42q8.5 19.5 16 42q8 22.5 17.5 55q3 10 7 14.5q3.5 4 9.5 4q8.5 -0.5 17 -11q9 -10.5 14.5 -25.5q6 -15.5 6.5 -30q0 -11 -4.5 -22q-4 -11.5 -12 -23q-21 -28.5 -49 -56q-28 -27.5 -62.5 -53.5l-12.5 8M421 -708.5q30 44.5 51.5 87q21.5 42.5 35.5 84q6.5 21.5 11.5 29q4.5 7 12 6.5q7.5 -0.5 15.5 -11q8 -10.5 13.5 -25.5q5.5 -15 6 -29q0 -10 -4 -20q-4 -10 -11.5 -21q-19 -26.5 -45 -51q-26.5 -24 -73 -58.5q-6 4.5 -12 9.5M169 0l682 0l0 54.5q-0.5 7.5 4 10q4.5 2.5 16.5 2l25.5 -1.5q13 -1 18.5 -3.5q4.5 -1.5 6.5 -4.5q2.5 -3 2.5 -9l0 -42.5q0 -16.5 -0.5 -30q0 -13.5 -0.5 -31l-1 -47l-1 -93.5q-0.5 -37.5 -0.5 -66.5q-0.5 -28.5 -0.5 -57l0 -65l0 -91.5l0 -261.5q24 -14 31.5 -21q8 -7 7.5 -12.5q0 -3 -2.5 -6.5q-2.5 -3.5 -8 -9l-22.5 -18q-9 -7.5 -19 -14.5l-24 -16.5q-21.5 24.5 -42.5 49l-658.5 0l-30.5 -20q-12.5 -7.5 -25.5 -14q-12.5 -6 -31 -14l3 119q1 44 1 58q0 164.5 -0.5 281q0 116.5 -1 197q-0.5 80.5 -2 137q-1.5 56.5 -3.5 101q1 6.5 5 9q4 2.5 12 2l26 -1q12.5 -0.5 20 -3q6 -0.5 9 -4q3 -3.5 4.5 -10.5l0 -51M169 -763l682 0l0 739.5l-682 0l0 -739.5" />
</g>
<g id="PathID_173" transform="matrix(0.010049, 0, 0, 0.010049, 81.55, 10.65)">
<path style="fill:#000000;fill-opacity:1" d="M846.5 -195.5q-26 22 -47 38q-20.5 16 -40 28.5q-20 12.5 -43 24.5q-59 31 -119.5 48q-61 17 -114 17.5q-27 0 -50.5 -7.5q-23.5 -7 -40.5 -20q-21.5 -17.5 -31.5 -47q-9.5 -29.5 -9.5 -76q0 -37 3.5 -91.5q3.5 -54 9.5 -115.5q6 -61.5 13 -119.5q7 -58 14 -102q7.5 -43.5 13 -63q6.5 -17 8.5 -24.5q1.5 -7.5 1.5 -12.5q0 -16 -15 -31.5q-15 -15 -44.5 -29q-24.5 -10.5 -49 -17q-25 -6.5 -43.5 -6.5q-8 0 -14 2q-6.5 2.5 -14.5 8.5q36 14.5 54 29.5q18 14.5 23.5 39q6 24.5 5.5 67.5q0 17.5 -0.5 37.5q-0.5 20 -2 52l-4.5 86.5q-3 47 -4.5 93q-2 46 -3 85.5q-1 40 -1 68.5q0 64.5 6.5 105.5q7 41.5 22 67.5q24 41.5 67.5 64q44 22.5 102.5 23q64 0 128 -25.5q63.5 -25 122.5 -72.5q59.5 -47 109 -114l-12.5 -11" />
</g>
<g id="PathID_174" transform="matrix(0.010049, 0, 0, 0.010049, 91.8, 10.65)">
<path style="fill:#000000;fill-opacity:1" d="M119 -635.5q15 24.5 33.5 43q18 18.5 41 31.5q19 11.5 41 16.5q21.5 5 49 5l22 -1l26.5 -3q-30.5 71 -61 128.5q-30 57 -67 112q-10.5 15.5 -21.5 29.5q-11.5 14 -28 32q-6.5 7 -9 14.5q-2.5 7.5 -2 22.5q0 31 9 51.5q9 20.5 22.5 21q9 0.5 17.5 -8q8 -8.5 19.5 -29q4 -7.5 18 -38q14.5 -30.5 33.5 -72q19 -41.5 37 -82q18.5 -40.5 30 -68q21 -46 34.5 -77q13 -31.5 20 -47q121 -28 174.5 -49q53 -21.5 52 -41q-0.5 -13 -20 -22q-19 -8.5 -50 -8.5q-7 0 -11.5 1.5q-4 1.5 -10 6.5q-13.5 12 -25.5 19.5q-11.5 8 -31.5 16q-19.5 8 -56.5 21q27.5 -57 43.5 -88.5q15.5 -31.5 19 -37.5q6 -9 8 -15q2 -6 2 -11.5q0.5 -10.5 -11 -20.5q-11 -10 -37 -22.5q-22.5 -11 -44.5 -17.5q-21.5 -6 -37.5 -6q-5.5 -0.5 -11 1q-5.5 1.5 -13.5 6q36.5 18 51 36q15 18 14.5 43q0 26 -9 61q-8.5 35 -27.5 84q-29 6.5 -51.5 9.5q-22.5 3 -42 3q-25 0 -45 -5q-20.5 -5.5 -40 -18.5q-20 -13 -44 -36q-6 4 -12 8.5M670 -570q53 17.5 83 33q29.5 16 49 37.5l-28 6l-14.5 4q-5.5 1.5 -13 3q-35.5 9.5 -59 21q-23 11.5 -38 27.5q-14 14.5 -21.5 33q-8 18 -11.5 45q-3 27 -3 68.5l0 13.5q0.5 8.5 1 28q0.5 20 2 59.5q-19 -3 -32 -4l-29.5 -1q-57.5 0.5 -100 15.5q-43 15.5 -67 43q-24 27.5 -24.5 63.5q1 49 43 78.5q42.5 29.5 112.5 30q43.5 0 78 -11.5q34.5 -11.5 55.5 -32.5q15 -16.5 22 -36.5q7 -20.5 6.5 -50.5l0 -8.5l0 -11q39.5 18.5 68 39.5q29 21 56 50.5q15.5 17.5 22 22.5q7 5 14 4.5q9 -0.5 14.5 -10q5.5 -9.5 6 -25q0 -24.5 -10.5 -45q-10 -20 -30.5 -36q-23 -18 -60.5 -35.5q-37.5 -17 -85 -31q-7.5 -52 -12 -86q-4.5 -34 -6.5 -55.5q-2 -21.5 -2 -35q-1 -52 23 -73q24 -20.5 84.5 -20q25.5 0 43 2q17 1.5 30 6.5q13.5 4.5 27.5 13q6.5 4.5 12 6.5q5.5 2 11.5 2q12.5 -0.5 19.5 -8.5q7 -8 7 -21.5q0 -18 -17 -39q-17 -21 -47.5 -41q-35 -23.5 -78.5 -37.5q-43.5 -14 -96.5 -18.5l-3 16.5M617.5 -110.5q0 48.5 -32 73.5q-31.5 25 -94 25q-48 0 -75 -16q-27 -16 -27.5 -44.5q0.5 -36.5 37.5 -57q37 -20.5 103 -21q24 0 44.5 2.5q20.5 3 43.5 10l0 27.5" />
</g>
<g id="PathID_175" transform="matrix(0.010049, 0, 0, 0.010049, 102.05, 10.65)">
<path style="fill:#000000;fill-opacity:1" d="M637.5 -722l40.5 27q13 9 21.5 15.5q8.5 6.5 21 17q-23 13.5 -40.5 22q-17 8.5 -34 16l-36.5 14.5q-11.5 4.5 -17 7q-5 2 -11 5q-31 -39 -50.5 -64l-28.5 -34.5q-23.5 -26.5 -33 -38.5q-9.5 -12.5 -9 -15.5q0 -5.5 8 -8.5q7.5 -3 23.5 -3l17 1l29.5 3l5 -15q-34.5 -11.5 -63.5 -16.5q-29 -5.5 -56.5 -5q-33 0 -51 10q-18.5 10 -18.5 27.5q-0.5 10.5 7.5 19q8 8.5 31.5 21q31.5 18 70.5 54q38.5 36 71.5 79.5q-51.5 15 -100 23.5q-48 8 -89 8q-47.5 0.5 -85.5 -13q-38 -13 -78.5 -43.5l-11 10.5q38.5 46.5 84.5 68.5q45.5 21.5 103.5 21.5q50.5 0 101.5 -8.5q51.5 -8.5 106.5 -25.5q43 60 74.5 117.5q31.5 57 48.5 110.5q-42.5 -12.5 -95.5 -20q-53 -7 -105.5 -7q-127 0.5 -197.5 43.5q-70.5 43 -71.5 120.5q0.5 56 38.5 99.5q38 43.5 108 67.5q40 13.5 91.5 20.5q51 7 109 7q52.5 0.5 71.5 -6.5q18.5 -6.5 17.5 -25.5q-0.5 -11.5 -10.5 -24q-10 -13 -24.5 -22q-14.5 -9 -28.5 -9l-5.5 0.5l-6.5 1.5q-19.5 3.5 -40 5.5l-49.5 1.5q-41.5 0 -78.5 -6q-36.5 -5.5 -63.5 -16.5q-38 -16.5 -59 -43q-20.5 -27 -21 -60.5q1 -55.5 51.5 -87.5q50.5 -31.5 140 -32q49.5 0 97.5 10q48 10.5 88 29q17 8 35 20.5q18 12.5 33.5 27.5q10.5 10.5 17 14q6.5 3.5 14.5 3.5q15.5 0 21.5 -12.5q6.5 -12.5 6.5 -42q0 -18.5 -5.5 -36.5q-5 -18.5 -17 -40.5q-16 -29 -38.5 -66q-22.5 -37 -49 -77q-26 -40 -53 -78q48.5 -18.5 74.5 -29q26.5 -10.5 42 -18q15.5 -7 33 -16.5q29 -16.5 43 -29.5q13.5 -12.5 13.5 -24q-0.5 -15 -10.5 -23.5q-10.5 -8 -29.5 -8l-6 0l-5.5 1l-5 0q-9.5 0 -29 -4.5q-19.5 -4.5 -42.5 -11.5q-23 -7.5 -44 -15.5q-4 5.5 -7.5 11" />
</g>
<g id="PathID_176" transform="matrix(0.010049, 0, 0, 0.010049, 112.3, 10.65)">
<path style="fill:#000000;fill-opacity:1" d="M450.5 -414.5l-10 16.5l-7.5 13q-4.5 6.5 -12.5 19.5l-31 52.5q-11.5 19.5 -19.5 32.5q-7.5 13 -15.5 26l-20 33.5q-10.5 18.5 -16 27q-5.5 9 -9 14l-8.5 13q-19 -13.5 -30.5 -31.5q-12 -17.5 -23 -48.5q-11.5 -31.5 -17.5 -69q-6 -37.5 -6 -79.5q0 -31 4.5 -68.5q5 -37 14 -84l2.5 -15.5q0.5 -6.5 0.5 -11q0 -17.5 -11.5 -38q-11.5 -20.5 -34.5 -43q-23.5 -23 -43.5 -36.5q-20.5 -13.5 -33.5 -13.5l-4.5 0l-4.5 0q22 27.5 33 50q11 22 15 51q4 28.5 4.5 75q-0.5 54 0 85.5q1 31.5 2.5 52.5q1.5 20.5 4.5 42.5q7.5 61.5 25.5 114q18 52.5 44 90.5q16.5 24 37 43.5q20.5 20 41 31.5q20 12 34.5 12q9.5 0 16 -7.5q6.5 -7 6.5 -18q0 -4 -0.5 -8q-0.5 -4.5 -1.5 -8.5l-5 -24q-1 -5.5 -1 -10.5q-0.5 -20 8.5 -51q8.5 -31 29.5 -84.5q21 -53 58.5 -138l-15.5 -7M679 -580.5q43.5 23.5 75 56.5q31 33 52 77.5q8.5 19 15.5 43q7.5 23.5 11.5 48q4.5 24 4.5 43q0.5 14 -4 20q-4.5 6 -19.5 11l-41.5 12q-34.5 10 -97 27q1.5 7.5 3.5 15l43 -1.5q17.5 -0.5 34.5 -0.5q32.5 0 50 3q17.5 2.5 27 9.5q10.5 6.5 17 9q6.5 2.5 13.5 2q23.5 -0.5 37.5 -22q13.5 -21.5 14 -58.5q-0.5 -72 -31.5 -136q-30.5 -64 -82.5 -109.5q-52.5 -45.5 -117.5 -61l-5 12.5" />
</g>
<g id="PathID_177" transform="matrix(0.010049, 0, 0, 0.010049, 122.55, 10.65)">
<path style="fill:#000000;fill-opacity:1" d="M192.5 -169q-36.5 0.5 -66.5 18q-29.5 18 -47.5 47.5q-17.5 30 -18 66.5q0.5 37 18 67q18 29.5 47.5 47.5q30 17.5 66.5 18q36.5 -0.5 66.5 -18q29.5 -18 47.5 -47.5q17.5 -30 18 -67q-0.5 -37 -18 -67q-17.5 -29.5 -47 -47q-30 -17.5 -67 -18M192.5 -136q42.5 1 70 29q28 28 29 70q-1 42.5 -29 70.5q-27.5 28 -70 29q-41.5 -1 -70 -29.5q-28 -28 -29 -70q1 -42 29 -70q27.5 -28 70 -29" />
</g>
</svg>
