<?xml version="1.0" encoding="utf-8"?>
<svg version="1.1" id="Layer_1"
xmlns="http://www.w3.org/2000/svg"
xmlns:xlink="http://www.w3.org/1999/xlink"
xmlns:author="http://www.sothink.com"
width="62px" height="62px"
xml:space="preserve">
<g id="569" transform="matrix(1, 0, 0, 1, 31, 31)">
<path style="fill:#FBDAD1;fill-opacity:1" d="M30,0Q30 12.45 21.2 21.2Q12.45 30 0 30Q-12.35 30 -21.25 21.2Q-30 12.45 -30 0Q-30 -12.45 -21.25 -21.25Q-12.35 -30 0 -30Q12.45 -30 21.2 -21.25Q30 -12.45 30 0" />
<path style="fill:none;stroke-width:2;stroke-linecap:round;stroke-linejoin:round;stroke-miterlimit:3;stroke:#FBDAD1;stroke-opacity:1" d="M30,0Q30 12.45 21.2 21.2Q12.45 30 0 30Q-12.35 30 -21.25 21.2Q-30 12.45 -30 0Q-30 -12.45 -21.25 -21.25Q-12.35 -30 0 -30Q12.45 -30 21.2 -21.25Q30 -12.45 30 0z" />
</g>
</svg>
