<?xml version="1.0" encoding="utf-8"?>
<svg version="1.1" id="Layer_1"
xmlns="http://www.w3.org/2000/svg"
xmlns:xlink="http://www.w3.org/1999/xlink"
xmlns:author="http://www.sothink.com"
width="8px" height="11px"
xml:space="preserve">
<g id="PathID_576" transform="matrix(0.00970588, 0, 0, 0.00970588, -0.3, 8.95)">
<path style="fill:#000000;fill-opacity:1" d="M692.5 -202q-1 -10 -4 -14q-2.5 -3.5 -6.5 -3.5q-3 0 -6 1l-7 3q-14.5 29 -34.5 61q-20.5 32 -47.5 60.5q-27.5 28 -62 46q-35 18 -78.5 18.5l-126 0q-44 1 -63.5 -9q-19.5 -10.5 -24 -46q-4.5 -35.5 -3.5 -109.5l0 -174q0 -6 3.5 -9q3.5 -3 12 -3l116.5 0q39 -1 67.5 28q28.5 28.5 34 99.5q1 9.5 5.5 14q4 4.5 10 4.5q4.5 0 9 -3q4 -3.5 7 -10l0 -273q-0.5 -7.5 -3 -12q-3 -4.5 -8 -4.5q-3 0 -7.5 2.5q-4.5 2.5 -10 7.5q-7 66.5 -37 92.5q-29.5 25.5 -70.5 24.5l-116.5 0q-7 0 -10 -3.5q-2.5 -3.5 -2.5 -9l0 -151.5q-0.5 -70.5 1.5 -104.5q2 -34 11 -44.5q9.5 -10 30.5 -9l188.5 0q44.5 1 81 29q37 27.5 66.5 70.5q29 42.5 51 88q4 2.5 7.5 3.5q3.5 1 6 1q3.5 0 6.5 -3.5q2.5 -3 5.5 -10q-8 -37.5 -17.5 -75l-18 -68.5q-8.5 -30.5 -12.5 -46q-2 -10.5 -8 -13.5q-5.5 -3.5 -20.5 -3l-561 0q-8.5 0 -13 3.5q-4.5 3.5 -4.5 8.5q0 4 2.5 8q2.5 3.5 9 7.5q40.5 1.5 60 8q19 7 25 16.5q6 9.5 7 18.5q3 14.5 4 40.5q1 25.5 1 72.5l0 30l0 35.5l0 226q0 85 -0.5 141q-1 55.5 -4.5 74.5q-3 15 -9.5 23q-6 8.5 -23 12q-17 4 -51.5 6q-5.5 3 -9.5 8q-3.5 4.5 -4 9.5q0 3.5 4.5 6.5q4 2.5 14 2.5l550 0q10 0.5 17.5 -3.5q7.5 -4 15.5 -22q8 -18 21 -60q12.5 -41.5 34 -115.5" />
</g>
</svg>
