<?xml version="1.0" encoding="utf-8"?>
<svg version="1.1" id="Layer_1"
xmlns="http://www.w3.org/2000/svg"
xmlns:xlink="http://www.w3.org/1999/xlink"
xmlns:author="http://www.sothink.com"
width="20px" height="13px"
xml:space="preserve">
<g id="PathID_472" transform="matrix(0.0115196, 0, 0, 0.0115196, -0.1, 11)">
<path style="fill:#231815;fill-opacity:1" d="M779 -29q-26.5 -2 -41.5 -8.5q-15 -6.5 -25 -21.5q-9.5 -14.5 -20.5 -41.5q-25 -60 -57 -140q-32 -80 -67 -169q-35 -89 -68.5 -175.5l-60.5 -157.5q-5 -14.5 -9.5 -25q-4.5 -10.5 -12 -11q-0.5 -0.5 -6.5 2q-6.5 2.5 -23 13.5q-8 5.5 -18 9q-10 3.5 -16 5q-8.5 3 -12.5 18.5q-4 15.5 -11 37q-38.5 102 -75 202q-36.5 99.5 -67.5 185q-31 85.5 -53.5 145q-22.5 59.5 -33.5 80.5q-10 22.5 -27 35.5q-17 12.5 -53.5 16q-7 3.5 -10 8q-2.5 4.5 -2.5 8q0 5.5 4.5 9q4.5 3.5 13 3.5l193.5 0q9 0 13.5 -4q4 -3.5 4 -8.5q0 -4.5 -3 -9q-2.5 -4.5 -7.5 -7q-35 -3.5 -53 -8q-17.5 -4 -23.5 -10.5q-5.5 -6.5 -5 -16.5q0.5 -15 11.5 -48.5q11.5 -33.5 26.5 -73.5q15.5 -40.5 28.5 -76q1 -4.5 4 -7.5q3 -2.5 11 -2.5l296 0l44.5 118l23 61.5q6.5 19 8 24.5q1.5 5 1.5 6q-1 18.5 -20.5 25q-20 6 -49 8q-7 3.5 -11 8q-3.5 4.5 -3.5 8q0 5.5 5 9q5.5 3.5 15.5 3.5l237.5 0q9.5 0 14.5 -3.5q5 -3.5 5 -9q0 -3 -3.5 -7.5q-3 -4 -10 -8M513 -305.5l-287 0q69 -191.5 137.5 -383q74.5 191.5 149.5 383" />
</g>
<g id="PathID_473" transform="matrix(0.0115196, 0, 0, 0.0115196, 9.75, 11)">
<path style="fill:#231815;fill-opacity:1" d="M734 -389q0 -77.5 -22.5 -147q-22 -69.5 -66 -123.5q-44 -54 -109.5 -85.5q-65 -31 -151 -31.5q-81.5 0.5 -144.5 33q-63.5 32.5 -107 89q-44 56 -66.5 127.5q-23 71.5 -23 150q0 78 22.5 149q22 70.5 66 126q44 55.5 109.5 87.5q65.5 32.5 152 33q81 -1 144 -34.5q63 -33.5 106.5 -91.5q44 -57.5 66.5 -130.5q23 -72.5 23 -151M622.5 -385q0 67 -13.5 133q-13.5 66.5 -41.5 121.5q-28 55 -70.5 88.5q-43 33 -101 34q-67 -1 -113 -34q-46.5 -33.5 -74.5 -88.5q-28 -55 -40.5 -121.5q-13 -66 -12.5 -133q0 -66.5 13.5 -131q14 -64.5 42 -117.5q28.5 -53 71 -85q43 -31.5 101 -32.5q66.5 1 112.5 32.5q46 32 74 85q28 53 40.5 117.5q12.5 64.5 12.5 131" />
</g>
</svg>
