<?xml version="1.0" encoding="utf-8"?>
<svg version="1.1" id="Layer_1"
xmlns="http://www.w3.org/2000/svg"
xmlns:xlink="http://www.w3.org/1999/xlink"
xmlns:author="http://www.sothink.com"
width="8px" height="13px"
xml:space="preserve">
<g id="PathID_570" transform="matrix(0.0114216, 0, 0, 0.0114216, -0.55, 11.55)">
<path style="fill:#000000;fill-opacity:1" d="M304 -378q65 0.5 104.5 15q39.5 14.5 59.5 36q20 22 26.5 44q6.5 22.5 6 38.5q0.5 33 -17.5 67q-18.5 34 -63 57.5q-44.5 23 -122 24q-54 -0.5 -88.5 -8.5q-34.5 -8 -58 -17q-28 -10 -37.5 -13q-9 -3 -15 -2.5q-24 1 -37 19.5q-13 18.5 -13 41q1 24 14 35q13 11.5 28 17q37.5 16.5 88 28.5q50 12 121 12.5q88.5 -0.5 150 -22.5q62 -22 100.5 -58q38 -36 55.5 -79.5q17.5 -44 17.5 -88q-1 -56 -19 -94q-18.5 -38 -45.5 -61q-27 -23.5 -53.5 -36q-26.5 -12.5 -44 -18q18 -8.5 44.5 -27q26.5 -19 47 -54q21 -34.5 22.5 -91q-0.5 -64.5 -33.5 -113q-32.5 -48.5 -89.5 -75.5q-57 -27 -131 -27.5q-52 0.5 -91.5 11.5q-39.5 10.5 -66.5 24.5q-27.5 14 -42.5 24.5q-15 8 -28 21q-13.5 13 -14 35q0.5 21 15 38q14.5 17.5 37 18.5q10 -0.5 19 -4.5q8.5 -4 15 -8q23 -16.5 59.5 -31.5q36 -15.5 91 -16.5q32 0 63 11q31.5 11 52.5 36.5q21 25 21.5 66q-0.5 38.5 -21.5 65.5q-21 27 -55.5 41.5q-35 14 -77.5 14l-24.5 0q-25 0 -38.5 12.5q-13.5 13 -14 40q1 25 11.5 36q10.5 10.5 23 13q12 2.5 18 2l30.5 0" />
</g>
</svg>
