<?xml version="1.0" encoding="utf-8"?>
<svg version="1.1" id="Layer_1"
xmlns="http://www.w3.org/2000/svg"
xmlns:xlink="http://www.w3.org/1999/xlink"
xmlns:author="http://www.sothink.com"
width="8px" height="11px"
xml:space="preserve">
<g id="PathID_573" transform="matrix(0.00970588, 0, 0, 0.00970588, -0.25, 8.95)">
<path style="fill:#000000;fill-opacity:1" d="M700.5 -211.5q0 -89.5 -66 -138q-65.5 -49 -194 -56q49.5 -3.5 97.5 -22.5q47.5 -19 79 -56q31.5 -37 32.5 -94.5q-0.5 -63.5 -30.5 -103.5q-30.5 -40 -84.5 -58.5q-54 -18.5 -127 -18.5l-361.5 0q-10.5 0 -15.5 4q-5 3.5 -5 8q0 5 3.5 9q3.5 4.5 11 7.5q37 0.5 54.5 6.5q17 6.5 22.5 15q5 9 6 16.5q3 17 5 59q2 42.5 2 119.5l0 239.5q0 78 -1 132.5q-1.5 54 -5 72.5q-2.5 12.5 -8 20q-5.5 8 -21.5 12.5q-16.5 4.5 -51.5 7.5q-6 3 -9.5 8q-4 4.5 -4 9.5q0 4.5 5 7.5q5 3.5 15.5 3.5l342 0q40 0.5 92 -7.5q52 -8.5 101 -30.5q49.5 -22.5 82 -64q32.5 -41.5 33.5 -108.5M549 -583q-0.5 48 -17.5 80.5q-17 32.5 -43.5 52q-27 19.5 -57.5 28.5q-30.5 8.5 -58 8.5l-133 0q-5.5 0 -10 -1q-4.5 -1 -8.5 -3l0 -141.5q0 -29.5 0.5 -59q0.5 -29 1.5 -53q1 -23.5 3 -36q0 -4 6 -11.5q6 -7.5 16.5 -10l34.5 -1.5q25.5 -0.5 54 -0.5l46 0q68 0.5 104 21.5q36.5 20.5 49.5 54q13.5 33.5 12.5 72M593 -206q0 47.5 -21.5 87q-21.5 40 -65 64q-43.5 24 -109 24.5q-62.5 0.5 -98.5 -2.5q-35.5 -3 -52.5 -12.5q-17 -9 -21.5 -28q-4.5 -19 -4 -51l0 -256.5q1.5 -2 5.5 -3q4.5 -1 10 -1l144.5 0q65.5 -0.5 112.5 15q47.5 16 73.5 55q25.5 39.5 26 109" />
</g>
</svg>
