<?xml version="1.0" encoding="utf-8"?>
<svg version="1.1" id="Layer_1"
xmlns="http://www.w3.org/2000/svg"
xmlns:xlink="http://www.w3.org/1999/xlink"
xmlns:author="http://www.sothink.com"
width="9px" height="12px"
xml:space="preserve">
<g id="PathID_558" transform="matrix(0.0115196, 0, 0, 0.0115196, -2.05, 10.35)">
<path style="fill:#000000;fill-opacity:1" d="M842.5 -201.5q-0.5 -10 -3.5 -14q-2.5 -4 -6.5 -3.5q-3 0 -6.5 1q-3 1.5 -7 3q-14 29 -34.5 61q-20 32.5 -47.5 60.5q-27 28.5 -62 46.5q-34.5 18 -78 18.5l-126 0q-44 1 -63.5 -9.5q-19.5 -10 -24 -46q-4.5 -35.5 -3.5 -109.5l0 -174q0 -6.5 3.5 -9.5q3.5 -3 12 -3l116.5 0q39 -1 67.5 28q28.5 29 34 100q1 9.5 5.5 14q4 4.5 9.5 4.5q5 0 9 -3q4.5 -3.5 7.5 -10.5l0 -273q-0.5 -7 -3.5 -11.5q-2.5 -5 -7.5 -5q-3.5 0 -7.5 2.5q-4.5 2.5 -10 8q-7 66 -37 92q-29.5 25.5 -70.5 24.5l-116.5 0q-7 0 -10 -3.5q-2.5 -3.5 -2.5 -9l0 -151.5q-0.5 -70 1.5 -104q2 -34 11 -44q9.5 -10.5 30.5 -9.5l188.5 0q44.5 1 81 29q37 27.5 66 70q29.5 43 51.5 88.5q4 2 7.5 3q3.5 1 5.5 1q4 0 6.5 -3q3 -3.5 6 -10.5q-8 -37.5 -17.5 -75q-10 -37.5 -18.5 -68q-8.5 -30.5 -12 -46q-2 -10.5 -8 -13.5q-6 -3.5 -21 -3l-560.5 0q-8.5 0 -13 3.5q-4.5 3.5 -4.5 8.5q0 4 2.5 8q2.5 3.5 8.5 7.5q41 1.5 60.5 8q19 7 25 16.5q6 9.5 7 18.5q3 14.5 4 40q1 26 1 72.5l0 65.5l0 226.5q0 85 -0.5 141q-1 56 -4.5 75q-3 14.5 -9.5 23q-6 8 -23 12q-17 4 -51.5 6q-5.5 3 -9.5 8q-3.5 4.5 -4 9.5q0 4 4.5 6.5q4 2.5 14 2.5l549.5 0q10.5 1 18 -3.5q7 -4 15.5 -22q8 -18.5 20.5 -60q13 -41.5 34 -116" />
</g>
</svg>
