<?xml version="1.0" encoding="utf-8"?>
<svg version="1.1" id="Layer_1"
xmlns="http://www.w3.org/2000/svg"
xmlns:xlink="http://www.w3.org/1999/xlink"
xmlns:author="http://www.sothink.com"
width="54px" height="14px"
xml:space="preserve">
<g id="PathID_513" transform="matrix(0.0107353, 0, 0, 0.0107353, -22.75, 11.45)">
<path style="fill:#000000;fill-opacity:1" d="" />
</g>
<g id="PathID_514" transform="matrix(0.0107353, 0, 0, 0.0107353, -11.8, 11.45)">
<path style="fill:#000000;fill-opacity:1" d="" />
</g>
<g id="PathID_515" transform="matrix(0.0107353, 0, 0, 0.0107353, -0.85, 11.45)">
<path style="fill:#000000;fill-opacity:1" d="M292 -436q-16 34.5 -25.5 55.5q-9.5 21 -17 36.5l-16.5 32.5q-8.5 17.5 -23 45.5q-22.5 41.5 -41.5 72.5q-19 31 -34.5 48q-14.5 16.5 -19 27.5q-5 11 -4.5 30q0.5 33 8 52q8 18.5 22 18.5q7 0 13 -4.5q6 -5 11.5 -15q12.5 -22 36.5 -74q23.5 -51.5 54.5 -124.5q27 -63.5 42 -99.5l18.5 -43.5q16.5 -39 26.5 -61l14.5 -35l9.5 -22q3.5 -9 9 -21.5q28.5 -8.5 47 -13.5q18 -4.5 31.5 -6.5l28.5 -1.5q40.5 -0.5 57 21q16.5 21.5 16 72.5q0 39.5 -7.5 87q-8 48 -21.5 96.5q-13.5 49 -31.5 91.5q-19.5 47.5 -34.5 67q-15 19.5 -32 19q-16.5 0 -58 -18.5q-41 -18 -100.5 -52l-9.5 13q53.5 43.5 77 64.5q24 20.5 30 31.5q6.5 10.5 7 24q1.5 12 8 18q6.5 5.5 19.5 5.5q25 -0.5 51.5 -12.5q27 -12.5 46.5 -33.5q22.5 -25.5 42.5 -67q20.5 -41.5 36 -92.5q15.5 -51 24.5 -104.5q9 -54 9 -103.5q0 -80.5 -32 -120.5q-32.5 -39.5 -98.5 -39.5q-17 0 -36.5 2.5q-19.5 2.5 -52 10q22 -54 38 -88.5q16.5 -35 27 -51q9 -12.5 12 -18.5q3 -5.5 2.5 -11q0 -16.5 -18.5 -30q-18.5 -13.5 -53 -23.5q-21 -6 -39 -9.5q-18 -3.5 -29.5 -3.5q-9 -0.5 -15.5 2q-6.5 2 -15.5 8q44 14 62 29.5q17.5 16 17 39q0 18.5 -5.5 46.5q-5.5 28 -15 59.5q-9.5 32 -21.5 62q-62 16.5 -109 26q-47 10 -65 10q-28 0.5 -45 -12q-17.5 -12.5 -33 -44.5q-3 8 -4.5 13.5q-1.5 5.5 -1.5 9.5q0.5 14.5 10 37q9.5 22 24 40.5q10.5 13.5 23 22q13 8.5 22 9q5.5 0 12 -2q6.5 -2.5 17.5 -9.5q19 -11 49.5 -23q31 -12 83.5 -30l-30.5 66.5M714 -554q50 25.5 83 58q33 32 57 78.5q14 25.5 21.5 49q7.5 23.5 10.5 49q-15 6.5 -32 12.5q-16.5 6 -45 15q-29 9.5 -80 25q2.5 7 4.5 14l63.5 -6.5l34.5 -2q13 -0.5 30 -0.5q13.5 0 22 1.5q8.5 2 20 8.5q7 4.5 12.5 6q5 1.5 11 1.5q19 -0.5 30 -14.5q10.5 -14.5 11 -41q0 -34.5 -15 -71q-14.5 -36.5 -43.5 -74q-67.5 -88 -187.5 -123.5l-8 14.5" />
</g>
<g id="PathID_516" transform="matrix(0.0107353, 0, 0, 0.0107353, 10.1, 11.45)">
<path style="fill:#000000;fill-opacity:1" d="M177.5 -644.5q33.5 38 70.5 56.5q36.5 18.5 78.5 18.5q41.5 0 90 -8.5q49 -8 100.5 -24.5q18 28.5 37 60.5q18.5 32 35 62.5q-64 19.5 -119.5 29q-55 10 -99.5 10q-40.5 0.5 -68.5 -13.5q-28.5 -14 -52.5 -47l-12 9.5q12.5 24 23 37.5q11 13.5 26 24q22 15 47.5 22.5q26 7 59 7q31.5 0 69 -5q37.5 -4.5 75.5 -13.5q38.5 -8.5 73.5 -20.5q28.5 55 48.5 99q19.5 44.5 28 75.5q-55 -12 -101.5 -17.5q-46 -5 -91 -5q-81 0.5 -142 19.5q-60.5 19 -94 53q-33.5 34.5 -34 81q0.5 40.5 26 74q26 33.5 73 55q35 14.5 86 22.5q50.5 8 111 8l58 -2q28 -2.5 50 -5.5q22 -3.5 32 -8q8 -3 11.5 -8q4 -5 4 -11q-0.5 -13.5 -11 -25.5q-10 -12.5 -25.5 -20.5q-15.5 -8 -31 -8.5l-5.5 0.5q-3 1 -7 1.5q-35.5 8.5 -64 11.5q-28.5 3 -65 3q-94.5 0 -144 -25q-49 -24.5 -49.5 -72.5q0 -26 15 -46.5q15 -20.5 46.5 -36.5q26.5 -13.5 59.5 -21q33 -7.5 68.5 -7.5q45.5 0 90 9q44.5 9 82.5 24.5q38.5 16 65 37q11.5 10 17 13q5.5 3 11.5 2.5q15.5 -0.5 25 -18.5q9 -17.5 9 -48q0 -14.5 -4 -27.5q-4.5 -13.5 -13.5 -27.5l-17.5 -29l-12 -21l-17.5 -31.5l-9 -15.5q-4.5 -8.5 -13 -23l-24 -41.5q103.5 -36.5 151.5 -61.5q47.5 -25.5 47 -43.5q0 -12 -7.5 -19q-7.5 -6.5 -20 -7l-4 0.5l-4.5 0.5l-16 2q-3 0.5 -2 0q-15.5 0 -36.5 -7q-21 -7 -50 -21.5l-7 10.5q17.5 13.5 28 22.5q10 9.5 25.5 25.5q-13 8 -27 15q-14 6.5 -37 16q-23.5 9.5 -63 25q-21 -33.5 -33.5 -55q-12 -21 -17 -28.5l-12 -20.5l-10.5 -17.5q63 -20 101 -33q37.5 -13 49.5 -18.5q39.5 -16 53.5 -25.5q14 -9.5 13 -19.5q0 -13 -15 -20q-15 -6.5 -45 -6.5q-11.5 0 -19.5 2.5q-7.5 2.5 -13.5 7.5q-13 14 -29.5 25q-16 10.5 -43 22q-27.5 12 -74 29q-20 -39.5 -28.5 -57.5q-9 -18.5 -11 -26.5q-2 -8 -2.5 -17.5q-1 -20.5 -3.5 -27.5q-2 -7 -8.5 -12.5q-7 -6 -25 -9.5q-18 -3.5 -45 -3.5l-24 1q-11 1 -23 4q-20 4 -28 9q-8 5 -13 17.5q28.5 3 49 8.5q20 5.5 30 13q12 9 28 28q16 18.5 32 41.5q16 23 28 45.5q-23 8.5 -53 15.5q-30 7 -60.5 11q-30.5 4 -54.5 4q-39.5 0.5 -70 -10q-31 -10.5 -66 -36l-8 11" />
</g>
<g id="PathID_517" transform="matrix(0.0107353, 0, 0, 0.0107353, 21.05, 11.45)">
<path style="fill:#000000;fill-opacity:1" d="M82 122q27.5 -13 47 -27.5q19.5 -14 35 -33q20.5 -26 32 -57q11.5 -30.5 12 -62q-0.5 -43.5 -21.5 -68.5q-21 -25 -57.5 -25.5q-30.5 0.5 -49.5 19q-18.5 19 -19 48.5q-0.5 25 13.5 39q14 14.5 47 22.5q11 2 15.5 7q4 4.5 4 13.5q0 27.5 -19.5 51.5q-19 24 -59.5 48l20.5 24.5" />
</g>
<g id="PathID_518" transform="matrix(0.0107353, 0, 0, 0.0107353, 32, 11.45)">
<path style="fill:#000000;fill-opacity:1" d="M369.5 -751.5l15 -18.5l10.5 -13.5l15.5 -19q25.5 -2.5 38.5 -7.5q13 -5 13 -12q-0.5 -2.5 -3.5 -5q-3 -3 -7 -5.5l-13.5 -5.5q-8 -2.5 -28 -8l-63 -17q-8 22.5 -17.5 42.5q-9 19.5 -23.5 42q-14 22.5 -35.5 52.5q-33.5 48 -67 86.5q-33 39 -71.5 74.5q-38 35 -87 72.5l7 10q36.5 -19 61.5 -33.5q25 -15 46 -29.5q21 -15 44.5 -34q1 46.5 1 68.5l1 34l0 29.5q0 106 -7 190q-6.5 84 -19 135.5q-7.5 34.5 -19.5 62.5q-11.5 28.5 -31 58q-19 30 -49.5 68l6 6q34.5 -24 59 -47q24.5 -22.5 43.5 -49q19 -26.5 37 -61.5q15.5 -30.5 24.5 -60.5q8.5 -29.5 15 -69.5l524.5 0l0 180q0.5 14 -5 19q-5.5 5 -20.5 4.5l-73.5 -4l-43.5 -3l-32 -2.5l-37.5 -3.5l-2 16.5q49 7.5 79.5 15.5q30 8.5 48.5 19q15.5 8.5 21.5 19.5q6.5 10.5 8 31q37 -10.5 57.5 -17.5q20 -6.5 30.5 -12q10.5 -5.5 17.5 -12.5q11 -9.5 16 -23q4.5 -13 6.5 -38.5l-1 -155.5l0 -74l0 -281.5q4.5 -4 8.5 -6.5l6 -3.5q5 -3.5 8.5 -5.5l6.5 -5q2 -1.5 3 -3.5l1.5 -4.5q0 -4 -3.5 -8.5q-3.5 -4 -12 -11l-26.5 -20.5q-10.5 -8 -28 -20.5l-18 20q-6.5 8 -16.5 21l-262 0q28 -23 47 -40q19 -17 36.5 -34.5q18 -18 41 -43.5l34 -6q11 -2 16 -3.5l7.5 -2.5q4 -2 6.5 -4.5q2.5 -2.5 3 -4q0 -2.5 -4.5 -7.5q-4.5 -5 -13 -12l-23.5 -18.5l-19 -15l-24 -18.5q-12.5 12.5 -20 21q-8 8.5 -20 23l-225.5 0M275.5 -585.5q-11 -9.5 -17.5 -14.5q-6.5 -4.5 -17.5 -11q25.5 -23 50 -49.5q24.5 -26 59.5 -67.5l241 0q-15.5 29 -27 49q-11.5 19.5 -25 40.5q-14 21 -36 53l-227.5 0M789.5 -423l-230.5 0l0 -139l230.5 0l0 139M789.5 -399.5l0 161l-230.5 0l0 -161l230.5 0M268.5 -238.5q2 -20 3 -39.5q1 -19 2 -47q1 -28 2 -74.5l215 0l0 161l-222 0M275.5 -423l0 -21.5q0.5 -15.5 0.5 -32.5l0.5 -24.5l0 -27l-1 -33.5l215 0l0 139l-215 0" />
</g>
<g id="PathID_519" transform="matrix(0.0107353, 0, 0, 0.0107353, 42.95, 11.45)">
<path style="fill:#000000;fill-opacity:1" d="M511 -3q64 -11 110 -25.5q46.5 -14.5 89.5 -38q97.5 -52.5 150.5 -133q53 -80.5 53.5 -177.5q0 -74.5 -24.5 -134.5q-24.5 -60.5 -74 -106q-50 -45.5 -118 -69.5q-68 -24.5 -146 -24.5q-67.5 0 -132.5 17.5q-65 17.5 -121.5 49.5q-56.5 32 -98.5 76q-43 48 -67.5 101q-24 53 -24.5 102q0 24 5.5 46.5q6 22.5 18 46.5q14.5 28.5 23 44.5q8 16.5 13 28q5 11 9 24q8.5 24 13.5 36q4.5 12 7.5 18q3.5 6 8 11.5q8.5 10 20 15.5q11.5 6 25 6q28 0 66 -38q38 -38 86.5 -114.5q39 -63.5 69.5 -129.5q30.5 -66.5 47.5 -125.5q17.5 -58.5 18 -99.5q0.5 -21.5 -6.5 -40q-7 -19 -25.5 -45l19.5 -1.5l16.5 -0.5q49.5 0 96 12.5q46.5 12 81.5 34.5q56.5 36.5 86 94q29.5 57.5 29.5 132.5q0 71 -23 133q-23 62 -68 114q-43 50 -100.5 84q-57 34 -139.5 58q3.5 9 7.5 17.5M484 -677q8.5 18.5 11.5 29.5q3 11 3 22q-0.5 32.5 -17 83.5q-16.5 50.5 -45.5 111q-29.5 60.5 -67.5 122q-38.5 60.5 -71 97.5q-33 36.5 -50.5 37.5q-8.5 0 -18.5 -8q-10 -7.5 -20.5 -21.5q-19.5 -27.5 -30 -63q-11 -35 -11 -72.5q1 -79.5 42.5 -150.5q42 -71 113.5 -120.5q71 -50 161 -67" />
</g>
</svg>
