<?xml version="1.0" encoding="utf-8"?>
<svg version="1.1" id="Layer_1"
xmlns="http://www.w3.org/2000/svg"
xmlns:xlink="http://www.w3.org/1999/xlink"
xmlns:author="http://www.sothink.com"
width="86px" height="13px"
xml:space="preserve">
<g id="PathID_505" transform="matrix(0.0107353, 0, 0, 0.0107353, -1.6, 11.35)">
<path style="fill:#000000;fill-opacity:1" d="M148.5 -665.5q23 30 45 47.5q22 17 47.5 24.5q25.5 7 60 7l29.5 -1q14.5 -1.5 39 -5q-36 54 -65.5 93q-29.5 38.5 -59.5 68.5q-29.5 30 -65.5 58.5q-14 11 -20.5 17.5q-6 6 -8 12q-1.5 6 -1 16.5q0 24.5 7.5 39.5q7.5 14.5 20 14.5q7.5 0.5 15.5 -6.5q8.5 -6.5 22.5 -26q56 -71 113.5 -109.5q57 -38.5 108.5 -39q17.5 0 31 8.5q14 8 21.5 22q7.5 15.5 10.5 32.5q3 17.5 3.5 48.5q-49.5 31 -78.5 51.5q-29.5 21 -48.5 39.5q-37.5 36 -55.5 70q-18 34.5 -18 70.5q0 37 18 63.5q18.5 26.5 57.5 45q31 14.5 83.5 22q52 7.5 124.5 7.5q32.5 0 66.5 -2l65 -5q30.5 -3 52 -7.5q15.5 -3 23.5 -10q8.5 -7.5 8.5 -17.5q-0.5 -11.5 -11.5 -23.5q-11 -11.5 -27.5 -19.5q-16.5 -8 -33 -8l-9 0.5l-10.5 2.5q-47 13.5 -99.5 21q-52.5 7.5 -106.5 7.5q-86 0 -128.5 -20q-42.5 -20.5 -42.5 -62q0 -23 12.5 -46.5q12.5 -24 38 -48.5q19 -18.5 46 -37q27 -18.5 73.5 -44q-0.5 34 -2.5 60.5q-1.5 27 -4.5 49q-1 5.5 -1 9.5l0 8q0 13.5 9 22q9 8.5 23.5 8.5q9.5 0 17 -5.5q8 -5 12 -13.5q3.5 -8 6 -31q2 -22.5 2 -57l0 -34q0 -12.5 -0.5 -23q0 -10.5 -0.5 -26q41 -20.5 93 -42q52 -21.5 101 -38.5q49 -17.5 80.5 -25q21.5 -4.5 29.5 -11q8 -7 7.5 -20.5q-1 -21.5 -20 -45q-19 -24 -45.5 -41q-26.5 -16.5 -50 -17.5l-10.5 1q-5 1.5 -13 5q22.5 9.5 34.5 22.5q12.5 12.5 12.5 25.5q0.5 9 -10 19.5q-11 10 -38.5 25.5q-27.5 16 -77.5 41q-41 20.5 -59.5 30q-18 9.5 -26 13q-7.5 3.5 -15 7.5q-7.5 -47 -38.5 -74.5q-30.5 -27.5 -76.5 -28q-28 0 -59 9.5q-30.5 9.5 -73 31.5l17 -24l16 -24l22.5 -34q17 -26 29 -43.5q12 -18 25 -36.5q41 -8 74.5 -15.5q34 -8 69 -18q35 -10 80 -24.5q23 -8 33.5 -16q10.5 -8 10.5 -17q-0.5 -15 -19.5 -24q-18.5 -9.5 -49 -10q-5.5 0 -10 2q-5 1.5 -9.5 5.5q-16.5 14 -34.5 24q-17.5 10.5 -44 20q-26.5 9.5 -69 21.5l8.5 -12.5l17 -27.5l14.5 -20.5q8 -12 15 -21.5q9 -11 13 -18q3.5 -6.5 3.5 -11.5q0 -9.5 -9 -18q-8.5 -8.5 -28 -16q-20 -8.5 -41 -13q-20.5 -4.5 -38.5 -4.5q-14 0 -24 2.5q-10 2 -22.5 9q39.5 9.5 56.5 23q17 14 16.5 34q0 17.5 -9.5 44.5q-9.5 27 -26.5 60q-34.5 7 -60 10.5q-25.5 3 -49.5 3q-27 0 -46.5 -4q-20 -4 -38.5 -14.5q-19 -10.5 -43 -29.5l-11 9" />
</g>
<g id="PathID_506" transform="matrix(0.0107353, 0, 0, 0.0107353, 9.35, 11.35)">
<path style="fill:#000000;fill-opacity:1" d="M833.5 -302l0 56.5q0 6.5 3 9.5q3 2.5 10.5 2.5q14 0 30 -2q16 -1.5 23.5 -4q4.5 -2 6 -4.5q2 -2.5 2 -8q-1.5 -43 -2.5 -78q-1 -35 -1.5 -68.5q-0.5 -33.5 -0.5 -72.5l0 -45l1 -61.5q19 -10.5 25.5 -16q7 -5.5 7.5 -10.5l0 -1q0 -4 -3 -7.5q-3 -3.5 -8.5 -8l-22.5 -16l-19 -13l-25 -16l-18 22.5l-18.5 22.5l-285 0l0 -184.5q29 -10 38 -15q9 -5 8 -11.5q1 -7.5 -13 -11q-14.5 -4 -55.5 -7.5l-22 -1l-31.5 -3q2 16 3 29q1.5 13 2 34q0.5 21 0.5 61l1 109.5l-253 0q-18.5 -11 -31.5 -18q-12.5 -7 -25.5 -13q-13 -5.5 -32 -13l1.5 70.5q0.5 30 0.5 55l0 51.5l-1 68.5q-0.5 61 -2 176.5q0 7.5 3.5 10.5q3.5 3 13 2.5l28.5 -1.5q16 -2 22.5 -3.5q4.5 -1.5 6 -3.5q2 -2.5 2 -7.5l0 -56.5l267.5 0l0 97.5l0 73q0 28.5 -0.5 52.5q0 24.5 -0.5 57.5l-1 87q-0.5 7 2.5 9q3 2.5 10.5 2.5q15 0 31.5 -2q17 -2 24 -4.5q3.5 -1 5.5 -3.5q1.5 -2 1.5 -6.5l-1.5 -104l-1 -70.5q0 -29.5 -0.5 -55.5l0 -57l0 -75.5l294 0M833.5 -325.5l-294 0l-1 -177.5l0 -94l295 0l0 271.5M469 -325.5l-267.5 0l0 -271.5l267.5 0l0 52l0 219.5" />
</g>
<g id="PathID_507" transform="matrix(0.0107353, 0, 0, 0.0107353, 20.3, 11.35)">
<path style="fill:#000000;fill-opacity:1" d="M189.5 -489.5q-5 47.5 -12 80q-6.5 33 -18.5 65.5q-13.5 39 -33.5 71.5q-19.5 32 -40.5 52.5q-17 15 -22 23.5q-5 8.5 -4.5 20.5q0.5 29.5 9 50.5q9 21 21.5 22q13 0 30 -17.5q17 -17 32.5 -47q17.5 -32 30 -75.5q13 -43 19.5 -93q7 -49.5 7 -100.5l0 -23q-0.5 -10 -1 -29.5l-17.5 0M318.5 -171l0 32l-1 40l-3 75.5q1 22.5 9.5 34q8 11.5 26 17.5q8 3.5 27.5 5l63 2.5q44 0.5 125.5 0.5q37 0 75.5 -1.5l69.5 -4q31 -2 43.5 -4.5q23 -5 34.5 -14q11.5 -9 11.5 -22q0 -11 -7.5 -18q-8 -7.5 -23 -9.5q-10 -2 -15.5 -6.5q-5 -4.5 -5 -12l0 -3l13 -223.5l-13 -1l-30 125q-12 47 -19.5 71.5q-7.5 25 -13 35q-4.5 10 -15 15.5q-10.5 5 -33 7l-63.5 2l-36 0q-22 -0.5 -45.5 -0.5q-23.5 0 -40.5 -0.5l-21.5 0q-25.5 -1 -33.5 -5.5q-8 -4 -7.5 -16l0 -532.5q21.5 -8 31.5 -12q9.5 -4 11.5 -6.5q2.5 -2.5 2 -7q1 -5.5 -7 -9.5q-8.5 -4 -35 -8.5q-26 -5 -80.5 -13q2 34 3.5 71q1.5 37.5 1.5 70.5l0 326.5M339 -814q71 35 132.5 80.5q61.5 45 108 97.5q11 13 17.5 18q6.5 5 11 5q9 -0.5 14.5 -13.5q6 -13 6 -33q0 -11 -2 -23q-2.5 -12.5 -6 -23q-4 -9 -10.5 -16q-7 -7 -19.5 -14.5q-32.5 -20.5 -66 -35.5q-33 -15.5 -75.5 -29q-43 -13 -103 -28l-7 14.5M769 -489.5q29.5 49 51.5 97q22 48 39.5 101.5q17 53.5 31.5 118q4.5 20.5 10 29.5q5 8.5 13 8.5q6.5 0 13.5 -7q7.5 -7 15 -21.5q9.5 -19 15 -39q5.5 -19.5 5.5 -34q0 -42.5 -46 -108q-45.5 -66 -135.5 -153l-13 8" />
</g>
<g id="PathID_508" transform="matrix(0.0107353, 0, 0, 0.0107353, 31.25, 11.35)">
<path style="fill:#000000;fill-opacity:1" d="M317.5 -794q31.5 5.5 48.5 14q17 8.5 25 23q4 7 6 18q2.5 11 3.5 34q1.5 23 3 66l2.5 60.5q1 23 2 37.5q1 14 2.5 26q3.5 32.5 11 51q7 18.5 18.5 26.5q12.5 9 23 12.5q10 3 26.5 3q-45 24 -74 43q-29 19.5 -51 39q-50.5 42 -75.5 84.5q-25 43 -25 87.5q0.5 51.5 30 91.5q29.5 40 81.5 60q32.5 11.5 75.5 17.5q43 6 98.5 6q32 0 71 -2l74 -5q34.5 -3 52 -6.5q24 -4 34 -12q10 -8 10 -21.5q-1 -19.5 -18 -34.5q-16.5 -15 -37.5 -16q-4.5 0 -8.5 1l-12 2.5q-37.5 8.5 -80 15q-43 7 -84 10.5q-41 4 -73.5 4q-85.5 0 -128.5 -28q-43.5 -28.5 -43.5 -83.5q0 -36 19 -67.5q19.5 -32 61 -63.5q31.5 -24.5 67.5 -44q35.5 -19.5 81.5 -36.5q45.5 -17 107 -34.5q34.5 -9.5 49 -14.5q15 -5 19.5 -7q10.5 -4.5 16 -12.5q5.5 -8 5.5 -18q-1 -17 -15.5 -29.5q-14.5 -13 -33.5 -13.5q-9 0 -19 2.5q-9.5 3 -23 9.5q-46 22 -72.5 33.5q-26 11 -40.5 15q-14.5 4 -24.5 4q-23 1 -31.5 -15.5q-9 -16 -8.5 -60.5q0.5 -43 3.5 -84q3 -40.5 8 -73.5q5 -32.5 11 -50q5.5 -13 7 -17.5q1.5 -4 1.5 -9.5l0 -0.5l0 -1.5q0 -10.5 -6.5 -18.5q-7 -8 -22.5 -14q-12.5 -5.5 -30.5 -10q-18.5 -4 -37.5 -7q-19.5 -2.5 -35 -2.5q-15 -0.5 -24 3q-9.5 3.5 -20 13" />
</g>
<g id="PathID_509" transform="matrix(0.0107353, 0, 0, 0.0107353, 42.2, 11.35)">
<path style="fill:#000000;fill-opacity:1" d="M362.5 58.5q47.5 -21 85.5 -45.5q38 -24.5 67 -52q53.5 -50.5 82 -117.5q28.5 -66.5 29 -142.5q0 -26 -3 -47q-2.5 -21 -10 -42.5q-7 -21 -20 -46.5l-1 -20.5l0 -14.5q0 -19.5 1 -44.5q1 -25 2.5 -50q1.5 -25 4 -45l56 -3q25.5 -1 53.5 -1l81.5 2.5q37 2.5 76 8l33.5 4l14.5 1.5l7.5 0.5q11.5 0 17 -4.5q5.5 -4.5 5.5 -13q0 -8 -3.5 -14.5q-4 -6.5 -13 -13q-20 -16 -45.5 -27q-25 -10.5 -41.5 -11q-5.5 -0.5 -12.5 2q-7 2 -25.5 9q-12 4.5 -25 7.5q-13 3 -38 5.5l-73 5.5l-29 2.5l-17.5 1.5l-20 2.5q3 -36.5 8.5 -60q5.5 -24 14 -39.5q6.5 -12.5 8.5 -17.5q2 -4.5 1.5 -10q0 -11 -10 -20.5q-10 -9 -29 -15.5q-22.5 -7 -47.5 -10.5q-25.5 -4 -52 -4q-20 0 -29 3.5q-9.5 4 -18 15q39 5.5 59.5 17q20.5 12 28.5 33.5q6 16 9 42q2.5 26 2.5 71.5l-68 7.5l-57 7.5q-27.5 3.5 -60 8.5l-77 12.5q-33.5 5 -53.5 7l-35 2q-30.5 0 -55 -13q-24.5 -13 -44 -39q-2.5 3.5 -4 7q-1 3.5 -1 5q0 13 12 34.5q11.5 21 28.5 40q18 18.5 35 29q17 10 31 10q4.5 0 11.5 -2q7 -1.5 12 -3q17 -9 32.5 -15.5q15 -6 34 -12q63 -19 130 -32q67 -13.5 128 -19l1 12.5l0 7.5q0 17 -0.5 38.5q0 21.5 -0.5 40.5l0 28q-19.5 -10.5 -31.5 -14q-12 -4 -26 -3.5q-38 0.5 -68 20.5q-29.5 20 -46.5 55.5q-17 35 -17.5 80.5q0.5 42.5 16.5 75.5q16.5 33 45 52.5q28 19 64.5 19.5q17.5 0 32.5 -5q15.5 -5 33 -15.5q-12.5 54 -35.5 97q-23 43 -61.5 81q-38.5 38 -97.5 78l8 13.5M551 -344q0 47.5 -16.5 71.5q-16 24.5 -49 24.5q-37 -1 -59.5 -31.5q-23 -30.5 -23.5 -80q1 -48 23.5 -78.5q23 -31 58.5 -32q33.5 0 50 31q16.5 31 16.5 95" />
</g>
<g id="PathID_510" transform="matrix(0.0107353, 0, 0, 0.0107353, 53.15, 11.35)">
<path style="fill:#000000;fill-opacity:1" d="M601 -716.5l3.5 -1.5l1.5 -0.5l2 0l1 0q0 -1 0.5 -1l0.5 0q1 0 2 1q1 0.5 1 1q-1 3 -2.5 6q-1.5 2.5 -7.5 10.5q-30 38.5 -55 69.5q-25 31 -51 61.5q-26 31 -59 68.5q-33.5 38 -80 90l-66.5 73q-24.5 25.5 -40.5 40.5q-16.5 14.5 -35 28.5q-11 9 -16 18q-5.5 8.5 -5.5 18q0 15.5 5.5 30.5q5 15.5 12.5 25.5q8 10 16 10.5q7 0 14.5 -6q7.5 -6 20 -22q43.5 -54.5 100 -97.5q56.5 -42.5 115.5 -67.5q59 -24.5 110 -25q30.5 0 57.5 5.5q27.5 5.5 44 15q31 18.5 47 51.5q16.5 32.5 16.5 75.5q-0.5 65.5 -33 115.5q-32 50 -91 76q-11 -22 -21.5 -36.5q-10 -14.5 -23.5 -27q-25.5 -24 -59 -37q-33 -13.5 -71 -13.5q-48.5 1 -79 25q-30.5 24 -31.5 62q1 47.5 44.5 74.5q44 27.5 120 28q93.5 -0.5 166 -33.5q72.5 -33 114 -90q41 -57.5 42 -131.5q-0.5 -57.5 -27.5 -100.5q-27.5 -42.5 -76.5 -66.5q-49.5 -23.5 -115.5 -24q-63.5 -0.5 -130.5 23q-66.5 23 -148 74l-2 -2q10 -9.5 19 -19l31 -33l70 -75q35 -37 69 -71.5q34 -35 81.5 -82q22 -22 35.5 -34.5q13.5 -12 24 -19.5q11 -7.5 25.5 -14.5q9 -4.5 13 -9.5q4.5 -4.5 4.5 -10q0 -9 -6.5 -19q-7 -10.5 -24.5 -27q-19 -19 -32 -27.5q-13.5 -8.5 -23 -8.5q-4 0 -8 1.5q-3.5 1.5 -6.5 3.5q-10.5 9 -17 13.5q-7 4.5 -17 8.5l-29.5 10q-36 11 -75.5 21q-39.5 10 -71.5 16.5q-32.5 6.5 -46.5 6.5q-25.5 0 -45.5 -19.5q-19.5 -19 -31.5 -55.5q-5 8 -7 14q-2 6 -2 13q0 16 7.5 35.5q7.5 19.5 21 40q15 21.5 30 32.5q14.5 10.5 28.5 10.5q6 0 16.5 -3q10 -3.5 25.5 -10.5q36 -15.5 76 -31.5q40 -16.5 75 -29.5q35 -13 56 -19.5l5 -2M563 -21.5q-23 5 -38 7q-15 2 -34.5 2q-54.5 -0.5 -85.5 -17q-31 -16.5 -31.5 -45.5q0.5 -24 17.5 -38q17.5 -13.5 47 -14q43.5 0.5 76.5 28q32.5 28 48.5 77.5" />
</g>
<g id="PathID_511" transform="matrix(0.0107353, 0, 0, 0.0107353, 64.1, 11.35)">
<path style="fill:#000000;fill-opacity:1" d="M198.5 -410.5l624 0l0 360.5q0 7 -3 9.5q-3.5 3 -12.5 2.5l-1.5 0l-2.5 0l-77.5 -4l-44.5 -2.5l-29.5 -1.5l-31 -2l-1 17.5q7.5 1.5 16 2.5l15.5 1.5q15.5 1.5 23.5 3l8.5 1q20.5 3 34.5 7q13.5 4 21 9.5q12 9 19.5 21.5q7 12.5 12 34q53 -10 80.5 -19.5q27 -9 36.5 -23q9 -14 9 -37.5l0 -113.5l-1 -116l0 -476.5q21 -14.5 27 -20q6.5 -5.5 6 -9.5q0 -3 -3 -7q-2.5 -3.5 -8.5 -9.5l-33 -27q-13 -10 -32.5 -24l-21 24.5q-7.5 10 -18 26.5l-603.5 0q-16.5 -12 -28.5 -19.5q-12 -8 -24.5 -15q-12.5 -7.5 -31.5 -17.5l1.5 37q0.5 14.5 0.5 35l0 61q0 115 -0.5 243l-2 256.5q-1 128 -2.5 242q-0.5 10 5 14q5.5 3.5 18.5 3.5q30.5 0 43 -5q12 -4.5 12 -17.5q-0.5 -49 -0.5 -79q-0.5 -30.5 -0.5 -52l0 -45l0 -59.5l0 -210M541.5 -434l0 -325l281 0l0 325l-281 0M469 -434l-270.5 0l0 -325l270.5 0l0 325" />
</g>
<g id="PathID_512" transform="matrix(0.0107353, 0, 0, 0.0107353, 75.05, 11.35)">
<path style="fill:#000000;fill-opacity:1" d="M148.5 -665.5q23 30 45 47.5q22 17 47.5 24.5q25.5 7 60 7l29.5 -1q14.5 -1.5 39 -5q-36 54 -65.5 93q-29.5 38.5 -59.5 68.5q-29.5 30 -65.5 58.5q-14 11 -20.5 17.5q-6 6 -8 12q-1.5 6 -1 16.5q0 24.5 7.5 39.5q7.5 14.5 20 14.5q7.5 0.5 15.5 -6.5q8.5 -6.5 22.5 -26q56 -71 113.5 -109.5q57 -38.5 108.5 -39q17.5 0 31 8.5q14 8 21.5 22q7.5 15.5 10.5 32.5q3 17.5 3.5 48.5q-49.5 31 -78.5 51.5q-29.5 21 -48.5 39.5q-37.5 36 -55.5 70q-18 34.5 -18 70.5q0 37 18 63.5q18.5 26.5 57.5 45q31 14.5 83.5 22q52 7.5 124.5 7.5q32.5 0 66.5 -2l65 -5q30.5 -3 52 -7.5q15.5 -3 23.5 -10q8.5 -7.5 8.5 -17.5q-0.5 -11.5 -11.5 -23.5q-11 -11.5 -27.5 -19.5q-16.5 -8 -33 -8l-9 0.5l-10.5 2.5q-47 13.5 -99.5 21q-52.5 7.5 -106.5 7.5q-86 0 -128.5 -20q-42.5 -20.5 -42.5 -62q0 -23 12.5 -46.5q12.5 -24 38 -48.5q19 -18.5 46 -37q27 -18.5 73.5 -44q-0.5 34 -2.5 60.5q-1.5 27 -4.5 49q-1 5.5 -1 9.5l0 8q0 13.5 9 22q9 8.5 23.5 8.5q9.5 0 17 -5.5q8 -5 12 -13.5q3.5 -8 6 -31q2 -22.5 2 -57l0 -34q0 -12.5 -0.5 -23q0 -10.5 -0.5 -26q41 -20.5 93 -42q52 -21.5 101 -38.5q49 -17.5 80.5 -25q21.5 -4.5 29.5 -11q8 -7 7.5 -20.5q-1 -21.5 -20 -45q-19 -24 -45.5 -41q-26.5 -16.5 -50 -17.5l-10.5 1q-5 1.5 -13 5q22.5 9.5 34.5 22.5q12.5 12.5 12.5 25.5q0.5 9 -10 19.5q-11 10 -38.5 25.5q-27.5 16 -77.5 41q-41 20.5 -59.5 30q-18 9.5 -26 13q-7.5 3.5 -15 7.5q-7.5 -47 -38.5 -74.5q-30.5 -27.5 -76.5 -28q-28 0 -59 9.5q-30.5 9.5 -73 31.5l17 -24l16 -24l22.5 -34q17 -26 29 -43.5q12 -18 25 -36.5q41 -8 74.5 -15.5q34 -8 69 -18q35 -10 80 -24.5q23 -8 33.5 -16q10.5 -8 10.5 -17q-0.5 -15 -19.5 -24q-18.5 -9.5 -49 -10q-5.5 0 -10 2q-5 1.5 -9.5 5.5q-16.5 14 -34.5 24q-17.5 10.5 -44 20q-26.5 9.5 -69 21.5l8.5 -12.5l17 -27.5l14.5 -20.5q8 -12 15 -21.5q9 -11 13 -18q3.5 -6.5 3.5 -11.5q0 -9.5 -9 -18q-8.5 -8.5 -28 -16q-20 -8.5 -41 -13q-20.5 -4.5 -38.5 -4.5q-14 0 -24 2.5q-10 2 -22.5 9q39.5 9.5 56.5 23q17 14 16.5 34q0 17.5 -9.5 44.5q-9.5 27 -26.5 60q-34.5 7 -60 10.5q-25.5 3 -49.5 3q-27 0 -46.5 -4q-20 -4 -38.5 -14.5q-19 -10.5 -43 -29.5l-11 9" />
</g>
</svg>
