<?xml version="1.0" encoding="utf-8"?>
<svg version="1.1" id="Layer_1"
xmlns="http://www.w3.org/2000/svg"
xmlns:xlink="http://www.w3.org/1999/xlink"
xmlns:author="http://www.sothink.com"
width="65px" height="14px"
xml:space="preserve">
<g id="PathID_521" transform="matrix(0.0107353, 0, 0, 0.0107353, -0.4, 11.4)">
<path style="fill:#000000;fill-opacity:1" d="M853 -748.5q0 33.5 -0.5 59.5l-1 50l-1.5 54.5q-4 79 -10 148q-5.5 69 -13 121.5q-7.5 52 -15 79.5q-9 29.5 -18 41q-9 12 -23 11.5l-7.5 -0.5l-11 -0.5l-39.5 -4l-22 -2.5l-24.5 -3l-37 -4.5l-19.5 -2l-18 -1.5l0 13l63.5 15.5q20 5 27.5 7.5q7 2.5 13 6q18.5 7 26 21q8 14 9 40.5q37 -2.5 59.5 -7.5q22.5 -5 37 -14q23.5 -14.5 41 -59.5q17 -45 29.5 -123q3.5 -21 6 -38.5q2.5 -17 4.5 -41q2 -23.5 4 -64q2 -40.5 4.5 -107.5l6.5 -171q15.5 -10 24 -16q8.5 -6 11 -8.5l3 -4.5q2 -2.5 2 -3.5q0 -3.5 -3 -7.5q-2.5 -4 -7.5 -8l-34 -23.5l-35.5 -24.5l-16.5 18l-12 12.5l-17.5 17.5l-436 0q-18 0 -36.5 -1l-47.5 -5l11 36.5q15.5 -2.5 37 -4.5q21 -2.5 36 -2.5l158.5 0l-2.5 48q-0.5 18.5 -0.5 28q-8.5 120.5 -39.5 220.5q-31.5 100 -84.5 177.5q-25.5 38 -57 71.5q-31 34 -82 77q5.5 6 11 11.5q47.5 -27 81 -53q34 -26 67.5 -62q50.5 -52 85 -110q34.5 -58 55.5 -127.5q21 -69 30.5 -154.5l4 -32q1 -12.5 2 -33q1.5 -20 3 -62l219.5 0M65.5 -826.5q37.5 41.5 66.5 84q29.5 42.5 46 78q14 30.5 20.5 44q7 13.5 10.5 16q3.5 3 8 2.5q8.5 0 16 -7.5q7.5 -7 13.5 -23q4 -11 7 -23q3.5 -12.5 3.5 -19q-0.5 -31.5 -47 -73.5q-46.5 -42 -133 -89.5q-6 5.5 -11.5 11M48 -404.5q19.5 -3 32.5 -4l29 -1l84 0l0 264q-45 36.5 -84.5 62.5q-39 25.5 -68 38q10 25 22 48.5q12 23 23 39.5q3 5.5 7 9q4 3.5 7.5 3.5q4.5 -0.5 7 -7q3 -6 3 -15.5l0 -11.5q0 -6.5 -1 -13q38 -38 69.5 -77q31 -39 54.5 -77q14.5 39 29.5 63q15 24 36 43.5q44 43.5 123 63.5q79 20 205.5 19.5l311.5 -4q9.5 -31 24 -47.5q14 -16.5 35.5 -22l0 -15.5q-43 4 -101 7l-122.5 6l-125.5 4q-62 1.5 -112 1.5q-68 0 -115 -7q-47 -7.5 -79.5 -22.5q-33.5 -16 -52 -35q-19 -19 -30 -48l0 -252l12.5 -9.5q4.5 -3 7.5 -5.5q3.5 -2.5 5.5 -4.5l4.5 -5q1.5 -3 1.5 -5q0 -3 -2 -6q-2.5 -3 -7 -6.5q-16.5 -14.5 -27.5 -23q-11 -9 -30 -21l-40.5 44l-76 0l-17 -0.5l-18.5 -1.5l-36 -5l10 35.5" />
</g>
<g id="PathID_522" transform="matrix(0.0107353, 0, 0, 0.0107353, 10.55, 11.4)">
<path style="fill:#000000;fill-opacity:1" d="M317.5 -794q31.5 5.5 48.5 14q17 8.5 25 23q4 7 6 18q2.5 11 3.5 34q1.5 23 3 66l2.5 60.5q1 23 2 37.5q1 14 2.5 26q3.5 32.5 11 51q7 18.5 18.5 26.5q12.5 9 23 12.5q10 3 26.5 3q-45 24 -74 43q-29 19.5 -51 39q-50.5 42 -75.5 84.5q-25 43 -25 87.5q0.5 51.5 30 91.5q29.5 40 81.5 60q32.5 11.5 75.5 17.5q43 6 98.5 6q32 0 71 -2l74 -5q34.5 -3 52 -6.5q24 -4 34 -12q10 -8 10 -21.5q-1 -19.5 -18 -34.5q-16.5 -15 -37.5 -16q-4.5 0 -8.5 1l-12 2.5q-37.5 8.5 -80 15q-43 7 -84 10.5q-41 4 -73.5 4q-85.5 0 -128.5 -28q-43.5 -28.5 -43.5 -83.5q0 -36 19 -67.5q19.5 -32 61 -63.5q31.5 -24.5 67.5 -44q35.5 -19.5 81.5 -36.5q45.5 -17 107 -34.5q34.5 -9.5 49 -14.5q15 -5 19.5 -7q10.5 -4.5 16 -12.5q5.5 -8 5.5 -18q-1 -17 -15.5 -29.5q-14.5 -13 -33.5 -13.5q-9 0 -19 2.5q-9.5 3 -23 9.5q-46 22 -72.5 33.5q-26 11 -40.5 15q-14.5 4 -24.5 4q-23 1 -31.5 -15.5q-9 -16 -8.5 -60.5q0.5 -43 3.5 -84q3 -40.5 8 -73.5q5 -32.5 11 -50q5.5 -13 7 -17.5q1.5 -4 1.5 -9.5l0 -0.5l0 -1.5q0 -10.5 -6.5 -18.5q-7 -8 -22.5 -14q-12.5 -5.5 -30.5 -10q-18.5 -4 -37.5 -7q-19.5 -2.5 -35 -2.5q-15 -0.5 -24 3q-9.5 3.5 -20 13" />
</g>
<g id="PathID_523" transform="matrix(0.0107353, 0, 0, 0.0107353, 21.5, 11.4)">
<path style="fill:#000000;fill-opacity:1" d="M511 -3q64 -11 110 -25.5q46.5 -14.5 89.5 -38q97.5 -52.5 150.5 -133q53 -80.5 53.5 -177.5q0 -74.5 -24.5 -134.5q-24.5 -60.5 -74 -106q-50 -45.5 -118 -69.5q-68 -24.5 -146 -24.5q-67.5 0 -132.5 17.5q-65 17.5 -121.5 49.5q-56.5 32 -98.5 76q-43 48 -67.5 101q-24 53 -24.5 102q0 24 5.5 46.5q6 22.5 18 46.5q14.5 28.5 23 44.5q8 16.5 13 28q5 11 9 24q8.5 24 13.5 36q4.5 12 7.5 18q3.5 6 8 11.5q8.5 10 20 15.5q11.5 6 25 6q28 0 66 -38q38 -38 86.5 -114.5q39 -63.5 69.5 -129.5q30.5 -66.5 47.5 -125.5q17.5 -58.5 18 -99.5q0.5 -21.5 -6.5 -40q-7 -19 -25.5 -45l19.5 -1.5l16.5 -0.5q49.5 0 96 12.5q46.5 12 81.5 34.5q56.5 36.5 86 94q29.5 57.5 29.5 132.5q0 71 -23 133q-23 62 -68 114q-43 50 -100.5 84q-57 34 -139.5 58q3.5 9 7.5 17.5M484 -677q8.5 18.5 11.5 29.5q3 11 3 22q-0.5 32.5 -17 83.5q-16.5 50.5 -45.5 111q-29.5 60.5 -67.5 122q-38.5 60.5 -71 97.5q-33 36.5 -50.5 37.5q-8.5 0 -18.5 -8q-10 -7.5 -20.5 -21.5q-19.5 -27.5 -30 -63q-11 -35 -11 -72.5q1 -79.5 42.5 -150.5q42 -71 113.5 -120.5q71 -50 161 -67" />
</g>
<g id="PathID_524" transform="matrix(0.0107353, 0, 0, 0.0107353, 32.45, 11.4)">
<path style="fill:#000000;fill-opacity:1" d="M51 78q63 -15.5 112.5 -32.5q50 -16.5 95.5 -38q45.5 -21.5 95.5 -51.5q46.5 -27.5 86 -56.5q39.5 -29 74.5 -63.5q81.5 81.5 178 136.5q96.5 54.5 220.5 90q11 -32.5 29.5 -50.5q19 -18 54.5 -30.5l0 -10q-58 -7.5 -104.5 -17.5q-47 -9.5 -90 -23.5q-42.5 -13.5 -88 -33q-46 -20 -84.5 -43.5q-38.5 -23 -78.5 -55.5q21 -23.5 41.5 -51q20.5 -27.5 46 -67.5q25 -40 61 -101q30 -3.5 40 -7q10 -4 9 -11.5q0.5 -4.5 -8 -11q-8.5 -6.5 -32.5 -17.5q-24 -11 -69 -29.5q-14.5 61.5 -48.5 125.5q-34 64.5 -86.5 128.5q-46.5 -45 -80.5 -87.5q-34.5 -42 -53 -77q-19 -35 -19.5 -58q0 -1.5 0.5 -4.5q0 -2.5 0.5 -5.5q-21.5 9.5 -43 19.5q9.5 9 15.5 17.5q6.5 8.5 16.5 27.5q23.5 46 44 80.5q20.5 35 42 64q21 29 46 58q-26.5 29 -54 54q-27.5 25 -58.5 48.5q-46.5 36 -92.5 64.5q-46 28.5 -99.5 53.5q-53.5 24.5 -122.5 50l4 16.5M549 -706.5l0 -102.5q16 -6 26 -10q10 -3.5 13 -5.5q3 -2 5.5 -5.5q2.5 -3 2.5 -5.5q1 -6.5 -14.5 -11q-15.5 -4 -56 -8.5q-9.5 -0.5 -24 -2.5l-33.5 -3.5q1.5 26.5 2 44.5q1 18 1 39.5l0 70.5l-326.5 0q-13.5 0 -35.5 -3q-21.5 -2.5 -46.5 -7l8 40.5l31 -4.5l21.5 -2q9.5 -0.5 21.5 -0.5l836.5 0q3.5 0 5.5 -1.5q1.5 -1.5 2 -3.5q0 -1 -1 -2.5l-1 -3.5l-38 -33.5l-32 -27q-16 -13.5 -40 -33q-14.5 16.5 -23.5 28q-9.5 11.5 -18.5 23.5l-20.5 29.5l-265 0M74.5 -336q24 -11 42 -20.5q18 -9.5 37 -22.5q18.5 -12.5 45 -32.5q35.5 -27 57.5 -45q22 -18.5 43.5 -40q21.5 -21.5 55 -57.5q3.5 -4 10.5 -10.5l15 -16l14.5 1l6 0q27.5 0 27.5 -9.5q0.5 -5.5 -8 -13q-8.5 -7.5 -31.5 -20q-22.5 -12.5 -64 -33.5q-16.5 38 -38 73q-22 35.5 -53 75.5q-25.5 33 -49 59q-24 26 -52 50.5q-27.5 24 -64 51.5l6 10M597 -623.5q32.5 19 56.5 35q24.5 16 45 32q20.5 15.5 42 34.5q30 26 57 55.5q27.5 29.5 43.5 52q13 21 21 28.5q7.5 7.5 14.5 7q11.5 -0.5 19 -19q7.5 -18 8 -46.5q0 -20.5 -4 -33.5q-4 -13.5 -15 -24q-11 -10.5 -32.5 -23.5q-26 -16 -56.5 -31.5q-31 -16 -76 -35q-45 -19.5 -113 -47q-5 7.5 -9.5 15.5" />
</g>
<g id="PathID_525" transform="matrix(0.0107353, 0, 0, 0.0107353, 43.4, 11.4)">
<path style="fill:#000000;fill-opacity:1" d="M525.5 -698.5l0 -102.5q24.5 -8 32 -12.5q7.5 -4 7 -10q0.5 -5.5 -6.5 -9q-7 -3 -31 -6.5q-24 -3.5 -74 -9q2 23.5 3 40q1 16.5 1 37l0 237.5l-161 0l-29.5 -20.5q-12.5 -8.5 -25.5 -15.5q-12.5 -7.5 -32 -17.5q1 16.5 1.5 31.5q1 15.5 1 38q0.5 23 0.5 63.5l0 106.5l0 52q0 20 -0.5 36.5l-1.5 39.5l0 1.5l0 0.5q0 6 4.5 9q4.5 2.5 16 2.5q11 0 23.5 -2q12.5 -2 19.5 -4q4.5 -1.5 6 -4.5q2 -3 2 -11l0 -39l459 0l0 28.5q0 8.5 3.5 12q3 3.5 11 3.5l16.5 -1l22.5 -1.5l12 -1.5q3.5 -1.5 5.5 -4.5q1.5 -2.5 1.5 -8l-1.5 -63.5q-0.5 -25.5 -0.5 -45.5l0 -44.5l0 -34l0 -25.5l0 -35.5q20 -12 28.5 -19.5q8.5 -7 8.5 -12q0 -2.5 -2.5 -5.5q-2.5 -3.5 -8 -8q-20 -16 -33.5 -25.5q-13 -9.5 -34 -23.5q-9 12 -19 24.5l-18.5 23.5l-207 0l0 -141.5l379.5 0q4 0 7 -2.5q3.5 -2 3.5 -4.5q0 -1.5 -1 -4q-1 -2.5 -4 -5.5q-19.5 -18 -33 -30l-27 -24.5l-34.5 -29.5l-22.5 27l-19 22.5q-10 11 -24 27.5l-225 0M281.5 -510l459 0l0 220l-459 0l0 -220M210 -182.5q-3 30 -10.5 49.5q-8 20 -25.5 40.5q-16 20 -33.5 34q-18 14.5 -40 23.5q-19.5 8 -25 16q-5.5 7.5 -5 25q0.5 22 8.5 36.5q7.5 15 19.5 15.5q20.5 -0.5 45.5 -23.5q24.5 -22.5 44.5 -59.5q19.5 -35.5 28 -71q8 -35.5 8 -84.5l-14.5 -2M348 -180.5q15.5 39.5 24.5 78.5q8.5 39 11.5 83.5l3 33l1.5 14.5l2 6.5q2 5.5 6 8.5q4 3 9 3q11.5 -0.5 23.5 -13q12.5 -12 21 -29.5q8.5 -17 9 -32.5q0 -26 -25.5 -67q-26 -40.5 -76 -93.5l-9.5 8M554 -180.5q25.5 50.5 42.5 98.5q17 47.5 25 93q4.5 22.5 9 30.5q4.5 8 11.5 7.5q9 -0.5 18.5 -8.5q9 -7.5 15.5 -20.5q7 -13 11 -26q4.5 -13 4.5 -21q0 -9 -5 -19q-5 -10.5 -16.5 -25q-18 -23.5 -31 -39q-13.5 -16 -30 -32.5q-16.5 -17 -44.5 -44l-10.5 6M763 -180.5q28 36 48.5 66q20.5 30.5 36.5 60.5q16 29.5 30.5 64q10 24 16.5 33.5q7 9 14.5 8.5q7 -0.5 15 -12q8 -11.5 14 -28q5.5 -17 5.5 -32.5q0.5 -17.5 -14.5 -38.5q-15.5 -21 -53 -52q-38 -30.5 -104.5 -77.5l-9 8" />
</g>
<g id="PathID_526" transform="matrix(0.0107353, 0, 0, 0.0107353, 54.35, 11.4)">
<path style="fill:#000000;fill-opacity:1" d="M148.5 -665.5q23 30 45 47.5q22 17 47.5 24.5q25.5 7 60 7l29.5 -1q14.5 -1.5 39 -5q-36 54 -65.5 93q-29.5 38.5 -59.5 68.5q-29.5 30 -65.5 58.5q-14 11 -20.5 17.5q-6 6 -8 12q-1.5 6 -1 16.5q0 24.5 7.5 39.5q7.5 14.5 20 14.5q7.5 0.5 15.5 -6.5q8.5 -6.5 22.5 -26q56 -71 113.5 -109.5q57 -38.5 108.5 -39q17.5 0 31 8.5q14 8 21.5 22q7.5 15.5 10.5 32.5q3 17.5 3.5 48.5q-49.5 31 -78.5 51.5q-29.5 21 -48.5 39.5q-37.5 36 -55.5 70q-18 34.5 -18 70.5q0 37 18 63.5q18.5 26.5 57.5 45q31 14.5 83.5 22q52 7.5 124.5 7.5q32.5 0 66.5 -2l65 -5q30.5 -3 52 -7.5q15.5 -3 23.5 -10q8.5 -7.5 8.5 -17.5q-0.5 -11.5 -11.5 -23.5q-11 -11.5 -27.5 -19.5q-16.5 -8 -33 -8l-9 0.5l-10.5 2.5q-47 13.5 -99.5 21q-52.5 7.5 -106.5 7.5q-86 0 -128.5 -20q-42.5 -20.5 -42.5 -62q0 -23 12.5 -46.5q12.5 -24 38 -48.5q19 -18.5 46 -37q27 -18.5 73.5 -44q-0.5 34 -2.5 60.5q-1.5 27 -4.5 49q-1 5.5 -1 9.5l0 8q0 13.5 9 22q9 8.5 23.5 8.5q9.5 0 17 -5.5q8 -5 12 -13.5q3.5 -8 6 -31q2 -22.5 2 -57l0 -34q0 -12.5 -0.5 -23q0 -10.5 -0.5 -26q41 -20.5 93 -42q52 -21.5 101 -38.5q49 -17.5 80.5 -25q21.5 -4.5 29.5 -11q8 -7 7.5 -20.5q-1 -21.5 -20 -45q-19 -24 -45.5 -41q-26.5 -16.5 -50 -17.5l-10.5 1q-5 1.5 -13 5q22.5 9.5 34.5 22.5q12.5 12.5 12.5 25.5q0.5 9 -10 19.5q-11 10 -38.5 25.5q-27.5 16 -77.5 41q-41 20.5 -59.5 30q-18 9.5 -26 13q-7.5 3.5 -15 7.5q-7.5 -47 -38.5 -74.5q-30.5 -27.5 -76.5 -28q-28 0 -59 9.5q-30.5 9.5 -73 31.5l17 -24l16 -24l22.5 -34q17 -26 29 -43.5q12 -18 25 -36.5q41 -8 74.5 -15.5q34 -8 69 -18q35 -10 80 -24.5q23 -8 33.5 -16q10.5 -8 10.5 -17q-0.5 -15 -19.5 -24q-18.5 -9.5 -49 -10q-5.5 0 -10 2q-5 1.5 -9.5 5.5q-16.5 14 -34.5 24q-17.5 10.5 -44 20q-26.5 9.5 -69 21.5l8.5 -12.5l17 -27.5l14.5 -20.5q8 -12 15 -21.5q9 -11 13 -18q3.5 -6.5 3.5 -11.5q0 -9.5 -9 -18q-8.5 -8.5 -28 -16q-20 -8.5 -41 -13q-20.5 -4.5 -38.5 -4.5q-14 0 -24 2.5q-10 2 -22.5 9q39.5 9.5 56.5 23q17 14 16.5 34q0 17.5 -9.5 44.5q-9.5 27 -26.5 60q-34.5 7 -60 10.5q-25.5 3 -49.5 3q-27 0 -46.5 -4q-20 -4 -38.5 -14.5q-19 -10.5 -43 -29.5l-11 9" />
</g>
</svg>
