<?xml version="1.0" encoding="utf-8"?>
<svg version="1.1" id="Layer_1"
xmlns="http://www.w3.org/2000/svg"
xmlns:xlink="http://www.w3.org/1999/xlink"
xmlns:author="http://www.sothink.com"
width="44px" height="14px"
xml:space="preserve">
<g id="PathID_499" transform="matrix(0.0107353, 0, 0, 0.0107353, -11.45, 11.45)">
<path style="fill:#000000;fill-opacity:1" d="" />
</g>
<g id="PathID_500" transform="matrix(0.0107353, 0, 0, 0.0107353, -0.5, 11.45)">
<path style="fill:#000000;fill-opacity:1" d="M369.5 -751.5l15 -18.5l10.5 -13.5l15.5 -19q25.5 -2.5 38.5 -7.5q13 -5 13 -12q-0.5 -2.5 -3.5 -5q-3 -3 -7 -5.5l-13.5 -5.5q-8 -2.5 -28 -8l-63 -17q-8 22.5 -17.5 42.5q-9 19.5 -23.5 42q-14 22.5 -35.5 52.5q-33.5 48 -67 86.5q-33 39 -71.5 74.5q-38 35 -87 72.5l7 10q36.5 -19 61.5 -33.5q25 -15 46 -29.5q21 -15 44.5 -34q1 46.5 1 68.5l1 34l0 29.5q0 106 -7 190q-6.5 84 -19 135.5q-7.5 34.5 -19.5 62.5q-11.5 28.5 -31 58q-19 30 -49.5 68l6 6q34.5 -24 59 -47q24.5 -22.5 43.5 -49q19 -26.5 37 -61.5q15.5 -30.5 24.5 -60.5q8.5 -29.5 15 -69.5l524.5 0l0 180q0.5 14 -5 19q-5.5 5 -20.5 4.5l-73.5 -4l-43.5 -3l-32 -2.5l-37.5 -3.5l-2 16.5q49 7.5 79.5 15.5q30 8.5 48.5 19q15.5 8.5 21.5 19.5q6.5 10.5 8 31q37 -10.5 57.5 -17.5q20 -6.5 30.5 -12q10.5 -5.5 17.5 -12.5q11 -9.5 16 -23q4.5 -13 6.5 -38.5l-1 -155.5l0 -74l0 -281.5q4.5 -4 8.5 -6.5l6 -3.5q5 -3.5 8.5 -5.5l6.5 -5q2 -1.5 3 -3.5l1.5 -4.5q0 -4 -3.5 -8.5q-3.5 -4 -12 -11l-26.5 -20.5q-10.5 -8 -28 -20.5l-18 20q-6.5 8 -16.5 21l-262 0q28 -23 47 -40q19 -17 36.5 -34.5q18 -18 41 -43.5l34 -6q11 -2 16 -3.5l7.5 -2.5q4 -2 6.5 -4.5q2.5 -2.5 3 -4q0 -2.5 -4.5 -7.5q-4.5 -5 -13 -12l-23.5 -18.5l-19 -15l-24 -18.5q-12.5 12.5 -20 21q-8 8.5 -20 23l-225.5 0M275.5 -585.5q-11 -9.5 -17.5 -14.5q-6.5 -4.5 -17.5 -11q25.5 -23 50 -49.5q24.5 -26 59.5 -67.5l241 0q-15.5 29 -27 49q-11.5 19.5 -25 40.5q-14 21 -36 53l-227.5 0M789.5 -423l-230.5 0l0 -139l230.5 0l0 139M789.5 -399.5l0 161l-230.5 0l0 -161l230.5 0M268.5 -238.5q2 -20 3 -39.5q1 -19 2 -47q1 -28 2 -74.5l215 0l0 161l-222 0M275.5 -423l0 -21.5q0.5 -15.5 0.5 -32.5l0.5 -24.5l0 -27l-1 -33.5l215 0l0 139l-215 0" />
</g>
<g id="PathID_501" transform="matrix(0.0107353, 0, 0, 0.0107353, 10.45, 11.45)">
<path style="fill:#000000;fill-opacity:1" d="M511 -3q64 -11 110 -25.5q46.5 -14.5 89.5 -38q97.5 -52.5 150.5 -133q53 -80.5 53.5 -177.5q0 -74.5 -24.5 -134.5q-24.5 -60.5 -74 -106q-50 -45.5 -118 -69.5q-68 -24.5 -146 -24.5q-67.5 0 -132.5 17.5q-65 17.5 -121.5 49.5q-56.5 32 -98.5 76q-43 48 -67.5 101q-24 53 -24.5 102q0 24 5.5 46.5q6 22.5 18 46.5q14.5 28.5 23 44.5q8 16.5 13 28q5 11 9 24q8.5 24 13.5 36q4.5 12 7.5 18q3.5 6 8 11.5q8.5 10 20 15.5q11.5 6 25 6q28 0 66 -38q38 -38 86.5 -114.5q39 -63.5 69.5 -129.5q30.5 -66.5 47.5 -125.5q17.5 -58.5 18 -99.5q0.5 -21.5 -6.5 -40q-7 -19 -25.5 -45l19.5 -1.5l16.5 -0.5q49.5 0 96 12.5q46.5 12 81.5 34.5q56.5 36.5 86 94q29.5 57.5 29.5 132.5q0 71 -23 133q-23 62 -68 114q-43 50 -100.5 84q-57 34 -139.5 58q3.5 9 7.5 17.5M484 -677q8.5 18.5 11.5 29.5q3 11 3 22q-0.5 32.5 -17 83.5q-16.5 50.5 -45.5 111q-29.5 60.5 -67.5 122q-38.5 60.5 -71 97.5q-33 36.5 -50.5 37.5q-8.5 0 -18.5 -8q-10 -7.5 -20.5 -21.5q-19.5 -27.5 -30 -63q-11 -35 -11 -72.5q1 -79.5 42.5 -150.5q42 -71 113.5 -120.5q71 -50 161 -67" />
</g>
<g id="PathID_502" transform="matrix(0.0107353, 0, 0, 0.0107353, 21.4, 11.45)">
<path style="fill:#000000;fill-opacity:1" d="M275.5 -743.5l142.5 0q5 0 8 -2q3 -2.5 3 -6q0 -1 -1.5 -3.5q-1 -2.5 -3.5 -6l-24.5 -24l-19.5 -19l-24.5 -22.5q-15.5 17.5 -25 29q-10 11.5 -24.5 30.5l-183 0l-39 -1.5q-16.5 -1.5 -28.5 -4.5l4 35.5q14 -3.5 28.5 -5q14 -1 35 -1l85 0l0 682q0 7.5 -1.5 9.5q-1.5 2 -6.5 1.5l-2 0l-2.5 0q-18.5 0 -32 -0.5l-30 -2l-46.5 -4.5l-21.5 -1.5l-29.5 -2.5l-3 16.5q50.5 11 75.5 20q24.5 8.5 34 22q9.5 13 14.5 37.5q31.5 -2.5 51 -8.5q20 -6 37 -17q18 -10.5 25 -23.5q7 -13 7.5 -37l-1.5 -73q-0.5 -24.5 -0.5 -35.5l0 -19.5l0 -86l0 -478M977 -765q4 0 7 -2.5q3 -3 3 -6.5q0 -2 -2 -4.5q-2 -3 -5 -6l-31.5 -25.5l-26 -20.5l-32.5 -25.5l-27 32.5l-29.5 34l-322.5 0q-27.5 0 -44 -2q-16.5 -2 -35 -7q3 20 6.5 40.5q14.5 -3 33 -5q18.5 -2 39.5 -2l123 0q-8 41 -12.5 62.5q-5 21.5 -9.5 36.5q-4.5 15 -12 36l-84 0l-25.5 -16.5q-10.5 -6.5 -21 -12.5l-26 -15q1 18 1.5 58q1 40.5 1 98.5q0.5 58.5 0.5 130l0 16q0 9 -1 31l-1.5 69.5q-1.5 47.5 -3.5 131.5l0 1l0 1q0 6 4.5 9q5 3.5 15 3.5l14 -1l18 -1q8.5 -0.5 10 -1.5q4.5 -1 6.5 -3.5q2 -2.5 2.5 -7.5l0 -21.5l318.5 0l0 25.5l0 0.5l0 1.5q0 6 4 8.5q4 2 15.5 2l25.5 -1.5q14 -1.5 19.5 -4q3.5 -0.5 5.5 -2.5q1.5 -2.5 1.5 -5.5l0 -3q-2.5 -48 -4 -93.5q-1 -45 -1.5 -98q-0.5 -53.5 -0.5 -126l0 -57.5l0 -78.5q17 -8 25 -14q8 -6.5 8 -12q0 -2 -2.5 -5q-2 -3 -9 -8l-29 -21.5q-11.5 -8 -30.5 -20.5l-17 21.5q-6.5 8.5 -15.5 22.5l-205 0q21.5 -22.5 37.5 -41q16 -18.5 32 -40q16 -22 38 -54l250 0M829.5 -496l-318.5 0l0 -110.5l318.5 0l0 110.5M829.5 -472.5l0 127l-318.5 0l0 -127l318.5 0M829.5 -322l0 137.5l-318.5 0l0 -137.5l318.5 0M707.5 -109q41.5 24 83 51.5q41.5 28 74.5 54q33 26.5 48.5 44q17 18.5 22.5 23.5q5.5 5 9 4.5q9.5 -0.5 15 -12.5q5.5 -12 5.5 -32.5q0.5 -25 -4.5 -37.5q-5 -12 -17 -20q-13 -9.5 -33.5 -19q-20.5 -9.5 -53.5 -21.5q-32.5 -11.5 -83 -27l-25 -8.5q-15 -5 -35 -11q-3.5 6 -6.5 12M299 62q61.5 -14 109.5 -30.5q48 -17 91.5 -40.5q43.5 -23.5 91 -57l15 1.5l14.5 0.5q8 0 12.5 -2.5q5 -3 5 -7.5q0 -4 -4 -7q-3.5 -3.5 -11.5 -7.5q-3 -1.5 -7 -3q-3.5 -2 -8 -5l-15.5 -8l-14 -7.5q-8.5 -4 -26 -13q-23 25 -42.5 42.5q-19.5 17 -43.5 34q-35.5 25 -62 41.5q-27 17 -52.5 29q-25.5 12.5 -56.5 24l4 16" />
</g>
<g id="PathID_503" transform="matrix(0.0107353, 0, 0, 0.0107353, 32.35, 11.45)">
<path style="fill:#000000;fill-opacity:1" d="M525.5 -698.5l0 -102.5q24.5 -8 32 -12.5q7.5 -4 7 -10q0.5 -5.5 -6.5 -9q-7 -3 -31 -6.5q-24 -3.5 -74 -9q2 23.5 3 40q1 16.5 1 37l0 237.5l-161 0l-29.5 -20.5q-12.5 -8.5 -25.5 -15.5q-12.5 -7.5 -32 -17.5q1 16.5 1.5 31.5q1 15.5 1 38q0.5 23 0.5 63.5l0 106.5l0 52q0 20 -0.5 36.5l-1.5 39.5l0 1.5l0 0.5q0 6 4.5 9q4.5 2.5 16 2.5q11 0 23.5 -2q12.5 -2 19.5 -4q4.5 -1.5 6 -4.5q2 -3 2 -11l0 -39l459 0l0 28.5q0 8.5 3.5 12q3 3.5 11 3.5l16.5 -1l22.5 -1.5l12 -1.5q3.5 -1.5 5.5 -4.5q1.5 -2.5 1.5 -8l-1.5 -63.5q-0.5 -25.5 -0.5 -45.5l0 -44.5l0 -34l0 -25.5l0 -35.5q20 -12 28.5 -19.5q8.5 -7 8.5 -12q0 -2.5 -2.5 -5.5q-2.5 -3.5 -8 -8q-20 -16 -33.5 -25.5q-13 -9.5 -34 -23.5q-9 12 -19 24.5l-18.5 23.5l-207 0l0 -141.5l379.5 0q4 0 7 -2.5q3.5 -2 3.5 -4.5q0 -1.5 -1 -4q-1 -2.5 -4 -5.5q-19.5 -18 -33 -30l-27 -24.5l-34.5 -29.5l-22.5 27l-19 22.5q-10 11 -24 27.5l-225 0M281.5 -510l459 0l0 220l-459 0l0 -220M210 -182.5q-3 30 -10.5 49.5q-8 20 -25.5 40.5q-16 20 -33.5 34q-18 14.5 -40 23.5q-19.5 8 -25 16q-5.5 7.5 -5 25q0.5 22 8.5 36.5q7.5 15 19.5 15.5q20.5 -0.5 45.5 -23.5q24.5 -22.5 44.5 -59.5q19.5 -35.5 28 -71q8 -35.5 8 -84.5l-14.5 -2M348 -180.5q15.5 39.5 24.5 78.5q8.5 39 11.5 83.5l3 33l1.5 14.5l2 6.5q2 5.5 6 8.5q4 3 9 3q11.5 -0.5 23.5 -13q12.5 -12 21 -29.5q8.5 -17 9 -32.5q0 -26 -25.5 -67q-26 -40.5 -76 -93.5l-9.5 8M554 -180.5q25.5 50.5 42.5 98.5q17 47.5 25 93q4.5 22.5 9 30.5q4.5 8 11.5 7.5q9 -0.5 18.5 -8.5q9 -7.5 15.5 -20.5q7 -13 11 -26q4.5 -13 4.5 -21q0 -9 -5 -19q-5 -10.5 -16.5 -25q-18 -23.5 -31 -39q-13.5 -16 -30 -32.5q-16.5 -17 -44.5 -44l-10.5 6M763 -180.5q28 36 48.5 66q20.5 30.5 36.5 60.5q16 29.5 30.5 64q10 24 16.5 33.5q7 9 14.5 8.5q7 -0.5 15 -12q8 -11.5 14 -28q5.5 -17 5.5 -32.5q0.5 -17.5 -14.5 -38.5q-15.5 -21 -53 -52q-38 -30.5 -104.5 -77.5l-9 8" />
</g>
</svg>
