<?xml version="1.0" encoding="utf-8"?>
<svg version="1.1" id="Layer_1"
xmlns="http://www.w3.org/2000/svg"
xmlns:xlink="http://www.w3.org/1999/xlink"
xmlns:author="http://www.sothink.com"
width="8px" height="11px"
xml:space="preserve">
<g id="PathID_571" transform="matrix(0.00970588, 0, 0, 0.00970588, -0.45, 9.1)">
<path style="fill:#000000;fill-opacity:1" d="M734 -389q0 -77.5 -22.5 -147q-22 -69.5 -66 -123.5q-44 -54 -109.5 -85.5q-65 -31 -151 -31.5q-81.5 0.5 -144.5 33q-63.5 32.5 -107 89q-44 56 -66.5 127.5q-23 71.5 -23 150q0 78 22.5 149q22 70.5 66 126q44 55.5 109.5 87.5q65.5 32.5 152 33q81 -1 144 -34.5q63 -33.5 106.5 -91.5q44 -57.5 66.5 -130.5q23 -72.5 23 -151M622.5 -385q0 67 -13.5 133q-13.5 66.5 -41.5 121.5q-28 55 -70.5 88.5q-43 33 -101 34q-67 -1 -113 -34q-46.5 -33.5 -74.5 -88.5q-28 -55 -40.5 -121.5q-13 -66 -12.5 -133q0 -66.5 13.5 -131q14 -64.5 42 -117.5q28.5 -53 71 -85q43 -31.5 101 -32.5q66.5 1 112.5 32.5q46 32 74 85q28 53 40.5 117.5q12.5 64.5 12.5 131" />
</g>
</svg>
