<?xml version="1.0" encoding="utf-8"?>
<svg version="1.1" id="Layer_1"
xmlns="http://www.w3.org/2000/svg"
xmlns:xlink="http://www.w3.org/1999/xlink"
xmlns:author="http://www.sothink.com"
width="100px" height="56px"
xml:space="preserve">
<g id="PathID_2040" transform="matrix(0.941176, 0, 0, 0.941176, 2, 43.1)">
<path style="fill:#000000;fill-opacity:1" d="M12.9 -18.3l-10.75 -16.35l5.2 0l7.95 12.55l8 -12.55l5.15 0l-10.75 16.35l11.75 17.75l-5.15 0l-9 -13.95l-8.95 13.95l-5.2 0l11.75 -17.75" />
</g>
<g id="PathID_2041" transform="matrix(0.941176, 0, 0, 0.941176, 30.85, 43.1)">
<path style="fill:#000000;fill-opacity:1" d="M1.35 -25.85l22.75 0l0 3.15l-22.75 0l0 -3.15M1.35 -13.7l22.75 0l0 3.15l-22.75 0l0 -3.15" />
</g>
</svg>
