<?xml version="1.0" encoding="utf-8"?>
<svg version="1.1" id="Layer_1"
xmlns="http://www.w3.org/2000/svg"
xmlns:xlink="http://www.w3.org/1999/xlink"
xmlns:author="http://www.sothink.com"
width="150px" height="52px"
xml:space="preserve">
<g id="PathID_2034" transform="matrix(0.941176, 0, 0, 0.941176, 2, 43.1)">
<path style="fill:#000000;fill-opacity:1" d="M11.75 4q-10 -9.35 -10 -21.7q0 -12.35 10 -21.7l2.15 2.15q-9.15 8.6 -9.15 19.55q0 10.95 9.15 19.5l-2.15 2.2" />
</g>
<g id="PathID_2035" transform="matrix(0.941176, 0, 0, 0.941176, 16.6, 43.1)">
<path style="fill:#000000;fill-opacity:1" d="M11.15 -29.45l3.35 0l0 9.75l9.8 0l0 3.2l-9.8 0l0 9.75l-3.35 0l0 -9.75l-9.8 0l0 -3.2l9.8 0l0 -9.75" />
</g>
<g id="PathID_2036" transform="matrix(0.941176, 0, 0, 0.941176, 40.6, 43.1)">
<path style="fill:#000000;fill-opacity:1" d="M15.1 -35.05l4.6 0l0 21.95l4.2 0l0 3.75l-4.2 0l0 8.8l-4.6 0l0 -8.8l-13.35 0l0 -3.95l13.35 -21.75M15.1 -27.65l-8.95 14.55l8.95 0l0 -14.55" />
</g>
<g id="PathID_2037" transform="matrix(0.941176, 0, 0, 0.941176, 64.6, 43.1)">
<path style="fill:#000000;fill-opacity:1" d="M10.55 -17.7q0 -10.95 -9.2 -19.55l2.2 -2.15q9.95 9.35 9.95 21.7q0 12.35 -9.95 21.7l-2.2 -2.2q9.2 -8.55 9.2 -19.5" />
</g>
<g id="PathID_2038" transform="matrix(0.941176, 0, 0, 0.941176, 79.2, 43.1)">
<path style="fill:#000000;fill-opacity:1" d="M12.55 -28.25l2.75 -3l10.2 10.15l10.15 -10.15l2.95 3l-10.15 10.15l10.15 10.15l-2.75 3l-10.2 -10.15l-10.75 10.75l-2.75 -3.2l10.55 -10.55l-10.15 -10.15" />
</g>
</svg>
