<?xml version="1.0" encoding="utf-8"?>
<svg version="1.1" id="Layer_1"
xmlns="http://www.w3.org/2000/svg"
xmlns:xlink="http://www.w3.org/1999/xlink"
xmlns:author="http://www.sothink.com"
width="140px" height="52px"
xml:space="preserve">
<g id="PathID_2046" transform="matrix(0.941176, 0, 0, 0.941176, 2, 43.1)">
<path style="fill:#000000;fill-opacity:1" d="M27.45 -32.65l0 3.4l13.55 0l0 18.7l-3.95 0l0 -1.2l-8.2 0q8.4 7 19.35 9.8l-2 4.75q-9.15 -2.4 -18.75 -11.35l0 13.15l-3.95 0l0 -12.35q-7 7.6 -17.95 11.15l-2 -4.15q11.95 -3.8 18.95 -11l-8.6 0l0 1.8l-3.95 0l0 -19.3l13.55 0l0 -3.4l-19.75 0l0 -3.8l19.75 0l0 -4.55l3.75 0q1.6 0.2 0.2 1.2l0 3.35l19.35 0l0 3.8l-19.35 0M27.45 -14.9l9.6 0l0 -4l-9.6 0l0 4M27.45 -22.1l9.6 0l0 -3.95l-9.6 0l0 3.95M13.9 -14.9l9.6 0l0 -4l-9.6 0l0 4M13.9 -22.1l9.6 0l0 -3.95l-9.6 0l0 3.95" />
</g>
<g id="PathID_2047" transform="matrix(0.941176, 0, 0, 0.941176, 50, 43.1)">
<path style="fill:#000000;fill-opacity:1" d="M9.95 -30.25l0 33.45l-4 0l0 -37.25l14.15 0l3 -7.35l4.75 1.8q0.8 0.8 -0.6 1l-2.95 4.55l20.5 0l0 34.25q0 3.2 -3.2 3.2l-5.75 0l-0.4 -4.35l4.55 0q0.8 0 0.8 -0.8l0 -28.5l-30.85 0M20.1 -20.1l0 8.35l10.55 0l0 -8.35l-10.55 0M30.65 -5.55l0 -2.4l-10.55 0l0 3.6l-4 0l0 -19.55l18.55 0l0 18.35l-4 0" />
</g>
<g id="PathID_2048" transform="matrix(0.941176, 0, 0, 0.941176, 2, 90.9)">
<path style="fill:#000000;fill-opacity:1" d="M23.7 -29.45q0.8 2.4 2.35 4.95q6.4 -1 12.55 -2.75l1.8 4.15q-5.15 1.2 -12.15 2.2q3 4 7.8 7.6l-3.4 3.35q-7.15 -1.6 -11.35 -1.6q-8 0 -10.35 2.4q-1.4 1.4 -1.4 3q0 2 1.2 3.2q1.6 1.6 8.95 1.6l12.15 0l-0.8 4.35l-12.15 0q-7.95 0 -11.15 -3.15q-2.4 -2.4 -2.4 -6.2q0 -3 2.2 -5.2q3.4 -3.35 13.95 -3.35q3.6 0 7.15 0.6q-2.8 -3 -4.95 -5.8q-9.4 1.2 -20.55 1.2l-0.6 -4.2q10.2 0.2 19.15 -0.8q-1.4 -2.55 -2.2 -4.95q-7.35 0.6 -15.35 0.6l-0.4 -4q8.2 0.2 14.75 -0.4q-1 -3.6 -1.6 -8.15l4.4 0q2 0.4 0.2 1.6q0.4 2.95 1 5.95q5.15 -0.6 10.55 -2l1.4 4q-6.8 1.2 -10.75 1.8" />
</g>
</svg>
