<?xml version="1.0" encoding="utf-8"?>
<svg version="1.1" id="Layer_1"
xmlns="http://www.w3.org/2000/svg"
xmlns:xlink="http://www.w3.org/1999/xlink"
xmlns:author="http://www.sothink.com"
width="602px" height="152px"
xml:space="preserve">
<g id="519" transform="matrix(1, 0, 0, 1, 301, 76)">
<path style="fill:#FFFFFF;fill-opacity:1" d="M300,0Q300 31.1 212.15 53.05Q124.3 75 0 75Q-124.25 75 -212.15 53.05Q-300 31.1 -300 0Q-300 -31.05 -212.15 -53Q-163.7 -65.1 -104.25 -70.55L-83.3 -72.25L0 -75L83.35 -72.25L104.35 -70.55Q163.75 -65.1 212.15 -53Q300 -31.05 300 0" />
<path style="fill:none;stroke-width:2;stroke-linecap:round;stroke-linejoin:round;stroke-miterlimit:3;stroke:#0066FF;stroke-opacity:1" d="M300,0Q300 31.1 212.15 53.05Q124.3 75 0 75Q-124.25 75 -212.15 53.05Q-300 31.1 -300 0Q-300 -31.05 -212.15 -53Q-163.7 -65.1 -104.25 -70.55L-83.3 -72.25L0 -75L83.35 -72.25L104.35 -70.55Q163.75 -65.1 212.15 -53Q300 -31.05 300 0z" />
</g>
</svg>
