<?xml version="1.0" encoding="utf-8"?>
<svg version="1.1" id="Layer_1"
xmlns="http://www.w3.org/2000/svg"
xmlns:xlink="http://www.w3.org/1999/xlink"
xmlns:author="http://www.sothink.com"
width="164px" height="212px"
xml:space="preserve">
<g id="PathID_905" transform="matrix(0.0352941, 0, 0, 0.0352941, 0, 37.8)">
<path style="fill:#000000;fill-opacity:1" d="M868.5 -337l0 -37l-337 0l0 -339l-41 0l0 339l-335 0l0 37l336 0l0 339l41 0l0 -339l336 0" />
</g>
<g id="PathID_906" transform="matrix(0.0352941, 0, 0, 0.0352941, 48, 37.8)">
<path style="fill:#000000;fill-opacity:1" d="M430 -28.5q-58.5 -3.5 -83 -12q-24 -9 -28.5 -23q-3.5 -10.5 -5 -29.5q-1 -19.5 -1 -61.5l0 -467q0 -26 0.5 -46q0.5 -19.5 1.5 -33q0 -4 0.5 -7.5q0.5 -4 0.5 -8q0.5 -9.5 -2.5 -15.5q-2.5 -5.5 -11 -6q-5.5 1 -15 8l-14.5 10.5q-9.5 6.5 -34 17.5q-25 11 -58 21.5q-33.5 11 -67.5 16.5q-8 1 -12 5q-4.5 4.5 -4.5 9q0 4 4 7q4 3.5 12.5 3.5l107.5 0q3 0 5.5 2q2.5 2.5 2.5 7l0 495q1 47.5 -4 68.5q-5.5 21.5 -29.5 28q-24.5 6 -80 10q-6.5 3.5 -9.5 8q-3 4.5 -3 9q0 4 4.5 7.5q4 3 14 3l303 0q10.5 0 14.5 -3q4 -3.5 4 -7.5q0 -5.5 -4 -10q-3.5 -4.5 -8.5 -7" />
</g>
<g id="PathID_907" transform="matrix(0.0352941, 0, 0, 0.0352941, 96, 37.8)">
<path style="fill:#000000;fill-opacity:1" d="M460.5 -207q1 -2 1.5 -4.5q0.5 -2 0.5 -3.5q0 -6 -4 -8.5q-3.5 -3 -8 -2.5q-2.5 0 -6 1q-3 1 -5.5 3q-28 75.5 -56 111q-28.5 35.5 -50.5 35l-235 0q17.5 -34.5 46.5 -71.5q29 -36.5 61.5 -69.5q32.5 -33.5 59.5 -57.5q46 -38 90 -76q44.5 -38.5 74 -87q29.5 -49 30.5 -118q-1 -64.5 -28 -105q-27 -40 -71 -58.5q-43.5 -18.5 -93.5 -18.5q-58.5 1 -99 23q-40.5 22 -65.5 55q-24.5 33 -36 66q-11 33.5 -11 56.5q0 14.5 6 31q5.5 17 19.5 29.5q14 12.5 38 13q26 -0.5 41 -18q15 -17.5 15 -46.5q-0.5 -19 -7 -28q-6 -9 -12.5 -17.5q-6.5 -8 -7 -24q1 -55.5 31 -86q30.5 -30 77.5 -30.5q44.5 0.5 68.5 21.5q24.5 21 33.5 56q9 35 8.5 78q-0.5 50.5 -20.5 93.5q-19.5 43 -50.5 82q-30.5 38.5 -64 75q-68 77.5 -106 133q-38.5 56 -55.5 92.5q-16.5 36 -20.5 54q-4 18 -3 19q-1 5.5 4 7q5.5 1.5 27.5 1.5l322 0q5.5 -1 10 -5q4 -4.5 5.5 -11.5l21.5 -87q11.5 -49 22.5 -102.5" />
</g>
<g id="PathID_908" transform="matrix(0.0352941, 0, 0, 0.0352941, 0, 84)">
<path style="fill:#000000;fill-opacity:1" d="M867.5 -435l0 -39l-710.5 0l0 39l710.5 0M867.5 -236.5l0 -38l-710.5 0l0 38l710.5 0" />
</g>
<g id="PathID_909" transform="matrix(0.0352941, 0, 0, 0.0352941, 48, 84)">
<path style="fill:#000000;fill-opacity:1" d="M779 -29q-26.5 -2 -41.5 -8.5q-15 -6.5 -25 -21.5q-9.5 -14.5 -20.5 -41.5q-25 -60 -57 -140q-32 -80 -67 -169q-35 -89 -68.5 -175.5l-60.5 -157.5q-5 -14.5 -9.5 -25q-4.5 -10.5 -12 -11q-0.5 -0.5 -6.5 2q-6.5 2.5 -23 13.5q-8 5.5 -18 9q-10 3.5 -16 5q-8.5 3 -12.5 18.5q-4 15.5 -11 37q-38.5 102 -75 202q-36.5 99.5 -67.5 185q-31 85.5 -53.5 145q-22.5 59.5 -33.5 80.5q-10 22.5 -27 35.5q-17 12.5 -53.5 16q-7 3.5 -10 8q-2.5 4.5 -2.5 8q0 5.5 4.5 9q4.5 3.5 13 3.5l193.5 0q9 0 13.5 -4q4 -3.5 4 -8.5q0 -4.5 -3 -9q-2.5 -4.5 -7.5 -7q-35 -3.5 -53 -8q-17.5 -4 -23.5 -10.5q-5.5 -6.5 -5 -16.5q0.5 -15 11.5 -48.5q11.5 -33.5 26.5 -73.5q15.5 -40.5 28.5 -76q1 -4.5 4 -7.5q3 -2.5 11 -2.5l296 0l44.5 118l23 61.5q6.5 19 8 24.5q1.5 5 1.5 6q-1 18.5 -20.5 25q-20 6 -49 8q-7 3.5 -11 8q-3.5 4.5 -3.5 8q0 5.5 5 9q5.5 3.5 15.5 3.5l237.5 0q9.5 0 14.5 -3.5q5 -3.5 5 -9q0 -3 -3.5 -7.5q-3 -4 -10 -8M513 -305.5l-287 0q69 -191.5 137.5 -383q74.5 191.5 149.5 383" />
</g>
<g id="PathID_910" transform="matrix(0.0352941, 0, 0, 0.0352941, 96, 84)">
<path style="fill:#000000;fill-opacity:1" d="M700.5 -211.5q0 -89.5 -66 -138q-65.5 -49 -194 -56q49.5 -3.5 97.5 -22.5q47.5 -19 79 -56q31.5 -37 32.5 -94.5q-0.5 -63.5 -30.5 -103.5q-30.5 -40 -84.5 -58.5q-54 -18.5 -127 -18.5l-361.5 0q-10.5 0 -15.5 4q-5 3.5 -5 8q0 5 3.5 9q3.5 4.5 11 7.5q37 0.5 54.5 6.5q17 6.5 22.5 15q5 9 6 16.5q3 17 5 59q2 42.5 2 119.5l0 239.5q0 78 -1 132.5q-1.5 54 -5 72.5q-2.5 12.5 -8 20q-5.5 8 -21.5 12.5q-16.5 4.5 -51.5 7.5q-6 3 -9.5 8q-4 4.5 -4 9.5q0 4.5 5 7.5q5 3.5 15.5 3.5l342 0q40 0.5 92 -7.5q52 -8.5 101 -30.5q49.5 -22.5 82 -64q32.5 -41.5 33.5 -108.5M549 -583q-0.5 48 -17.5 80.5q-17 32.5 -43.5 52q-27 19.5 -57.5 28.5q-30.5 8.5 -58 8.5l-133 0q-5.5 0 -10 -1q-4.5 -1 -8.5 -3l0 -141.5q0 -29.5 0.5 -59q0.5 -29 1.5 -53q1 -23.5 3 -36q0 -4 6 -11.5q6 -7.5 16.5 -10l34.5 -1.5q25.5 -0.5 54 -0.5l46 0q68 0.5 104 21.5q36.5 20.5 49.5 54q13.5 33.5 12.5 72M593 -206q0 47.5 -21.5 87q-21.5 40 -65 64q-43.5 24 -109 24.5q-62.5 0.5 -98.5 -2.5q-35.5 -3 -52.5 -12.5q-17 -9 -21.5 -28q-4.5 -19 -4 -51l0 -256.5q1.5 -2 5.5 -3q4.5 -1 10 -1l144.5 0q65.5 -0.5 112.5 15q47.5 16 73.5 55q25.5 39.5 26 109" />
</g>
<g id="PathID_911" transform="matrix(0.0352941, 0, 0, 0.0352941, 0, 132)">
<path style="fill:#000000;fill-opacity:1" d="M687 -166.5q-1 -8.5 -4.5 -12q-3 -3.5 -7 -3.5q-3 0 -6 1.5q-3 1 -6.5 3.5q-49 75.5 -110 109.5q-61 33.5 -130.5 33q-73 0 -132 -38.5q-58.5 -38.5 -93.5 -117.5q-34.5 -79 -35.5 -199.5q1 -123.5 34.5 -203q33 -79.5 86 -118q53 -38.5 113 -38q62.5 0 107.5 23.5q45 23 77.5 66q32.5 43 57.5 102q4 4 7.5 5.5q4 2 7 2q7 -0.5 10.5 -5.5q4 -5.5 4 -11l-42 -198.5q-1 -4.5 -3 -7.5q-2.5 -2.5 -5.5 -2.5q-2 0 -5 2q-2.5 2.5 -5 8q-5.5 11 -14.5 21.5q-8.5 10.5 -17.5 11.5l-2 -0.5q-1 0 -2 -0.5q-25.5 -15.5 -55.5 -25q-30 -9.5 -59.5 -14q-30 -4.5 -55 -4q-81 0.5 -145.5 34q-64.5 33 -110 89q-46 55.5 -70 124.5q-24.5 68.5 -24.5 140.5q0.5 132.5 44 222.5q44 90.5 124.5 136.5q81 46.5 194 46.5q55 0 107.5 -20q52.5 -19.5 96 -60.5q43 -40.5 71 -103.5" />
</g>
</svg>
