<?xml version="1.0" encoding="utf-8"?>
<svg version="1.1" id="Layer_1"
xmlns="http://www.w3.org/2000/svg"
xmlns:xlink="http://www.w3.org/1999/xlink"
xmlns:author="http://www.sothink.com"
width="116px" height="164px"
xml:space="preserve">
<g id="PathID_918" transform="matrix(0.0352941, 0, 0, 0.0352941, 0, 37.8)">
<path style="fill:#000000;fill-opacity:1" d="M884 -120q-224 -164 -412 -332q-24 -20 -48 -20q-24 0 -40 16q-184 164 -252 220l-80 -80q108 -64 284 -228q40 -36 80 -36q52 0 96 36q304 252 464 332l-92 92" />
</g>
<g id="PathID_919" transform="matrix(0.0352941, 0, 0, 0.0352941, 48, 37.8)">
<path style="fill:#000000;fill-opacity:1" d="M644 -20q64 -8 108 -52q48 -48 48 -128q0 -88 -52 -140q-52 -52 -164 -52q-132 0 -204 52q-68 48 -176 172l-68 -60q288 -288 436 -480q-132 16 -264 28l-28 -92q196 0 348 -20l36 -16l44 44q44 40 -20 52q-120 136 -240 268q84 -20 140 -20q152 0 224 72q72 72 72 184q0 116 -64 180q-96 96 -244 96q-140 0 -204 -64q-52 -52 -52 -124q0 -48 36 -84q40 -40 92 -40q72 0 120 48q56 56 76 176M564 -8q-12 -104 -48 -140q-28 -28 -56 -28q-32 0 -48 16q-20 20 -20 44q0 36 32 68q40 40 104 40l36 0" />
</g>
<g id="PathID_920" transform="matrix(0.0352941, 0, 0, 0.0352941, 0, 84)">
<path style="fill:#000000;fill-opacity:1" d="M936 80q-268 -64 -360 -260q-48 204 -328 272l-24 -76q252 -56 284 -228l-264 0q-12 172 -120 284l-56 -64q96 -92 96 -252l0 -392l708 0l0 256l-80 0l0 -24l-548 0l0 116l272 0l0 -92l76 0q32 4 4 24l0 68l340 0l0 76l-300 0q56 148 332 208l-32 84M920 -780l0 76l-804 0l0 -76l804 0M792 -560l-548 0l0 80l548 0l0 -80" />
</g>
<g id="PathID_921" transform="matrix(0.0352941, 0, 0, 0.0352941, 48, 84)">
<path style="fill:#000000;fill-opacity:1" d="M936 72q-244 -96 -340 -332q-68 244 -384 336l-44 -84q372 -96 372 -420l0 -156l-52 0q-52 104 -148 200l-68 -68q156 -156 204 -372l92 24q16 12 -12 28q-12 36 -40 112l356 0l16 -16l68 56q16 20 -16 24q-52 128 -164 284l-68 -60q96 -120 128 -212l-204 0l0 136q0 284 344 424l-40 96M352 -288q-108 120 -224 200q-8 32 -20 16l-56 -84q136 -88 244 -196l56 64M236 -532q-60 -68 -144 -112l60 -80q88 40 152 104l-68 88" />
</g>
</svg>
