<?xml version="1.0" encoding="utf-8"?>
<svg version="1.1" id="Layer_1"
xmlns="http://www.w3.org/2000/svg"
xmlns:xlink="http://www.w3.org/1999/xlink"
xmlns:author="http://www.sothink.com"
width="164px" height="212px"
xml:space="preserve">
<g id="PathID_912" transform="matrix(0.0352941, 0, 0, 0.0352941, 0, 37.8)">
<path style="fill:#000000;fill-opacity:1" d="M281.5 -776q-0.5 18.5 8.5 29q8.5 11 27.5 18q19.5 7 51 15.5q80 21.5 147.5 35q67 13 111.5 19.5q44.5 6 56.5 6q28.5 -0.5 40.5 -16.5q12 -16 11.5 -41q1 -22 -11.5 -35q-12 -12.5 -48 -17q-67.5 -8.5 -133.5 -22.5q-66 -13.5 -128.5 -32l-24 -7q-17 -5 -33.5 -9q-17 -4 -23.5 -4.5q-23.5 1 -37.5 18q-14.5 17.5 -14.5 43.5M105 -472q0 13.5 5.5 27.5q5.5 14 17.5 24q12 9.5 31.5 10q7.5 -0.5 27.5 -5.5q20.5 -5 41.5 -11.5l33.5 -9.5q47 -13.5 107.5 -27.5q60 -14 120.5 -24q60 -9.5 106.5 -10q52 -0.5 93 13.5q41 14 65 47.5q24 33.5 24.5 92.5q-0.5 65.5 -34 116q-33.5 51 -93 86.5q-59 36 -137 56.5q-78 21 -167 26q-32 0.5 -49.5 10.5q-18 10 -18 41.5q0 30.5 17 44.5q16.5 14 48.5 14q40.5 0 96 -7.5q55.5 -7 117.5 -24.5q61.5 -17 121.5 -46.5q59.5 -29.5 108.5 -73.5q48.5 -44 77.5 -104.5q29.5 -61 30 -141q0.5 -70 -29 -129q-29.5 -59 -95 -95q-65 -36 -172 -37q-25.5 -0.5 -67 3q-41.5 3.5 -109.5 15.5q-67.5 12 -172 37q-63 14.5 -95 25q-32 10 -42.5 22.5q-10.5 12 -10 33" />
</g>
<g id="PathID_913" transform="matrix(0.0352941, 0, 0, 0.0352941, 48, 37.8)">
<path style="fill:#000000;fill-opacity:1" d="M206 -510q-38.5 8 -54 21.5q-15.5 13.5 -15 36q0 21 12 39.5q12 18.5 37.5 20q7 -0.5 26 -5q19.5 -5 40.5 -11l33.5 -9.5q31.5 -9.5 81 -22.5q49.5 -13 106.5 -23.5q57 -10 110.5 -10.5q68.5 1 108.5 26.5q40.5 25.5 58 64.5q17.5 39 17 80q-1 60 -27.5 100q-26.5 40 -68.5 64q-42 23.5 -88 35.5q-46.5 12 -86.5 16.5q-40 4.5 -63.5 5q-29.5 1.5 -49 4.5q-19.5 3 -29.5 13q-9.5 10 -9.5 32q0.5 27.5 12 39.5q11 12 25.5 14.5q14 2.5 24 2q21 0.5 60.5 -3q39.5 -3 87 -11q22.5 -3.5 61 -12.5q39 -9.5 83.5 -29q44.5 -19.5 85 -54q40.5 -34 66.5 -87.5q25.5 -53.5 26.5 -130.5q0 -74.5 -33.5 -135.5q-34 -61 -98.5 -97.5q-65 -36.5 -158.5 -37.5q-42 0 -91.5 6q-49.5 6 -111.5 19.5l-178 40" />
</g>
<g id="PathID_914" transform="matrix(0.0352941, 0, 0, 0.0352941, 96, 37.8)">
<path style="fill:#000000;fill-opacity:1" d="M597 -662.5q-94 47 -151 103.5q-57.5 56.5 -83.5 120.5q-26 64 -25.5 134.5q1 87 34 148q33 61 83.5 100q50 39 103 61q52.5 21.5 93.5 30q41 8.5 55.5 8q29 -1 44.5 -19.5q15 -18.5 15 -42q-0.5 -29.5 -20 -40q-19.5 -11 -56 -17.5q-15.5 -3 -44 -12q-28.5 -9.5 -61.5 -26q-33.5 -17 -63.5 -44q-30 -27 -49.5 -65.5q-19.5 -38.5 -20 -91q1 -65.5 36 -124.5q35 -58.5 95 -106q59.5 -47.5 133.5 -78.5q74 -31 152.5 -40.5q30.5 -3 50 -7.5q19.5 -4.5 28.5 -15.5q9.5 -11 9.5 -34q-0.5 -29 -10.5 -41q-10 -12.5 -23 -15.5q-13 -2.5 -23 -2q-9 0 -20 0.5l-19 1.5l-647 46l-29 2l-42.5 3q-21.5 1 -31 2.5q-22 2 -36.5 14q-15 11.5 -15.5 40q0 24.5 11.5 42q11.5 17.5 37.5 18.5q9.5 0 26.5 -2l28 -3l434 -48" />
</g>
<g id="PathID_915" transform="matrix(0.0352941, 0, 0, 0.0352941, 0, 84)">
<path style="fill:#000000;fill-opacity:1" d="M741.5 -363.5q-77.5 -46 -131 -68.5q-54 -22.5 -83 -32l27.5 -63.5l30.5 -71.5l28 -63.5q19 -42 26 -61.5q7 -19 7 -25.5q-1 -19.5 -20 -36.5q-18.5 -17 -42.5 -18l-21 2.5l-28.5 4.5l-20.5 3.5q-20 2.5 -46.5 4.5l-55 2.5q-28 1 -53 1q-7 0 -26 -0.5l-37.5 -1l-26.5 -0.5q-31 -1 -49 10q-18.5 11 -18.5 45.5q0.5 26.5 11.5 38q11 11.5 28 14q17 2.5 34 2q30.5 0 87 -2.5q56.5 -2.5 143.5 -11q-25 71 -47.5 124q-22.5 53.5 -35.5 81l-23.5 -2.5l-33 -1.5q-86.5 1 -154 41q-67.5 39.5 -106.5 106q-38.5 66 -39.5 146q1 76 37 120.5q35.5 45 92 46q19.5 1 44 -7.5q25 -9 58 -41q33 -32 78.5 -101q45 -69 105.5 -188q16 4.5 50.5 19q35 14 80 37.5q45.5 23 92.5 55q-19 45.5 -45 82q-26 36.5 -53 63.5q-27.5 27 -51.5 43.5q-29.5 21 -44 33q-14.5 12 -18.5 20q-4.5 8.5 -4 19q0.5 20.5 16 37.5q16 16.5 39.5 17.5q18.5 0.5 61 -24.5q42.5 -25 94.5 -80q51.5 -55 97.5 -144q42 35 63.5 51.5q21.5 17 31.5 22q10.5 4.5 19.5 4q21.5 -0.5 37.5 -19.5q16 -18.5 17 -44.5q0 -13.5 -7 -24.5q-7 -10.5 -24 -25q-27.5 -24.5 -53 -43.5q-26 -19.5 -43 -31q10.5 -33 20 -76q10 -42.5 16 -83q6.5 -41 7 -68.5q0.5 -20 -12 -36q-12.5 -16 -47.5 -17q-23.5 0 -36 13.5q-12.5 13.5 -15.5 39.5q-5.5 51 -12.5 89.5q-6.5 38.5 -17 74.5M370 -387q-18 35 -40.5 76.5q-22.5 41 -46.5 79q-24 37.5 -46 62q-22 24 -39 25q-15 -0.5 -24 -14.5q-9 -14.5 -9 -38.5q1 -57.5 30.5 -101q29.5 -43.5 76 -67.5q46.5 -23.5 98.5 -21" />
</g>
<g id="PathID_916" transform="matrix(0.0352941, 0, 0, 0.0352941, 48, 84)">
<path style="fill:#000000;fill-opacity:1" d="M516.5 -661.5q-31 8.5 -64 20q-33.5 11.5 -64 22.5l-52.5 20q-7.5 -20 -23.5 -58q-16 -38 -47 -107q-10 -24 -21 -36.5q-11 -12.5 -35.5 -12.5q-13 0 -27.5 6q-14 6 -24.5 18q-10 11.5 -10.5 28q0 8 3 16.5q3 8.5 8.5 21.5l14 32q9.5 22.5 21.5 49.5q11.5 27.5 21.5 50.5l14.5 34q-78 29 -114.5 45.5q-37 16 -47.5 28.5q-10 12 -9 30.5q0 22 13.5 41q13 19 40 20q8 0.5 17 -2q9 -2.5 25 -10q9.5 -4 33.5 -14.5q24 -10 48.5 -20.5q24 -10 34.5 -14q48 127.5 85.5 239q37.5 111.5 62 197q11 38.5 19 59q8 20.5 19 28q10.5 7.5 29.5 7q26.5 0 45.5 -14q19.5 -13.5 20 -39q0 -15.5 -20.5 -83.5q-20.5 -68 -59.5 -179.5q-39 -111.5 -95 -258.5q50 -20.5 108 -42q58 -21.5 115.5 -36.5q57.5 -15 106.5 -15.5q54.5 1 84.5 22.5q29.5 21.5 41 49.5q11 28.5 10.5 50q-0.5 42 -24 71q-23.5 29.5 -63 44.5q-39.5 15.5 -88 15.5l-22 -1l-24.5 -1.5l-17 -0.5q-21.5 0.5 -33.5 14q-11.5 13.5 -11.5 36q0.5 29.5 26.5 45.5q26.5 16 73.5 16q94.5 -0.5 160.5 -29.5q66 -29 100.5 -82q35 -53 35 -125q-0.5 -67 -30.5 -119q-30.5 -52 -87.5 -81.5q-56.5 -29.5 -137 -30q-26.5 0 -44.5 2.5l-28 3.5q-37 -62.5 -57.5 -92q-20 -30 -33 -38.5q-12.5 -8.5 -27.5 -7.5q-21 0 -39.5 13q-18.5 13 -19.5 36q-0.5 8.5 5.5 20.5q6 11.5 21 35q15.5 23 24 37l16 25.5" />
</g>
<g id="PathID_917" transform="matrix(0.0352941, 0, 0, 0.0352941, 96, 84)">
<path style="fill:#000000;fill-opacity:1" d="M567.5 -528.5q70 -3 128.5 -8.5q59 -5.5 103 -11q20.5 -2 37 -6.5q17 -4 26.5 -15q10 -10.5 10 -33q0.5 -11 -4 -25q-4.5 -13.5 -15.5 -23.5q-11 -10.5 -30.5 -11q-9.5 0.5 -32.5 3.5l-47 6.5q-23.5 3.5 -33 4.5q-40 4.5 -72.5 6.5l-71 4l-2 -154q0.5 -12.5 -3 -26.5q-3.5 -14 -16 -23.5q-12.5 -10 -38.5 -10.5q-28.5 1 -41 12.5q-12 11.5 -14.5 26q-2.5 14.5 -2 23l8 468q-22 -3 -44.5 -4.5l-45.5 -1.5q-79.5 0 -143.5 19.5q-64.5 19.5 -102 60.5q-38 40.5 -39 103.5q0.5 59.5 35 102q34 42.5 93 65.5q58.5 23 133 23q86.5 -1 134.5 -24.5q47.5 -24 67.5 -61q20 -37.5 23.5 -79q3.5 -41 2 -77.5q61.5 19 115.5 43.5q53.5 24.5 92 46.5q38.5 21.5 54.5 32q20 12 30.5 17.5q10 5 21 5q22.5 -1 37 -18.5q14.5 -17.5 15 -41q0.5 -24 -19.5 -42q-20.5 -18 -69.5 -43q-59.5 -32 -126 -59q-66.5 -27 -151.5 -48.5l-3 -225M459 -219.5q1 56.5 -4.5 92.5q-6 36.5 -32 54q-26.5 17.5 -87.5 17.5q-18 0 -42.5 -3.5q-24.5 -4 -48.5 -13.5q-24 -9.5 -40 -26.5q-16 -17 -16.5 -43.5q1 -41.5 46 -63q45.5 -22 124 -22q35 0 61 3q25.5 2.5 40.5 5" />
</g>
</svg>
