<?xml version="1.0" encoding="utf-8"?>
<svg version="1.1" id="Layer_1"
xmlns="http://www.w3.org/2000/svg"
xmlns:xlink="http://www.w3.org/1999/xlink"
xmlns:author="http://www.sothink.com"
width="116px" height="164px"
xml:space="preserve">
<g id="PathID_902" transform="matrix(0.0352941, 0, 0, 0.0352941, 0, 37.8)">
<path style="fill:#000000;fill-opacity:1" d="M778.5 -544q6 -26 6 -49q-1 -60.5 -36 -97q-35 -36.5 -91.5 -53q-56.5 -16.5 -121.5 -16l-322.5 0q-10.5 0 -15.5 4q-5 4 -5 9.5q0 3.5 2.5 7.5q2 4 7 6.5q36 0 54.5 4.5q18.5 4.5 24.5 12q6 7.5 6 16.5q0 6.5 -11.5 52.5q-11.5 46 -37 132l-70.5 240.5q-23.5 79 -40.5 132.5q-17 53.5 -24 68.5q-7 13.5 -17 22.5q-10 9 -29.5 14q-19.5 5 -56 7.5q-7.5 3 -11.5 7.5q-4 4 -4 8.5q0 5 4 8q4 3.5 11.5 3.5l290 0q10 0 14.5 -4q5 -4 5 -9.5q0 -3.5 -2.5 -8q-2 -4 -6 -7q-51.5 -2.5 -73 -12q-22 -9.5 -22 -28q-0.5 -0.5 6.5 -35.5q7 -34.5 25 -97l45 -151.5q17.5 4.5 42 7.5q25 3 50.5 5l46 2q39 0.5 92.5 -4.5q53 -5 107.5 -24.5q54.5 -19.5 96.5 -61.5q42.5 -41.5 60 -114.5M673 -538.5q-19.5 74 -54.5 111q-34.5 37 -80 49q-45.5 12 -97 11q-29 0 -63 -4.5q-33.5 -4 -58 -9.5q-24.5 -6 -24.5 -10.5l34 -121q17 -62 27 -96.5q9.5 -34.5 15.5 -51.5q5.5 -17.5 10.5 -27.5q5.5 -13 12.5 -22.5q6.5 -9.5 22 -15.5q15.5 -5.5 46.5 -6l12 -0.5q11 0 26 -0.5l25.5 0q86.5 1 121.5 33.5q35.5 33 34 87.5q0 17 -3 35.5q-2.5 18.5 -7 38.5" />
</g>
<g id="PathID_903" transform="matrix(0.0352941, 0, 0, 0.0352941, 48, 37.8)">
<path style="fill:#000000;fill-opacity:1" d="M801 -491.5q0 -79 -29 -143q-29 -64.5 -87.5 -103q-58 -38 -146 -39q-87 1 -156.5 35q-69.5 34 -121 90.5q-51.5 56 -86 123q-34.5 67 -51.5 133.5q-17 67 -17 122.5q0 80 30 145.5q29.5 65.5 88.5 105q59.5 39 148 40q20.5 0 40 -2q19.5 -2.5 38.5 -6q6.5 52 24.5 78.5q18 26.5 42.5 35.5q24.5 9 49 8.5q29 -1 53 -15q24.5 -14 41 -31q16 -17.5 21.5 -28.5q1 -1.5 1 -3.5l0 -4q0 -4.5 -3 -7.5q-2.5 -3.5 -8 -3.5l-3.5 0.5q-2 0.5 -4 1.5q-17 12.5 -34 18.5q-17 6 -42.5 6q-33.5 -1.5 -51 -22.5q-18 -20.5 -26 -52q68.5 -29 118 -77q50 -48 83 -105.5q33 -57.5 52.5 -115.5q19 -58 27.5 -106.5q8 -49 8 -79M502 -60.5q-9.5 -43 -27.5 -75q-18 -31.5 -49.5 -49q-31.5 -17.5 -81 -18q-43.5 0.5 -75 24.5q-31 23.5 -48.5 63.5q-8.5 -25 -12.5 -52.5q-4 -28 -4 -58q0 -65 16.5 -136.5q16 -71.5 46 -140.5q29.5 -68.5 71 -124.5q41.5 -56 92 -89.5q50.5 -33 108 -34q62 0.5 98.5 29q36.5 28 52 75.5q16 47.5 15.5 105.5q0 61.5 -14.5 129.5q-15 68 -41.5 134.5q-27 66 -64 122q-37 56 -81.5 93.5M448.5 -25.5q-18.5 8.5 -38 13.5q-19.5 5 -39.5 5q-51.5 -0.5 -85.5 -21q-34 -21 -53 -57q15 -41 42.5 -65.5q27 -24 71 -24.5q34.5 0.5 54.5 16q20.5 15 30.5 39q10 23.5 13.5 48.5q3.5 25.5 4 46" />
</g>
<g id="PathID_904" transform="matrix(0.0352941, 0, 0, 0.0352941, 0, 84)">
<path style="fill:#000000;fill-opacity:1" d="M759.5 -594q-0.5 -51.5 -28.5 -88.5q-27.5 -37 -76.5 -56.5q-49 -20 -113 -20l-327.5 0q-9.5 0 -15 4q-5.5 4 -5.5 10.5q0 3 2 6q1.5 3 6 7q36 0 54.5 5q18.5 5 25 12.5q6 8 5.5 16.5q0.5 0.5 -2 13q-2.5 13 -12.5 51.5q-10.5 39 -33.5 119q-35.5 120 -70.5 240.5q-23 78.5 -39.5 130q-16 52 -25 70q-7 13.5 -16 23q-9 9 -27 14.5q-18 5.5 -53.5 7.5q-7 3 -10.5 8q-3.5 4.5 -3.5 9.5q-0.5 4.5 3 7q3.5 3 11 3l272.5 0q8.5 -0.5 13.5 -4.5q5 -4 5 -10q0 -3.5 -2 -7.5q-2.5 -3.5 -6.5 -6.5q-45.5 -1.5 -66.5 -10q-20.5 -8.5 -20.5 -29q0 -12.5 8 -44q7.5 -31.5 25 -89.5l50 -164.5l49.5 3l32.5 2q8 -1 14.5 4q6.5 5 15.5 28.5l27 72.5q18 47 39 108q21 61.5 40.5 131l2 16.5l146 0q9.5 -0.5 15.5 -4.5q6 -4 6 -10q0 -3.5 -3 -7.5q-3 -3.5 -9 -6.5q-30.5 -2 -45 -8q-14.5 -6 -20 -16q-6 -10 -10 -24q-3 -9.5 -12.5 -36.5q-9.5 -27 -23 -63.5q-13 -36.5 -27.5 -74q-14 -37.5 -26.5 -67.5q-12.5 -30 -20 -44.5q78.5 -6.5 142 -35q63.5 -28 101.5 -77q38 -49.5 39 -118.5M430 -389q-50.5 0 -79 -1l-41.5 -2.5q-12.5 -1.5 -16.5 -2.5q16.5 -59 33.5 -118q17.5 -62 27.5 -96q10 -34.5 16 -51.5q5.5 -17 11 -27q9.5 -21.5 22.5 -31q13 -9.5 41 -11.5q28 -2 83 -1.5q53 0.5 83 16.5q30 16 42.5 42q12 26 11.5 56.5q0 38.5 -13.5 78.5q-13 39.5 -41.5 73.5q-28.5 33.5 -73 54q-44.5 21 -106.5 21.5" />
</g>
</svg>
