<?xml version="1.0" encoding="utf-8"?>
<svg version="1.1" id="Layer_1"
xmlns="http://www.w3.org/2000/svg"
xmlns:xlink="http://www.w3.org/1999/xlink"
xmlns:author="http://www.sothink.com"
width="212px" height="260px"
xml:space="preserve">
<g id="PathID_682" transform="matrix(0.0352941, 0, 0, 0.0352941, 0, 37.8)">
<path style="fill:#000000;fill-opacity:1" d="M122 -771q-5 59.5 -9 131q-4 72 -4.5 151.5q-0.5 144 17.5 255q18 111.5 62.5 175q44 63.5 122 64.5q40.5 -0.5 75 -22.5q34.5 -22 63 -56.5q28.5 -34.5 50.5 -73.5q22 -38.5 37 -73.5q15 -35 23 -57.5q-25.5 -14 -51 -27.5q-24 63 -49.5 110.5q-25.5 47 -49 75.5q-20 26 -42 41q-22.5 15 -51 15.5q-49 -1 -78 -41q-29.5 -39.5 -44 -103q-14.5 -64 -19 -137.5q-5 -74 -4.5 -143.5q0.5 -102 6.5 -170.5q6 -69 11 -108l-66.5 -5M935 -94q1 -18.5 1.5 -40q0.5 -22 0.5 -49.5q-0.5 -153 -26.5 -258q-26 -105.5 -73.5 -176.5q-47.5 -71 -112 -120.5l-45 41q32 25 65 62.5q33.5 37.5 61.5 94q28.5 56.5 46 138q17.5 82 18 196q0 38 -1.5 66q-1 27.5 -2.5 49l68.5 -2" />
</g>
<g id="PathID_683" transform="matrix(0.0352941, 0, 0, 0.0352941, 48, 37.8)">
<path style="fill:#000000;fill-opacity:1" d="M132.5 27.5q18 -35.5 52 -113.5q34 -78 71.5 -198q38 -120 68.5 -281l166 -1q55.5 0 82 23q26 23.5 33.5 63.5q7.5 40 6.5 90.5q0 19 -1.5 55q-1.5 36 -7 82q-5.5 46 -17 95.5q-13 57.5 -42 88q-29.5 30.5 -89 30.5q-21 0 -52.5 -3.5q-31.5 -4 -76.5 -14l4 62.5q35.5 8 67 11.5q31 4 66 4q24.5 1 54.5 -4.5q30.5 -5.5 59 -26q29 -21 49.5 -67q18 -44 29 -100q11 -55.5 15.5 -113q4.5 -57 4.5 -106q0 -75.5 -15 -121.5q-15 -46 -42.5 -69.5q-27.5 -23 -65 -31q-37 -8 -82.5 -7.5l-136 0q5 -31.5 9 -59l7.5 -58.5l8 -73l-67.5 -8q-3 44.5 -5.5 76q-2.5 31.5 -6 59.5q-3.5 28 -9 63l-193.5 0l0 59.5l184.5 -1q-18.5 114.5 -62 258.5q-44 143.5 -126.5 304.5q29 15 58.5 29.5M912.5 -274.5q-11.5 -75 -34 -148q-22.5 -72.5 -59.5 -138.5q-37 -65.5 -91 -120l-49 38q62.5 59 106.5 156q44 97.5 56.5 224l70.5 -11.5M872.5 -878.5q33.5 39 61.5 81.5q28.5 43 59.5 102l51 -38q-37 -65.5 -68.5 -109q-31.5 -43.5 -56.5 -71.5l-47 35M751 -807q30 36.5 58 80q28 43 60.5 105.5l51 -38q-36 -65.5 -67 -109q-31 -43.5 -55.5 -72l-47 33.5" />
</g>
<g id="PathID_684" transform="matrix(0.0352941, 0, 0, 0.0352941, 96, 37.8)">
<path style="fill:#000000;fill-opacity:1" d="M833.5 -1q-50 -44 -117.5 -95q-68 -51.5 -168 -114q-100 -63 -247 -141.5q-30 -16 -43.5 -25q-13 -8.5 -15.5 -14q-3 -5.5 -2.5 -11q-0.5 -4.5 2.5 -10q3.5 -5.5 17 -16.5q14 -11.5 45 -32q89 -58.5 164 -110.5q75 -51.5 144 -107q69 -56 140.5 -125.5q-28.5 -19 -57.5 -38q-64 69.5 -168.5 151.5q-104.5 82 -256.5 182.5q-32 21 -54 37.5q-22 17 -33 34q-11 17.5 -11 40q0.5 22 13 38q12.5 16.5 30.5 28.5q18.5 12 36.5 21.5q151 82 255 149.5q104 67.5 170.5 119.5q66.5 51.5 105.5 86.5l50.5 -49" />
</g>
<g id="PathID_685" transform="matrix(0.0352941, 0, 0, 0.0352941, 144, 37.8)">
<path style="fill:#000000;fill-opacity:1" d="M390 -34q80.5 -0.5 164.5 -11q84 -10 158 -41.5q97.5 -45 147.5 -104q50 -59 67.5 -118.5q17.5 -60 16.5 -107.5q0.5 -49.5 -15.5 -100.5q-16 -51 -53.5 -94.5q-37 -43.5 -101 -70.5q-64 -26.5 -159.5 -27.5q-56 0.5 -132 11q-76.5 10 -159 26l-55 10l-74 13l-71.5 12.5q-33 5.5 -49.5 7.5l15.5 71.5q9.5 -2.5 49.5 -12q40.5 -10 100 -23q59.5 -13.5 127 -26q67.5 -13 131.5 -21q64.5 -8.5 114.5 -9q68 0 120 17q52.5 17 84.5 50.5q32 35 47 77.5q14.5 42.5 14.5 88.5q0.5 31.5 -8 69q-8.5 37.5 -32 77q-23.5 39 -67.5 76q-52 42 -110.5 63q-59 21 -129 27.5q-70 6.5 -156 6.5q8 31 15.5 62.5" />
</g>
<g id="PathID_686" transform="matrix(0.0352941, 0, 0, 0.0352941, 0, 84)">
<path style="fill:#000000;fill-opacity:1" d="M177 -805q-7 27.5 -17.5 85.5q-10.5 57.5 -19 153q-8 95.5 -8.5 235.5q0 98.5 5 168.5q4.5 70.5 11 117.5q6.5 47 11.5 76.5l67.5 -7q-5 -19.5 -13 -60.5q-7.5 -40.5 -13.5 -113q-5.5 -73 -6 -188q0 -118.5 7.5 -203q7 -84.5 18 -146.5q11 -61.5 23.5 -111.5l-66.5 -7M424 -716l0 59.5l468 0l0 -59.5l-468 0M445.5 -382q-27.5 46.5 -40 88.5q-12.5 41.5 -12.5 79.5q1 64 33 101q32.5 37 82.5 54.5q50.5 17 106 21.5q56 4.5 104.5 4q42 0 81 -1.5l69 -3.5l45.5 -3l0 -67q-30.5 3.5 -84 7.5q-54 3.5 -136.5 4q-44 0.5 -87 -3q-43 -3.5 -78.5 -15q-35 -11.5 -56.5 -35.5q-21 -24 -21.5 -65.5q0.5 -38.5 15 -76.5q14.5 -38 37 -70.5q-28.5 -10 -57 -19.5" />
</g>
<g id="PathID_687" transform="matrix(0.0352941, 0, 0, 0.0352941, 48, 84)">
<path style="fill:#000000;fill-opacity:1" d="M340.5 -780.5q74 -10 121 -20q47 -9.5 71.5 -16.5q-16.5 -23 -33.5 -45.5q-75.5 21 -155.5 33q-80 12 -155 17.5q-74.5 5 -134 6q8.5 24 17.5 48l43 -1.5l67.5 -4l105.5 -10l0 80l-246 0l0 46l246 0l0 68.5l-209 0l0 313.5l209 0l0 76l-221.5 0l0 46l221.5 0l0 105.5l-81.5 10.5q-33.5 4.5 -58.5 7q-25.5 3 -51 5l-59 4q5 27.5 10.5 54.5q56 -6 129 -15.5q72.5 -9 147.5 -20.5q74.5 -11 137.5 -21.5q63 -11 100 -19.5q-3 -23 -5.5 -46q-41.5 8.5 -74.5 14q-33 5.5 -66.5 10l-76 11l0 -98.5l222.5 0l0 -46l-222.5 0l0 -76l210 0l0 -313.5l-210 0l0 -68.5l237.5 0l0 -46l-237.5 0l0 -87M288.5 -443.5l-157 0l0 -91.5l157 0l0 91.5M288.5 -311.5l-157 0l0 -89l157 0l0 89M497.5 -443.5l-157 0l0 -91.5l157 0l0 91.5M497.5 -311.5l-157 0l0 -89l157 0l0 89M764 -592l142.5 0l-1.5 75q-0.5 48.5 -2.5 109.5q-1.5 61 -4.5 125q-3 64.5 -7.5 122.5q-4.5 58.5 -11 102q-7 43 -16 62q-11 17.5 -27 21q-16.5 3 -27.5 1.5l-121 -5q8 28 15.5 56.5l112.5 0q38.5 1 64 -12q25.5 -13 41 -55q6 -18 11.5 -61.5q6 -44 11 -104.5q4.5 -60.5 8.5 -129q4 -68.5 6 -136q2.5 -68 3 -126q0 -57.5 -1.5 -97l-195.5 0l0 -215l-55.5 0l0 215l-104.5 0l0 51l104.5 0l0 18.5q0.5 24.5 -2 75q-2.5 50.5 -13.5 126.5q-11 75.5 -36.5 175.5q-16.5 59.5 -39.5 105.5q-23 45.5 -45.5 78q-22.5 32 -38 51l53 38q69.5 -91 108 -197.5q39 -106 54.5 -219.5q15.5 -113 15 -224.5l0 -26.5" />
</g>
<g id="PathID_688" transform="matrix(0.0352941, 0, 0, 0.0352941, 96, 84)">
<path style="fill:#000000;fill-opacity:1" d="M126 -752.5l0 814l772 0l0 -814l-411.5 0q10.5 -18.5 22 -45.5q12 -27 21 -50.5q-27.5 -7 -55.5 -13.5q-2 7 -8 25q-6 18 -14 40.5q-8.5 22.5 -18 44l-308 0M839.5 -253.5l-657 0l0 -201l657 0l0 201M839.5 -502.5l-657 0l0 -199l657 0l0 199M839.5 11.5l-657 0l0 -217l657 0l0 217" />
</g>
<g id="PathID_689" transform="matrix(0.0352941, 0, 0, 0.0352941, 144, 84)">
<path style="fill:#000000;fill-opacity:1" d="M959.5 -752.5l-418.5 0l0 -107.5l-56.5 0l0 107.5l-421 0l0 50l421 0l0 97.5l-362.5 0l0 365.5l362.5 0l0 97.5l-441.5 0l0 51l441.5 0l0 171l56.5 0l0 -171l441 0l0 -51l-441 0l0 -97.5l358 0l0 -365.5l-358 0l0 -97.5l418.5 0l0 -50M484.5 -450.5l-305 0l0 -106.5l305 0l0 106.5M841.5 -450.5l-300.5 0l0 -106.5l300.5 0l0 106.5M484.5 -288.5l-305 0l0 -116l305 0l0 116M841.5 -288.5l-300.5 0l0 -116l300.5 0l0 116" />
</g>
<g id="PathID_690" transform="matrix(0.0352941, 0, 0, 0.0352941, 0, 132)">
<path style="fill:#000000;fill-opacity:1" d="M375.5 -756.5l0 650l562.5 0l0 -265l-506 0l0 -122l487.5 0l0 -263l-284 0q3.5 -7.5 12 -27.5l16.5 -40.5q8.5 -20.5 12.5 -29.5l-62.5 -10l-17.5 55.5q-6 19 -10 30q-3.5 10.5 -8 22l-203 0M864 -542.5l-432 0l0 -164l432 0l0 164M882.5 -155.5l-450.5 0l0 -166l450.5 0l0 166M234.5 -456l-192.5 0l0 54.5l135 0l0 287q-19.5 28.5 -54.5 64.5q-35 36 -94 88l32 52q19 -17 47.5 -46q28 -29 57 -62.5q28.5 -33.5 49 -63.5q10 17.5 28.5 41.5q18.5 24 50 47.5q31.5 23.5 80 39q48.5 16 118 16.5l489.5 0l7 -52l-502 0q-78 -1 -126.5 -23q-48 -22 -73.5 -55q-25.5 -32.5 -36 -64q-11 -32 -14.5 -52.5l0 -272M279.5 -706.5q-21 -21 -49 -44.5q-27.5 -23.5 -55.5 -45.5q-28 -21.5 -49 -37l-29 -21.5q-16.5 19.5 -32.5 39q45.5 34 88.5 71q43 37 88.5 84.5l38 -46" />
</g>
<g id="PathID_691" transform="matrix(0.0352941, 0, 0, 0.0352941, 48, 132)">
<path style="fill:#000000;fill-opacity:1" d="M541 -86l369.5 0l0 -335.5l-796 0l0 335.5l370 0l0 69q-1 35.5 17.5 56.5q18 20.5 65.5 21l297 0q44.5 1 70 -7.5q25.5 -9 38.5 -41.5q12.5 -32.5 19 -102.5q-25 -11 -50 -21.5q-2.5 61.5 -10 88q-7.5 26.5 -23.5 32.5q-16.5 5.5 -45 4.5l-281.5 0q-29 0 -35.5 -8.5q-7 -8.5 -5.5 -28.5l0 -61.5M484.5 -281.5l-314.5 0l0 -94l314.5 0l0 94M484.5 -133l-314.5 0l0 -104.5l314.5 0l0 104.5M853 -281.5l-312 0l0 -94l312 0l0 94M853 -133l-312 0l0 -104.5l312 0l0 104.5M920.5 -822l-814 0l0 49l378 0l0 61.5l-423 0l0 199l54.5 0l0 -155l368.5 0l0 202l56.5 0l0 -202l366 0l0 155l57.5 0l0 -199l-423.5 0l0 -61.5l379.5 0l0 -49M179.5 -616.5l0 41l240.5 0l0 -41l-240.5 0M179.5 -523l0 42l240.5 0l0 -42l-240.5 0M603.5 -616.5l0 41l239 0l0 -41l-239 0M603.5 -523l0 42l239 0l0 -42l-239 0" />
</g>
</svg>
