<?xml version="1.0" encoding="utf-8"?>
<svg version="1.1" id="Layer_1"
xmlns="http://www.w3.org/2000/svg"
xmlns:xlink="http://www.w3.org/1999/xlink"
xmlns:author="http://www.sothink.com"
width="68px" height="116px"
xml:space="preserve">
<g id="PathID_692" transform="matrix(0.0352941, 0, 0, 0.0352941, 0, 37.8)">
<path style="fill:#000000;fill-opacity:1" d="M471 -367.5q0 -70.5 -12.5 -136q-12.5 -66 -38.5 -118.5q-26.5 -52.5 -68 -83.5q-41.5 -31 -99.5 -31.5q-52.5 0.5 -92 32q-39.5 31.5 -66 84.5q-27 53.5 -40 120q-13.5 67 -13.5 138.5q0 71 11.5 137q12 66.5 37.5 119q26 52.5 67.5 83q41.5 31 101.5 31.5q54 -1 94 -32q40 -31.5 66 -85q26 -54 39 -120.5q13 -67 13 -138.5M373.5 -364.5q0.5 62 -4 123.5q-4.5 61 -16.5 112q-12 51 -34.5 81.5q-23 30.5 -59.5 31.5q-42 -1 -67 -31.5q-24.5 -30.5 -37 -81.5q-12 -50.5 -15.5 -111.5q-4 -61 -3.5 -122.5q0 -63 5 -125q5 -61.5 18 -112q12.5 -51 35.5 -81.5q22.5 -30 57 -31q41.5 0.5 66.5 31q24.5 30 36.5 80q12 50.5 15.5 112q4 61.5 3.5 125" />
</g>
</svg>
