<?xml version="1.0" encoding="utf-8"?>
<svg version="1.1" id="Layer_1"
xmlns="http://www.w3.org/2000/svg"
xmlns:xlink="http://www.w3.org/1999/xlink"
xmlns:author="http://www.sothink.com"
width="255px" height="49px"
xml:space="preserve">
<g id="PathID_2091" transform="matrix(0.745098, 0, 0, 0.745098, 2, 34.5)">
<path style="fill:#000000;fill-opacity:1" d="M12.9 -18.3l-10.75 -16.35l5.2 0l7.95 12.55l8 -12.55l5.15 0l-10.75 16.35l11.75 17.75l-5.15 0l-9 -13.95l-8.95 13.95l-5.2 0l11.75 -17.75" />
</g>
<g id="PathID_2092" transform="matrix(0.745098, 0, 0, 0.745098, 24.85, 34.5)">
<path style="fill:#000000;fill-opacity:1" d="M27.45 -28.05q-3.35 19.9 -8.15 24.7q-2.6 2.6 -5.4 2.6q-3.15 0 -4.95 -1.8q-4.8 -4.8 -4.8 -11.95q0 -8.8 6.2 -14.95q6.75 -6.8 16.5 -6.8q8.8 0 13.75 5q5.6 5.6 5.6 13.15q0 8.15 -5.2 13.35q-3.35 3.4 -10.35 6.55l-4.2 -4.15q7 -2.2 11 -6.2q3.75 -3.8 3.75 -9.15q0 -6.4 -4.15 -10.55q-4.2 -4.2 -13.15 -3.8l3.55 1.8q2.4 1 0 2.2M22.9 -31.85q-5.2 1.2 -9 5q-5.15 5.15 -5.15 12.75q0 4.55 3 7.55q0.6 0.6 1.75 0.6q1.2 0 2.6 -1.4q4.6 -4.6 6.8 -24.5" />
</g>
<g id="PathID_2093" transform="matrix(0.745098, 0, 0, 0.745098, 62.85, 34.5)">
<path style="fill:#000000;fill-opacity:1" d="M14.1 -39.4q-0.8 5.15 -2.75 11.35q1.75 0.2 0.6 1.4l0 30.85l-4 0l0 -24.7q-1.4 2.2 -2.6 3.6l-3.2 -2.4q6.8 -8.15 8 -22.1l4.55 1q0.8 0.8 -0.6 1M33.65 -32.05l0 3.8l9.75 0l0 23.5l-18.5 0l0 -23.5l4.75 0l0 -3.8l-14.35 0l0 -3.8l14.35 0l0 -5.55l3.8 0q1.6 0.2 0.2 1.2l0 4.35l12.95 0l0 3.8l-12.95 0M28.25 -25.1l0 3.6l11.75 0l0 -3.6l-11.75 0M28.25 -18.3l0 3.4l11.75 0l0 -3.4l-11.75 0M28.25 -11.75l0 3.8l11.75 0l0 -3.8l-11.75 0M16.7 4.2l0 -31.85l3.8 0q1.6 0.2 0.2 1.2l0 25.1l27.5 0l0 3.75l-27.5 0l0 1.8l-4 0" />
</g>
<g id="PathID_2094" transform="matrix(0.745098, 0, 0, 0.745098, 100.85, 34.5)">
<path style="fill:#000000;fill-opacity:1" d="M27.45 -28.05q-3.35 19.9 -8.15 24.7q-2.6 2.6 -5.4 2.6q-3.15 0 -4.95 -1.8q-4.8 -4.8 -4.8 -11.95q0 -8.8 6.2 -14.95q6.75 -6.8 16.5 -6.8q8.8 0 13.75 5q5.6 5.6 5.6 13.15q0 8.15 -5.2 13.35q-3.35 3.4 -10.35 6.55l-4.2 -4.15q7 -2.2 11 -6.2q3.75 -3.8 3.75 -9.15q0 -6.4 -4.15 -10.55q-4.2 -4.2 -13.15 -3.8l3.55 1.8q2.4 1 0 2.2M22.9 -31.85q-5.2 1.2 -9 5q-5.15 5.15 -5.15 12.75q0 4.55 3 7.55q0.6 0.6 1.75 0.6q1.2 0 2.6 -1.4q4.6 -4.6 6.8 -24.5" />
</g>
<g id="PathID_2095" transform="matrix(0.745098, 0, 0, 0.745098, 138.85, 34.5)">
<path style="fill:#000000;fill-opacity:1" d="M13.1 -39.8l4.2 0q2.2 0.4 0.4 1.55l0.4 9.6q0.2 4.15 1.4 6.75q5.6 -2.4 14.95 -4.95l2 5.15q-18.95 3.4 -25.3 9.75q-2.2 2.2 -2.2 4.6q0 1.8 1.4 3.2q1.4 1.4 5.75 1.4l19.15 0l0 4.35l-19.35 0q-6.55 0 -9.15 -2.55q-2.6 -2.6 -2.6 -6q0 -4.4 3.2 -7.55q2.4 -2.4 7.95 -5.6q-1.2 -3 -1.4 -6.55l-0.8 -13.15" />
</g>
<g id="PathID_2096" transform="matrix(0.745098, 0, 0, 0.745098, 167.9, 34.5)">
<path style="fill:#000000;fill-opacity:1" d="M27.45 -18.5q0 -13.55 -0.8 -20.9l4 0q2.2 0.2 0.4 1.55q0.6 6.4 0.6 19.55q0 14.95 -14.15 22.5l-3.4 -3.4q13.35 -6.35 13.35 -19.3M13.9 -11.95q-1.75 1.4 -3.95 1.4q-1.4 0 -2.6 -1.2q-1.4 -1.35 -1.4 -11.95q0 -7.95 0.8 -14.55l4.4 0q1.6 0.6 0 1.4q-1 4.8 -1 13.15q0 8.6 0.8 8.6q0.6 0 1.6 -0.8q1.35 -1.2 4.55 -5.4l3 3q-3.4 4.2 -6.2 6.35" />
</g>
<g id="PathID_2097" transform="matrix(0.745098, 0, 0, 0.745098, 196.25, 34.5)">
<path style="fill:#000000;fill-opacity:1" d="M23.9 -21.7l18.5 0l-2 17.95q-0.8 7.15 -5.75 7.15l-8 0l-1 -4.35l8.6 0q1.4 0 1.8 -3l1.6 -13.95l-14.35 0q-2.6 12.75 -17.15 21.9l-2.8 -4.15q15.55 -8 16.55 -24.95l0.2 -3.55l-16.75 0l0 -4.4l19.55 0l0 -7.95l4.35 0q2 0.4 0.2 1.6l0 6.35l20.15 0l0 4.4l-22.9 0l-0.8 6.95" />
</g>
</svg>
