<?xml version="1.0" encoding="utf-8"?>
<svg version="1.1" id="Layer_1"
xmlns="http://www.w3.org/2000/svg"
xmlns:xlink="http://www.w3.org/1999/xlink"
xmlns:author="http://www.sothink.com"
width="57px" height="45px"
xml:space="preserve">
<g id="PathID_2090" transform="matrix(0.784314, 0, 0, 0.784314, 2, 36.25)">
<path style="fill:#000000;fill-opacity:1" d="M37.05 -7.35q2.55 4.8 4.55 4.8q0.8 0 1 -1.2l0.4 -3.4l4.4 2l-0.8 4.8q-0.6 3.35 -3.6 3.35q-5.95 0 -10.15 -8.15q-4 -7.75 -4.2 -21.9l-24.5 0l0 -4.4l24.3 0l0 -9.15l4.4 0q2 0.4 0.2 1.6l0 7.55l13.95 0l0 4.4l-13.95 0q0.8 13.95 4 19.7M29.25 -3.75q-11.15 2.4 -22.5 4.35q-0.4 1.8 -1.4 0.4l-1 -4.95q5 -0.4 9.75 -1.2l0 -11.35l-7.95 0l0 -3.8l19.7 0l0 3.8l-7.75 0l0 10.75q4.6 -0.6 10.55 -1.8l0.6 3.8M38.4 -39.6q2.8 1.35 5.4 3.75l-3.6 3q-1.95 -2 -5.15 -3.8l3.35 -2.95" />
</g>
</svg>
