<?xml version="1.0" encoding="utf-8"?>
<svg version="1.1" id="Layer_1"
xmlns="http://www.w3.org/2000/svg"
xmlns:xlink="http://www.w3.org/1999/xlink"
xmlns:author="http://www.sothink.com"
width="28px" height="30px"
xml:space="preserve">
<g id="PathID_2085" transform="matrix(0.392157, 0, 0, 0.392157, 2, 19.1)">
<path style="fill:#000000;fill-opacity:1" d="M2.75 -16.9q0 -10.95 4.8 -15.75q2.4 -2.4 5.95 -2.4q3.8 0 6.2 2.4q2.6 2.6 2.6 6.6l-4.6 0q0 -2.8 -1.2 -4q-1.2 -1.2 -3 -1.2q-1.75 0 -2.95 1.2q-3.2 3.2 -3.2 11.15q0.8 -1.4 2 -2.6q1.8 -1.8 4.35 -1.8q3.6 0 6 2.4q3 3 3 8.95q0 6.2 -3.2 9.4q-2.4 2.4 -6.6 2.4q-3.55 0 -6.55 -3q-3.6 -3.6 -3.6 -13.75M13.3 -19.7q-1.95 0 -3.35 1.4q-2.2 2.2 -2.2 5.95q0 4.8 2.4 7.2q1.4 1.4 2.95 1.4q1.8 0 3 -1.2q1.8 -1.8 1.8 -7q0 -4.55 -1.8 -6.35q-1.4 -1.4 -2.8 -1.4" />
</g>
</svg>
