<?xml version="1.0" encoding="utf-8"?>
<svg version="1.1" id="Layer_1"
xmlns="http://www.w3.org/2000/svg"
xmlns:xlink="http://www.w3.org/1999/xlink"
xmlns:author="http://www.sothink.com"
width="101px" height="101px"
xml:space="preserve">
<g id="471" transform="matrix(1, 0, 0, 1, 50.5, 50.5)">
<path style="fill:#FFCCFF;fill-opacity:1" d="M50,0Q50 20.65 35.35 35.35Q20.75 50 0 50Q-20.75 50 -35.35 35.35Q-50 20.65 -50 0Q-50 -20.75 -35.35 -35.4Q-20.75 -50 0 -50Q20.75 -50 35.35 -35.4Q50 -20.75 50 0" />
<path style="fill:none;stroke-width:1;stroke-linecap:round;stroke-linejoin:round;stroke-miterlimit:3;stroke:#FFCCFF;stroke-opacity:1" d="M50,0Q50 20.65 35.35 35.35Q20.75 50 0 50Q-20.75 50 -35.35 35.35Q-50 20.65 -50 0Q-50 -20.75 -35.35 -35.4Q-20.75 -50 0 -50Q20.75 -50 35.35 -35.4Q50 -20.75 50 0z" />
</g>
</svg>
