<?xml version="1.0" encoding="utf-8"?>
<svg version="1.1" id="Layer_1"
xmlns="http://www.w3.org/2000/svg"
xmlns:xlink="http://www.w3.org/1999/xlink"
xmlns:author="http://www.sothink.com"
width="85px" height="237px"
xml:space="preserve">
<g id="467" transform="matrix(1, 0, 0, 1, 19.5, 118.5)">
<path style="fill:none;stroke-width:2;stroke-linecap:round;stroke-linejoin:round;stroke-miterlimit:3;stroke:#000000;stroke-opacity:1" d="M-18.5,-117.5L18.5 -117.5M-18.5,117.5L18.5 117.5" />
<path style="fill:none;stroke-width:2;stroke-linecap:round;stroke-linejoin:round;stroke-miterlimit:3;stroke:#000000;stroke-opacity:1" d="M0,-117.5L0 117.5" />
<path style="fill:none;stroke-width:2;stroke-linecap:round;stroke-linejoin:round;stroke-miterlimit:3;stroke:#000000;stroke-opacity:1" d="M6.2,-111.35L2 -115.65M20.35,-92.5L17.05 -97.45M26.6,-82L23.75 -86.95L23.45 -87.45M31.95,-71.2L29.35 -76.65M36.55,-60.15L34.35 -65.7M43.35,-37.3L41.95 -43.05M45.55,-25.6L44.55 -31.45M46.95,-13.75L46.35 -19.7M40.35,-48.8L38.55 -54.55M13.65,-102.25L10.05 -106.9M47.3,10.15L47.5 4.15M46.25,22.15L46.85 16.15M44.4,34L45.4 28.15M41.75,45.6L43.15 39.85M38.25,57L40.15 51.35M33.85,68.15L36.15 62.6M28.65,78.95L31.35 73.6M22.55,89.6L23.8 87.5L25.75 84.2M8.5,108.95L12.35 104.35M0,117.5L4.4 113.35M15.95,99.55L19.35 94.65M47.55,-1.85L47.35 -7.8" />
<path style="fill:#FFFFFF;fill-opacity:1" d="M25.5,-20.8L65.5 -20.8L65.5 19.2L25.5 19.2L25.5 -20.8" />
</g>
</svg>
