<?xml version="1.0" encoding="utf-8"?>
<svg version="1.1" id="Layer_1"
xmlns="http://www.w3.org/2000/svg"
xmlns:xlink="http://www.w3.org/1999/xlink"
xmlns:author="http://www.sothink.com"
width="309px" height="92px"
xml:space="preserve">
<g id="PathID_1783" transform="matrix(0.352941, 0, 0, 0.352941, 2, 17.4)">
<path style="fill:#FF0000;fill-opacity:1" d="M27.05 -6.75q3.6 -2.4 5.6 -5l-9.95 0q1.4 2.8 4.35 5M23.5 -14.9l11.15 0l0.6 -1l3.35 2.4q1 0.75 -0.35 0.95q-3 4.2 -8 8q5.6 3.2 17.55 4.2l-1.4 4.35q-12.15 -1 -19.55 -5.95q-10.95 5.95 -20.9 6.95l-1.6 -4.2q10.75 -0.95 19.35 -5.55q-1.6 -1.6 -3.8 -4.8q-6.2 5.6 -11.55 7l-2 -3.4q10.15 -3.4 15.15 -12.35l3.2 1.2q0.95 0.6 -0.4 0.8l-0.8 1.4M32.25 -20.9q0 3.4 -3 3.4l-2.8 0l-0.95 -3.8l2.15 0q0.6 0 0.6 -0.6l0 -9.75l-4.95 0l0 4.2q0 11.35 -13.75 14.7l-1.8 -3.75q11.55 -2.6 11.55 -10.95l0 -4.2l-15.15 0l0 -3.8l19.15 0l0 -5.95l4.35 0q2 0.4 0.2 1.6l0 4.35l19.15 0l0 3.8l-14.75 0l0 10.75M4.75 -22.9q5 -2.6 8.15 -6.75l3.6 2.8q0.6 0.8 -0.8 0.8q-2.95 4.15 -8.55 6.95l-2.4 -3.8M36.85 -29.45q5.95 3.2 9.55 6.95l-3.4 4q-4.6 -4.6 -8.95 -7.35l2.8 -3.6" />
</g>
<g id="PathID_1784" transform="matrix(0.352941, 0, 0, 0.352941, 20, 17.4)">
<path style="fill:#FF0000;fill-opacity:1" d="M47.2 4.8q-15.75 -1.4 -24.7 -6.35q-5 4.15 -17.75 6.55l-1.4 -4.2q11.75 -1.95 15.55 -4.95q-2.6 -2.2 -5.2 -5.6l3.6 -1.4q1.6 2 4.4 4.2q1.6 -2.6 1.8 -5.8l-10.4 0l0 1.6l-3.95 0l0 -20.3l14.55 0l0 -4.2l-20.15 0l0 -3.75l43.05 0l0 3.75l-18.95 0l0 4.2l14.75 0l0 21.1l-4 0l0 -2.4l-10.95 0q-0.2 4 -2.35 7.8q6.75 4 22.7 5.35l-0.6 4.4M13.1 -28.25l0 4.55l10.6 0l0 -4.55l-10.6 0M27.65 -28.25l0 4.55l10.75 0l0 -4.55l-10.75 0M27.65 -15.9l10.75 0l0 -4.6l-10.75 0l0 4.6M23.7 -15.9l0 -4.6l-10.6 0l0 4.6l10.6 0" />
</g>
<g id="PathID_1785" transform="matrix(0.352941, 0, 0, 0.352941, 38, 17.4)">
<path style="fill:#FF0000;fill-opacity:1" d="M37.05 -7.15q-8.6 9.35 -18.55 9.35q-7.15 0 -10.55 -3.35q-2.6 -2.6 -2.6 -10l0 -26.7l4.2 0q1.8 0.4 0.4 1.6l0 25.1q0 5 1.8 6.8q2.15 2.2 6.55 2.2q7.75 0 15.75 -8.8l3 3.8" />
</g>
<g id="PathID_1786" transform="matrix(0.352941, 0, 0, 0.352941, 51.75, 17.4)">
<path style="fill:#FF0000;fill-opacity:1" d="M43.6 -2.55l0 4.35l-8.75 0q-7.6 0 -14.35 -3.55l1.8 -3.6q5.15 2.8 12.55 2.8l8.75 0M16.1 -25.85q-3 17.7 -7.35 28.05l-4.4 -1.4q5.4 -12.55 7.6 -26.3q-4.8 0.4 -8.6 0.4l-0.8 -3.95q5.6 0 10 -0.4q0.75 -6.2 1.35 -10.75l4 0.8q2.2 0.6 0.4 1.55q-0.6 2.4 -1.6 8q4.6 -0.6 8.4 -1.6l0.75 4q-5.15 1 -9.75 1.6M42.6 -19.1q-11.55 0.4 -18.1 3.2l-1.2 -4q8.55 -3.4 18.5 -3.4l0.8 4.2" />
</g>
<g id="PathID_1787" transform="matrix(0.352941, 0, 0, 0.352941, 68.3, 17.4)">
<path style="fill:#FF0000;fill-opacity:1" d="M22.3 -9.95q-1.8 4.6 -3.8 7q-2.8 3.35 -5.6 3.35q-4.95 0 -7.35 -5.75q-1.4 -3.4 -1.4 -14.55q0 -7.95 0.8 -16.15l4.2 1q2.4 0.6 0.2 2q-0.8 7.4 -0.8 13.35q0 8.15 1 11.55q1 3.4 3 3.4q2.15 0 3.75 -3.2q1 -2 2 -4.8l4 2.8M34.05 -33.25q8.95 9.35 10.95 22.7l-5.4 1.4q-2.35 -13.95 -9.75 -21.7l4.2 -2.4" />
</g>
<g id="PathID_1788" transform="matrix(0.352941, 0, 0, 0.352941, 85.3, 17.4)">
<path style="fill:#FF0000;fill-opacity:1" d="M29.85 -0.75q-6.35 3.95 -11.95 5.55l-2 -4q6 -1.55 12.75 -5.55l2.2 3q1 1.2 -1 1M46.2 4.2q-6.2 -2.2 -10.35 -6.15l2.75 -2.8q4.2 3.2 9.8 5.15l-2.2 3.8M34.65 -30.85l9.95 0l0 25.9l-21.9 0l0 -25.9l8.35 0l0.6 -4.8l-11.15 0l0 -3.75l26.7 0l0 3.75l-11.35 0l-1.2 4.8M20.1 -30.85l-6.6 0l0 19.3l6.4 -1.75l0.8 3.75l-14.95 4.8q-0.4 2 -1.4 0.2l-1.6 -4.4l6.8 -1.6l0 -20.3l-6 0l0 -3.8l16.55 0l0 3.8M40.6 -23.5l0 -3.55l-13.95 0l0 3.55l13.95 0M40.6 -19.7l-13.95 0l0 3.6l13.95 0l0 -3.6M40.6 -12.35l-13.95 0l0 3.6l13.95 0l0 -3.6" />
</g>
<g id="PathID_1789" transform="matrix(0.352941, 0, 0, 0.352941, 103.3, 17.4)">
<path style="fill:#FF0000;fill-opacity:1" d="M40.4 3.4l-3.95 0l0 -2.4l-22.55 0l0 3.2l-3.95 0l0 -42.8l30.45 0l0 42M36.45 -27.05l0 -7.8l-22.55 0l0 7.8l22.55 0M36.45 -15.3l0 -8l-22.55 0l0 8l22.55 0M36.45 -2.75l0 -8.8l-22.55 0l0 8.8l22.55 0" />
</g>
<g id="PathID_1790" transform="matrix(0.352941, 0, 0, 0.352941, 121.3, 17.4)">
<path style="fill:#FF0000;fill-opacity:1" d="M15.7 -23.1q2.4 -0.8 4.6 -0.8q2.6 0 4.2 1.6q1.15 1.2 1.35 4.4q6 -2.2 13.55 -4.6l1.4 4.8q-7.75 1.2 -14.55 3.8l0 8.75l-3.95 0l0 -7.2q-6 2.8 -7.8 4.6q-2.15 2.2 -2.15 4.4q0 1.2 1.15 2.4q1.4 1.35 5.4 1.35l16.75 0l0 3.8l-16.95 0q-6.35 0 -8.95 -2.6q-2 -1.95 -2 -4.95q0 -3.2 2.6 -5.8q3.95 -3.95 11.75 -7.15q-0.2 -2.4 -1 -3.2q-0.8 -0.8 -3.4 -0.8q-4 0 -12.15 7.2l-3.4 -3.4q9.4 -5.8 12.75 -12.75q-5.55 0.4 -11.15 0.8l-0.8 -4q7.2 -0.2 13.55 -0.6q1 -2.4 2.4 -7.95l3.8 1q2 0.8 0 1.6q-0.8 2.55 -1.8 5.15q7.15 -0.6 13.75 -1.6l0.6 4.2q-7.8 0.6 -15.55 1.2q-2 3.95 -4 6.35" />
</g>
<g id="PathID_1791" transform="matrix(0.352941, 0, 0, 0.352941, 136.7, 17.4)">
<path style="fill:#FF0000;fill-opacity:1" d="M37.05 -27.25q-3.8 21.7 -24.9 31.05l-3.6 -3.8q19.5 -7.95 23.5 -27.45l-15.95 0q-4.55 7.55 -9.55 12.15l-4 -2.6q10.35 -9.35 13.35 -21.9l4.6 1.55q1.2 0.6 -0.4 1.2q-0.8 2.6 -2.2 5.2l14.35 0l1.8 -1l3.6 3.6q1.35 1.4 -0.6 2" />
</g>
<g id="PathID_1792" transform="matrix(0.352941, 0, 0, 0.352941, 151.15, 17.4)">
<path style="fill:#FF0000;fill-opacity:1" d="M30.85 -17.5q0 14.95 -13.95 21.5l-4 -3.4q13.15 -5.95 13.35 -18.3l0 -19.95l4.2 0q2 0.4 0.4 1.6l0 18.55M10.35 -13.1l-4.6 0l0 -22.55l4.4 0q2 0.2 0.2 1.6l0 20.95" />
</g>
<g id="PathID_1793" transform="matrix(0.352941, 0, 0, 0.352941, 164.55, 17.4)">
<path style="fill:#FF0000;fill-opacity:1" d="M34.25 -24.3q-1.4 12.95 -7.2 18.75q-5.75 5.75 -15.1 9.15l-2.6 -3.75q9.15 -3 14.35 -8.2q5.55 -5.55 6.35 -18.9l4.2 1.4q1.8 0.55 0 1.55M17.3 -17.1q-2.4 -5.4 -4.75 -8.95l3.75 -2q3 3.75 5.2 8.95l-4.2 2M7.15 -14.1q-2.4 -5.6 -5 -9.4l4 -2q2.8 3.8 5 9.2l-4 2.2" />
</g>
<g id="PathID_1794" transform="matrix(0.352941, 0, 0, 0.352941, 177.75, 17.4)">
<path style="fill:#FF0000;fill-opacity:1" d="M37.05 -27.25q-3.8 21.7 -24.9 31.05l-3.6 -3.8q19.5 -7.95 23.5 -27.45l-15.95 0q-4.55 7.55 -9.55 12.15l-4 -2.6q10.35 -9.35 13.35 -21.9l4.6 1.55q1.2 0.6 -0.4 1.2q-0.8 2.6 -2.2 5.2l14.35 0l1.8 -1l3.6 3.6q1.35 1.4 -0.6 2" />
</g>
<g id="PathID_1795" transform="matrix(0.352941, 0, 0, 0.352941, 192.2, 17.4)">
<path style="fill:#FF0000;fill-opacity:1" d="M37.05 -7.15q-8.6 9.35 -18.55 9.35q-7.15 0 -10.55 -3.35q-2.6 -2.6 -2.6 -10l0 -26.7l4.2 0q1.8 0.4 0.4 1.6l0 25.1q0 5 1.8 6.8q2.15 2.2 6.55 2.2q7.75 0 15.75 -8.8l3 3.8" />
</g>
<g id="PathID_1796" transform="matrix(0.352941, 0, 0, 0.352941, 205.95, 17.4)">
<path style="fill:#FF0000;fill-opacity:1" d="M43 -31.25q-6.95 0 -10.95 1.4q-4.4 1.6 -8.15 5.35q-3.8 3.8 -3.8 9.8q0 4.75 3 7.75q3.95 4 15.3 4.4l-1.55 4.35q-11.75 -0.6 -16.35 -5.15q-4.6 -4.6 -4.6 -11.15q0 -9.4 7.4 -14.75q-9.4 1.4 -19.15 2.8l-1.2 -4.6q19.55 -1.4 39.25 -4.8l0.8 4.6" />
</g>
<g id="PathID_1797" transform="matrix(0.352941, 0, 0, 0.352941, 222.15, 17.4)">
<path style="fill:#FF0000;fill-opacity:1" d="M3.35 0q5.8 -8.95 10.15 -23.3q-4.35 0.6 -8.55 1l-0.4 -4.35q3.6 0 9.95 -0.6q1.8 -6.2 3 -12.55l4.2 1.4q2.4 0.95 -0.2 1.75q-1.2 4.2 -2.4 9q2.4 -0.4 5 -0.4q2.75 0 4.15 1.4q2.4 2.35 2.4 10.75q0 11.55 -3.4 14.95q-1.95 1.95 -4.55 1.95q-3.8 0 -7.6 -4.35l2.6 -3.6q3.2 3.2 4.8 3.2q1 0 1.8 -0.8q2.15 -2.2 2.15 -12.15q0 -5.6 -1.15 -6.8q-0.6 -0.6 -2.4 -0.6q-1.8 0 -5 0.4q-4.2 14.75 -9.95 25.3l-4.6 -1.6M43.4 -9.95q-3.6 -12.95 -10.35 -19.3l3.6 -2.6q8.15 8.35 11.15 20.1l-4.4 1.8" />
</g>
<g id="PathID_1798" transform="matrix(0.352941, 0, 0, 0.352941, 240.15, 17.4)">
<path style="fill:#FF0000;fill-opacity:1" d="M13.1 -1.75l4.8 0q9.95 0 12.55 -2.6q2.2 -2.2 2.2 -5q0 -2.4 -2 -4.35q-1.8 -1.8 -5.95 -1.8q-8.8 0 -15.95 8.55l-4 -0.4l2.2 -21.3l4.2 0.8q1.95 0.8 0 1.6l-1.4 12.95q6.95 -6 15.9 -6q5.4 0 8.6 3.2q2.6 2.6 2.6 6.75q0 4.6 -3.4 8q-4 3.95 -15.15 3.95l-3.6 0l-1.6 -4.35M10.75 -39.8q5.55 1.4 15.1 4.75l-1.95 4q-7.2 -3 -14.95 -5.2l1.8 -3.55" />
</g>
<g id="PathID_1799" transform="matrix(0.352941, 0, 0, 0.352941, 254.6, 17.4)">
<path style="fill:#FF0000;fill-opacity:1" d="M14.9 4.8q-4.75 -5.35 -9.95 -8.75l3 -4q6.35 3.8 10.55 8.55l-3.6 4.2" />
</g>
<g id="PathID_1800" transform="matrix(0.352941, 0, 0, 0.352941, 266.5, 17.4)">
<path style="fill:#FF0000;fill-opacity:1" d="M18.9 -21.5l0 -1l-9.75 0l0 27.1l-4 0l0 -44.4l17.75 0l0 18.3l-4 0M18.9 -32.85l0 -3.8l-9.75 0l0 3.8l9.75 0M18.9 -25.65l0 -4l-9.75 0l0 4l9.75 0M19.5 -2.75l0 2.75l-3.4 0l0 -17.7l18.95 0l0 16.55l-3.4 0l0 -1.6l-12.15 0M31.65 -5.95l0 -8.55l-12.15 0l0 8.55l12.15 0M38.4 4l-0.95 -3.8l3.95 0q0.6 0 0.6 -0.55l0 -22.15l-10.15 0l0 1.2l-4 0l0 -18.5l18.15 0l0 40.4q0 3.4 -3.2 3.4l-4.4 0M42 -36.65l-10.15 0l0 3.8l10.15 0l0 -3.8M42 -25.65l0 -4l-10.15 0l0 4l10.15 0" />
</g>
<g id="PathID_1801" transform="matrix(0.352941, 0, 0, 0.352941, 284.5, 17.4)">
<path style="fill:#FF0000;fill-opacity:1" d="M10.15 -13.5q-0.2 2.95 -0.4 5.55q2.2 2.8 3.75 4.2l0 -14.15l-10.35 0l0 -3.8l22.15 0l0 3.8l-8.4 0l0 5.35l6.8 0l0 3.8l-6.8 0l0 7q2.8 1.75 6.4 1.75l25.1 0l-1 3.8l-24.1 0q-8 0 -14.15 -7.55q-1.6 5.35 -3.4 7.95l-3.2 -3q4 -5.95 4 -16.5l4 0.6q0.6 0.6 -0.4 1.2M22.9 -4.35q4.95 -1.2 8.95 -3.6l-4.2 0l0 -24.1l5.6 0l1 -4l-8.4 0l0 -3.75l21.15 0l0 3.75l-8.4 0l-1.75 4l8.75 0l0 24.1l-5 0q2.6 1.6 7.6 3.2l-1.6 3.6q-5 -1.4 -8.55 -4.2l2.15 -2.6l-7.75 0l2.2 2.8q0.8 1.2 -1.2 0.8q-3.8 2 -8.95 3.4l-1.6 -3.4M6.35 -24.3l0 -15.5l16.35 0l0 15.5l-16.35 0M19.3 -30.45l-9.55 0l0 3l9.55 0l0 -3M42.2 -28.85l-11.15 0l0 3.75l11.15 0l0 -3.75M42.2 -21.9l-11.15 0l0 3.8l11.15 0l0 -3.8M42.2 -14.9l-11.15 0l0 3.75l11.15 0l0 -3.75M19.3 -36.65l-9.55 0l0 3l9.55 0l0 -3" />
</g>
<g id="PathID_1802" transform="matrix(0.352941, 0, 0, 0.352941, 2, 35.3)">
<path style="fill:#FF0000;fill-opacity:1" d="M37.05 -7.35q2.55 4.8 4.55 4.8q0.8 0 1 -1.2l0.4 -3.4l4.4 2l-0.8 4.8q-0.6 3.35 -3.6 3.35q-5.95 0 -10.15 -8.15q-4 -7.75 -4.2 -21.9l-24.5 0l0 -4.4l24.3 0l0 -9.15l4.4 0q2 0.4 0.2 1.6l0 7.55l13.95 0l0 4.4l-13.95 0q0.8 13.95 4 19.7M29.25 -3.75q-11.15 2.4 -22.5 4.35q-0.4 1.8 -1.4 0.4l-1 -4.95q5 -0.4 9.75 -1.2l0 -11.35l-7.95 0l0 -3.8l19.7 0l0 3.8l-7.75 0l0 10.75q4.6 -0.6 10.55 -1.8l0.6 3.8M38.4 -39.6q2.8 1.35 5.4 3.75l-3.6 3q-1.95 -2 -5.15 -3.8l3.35 -2.95" />
</g>
<g id="PathID_1803" transform="matrix(0.352941, 0, 0, 0.352941, 20, 35.3)">
<path style="fill:#FF0000;fill-opacity:1" d="M15.7 -23.1q2.4 -0.8 4.6 -0.8q2.6 0 4.2 1.6q1.15 1.2 1.35 4.4q6 -2.2 13.55 -4.6l1.4 4.8q-7.75 1.2 -14.55 3.8l0 8.75l-3.95 0l0 -7.2q-6 2.8 -7.8 4.6q-2.15 2.2 -2.15 4.4q0 1.2 1.15 2.4q1.4 1.35 5.4 1.35l16.75 0l0 3.8l-16.95 0q-6.35 0 -8.95 -2.6q-2 -1.95 -2 -4.95q0 -3.2 2.6 -5.8q3.95 -3.95 11.75 -7.15q-0.2 -2.4 -1 -3.2q-0.8 -0.8 -3.4 -0.8q-4 0 -12.15 7.2l-3.4 -3.4q9.4 -5.8 12.75 -12.75q-5.55 0.4 -11.15 0.8l-0.8 -4q7.2 -0.2 13.55 -0.6q1 -2.4 2.4 -7.95l3.8 1q2 0.8 0 1.6q-0.8 2.55 -1.8 5.15q7.15 -0.6 13.75 -1.6l0.6 4.2q-7.8 0.6 -15.55 1.2q-2 3.95 -4 6.35" />
</g>
<g id="PathID_1804" transform="matrix(0.352941, 0, 0, 0.352941, 35.4, 35.3)">
<path style="fill:#FF0000;fill-opacity:1" d="M37.05 -27.25q-3.8 21.7 -24.9 31.05l-3.6 -3.8q19.5 -7.95 23.5 -27.45l-15.95 0q-4.55 7.55 -9.55 12.15l-4 -2.6q10.35 -9.35 13.35 -21.9l4.6 1.55q1.2 0.6 -0.4 1.2q-0.8 2.6 -2.2 5.2l14.35 0l1.8 -1l3.6 3.6q1.35 1.4 -0.6 2" />
</g>
<g id="PathID_1805" transform="matrix(0.352941, 0, 0, 0.352941, 49.85, 35.3)">
<path style="fill:#FF0000;fill-opacity:1" d="M30.85 -17.5q0 14.95 -13.95 21.5l-4 -3.4q13.15 -5.95 13.35 -18.3l0 -19.95l4.2 0q2 0.4 0.4 1.6l0 18.55M10.35 -13.1l-4.6 0l0 -22.55l4.4 0q2 0.2 0.2 1.6l0 20.95" />
</g>
<g id="PathID_1806" transform="matrix(0.352941, 0, 0, 0.352941, 63.25, 35.3)">
<path style="fill:#FF0000;fill-opacity:1" d="M34.25 -24.3q-1.4 12.95 -7.2 18.75q-5.75 5.75 -15.1 9.15l-2.6 -3.75q9.15 -3 14.35 -8.2q5.55 -5.55 6.35 -18.9l4.2 1.4q1.8 0.55 0 1.55M17.3 -17.1q-2.4 -5.4 -4.75 -8.95l3.75 -2q3 3.75 5.2 8.95l-4.2 2M7.15 -14.1q-2.4 -5.6 -5 -9.4l4 -2q2.8 3.8 5 9.2l-4 2.2" />
</g>
<g id="PathID_1807" transform="matrix(0.352941, 0, 0, 0.352941, 76.45, 35.3)">
<path style="fill:#FF0000;fill-opacity:1" d="M37.05 -27.25q-3.8 21.7 -24.9 31.05l-3.6 -3.8q19.5 -7.95 23.5 -27.45l-15.95 0q-4.55 7.55 -9.55 12.15l-4 -2.6q10.35 -9.35 13.35 -21.9l4.6 1.55q1.2 0.6 -0.4 1.2q-0.8 2.6 -2.2 5.2l14.35 0l1.8 -1l3.6 3.6q1.35 1.4 -0.6 2" />
</g>
<g id="PathID_1808" transform="matrix(0.352941, 0, 0, 0.352941, 90.9, 35.3)">
<path style="fill:#FF0000;fill-opacity:1" d="M37.05 -7.15q-8.6 9.35 -18.55 9.35q-7.15 0 -10.55 -3.35q-2.6 -2.6 -2.6 -10l0 -26.7l4.2 0q1.8 0.4 0.4 1.6l0 25.1q0 5 1.8 6.8q2.15 2.2 6.55 2.2q7.75 0 15.75 -8.8l3 3.8" />
</g>
<g id="PathID_1809" transform="matrix(0.352941, 0, 0, 0.352941, 104.65, 35.3)">
<path style="fill:#FF0000;fill-opacity:1" d="M43 -31.25q-6.95 0 -10.95 1.4q-4.4 1.6 -8.15 5.35q-3.8 3.8 -3.8 9.8q0 4.75 3 7.75q3.95 4 15.3 4.4l-1.55 4.35q-11.75 -0.6 -16.35 -5.15q-4.6 -4.6 -4.6 -11.15q0 -9.4 7.4 -14.75q-9.4 1.4 -19.15 2.8l-1.2 -4.6q19.55 -1.4 39.25 -4.8l0.8 4.6" />
</g>
<g id="PathID_1810" transform="matrix(0.352941, 0, 0, 0.352941, 120.85, 35.3)">
<path style="fill:#FF0000;fill-opacity:1" d="M28.85 -25.85q9 4.95 14.75 10.75l-3.2 3.55q-5.75 -5.75 -13.95 -10.95l2.4 -3.35M21.7 3l0 -35.05l-17.95 0l0 -4.4l42.85 0l0 4.4l-20.35 0l0 35.05l-4.55 0" />
</g>
<g id="PathID_1811" transform="matrix(0.352941, 0, 0, 0.352941, 138.85, 35.3)">
<path style="fill:#FF0000;fill-opacity:1" d="M20.1 -26.45q-8.15 0.6 -16.15 0.6l-1.2 -4q9.8 0 15.75 -0.4q-2 -5.6 -2.8 -10.35l4.4 0q1.8 0.4 0.4 1.6q0.8 3.75 2.4 8.35q6.95 -0.6 11.95 -1.8l1 4.4q-5.8 0.8 -11.35 1.2q3.95 7.55 12.15 13.15l-3 3.55q-7.4 -3.35 -14.55 -3.35q-6.55 0 -9.15 2.55q-1.2 1.2 -1.2 3.4q0 2 1.8 3.8q2.75 2.8 13.15 2.8l6.95 0l-1 4.35l-7.55 0q-10.35 0 -14.55 -4.15q-3 -3 -3 -6.8q0 -3.8 2.2 -5.95q3.6 -3.6 11.15 -3.6q7.6 0 8.75 0.8q-4.75 -6 -6.55 -10.15" />
</g>
<g id="PathID_1812" transform="matrix(0.352941, 0, 0, 0.352941, 152.6, 35.3)">
<path style="fill:#FF0000;fill-opacity:1" d="M22.3 -9.95q-1.8 4.6 -3.8 7q-2.8 3.35 -5.6 3.35q-4.95 0 -7.35 -5.75q-1.4 -3.4 -1.4 -14.55q0 -7.95 0.8 -16.15l4.2 1q2.4 0.6 0.2 2q-0.8 7.4 -0.8 13.35q0 8.15 1 11.55q1 3.4 3 3.4q2.15 0 3.75 -3.2q1 -2 2 -4.8l4 2.8M34.05 -33.25q8.95 9.35 10.95 22.7l-5.4 1.4q-2.35 -13.95 -9.75 -21.7l4.2 -2.4" />
</g>
<g id="PathID_1813" transform="matrix(0.352941, 0, 0, 0.352941, 169.6, 35.3)">
<path style="fill:#FF0000;fill-opacity:1" d="M16.9 -7.55q2 2 2 5q0 2.95 -2 4.95q-2 2 -4.95 2q-3 0 -5 -2q-2 -2 -2 -4.95q0 -3 2 -5q2 -2 5 -2q2.95 0 4.95 2M15.1 0.6q1.4 -1.35 1.4 -3.15q0 -1.8 -1.4 -3.2q-1.4 -1.4 -3.15 -1.4q-1.8 0 -3.2 1.4q-1.4 1.4 -1.4 3.2q0 1.8 1.4 3.15q1.4 1.4 3.2 1.4q1.75 0 3.15 -1.4" />
</g>
<g id="PathID_1814" transform="matrix(0.352941, 0, 0, 0.352941, 2, 53.2)">
<path style="fill:#FF0000;fill-opacity:1" d="M23.3 -17.9l-18.15 -18.15l2.4 -2.35l0.6 0.55l16.95 16.95l0.55 0.6l0.6 -0.6l16.75 -16.75l0.8 -0.75l2.4 2.35l-0.8 0.8l-16.75 16.75l-0.6 0.6l17.35 17.35l0.8 0.75l-2.4 2.4l-1.6 -1.6l-15.95 -15.9l-0.6 -0.6l-1.15 1.2l-16.95 16.9l-2.4 -2.4l0.6 -0.55l16.95 -16.95l0.6 -0.6M21.9 -30.65l0 -7.2l7.15 0l0 7.2l-7.15 0M38.25 -14.3l0 -7.2l7.15 0l0 7.2l-7.15 0M21.9 2l0 -7.15l7.15 0l0 7.15l-7.15 0M4.75 -14.3l0 -7.2l7.2 0l0 7.2l-7.2 0" />
</g>
<g id="PathID_1815" transform="matrix(0.352941, 0, 0, 0.352941, 20, 53.2)">
<path style="fill:#FF0000;fill-opacity:1" d="M29.85 -0.75q-6.35 3.95 -11.95 5.55l-2 -4q6 -1.55 12.75 -5.55l2.2 3q1 1.2 -1 1M46.2 4.2q-6.2 -2.2 -10.35 -6.15l2.75 -2.8q4.2 3.2 9.8 5.15l-2.2 3.8M34.65 -30.85l9.95 0l0 25.9l-21.9 0l0 -25.9l8.35 0l0.6 -4.8l-11.15 0l0 -3.75l26.7 0l0 3.75l-11.35 0l-1.2 4.8M20.1 -30.85l-6.6 0l0 19.3l6.4 -1.75l0.8 3.75l-14.95 4.8q-0.4 2 -1.4 0.2l-1.6 -4.4l6.8 -1.6l0 -20.3l-6 0l0 -3.8l16.55 0l0 3.8M40.6 -23.5l0 -3.55l-13.95 0l0 3.55l13.95 0M40.6 -19.7l-13.95 0l0 3.6l13.95 0l0 -3.6M40.6 -12.35l-13.95 0l0 3.6l13.95 0l0 -3.6" />
</g>
<g id="PathID_1816" transform="matrix(0.352941, 0, 0, 0.352941, 38, 53.2)">
<path style="fill:#FF0000;fill-opacity:1" d="M40.4 3.4l-3.95 0l0 -2.4l-22.55 0l0 3.2l-3.95 0l0 -42.8l30.45 0l0 42M36.45 -27.05l0 -7.8l-22.55 0l0 7.8l22.55 0M36.45 -15.3l0 -8l-22.55 0l0 8l22.55 0M36.45 -2.75l0 -8.8l-22.55 0l0 8.8l22.55 0" />
</g>
<g id="PathID_1817" transform="matrix(0.352941, 0, 0, 0.352941, 56, 53.2)">
<path style="fill:#FF0000;fill-opacity:1" d="M15.7 -23.1q2.4 -0.8 4.6 -0.8q2.6 0 4.2 1.6q1.15 1.2 1.35 4.4q6 -2.2 13.55 -4.6l1.4 4.8q-7.75 1.2 -14.55 3.8l0 8.75l-3.95 0l0 -7.2q-6 2.8 -7.8 4.6q-2.15 2.2 -2.15 4.4q0 1.2 1.15 2.4q1.4 1.35 5.4 1.35l16.75 0l0 3.8l-16.95 0q-6.35 0 -8.95 -2.6q-2 -1.95 -2 -4.95q0 -3.2 2.6 -5.8q3.95 -3.95 11.75 -7.15q-0.2 -2.4 -1 -3.2q-0.8 -0.8 -3.4 -0.8q-4 0 -12.15 7.2l-3.4 -3.4q9.4 -5.8 12.75 -12.75q-5.55 0.4 -11.15 0.8l-0.8 -4q7.2 -0.2 13.55 -0.6q1 -2.4 2.4 -7.95l3.8 1q2 0.8 0 1.6q-0.8 2.55 -1.8 5.15q7.15 -0.6 13.75 -1.6l0.6 4.2q-7.8 0.6 -15.55 1.2q-2 3.95 -4 6.35" />
</g>
<g id="PathID_1818" transform="matrix(0.352941, 0, 0, 0.352941, 71.4, 53.2)">
<path style="fill:#FF0000;fill-opacity:1" d="M46.4 -15.5l-18.55 2l3.8 16.1l-4.4 1l-3.75 -16.5l-20.35 2.35l-0.6 -4.15l19.95 -2.2l-2 -9.35l-13.55 1.55l-0.8 -4.15l13.15 -1.4l-2 -9.15l4.2 -0.8q1.8 -0.2 0.6 1.4l1.6 7.95l14.55 -2l0.75 4.2l-14.1 1.8l1.95 9.35l18.75 -2.2l0.8 4.2" />
</g>
<g id="PathID_1819" transform="matrix(0.352941, 0, 0, 0.352941, 88.65, 53.2)">
<path style="fill:#FF0000;fill-opacity:1" d="M17.9 -21.5l16.35 -4l1 -0.55l3.15 3.15q0.8 0.8 -0.55 1.2q-3.6 5.8 -7.6 11.15l-3.4 -2.2q3.2 -4.15 6 -8.75l-13.75 3.4l6.75 20.1l-3.95 1.4l-6.6 -20.7l-11.55 3.2l-1.4 -4l11.55 -2.6l-3.15 -9.55l4.15 -0.8q1.8 0 0.6 1.4l2.4 8.15" />
</g>
<g id="PathID_1820" transform="matrix(0.352941, 0, 0, 0.352941, 103.1, 53.2)">
<path style="fill:#FF0000;fill-opacity:1" d="M41.4 -23.1q-10.55 21.95 -35.45 23.1q-1 2.6 -2 0.4l-1.6 -5.15q25.9 -0.6 34.9 -21.3l4.15 2.95M13.3 -23.1q-5.35 -4.95 -10.15 -8.15l3.4 -4.2q4.2 2.6 10.55 8.6l-3.8 3.75" />
</g>
<g id="PathID_1821" transform="matrix(0.352941, 0, 0, 0.352941, 118.6, 53.2)">
<path style="fill:#FF0000;fill-opacity:1" d="M42.8 -24.5q-5.95 8.8 -10.15 14.35l-3.8 -2.6q4.4 -5.35 8.2 -11.15l-16.55 3l0 14.75q0 2.8 2.8 2.8l18.3 0l-0.6 4.35l-18.9 0q-6.2 0 -6.2 -6.35l0 -14.75l-11.95 2.4l-1.6 -4.6l13.55 -2.4l0 -13.15l4.2 0q1.8 0.4 0.4 1.6l0 10.95l17.9 -2.95l1.6 -1l3.6 3.6q0.8 0.95 -0.8 1.15" />
</g>
<g id="PathID_1822" transform="matrix(0.352941, 0, 0, 0.352941, 135, 53.2)">
<path style="fill:#FF0000;fill-opacity:1" d="M29.85 -5.75q8.75 -3.4 16.15 -13.55l2.8 3.8q-7.6 10.35 -19.15 14.95l-1.6 0.75l-3.15 -2.35l0.4 -1l0 -32.1l4.15 0q1.8 0.4 0.4 1.6l0 27.9M3.15 -0.35q9.95 -9.6 9.95 -23.75l0 -8.95l4.2 0q1.8 0.4 0.4 1.6l0 7.15q0 16.75 -10.55 26.5l-4 -2.55" />
</g>
<g id="PathID_1823" transform="matrix(0.352941, 0, 0, 0.352941, 153, 53.2)">
<path style="fill:#FF0000;fill-opacity:1" d="M24.5 -10.35q-2.4 1.4 -5 1.4q-3.4 0 -5.2 -1.8q-2.35 -2.35 -2.35 -5.35q0 -3.2 2.35 -5.6q2.4 -2.4 6 -2.4q2.4 0 4.6 0.6l0 -4.35l-21.95 1.4l-0.8 -4.2l22.75 -1l0 -9.35l3.55 0q2.2 0.4 0.4 1.6l0 7.55l16.95 -1.2l0 4.2l-16.95 0.8l0 7.55q0.8 3.6 0.8 7.95q-0.2 10.2 -11.35 17.15l-3.8 -2.8q10 -5.75 10 -12.15M20.7 -20.7q-2.2 0 -3.6 1.4q-1.2 1.2 -1.2 3.2q0 1.8 1 2.8q1 0.95 3.2 0.95q2.2 0 3.6 -1.35q1.2 -1.2 1.2 -3q0 -1.8 -1.2 -3q-1 -1 -3 -1" />
</g>
<g id="PathID_1824" transform="matrix(0.352941, 0, 0, 0.352941, 170.25, 53.2)">
<path style="fill:#FF0000;fill-opacity:1" d="M28.05 -0.95q3.2 -0.4 5.4 -2.6q2.4 -2.4 2.4 -6.4q0 -4.35 -2.6 -6.95q-2.6 -2.6 -8.15 -2.6q-6.6 0 -10.2 2.6q-3.35 2.4 -8.75 8.55l-3.4 -3q14.35 -14.3 21.75 -23.9q-6.6 0.8 -13.15 1.4l-1.4 -4.55q9.75 0 17.3 -1l1.8 -0.8l2.2 2.15q2.2 2 -1 2.6q-5.95 6.8 -11.95 13.35q4.2 -1 7 -1q7.55 0 11.15 3.6q3.55 3.6 3.55 9.15q0 5.8 -3.15 9q-4.8 4.75 -12.15 4.75q-7 0 -10.2 -3.2q-2.55 -2.55 -2.55 -6.15q0 -2.4 1.75 -4.2q2 -2 4.6 -2q3.6 0 6 2.4q2.75 2.8 3.75 8.8M24.1 -0.35q-0.6 -5.2 -2.4 -7q-1.4 -1.4 -2.8 -1.4q-1.6 0 -2.4 0.8q-1 1 -1 2.2q0 1.8 1.6 3.4q2 2 5.2 2q0.8 0 1.8 0" />
</g>
<g id="PathID_1825" transform="matrix(0.352941, 0, 0, 0.352941, 185.75, 53.2)">
<path style="fill:#FF0000;fill-opacity:1" d="M28.45 -2.35q-2.4 -4.2 -3.95 -6l3.35 -2.4q1.6 1.8 4.2 5.8l-3.6 2.6M36.25 0.4q0.8 0 0.8 -0.75l0 -11.8l-16.75 0l0 -3.75l16.75 0l0 -5.2l-18.95 0l0 18.95l-3.4 0l0 -1.6l-6.75 0l0 3.6l-3.4 0l0 -36.7l13.55 0l0 11.95l12.15 0l0 -5.75l-8.55 0l0 -3.8l8.55 0l0 -6.75l3.8 0q1.6 0.2 0.2 1.2l0 5.55l10.15 0l0 3.8l-10.15 0l0 5.75l13.95 0l0 3.8l-7.2 0l0 5.2l6 0l0 3.75l-6 0l0 13.15q0 3.2 -3.15 3.2l-4.2 0l-0.8 -3.8l3.4 0M7.95 -22.9l6.75 0l0 -10.15l-6.75 0l0 10.15M7.95 -7.55l6.75 0l0 -11.55l-6.75 0l0 11.55" />
</g>
<g id="PathID_1826" transform="matrix(0.352941, 0, 0, 0.352941, 203.75, 53.2)">
<path style="fill:#FF0000;fill-opacity:1" d="M36.65 -25.5q0.4 7.6 0 15.15q5.95 2.2 11.55 6.2l-2.4 3.8q-4.2 -3.2 -9.15 -5.6q0 3.6 -2.2 5.8q-2.4 2.35 -7 2.35q-4.55 0 -6.95 -2.35q-2 -2 -2 -5.2q0 -2.8 1.6 -4.4q2.4 -2.4 7.15 -2.4q2.6 0 5.2 0.6q0.4 -6.75 0 -13.75l-14.75 1l0 -4.15l14.35 -0.8q-0.2 -5.6 -0.8 -9.95l4.2 0q2.2 0.4 0.4 1.55q0.2 4.2 0.4 8.2l10.75 -0.6l0 4.2l-10.35 0.35M6.55 1.2q-0.8 -5.55 -0.8 -12.95q0 -16.1 2.4 -25.9l4.4 0.8q1.35 0.6 -0.2 1.4q-2.2 7 -2.2 23.7q0 7.6 1 12.15l-4.6 0.8M32.45 -7.55q-3.4 -1 -5.2 -1q-2.75 0 -3.95 1.2q-1 1 -1 2q0 1.6 0.8 2.4q1.4 1.4 4.15 1.4q2.8 0 4 -1.4q1.4 -1.6 1.2 -4.6" />
</g>
<g id="PathID_1827" transform="matrix(0.352941, 0, 0, 0.352941, 221.75, 53.2)">
<path style="fill:#FF0000;fill-opacity:1" d="M14.9 4.8q-4.75 -5.35 -9.95 -8.75l3 -4q6.35 3.8 10.55 8.55l-3.6 4.2" />
</g>
<g id="PathID_1828" transform="matrix(0.352941, 0, 0, 0.352941, 233.65, 53.2)">
<path style="fill:#FF0000;fill-opacity:1" d="M44.6 -23.5q-1.4 5.2 -5.2 5.2l-7.55 0q-3.8 0 -3.8 -3.8l0 -9.75l-6.35 0l0 2.4q0 8.95 -13.15 13.55l-2 -3.8q11.15 -3.4 11.15 -9.75l0 -2.4l-9.15 0l0 6.75l-4.6 0l0 -10.55l19.15 0l0 -5.55l4.35 0q1.6 0.2 0.2 1.2l0 4.35l19.15 0l0 9.4l-4.6 0l0 -5.6l-10.15 0l0 8.35q0 1.4 1.8 1.4l4.4 0q1.95 0 2.55 -3l3.8 1.6M47.6 -1.15l0 4.35l-44.25 0l0 -4.35l19.95 0l0 -8.6l-15.15 0l0 -4.35l34.25 0l0 4.35l-15.15 0l0 8.6l20.35 0" />
</g>
<g id="PathID_1829" transform="matrix(0.352941, 0, 0, 0.352941, 251.65, 53.2)">
<path style="fill:#FF0000;fill-opacity:1" d="M39.2 -14.3l-27.25 0l0 10.75l27.25 0l0 -10.75M39.2 -28.45l-27.25 0l0 10.35l27.25 0l0 -10.35M43.2 2.8l-4 0l0 -2.6l-27.25 0l0 2.6l-4 0l0 -35.05l12.15 0l2.8 -8.55l4.75 1.2q0.8 0.8 -0.6 1l-2.75 6.35l18.9 0l0 35.05" />
</g>
<g id="PathID_1830" transform="matrix(0.352941, 0, 0, 0.352941, 269.65, 53.2)">
<path style="fill:#FF0000;fill-opacity:1" d="M23.5 -29.85q3.95 -3.8 5.55 -11.55l3.8 0.6q0.8 0.6 -0.4 1.2l-1 3.35l15.55 0l0 3.2l-9.75 0l2.15 3.4l-3.95 1l-2 -4.4l-3.2 0q-1.8 3.4 -3.8 5.6l-2.95 -2.4M40.4 0l0 -23.5l-29.65 0l0 23.5l29.65 0M23.9 -22.7l3.15 0q1.6 0.2 0.2 1.2l0 2l10.8 0l0 3.2l-10.8 0l0 3.55l7.8 0l0 10l-3.4 0l0 -1l-12.15 0l0 1.6l-3.4 0l0 -10.6l7.8 0l0 -3.55l-11 0l0 -3.2l11 0l0 -3.2M19.7 -29.45l-3.8 1.2l-1.8 -4.8l-3.15 0q-3 4.4 -5.6 6.8l-2.6 -2.8q5.8 -5.6 7.4 -12.15l3.75 0.6q0.8 0.4 -0.4 1.2l-1.15 3.15l12.95 0l0 3.2l-7.6 0l2 3.6M40.4 3.8l0 -0.6l-29.65 0l0 1.2l-3.4 0l0 -31.05l36.45 0l0 30.45l-3.4 0M19.5 -6.15l12.15 0l0 -4.2l-12.15 0l0 4.2" />
</g>
<g id="PathID_1831" transform="matrix(0.352941, 0, 0, 0.352941, 287.65, 53.2)">
<path style="fill:#FF0000;fill-opacity:1" d="M30.45 -36.85q8.75 -1.4 13.15 -3.35l2.2 3.75q0.8 1.8 -1.2 0.8q-7.35 1.6 -13.95 2.2l0 8.35l17.55 0l0 3.8l-6.6 0l0 25.1l-3.95 0l0 -25.1l-7 0l0 6.2q0 13.15 -9.55 19.5l-3 -3.6q8.55 -5.15 8.55 -16.3l0 -22.75l3.8 1.4M22.9 -29.65l0 17.3l-4 0l0 -1.95l-8.95 0l0 5.55q0 7.6 -3.2 12.75l-3.6 -2.8q2.8 -3.95 2.8 -10.15l0 -20.7l16.95 0M18.9 -18.1l0 -7.75l-8.95 0l0 7.75l8.95 0M4.35 -35.05l0 -3.75l19.95 0l0 3.75l-19.95 0" />
</g>
<g id="PathID_1832" transform="matrix(0.352941, 0, 0, 0.352941, 2, 71.1)">
<path style="fill:#FF0000;fill-opacity:1" d="M15.7 -23.1q2.4 -0.8 4.6 -0.8q2.6 0 4.2 1.6q1.15 1.2 1.35 4.4q6 -2.2 13.55 -4.6l1.4 4.8q-7.75 1.2 -14.55 3.8l0 8.75l-3.95 0l0 -7.2q-6 2.8 -7.8 4.6q-2.15 2.2 -2.15 4.4q0 1.2 1.15 2.4q1.4 1.35 5.4 1.35l16.75 0l0 3.8l-16.95 0q-6.35 0 -8.95 -2.6q-2 -1.95 -2 -4.95q0 -3.2 2.6 -5.8q3.95 -3.95 11.75 -7.15q-0.2 -2.4 -1 -3.2q-0.8 -0.8 -3.4 -0.8q-4 0 -12.15 7.2l-3.4 -3.4q9.4 -5.8 12.75 -12.75q-5.55 0.4 -11.15 0.8l-0.8 -4q7.2 -0.2 13.55 -0.6q1 -2.4 2.4 -7.95l3.8 1q2 0.8 0 1.6q-0.8 2.55 -1.8 5.15q7.15 -0.6 13.75 -1.6l0.6 4.2q-7.8 0.6 -15.55 1.2q-2 3.95 -4 6.35" />
</g>
<g id="PathID_1833" transform="matrix(0.352941, 0, 0, 0.352941, 17.4, 71.1)">
<path style="fill:#FF0000;fill-opacity:1" d="M37.05 -27.25q-3.8 21.7 -24.9 31.05l-3.6 -3.8q19.5 -7.95 23.5 -27.45l-15.95 0q-4.55 7.55 -9.55 12.15l-4 -2.6q10.35 -9.35 13.35 -21.9l4.6 1.55q1.2 0.6 -0.4 1.2q-0.8 2.6 -2.2 5.2l14.35 0l1.8 -1l3.6 3.6q1.35 1.4 -0.6 2" />
</g>
<g id="PathID_1834" transform="matrix(0.352941, 0, 0, 0.352941, 31.85, 71.1)">
<path style="fill:#FF0000;fill-opacity:1" d="M30.85 -17.5q0 14.95 -13.95 21.5l-4 -3.4q13.15 -5.95 13.35 -18.3l0 -19.95l4.2 0q2 0.4 0.4 1.6l0 18.55M10.35 -13.1l-4.6 0l0 -22.55l4.4 0q2 0.2 0.2 1.6l0 20.95" />
</g>
<g id="PathID_1835" transform="matrix(0.352941, 0, 0, 0.352941, 45.25, 71.1)">
<path style="fill:#FF0000;fill-opacity:1" d="M34.25 -24.3q-1.4 12.95 -7.2 18.75q-5.75 5.75 -15.1 9.15l-2.6 -3.75q9.15 -3 14.35 -8.2q5.55 -5.55 6.35 -18.9l4.2 1.4q1.8 0.55 0 1.55M17.3 -17.1q-2.4 -5.4 -4.75 -8.95l3.75 -2q3 3.75 5.2 8.95l-4.2 2M7.15 -14.1q-2.4 -5.6 -5 -9.4l4 -2q2.8 3.8 5 9.2l-4 2.2" />
</g>
<g id="PathID_1836" transform="matrix(0.352941, 0, 0, 0.352941, 58.45, 71.1)">
<path style="fill:#FF0000;fill-opacity:1" d="M37.05 -27.25q-3.8 21.7 -24.9 31.05l-3.6 -3.8q19.5 -7.95 23.5 -27.45l-15.95 0q-4.55 7.55 -9.55 12.15l-4 -2.6q10.35 -9.35 13.35 -21.9l4.6 1.55q1.2 0.6 -0.4 1.2q-0.8 2.6 -2.2 5.2l14.35 0l1.8 -1l3.6 3.6q1.35 1.4 -0.6 2" />
</g>
<g id="PathID_1837" transform="matrix(0.352941, 0, 0, 0.352941, 72.9, 71.1)">
<path style="fill:#FF0000;fill-opacity:1" d="M37.05 -7.15q-8.6 9.35 -18.55 9.35q-7.15 0 -10.55 -3.35q-2.6 -2.6 -2.6 -10l0 -26.7l4.2 0q1.8 0.4 0.4 1.6l0 25.1q0 5 1.8 6.8q2.15 2.2 6.55 2.2q7.75 0 15.75 -8.8l3 3.8" />
</g>
<g id="PathID_1838" transform="matrix(0.352941, 0, 0, 0.352941, 86.65, 71.1)">
<path style="fill:#FF0000;fill-opacity:1" d="M43 -31.25q-6.95 0 -10.95 1.4q-4.4 1.6 -8.15 5.35q-3.8 3.8 -3.8 9.8q0 4.75 3 7.75q3.95 4 15.3 4.4l-1.55 4.35q-11.75 -0.6 -16.35 -5.15q-4.6 -4.6 -4.6 -11.15q0 -9.4 7.4 -14.75q-9.4 1.4 -19.15 2.8l-1.2 -4.6q19.55 -1.4 39.25 -4.8l0.8 4.6" />
</g>
<g id="PathID_1839" transform="matrix(0.352941, 0, 0, 0.352941, 102.85, 71.1)">
<path style="fill:#FF0000;fill-opacity:1" d="M28.85 -25.85q9 4.95 14.75 10.75l-3.2 3.55q-5.75 -5.75 -13.95 -10.95l2.4 -3.35M21.7 3l0 -35.05l-17.95 0l0 -4.4l42.85 0l0 4.4l-20.35 0l0 35.05l-4.55 0" />
</g>
<g id="PathID_1840" transform="matrix(0.352941, 0, 0, 0.352941, 120.85, 71.1)">
<path style="fill:#FF0000;fill-opacity:1" d="M20.1 -26.45q-8.15 0.6 -16.15 0.6l-1.2 -4q9.8 0 15.75 -0.4q-2 -5.6 -2.8 -10.35l4.4 0q1.8 0.4 0.4 1.6q0.8 3.75 2.4 8.35q6.95 -0.6 11.95 -1.8l1 4.4q-5.8 0.8 -11.35 1.2q3.95 7.55 12.15 13.15l-3 3.55q-7.4 -3.35 -14.55 -3.35q-6.55 0 -9.15 2.55q-1.2 1.2 -1.2 3.4q0 2 1.8 3.8q2.75 2.8 13.15 2.8l6.95 0l-1 4.35l-7.55 0q-10.35 0 -14.55 -4.15q-3 -3 -3 -6.8q0 -3.8 2.2 -5.95q3.6 -3.6 11.15 -3.6q7.6 0 8.75 0.8q-4.75 -6 -6.55 -10.15" />
</g>
<g id="PathID_1841" transform="matrix(0.352941, 0, 0, 0.352941, 134.6, 71.1)">
<path style="fill:#FF0000;fill-opacity:1" d="M22.3 -9.95q-1.8 4.6 -3.8 7q-2.8 3.35 -5.6 3.35q-4.95 0 -7.35 -5.75q-1.4 -3.4 -1.4 -14.55q0 -7.95 0.8 -16.15l4.2 1q2.4 0.6 0.2 2q-0.8 7.4 -0.8 13.35q0 8.15 1 11.55q1 3.4 3 3.4q2.15 0 3.75 -3.2q1 -2 2 -4.8l4 2.8M34.05 -33.25q8.95 9.35 10.95 22.7l-5.4 1.4q-2.35 -13.95 -9.75 -21.7l4.2 -2.4" />
</g>
<g id="PathID_1842" transform="matrix(0.352941, 0, 0, 0.352941, 151.6, 71.1)">
<path style="fill:#FF0000;fill-opacity:1" d="M16.9 -7.55q2 2 2 5q0 2.95 -2 4.95q-2 2 -4.95 2q-3 0 -5 -2q-2 -2 -2 -4.95q0 -3 2 -5q2 -2 5 -2q2.95 0 4.95 2M15.1 0.6q1.4 -1.35 1.4 -3.15q0 -1.8 -1.4 -3.2q-1.4 -1.4 -3.15 -1.4q-1.8 0 -3.2 1.4q-1.4 1.4 -1.4 3.2q0 1.8 1.4 3.15q1.4 1.4 3.2 1.4q1.75 0 3.15 -1.4" />
</g>
</svg>
