<?xml version="1.0" encoding="utf-8"?>
<svg version="1.1" id="Layer_1"
xmlns="http://www.w3.org/2000/svg"
xmlns:xlink="http://www.w3.org/1999/xlink"
xmlns:author="http://www.sothink.com"
width="187px" height="60px"
xml:space="preserve">
<g id="PathID_1741" transform="matrix(0.941176, 0, 0, 0.941176, 2, 43.1)">
<path style="fill:#FFFFFF;fill-opacity:1" d="M6.35 -35.85q17.15 -0.2 32.45 -3.95l2.6 3.15q1.4 1.8 -1 1.2q-6.35 1.4 -12.75 2l0 7.2l15.75 0l0 3.75l-15.75 0l0 6.8l19.95 0l0 3.75l-19.95 0l0 11.95q0 3.6 -3.35 3.6l-5.2 0l-1 -4.35l5 0q0.6 0 0.6 -0.6l0 -10.6l-20.35 0l0 -3.75l20.35 0l0 -6.8l-16.15 0l0 -3.75l16.15 0l0 -6.6q-8.4 0.8 -16.35 0.8l-1 -3.8" />
</g>
<g id="PathID_1742" transform="matrix(0.941176, 0, 0, 0.941176, 50, 43.1)">
<path style="fill:#FFFFFF;fill-opacity:1" d="M23.5 1q2 -1 4.15 -2.95l-22.3 4.15q-0.2 1.4 -1 0.6l-1.2 -4.35l11.55 -1.4l0 -3.6l-9.35 0l0 -3.2l9.35 0l0 -3l-4.55 0l-4.4 0l0 -14.1l8.95 0l0 -2.8l-11.55 0l0 -3.2l11.55 0l0 -2.4q-4.95 0.2 -9.95 0.4l-0.6 -3.4q9.75 0 20.95 -2.15l1.75 3.35q0.6 1.2 -1.2 0.4q-4.15 0.6 -7.55 1l0 2.8l10.95 0l0 3.2l-10.95 0l0 2.8l9.15 0l0 14.1l-9.15 0l0 3l9.95 0l0 3.2l-9.95 0l0 3l9.95 -1.6l0 2.8q5.8 -5.2 6 -15.75l0.2 -7.75l-4.8 0l0 -3.8l4.8 0l0 -10.15l3.8 0q1.55 0.2 0.2 1.2l0 8.95l8.75 0l-0.4 26.3q-0.2 7.15 -5.2 7.15l-5.35 0l-0.6 -3.8l4.55 0q2.4 0 2.6 -4.15l0.6 -21.7l-4.95 0l-0.2 9.35q-0.2 13.75 -12.2 21.3l-2.35 -3.8M18.1 -18.7l0 3.6l5.8 0l0 -3.6l-5.8 0M18.1 -24.5l0 3.4l5.8 0l0 -3.4l-5.8 0M9.15 -18.7l0 3.6l5.55 0l0 -3.6l-5.55 0M9.15 -24.5l0 3.4l5.55 0l0 -3.4l-5.55 0" />
</g>
</svg>
