<?xml version="1.0" encoding="utf-8"?>
<svg version="1.1" id="Layer_1"
xmlns="http://www.w3.org/2000/svg"
xmlns:xlink="http://www.w3.org/1999/xlink"
xmlns:author="http://www.sothink.com"
width="434px" height="43px"
xml:space="preserve">
<g id="PathID_1772" transform="matrix(0.627451, 0, 0, 0.627451, 2, 29.4)">
<path style="fill:#FFFFFF;fill-opacity:1" d="M11.55 -31.25q1.75 -1.8 1.95 -4l2.4 0l0 34.5l-4.55 0l0 -26.5l-6 0l0 -2.4l1.8 0q2.8 0 4.4 -1.6" />
</g>
<g id="PathID_1773" transform="matrix(0.627451, 0, 0, 0.627451, 18, 29.4)">
<path style="fill:#FFFFFF;fill-opacity:1" d="M2.95 -4.95l4.6 0l0 4.4l-4.6 0l0 -4.4" />
</g>
<g id="PathID_1774" transform="matrix(0.627451, 0, 0, 0.627451, 34.2, 29.4)">
<path style="fill:#FFFFFF;fill-opacity:1" d="M18.9 -21.5l0 -1l-9.75 0l0 27.1l-4 0l0 -44.4l17.75 0l0 18.3l-4 0M18.9 -32.85l0 -3.8l-9.75 0l0 3.8l9.75 0M18.9 -25.65l0 -4l-9.75 0l0 4l9.75 0M19.5 -2.75l0 2.75l-3.4 0l0 -17.7l18.95 0l0 16.55l-3.4 0l0 -1.6l-12.15 0M31.65 -5.95l0 -8.55l-12.15 0l0 8.55l12.15 0M38.4 4l-0.95 -3.8l3.95 0q0.6 0 0.6 -0.55l0 -22.15l-10.15 0l0 1.2l-4 0l0 -18.5l18.15 0l0 40.4q0 3.4 -3.2 3.4l-4.4 0M42 -36.65l-10.15 0l0 3.8l10.15 0l0 -3.8M42 -25.65l0 -4l-10.15 0l0 4l10.15 0" />
</g>
<g id="PathID_1775" transform="matrix(0.627451, 0, 0, 0.627451, 66.2, 29.4)">
<path style="fill:#FFFFFF;fill-opacity:1" d="M10.15 -13.5q-0.2 2.95 -0.4 5.55q2.2 2.8 3.75 4.2l0 -14.15l-10.35 0l0 -3.8l22.15 0l0 3.8l-8.4 0l0 5.35l6.8 0l0 3.8l-6.8 0l0 7q2.8 1.75 6.4 1.75l25.1 0l-1 3.8l-24.1 0q-8 0 -14.15 -7.55q-1.6 5.35 -3.4 7.95l-3.2 -3q4 -5.95 4 -16.5l4 0.6q0.6 0.6 -0.4 1.2M22.9 -4.35q4.95 -1.2 8.95 -3.6l-4.2 0l0 -24.1l5.6 0l1 -4l-8.4 0l0 -3.75l21.15 0l0 3.75l-8.4 0l-1.75 4l8.75 0l0 24.1l-5 0q2.6 1.6 7.6 3.2l-1.6 3.6q-5 -1.4 -8.55 -4.2l2.15 -2.6l-7.75 0l2.2 2.8q0.8 1.2 -1.2 0.8q-3.8 2 -8.95 3.4l-1.6 -3.4M6.35 -24.3l0 -15.5l16.35 0l0 15.5l-16.35 0M19.3 -30.45l-9.55 0l0 3l9.55 0l0 -3M42.2 -28.85l-11.15 0l0 3.75l11.15 0l0 -3.75M42.2 -21.9l-11.15 0l0 3.8l11.15 0l0 -3.8M42.2 -14.9l-11.15 0l0 3.75l11.15 0l0 -3.75M19.3 -36.65l-9.55 0l0 3l9.55 0l0 -3" />
</g>
<g id="PathID_1776" transform="matrix(0.627451, 0, 0, 0.627451, 98.2, 29.4)">
<path style="fill:#FFFFFF;fill-opacity:1" d="M48.8 -0.15l-1 3.75l-26.5 0q-6.8 0 -10.55 -4.75l-6.4 5.95l-2.8 -4.6l7 -3.95l0 -13.15l-5.8 0l0 -3.8l9.8 0l0 16.35q2.75 4.2 10.75 4.2l25.5 0M41.8 -27.65q1.2 0 1.6 -2.4l3.6 0.6q-0.4 4.95 -4.2 4.95l-5.15 0l0 3.2l6.55 0l0 3.2l-6.55 0l0 4.4l9.15 0l0 3.15l-32.1 0l0 -3.15l8.8 0l0 -4.4l-7 0l0 -3.2l7 0l0 -3.2l-4.2 0q-3.4 0 -3.4 -3.35l0 -6.4l9.6 0l0 -2.6l-9.4 0l0 -3.15l12.75 0l0 8.95l-9.55 0l0 2.2q0 1.2 1.2 1.2l5 0q1.15 0 1.55 -2.2l3.4 0.4q-0.6 4.75 -3.6 4.95l0 3.2l7.4 0l0 -3.2q-2.4 -0.4 -2.4 -2.95l0 -6.8l9.95 0l0 -2.6l-10.35 0l0 -3.15l13.75 0l0 8.95l-9.95 0l0 2.2q0 1.2 1.2 1.2l5.35 0M36.05 -10.35q4.75 3.2 9.95 4.4l-1.4 3.8q-5.8 -1.4 -10.95 -5.2l2.4 -3M15.7 -5.35q6.2 -2.2 9.8 -5l2.15 3q0.6 1.2 -0.8 0.8q-3.35 2.6 -9.15 4.6l-2 -3.4M26.85 -18.1l0 4.4l7.4 0l0 -4.4l-7.4 0M7.35 -39.4q3.8 2.55 6.55 6.55l-3.35 3.2q-2.6 -3.6 -6.4 -6.6l3.2 -3.15" />
</g>
<g id="PathID_1777" transform="matrix(0.627451, 0, 0, 0.627451, 130.2, 29.4)">
<path style="fill:#FFFFFF;fill-opacity:1" d="M21.9 -38.8l23.3 0l0 20.1l-4 0l0 -1.4l-5.75 0q0.2 11.95 13.15 20.1l-2 4.6q-14.55 -9.95 -14.75 -24.7l-6 0l0 5.4q0 13.55 -7.95 19.7l-2.6 -3.4q6.6 -5.75 6.6 -15.9l0 -24.5M25.85 -35.05l0 11.15l15.35 0l0 -11.15l-15.35 0M13.9 -17.5l6 -1.8l0 3.8l-6 2l0 14.9q0 3.2 -3.15 3.2l-3.8 0l-0.6 -3.8l2.8 0q0.8 0 0.8 -0.8l0 -12.55l-6.2 1.8l-1 -4.35l7.2 -1.6l0 -10.35l-6.2 0l0 -3.8l6.2 0l0 -10.35l3.75 0q1.6 0.2 0.2 1.2l0 9.15l6 0l0 3.8l-6 0l0 9.55" />
</g>
</svg>
