<?xml version="1.0" encoding="utf-8"?>
<svg version="1.1" id="Layer_1"
xmlns="http://www.w3.org/2000/svg"
xmlns:xlink="http://www.w3.org/1999/xlink"
xmlns:author="http://www.sothink.com"
width="427px" height="43px"
xml:space="preserve">
<g id="PathID_1477" transform="matrix(0.627451, 0, 0, 0.627451, 2, 29.4)">
<path style="fill:#000000;fill-opacity:1" d="M15.1 -35.05l4.6 0l0 21.95l4.2 0l0 3.75l-4.2 0l0 8.8l-4.6 0l0 -8.8l-13.35 0l0 -3.95l13.35 -21.75M15.1 -27.65l-8.95 14.55l8.95 0l0 -14.55" />
</g>
<g id="PathID_1478" transform="matrix(0.627451, 0, 0, 0.627451, 18, 29.4)">
<path style="fill:#000000;fill-opacity:1" d="M1.75 -23.1l5.6 0l5.55 7.2l0.4 0l5.6 -7.2l5.6 0l-8.8 10.55l9.95 11.8l-5.75 0l-6.4 -8.4l-0.4 0l-6.75 8.4l-5.8 0l10 -11.8l-8.8 -10.55" />
</g>
<g id="PathID_1479" transform="matrix(0.627451, 0, 0, 0.627451, 44.35, 29.4)">
<path style="fill:#000000;fill-opacity:1" d="M11.15 -29.45l3.35 0l0 9.75l9.8 0l0 3.2l-9.8 0l0 9.75l-3.35 0l0 -9.75l-9.8 0l0 -3.2l9.8 0l0 -9.75" />
</g>
<g id="PathID_1480" transform="matrix(0.627451, 0, 0, 0.627451, 70.1, 29.4)">
<path style="fill:#000000;fill-opacity:1" d="M11.55 -31.25q1.75 -1.8 1.95 -4l2.4 0l0 34.5l-4.55 0l0 -26.5l-6 0l0 -2.4l1.8 0q2.8 0 4.4 -1.6" />
</g>
<g id="PathID_1481" transform="matrix(0.627451, 0, 0, 0.627451, 95.85, 29.4)">
<path style="fill:#000000;fill-opacity:1" d="M1.35 -25.85l22.75 0l0 3.15l-22.75 0l0 -3.15M1.35 -13.7l22.75 0l0 3.15l-22.75 0l0 -3.15" />
</g>
<g id="PathID_1482" transform="matrix(0.627451, 0, 0, 0.627451, 121.6, 29.4)">
<path style="fill:#000000;fill-opacity:1" d="M2.75 -23.3q0 -5.95 3.6 -9.55q2.2 -2.2 6 -2.2q3.55 0 6.15 2.6q4.2 4.2 4.2 14.55q0 10.55 -4.4 14.95q-2.8 2.8 -6.55 2.8q-3.8 0 -6 -2.2q-2.6 -2.6 -2.6 -6.8l4.6 0q-0.2 2.6 1.6 4.4q0.8 0.8 2.4 0.8q1.75 0 3.15 -1.4q3.2 -3.2 3.2 -11.75q-0.8 1.2 -1.8 2.2q-2.2 2.15 -5.35 2.15q-3 0 -5 -1.95q-3.2 -3.2 -3.2 -8.6M12.35 -31.45q-1.6 0 -2.8 1.2q-2 2 -2 6.95q0 4 1.6 5.6q1.4 1.4 2.8 1.4q2.35 0 3.55 -1.2q2.2 -2.2 2.2 -5.4q0 -4.95 -2.2 -7.15q-1.4 -1.4 -3.15 -1.4" />
</g>
</svg>
