<?xml version="1.0" encoding="utf-8"?>
<svg version="1.1" id="Layer_1"
xmlns="http://www.w3.org/2000/svg"
xmlns:xlink="http://www.w3.org/1999/xlink"
xmlns:author="http://www.sothink.com"
width="215px" height="43px"
xml:space="preserve">
<g id="PathID_1778" transform="matrix(0.627451, 0, 0, 0.627451, 2, 29.4)">
<path style="fill:#FFFFFF;fill-opacity:1" d="M18.9 -21.5l0 -1l-9.75 0l0 27.1l-4 0l0 -44.4l17.75 0l0 18.3l-4 0M18.9 -32.85l0 -3.8l-9.75 0l0 3.8l9.75 0M18.9 -25.65l0 -4l-9.75 0l0 4l9.75 0M19.5 -2.75l0 2.75l-3.4 0l0 -17.7l18.95 0l0 16.55l-3.4 0l0 -1.6l-12.15 0M31.65 -5.95l0 -8.55l-12.15 0l0 8.55l12.15 0M38.4 4l-0.95 -3.8l3.95 0q0.6 0 0.6 -0.55l0 -22.15l-10.15 0l0 1.2l-4 0l0 -18.5l18.15 0l0 40.4q0 3.4 -3.2 3.4l-4.4 0M42 -36.65l-10.15 0l0 3.8l10.15 0l0 -3.8M42 -25.65l0 -4l-10.15 0l0 4l10.15 0" />
</g>
<g id="PathID_1779" transform="matrix(0.627451, 0, 0, 0.627451, 34, 29.4)">
<path style="fill:#FFFFFF;fill-opacity:1" d="M10.15 -13.5q-0.2 2.95 -0.4 5.55q2.2 2.8 3.75 4.2l0 -14.15l-10.35 0l0 -3.8l22.15 0l0 3.8l-8.4 0l0 5.35l6.8 0l0 3.8l-6.8 0l0 7q2.8 1.75 6.4 1.75l25.1 0l-1 3.8l-24.1 0q-8 0 -14.15 -7.55q-1.6 5.35 -3.4 7.95l-3.2 -3q4 -5.95 4 -16.5l4 0.6q0.6 0.6 -0.4 1.2M22.9 -4.35q4.95 -1.2 8.95 -3.6l-4.2 0l0 -24.1l5.6 0l1 -4l-8.4 0l0 -3.75l21.15 0l0 3.75l-8.4 0l-1.75 4l8.75 0l0 24.1l-5 0q2.6 1.6 7.6 3.2l-1.6 3.6q-5 -1.4 -8.55 -4.2l2.15 -2.6l-7.75 0l2.2 2.8q0.8 1.2 -1.2 0.8q-3.8 2 -8.95 3.4l-1.6 -3.4M6.35 -24.3l0 -15.5l16.35 0l0 15.5l-16.35 0M19.3 -30.45l-9.55 0l0 3l9.55 0l0 -3M42.2 -28.85l-11.15 0l0 3.75l11.15 0l0 -3.75M42.2 -21.9l-11.15 0l0 3.8l11.15 0l0 -3.8M42.2 -14.9l-11.15 0l0 3.75l11.15 0l0 -3.75M19.3 -36.65l-9.55 0l0 3l9.55 0l0 -3" />
</g>
<g id="PathID_1780" transform="matrix(0.627451, 0, 0, 0.627451, 66, 29.4)">
<path style="fill:#FFFFFF;fill-opacity:1" d="M30.85 -17.5q0 14.95 -13.95 21.5l-4 -3.4q13.15 -5.95 13.35 -18.3l0 -19.95l4.2 0q2 0.4 0.4 1.6l0 18.55M10.35 -13.1l-4.6 0l0 -22.55l4.4 0q2 0.2 0.2 1.6l0 20.95" />
</g>
<g id="PathID_1781" transform="matrix(0.627451, 0, 0, 0.627451, 89.85, 29.4)">
<path style="fill:#FFFFFF;fill-opacity:1" d="M26.65 -18.1q8.6 6.55 16.95 15.15l-4 3.35q-8.35 -8.75 -16.1 -14.7q-7.8 8.35 -17.75 14.9l-3.8 -3.35q21.15 -13.75 27.1 -27.5l-21.7 1.4l-0.6 -4.8l23.1 -1l2.4 -0.6l3.2 3.2q1.4 1.4 -0.8 1.8q-3.8 6.55 -8 12.15" />
</g>
<g id="PathID_1782" transform="matrix(0.627451, 0, 0, 0.627451, 118.7, 29.4)">
<path style="fill:#FFFFFF;fill-opacity:1" d="M10.95 -23.9q9.75 2.8 19.7 7.6l-2.4 4.55q-10.55 -5.35 -17.3 -7.15l0 20.7l-4.6 0l0 -39.85l4 0q2.4 0.2 0.6 1.6l0 12.55" />
</g>
</svg>
