<?xml version="1.0" encoding="utf-8"?>
<svg version="1.1" id="Layer_1"
xmlns="http://www.w3.org/2000/svg"
xmlns:xlink="http://www.w3.org/1999/xlink"
xmlns:author="http://www.sothink.com"
width="321px" height="43px"
xml:space="preserve">
<g id="PathID_433" transform="matrix(0.627451, 0, 0, 0.627451, 2, 29.4)">
<path style="fill:#000000;fill-opacity:1" d="M27.45 -34.45l0 6.2l17.55 0l0 29.25q0 2.8 -2.8 2.8l-6.15 0l-0.6 -3.8l4.75 0q0.8 0 0.8 -0.75l0 -23.75l-13.55 0l0 16.55l4.8 0l0 -11.35l3.8 0q1.6 0.2 0.2 1.2l0 15.75l-4 0l0 -1.8l-13.55 0l0 3.4l-4 0l0 -18.55l3.8 0q1.6 0.2 0.2 1.2l0 10.15l4.8 0l0 -16.55l-13.55 0l0 28.1l-4 0l0 -31.85l17.55 0l0 -6.2l-19.95 0l0 -3.8l43.85 0l0 3.8l-19.95 0" />
</g>
<g id="PathID_434" transform="matrix(0.627451, 0, 0, 0.627451, 34, 29.4)">
<path style="fill:#000000;fill-opacity:1" d="M40.4 -33.45l-9.35 0l0 9.75q0 12.35 -11.15 19.55l-2.4 -4q9.55 -5.15 9.55 -15.95l0 -9.35l-9.75 0l0 -4.4l27.7 0l-0.4 21.95q-0.2 10.95 -6.2 10.95l-7.15 0l-0.2 -4.4l6 0q2.75 0 2.95 -5.35l0.4 -18.75M3.55 -1.35q4.6 -1.6 7.2 -4l0 -13.35l-7 0l0 -4.4l10.95 0l0 17.15q2.4 3.6 9.2 3.6l24.5 0l-1 4.35l-23.5 0q-6.8 0 -11.15 -4.55q-2.2 2.95 -6.8 5.95l-2.4 -4.75M12.75 -29.25q-2.8 -3.6 -6.8 -7l2.8 -3.15q4.15 2.55 7.15 6.75l-3.15 3.4" />
</g>
<g id="PathID_435" transform="matrix(0.627451, 0, 0, 0.627451, 66, 29.4)">
<path style="fill:#000000;fill-opacity:1" d="M3.35 0q5.8 -8.95 10.15 -23.3q-4.35 0.6 -8.55 1l-0.4 -4.35q3.6 0 9.95 -0.6q1.8 -6.2 3 -12.55l4.2 1.4q2.4 0.95 -0.2 1.75q-1.2 4.2 -2.4 9q2.4 -0.4 5 -0.4q2.75 0 4.15 1.4q2.4 2.35 2.4 10.75q0 11.55 -3.4 14.95q-1.95 1.95 -4.55 1.95q-3.8 0 -7.6 -4.35l2.6 -3.6q3.2 3.2 4.8 3.2q1 0 1.8 -0.8q2.15 -2.2 2.15 -12.15q0 -5.6 -1.15 -6.8q-0.6 -0.6 -2.4 -0.6q-1.8 0 -5 0.4q-4.2 14.75 -9.95 25.3l-4.6 -1.6M43.4 -9.95q-3.6 -12.95 -10.35 -19.3l3.6 -2.6q8.15 8.35 11.15 20.1l-4.4 1.8" />
</g>
<g id="PathID_436" transform="matrix(0.627451, 0, 0, 0.627451, 98, 29.4)">
<path style="fill:#000000;fill-opacity:1" d="M13.1 -1.75l4.8 0q9.95 0 12.55 -2.6q2.2 -2.2 2.2 -5q0 -2.4 -2 -4.35q-1.8 -1.8 -5.95 -1.8q-8.8 0 -15.95 8.55l-4 -0.4l2.2 -21.3l4.2 0.8q1.95 0.8 0 1.6l-1.4 12.95q6.95 -6 15.9 -6q5.4 0 8.6 3.2q2.6 2.6 2.6 6.75q0 4.6 -3.4 8q-4 3.95 -15.15 3.95l-3.6 0l-1.6 -4.35M10.75 -39.8q5.55 1.4 15.1 4.75l-1.95 4q-7.2 -3 -14.95 -5.2l1.8 -3.55" />
</g>
<g id="PathID_437" transform="matrix(0.627451, 0, 0, 0.627451, 123.75, 29.4)">
<path style="fill:#000000;fill-opacity:1" d="M15.1 -35.05l4.6 0l0 21.95l4.2 0l0 3.75l-4.2 0l0 8.8l-4.6 0l0 -8.8l-13.35 0l0 -3.95l13.35 -21.75M15.1 -27.65l-8.95 14.55l8.95 0l0 -14.55" />
</g>
<g id="PathID_438" transform="matrix(0.627451, 0, 0, 0.627451, 139.75, 29.4)">
<path style="fill:#000000;fill-opacity:1" d="M15.7 -23.1q2.4 -0.8 4.6 -0.8q2.6 0 4.2 1.6q1.15 1.2 1.35 4.4q6 -2.2 13.55 -4.6l1.4 4.8q-7.75 1.2 -14.55 3.8l0 8.75l-3.95 0l0 -7.2q-6 2.8 -7.8 4.6q-2.15 2.2 -2.15 4.4q0 1.2 1.15 2.4q1.4 1.35 5.4 1.35l16.75 0l0 3.8l-16.95 0q-6.35 0 -8.95 -2.6q-2 -1.95 -2 -4.95q0 -3.2 2.6 -5.8q3.95 -3.95 11.75 -7.15q-0.2 -2.4 -1 -3.2q-0.8 -0.8 -3.4 -0.8q-4 0 -12.15 7.2l-3.4 -3.4q9.4 -5.8 12.75 -12.75q-5.55 0.4 -11.15 0.8l-0.8 -4q7.2 -0.2 13.55 -0.6q1 -2.4 2.4 -7.95l3.8 1q2 0.8 0 1.6q-0.8 2.55 -1.8 5.15q7.15 -0.6 13.75 -1.6l0.6 4.2q-7.8 0.6 -15.55 1.2q-2 3.95 -4 6.35" />
</g>
<g id="PathID_439" transform="matrix(0.627451, 0, 0, 0.627451, 167.1, 29.4)">
<path style="fill:#000000;fill-opacity:1" d="M20.5 -32.65q-1.6 0.4 -2.4 1.6q-7.35 10.95 -7.35 18.9q0 5.4 2.95 8.4q2.2 2.2 7 2.2q4.4 0 6.75 -2.4q3.8 -3.8 3.8 -14.95q0 -9.55 -1.4 -15.55l5 -0.6q0.2 4.8 2 9.75q2.35 6.4 9.15 13.95l-3.6 3.6q-3.4 -4.2 -7.35 -12.15q0.2 1.8 0.2 3.8q0 10.95 -4.4 15.35q-3.8 3.75 -10.55 3.75q-6.4 0 -9.95 -3.55q-4 -4 -4 -10.4q0 -8.95 6.75 -19.7q-4.55 1.2 -8.95 2.2l-1 -4.8q9.4 -0.8 14.75 -3.4l2.6 4" />
</g>
<g id="PathID_440" transform="matrix(0.627451, 0, 0, 0.627451, 197.8, 29.4)">
<path style="fill:#000000;fill-opacity:1" d="M3.35 -18.3q0 -2.2 2.2 -4.2q12.95 -12.15 16.75 -18.3l3.55 2.75q1.8 2 -0.95 1.6q-3 4.4 -15.75 16.35q-0.8 0.8 -0.8 1.4q0 1.2 0.8 1.8q11.15 8.75 17.9 16.55l-3.55 3.55q-7 -8.15 -17.15 -16.9q-3 -2.6 -3 -4.6" />
</g>
</svg>
