<?xml version="1.0" encoding="utf-8"?>
<svg version="1.1" id="Layer_1"
xmlns="http://www.w3.org/2000/svg"
xmlns:xlink="http://www.w3.org/1999/xlink"
xmlns:author="http://www.sothink.com"
width="427px" height="43px"
xml:space="preserve">
<g id="PathID_680" transform="matrix(0.627451, 0, 0, 0.627451, 50.75, 29.4)">
<path style="fill:#000000;fill-opacity:1" d="M15.1 -35.05l4.6 0l0 21.95l4.2 0l0 3.75l-4.2 0l0 8.8l-4.6 0l0 -8.8l-13.35 0l0 -3.95l13.35 -21.75M15.1 -27.65l-8.95 14.55l8.95 0l0 -14.55" />
</g>
<g id="PathID_681" transform="matrix(0.627451, 0, 0, 0.627451, 66.75, 29.4)">
<path style="fill:#000000;fill-opacity:1" d="M1.75 -23.1l5.6 0l5.55 7.2l0.4 0l5.6 -7.2l5.6 0l-8.8 10.55l9.95 11.8l-5.75 0l-6.4 -8.4l-0.4 0l-6.75 8.4l-5.8 0l10 -11.8l-8.8 -10.55" />
</g>
<g id="PathID_682" transform="matrix(0.627451, 0, 0, 0.627451, 93.1, 29.4)">
<path style="fill:#000000;fill-opacity:1" d="M1.35 -25.85l22.75 0l0 3.15l-22.75 0l0 -3.15M1.35 -13.7l22.75 0l0 3.15l-22.75 0l0 -3.15" />
</g>
<g id="PathID_683" transform="matrix(0.627451, 0, 0, 0.627451, 118.85, 29.4)">
<path style="fill:#000000;fill-opacity:1" d="M11.55 -31.25q1.75 -1.8 1.95 -4l2.4 0l0 34.5l-4.55 0l0 -26.5l-6 0l0 -2.4l1.8 0q2.8 0 4.4 -1.6" />
</g>
<g id="PathID_684" transform="matrix(0.627451, 0, 0, 0.627451, 134.85, 29.4)">
<path style="fill:#000000;fill-opacity:1" d="M2.75 -16.9q0 -10.95 4.8 -15.75q2.4 -2.4 5.95 -2.4q3.8 0 6.2 2.4q2.6 2.6 2.6 6.6l-4.6 0q0 -2.8 -1.2 -4q-1.2 -1.2 -3 -1.2q-1.75 0 -2.95 1.2q-3.2 3.2 -3.2 11.15q0.8 -1.4 2 -2.6q1.8 -1.8 4.35 -1.8q3.6 0 6 2.4q3 3 3 8.95q0 6.2 -3.2 9.4q-2.4 2.4 -6.6 2.4q-3.55 0 -6.55 -3q-3.6 -3.6 -3.6 -13.75M13.3 -19.7q-1.95 0 -3.35 1.4q-2.2 2.2 -2.2 5.95q0 4.8 2.4 7.2q1.4 1.4 2.95 1.4q1.8 0 3 -1.2q1.8 -1.8 1.8 -7q0 -4.55 -1.8 -6.35q-1.4 -1.4 -2.8 -1.4" />
</g>
</svg>
