<?xml version="1.0" encoding="utf-8"?>
<svg version="1.1" id="Layer_1"
xmlns="http://www.w3.org/2000/svg"
xmlns:xlink="http://www.w3.org/1999/xlink"
xmlns:author="http://www.sothink.com"
width="427px" height="43px"
xml:space="preserve">
<g id="PathID_999" transform="matrix(0.627451, 0, 0, 0.627451, 2, 29.4)">
<path style="fill:#000000;fill-opacity:1" d="M3.35 -24.9q0 -4.55 3 -7.55q2.6 -2.6 6.4 -2.6q4.35 0 6.95 2.6q2.4 2.4 2.4 6.4q0 3.95 -2 5.95q-1.4 1.4 -3 1.6q2 0.6 3.4 2q2.4 2.4 2.4 6.35q0 4.4 -2.8 7.2q-2.8 2.8 -7.75 2.8q-4.2 0 -7 -2.8q-2.8 -2.8 -2.8 -6.6l0 -1.6l4.6 0l0 1.4q0 2.6 1.8 4.4q1.4 1.4 3.4 1.4q2.55 0 4.15 -1.6q1.6 -1.6 1.6 -5q0 -2.75 -1.6 -4.35q-1.6 -1.6 -3.6 -1.6l-1.55 0l0 -3.4l1.2 0q1.75 0 3.35 -1.6q1.6 -1.6 1.6 -4.55q0 -2.6 -1.6 -4.2q-1.2 -1.2 -3.15 -1.2q-1.8 0 -3.2 1.4q-1.6 1.6 -1.8 5.15l-4.4 0" />
</g>
<g id="PathID_1000" transform="matrix(0.627451, 0, 0, 0.627451, 18, 29.4)">
<path style="fill:#000000;fill-opacity:1" d="M1.75 -23.1l5.6 0l5.55 7.2l0.4 0l5.6 -7.2l5.6 0l-8.8 10.55l9.95 11.8l-5.75 0l-6.4 -8.4l-0.4 0l-6.75 8.4l-5.8 0l10 -11.8l-8.8 -10.55" />
</g>
<g id="PathID_1001" transform="matrix(0.627451, 0, 0, 0.627451, 44.35, 29.4)">
<path style="fill:#000000;fill-opacity:1" d="M11.15 -29.45l3.35 0l0 9.75l9.8 0l0 3.2l-9.8 0l0 9.75l-3.35 0l0 -9.75l-9.8 0l0 -3.2l9.8 0l0 -9.75" />
</g>
<g id="PathID_1002" transform="matrix(0.627451, 0, 0, 0.627451, 70.1, 29.4)">
<path style="fill:#000000;fill-opacity:1" d="M15.1 -35.05l4.6 0l0 21.95l4.2 0l0 3.75l-4.2 0l0 8.8l-4.6 0l0 -8.8l-13.35 0l0 -3.95l13.35 -21.75M15.1 -27.65l-8.95 14.55l8.95 0l0 -14.55" />
</g>
<g id="PathID_1003" transform="matrix(0.627451, 0, 0, 0.627451, 95.85, 29.4)">
<path style="fill:#000000;fill-opacity:1" d="M1.35 -25.85l22.75 0l0 3.15l-22.75 0l0 -3.15M1.35 -13.7l22.75 0l0 3.15l-22.75 0l0 -3.15" />
</g>
<g id="PathID_1004" transform="matrix(0.627451, 0, 0, 0.627451, 121.6, 29.4)">
<path style="fill:#000000;fill-opacity:1" d="M11.55 -31.25q1.75 -1.8 1.95 -4l2.4 0l0 34.5l-4.55 0l0 -26.5l-6 0l0 -2.4l1.8 0q2.8 0 4.4 -1.6" />
</g>
<g id="PathID_1005" transform="matrix(0.627451, 0, 0, 0.627451, 137.6, 29.4)">
<path style="fill:#000000;fill-opacity:1" d="M3.35 -24.9q0 -4.55 3 -7.55q2.6 -2.6 6.4 -2.6q4.35 0 6.95 2.6q2.4 2.4 2.4 6.4q0 3.95 -2 5.95q-1.4 1.4 -3 1.6q2 0.6 3.4 2q2.4 2.4 2.4 6.35q0 4.4 -2.8 7.2q-2.8 2.8 -7.75 2.8q-4.2 0 -7 -2.8q-2.8 -2.8 -2.8 -6.6l0 -1.6l4.6 0l0 1.4q0 2.6 1.8 4.4q1.4 1.4 3.4 1.4q2.55 0 4.15 -1.6q1.6 -1.6 1.6 -5q0 -2.75 -1.6 -4.35q-1.6 -1.6 -3.6 -1.6l-1.55 0l0 -3.4l1.2 0q1.75 0 3.35 -1.6q1.6 -1.6 1.6 -4.55q0 -2.6 -1.6 -4.2q-1.2 -1.2 -3.15 -1.2q-1.8 0 -3.2 1.4q-1.6 1.6 -1.8 5.15l-4.4 0" />
</g>
</svg>
