<?xml version="1.0" encoding="utf-8"?>
<svg version="1.1" id="Layer_1"
xmlns="http://www.w3.org/2000/svg"
xmlns:xlink="http://www.w3.org/1999/xlink"
xmlns:author="http://www.sothink.com"
width="432px" height="39px"
xml:space="preserve">
<g id="PathID_1712" transform="matrix(0.588235, 0, 0, 0.588235, 2, 27.65)">
<path style="fill:#66CCFF;fill-opacity:1" d="M18.7 -19.1q5.2 -1.4 8.55 -1.4q8.4 0 12.55 4.2q3.4 3.4 3.4 8.35q0 4.6 -2.4 7q-2.95 2.95 -7.35 2.95q-4.4 0 -6.6 -2.15q-1.95 -2 -3.15 -4.2l3.55 -2.4q0.8 1.8 2.4 3.4q1.4 1.4 3.8 1.4q2.4 0 4.2 -1.8q1.35 -1.4 1.35 -4.4q0 -3.2 -2.75 -5.95q-2.6 -2.6 -8.4 -2.6q-4.35 0 -9.15 1.6l0 10.55q0 3.8 -2.2 5.95q-2.2 2.2 -5.55 2.2q-2.6 0 -4.8 -2.2q-2 -1.95 -2 -4.95q0 -5.6 3.6 -9.2q2.8 -2.75 6.95 -4.95l0 -8.55q-4.95 0.6 -9.15 0.6l-0.6 -4.2q4.2 0.2 9.75 -0.4l0 -9.95l4 0q1.6 0.4 0 1.6l0 7.75q4.4 -0.8 7.95 -2.4l1 4.4q-3.75 1.2 -8.95 2l0 7.75M14.7 -13.5q-2.75 1.95 -4.15 3.35q-2.6 2.6 -2.6 6.2q0 2 0.8 2.8q1 1 2.4 1q3.55 0 3.55 -5.6l0 -7.75M35.05 -35.25q6.55 4.2 10.15 8.4l-3.2 3.15q-4.75 -4.75 -9.95 -8.15l3 -3.4" />
</g>
<g id="PathID_1713" transform="matrix(0.588235, 0, 0, 0.588235, 30.35, 27.65)">
<path style="fill:#66CCFF;fill-opacity:1" d="M16.9 -9.75q-0.4 4.4 1.8 6.6q2.2 2.2 6.2 2.2q5.15 0 6.95 -1.8q1.8 -1.8 1.8 -6q0 -3 -1.2 -7.15l4.2 -0.6q1.4 5.55 1.4 7.55q0 6.2 -3 9.15q-3.2 3.2 -10.35 3.2q-5.8 0 -9.2 -3.4q-3.15 -3.15 -2.75 -8.75l0.35 -5.95l-10.15 0l0 -3.8l10.75 0l0.8 -7.75l-9.35 0l0 -3.8l9.95 0l1 -11.35l4.4 0.6q2.2 0.6 0.4 1.6l-1.6 9.15l7.75 0l0 3.8l-8.35 0l-0.8 7.75l9.55 0l0 3.8l-10.15 0l-0.4 4.95" />
</g>
<g id="PathID_1714" transform="matrix(0.588235, 0, 0, 0.588235, 54.45, 27.65)">
<path style="fill:#66CCFF;fill-opacity:1" d="M27.45 -18.5q0 -13.55 -0.8 -20.9l4 0q2.2 0.2 0.4 1.55q0.6 6.4 0.6 19.55q0 14.95 -14.15 22.5l-3.4 -3.4q13.35 -6.35 13.35 -19.3M13.9 -11.95q-1.75 1.4 -3.95 1.4q-1.4 0 -2.6 -1.2q-1.4 -1.35 -1.4 -11.95q0 -7.95 0.8 -14.55l4.4 0q1.6 0.6 0 1.4q-1 4.8 -1 13.15q0 8.6 0.8 8.6q0.6 0 1.6 -0.8q1.35 -1.2 4.55 -5.4l3 3q-3.4 4.2 -6.2 6.35" />
</g>
<g id="PathID_1715" transform="matrix(0.588235, 0, 0, 0.588235, 76.8, 27.65)">
<path style="fill:#66CCFF;fill-opacity:1" d="M15.7 -23.1q2.4 -0.8 4.6 -0.8q2.6 0 4.2 1.6q1.15 1.2 1.35 4.4q6 -2.2 13.55 -4.6l1.4 4.8q-7.75 1.2 -14.55 3.8l0 8.75l-3.95 0l0 -7.2q-6 2.8 -7.8 4.6q-2.15 2.2 -2.15 4.4q0 1.2 1.15 2.4q1.4 1.35 5.4 1.35l16.75 0l0 3.8l-16.95 0q-6.35 0 -8.95 -2.6q-2 -1.95 -2 -4.95q0 -3.2 2.6 -5.8q3.95 -3.95 11.75 -7.15q-0.2 -2.4 -1 -3.2q-0.8 -0.8 -3.4 -0.8q-4 0 -12.15 7.2l-3.4 -3.4q9.4 -5.8 12.75 -12.75q-5.55 0.4 -11.15 0.8l-0.8 -4q7.2 -0.2 13.55 -0.6q1 -2.4 2.4 -7.95l3.8 1q2 0.8 0 1.6q-0.8 2.55 -1.8 5.15q7.15 -0.6 13.75 -1.6l0.6 4.2q-7.8 0.6 -15.55 1.2q-2 3.95 -4 6.35" />
</g>
<g id="PathID_1716" transform="matrix(0.588235, 0, 0, 0.588235, 102.45, 27.65)">
<path style="fill:#66CCFF;fill-opacity:1" d="M15.1 -0.95q-6.15 0 -8.55 -2.4q-2.4 -2.4 -2.4 -6.4q0 -2.2 0.8 -5.15l4.6 0.6q-1 3.15 -1 4.55q0 1.8 1.2 3q1.4 1.4 5.55 1.4l21.75 0l0 4.4l-21.95 0M7.15 -34.65l25.9 0l0 4.4l-25.9 0l0 -4.4" />
</g>
<g id="PathID_1717" transform="matrix(0.588235, 0, 0, 0.588235, 126.35, 27.65)">
<path style="fill:#66CCFF;fill-opacity:1" d="M15.1 -0.95q-6.15 0 -8.55 -2.4q-2.4 -2.4 -2.4 -6.4q0 -2.2 0.8 -5.15l4.6 0.6q-1 3.15 -1 4.55q0 1.8 1.2 3q1.4 1.4 5.55 1.4l21.75 0l0 4.4l-21.95 0M7.15 -34.65l25.9 0l0 4.4l-25.9 0l0 -4.4" />
</g>
<g id="PathID_1718" transform="matrix(0.588235, 0, 0, 0.588235, 150.25, 27.65)">
<path style="fill:#66CCFF;fill-opacity:1" d="M34.05 -2.35q-9.35 0 -15.55 -6l2.6 -3.4q5.35 5.2 12.95 5l10.95 0l0 4.4l-10.95 0M5.55 1.4q-0.6 -10.35 -0.6 -17.7q0 -9 2.2 -21.35l4 1q2.15 0.4 0.2 1.8q-2 11.55 -2 18.55q0 7.75 0.8 17.3l-4.6 0.4M42.4 -28.05q-8.55 -0.2 -22.3 1.2l0 -4.2q14.35 -1.4 22.3 -1.2l0 4.2" />
</g>
<g id="PathID_1719" transform="matrix(0.588235, 0, 0, 0.588235, 178.45, 27.65)">
<path style="fill:#66CCFF;fill-opacity:1" d="M27.85 -11.75q-10.55 -5.35 -17.3 -7.15l0 20.7l-4.6 0l0 -39.85l4 0q2.4 0.2 0.6 1.6l0 12.55q9.75 2.8 19.7 7.6l-2.4 4.55M27.45 -29.25q-3.35 -4.2 -6.75 -6.8l2.6 -2q3.35 2.6 6.75 6.8l-2.6 2M32.25 -33.05q-2.6 -3.4 -6.6 -6.55l2.6 -2q3.4 2.4 6.6 6.55l-2.6 2" />
</g>
<g id="PathID_1720" transform="matrix(0.588235, 0, 0, 0.588235, 199.65, 27.65)">
<path style="fill:#66CCFF;fill-opacity:1" d="M10.95 0.2q19.3 -4.95 21.7 -20.9l-30.3 0l0 -4.4l30.5 0l1.8 -0.55l3.6 2.15q1.15 1 -0.4 1.8q-3.2 19.95 -23.35 25.9l-3.55 -4M33.45 -32.05l-27.5 0l0 -4.4l27.5 0l0 4.4" />
</g>
<g id="PathID_1721" transform="matrix(0.588235, 0, 0, 0.588235, 223.9, 27.65)">
<path style="fill:#66CCFF;fill-opacity:1" d="M34.25 -24.3q-1.4 12.95 -7.2 18.75q-5.75 5.75 -15.1 9.15l-2.6 -3.75q9.15 -3 14.35 -8.2q5.55 -5.55 6.35 -18.9l4.2 1.4q1.8 0.55 0 1.55M17.3 -17.1q-2.4 -5.4 -4.75 -8.95l3.75 -2q3 3.75 5.2 8.95l-4.2 2M7.15 -14.1q-2.4 -5.6 -5 -9.4l4 -2q2.8 3.8 5 9.2l-4 2.2" />
</g>
<g id="PathID_1722" transform="matrix(0.588235, 0, 0, 0.588235, 245.9, 27.65)">
<path style="fill:#66CCFF;fill-opacity:1" d="M37.05 -27.25q-3.8 21.7 -24.9 31.05l-3.6 -3.8q19.5 -7.95 23.5 -27.45l-15.95 0q-4.55 7.55 -9.55 12.15l-4 -2.6q10.35 -9.35 13.35 -21.9l4.6 1.55q1.2 0.6 -0.4 1.2q-0.8 2.6 -2.2 5.2l14.35 0l1.8 -1l3.6 3.6q1.35 1.4 -0.6 2M38.25 -32.05q-3.2 -4.6 -6.2 -6.95l2.6 -2.2q3.4 2.95 6.35 6.95l-2.75 2.2M44 -34.45q-3.2 -3.95 -5.75 -6.35l2.35 -2.4q3 2.8 5.8 6.35l-2.4 2.4" />
</g>
<g id="PathID_1723" transform="matrix(0.588235, 0, 0, 0.588235, 274.1, 27.65)">
<path style="fill:#66CCFF;fill-opacity:1" d="M37.05 -7.15q-8.6 9.35 -18.55 9.35q-7.15 0 -10.55 -3.35q-2.6 -2.6 -2.6 -10l0 -26.7l4.2 0q1.8 0.4 0.4 1.6l0 25.1q0 5 1.8 6.8q2.15 2.2 6.55 2.2q7.75 0 15.75 -8.8l3 3.8" />
</g>
<g id="PathID_1724" transform="matrix(0.588235, 0, 0, 0.588235, 297.05, 27.65)">
<path style="fill:#66CCFF;fill-opacity:1" d="M43 -31.25q-6.95 0 -10.95 1.4q-4.4 1.6 -8.15 5.35q-3.8 3.8 -3.8 9.8q0 4.75 3 7.75q3.95 4 15.3 4.4l-1.55 4.35q-11.75 -0.6 -16.35 -5.15q-4.6 -4.6 -4.6 -11.15q0 -9.4 7.4 -14.75q-9.4 1.4 -19.15 2.8l-1.2 -4.6q19.55 -1.4 39.25 -4.8l0.8 4.6" />
</g>
<g id="PathID_1725" transform="matrix(0.588235, 0, 0, 0.588235, 324.1, 27.65)">
<path style="fill:#66CCFF;fill-opacity:1" d="M3.35 -18.3q0 -2.2 2.2 -4.2q12.95 -12.15 16.75 -18.3l3.55 2.75q1.8 2 -0.95 1.6q-3 4.4 -15.75 16.35q-0.8 0.8 -0.8 1.4q0 1.2 0.8 1.8q11.15 8.75 17.9 16.55l-3.55 3.55q-7 -8.15 -17.15 -16.9q-3 -2.6 -3 -4.6" />
</g>
<g id="PathID_1726" transform="matrix(0.588235, 0, 0, 0.588235, 341.8, 27.65)">
<path style="fill:#66CCFF;fill-opacity:1" d="M42.6 -19.1q-11.55 0.4 -18.1 3.2l-1.2 -4q8.55 -3.4 18.5 -3.4l0.8 4.2M43.6 -2.55l0 4.35l-8.75 0q-7.6 0 -14.35 -3.55l1.8 -3.6q5.15 2.8 12.55 2.8l8.75 0M25.85 -27.45q-5.15 1 -9.75 1.6q-3 17.7 -7.35 28.05l-4.4 -1.4q5.4 -12.55 7.6 -26.3q-5 0.4 -8.6 0.4l-0.8 -3.95q5.6 0 10 -0.4q0.75 -6.2 1.35 -10.75l4 0.8q2.2 0.6 0.4 1.55q-0.6 2.4 -1.6 8q4.6 -0.6 8.4 -1.6l0.75 4M37.85 -41q3.15 1.8 7.75 5.15l-1.8 2.8q-4.4 -3.2 -7.75 -5.2l1.8 -2.75M33.85 -37.05q3.6 2.2 7.75 5.2l-1.8 2.8q-4.35 -3 -7.75 -5.2l1.8 -2.8" />
</g>
<g id="PathID_1727" transform="matrix(0.588235, 0, 0, 0.588235, 369.4, 27.65)">
<path style="fill:#66CCFF;fill-opacity:1" d="M20.1 -26.45q-8.15 0.6 -16.15 0.6l-1.2 -4q9.8 0 15.75 -0.4q-2 -5.6 -2.8 -10.35l4.4 0q1.8 0.4 0.4 1.6q0.8 3.75 2.4 8.35q6.95 -0.6 11.95 -1.8l1 4.4q-5.8 0.8 -11.35 1.2q3.95 7.55 12.15 13.15l-3 3.55q-7.4 -3.35 -14.55 -3.35q-6.55 0 -9.15 2.55q-1.2 1.2 -1.2 3.4q0 2 1.8 3.8q2.75 2.8 13.15 2.8l6.95 0l-1 4.35l-7.55 0q-10.35 0 -14.55 -4.15q-3 -3 -3 -6.8q0 -3.8 2.2 -5.95q3.6 -3.6 11.15 -3.6q7.6 0 8.75 0.8q-4.75 -6 -6.55 -10.15" />
</g>
<g id="PathID_1728" transform="matrix(0.588235, 0, 0, 0.588235, 392.35, 27.65)">
<path style="fill:#66CCFF;fill-opacity:1" d="M22.3 -9.95q-1.8 4.6 -3.8 7q-2.8 3.35 -5.6 3.35q-4.95 0 -7.35 -5.75q-1.4 -3.4 -1.4 -14.55q0 -7.95 0.8 -16.15l4.2 1q2.4 0.6 0.2 2q-0.8 7.4 -0.8 13.35q0 8.15 1 11.55q1 3.4 3 3.4q2.15 0 3.75 -3.2q1 -2 2 -4.8l4 2.8M34.05 -33.25q8.95 9.35 10.95 22.7l-5.4 1.4q-2.35 -13.95 -9.75 -21.7l4.2 -2.4" />
</g>
<g id="PathID_1729" transform="matrix(0.588235, 0, 0, 0.588235, 2, 57.5)">
<path style="fill:#66CCFF;fill-opacity:1" d="M16.9 -7.55q2 2 2 5q0 2.95 -2 4.95q-2 2 -4.95 2q-3 0 -5 -2q-2 -2 -2 -4.95q0 -3 2 -5q2 -2 5 -2q2.95 0 4.95 2M15.1 0.6q1.4 -1.35 1.4 -3.15q0 -1.8 -1.4 -3.2q-1.4 -1.4 -3.15 -1.4q-1.8 0 -3.2 1.4q-1.4 1.4 -1.4 3.2q0 1.8 1.4 3.15q1.4 1.4 3.2 1.4q1.75 0 3.15 -1.4" />
</g>
</svg>
