<?xml version="1.0" encoding="utf-8"?>
<svg version="1.1" id="Layer_1"
xmlns="http://www.w3.org/2000/svg"
xmlns:xlink="http://www.w3.org/1999/xlink"
xmlns:author="http://www.sothink.com"
width="427px" height="43px"
xml:space="preserve">
<g id="PathID_1582" transform="matrix(0.627451, 0, 0, 0.627451, 2, 29.4)">
<path style="fill:#000000;fill-opacity:1" d="M27.45 -34.45l0 6.2l17.55 0l0 29.25q0 2.8 -2.8 2.8l-6.15 0l-0.6 -3.8l4.75 0q0.8 0 0.8 -0.75l0 -23.75l-13.55 0l0 16.55l4.8 0l0 -11.35l3.8 0q1.6 0.2 0.2 1.2l0 15.75l-4 0l0 -1.8l-13.55 0l0 3.4l-4 0l0 -18.55l3.8 0q1.6 0.2 0.2 1.2l0 10.15l4.8 0l0 -16.55l-13.55 0l0 28.1l-4 0l0 -31.85l17.55 0l0 -6.2l-19.95 0l0 -3.8l43.85 0l0 3.8l-19.95 0" />
</g>
<g id="PathID_1583" transform="matrix(0.627451, 0, 0, 0.627451, 34, 29.4)">
<path style="fill:#000000;fill-opacity:1" d="M40.4 -33.45l-9.35 0l0 9.75q0 12.35 -11.15 19.55l-2.4 -4q9.55 -5.15 9.55 -15.95l0 -9.35l-9.75 0l0 -4.4l27.7 0l-0.4 21.95q-0.2 10.95 -6.2 10.95l-7.15 0l-0.2 -4.4l6 0q2.75 0 2.95 -5.35l0.4 -18.75M3.55 -1.35q4.6 -1.6 7.2 -4l0 -13.35l-7 0l0 -4.4l10.95 0l0 17.15q2.4 3.6 9.2 3.6l24.5 0l-1 4.35l-23.5 0q-6.8 0 -11.15 -4.55q-2.2 2.95 -6.8 5.95l-2.4 -4.75M12.75 -29.25q-2.8 -3.6 -6.8 -7l2.8 -3.15q4.15 2.55 7.15 6.75l-3.15 3.4" />
</g>
<g id="PathID_1584" transform="matrix(0.627451, 0, 0, 0.627451, 66, 29.4)">
<path style="fill:#000000;fill-opacity:1" d="M15.7 -23.1q2.4 -0.8 4.6 -0.8q2.6 0 4.2 1.6q1.15 1.2 1.35 4.4q6 -2.2 13.55 -4.6l1.4 4.8q-7.75 1.2 -14.55 3.8l0 8.75l-3.95 0l0 -7.2q-6 2.8 -7.8 4.6q-2.15 2.2 -2.15 4.4q0 1.2 1.15 2.4q1.4 1.35 5.4 1.35l16.75 0l0 3.8l-16.95 0q-6.35 0 -8.95 -2.6q-2 -1.95 -2 -4.95q0 -3.2 2.6 -5.8q3.95 -3.95 11.75 -7.15q-0.2 -2.4 -1 -3.2q-0.8 -0.8 -3.4 -0.8q-4 0 -12.15 7.2l-3.4 -3.4q9.4 -5.8 12.75 -12.75q-5.55 0.4 -11.15 0.8l-0.8 -4q7.2 -0.2 13.55 -0.6q1 -2.4 2.4 -7.95l3.8 1q2 0.8 0 1.6q-0.8 2.55 -1.8 5.15q7.15 -0.6 13.75 -1.6l0.6 4.2q-7.8 0.6 -15.55 1.2q-2 3.95 -4 6.35" />
</g>
<g id="PathID_1585" transform="matrix(0.627451, 0, 0, 0.627451, 93.35, 29.4)">
<path style="fill:#000000;fill-opacity:1" d="M15.1 -35.05l4.6 0l0 21.95l4.2 0l0 3.75l-4.2 0l0 8.8l-4.6 0l0 -8.8l-13.35 0l0 -3.95l13.35 -21.75M15.1 -27.65l-8.95 14.55l8.95 0l0 -14.55" />
</g>
<g id="PathID_1586" transform="matrix(0.627451, 0, 0, 0.627451, 109.35, 29.4)">
<path style="fill:#000000;fill-opacity:1" d="M43 -31.25q-6.95 0 -10.95 1.4q-4.4 1.6 -8.15 5.35q-3.8 3.8 -3.8 9.8q0 4.75 3 7.75q3.95 4 15.3 4.4l-1.55 4.35q-11.75 -0.6 -16.35 -5.15q-4.6 -4.6 -4.6 -11.15q0 -9.4 7.4 -14.75q-9.4 1.4 -19.15 2.8l-1.2 -4.6q19.55 -1.4 39.25 -4.8l0.8 4.6M38.6 -15.7q-4.35 -3.2 -7.55 -5l2 -2.4q3 1.8 7.55 5l-2 2.4M42.6 -20.5q-4.75 -3.4 -7.55 -5l2 -2.35q2.75 1.6 7.55 4.95l-2 2.4" />
</g>
<g id="PathID_1587" transform="matrix(0.627451, 0, 0, 0.627451, 138.2, 29.4)">
<path style="fill:#000000;fill-opacity:1" d="M13.9 -13.1l-8.15 9.75l-3.2 -3.2l5.4 -6q4 -4.55 5.95 -8.15l0 -4.95l-9.35 2.35l-1.2 -4.15l10.55 -2l0 -11.55l3.6 0q2.2 0.4 0.4 1.6l0 8.15l3 1.8q2 1 -0.6 2.2l-2.4 3.35l0 2.4q8.75 -6.95 16.75 -6.95q5.95 0 9.15 3.15q3.8 3.8 3.8 9.8q0 6.15 -3.4 9.55q-4.4 4.4 -12.95 7.55l-2 -3.95q7.6 -2.8 10.95 -6.2q2.8 -2.8 2.8 -6.95q0 -4.2 -2.8 -7q-2.15 -2.2 -5.95 -2.2q-7.2 0 -16.35 8.4l0 20.9l-4 0l0 -17.7" />
</g>
<g id="PathID_1588" transform="matrix(0.627451, 0, 0, 0.627451, 170.2, 29.4)">
<path style="fill:#000000;fill-opacity:1" d="M28.05 -0.95q3.2 -0.4 5.4 -2.6q2.4 -2.4 2.4 -6.4q0 -4.35 -2.6 -6.95q-2.6 -2.6 -8.15 -2.6q-6.6 0 -10.2 2.6q-3.35 2.4 -8.75 8.55l-3.4 -3q14.35 -14.3 21.75 -23.9q-6.6 0.8 -13.15 1.4l-1.4 -4.55q9.75 0 17.3 -1l1.8 -0.8l2.2 2.15q2.2 2 -1 2.6q-5.95 6.8 -11.95 13.35q4.2 -1 7 -1q7.55 0 11.15 3.6q3.55 3.6 3.55 9.15q0 5.8 -3.15 9q-4.8 4.75 -12.15 4.75q-7 0 -10.2 -3.2q-2.55 -2.55 -2.55 -6.15q0 -2.4 1.75 -4.2q2 -2 4.6 -2q3.6 0 6 2.4q2.75 2.8 3.75 8.8M24.1 -0.35q-0.6 -5.2 -2.4 -7q-1.4 -1.4 -2.8 -1.4q-1.6 0 -2.4 0.8q-1 1 -1 2.2q0 1.8 1.6 3.4q2 2 5.2 2q0.8 0 1.8 0" />
</g>
</svg>
