<?xml version="1.0" encoding="utf-8"?>
<svg version="1.1" id="Layer_1"
xmlns="http://www.w3.org/2000/svg"
xmlns:xlink="http://www.w3.org/1999/xlink"
xmlns:author="http://www.sothink.com"
width="236px" height="43px"
xml:space="preserve">
<g id="PathID_1843" transform="matrix(0.627451, 0, 0, 0.627451, 2, 29.4)">
<path style="fill:#FFFFFF;fill-opacity:1" d="M3.35 -23.1q0 -6.15 3.2 -9.35q2.6 -2.6 6.2 -2.6q4.35 0 6.95 2.6q2.6 2.6 2.6 6.4q0 4.75 -3 8.35q-2.8 3.4 -5.8 6.55q-1.55 1.8 -3.15 3.6q-1.4 1.6 -2.4 3.2l14.95 0l0 3.8l-20.35 0l0 -3.4q0.4 -2 3.4 -5.6q5 -5.35 8.15 -8.95q3.4 -3.6 3.4 -7.55q0 -2.4 -1.6 -4q-1.2 -1.2 -3 -1.2q-1.55 0 -2.75 1.2q-2.2 2.2 -2.2 6.95l-4.6 0" />
</g>
<g id="PathID_1844" transform="matrix(0.627451, 0, 0, 0.627451, 18, 29.4)">
<path style="fill:#FFFFFF;fill-opacity:1" d="M2.95 -4.95l4.6 0l0 4.4l-4.6 0l0 -4.4" />
</g>
<g id="PathID_1845" transform="matrix(0.627451, 0, 0, 0.627451, 34.2, 29.4)">
<path style="fill:#FFFFFF;fill-opacity:1" d="M24.3 -20.3q0.4 15.15 -12.95 23.5l-3.4 -3.75q11.75 -6.4 11.75 -17.95l0 -8.55l4.2 0q1.75 0.2 0.4 1.4l0 5.15q7.15 -5.35 10.95 -10.55l-32.5 1.2l-0.4 -4.6l36.25 -1l1.4 -0.4l3 3.6q0.6 0.8 -1 0.6q-5.95 7.75 -14.35 14.55l-3.35 -3.2" />
</g>
<g id="PathID_1846" transform="matrix(0.627451, 0, 0, 0.627451, 62.9, 29.4)">
<path style="fill:#FFFFFF;fill-opacity:1" d="M2.35 -9.95l41.25 0l0 4.4l-41.25 0l0 -4.4M7.35 -31.65l29.3 0l0 4.4l-29.3 0l0 -4.4" />
</g>
<g id="PathID_1847" transform="matrix(0.627451, 0, 0, 0.627451, 92, 29.4)">
<path style="fill:#FFFFFF;fill-opacity:1" d="M2.35 -3.35q12.15 -6.6 17.55 -14.95q-5.6 -3.4 -9.75 -5.2l2.4 -4.35q4.35 2 9.95 5.15q2.8 -5.75 4.75 -15.55l4.8 1.6q1.4 0.4 -0.2 1.2q-2.6 9.95 -5.4 15.35q4.8 3.2 7.8 5.6l-2.6 4.55q-4 -3.35 -7.55 -5.75q-7.4 9.95 -17.55 16.1l-4.2 -3.75" />
</g>
<g id="PathID_1848" transform="matrix(0.627451, 0, 0, 0.627451, 114.95, 29.4)">
<path style="fill:#FFFFFF;fill-opacity:1" d="M2.35 -16.3l0 -4.4l44.45 0l0 4.4l-44.45 0" />
</g>
<g id="PathID_1849" transform="matrix(0.627451, 0, 0, 0.627451, 145.65, 29.4)">
<path style="fill:#FFFFFF;fill-opacity:1" d="M6.75 -3.15q21.7 -4.8 32.65 -22.5l3.6 3.55q-10.15 16.35 -31.45 23.1q-0.6 2.4 -2 0.2l-2.8 -4.35M5.35 -27.25q5 2.55 10.15 6.35l-3.15 4.2q-6 -4.4 -10 -6.4l3 -4.15M10.95 -39q5.35 2.95 10.15 6.35l-2.8 4.2q-5.4 -3.8 -9.95 -6.4l2.6 -4.15" />
</g>
<g id="PathID_1850" transform="matrix(0.627451, 0, 0, 0.627451, 174.35, 29.4)">
<path style="fill:#FFFFFF;fill-opacity:1" d="M2.35 0l0 -3.75l20.35 0l0 -8.4l-19.15 0l0 -3.75l19.15 0l0 -8l-20.35 0l0 -3.75l24.3 0l0 29.85l-3.95 0l0 -2.2l-20.35 0" />
</g>
<g id="PathID_1851" transform="matrix(0.627451, 0, 0, 0.627451, 194.45, 29.4)">
<path style="fill:#FFFFFF;fill-opacity:1" d="M41.4 -23.1q-10.55 21.95 -35.45 23.1q-1 2.6 -2 0.4l-1.6 -5.15q25.9 -0.6 34.9 -21.3l4.15 2.95M13.3 -23.1q-5.35 -4.95 -10.15 -8.15l3.4 -4.2q4.2 2.6 10.55 8.6l-3.8 3.75" />
</g>
</svg>
