<?xml version="1.0" encoding="utf-8"?>
<svg version="1.1" id="Layer_1"
xmlns="http://www.w3.org/2000/svg"
xmlns:xlink="http://www.w3.org/1999/xlink"
xmlns:author="http://www.sothink.com"
width="427px" height="43px"
xml:space="preserve">
<g id="PathID_1622" transform="matrix(0.627451, 0, 0, 0.627451, 2, 29.4)">
<path style="fill:#000000;fill-opacity:1" d="M4.95 -34.65l17.15 0l0 3.8l-13.35 0l0 0.6q-0.2 3.8 -0.6 7.35q-0.2 0.6 -0.2 1.2q2.6 -2.4 5.55 -2.4q4 0 6.6 2.6q2.8 2.8 2.8 8.2q0 6.75 -3.6 10.35q-2.8 2.8 -6.95 2.8q-4 0 -6.6 -2.6q-2.6 -2.6 -3.2 -7.8l4.6 0q0.4 3.8 2 5.4q1.2 1.2 3 1.2q2.35 0 3.75 -1.4q2.2 -2.2 2.2 -7.4q0 -4.95 -1.8 -6.75q-1.2 -1.2 -2.8 -1.2q-2.35 0 -4.15 1.8q-1.2 1.2 -1.6 1.8l-4 0q0.2 -0.8 0.2 -1.4l1 -15.35l0 -0.8" />
</g>
<g id="PathID_1623" transform="matrix(0.627451, 0, 0, 0.627451, 18, 29.4)">
<path style="fill:#000000;fill-opacity:1" d="M1.75 -23.1l5.6 0l5.55 7.2l0.4 0l5.6 -7.2l5.6 0l-8.8 10.55l9.95 11.8l-5.75 0l-6.4 -8.4l-0.4 0l-6.75 8.4l-5.8 0l10 -11.8l-8.8 -10.55" />
</g>
<g id="PathID_1624" transform="matrix(0.627451, 0, 0, 0.627451, 44.35, 29.4)">
<path style="fill:#000000;fill-opacity:1" d="M11.15 -29.45l3.35 0l0 9.75l9.8 0l0 3.2l-9.8 0l0 9.75l-3.35 0l0 -9.75l-9.8 0l0 -3.2l9.8 0l0 -9.75" />
</g>
<g id="PathID_1625" transform="matrix(0.627451, 0, 0, 0.627451, 70.1, 29.4)">
<path style="fill:#000000;fill-opacity:1" d="M3.35 -23.1q0 -6.15 3.2 -9.35q2.6 -2.6 6.2 -2.6q4.35 0 6.95 2.6q2.6 2.6 2.6 6.4q0 4.75 -3 8.35q-2.8 3.4 -5.8 6.55q-1.55 1.8 -3.15 3.6q-1.4 1.6 -2.4 3.2l14.95 0l0 3.8l-20.35 0l0 -3.4q0.4 -2 3.4 -5.6q5 -5.35 8.15 -8.95q3.4 -3.6 3.4 -7.55q0 -2.4 -1.6 -4q-1.2 -1.2 -3 -1.2q-1.55 0 -2.75 1.2q-2.2 2.2 -2.2 6.95l-4.6 0" />
</g>
<g id="PathID_1626" transform="matrix(0.627451, 0, 0, 0.627451, 95.85, 29.4)">
<path style="fill:#000000;fill-opacity:1" d="M1.35 -25.85l22.75 0l0 3.15l-22.75 0l0 -3.15M1.35 -13.7l22.75 0l0 3.15l-22.75 0l0 -3.15" />
</g>
<g id="PathID_1627" transform="matrix(0.627451, 0, 0, 0.627451, 121.6, 29.4)">
<path style="fill:#000000;fill-opacity:1" d="M11.55 -31.25q1.75 -1.8 1.95 -4l2.4 0l0 34.5l-4.55 0l0 -26.5l-6 0l0 -2.4l1.8 0q2.8 0 4.4 -1.6" />
</g>
<g id="PathID_1628" transform="matrix(0.627451, 0, 0, 0.627451, 137.6, 29.4)">
<path style="fill:#000000;fill-opacity:1" d="M3.35 -23.1q0 -6.15 3.2 -9.35q2.6 -2.6 6.2 -2.6q4.35 0 6.95 2.6q2.6 2.6 2.6 6.4q0 4.75 -3 8.35q-2.8 3.4 -5.8 6.55q-1.55 1.8 -3.15 3.6q-1.4 1.6 -2.4 3.2l14.95 0l0 3.8l-20.35 0l0 -3.4q0.4 -2 3.4 -5.6q5 -5.35 8.15 -8.95q3.4 -3.6 3.4 -7.55q0 -2.4 -1.6 -4q-1.2 -1.2 -3 -1.2q-1.55 0 -2.75 1.2q-2.2 2.2 -2.2 6.95l-4.6 0" />
</g>
</svg>
