<?xml version="1.0" encoding="utf-8"?>
<svg version="1.1" id="Layer_1"
xmlns="http://www.w3.org/2000/svg"
xmlns:xlink="http://www.w3.org/1999/xlink"
xmlns:author="http://www.sothink.com"
width="32px" height="60px"
xml:space="preserve">
<g id="PathID_1105" transform="matrix(0.941176, 0, 0, 0.941176, 2, 43.1)">
<path style="fill:#333300;fill-opacity:1" d="M3.35 -23.1q0 -6.15 3.2 -9.35q2.6 -2.6 6.2 -2.6q4.35 0 6.95 2.6q2.6 2.6 2.6 6.4q0 4.75 -3 8.35q-2.8 3.4 -5.8 6.55q-1.55 1.8 -3.15 3.6q-1.4 1.6 -2.4 3.2l14.95 0l0 3.8l-20.35 0l0 -3.4q0.4 -2 3.4 -5.6q5 -5.35 8.15 -8.95q3.4 -3.6 3.4 -7.55q0 -2.4 -1.6 -4q-1.2 -1.2 -3 -1.2q-1.55 0 -2.75 1.2q-2.2 2.2 -2.2 6.95l-4.6 0" />
</g>
</svg>
