<?xml version="1.0" encoding="utf-8"?>
<svg version="1.1" id="Layer_1"
xmlns="http://www.w3.org/2000/svg"
xmlns:xlink="http://www.w3.org/1999/xlink"
xmlns:author="http://www.sothink.com"
width="8px" height="8px"
xml:space="preserve">
<g id="347" transform="matrix(1, 0, 0, 1, 4, 4)">
<path style="fill:#000000;fill-opacity:1" d="M4,0Q4 1.7 2.8 2.8Q1.7 4 0 4Q-1.7 4 -2.9 2.8Q-4 1.7 -4 0Q-4 -1.65 -2.9 -2.85Q-1.7 -4 0 -4Q1.7 -4 2.8 -2.85Q4 -1.65 4 0" />
<path style="fill:none;stroke-width:0.05;stroke-linecap:round;stroke-linejoin:round;stroke-miterlimit:3;stroke:#000000;stroke-opacity:1" d="M4,0Q4 1.7 2.8 2.8Q1.7 4 0 4Q-1.7 4 -2.9 2.8Q-4 1.7 -4 0Q-4 -1.65 -2.9 -2.85Q-1.7 -4 0 -4Q1.7 -4 2.8 -2.85Q4 -1.65 4 0z" />
</g>
</svg>
