<?xml version="1.0" encoding="utf-8"?>
<svg version="1.1" id="Layer_1"
xmlns="http://www.w3.org/2000/svg"
xmlns:xlink="http://www.w3.org/1999/xlink"
xmlns:author="http://www.sothink.com"
width="113px" height="35px"
xml:space="preserve">
<g id="334" transform="matrix(1, 0, 0, 1, 56.5, 7.95)">
<path style="fill:none;stroke-width:1;stroke-linecap:round;stroke-linejoin:round;stroke-miterlimit:3;stroke:#000000;stroke-opacity:1" d="M54.95,-4.85L56 -7.35M-56,-7.45L-54.7 -4.75M-2.8,26.1L-0.25 26.15L1.8 26.15M-12.8,25.2L-7.75 25.85M-22.7,22.8L-17.8 24.2M-32.05,18.8L-27.5 21M-40.4,13.2L-36.35 16.2M-47.55,6.25L-44.65 9.35L-44.15 9.85M43.25,10.55L44.45 9.35L46.4 7.35M35.15,16.75L39.3 13.85M26.2,21.35L30.8 19.25M16.65,24.35L21.5 23.05M6.8,25.9L11.8 25.3M49.65,3.55L52.55 -0.45M-53.5,-2.1L-50.7 2.25" />
</g>
</svg>
