<?xml version="1.0" encoding="utf-8"?>
<svg version="1.1" id="Layer_1"
xmlns="http://www.w3.org/2000/svg"
xmlns:xlink="http://www.w3.org/1999/xlink"
xmlns:author="http://www.sothink.com"
width="20px" height="41px"
xml:space="preserve">
<g id="155" transform="matrix(1, 0, 0, 1, 0, 0)">
<path style="fill:#000000;fill-opacity:1" d="M0.85,8.25L4.5 8.1L4.3 2.9L0.85 8.25M4.55,8.9L0.05 9.1L0 8.3L4.4 1.5L5.2 1.45L5.45 8.05L6.8 8L6.85 8.8L5.5 8.85L5.6 11.25L4.65 11.3L4.55 8.9" />
<path style="fill:#000000;fill-opacity:1" d="M17.95,1.2Q18.55 3.55 19.8 5.1L19.3 5.55Q18.2 4.1 17.35 1.45L17.95 1.2M16.1,0L16.4 6.8Q16.4 7.65 15.65 7.65L14.15 7.7L14 7L15.45 6.95L15.65 6.5L15.4 0L16.1 0M12.4,5.8Q13.5 3.75 13.6 1.45L14.3 1.6Q14.05 4.15 13.15 6.1L12.4 5.8M12.4,11.15Q16.7 10.1 18.55 6.05L19.15 6.35Q18.1 8.45 16.7 9.65Q15.1 11.1 12.65 11.75L12.4 11.15M12.35,7.65L11 5.65L11.2 11.8L10.55 11.8L10.35 5.85Q9.2 8.45 8.5 9.15L8.1 8.5L9.65 5.9L10.25 4.15L8.05 4.25L8.05 3.65L10.25 3.55L10.15 1.4L8.15 1.7L7.95 1.15Q10.35 0.85 12 0.2L12.3 0.75L10.8 1.25L10.9 3.55L12.5 3.5L12.5 4.1L10.9 4.15L10.95 4.4Q11.55 5.8 12.75 7L12.35 7.65" />
<path style="fill:#000000;fill-opacity:1" d="M10.35,14.8L10.35 14.85Q10.35 15.3 9.95 15.3Q9.5 15.3 9.5 14.85L9.5 14.8Q9.45 14.4 9.9 14.4Q10.3 14.4 10.35 14.8M10.45,18L10.45 18.1Q10.5 18.4 10.1 18.4Q9.65 18.4 9.6 18.1L9.6 18Q9.6 17.6 10.05 17.6Q10.45 17.6 10.45 18M10.6,21.15L10.6 21.25Q10.6 21.65 10.2 21.65Q9.75 21.65 9.75 21.25L9.75 21.15Q9.75 20.75 10.2 20.75Q10.6 20.75 10.6 21.15M10.7,24.35L10.7 24.45L10.35 24.8Q9.9 24.8 9.85 24.45L9.85 24.35Q9.85 23.95 10.3 23.95Q10.7 23.95 10.7 24.35M10.85,27.5L10.85 27.6Q10.85 28 10.45 28Q10 28 10 27.6L10 27.5Q10 27.1 10.45 27.1Q10.85 27.1 10.85 27.5M10.95,30.75L10.95 30.8L10.6 31.15L10.1 30.8L10.1 30.75Q10.1 30.3 10.55 30.3Q10.95 30.3 10.95 30.75M11.1,33.9L11.1 33.95Q11.1 34.35 10.7 34.35Q10.25 34.35 10.25 33.95L10.25 33.9Q10.25 33.45 10.7 33.45Q11.1 33.45 11.1 33.9M11.2,37.1L11.2 37.15L10.85 37.5L10.35 37.15L10.35 37.1Q10.35 36.7 10.8 36.7Q11.2 36.7 11.2 37.1M11.35,40.25L11.35 40.3Q11.35 40.7 10.95 40.7Q10.5 40.7 10.5 40.3L10.5 40.25Q10.5 39.85 10.95 39.85Q11.35 39.85 11.35 40.25" />
</g>
</svg>
