<?xml version="1.0" encoding="utf-8"?>
<svg version="1.1" id="Layer_1"
xmlns="http://www.w3.org/2000/svg"
xmlns:xlink="http://www.w3.org/1999/xlink"
xmlns:author="http://www.sothink.com"
width="9px" height="7px"
xml:space="preserve">
<g id="111" transform="matrix(1, 0, 0, 1, -495.5, -81.7)">
<path style="fill:#000000;fill-opacity:1" d="M496.3,88.45L495.55 88.45L495.5 81.95L496.3 81.95L496.35 82.9Q496.95 81.75 498.35 81.7Q499.7 81.75 500.3 83.05Q500.85 81.75 502.35 81.7Q504.35 81.7 504.45 84.25L504.45 88.45L503.7 88.45L503.7 83.9Q503.65 82.4 502.3 82.4Q501.4 82.45 500.75 83.1Q500.35 83.85 500.4 84.95L500.35 88.45L499.6 88.45L499.65 83.95Q499.6 82.4 498.2 82.4Q497.3 82.45 496.75 83.15Q496.25 83.75 496.3 84.95L496.3 88.45" />
</g>
</svg>
