<?xml version="1.0" encoding="utf-8"?>
<svg version="1.1" id="Layer_1"
xmlns="http://www.w3.org/2000/svg"
xmlns:xlink="http://www.w3.org/1999/xlink"
xmlns:author="http://www.sothink.com"
width="9px" height="7px"
xml:space="preserve">
<g id="112" transform="matrix(1, 0, 0, 1, -594.45, -81.15)">
<path style="fill:#000000;fill-opacity:1" d="M595.3,87.9L594.45 87.85L594.5 81.35L595.25 81.35L595.15 82.35L595.25 82.35Q595.85 81.1 597.3 81.15Q598.65 81.2 599.2 82.4Q599.9 81.15 601.35 81.15Q603.4 81.15 603.35 83.75L603.35 87.85L602.6 87.9L602.55 83.35Q602.65 81.8 601.2 81.85Q600.3 81.9 599.75 82.6Q599.25 83.15 599.3 84.4L599.3 87.9L598.55 87.9L598.5 83.4Q598.6 81.8 597.1 81.85Q596.2 81.9 595.65 82.6Q595.35 83 595.2 84.35L595.3 87.9" />
</g>
</svg>
