<?xml version="1.0" encoding="utf-8"?>
<svg version="1.1" id="Layer_1"
xmlns="http://www.w3.org/2000/svg"
xmlns:xlink="http://www.w3.org/1999/xlink"
xmlns:author="http://www.sothink.com"
width="402px" height="29px"
xml:space="preserve">
<g id="109" transform="matrix(1, 0, 0, 1, -400, -59.6)">
<path style="fill:#000000;fill-opacity:1" d="M793.5,88.4L792.75 88.4L792.7 81.9L793.45 81.85L793.5 82.8Q794.15 81.7 795.5 81.65Q796.95 81.65 797.4 82.9Q798.1 81.7 799.55 81.65Q801.6 81.6 801.55 84.2L801.6 88.35L800.85 88.35L800.85 83.85Q800.8 82.35 799.45 82.3Q798.55 82.3 797.95 83.05Q797.5 83.75 797.55 84.85L797.5 88.3L796.75 88.35L796.75 83.85Q796.85 82.35 795.4 82.35Q794.4 82.4 793.9 83.05Q793.45 83.6 793.5 84.85L793.5 88.4" />
<path style="fill:#000000;fill-opacity:1" d="M500.8,59.7L500.85 77.1L500.1 77.1L500 59.65L500.8 59.7" />
<path style="fill:#000000;fill-opacity:1" d="M400.75,59.6L400.9 77.1L400.1 77.1L400 59.65L400.75 59.6" />
<path style="fill:#000000;fill-opacity:1" d="M600.85,59.7L600.85 77.1L600.1 77.15L600 59.75L600.85 59.7" />
<path style="fill:#000000;fill-opacity:1" d="M700.75,59.75L700.85 77.2L700.05 77.15L700 59.75L700.75 59.75" />
<path style="fill:#000000;fill-opacity:1" d="M800.75,59.8L800.8 77.25L800.05 77.3L799.95 59.8L800.75 59.8" />
</g>
</svg>
