<?xml version="1.0" encoding="utf-8"?>
<svg version="1.1" id="Layer_1"
xmlns="http://www.w3.org/2000/svg"
xmlns:xlink="http://www.w3.org/1999/xlink"
xmlns:author="http://www.sothink.com"
width="414px" height="30px"
xml:space="preserve">
<g id="103" transform="matrix(1, 0, 0, 1, 8.2, -59.15)">
<path style="fill:#000000;fill-opacity:1" d="M20.75,59.55L20.8 69.35L20.05 69.35L20 59.6L20.75 59.55" />
<path style="fill:#000000;fill-opacity:1" d="M0.75,59.15L0.9 76.65L0.1 76.65L0 59.2L0.75 59.15" />
<path style="fill:#000000;fill-opacity:1" d="M-1.5,83.95Q-1.6 88.95 -4.85 88.95Q-8.3 88.95 -8.2 83.85Q-8.3 78.85 -4.95 78.85Q-1.6 78.8 -1.5 83.95M-4.95,79.6Q-7.4 79.6 -7.35 83.95Q-7.3 88.15 -4.85 88.15Q-2.4 88.15 -2.4 83.8Q-2.45 79.55 -4.95 79.6" />
<path style="fill:#000000;fill-opacity:1" d="M0.6,88.2L-0.15 88.2Q-0.1 85 -0.2 81.7L0.55 81.65L0.6 82.65Q1.25 81.4 2.6 81.5Q4.05 81.45 4.5 82.75Q5.2 81.45 6.65 81.45Q8.7 81.5 8.65 84L8.7 88.2L7.95 88.1L8 83.6Q7.95 82.1 6.55 82.15Q5.7 82.05 5.05 82.9Q4.65 83.5 4.7 84.65L4.65 88.2L3.9 88.2L3.9 83.6Q3.95 82.1 2.55 82.1Q1.5 82.15 1.05 82.95Q0.6 83.4 0.55 84.65L0.6 88.2" />
<path style="fill:#000000;fill-opacity:1" d="M190.45,81.35Q190.45 79.8 191.3 79Q192.15 78.05 193.55 78.1Q195 78.1 195.85 78.85Q196.65 79.55 196.7 80.8Q196.7 82.45 195.1 83.55Q193.05 84.65 192.35 85.25Q191.2 86.25 191.05 87.2L196.65 87.2L196.65 87.95L190.15 88Q190.2 86.5 190.9 85.55Q191.6 84.7 194.05 83.15Q195.7 82.15 195.7 80.85Q195.7 79.9 195.05 79.4Q194.45 78.85 193.45 78.85Q192.6 78.9 191.9 79.55Q191.35 80.35 191.4 81.35L190.45 81.35" />
<path style="fill:#000000;fill-opacity:1" d="M198.9,87.45L198.05 87.4L198.1 80.9L198.85 80.9L198.75 81.9L198.85 81.9Q199.45 80.65 200.9 80.7Q202.25 80.75 202.8 81.95Q203.5 80.7 204.95 80.7Q207 80.7 206.95 83.3L206.95 87.4L206.2 87.45L206.15 82.9Q206.25 81.35 204.8 81.4Q203.9 81.45 203.35 82.15Q202.85 82.7 202.9 83.95L202.9 87.45L202.15 87.45L202.1 82.95Q202.2 81.35 200.7 81.4Q199.8 81.45 199.25 82.15Q198.95 82.55 198.8 83.9L198.9 87.45" />
<path style="fill:#000000;fill-opacity:1" d="M291.9,82.75Q294.7 82.75 294.75 80.8Q294.75 79.95 294.15 79.5Q293.45 79.05 292.6 79.1Q291.7 79.05 291.1 79.7Q290.5 80.25 290.5 81.2L289.6 81.2Q289.55 79.95 290.5 78.95Q291.35 78.25 292.8 78.35Q295.6 78.35 295.6 80.75Q295.65 82.3 294.15 83Q295.9 83.45 295.95 85.4Q295.95 86.7 295.2 87.5Q294.35 88.4 292.8 88.4Q291 88.4 290.25 87.75Q289.45 87.05 289.25 85.35L290.15 85.35Q290.15 86.45 290.8 87.1Q291.5 87.7 292.65 87.65Q293.7 87.65 294.4 86.95Q295.15 86.3 295.1 85.45Q295 83.2 291.9 83.4L291.9 82.75" />
<path style="fill:#000000;fill-opacity:1" d="M298.2,87.75L297.45 87.65L297.4 81.15L298.15 81.1L298.2 82.15Q298.85 80.9 300.2 81Q301.65 80.95 302.1 82.2Q302.8 80.95 304.25 81Q306.3 80.95 306.25 83.55L306.25 87.65L305.5 87.65L305.55 83.2Q305.5 81.6 304.15 81.65Q303.3 81.6 302.65 82.4Q302.15 82.95 302.2 84.1L302.25 87.65L301.45 87.65L301.45 83.15Q301.5 81.65 300.05 81.7Q299.1 81.65 298.6 82.4Q298.2 82.9 298.1 84.1L298.2 87.75" />
<path style="fill:#000000;fill-opacity:1" d="M389.05,85.3L392.75 85.3L392.7 80L389.05 85.3M392.75,86.05L388.2 86.05L388.15 85.2L392.75 78.7L393.6 78.65L393.65 85.25L395 85.25L395 86L393.6 86.05L393.65 88.45L392.75 88.5L392.75 86.05" />
<path style="fill:#000000;fill-opacity:1" d="M397.1,87.95L396.35 87.95L396.3 81.45L397.05 81.4L397.1 82.35Q397.75 81.25 399.1 81.2Q400.55 81.2 401 82.45Q401.7 81.25 403.15 81.2Q405.2 81.15 405.15 83.75L405.2 87.9L404.45 87.9L404.45 83.4Q404.4 81.9 403.05 81.85Q402.15 81.85 401.55 82.6Q401.1 83.3 401.15 84.4L401.1 87.85L400.35 87.9L400.35 83.4Q400.45 81.9 399 81.9Q398 81.95 397.5 82.6Q397.05 83.15 397.1 84.4L397.1 87.95" />
<path style="fill:#000000;fill-opacity:1" d="M94.75,81.25L92.2 81.25L92.15 80.65L94 80.2Q94.75 79.85 94.9 78.7L95.65 78.65L95.75 88.55L94.8 88.55L94.75 81.25" />
<path style="fill:#000000;fill-opacity:1" d="M99.9,88L99.15 88L99.1 81.5L99.9 81.5L99.95 82.45Q100.55 81.3 101.95 81.25Q103.3 81.3 103.9 82.6Q104.45 81.3 105.95 81.25Q107.95 81.25 108.05 83.8L108.05 88L107.3 88L107.3 83.45Q107.25 81.95 105.9 81.95Q105 82 104.35 82.65Q103.95 83.4 104 84.5L103.95 88L103.2 88L103.25 83.5Q103.2 81.95 101.8 81.95Q100.9 82 100.35 82.7Q99.85 83.3 99.9 84.5L99.9 88" />
<path style="fill:#000000;fill-opacity:1" d="M100.8,59.25L100.85 76.65L100.1 76.65L100 59.2L100.8 59.25" />
<path style="fill:#000000;fill-opacity:1" d="M0.75,59.15L0.9 76.65L0.1 76.65L0 59.2L0.75 59.15" />
<path style="fill:#000000;fill-opacity:1" d="M200.85,59.25L200.85 76.65L200.1 76.7L200 59.3L200.85 59.25" />
<path style="fill:#000000;fill-opacity:1" d="M300.75,59.3L300.85 76.75L300.05 76.7L300 59.3L300.75 59.3" />
</g>
</svg>
