<?xml version="1.0" encoding="utf-8"?>
<svg version="1.1" id="Layer_1"
xmlns="http://www.w3.org/2000/svg"
xmlns:xlink="http://www.w3.org/1999/xlink"
xmlns:author="http://www.sothink.com"
width="183px" height="33px"
xml:space="preserve">
<g id="157" transform="matrix(1, 0, 0, 1, 1.5, -23)">
<path style="fill:none;stroke-width:3;stroke-linecap:round;stroke-linejoin:round;stroke-miterlimit:3;stroke:#000000;stroke-opacity:1" d="M180,24.5L180 40M150,30.5L150 40M90,30.5L90 40M60,30.5L60 40M30,30.5L30 40M0,24.5L0 40" />
<path style="fill:none;stroke-width:3;stroke-linecap:butt;stroke-linejoin:round;stroke-miterlimit:3;stroke:#000000;stroke-opacity:1" d="M180,40L180 54.5M120,40L120 30.5M150,40L150 50.5M90,40L90 50.5M120,40L120 50.5M60,40L60 50.5M30,40L30 50.5M0,40L0 54.5" />
<path style="fill:none;stroke-width:3;stroke-linecap:round;stroke-linejoin:round;stroke-miterlimit:3;stroke:#000000;stroke-opacity:1" d="M0,40L30 40L60 40L90 40L120 40L150 40L180 40" />
</g>
</svg>
