<?xml version="1.0" encoding="utf-8"?>
<svg version="1.1" id="Layer_1"
xmlns="http://www.w3.org/2000/svg"
xmlns:xlink="http://www.w3.org/1999/xlink"
xmlns:author="http://www.sothink.com"
width="803px" height="53px"
xml:space="preserve">
<g id="110" transform="matrix(1, 0, 0, 1, 22.1, -59.55)">
<path style="fill:#000000;fill-opacity:1" d="M40.75,59.55L40.8 69.35L40.05 69.35L40 59.6L40.75 59.55" />
<path style="fill:#000000;fill-opacity:1" d="M60.75,59.55L60.8 69.35L60.05 69.35L60 59.6L60.75 59.55" />
<path style="fill:#000000;fill-opacity:1" d="M80.75,59.55L80.8 69.35L80.05 69.35L80 59.6L80.75 59.55" />
<path style="fill:#000000;fill-opacity:1" d="M120.75,59.55L120.8 69.35L120.05 69.35L120 59.6L120.75 59.55" />
<path style="fill:#000000;fill-opacity:1" d="M140.75,59.55L140.8 69.35L140.05 69.35L140 59.6L140.75 59.55" />
<path style="fill:#000000;fill-opacity:1" d="M160.75,59.55L160.8 69.35L160.05 69.35L160 59.6L160.75 59.55" />
<path style="fill:#000000;fill-opacity:1" d="M180.75,59.55L180.8 69.35L180.05 69.35L180 59.6L180.75 59.55" />
<path style="fill:#000000;fill-opacity:1" d="M220.75,59.55L220.8 69.35L220.05 69.35L220 59.6L220.75 59.55" />
<path style="fill:#000000;fill-opacity:1" d="M240.75,59.55L240.8 69.35L240.05 69.35L240 59.6L240.75 59.55" />
<path style="fill:#000000;fill-opacity:1" d="M260.75,59.55L260.8 69.35L260.05 69.35L260 59.6L260.75 59.55" />
<path style="fill:#000000;fill-opacity:1" d="M280.75,59.55L280.8 69.35L280.05 69.35L280 59.6L280.75 59.55" />
<path style="fill:#000000;fill-opacity:1" d="M320.75,59.55L320.8 69.35L320.05 69.35L320 59.6L320.75 59.55" />
<path style="fill:#000000;fill-opacity:1" d="M340.75,59.55L340.8 69.35L340.05 69.35L340 59.6L340.75 59.55" />
<path style="fill:#000000;fill-opacity:1" d="M360.75,59.55L360.8 69.35L360.05 69.35L360 59.6L360.75 59.55" />
<path style="fill:#000000;fill-opacity:1" d="M380.75,59.55L380.8 69.35L380.05 69.35L380 59.6L380.75 59.55" />
<path style="fill:#000000;fill-opacity:1" d="M420.75,59.55L420.8 69.35L420.05 69.35L420 59.6L420.75 59.55" />
<path style="fill:#000000;fill-opacity:1" d="M440.75,59.55L440.8 69.35L440.05 69.35L440 59.6L440.75 59.55" />
<path style="fill:#000000;fill-opacity:1" d="M460.75,59.55L460.8 69.35L460.05 69.35L460 59.6L460.75 59.55" />
<path style="fill:#000000;fill-opacity:1" d="M480.75,59.55L480.8 69.35L480.05 69.35L480 59.6L480.75 59.55" />
<path style="fill:#000000;fill-opacity:1" d="M520.75,59.55L520.8 69.35L520.05 69.35L520 59.6L520.75 59.55" />
<path style="fill:#000000;fill-opacity:1" d="M540.75,59.55L540.8 69.35L540.05 69.35L540 59.6L540.75 59.55" />
<path style="fill:#000000;fill-opacity:1" d="M560.75,59.55L560.8 69.35L560.05 69.35L560 59.6L560.75 59.55" />
<path style="fill:#000000;fill-opacity:1" d="M580.75,59.55L580.8 69.35L580.05 69.35L580 59.6L580.75 59.55" />
<path style="fill:#000000;fill-opacity:1" d="M620.75,59.55L620.8 69.35L620.05 69.35L620 59.6L620.75 59.55" />
<path style="fill:#000000;fill-opacity:1" d="M640.75,59.55L640.8 69.35L640.05 69.35L640 59.6L640.75 59.55" />
<path style="fill:#000000;fill-opacity:1" d="M660.75,59.55L660.8 69.35L660.05 69.35L660 59.6L660.75 59.55" />
<path style="fill:#000000;fill-opacity:1" d="M680.75,59.55L680.8 69.35L680.05 69.35L680 59.6L680.75 59.55" />
<path style="fill:#000000;fill-opacity:1" d="M720.75,59.55L720.8 69.35L720.05 69.35L720 59.6L720.75 59.55" />
<path style="fill:#000000;fill-opacity:1" d="M740.75,59.55L740.8 69.35L740.05 69.35L740 59.6L740.75 59.55" />
<path style="fill:#000000;fill-opacity:1" d="M760.75,59.55L760.8 69.35L760.05 69.35L760 59.6L760.75 59.55" />
<path style="fill:#000000;fill-opacity:1" d="M780.75,59.55L780.8 69.35L780.05 69.35L780 59.6L780.75 59.55" />
<path style="fill:none;stroke-width:3;stroke-linecap:butt;stroke-linejoin:round;stroke-miterlimit:3;stroke:#9A7D4C;stroke-opacity:1" d="M-20.6,110.7L765.65 78.65" />
</g>
</svg>
