<?xml version="1.0" encoding="utf-8"?>
<svg version="1.1" id="Layer_1"
xmlns="http://www.w3.org/2000/svg"
xmlns:xlink="http://www.w3.org/1999/xlink"
xmlns:author="http://www.sothink.com"
width="355px" height="37px"
xml:space="preserve">
<g id="94" transform="matrix(1, 0, 0, 1, -243.8, -305.15)">
<path style="fill:#FF0000;fill-opacity:1" d="M318.05,314.5L318.6 314.55L318.85 307.75L318.3 307.7L383.4 310.3L384.75 310.45L385.65 310.4L386 310.4L386.95 310.5L387.45 310.45L389 310.6L389.5 310.55L390.75 310.6L390.55 310.6L390.35 317.4L390.9 317.45L391.15 310.65L477.3 314.1L476.85 326.5L477.45 326.55L477.9 314.1L598.1 318.9L598.1 341.7L243.8 341.7L243.8 305.15L254.45 305.15L274.9 306L274.7 312.8L275.25 312.8L275.5 306L318.3 307.7L318.05 314.5" />
</g>
</svg>
