<?xml version="1.0" encoding="utf-8"?>
<svg version="1.1" id="Layer_1"
xmlns="http://www.w3.org/2000/svg"
xmlns:xlink="http://www.w3.org/1999/xlink"
xmlns:author="http://www.sothink.com"
width="9px" height="7px"
xml:space="preserve">
<g id="113" transform="matrix(1, 0, 0, 1, -693.8, -81.45)">
<path style="fill:#000000;fill-opacity:1" d="M694.6,88.2L693.85 88.1L693.8 81.6L694.55 81.55L694.6 82.6Q695.25 81.35 696.6 81.45Q698.05 81.4 698.5 82.65Q699.2 81.4 700.65 81.45Q702.7 81.4 702.65 84L702.65 88.1L701.9 88.1L701.95 83.65Q701.9 82.05 700.55 82.1Q699.7 82.05 699.05 82.85Q698.55 83.4 698.6 84.55L698.65 88.1L697.85 88.1L697.85 83.6Q697.9 82.1 696.45 82.15Q695.5 82.1 695 82.85Q694.6 83.35 694.5 84.55L694.6 88.2" />
</g>
</svg>
