<?xml version="1.0" encoding="utf-8"?>
<svg version="1.1" id="Layer_1"
xmlns="http://www.w3.org/2000/svg"
xmlns:xlink="http://www.w3.org/1999/xlink"
xmlns:author="http://www.sothink.com"
width="20px" height="35px"
xml:space="preserve">
<g id="154" transform="matrix(1, 0, 0, 1, 0, 0)">
<path style="fill:#000000;fill-opacity:1" d="M2.45,5.95Q5.35 5.85 5.25 3.9Q5.2 2.2 3.1 2.25Q2.1 2.3 1.55 2.85Q1 3.5 1 4.5L0.1 4.55Q0.05 3.15 1.05 2.2Q1.75 1.5 3.25 1.45Q6.05 1.35 6.15 3.8Q6.2 5.35 4.8 6.05Q6.6 6.6 6.7 8.45Q6.75 9.75 5.9 10.55Q5.05 11.45 3.65 11.55Q1.85 11.6 1.05 11Q0.15 10.35 0 8.65L0.85 8.6Q0.9 10.9 3.4 10.8Q4.45 10.75 5.15 10.05Q5.85 9.35 5.8 8.45Q5.6 6.35 2.45 6.6L2.45 5.95" />
<path style="fill:#000000;fill-opacity:1" d="M17.85,1.2Q18.5 3.55 19.75 5.1L19.25 5.6Q18.15 4.1 17.3 1.45L17.85 1.2M16.05,0L16.35 6.8Q16.35 7.65 15.6 7.65L14.1 7.75L13.95 7.05L15.4 7Q15.65 6.95 15.6 6.5L15.35 0L16.05 0M12.3,5.8Q13.45 3.75 13.55 1.45L14.3 1.6Q13.9 4.25 13.05 6.1L12.3 5.8M12.4,11.15Q16.65 10.1 18.5 6.05L19.1 6.4Q18.05 8.5 16.65 9.7Q15.05 11.1 12.6 11.75L12.4 11.15M12.3,7.65Q11.6 6.95 10.95 5.65L11.15 11.8L10.45 11.85L10.25 5.9Q9.15 8.5 8.45 9.15L8.05 8.5L9.6 5.9L10.15 4.2L8 4.25L8 3.65L10.15 3.6L10.05 1.45L8.1 1.7L7.9 1.15Q10.5 0.85 11.95 0.2L12.25 0.75L10.75 1.25L10.85 3.55L12.45 3.5L12.45 4.1L10.85 4.15L10.9 4.4Q11.5 5.85 12.7 7.05L12.3 7.65" />
<path style="fill:#000000;fill-opacity:1" d="M10.3,14.8L10.3 14.85L9.85 15.3Q9.45 15.35 9.45 14.9L9.45 14.85Q9.4 14.45 9.8 14.4Q10.25 14.4 10.3 14.8M10.4,18L10.4 18.1Q10.45 18.4 10 18.4Q9.6 18.45 9.55 18.15L9.55 18.05Q9.55 17.65 9.95 17.6Q10.4 17.6 10.4 18M10.55,21.15L10.55 21.25L10.1 21.65Q9.7 21.7 9.7 21.3L9.7 21.2Q9.7 20.8 10.1 20.75L10.55 21.15M10.65,24.35L10.65 24.45Q10.7 24.8 10.25 24.8Q9.85 24.85 9.8 24.5L9.8 24.4Q9.8 24 10.2 23.95Q10.65 23.95 10.65 24.35M10.8,27.5L10.8 27.6L10.35 28Q9.95 28.05 9.95 27.65L9.95 27.55Q9.95 27.15 10.35 27.1Q10.8 27.1 10.8 27.5M10.9,30.75L10.9 30.8L10.5 31.15Q10.1 31.2 10.05 30.85L10.05 30.8Q10.05 30.35 10.45 30.3Q10.9 30.3 10.9 30.75M11.05,33.9L11.05 33.95Q11.05 34.35 10.6 34.35Q10.2 34.4 10.2 34L10.2 33.95Q10.2 33.5 10.6 33.45Q11.05 33.45 11.05 33.9" />
</g>
</svg>
