<?xml version="1.0" encoding="utf-8"?>
<svg version="1.1" id="Layer_1"
xmlns="http://www.w3.org/2000/svg"
xmlns:xlink="http://www.w3.org/1999/xlink"
xmlns:author="http://www.sothink.com"
width="19px" height="29px"
xml:space="preserve">
<g id="152" transform="matrix(1, 0, 0, 1, 0, 0)">
<path style="fill:#000000;fill-opacity:1" d="M2.6,4.05L0 4.15L0 3.5L1.8 3.1Q2.45 2.6 2.65 1.4L3.4 1.4L3.8 11.3L2.9 11.35L2.6 4.05" />
<path style="fill:#000000;fill-opacity:1" d="M16.9,1.2Q17.65 3.8 18.8 5.1L18.3 5.55Q17.2 4.1 16.35 1.45L16.9 1.2M11.35,11.15Q15.5 10.15 17.55 6.05L18.15 6.35Q17 8.45 15.7 9.65Q14.1 11.1 11.65 11.75L11.35 11.15M15.1,0L15.4 6.8Q15.4 7.65 14.65 7.65L13.05 7.7L13 7L14.35 6.95Q14.7 6.95 14.65 6.5L14.4 0L15.1 0M11.3,7.65L9.95 5.65L10.15 11.8L9.5 11.8L9.3 5.85L7.45 9.15L7.1 8.5L8.65 5.9L9.2 4.15L7.05 4.25L7.05 3.65L9.2 3.55L9.1 1.4L7.05 1.7L6.95 1.15L11 0.2L11.3 0.75L9.75 1.25L9.85 3.55L11.5 3.5L11.5 4.1L9.85 4.15L9.9 4.4Q10.75 5.95 11.75 7L11.3 7.65M11.35,5.8Q12.35 3.9 12.55 1.45L13.25 1.6Q12.9 4.5 12.05 6.1L11.35 5.8" />
<path style="fill:#000000;fill-opacity:1" d="M7.75,14.85L7.75 14.9Q7.75 15.35 7.35 15.35Q6.95 15.35 6.95 14.9L6.95 14.85Q6.9 14.45 7.3 14.45Q7.7 14.45 7.75 14.85M7.85,18.05L7.85 18.15L7.5 18.45L7.05 18.15L7.05 18.05Q7.05 17.65 7.45 17.65Q7.85 17.65 7.85 18.05M8,21.2L8 21.3Q8 21.7 7.6 21.7Q7.2 21.7 7.2 21.3L7.2 21.2Q7.2 20.8 7.6 20.8Q8 20.8 8 21.2M8.1,24.4L8.1 24.5L7.75 24.85Q7.35 24.85 7.3 24.5L7.3 24.4Q7.3 24 7.7 24Q8.1 24 8.1 24.4M8.25,27.55L8.25 27.65Q8.25 28.05 7.85 28.05Q7.45 28.05 7.45 27.65L7.45 27.55Q7.45 27.15 7.85 27.15Q8.25 27.15 8.25 27.55" />
</g>
</svg>
