<?xml version="1.0" encoding="utf-8"?>
<svg version="1.1" id="Layer_1"
xmlns="http://www.w3.org/2000/svg"
xmlns:xlink="http://www.w3.org/1999/xlink"
xmlns:author="http://www.sothink.com"
width="139px" height="22px"
xml:space="preserve">
<g id="PathID_1285" transform="matrix(0.0196078, 0, 0, 0.0196078, -1.25, 17.9)">
<path style="fill:#231815;fill-opacity:1" d="M564 -244l-96 0q12 296 -380 340l-28 -88q332 -28 324 -252l-96 0l0 40l-80 0l0 -588l612 0l0 588l-80 0l0 -40l-96 0l0 204q0 32 28 32l144 0q36 0 48 -32l12 -60l88 24l-16 68q-16 76 -96 76l-216 0q-72 0 -72 -68l0 -244M288 -320l452 0l0 -88l-452 0l0 88M288 -484l452 0l0 -76l-452 0l0 76M288 -636l452 0l0 -80l-452 0l0 80" />
</g>
<g id="PathID_1286" transform="matrix(0.0196078, 0, 0, 0.0196078, 18.75, 17.9)">
<path style="fill:#231815;fill-opacity:1" d="M156 -700l-80 0l0 -76l516 0l0 76l-120 0l0 776l-80 0l0 -204q-168 60 -284 88q-20 28 -24 12l-24 -100q48 -8 96 -16l0 -556M500 -4q124 -84 192 -176q-100 -148 -128 -396l-48 0l0 -76l344 0l16 -20l68 64l-20 12q-28 244 -128 420q64 84 168 148l-48 84q-104 -80 -172 -164q-80 92 -188 180l-56 -76M740 -248q64 -96 96 -328l-196 0q20 188 100 328M236 -700l0 136l156 0l0 -136l-156 0M236 -500l0 132l156 0l0 -132l-156 0M236 -304l0 144q76 -16 156 -44l0 -100l-156 0" />
</g>
<g id="PathID_1287" transform="matrix(0.0196078, 0, 0, 0.0196078, 38.75, 17.9)">
<path style="fill:#231815;fill-opacity:1" d="M516 -488q-32 -80 -84 -144l68 -40q64 72 88 140l-72 44M840 -708l-656 0l0 660l656 0l0 -660M840 68l0 -40l-656 0l0 48l-80 0l0 -860l816 0l0 852l-80 0M592 -300q104 52 196 124l-64 76q-88 -76 -192 -128q-92 92 -260 156l-52 -72q160 -64 236 -128q-92 -48 -208 -96l52 -64q96 36 216 92q92 -108 164 -316l88 36q32 8 -12 28q-76 192 -164 292M340 -628q52 60 88 140l-72 44q-32 -80 -84 -144l68 -40" />
</g>
<g id="PathID_1288" transform="matrix(0.0196078, 0, 0, 0.0196078, 58.75, 17.9)">
<path style="fill:#231815;fill-opacity:1" d="M416 -464q48 -16 92 -16q52 0 84 32q24 24 28 88q120 -44 272 -92l28 96q-156 24 -292 76l0 176l-80 0l0 -144q-120 56 -156 92q-44 44 -44 88q0 24 24 48q28 28 108 28l336 0l0 76l-340 0q-128 0 -180 -52q-40 -40 -40 -100q0 -64 52 -116q80 -80 236 -144q-4 -48 -20 -64q-16 -16 -68 -16q-80 0 -244 144l-68 -68q188 -116 256 -256q-112 8 -224 16l-16 -80q144 -4 272 -12q20 -48 48 -160l76 20q40 16 0 32q-16 52 -36 104q144 -12 276 -32l12 84q-156 12 -312 24q-40 80 -80 128" />
</g>
<g id="PathID_1289" transform="matrix(0.0196078, 0, 0, 0.0196078, 78.75, 17.9)">
<path style="fill:#231815;fill-opacity:1" d="M460 -228q0 240 -300 324l-40 -80q248 -76 256 -220l-264 76q-4 28 -20 12l-20 -92l308 -72l0 -92l-232 0l0 -76l232 0l0 -128l-280 0l0 -76l280 0l0 -156l76 0q32 4 4 24l0 556M932 -652l0 76l-276 0l0 128l232 0l0 76l-232 0l0 140l316 0l0 76l-316 0l0 232l-80 0l0 -884l76 0q32 4 4 24l0 132l276 0" />
</g>
<g id="PathID_1290" transform="matrix(0.0196078, 0, 0, 0.0196078, 98.75, 17.9)">
<path style="fill:#231815;fill-opacity:1" d="M716 -148q64 80 240 144l-40 88q-312 -104 -396 -440l-24 0q-40 56 -84 100l0 224l228 -44l12 68q-216 52 -424 92q-12 36 -24 12l-28 -96l156 -20l0 -172q-104 72 -232 116l-40 -80q200 -56 340 -200l-320 0l0 -76l388 0l0 -72l-288 0l0 -76l288 0l0 -72l-340 0l0 -76l340 0l0 -96l76 0q32 4 4 24l0 72l340 0l0 76l-340 0l0 72l288 0l0 76l-288 0l0 72l388 0l0 76l-340 0q24 76 80 160q76 -64 144 -140l60 60q4 20 -20 12q-68 64 -144 116" />
</g>
<g id="PathID_1291" transform="matrix(0.0196078, 0, 0, 0.0196078, 118.75, 17.9)">
<path style="fill:#231815;fill-opacity:1" d="M736 -348q80 132 220 232l-68 76q-132 -108 -224 -260l72 -48M564 -16q0 72 -68 72l-112 0l-16 -88l88 0q16 0 16 -16l0 -376l-392 0l0 -88l860 0l0 88l-376 0l0 408M212 -660l0 -88l608 0l0 88l-608 0M80 -100q112 -80 196 -244l80 44q32 20 -12 28q-68 144 -200 248l-64 -76" />
</g>
</svg>
