<?xml version="1.0" encoding="utf-8"?>
<svg version="1.1" id="Layer_1"
xmlns="http://www.w3.org/2000/svg"
xmlns:xlink="http://www.w3.org/1999/xlink"
xmlns:author="http://www.sothink.com"
width="98px" height="21px"
xml:space="preserve">
<g id="PathID_1319" transform="matrix(0.0196078, 0, 0, 0.0196078, -0.95, 18.05)">
<path style="fill:#231815;fill-opacity:1" d="M428 -648q-80 116 -200 240l160 -8l-48 -72l64 -36q64 76 108 172l-76 36l-20 -40l-104 8l0 432l-80 0l0 -424l-152 12q-4 28 -20 12l-16 -88l88 0q32 -32 72 -76q-64 -56 -140 -112l44 -56l28 20q92 -132 120 -204l68 40q24 16 -8 20q-44 76 -128 180l64 52q60 -72 116 -172l72 44q20 16 -12 20M892 -28l76 0l0 76l-528 0l0 -76l96 0l0 -752l356 0l0 752M812 -28l0 -216l-196 0l0 216l196 0M812 -320l0 -156l-196 0l0 156l196 0M812 -552l0 -152l-196 0l0 152l196 0M424 -276q52 112 64 192l-80 24q0 -60 -56 -196l72 -20M196 -252q28 8 -4 24q-20 124 -68 232l-68 -40q44 -88 64 -228l76 12" />
</g>
<g id="PathID_1320" transform="matrix(0.0196078, 0, 0, 0.0196078, 19.05, 18.05)">
<path style="fill:#231815;fill-opacity:1" d="M784 -252q-40 180 -156 308l-84 -48q124 -116 164 -288q-140 -52 -284 -72q-108 232 -144 268q-48 48 -112 48q-48 0 -80 -32q-36 -36 -36 -108q0 -84 80 -164q88 -88 236 -88q48 -124 88 -232q-112 28 -224 52l-36 -80q132 -16 252 -44l48 -20l68 52q40 24 -4 36q-52 92 -112 240q128 16 272 64q8 -96 4 -236l76 16q44 8 8 32q0 132 -8 216q76 28 176 80l-40 80q-84 -48 -152 -80M340 -352q-92 0 -148 56q-64 64 -64 120q0 24 16 40q12 12 36 12q36 0 64 -44q24 -36 96 -184" />
</g>
<g id="PathID_1321" transform="matrix(0.0196078, 0, 0, 0.0196078, 39.05, 18.05)">
<path style="fill:#231815;fill-opacity:1" d="M952 -56l0 88l-888 0l0 -88l480 0q84 -228 120 -460l112 36q16 16 -12 20q-44 204 -128 404l316 0M312 -496q60 116 104 336l-92 28q-52 -220 -96 -332l84 -32M456 -816l88 0q40 8 4 32l0 136l352 0l0 88l-784 0l0 -88l340 0l0 -168" />
</g>
<g id="PathID_1322" transform="matrix(0.0196078, 0, 0, 0.0196078, 59.05, 18.05)">
<path style="fill:#231815;fill-opacity:1" d="M904 -628q-140 0 -220 28q-88 32 -164 108q-76 76 -76 196q0 96 60 156q80 80 308 88l-32 88q-236 -12 -328 -104q-92 -92 -92 -224q0 -188 148 -296q-188 28 -384 56l-24 -92q392 -28 788 -96l16 92" />
</g>
<g id="PathID_1323" transform="matrix(0.0196078, 0, 0, 0.0196078, 79.05, 18.05)">
<path style="fill:#231815;fill-opacity:1" d="M644 -20q64 -8 108 -52q48 -48 48 -128q0 -88 -52 -140q-52 -52 -164 -52q-132 0 -204 52q-68 48 -176 172l-68 -60q288 -288 436 -480q-132 16 -264 28l-28 -92q196 0 348 -20l36 -16l44 44q44 40 -20 52q-120 136 -240 268q84 -20 140 -20q152 0 224 72q72 72 72 184q0 116 -64 180q-96 96 -244 96q-140 0 -204 -64q-52 -52 -52 -124q0 -48 36 -84q40 -40 92 -40q72 0 120 48q56 56 76 176M564 -8q-12 -104 -48 -140q-28 -28 -56 -28q-32 0 -48 16q-20 20 -20 44q0 36 32 68q40 40 104 40q16 0 36 0" />
</g>
</svg>
