<?xml version="1.0" encoding="utf-8"?>
<svg version="1.1" id="Layer_1"
xmlns="http://www.w3.org/2000/svg"
xmlns:xlink="http://www.w3.org/1999/xlink"
xmlns:author="http://www.sothink.com"
width="80px" height="22px"
xml:space="preserve">
<g id="PathID_1345" transform="matrix(0.0196078, 0, 0, 0.0196078, -0.8, 18.05)">
<path style="fill:#666666;fill-opacity:1" d="M36 -376q152 -168 188 -448l96 28q16 16 -12 20q-12 88 -56 216q48 12 12 32l0 612l-80 0l0 -504q-28 56 -80 112l-68 -68M976 -108l-8 80q-8 84 -88 84l-416 0q-72 0 -72 -68l0 -388l-80 24l-24 -80l104 -28l0 -224l76 0q32 4 4 24l0 176l128 -36l0 -268l76 0q32 4 4 24l0 220l144 -48l12 -20l76 40q32 12 0 28l-12 324q-4 76 -80 76l-80 0l-16 -76l60 0q36 0 36 -32l8 -256l-148 44l0 356l-80 0l0 -332l-128 40l0 372q0 32 28 32l344 0q32 0 36 -28l8 -80l88 20" />
</g>
<g id="PathID_1346" transform="matrix(0.0196078, 0, 0, 0.0196078, 19.2, 18.05)">
<path style="fill:#666666;fill-opacity:1" d="M552 -564q-68 400 -164 496q-52 52 -108 52q-64 0 -100 -36q-96 -96 -96 -240q0 -176 124 -300q136 -136 332 -136q176 0 276 100q112 112 112 264q0 164 -104 268q-68 68 -208 132l-84 -84q140 -44 220 -124q76 -76 76 -184q0 -128 -84 -212q-84 -84 -264 -76l72 36q48 20 0 44M460 -640q-104 24 -180 100q-104 104 -104 256q0 92 60 152q12 12 36 12q24 0 52 -28q92 -92 136 -492" />
</g>
<g id="PathID_1347" transform="matrix(0.0196078, 0, 0, 0.0196078, 39.2, 18.05)">
<path style="fill:#666666;fill-opacity:1" d="M952 -56l0 88l-888 0l0 -88l480 0q84 -228 120 -460l112 36q16 16 -12 20q-44 204 -128 404l316 0M312 -496q60 116 104 336l-92 28q-52 -220 -96 -332l84 -32M456 -816l88 0q40 8 4 32l0 136l352 0l0 88l-784 0l0 -88l340 0l0 -168" />
</g>
<g id="PathID_1348" transform="matrix(0.0196078, 0, 0, 0.0196078, 59.2, 18.05)">
<path style="fill:#666666;fill-opacity:1" d="M276 -152q196 -180 288 -400l-252 0l0 -76l272 0l0 -200l76 0q32 4 4 24l0 176l288 0l0 76l-264 0q64 192 288 400l-56 80q-172 -172 -256 -348l0 232l116 0l0 76l-116 0l0 196l-80 0l0 -196l-104 0l0 -76l104 0l0 -232q-96 212 -248 344l-60 -76M308 -780q-20 104 -56 196q32 12 0 28l0 648l-80 0l0 -500q-28 60 -72 104l-56 -72q136 -184 188 -456l88 32q20 16 -12 20" />
</g>
</svg>
