<?xml version="1.0" encoding="utf-8"?>
<svg version="1.1" id="Layer_1"
xmlns="http://www.w3.org/2000/svg"
xmlns:xlink="http://www.w3.org/1999/xlink"
xmlns:author="http://www.sothink.com"
width="78px" height="22px"
xml:space="preserve">
<g id="PathID_1303" transform="matrix(0.0196078, 0, 0, 0.0196078, -1.05, 17.9)">
<path style="fill:#666666;fill-opacity:1" d="M48 4q96 -140 96 -280l0 -520l744 0l0 256l-80 0l0 -28l-112 0l0 88l180 0l0 76l-180 0l0 88l244 0l0 76l-304 0q20 52 60 92l112 -84l64 68q4 20 -20 12l-108 56q100 68 224 92l-28 88q-288 -64 -388 -324l-100 0l0 216l180 -28l12 72l-360 68q-4 28 -20 12l-32 -108l140 -8l0 -224l-148 0q-8 188 -112 320l-64 -76M224 -644l584 0l0 -76l-584 0l0 76M488 -316l128 0l0 -88l-128 0l0 88M488 -480l128 0l0 -88l-128 0l0 88M408 -480l0 -88l-184 0l0 252l184 0l0 -88l-144 0l0 -76l144 0" />
</g>
<g id="PathID_1304" transform="matrix(0.0196078, 0, 0, 0.0196078, 18.95, 17.9)">
<path style="fill:#666666;fill-opacity:1" d="M564 -804l376 0l0 816q0 64 -64 64l-96 0l-12 -76l76 0q16 0 16 -16l0 -456l-148 0l-148 0l0 -332M232 -184l0 -64l160 0l0 -96l-132 0l0 -64l504 0l0 64l-104 0l0 96l136 0l0 64l-136 0l0 240l-80 0l0 -240l-108 0q8 176 -180 260l-40 -76q140 -52 140 -184l-160 0M376 -740l-200 0l0 72l200 0l0 -72M456 -472l-280 0l0 560l-80 0l0 -892l360 0l0 332M580 -248l0 -96l-108 0l0 96l108 0M860 -668l0 -72l-216 0l0 72l216 0M644 -536l216 0l0 -68l-216 0l0 68M176 -536l200 0l0 -68l-200 0l0 68" />
</g>
<g id="PathID_1305" transform="matrix(0.0196078, 0, 0, 0.0196078, 38.95, 17.9)">
<path style="fill:#666666;fill-opacity:1" d="M512 -208q-48 28 -100 28q-68 0 -104 -36q-48 -48 -48 -108q0 -64 48 -112q48 -48 120 -48q48 0 92 12l0 -88l-440 28l-16 -84l456 -20l0 -188l72 0q44 8 8 32l0 152l340 -24l0 84l-340 16l0 152q16 72 16 160q-4 204 -228 344l-76 -56q200 -116 200 -244M436 -416q-44 0 -72 28q-24 24 -24 64q0 36 20 56q20 20 64 20q44 0 72 -28q24 -24 24 -60q0 -36 -24 -60q-20 -20 -60 -20" />
</g>
<g id="PathID_1306" transform="matrix(0.0196078, 0, 0, 0.0196078, 58.95, 17.9)">
<path style="fill:#666666;fill-opacity:1" d="M644 -20q64 -8 108 -52q48 -48 48 -128q0 -88 -52 -140q-52 -52 -164 -52q-132 0 -204 52q-68 48 -176 172l-68 -60q288 -288 436 -480q-132 16 -264 28l-28 -92q196 0 348 -20l36 -16l44 44q44 40 -20 52q-120 136 -240 268q84 -20 140 -20q152 0 224 72q72 72 72 184q0 116 -64 180q-96 96 -244 96q-140 0 -204 -64q-52 -52 -52 -124q0 -48 36 -84q40 -40 92 -40q72 0 120 48q56 56 76 176M564 -8q-12 -104 -48 -140q-28 -28 -56 -28q-32 0 -48 16q-20 20 -20 44q0 36 32 68q40 40 104 40q16 0 36 0" />
</g>
</svg>
