<?xml version="1.0" encoding="utf-8"?>
<svg version="1.1" id="Layer_1"
xmlns="http://www.w3.org/2000/svg"
xmlns:xlink="http://www.w3.org/1999/xlink"
xmlns:author="http://www.sothink.com"
width="83px" height="34px"
xml:space="preserve">
<g id="PathID_2350" transform="matrix(0.470588, 0, 0, 0.470588, 2, 22.55)">
<path style="fill:#000000;fill-opacity:1" d="M15.5 -14.7q-2.95 6.15 -7.95 11.35l-3.4 -3.2q5.4 -5.6 8 -11.55l3.95 2.4q0.8 0.8 -0.6 1M26.05 4.4l-0.95 -3.8l2.75 0q0.8 0 0.8 -0.75l0 -20.55l-5.15 0l0 6q0 14.15 -14.95 19.5l-2 -4.2q12.95 -3.35 12.95 -15.9l0 -5.4l-15.75 0l0 -3.8l19.55 0l0 -6.95l-15.55 0l0 -3.8l15.55 0l0 -6.15l3.75 0q1.6 0.2 0.2 1.2l0 4.95l15.55 0l0 3.8l-15.55 0l0 6.95l19.55 0l0 3.8l-14.15 0l0 22.3q0 2.8 -2.8 2.8l-3.8 0M38.4 -17.3q5.2 4.55 8.8 10.75l-4 3q-3.8 -6.8 -8.35 -11.35l3.55 -2.4" />
</g>
<g id="PathID_2351" transform="matrix(0.470588, 0, 0, 0.470588, 26, 22.55)">
<path style="fill:#000000;fill-opacity:1" d="M17.3 -37.25q-1.2 5 -3.6 10q2 0.4 0.4 1.6l0 29.45l-3.95 0l0 -24.7q-2.2 3.2 -4.4 5.4l-3.2 -3.6q8.6 -8.15 11.15 -20.9l4.2 1.6q0.8 0.75 -0.6 1.15M35.85 -28.45l0 -11.35l3.75 0q1.6 0.2 0.2 1.2l0 10.15l8.2 0l0 3.75l-8.2 0l0 24.7q0 3.2 -3.15 3.2l-6 0l-1 -3.75l5.4 0q0.8 0 0.8 -0.8l0 -23.35l-17.95 0l0 -3.75l17.95 0M24.3 -19.5q3.35 4.2 6.15 9.35l-4 2.6q-2.75 -5.75 -5.95 -9.55l3.8 -2.4" />
</g>
<g id="PathID_2352" transform="matrix(0.470588, 0, 0, 0.470588, 50, 22.55)">
<path style="fill:#000000;fill-opacity:1" d="M32.85 -40.6q1.4 0.4 -0.4 1.2l-1 2.35l15.55 0l0 3.2l-9.15 0q0.75 1.6 1.55 3.2l-3.75 1.2l-1.8 -4.4l-3.8 0q-1.8 2.8 -4.2 5l-0.35 -0.4l-1 0.6l0.2 1.8l5.55 -0.2q-0.6 -1 -1.8 -2.4l3.6 -1.4q1.4 1.8 2.6 3.6l10.55 -0.6l0.2 3.35l-20.1 0.8q0.35 1.6 1.35 2.8q5 -1.2 9.6 -3l3.15 2.6q0.8 1 -1.15 0.6q-4.8 1.6 -9 2.6q0.8 1.4 9.75 1.4q2.4 0 2.6 -3.2l3.8 1.2q-0.6 5.4 -5.8 5.4l-3.95 0q1.4 0.55 2.95 1.35l-2.55 1.8l10.55 -0.6l0.2 3.6l-9.15 0.4l2.35 2.6q1.2 1.4 -1.6 0.8q-2.75 1.2 -6.55 2.4q3.4 1.95 8.35 1.95q3.2 0 3.2 -3.55l3.8 1.4q-0.8 5.55 -5.4 5.55q-8.55 0 -14.35 -3.8q-10.35 2.8 -21.9 3.8l-1.8 -3.4q11.55 -0.8 21.15 -3.15q-1.8 -2.2 -2.4 -4l-18.75 0.8l-0.2 -3.6l18.15 -0.6q-0.4 -2 -0.6 -4.55l4.2 0q1.15 0.2 0 1.2q0 1.55 0.35 3.15l9.4 -0.2q-1.6 -1.2 -4.4 -2.6l2 -0.95q-5.2 -0.6 -7.75 -3.6q-9.2 2.2 -19.35 3.4l-1.6 -3.4q9.35 -0.8 18.95 -2.8q-1 -1.8 -1.4 -3.6l-16.35 0.6l-0.2 -3.35l15.75 -0.4l-0.2 -3.2l4.2 0l-1.8 -1.2q4.15 -3.8 6.15 -9.95l3.8 0.4M13.9 -40.6q1.2 0.6 -0.4 1.2l-0.95 2.35l12.35 0l0 3.2l-7.4 0q1 1.4 1.8 4l-4.2 0.8q-0.6 -2.6 -1.6 -4.8l-2.35 0q-2.2 3.4 -5 6l-2.8 -2.4q5 -4.6 6.8 -10.75l3.75 0.4M26.45 -6.35q0.6 1.4 2.2 3q4.8 -1.6 8.4 -3.4l-10.6 0.4" />
</g>
</svg>
