<?xml version="1.0" encoding="utf-8"?>
<svg version="1.1" id="Layer_1"
xmlns="http://www.w3.org/2000/svg"
xmlns:xlink="http://www.w3.org/1999/xlink"
xmlns:author="http://www.sothink.com"
width="68px" height="116px"
xml:space="preserve">
<g id="PathID_63" transform="matrix(0.0352941, 0, 0, 0.0352941, 0, 37.8)">
<path style="fill:#000000;fill-opacity:1" d="M528.5 -691.5q0 -40.5 -14.5 -62.5q-15 -22 -45 -22.5q-47 1 -104.5 49q-57.5 47.5 -113.5 131q-55.5 83.5 -96.5 190.5q-41.5 107.5 -56 227.5q-27.5 20 -58 34q-30.5 14.5 -66 25.5q-1.5 1 -1.5 3q-0.5 2 -0.5 5.5q0 7 2.5 13.5q2 6.5 7 8q34 -12 62.5 -26.5q28 -14.5 54 -29q0 5.5 -0.5 10q-0.5 5 -0.5 9.5q0.5 48.5 16 80q15 32 36.5 47q21.5 15.5 41.5 15.5q42.5 -0.5 75.5 -20q33 -19 57 -51.5q24 -32 37.5 -71l0 -1q0 -5 -6 -8.5q-5.5 -3.5 -12 -4l-3 0l-2.5 1q-14 30 -32 55q-18.5 25.5 -41 41q-22.5 15.5 -51 16q-20 0.5 -36.5 -22.5q-16.5 -23.5 -17.5 -79q0 -11 0.5 -22.5q1 -11.5 2.5 -25q58.5 -39.5 122 -96.5q63 -57 118.5 -126q55 -68.5 89.5 -144q34.5 -75 35.5 -150.5M481.5 -718.5q-2.5 72.5 -31.5 145.5q-28.5 73 -75 141.5q-46 68 -101 125.5q-55 57 -110 98q7.5 -34.5 25.5 -87.5q18 -52.5 43.5 -113.5q25.5 -61 55.5 -121.5q30 -60 61.5 -110q32 -49.5 62 -79.5q30.5 -30 56 -31q7 0 10.5 8.5q3 9 3 24" />
</g>
</svg>
