<?xml version="1.0" encoding="utf-8"?>
<svg version="1.1" id="Layer_1"
xmlns="http://www.w3.org/2000/svg"
xmlns:xlink="http://www.w3.org/1999/xlink"
xmlns:author="http://www.sothink.com"
width="164px" height="212px"
xml:space="preserve">
<g id="PathID_58" transform="matrix(0.0352941, 0, 0, 0.0352941, 0, 37.8)">
<path style="fill:#000000;fill-opacity:1" d="M209 -112.5l64.5 -54.5q42 -36.5 91.5 -81q49.5 -44.5 93 -89q49.5 -50.5 78.5 -92q29 -41 41.5 -79.5q12.5 -38.5 12 -80.5q-1 -78.5 -37 -131.5q-35.5 -53.5 -93 -80.5q-57.5 -27.5 -124 -27.5q-55 0.5 -101.5 16q-46.5 15.5 -81 39q-34.5 23 -54 47.5q-19 24 -19.5 41.5q0.5 22.5 17 40q16 17.5 41.5 18.5q11 0 20 -4q9.5 -4.5 20 -14.5q16.5 -15 38.5 -31.5q22 -16.5 51.5 -28q30 -11.5 69.5 -12q37 0.5 66 18q29 17.5 45 47q16.5 30 17 67q1 27.5 -13 64q-14.5 36 -58.5 86q-43.5 46 -94.5 94q-51 48.5 -96.5 88.5q-45 39.5 -70.5 60q-31.5 25.5 -50.5 43.5q-19 17.5 -28 34.5q-8.5 16.5 -8.5 39q1 36.5 18.5 52.5q17.5 16 44 19q26.5 3.5 54.5 3l412.5 0q28 0 42.5 -14q15 -14 15 -43.5q-1 -31.5 -17.5 -43.5q-17 -12 -40 -11.5l-366.5 0" />
</g>
<g id="PathID_59" transform="matrix(0.0352941, 0, 0, 0.0352941, 48, 37.8)">
<path style="fill:#000000;fill-opacity:1" d="M139.5 -584.5q-28.5 2 -46 12.5q-18 10.5 -18.5 41.5q0 24 12.5 39q12 15 34.5 15.5q5.5 0 29.5 -3.5l54.5 -8.5l57.5 -8.5l38.5 -6q-31 116.5 -71.5 220.5q-41 103.5 -88 188q-19 33.5 -27 50q-8 16.5 -8 24.5q0.5 18 10.5 30q10 11.5 24.5 17.5q14.5 6 27.5 6q21.5 0 37 -20q16 -20 38 -63q25 -47 52 -110q27.5 -63 57 -150q29.5 -87.5 62 -206l36.5 -2l30 -1q61 0.5 88.5 23q28 22.5 35.5 62q7 39.5 6 91q-0.5 97 -11.5 152.5q-11 55.5 -29 80.5q-18 25.5 -39.5 32q-21.5 6.5 -43 5.5q-9.5 0 -25 -2l-30 -4q-14.5 -2 -22.5 -2q-20 0 -32 14.5q-12 14 -12 39.5q-1.5 33.5 28.5 48q29.5 15 102.5 14.5q44.5 1 85 -10.5q40.5 -12 72 -49q31.5 -37.5 49.5 -113.5q18 -75.5 18.5 -203q0.5 -65 -10 -119q-11 -53.5 -40.5 -92q-30 -38 -86 -56.5q-56 -18.5 -146 -13q8 -35.5 15.5 -72q8 -36 13 -64.5q5 -28.5 5.5 -40.5q-0.5 -18.5 -15 -30.5q-15 -12 -43.5 -12.5q-31.5 1 -41.5 14.5q-10 14 -12 29.5q-2 10.5 -6.5 36.5q-4.5 25.5 -10.5 56.5l-10.5 57q-4.5 26.5 -7 38.5l-189.5 22.5M755.5 -718q-25 1 -40.5 15.5q-16 14.5 -16.5 33q-0.5 9.5 6 21q6 11.5 25.5 37q37 50.5 61.5 102.5q24.5 52 38.5 97.5q14 46 19 78q4.5 32 10 49q5 17 15.5 23.5q10 6.5 30.5 6q29 0 45.5 -13.5q17 -14 17 -41.5q0.5 -25.5 -9.5 -72q-10.5 -46 -31.5 -103q-21.5 -57 -55 -114q-18 -30.5 -37.5 -57q-19 -27 -39 -44q-19.5 -17.5 -39.5 -18" />
</g>
<g id="PathID_60" transform="matrix(0.0352941, 0, 0, 0.0352941, 96, 37.8)">
<path style="fill:#000000;fill-opacity:1" d="M202 -293q-2.5 57.5 2 102.5q5 45 19.5 79q15.5 39 49 75q33.5 36 90.5 59.5q56.5 23 141 24q86 -1 149 -25q63 -24 107 -60.5q44.5 -36.5 73 -74.5q29 -38.5 46 -68q18.5 -31.5 33.5 -62q15 -30.5 24 -55.5q8.5 -25 9 -39.5q-0.5 -20.5 -12 -32.5q-11.5 -11.5 -26.5 -16q-14.5 -5 -25 -4.5q-18 -0.5 -31 9.5q-13 10.5 -24.5 37.5q-34 83.5 -78.5 145.5q-44 62.5 -104 97q-59.5 34.5 -140 35q-76.5 -1 -120.5 -33.5q-44 -32.5 -55.5 -81q-6.5 -30.5 -7.5 -62q-1 -31 0.5 -57l16 -437q2 -32 0 -55.5q-2 -23 -15 -35.5q-13 -12.5 -44.5 -12.5q-28 -0.5 -40.5 10.5q-12.5 11 -16 33.5q-3.5 23 -4 59.5l-15 444" />
</g>
<g id="PathID_61" transform="matrix(0.0352941, 0, 0, 0.0352941, 0, 84)">
<path style="fill:#000000;fill-opacity:1" d="M390 -579q40.5 -3 84.5 -9q44 -6 81.5 -12.5q37.5 -6 58.5 -11q15 -2 30 -12q15 -9.5 16 -37q0.5 -20.5 -10.5 -38.5q-11 -18 -38.5 -19q-5 0 -14.5 2q-9 1.5 -17.5 3.5l-12.5 3q-30 6 -67.5 12q-38 5.5 -82 10.5l9.5 -41l10.5 -49.5q4.5 -24 5 -33.5q-1 -22 -19 -33.5q-18 -11.5 -42.5 -11.5q-22 0.5 -32 10q-10.5 9.5 -13 18.5q-4 11.5 -9 32l-9.5 44q-5 23.5 -8.5 43.5l-6 29q-10 0.5 -31.5 0.5q-21 0.5 -46.5 0.5l-47.5 0l-34 0q-28.5 0 -43 13.5q-14.5 13.5 -14.5 41.5q0 25.5 9 37.5q9.5 11.5 27.5 15q18 3.5 45.5 3q8.5 0 38.5 -0.5l72 -2.5q-23.5 93.5 -52 180q-28.5 86 -54.5 154q-26 68 -43 106.5l-26 60q-8.5 19.5 -11 27q-2 8 -2 13.5q0.5 19 11 30q10.5 11.5 24.5 16.5q14 5 25 4.5q19 1 31.5 -9.5q13 -10.5 28.5 -44q15 -34 40.5 -102q28.5 -76 65 -186q36 -110.5 74 -259M499.5 -486.5q0.5 24 8.5 34.5q8.5 10.5 19.5 13q10.5 2 19 1.5q5.5 0.5 12.5 0l28.5 -3q30.5 -3 63.5 -4.5q33 -1.5 64.5 -1.5l45.5 1.5l56 2.5l18 1.5l24 1l14.5 0.5q28 0.5 41 -12.5q13.5 -13 13 -40.5q1.5 -23.5 -11 -36.5q-12.5 -13 -51.5 -18q-39.5 -5 -118.5 -5q-41 0 -78.5 1.5l-66 4.5l-45 4q-28.5 3.5 -43 16q-14.5 12.5 -14.5 39.5M386 -127q0.5 48.5 24.5 79.5q24 31 63 48.5q39 17 84.5 24.5q45.5 7.5 89 9q44 2 78 1.5q32.5 0 68.5 -1l66.5 -4q30.5 -2.5 47 -7.5q20 -5.5 28.5 -20.5q9 -15 8.5 -32.5q-1 -30.5 -17 -42q-15.5 -12 -32 -11.5l-18.5 1.5l-26 3l-18 2l-38.5 3l-47.5 3q-25.5 1 -48 1q-57 0.5 -103.5 -5q-46 -5.5 -73.5 -20q-27.5 -14 -28 -40.5q0 -13.5 5.5 -25.5q5 -12.5 13 -22.5q12 -16 18.5 -27q6 -11 6 -19.5q-1 -17 -17.5 -29q-16 -11.5 -38 -12q-25.5 1.5 -47 25.5q-21.5 24 -34.5 57.5q-13 33 -13.5 60.5" />
</g>
<g id="PathID_62" transform="matrix(0.0352941, 0, 0, 0.0352941, 48, 84)">
<path style="fill:#000000;fill-opacity:1" d="M618.5 -578.5q82.5 13.5 132.5 51.5q50 38 72 88.5q22.5 51 22 103.5q-0.5 64.5 -22.5 111q-21.5 46 -55 76.5q-33.5 31 -70.5 49.5q-36.5 18.5 -68 28q-31 9 -48 12.5q-33 7 -47.5 16.5q-14.5 9.5 -14 35q-0.5 21 12.5 39q13.5 18 43.5 19q4.5 0.5 33.5 -4.5q29 -5.5 72.5 -19.5q43.5 -14 91.5 -41q48 -26.5 90 -69q42.5 -42.5 69 -104.5q26.5 -61.5 27.5 -146.5q-1 -98 -41.5 -171.5q-40.5 -73 -111.5 -118.5q-71.5 -45 -163 -58q8 -32.5 14 -64q6 -31.5 6 -49.5q-0.5 -19 -11 -29q-11 -10.5 -25 -14.5q-14.5 -4 -25 -4q-14 -0.5 -28 8q-14.5 8.5 -20.5 33q-4 19 -8 40.5q-4.5 22 -8 42q-4 19.5 -6.5 33.5q-37 1 -96.5 14q-59 12.5 -130.5 51.5l-6 -24.5q-3.5 -17 -8 -36.5l-7.5 -36.5q-3.5 -16.5 -5.5 -23.5q-4 -20 -15 -30q-11 -10 -33 -10q-24.5 0 -41.5 13q-17 13.5 -18 39.5q0.5 12.5 5 35q4.5 23 11.5 49.5q6.5 27 13.5 51q6.5 23.5 11 38.5q-64 59 -96.5 120.5q-32.5 61 -43 114q-11 53 -10 88q1 76 24 122.5q23 46.5 58 67.5q34.5 21.5 69.5 21q21.5 1 56 -8.5q34 -9.5 76.5 -39.5q43 -30 89.5 -90.5q47 -61 94 -163.5q47 -102 89.5 -256M509 -579.5q-27.5 106 -55 173.5q-27.5 67.5 -40 91.5q-21 -40.5 -34.5 -70q-13.5 -29.5 -24.5 -59.5q-11 -30 -24 -72q23 -16.5 66.5 -35q44 -18.5 111.5 -28.5M349.5 -215q-10 13 -29.5 33.5q-19.5 20.5 -43.5 37q-24.5 16.5 -50 17.5q-28 -1 -41.5 -20.5q-13 -19.5 -17.5 -44q-4 -24.5 -3.5 -41q-1 -42 17.5 -98.5q18.5 -57 65.5 -113.5q7 20.5 20.5 55q13.5 35 34 79.5q20 45 48 95" />
</g>
</svg>
