<?xml version="1.0" encoding="utf-8"?>
<svg version="1.1" id="Layer_1"
xmlns="http://www.w3.org/2000/svg"
xmlns:xlink="http://www.w3.org/1999/xlink"
xmlns:author="http://www.sothink.com"
width="62px" height="41px"
xml:space="preserve">
<g id="PathID_2151" transform="matrix(0.588235, 0, 0, 0.588235, 2, 27.65)">
<path style="fill:#000000;fill-opacity:1" d="M4.95 -34.65l17.15 0l0 3.8l-13.35 0l0 0.6q-0.2 3.8 -0.6 7.35q-0.2 0.6 -0.2 1.2q2.6 -2.4 5.55 -2.4q4 0 6.6 2.6q2.8 2.8 2.8 8.2q0 6.75 -3.6 10.35q-2.8 2.8 -6.95 2.8q-4 0 -6.6 -2.6q-2.6 -2.6 -3.2 -7.8l4.6 0q0.4 3.8 2 5.4q1.2 1.2 3 1.2q2.35 0 3.75 -1.4q2.2 -2.2 2.2 -7.4q0 -4.95 -1.8 -6.75q-1.2 -1.2 -2.8 -1.2q-2.35 0 -4.15 1.8q-1.2 1.2 -1.6 1.8l-4 0q0.2 -0.8 0.2 -1.4l1 -15.35l0 -0.8" />
</g>
<g id="PathID_2152" transform="matrix(0.588235, 0, 0, 0.588235, 17, 27.65)">
<path style="fill:#000000;fill-opacity:1" d="M1.75 -19.7q0 -8.75 4 -12.75q2.8 -2.8 7 -2.8q4.15 0 6.95 2.8q4 4 4 12.75l0 4q0 8.55 -4 12.55q-2.8 2.8 -6.95 2.8q-4.2 0 -7 -2.8q-4 -4 -4 -12.55l0 -4M12.75 -31.45q-2 0 -3.6 1.6q-2.6 2.6 -2.6 9.75l0 4.6q0 6.95 2.8 9.75q1.6 1.6 3.4 1.6q1.95 0 3.55 -1.6q2.6 -2.6 2.6 -9.75l0 -4.6q0 -7.15 -2.6 -9.75q-1.6 -1.6 -3.55 -1.6" />
</g>
</svg>
