<?xml version="1.0" encoding="utf-8"?>
<svg version="1.1" id="Layer_1"
xmlns="http://www.w3.org/2000/svg"
xmlns:xlink="http://www.w3.org/1999/xlink"
xmlns:author="http://www.sothink.com"
width="105px" height="51px"
xml:space="preserve">
<g id="PathID_2181" transform="matrix(0.784314, 0, 0, 0.784314, 2, 36.25)">
<path style="fill:#333300;fill-opacity:1" d="M3.35 -34.65l15.95 0q4 0 6.55 2.6q2.4 2.4 2.4 6.4q0 3.15 -2.2 5.35q-1.15 1.2 -2.95 1.8q2.4 0.8 3.75 2.2q2.4 2.4 2.4 5.95q0 4.4 -3 7.4q-2.35 2.4 -7.15 2.4l-15.75 0l0 -34.1M7.95 -30.85l0 10.55l10.75 0q2 0 3.4 -1.4q1.6 -1.6 1.6 -4.15q0 -2.2 -1.6 -3.8q-1.2 -1.2 -3 -1.2l-11.15 0M7.95 -16.5l0 12.15l10.15 0q3 0 4.6 -1.6q1.8 -1.8 1.8 -4.4q0 -2.75 -1.6 -4.35q-1.8 -1.8 -4.8 -1.8l-10.15 0" />
</g>
<g id="PathID_2182" transform="matrix(0.784314, 0, 0, 0.784314, 27.45, 36.25)">
<path style="fill:#333300;fill-opacity:1" d="M20.1 -26.45q-8.15 0.6 -16.15 0.6l-1.2 -4q9.8 0 15.75 -0.4q-2 -5.6 -2.8 -10.35l4.4 0q1.8 0.4 0.4 1.6q0.8 3.75 2.4 8.35q6.95 -0.6 11.95 -1.8l1 4.4q-5.8 0.8 -11.35 1.2q3.95 7.55 12.15 13.15l-3 3.55q-7.4 -3.35 -14.55 -3.35q-6.55 0 -9.15 2.55q-1.2 1.2 -1.2 3.4q0 2 1.8 3.8q2.75 2.8 13.15 2.8l6.95 0l-1 4.35l-7.55 0q-10.35 0 -14.55 -4.15q-3 -3 -3 -6.8q0 -3.8 2.2 -5.95q3.6 -3.6 11.15 -3.6q7.6 0 8.75 0.8q-4.75 -6 -6.55 -10.15" />
</g>
<g id="PathID_2183" transform="matrix(0.784314, 0, 0, 0.784314, 58.05, 36.25)">
<path style="fill:#333300;fill-opacity:1" d="M22.7 -13.5q-0.4 -2.4 -2.8 -2.4q-5 0 -8.55 5.95q-2.2 3.6 -4.4 9.2l-4.6 -2.4q8.2 -12.75 19.55 -36.25l4.35 2.35q1.4 1.4 -0.6 1.6q-4.15 6.2 -9.95 16.95q3.4 -1.4 6 -1.4q2.4 0 3.8 1.4q1.35 1.4 1.75 5.6l1.2 7.55q0.4 2.6 3.2 2.6q2.6 0 4.4 -1.8q3.75 -3.8 5.95 -14.95l4.4 2.2q-2.6 11.35 -6.2 14.95q-3.95 3.95 -8.95 3.95q-6.15 0 -7.15 -6.55l-1.4 -8.55" />
</g>
</svg>
