<?xml version="1.0" encoding="utf-8"?>
<svg version="1.1" id="Layer_1"
xmlns="http://www.w3.org/2000/svg"
xmlns:xlink="http://www.w3.org/1999/xlink"
xmlns:author="http://www.sothink.com"
width="62px" height="41px"
xml:space="preserve">
<g id="PathID_2159" transform="matrix(0.588235, 0, 0, 0.588235, 2, 27.65)">
<path style="fill:#000000;fill-opacity:1" d="M2.75 -23.3q0 -5.95 3.6 -9.55q2.2 -2.2 6 -2.2q3.55 0 6.15 2.6q4.2 4.2 4.2 14.55q0 10.55 -4.4 14.95q-2.8 2.8 -6.55 2.8q-3.8 0 -6 -2.2q-2.6 -2.6 -2.6 -6.8l4.6 0q-0.2 2.6 1.6 4.4q0.8 0.8 2.4 0.8q1.75 0 3.15 -1.4q3.2 -3.2 3.2 -11.75q-0.8 1.2 -1.8 2.2q-2.2 2.15 -5.35 2.15q-3 0 -5 -1.95q-3.2 -3.2 -3.2 -8.6M12.35 -31.45q-1.6 0 -2.8 1.2q-2 2 -2 6.95q0 4 1.6 5.6q1.4 1.4 2.8 1.4q2.35 0 3.55 -1.2q2.2 -2.2 2.2 -5.4q0 -4.95 -2.2 -7.15q-1.4 -1.4 -3.15 -1.4" />
</g>
<g id="PathID_2160" transform="matrix(0.588235, 0, 0, 0.588235, 17, 27.65)">
<path style="fill:#000000;fill-opacity:1" d="M1.75 -19.7q0 -8.75 4 -12.75q2.8 -2.8 7 -2.8q4.15 0 6.95 2.8q4 4 4 12.75l0 4q0 8.55 -4 12.55q-2.8 2.8 -6.95 2.8q-4.2 0 -7 -2.8q-4 -4 -4 -12.55l0 -4M12.75 -31.45q-2 0 -3.6 1.6q-2.6 2.6 -2.6 9.75l0 4.6q0 6.95 2.8 9.75q1.6 1.6 3.4 1.6q1.95 0 3.55 -1.6q2.6 -2.6 2.6 -9.75l0 -4.6q0 -7.15 -2.6 -9.75q-1.6 -1.6 -3.55 -1.6" />
</g>
</svg>
