<?xml version="1.0" encoding="utf-8"?>
<svg version="1.1" id="Layer_1"
xmlns="http://www.w3.org/2000/svg"
xmlns:xlink="http://www.w3.org/1999/xlink"
xmlns:author="http://www.sothink.com"
width="55px" height="38px"
xml:space="preserve">
<g id="PathID_2172" transform="matrix(0.54902, 0, 0, 0.54902, 2, 25.95)">
<path style="fill:#333300;fill-opacity:1" d="M11.75 4q-10 -9.35 -10 -21.7q0 -12.35 10 -21.7l2.15 2.15q-9.15 8.6 -9.15 19.55q0 10.95 9.15 19.5l-2.15 2.2" />
</g>
<g id="PathID_2173" transform="matrix(0.54902, 0, 0, 0.54902, 10.5, 25.95)">
<path style="fill:#333300;fill-opacity:1" d="M19.9 -17.9q3 -5.6 4.8 -13.95l4.15 1.2q0.8 0.8 -0.6 1q-1.6 8.55 -4.75 14.35l-3.6 -2.6M44.6 -17.3q-3 -8 -6.55 -13.35l3.15 -2q5 6.4 7.2 12.95l-3.8 2.4M14.7 -28.05l6.4 0l0 3.75l-6.4 0l0 5.2q4.2 1.8 7.2 5l-2.4 3.95q-2.4 -2.6 -4.8 -4.15l0 18.9l-3.95 0l0 -18.1q-1.8 4.35 -5.4 8.75l-3 -3.4q5.6 -6.75 8.2 -16.15l-7.2 0l0 -3.75l7.4 0l0 -6.6l-6 0.6l-0.8 -3.4q7.8 -0.4 16.15 -2.75l1.2 3.35q0.4 1.2 -1.4 0.4q-2.6 0.6 -5.2 1l0 7.4M35.05 -40.2q1.6 0.2 0.2 1.2l0 27.45q0 3.2 -3.2 3.2l-2.8 0l-1 -3.8l2.2 0q0.8 0 0.8 -0.75l0 -27.3l3.8 0M44.4 -13.7q1 0.8 -0.6 0.95q-6.75 13.95 -22.9 16.55l-1 -3.95q15.35 -2.8 20.9 -15.75l3.6 2.2" />
</g>
<g id="PathID_2174" transform="matrix(0.54902, 0, 0, 0.54902, 38.5, 25.95)">
<path style="fill:#333300;fill-opacity:1" d="M10.55 -17.7q0 -10.95 -9.2 -19.55l2.2 -2.15q9.95 9.35 9.95 21.7q0 12.35 -9.95 21.7l-2.2 -2.2q9.2 -8.55 9.2 -19.5" />
</g>
</svg>
