<?xml version="1.0" encoding="utf-8"?>
<svg version="1.1" id="Layer_1"
xmlns="http://www.w3.org/2000/svg"
xmlns:xlink="http://www.w3.org/1999/xlink"
xmlns:author="http://www.sothink.com"
width="11px" height="11px"
xml:space="preserve">
<g id="650" transform="matrix(1, 0, 0, 1, 5.25, 5.25)">
<path style="fill:#000000;fill-opacity:1" d="M4,0Q4 1.7 2.9 2.9Q1.7 4 0 4Q-1.6 4 -2.8 2.9Q-4 1.7 -4 0Q-4 -1.6 -2.8 -2.8Q-1.6 -4 0 -4Q1.7 -4 2.9 -2.8Q4 -1.6 4 0" />
<path style="fill:none;stroke-width:2.5;stroke-linecap:round;stroke-linejoin:round;stroke-miterlimit:3;stroke:#000000;stroke-opacity:1" d="M4,0Q4 1.7 2.9 2.9Q1.7 4 0 4Q-1.6 4 -2.8 2.9Q-4 1.7 -4 0Q-4 -1.6 -2.8 -2.8Q-1.6 -4 0 -4Q1.7 -4 2.9 -2.8Q4 -1.6 4 0z" />
</g>
</svg>
