<?xml version="1.0" encoding="utf-8"?>
<svg version="1.1" id="Layer_1"
xmlns="http://www.w3.org/2000/svg"
xmlns:xlink="http://www.w3.org/1999/xlink"
xmlns:author="http://www.sothink.com"
width="116px" height="164px"
xml:space="preserve">
<g id="PathID_585" transform="matrix(0.0352941, 0, 0, 0.0352941, 0, 37.8)">
<path style="fill:#000000;fill-opacity:1" d="M481 -714l-358 0q-34 188.5 -67.5 377l74.5 4q25.5 -31 59.5 -49.5q34 -18.5 76 -19q48.5 0.5 85.5 21.5q36.5 21 57 58q20.5 37 21 85.5q-0.5 58 -21.5 96q-20.5 38 -55.5 57q-34.5 19 -76.5 19q-66 -1 -107 -37.5q-41 -36.5 -45.5 -93.5l-87 0q2.5 65.5 33.5 112q31 46.5 82.5 71q51.5 24.5 115.5 25q84 -1 140.5 -35.5q56.5 -34.5 84.5 -89q28.5 -55 28.5 -117.5q-1 -83 -32 -138.5q-31.5 -55 -84 -83q-53 -27.5 -118.5 -27.5q-37.5 0 -74 13q-36 12.5 -61 39.5l-2 -2l39 -209l292.5 0l0 -77" />
</g>
<g id="PathID_586" transform="matrix(0.0352941, 0, 0, 0.0352941, 48, 37.8)">
<path style="fill:#000000;fill-opacity:1" d="M293 -390.5q49.5 0.5 82 22.5q32.5 22.5 48.5 59.5q16 37.5 16 83q0 43.5 -17 80q-17 36.5 -49.5 58.5q-33 22 -80 22.5q-48 -0.5 -81.5 -22q-33.5 -21.5 -51.5 -58q-17.5 -36.5 -17.5 -82q0 -46 17.5 -83q17 -37 50.5 -59q33.5 -21.5 82.5 -22M511 -541q-8.5 -88.5 -61.5 -136.5q-53 -48 -143.5 -48.5q-77 1 -129 32.5q-51.5 32 -82 87q-30.5 55 -43.5 124.5q-13 69 -12.5 145q-0.5 58 9 119q9 60.5 35.5 113q26 52 75.5 84.5q50 32 130 33q68.5 -0.5 115 -23.5q47 -22.5 75 -59q28 -36.5 40.5 -79q12 -42.5 12 -82.5q-0.5 -68 -26.5 -121q-26.5 -53 -76 -83.5q-49.5 -31 -119.5 -31.5q-59.5 0 -105 22.5q-45.5 23 -76.5 73l-2 -2q1 -43 8.5 -90q7 -47.5 25.5 -89.5q18 -42 52.5 -68.5q34.5 -26 89.5 -27q52 0.5 84 29.5q31.5 29 38 78.5l87 0" />
</g>
<g id="PathID_587" transform="matrix(0.0352941, 0, 0, 0.0352941, 0, 84)">
<path style="fill:#000000;fill-opacity:1" d="M521.5 -714l-470 0l0 82l381 0q-77 81.5 -138.5 181q-62 100 -100.5 214q-39 113.5 -48 237l97.5 0q5 -86 28.5 -175.5q23 -89.5 61 -175q37.5 -85.5 85.5 -159.5q48 -74 103.5 -129l0 -75" />
</g>
<g id="PathID_588" transform="matrix(0.0352941, 0, 0, 0.0352941, 48, 84)">
<path style="fill:#000000;fill-opacity:1" d="M133 -205q0.5 -42 20.5 -73q20.5 -31.5 55 -48.5q35 -17.5 78.5 -17.5q41.5 0.5 75 18q34 18 54 49.5q20 31 20.5 70.5q-1 62 -41.5 101q-40.5 39.5 -107 40.5q-69 -0.5 -111.5 -37.5q-42.5 -37 -43.5 -103M66.5 -541q0.5 50.5 28 90.5q27.5 40.5 73 60q-60.5 22 -93.5 69q-32.5 47.5 -33 112.5q0.5 74.5 33 123.5q32.5 49 88 73.5q55.5 24.5 126 24.5q67.5 -0.5 122 -26.5q54 -26 86 -75q31.5 -49.5 32.5 -120q0 -68 -32 -114q-32 -46.5 -97 -67.5q45 -21 72 -61q27.5 -40 28 -89.5q0.5 -46.5 -22 -88.5q-22 -42 -70.5 -69q-48.5 -26.5 -127.5 -27.5q-57 0 -105 21.5q-48 21.5 -77.5 62.5q-29.5 41.5 -30.5 101M158.5 -537.5q0.5 -36.5 17.5 -61.5q17 -24.5 45.5 -37.5q29 -12.5 64 -12.5q54 0 87.5 28.5q33.5 28.5 34.5 83q-1 55.5 -34 86q-33.5 30 -86 30.5q-36 0 -65.5 -12.5q-29 -12.5 -46 -38.5q-17 -25.5 -17.5 -65.5" />
</g>
</svg>
