<?xml version="1.0" encoding="utf-8"?>
<svg version="1.1" id="Layer_1"
xmlns="http://www.w3.org/2000/svg"
xmlns:xlink="http://www.w3.org/1999/xlink"
xmlns:author="http://www.sothink.com"
width="164px" height="212px"
xml:space="preserve">
<g id="PathID_596" transform="matrix(0.0352941, 0, 0, 0.0352941, 0, 37.8)">
<path style="fill:#000000;fill-opacity:1" d="M460 -206l-94 -160q-31.5 -54 -32 -54q-3.5 -3.5 -7.5 -6q-4.5 -2 -9 -2q-8 0.5 -20 11q-11.5 11 -20.5 24.5q-9 13.5 -9.5 23q0 12 15 36.5l59.5 95q25 41 39 66q16.5 27 24.5 39.5l11 17q3 4.5 5.5 7q6 7 12.5 10q7 3.5 13 3.5q10.5 0 23 -9q12 -8.5 28 -27q17.5 -20 38 -52.5q20.5 -32 50.5 -87q29.5 -54.5 74.5 -142q32.5 -64 54 -103.5q21 -40 26 -49q32 -61 45.5 -90q14 -29.5 14 -37q-0.5 -11.5 -8.5 -19q-7.5 -7.5 -19.5 -8q-9 -1 -17 6q-7.5 7 -23 34.5q-15.5 28 -47 88.5q-15.5 30.5 -41 75q-25.5 45 -56.5 98q-31.5 53 -64.5 107.5q-33 54.5 -64 103.5" />
</g>
<g id="PathID_597" transform="matrix(0.0352941, 0, 0, 0.0352941, 48, 37.8)">
<path style="fill:#000000;fill-opacity:1" d="M562 -450.5q-19 19.5 -38 34.5q-19 15 -47 33q-32 22 -62 39q-30 16.5 -68.5 33q-38 16.5 -95.5 38.5l8 15.5q86 -20.5 155 -47.5q69 -27 125.5 -62q13 14.5 19.5 22.5q6 8 14.5 21.5q-70.5 54.5 -145.5 96.5q-75 41.5 -169 78.5q2 7 4.5 13.5q65.5 -16.5 120.5 -35.5q55.5 -19.5 107 -45q51.5 -25.5 106 -59q6.5 18.5 10.5 31.5q3.5 13 8 32q-54.5 39.5 -109.5 71.5q-55 32 -118 60.5q-63.5 28.5 -142 57.5l5 15.5q80 -20 142.5 -40q62 -20 117 -44q54.5 -23.5 112 -54.5l0 7l0 4.5q0 37 -7 69q-6.5 32 -17.5 48.5q-5.5 9 -14.5 12q-9.5 3 -33.5 2.5l-28.5 -2l-55 -5.5q-32 -3 -63 -7l0 15.5l12.5 3q6 1.5 12 2l26.5 5.5q18.5 3.5 30.5 7q12 3 19 6q13.5 7.5 19 18.5q5.5 10.5 5.5 28.5q30.5 -2 46 -4q16 -2.5 29.5 -6q18 -5.5 31.5 -16.5q13.5 -11 21 -25.5q11 -23 18 -55q7 -32 7.5 -60.5q-0.5 -82 -32 -155.5q-32 -74 -90 -127.5q17.5 -11.5 30 -21q12 -9.5 25 -21q12.5 -11.5 31 -29.5l14.5 0q12 96.5 40.5 174.5q29 77.5 79.5 148q32.5 46.5 65.5 79q33 32.5 79 61.5q18 -38.5 35 -52.5q17 -14 43.5 -13l4 -13.5q-50 -14.5 -91 -38q-41 -23.5 -86 -63.5q-24.5 -21.5 -42 -40.5q-17.5 -18.5 -33.5 -43.5q23.5 -10.5 41 -20q17.5 -9.5 38.5 -23q20.5 -13.5 53.5 -36.5l23 4l9.5 1q6 0 10 -2.5q4.5 -2.5 4.5 -6q0.5 -3 -6.5 -9q-6.5 -6.5 -25.5 -19q-19 -12.5 -55 -35.5q-17 34 -42.5 67.5q-25.5 33 -60 65q-30.5 -51.5 -44.5 -94q-14.5 -42.5 -18 -90.5l165 0l0 26.5q0.5 5.5 3.5 7.5q2.5 2 9 2l25.5 -2q14.5 -1.5 19.5 -3.5q3.5 -1 5.5 -4q1.5 -3 1.5 -8l-1 -26.5l-0.5 -29.5l-0.5 -56.5l0 -10.5l0 -31.5q20 -7 29.5 -13q9.5 -5.5 9.5 -11.5q0 -2.5 -2.5 -6l-9 -8.5q-17 -14.5 -28.5 -23.5q-11 -9.5 -31 -24.5q-13 13.5 -20.5 23l-20 24l-214.5 0q19.5 -14.5 35 -28q15.5 -14 32 -31q16.5 -17.5 38.5 -42.5q34 0 48 -3q14 -3 13.5 -11.5q0 -3 -3.5 -7q-3.5 -4.5 -12 -12.5l-24 -20l-20.5 -16l-26 -20.5q-16 16 -26 26.5q-10 10.5 -25 28l-155 0l14 -19.5q6.5 -9 16 -23.5q28.5 -4.5 41 -8.5q12.5 -4.5 12 -11q0 -5.5 -5 -9q-5 -4 -13.5 -6.5l-41.5 -11q-13.5 -3.5 -22.5 -6.5q-9.5 -2.5 -24 -7q-67.5 166 -224 307.5l8 13.5q28 -17 44.5 -28q16.5 -11 35.5 -25.5l0 39q0 13 -0.5 26q0 13.5 -1 39.5l-1.5 79q0 7.5 3.5 10.5q3.5 3 12 2.5l25 -1q14 -1.5 19 -3q3 -0.5 4.5 -2.5q2 -2 3.5 -5.5l0 -36l158.5 0M372 -626.5q30 -26.5 55.5 -53q26 -27 54 -61l170 0q-11.5 28.5 -20.5 47.5q-9 19.5 -17.5 34.5q-9 15.5 -20.5 32l-221 0M652.5 -603l195.5 0l0 129l-195.5 0l0 -129M595 -474l-191.5 0l0 -129l191.5 0l0 129M37.5 -346q25.5 -27.5 43.5 -49.5q18 -22 35.5 -46.5q17 -24.5 39 -59.5l0 335.5q0 36.5 -0.5 68.5l-2 68l-2.5 84q-1 8 3 12q4 4 12 4l3.5 0l8 -0.5l10 -0.5q22 -0.5 29 -4q7 -3.5 8 -13l-1 -84.5q-0.5 -33.5 -0.5 -58.5q-0.5 -25.5 -0.5 -49.5l0 -54.5l0 -76l0 -229q19 -6 27 -10.5q8 -5 8 -10q0.5 -7 -17 -11.5q-17 -5 -61 -10q30 -51 51.5 -93.5q22 -42 38.5 -82q17 -40.5 32 -86q27 -4.5 39 -9.5q12.5 -5.5 12.5 -13q0 -5.5 -10 -10.5q-10.5 -5.5 -37 -12q-26.5 -7 -74.5 -16.5q-4 31 -10.5 61q-6.5 29.5 -17 63q-11 33.5 -26.5 75q-37 98 -74.5 172.5q-37 74 -79 134.5q7 6.5 14 12.5" />
</g>
<g id="PathID_598" transform="matrix(0.0352941, 0, 0, 0.0352941, 96, 37.8)">
<path style="fill:#000000;fill-opacity:1" d="M964.5 -367.5q2.5 -1 4.5 -3q1.5 -2 2 -4.5q0 -2 -2 -4q-1.5 -2 -4.5 -4l-34.5 -22.5l-28 -17.5l-34.5 -19.5l-16.5 25q-6.5 10 -12.5 20q-6.5 10 -15 24.5l-136.5 18.5q-5 -23.5 -8.5 -43q-3.5 -19 -6.5 -40q-3 -21 -6.5 -49l252 -27.5q4 -1 7 -3.5q3 -2.5 3 -5q0.5 -0.5 -0.5 -2q-1 -1.5 -3.5 -4l-31.5 -24.5q-13 -10 -25.5 -19l-32 -22l-12.5 21.5l-10.5 18l-18 30l-131 15.5q-3 -28 -5.5 -56.5q-2 -29 -3.5 -62.5l284.5 -30.5q3 -1 6 -3.5q3 -2.5 3 -4.5q0 -1 -1 -3q-1.5 -1.5 -3 -3.5l-30.5 -22l-25 -18q-13 -9.5 -31.5 -22.5q-14 20.5 -22 33.5q-8.5 13 -21 34.5l-160.5 19q-1.5 -26.5 -2 -40.5q-0.5 -14 -0.5 -30q0 -12.5 0.5 -28.5q0.5 -16 2 -43q25 -10 35 -16q10 -6.5 10 -11.5q0 -6 -14 -10q-14 -4.5 -47.5 -8.5l-24 -3l-34.5 -5.5q3 17.5 4.5 29.5q1.5 12.5 2.5 34l1 23.5l1 22.5q0.5 12.5 2 34q1.5 22 4.5 59.5l-42 5l-39 3q-24.5 1 -46 1l-9.5 0l-14 0l10 33q29.5 -7 51 -10.5l47.5 -6l43 -5l6 86q2 30 2 33.5l-51 6.5l-40.5 3.5l-38.5 1.5l-12.5 -0.5q-8 0 -18 -0.5l10 35.5l31.5 -5.5q20.5 -4 40 -7l28 -4.5l54 -6.5q2.5 25 5.5 44.5q2.5 20 6 41q3.5 20.5 9 48l-101 13q-23 3 -58 4.5q-35 1.5 -68 1.5l10 37q57 -10 85.5 -14.5l30.5 -5l106.5 -14q10 47.5 22 83q12 36 30 70.5q-82 66.5 -180.5 119q-98.5 53 -206.5 87.5l5 14.5q118 -26 222.5 -70q104 -43.5 188 -103q33 47 76.5 87.5q43.5 41 85.5 66.5q42.5 25.5 71.5 26q9.5 0 16.5 -7q7 -7 7 -17.5q0.5 -7 -1.5 -12q-2 -5 -9.5 -17.5q-7.5 -11 -11.5 -20q-4 -9.5 -4 -15l0 -5l1 -7q11 -88 21.5 -176.5l-14 -4q-4 9.5 -11 28.5l-18 49.5l-16.5 46q-5.5 15 -10 26q-4.5 11 -12.5 28.5q-28 -20.5 -48 -37q-20 -17 -36.5 -35q-16.5 -18.5 -35 -44l32.5 -27l31 -27l40 -36l7 -0.5l18.5 -1.5l12 -1l6.5 -2q2 -1.5 3.5 -3.5q1.5 -2 1.5 -4q1 -6.5 -22 -16q-23.5 -9.5 -81.5 -27l-38 47.5q-9.5 12 -19 22.5q-10 10.5 -22 22.5q-14 -29.5 -24 -56.5q-9.5 -27.5 -17 -61.5l272.5 -35.5M240.5 -594q13.5 -32.5 22.5 -59q9.5 -26.5 17 -52.5q8 -26 16 -57.5l202.5 0q4 0 7 -2q3.5 -1.5 3.5 -4q0 -1 -1.5 -3l-3.5 -3.5l-31 -28l-25 -21.5l-31 -25q-17.5 19 -28 31q-10.5 12 -26.5 32.5l-195.5 0q-26.5 0 -52.5 -1.5q-26 -2 -50 -5.5l4 34.5l30 -1l68.5 -3l53 0q-6 33 -12 59.5q-6 27 -14 54q-8.5 27 -20 59.5q-19 58 -39 105.5q-19.5 47 -42.5 89q-22.5 42 -50.5 84l11 8.5q25 -24.5 42.5 -43.5q17.5 -19 32 -39q14.5 -19.5 31 -45.5q19.5 27 33 54.5q13 27.5 19.5 54q5.5 22.5 10.5 30.5q5 7.5 13 7q11.5 0 19 -16.5q7.5 -16.5 7.5 -43.5q0.5 -17.5 -5.5 -30q-6 -13 -26 -28.5q-20 -16 -61.5 -43q18 -31 32.5 -59.5q15 -29 30 -64.5l120.5 0q-13 68 -26.5 121.5q-13.5 53.5 -30 99.5q-16 46.5 -37.5 92.5q-28 62.5 -58 114q-30 51.5 -66.5 98.5q-36 46.5 -82.5 93.5q5.5 5 10.5 10.5q27.5 -21 44.5 -35q17 -13.5 32 -27.5q41 -39 79 -88q38 -49 70.5 -104.5q26.5 -45 47.5 -93.5q21 -48.5 40.5 -111q19.5 -62.5 41 -149q16.5 -6 24 -10.5q8 -5 8 -8q0 -2 -1.5 -4.5l-4.5 -5.5q-17.5 -17 -29 -27.5l-31.5 -27q-10 11 -16 18.5q-6 7 -15 19.5l-109.5 0M718 -809q18.5 18 33.5 38.5q15 20.5 30 50.5q5.5 12.5 10 17q4 4 9.5 3.5q3.5 0 8 -3q4 -3 8 -9.5q5 -9 8.5 -20.5q3.5 -11.5 4 -19q0 -10.5 -6.5 -19q-6 -9 -19 -16q-17.5 -10 -36.5 -17.5q-19 -7.5 -42.5 -14l-7 9" />
</g>
<g id="PathID_599" transform="matrix(0.0352941, 0, 0, 0.0352941, 0, 84)">
<path style="fill:#000000;fill-opacity:1" d="M549 -537.5l415.5 0q12.5 0 12.5 -6q0 -2 -2 -5q-1.5 -3 -4 -5.5q-22 -18 -37.5 -30l-30.5 -24l-38.5 -29l-23.5 26.5q-9.5 11 -18.5 22l-22.5 27.5l-622.5 0q-36.5 0 -62 -2.5q-25.5 -2.5 -52.5 -9l10 42q19.5 -3 47.5 -5l59 -2l298 0l0 487.5q0 9 -3 12.5q-3.5 3.5 -12.5 5l-33 -1l-33 -1l-53 -2.5l-92 -5l0 14.5l79.5 14.5q25.5 5 36 8q10 3.5 18 7q15 8 21.5 20q7 12 9 35.5q36.5 -5 59.5 -11q23.5 -5.5 40 -14.5q20 -10 28 -24.5q8 -14 7.5 -40q-0.5 -40.5 -0.5 -65.5q-0.5 -25 -0.5 -46.5l0 -49l0 -74.5l0 -269.5M170.5 -745.5q27 -3.5 49.5 -5q22.5 -1 53.5 -1l565.5 0q5.5 0 8.5 -2q3.5 -2.5 3.5 -6q0 -1 -2 -4q-1.5 -3 -4 -5.5l-35.5 -28.5l-28.5 -22.5l-34.5 -26.5l-21 25l-17 20.5q-8.5 10.5 -20 26l-415 0q-32 0 -57 -2.5q-25.5 -2.5 -54.5 -7.5q4 19.5 8.5 39.5M59.5 -58.5q49.5 -40 82.5 -72q33 -31.5 63 -68q18 -21 32 -39q14 -18 33.5 -48q19.5 -30 54.5 -86q22.5 -0.5 35.5 -5q13.5 -4.5 13.5 -11.5q0.5 -4.5 -10 -10q-10.5 -6 -36 -15q-26 -9 -71.5 -23q-3.5 28 -17.5 63.5q-13.5 35 -41 88q-20 38.5 -41 71.5q-21 33.5 -47.5 68q-26.5 34.5 -63 76.5l13 10M658.5 -418.5q70.5 82.5 117.5 159.5q47.5 77 74 153.5q8.5 23 15.5 32.5q7 10 15.5 9.5q9.5 -0.5 19 -13q9 -13 14.5 -33.5q6 -20.5 6 -43.5q0.5 -17 -6 -33.5q-7 -16.5 -23.5 -39q-19 -25.5 -55.5 -62q-37 -36.5 -81 -74.5q-44.5 -37.5 -84.5 -66.5q-6 5 -11.5 10.5" />
</g>
<g id="PathID_600" transform="matrix(0.0352941, 0, 0, 0.0352941, 48, 84)">
<path style="fill:#000000;fill-opacity:1" d="M286.5 -753.5q19.5 -6 35 -11.5q15 -5 32 -12q17 -6.5 41.5 -17.5l25.5 4q12 2 15.5 2q6.5 0 11 -3q4.5 -2.5 4.5 -7.5q0.5 -5 -10.5 -13.5q-11.5 -8.5 -38.5 -24l-17 -9.5l-24 -13q-49.5 38.5 -123.5 71.5q-74 33.5 -171.5 60.5l3 15.5q31.5 -3 54 -6q23 -3 45.5 -7.5q23 -4 55 -11.5l0 162l-97.5 0l-45 -1.5q-15.5 -1 -29.5 -5.5l6 35.5q15 -3 28 -4l32.5 -1l93 0q-8 34.5 -15.5 58.5q-7 24.5 -16 50q-9.5 25.5 -24.5 63.5q-21.5 54 -38 92q-17 37.5 -35.5 72q-18.5 35 -45.5 79.5l12.5 8.5q33 -41 57 -74.5q24.5 -33.5 44 -67q19.5 -33.5 39 -74.5q19 -41 42 -96.5l-7 177.5l-1.5 59l-2.5 101.5l0 43l-1 40l-2 37.5q-0.5 20.5 -2 49.5q0 5.5 3.5 8q4 2.5 11.5 2.5l27.5 -2q15.5 -2 22 -4.5q5 -1.5 7 -3.5q2 -2 2 -6.5l-1 -61.5q-0.5 -25.5 -0.5 -48q-0.5 -22.5 -0.5 -50.5l0 -68l0 -102l0 -180q17.5 19 29 39q12 20.5 22.5 51q8 21.5 12.5 28q4.5 6.5 11 6q11 -1 19 -17q8 -16 8.5 -37.5q0.5 -17 -7.5 -28.5q-7.5 -12 -26.5 -23.5q-13.5 -8.5 -31 -18.5l-37.5 -19.5l0 -83l149.5 0q3.5 0 6 -2q2.5 -1.5 2.5 -4q0 -1.5 -1 -3.5q-1 -2 -4 -5q-15.5 -14.5 -26.5 -24q-11 -10 -22.5 -19.5q-11.5 -10 -29 -24l-23.5 29q-9 11.5 -24 29.5l-27.5 0l0 -179M648.5 -338q0 8.5 -3 11.5q-3 3 -11.5 3q-23.5 0 -42 -0.5l-39.5 -2l-54.5 -4l0 16.5q46.5 9 70.5 17q24 7.5 33.5 20q10 12 13.5 33.5q29 -5 46 -11q17 -6.5 30 -15.5q15 -9.5 20.5 -20q6 -10.5 7 -29q-0.5 -18 -0.5 -28.5q-0.5 -11 -0.5 -21l0 -27.5l0 -394q24.5 -9 33 -14q8.5 -5 8 -10.5q1 -5.5 -5.5 -9q-6.5 -3.5 -31 -8q-25 -4.5 -78 -12q2 37.5 3 63q1 25 1 54l0 388M770 -662.5q36 41 55 64.5q18.5 23.5 31 43q2.5 3.5 11 17.5l19 32l19.5 32.5q8.5 14.5 11 19.5q12 22 18 29q6 7.5 14 6.5q12.5 -0.5 21 -22q8.5 -21 8.5 -52.5q0.5 -18.5 -7 -31.5q-7.5 -13.5 -27.5 -31q-25 -23 -47.5 -41q-22.5 -17.5 -49.5 -35.5q-27 -17.5 -67 -41.5q-4.5 5.5 -9.5 10.5M388 -275.5q24 -30.5 40.5 -54.5q17 -24 31 -49.5q14 -26 31 -62q15.5 -33 27 -59.5q11.5 -27 21 -54q9.5 -27.5 21 -62.5q25.5 -2 34 -5.5q8.5 -3 8 -9q0.5 -5.5 -12 -12q-12.5 -6 -46.5 -16.5q-8 -1.5 -19 -5q-11.5 -3.5 -26 -8.5q-3.5 23.5 -7.5 44q-3.5 20 -9 44q-5.5 24 -14.5 58.5q-13 50.5 -25.5 88.5q-12.5 38 -28.5 74.5q-16 36 -39.5 81q7.5 4 14.5 8M337 63.5q45 -11.5 77.5 -21q32.5 -9.5 59.5 -20q27.5 -10.5 57.5 -24.5q80.5 -38 148 -87q67.5 -49.5 119.5 -108.5q19 -21.5 34.5 -42.5q15.5 -20.5 31.5 -46.5q16 -26 37.5 -63q25.5 -1 36 -4.5q10.5 -3.5 10 -9.5q0.5 -5 -7 -10.5q-7.5 -5 -30.5 -15l-69 -28q-7.5 22 -14 38q-6 15.5 -14 30.5q-7.5 15 -19 35q-32 53.5 -63.5 93.5q-32 40.5 -70.5 75q-38 34.5 -89.5 69q-40 28 -75.5 48.5q-35.5 21 -74.5 38.5q-39.5 18 -91 37l6.5 15.5" />
</g>
<g id="PathID_601" transform="matrix(0.0352941, 0, 0, 0.0352941, 96, 84)">
<path style="fill:#000000;fill-opacity:1" d="M977 -407.5q3.5 0 6.5 -2q2.5 -1.5 2.5 -4q0 -1.5 -1.5 -4.5l-3.5 -6q-20 -16.5 -34 -27l-28 -21.5l-35.5 -25l-23.5 23.5l-19 19q-9.5 9.5 -23 24l-280.5 0l0 -122l346 0q3.5 0 5.5 -2q2.5 -1.5 3 -3q-0.5 -2.5 -1.5 -4.5q-1 -2.5 -3 -5q-20 -16 -33 -26.5l-27 -21.5l-32 -25.5q-19 18 -30.5 30.5l-28 34l-199.5 0l0 -116l392 0q3.5 0 6 -2q2.5 -1.5 2.5 -4q0 -2.5 -1.5 -4.5l-2.5 -5q-20 -17 -34 -28l-27.5 -22.5l-34 -27l-23.5 24.5l-19.5 20l-23.5 25l-234.5 0l0 -93q7.5 -3.5 13.5 -5.5q5.5 -2.5 10 -4q7 -2 11 -4.5q4 -2.5 5.5 -4.5l4 -9.5q0 -1.5 -3 -5q-2.5 -3 -5 -4q-7 -3 -33.5 -7q-26 -3.5 -75 -7.5l3 56l1 30l0 19.5l0 39l-305 0q-17.5 0 -36.5 -2.5q-19 -3 -34.5 -6.5q3 19.5 5.5 39.5q10.5 -3 29.5 -5q19 -2 36 -2l305 0l0 116l-250 0q-14 0 -30 -2q-15.5 -2 -31.5 -5q3 18 5.5 36.5q11 -3 24.5 -4.5l31.5 -1.5l250 0l0 122l-357.5 0q-15 0 -33.5 -2q-18.5 -2.5 -35 -6l6 36.5l31 -3l32.5 -2l309.5 0q-21 26 -38 44.5q-16.5 19 -37 37.5q-20 18.5 -51 44q-43.5 36.5 -81.5 65.5q-38.5 29 -78.5 55.5q-40 26.5 -89 55l4 12.5q33 -10.5 56 -19.5q23.5 -9.5 48.5 -22.5q24.5 -13.5 62.5 -36q28 -16 52.5 -31.5q24 -15 49 -32l0 191.5l-61 11.5l-35.5 6l-23.5 3.5l-25.5 2.5q11.5 52 18 76.5q6 24.5 10.5 31q4 7 9.5 6.5q5.5 0.5 9.5 -8.5q4 -8.5 12 -38q69.5 -21 118.5 -37q48.5 -15.5 88 -30q39 -14 78.5 -30.5q40 -17 90.5 -39.5l-3 -15.5q-39 10 -66 16.5q-26.5 6.5 -48.5 11.5q-22 5 -46.5 10l-60 11.5l0 -228.5q22 -18 40 -34.5q17.5 -17 37 -38q19.5 -20.5 47 -51.5l2 0q6 24.5 10 39q4 14 8.5 25.5q21.5 65.5 61 128.5q39.5 63 93.5 119.5q32 33.5 62 58q30 24.5 66.5 46q36.5 21.5 87.5 45.5q11 -34.5 28 -49q17.5 -14.5 46.5 -15.5l3.5 -15.5q-62.5 -17 -106 -33q-43.5 -16 -78 -34.5q-34.5 -19 -69 -44q-21 -15 -39 -30.5q-17.5 -15 -37 -36q14.5 -5 23 -8.5q9 -3.5 16 -7l18.5 -9.5q44 -23 79.5 -43q36 -20 64 -37.5l19.5 3.5q9.5 1.5 17 1.5q6.5 0 11 -3.5q4.5 -3 4.5 -8q1 -3 -4 -7.5q-4.5 -4.5 -26 -17.5q-21.5 -13.5 -70.5 -42.5q-5.5 10.5 -12 19q-7 8.5 -25 27.5q-18 19 -58 60q-9.5 10 -25 23q-15.5 13.5 -45.5 36.5q-26 -29.5 -44.5 -57.5q-18 -27.5 -32.5 -59.5q-14 -31.5 -27.5 -73.5l445.5 0" />
</g>
<g id="PathID_602" transform="matrix(0.0352941, 0, 0, 0.0352941, 0, 132)">
<path style="fill:#000000;fill-opacity:1" d="M941.5 -887q-75.5 62 -129 141.5q-53 79 -81 170q-28 90.5 -28 187.5q0 95 28 185.5q28 90.5 83 172q27 41.5 56.5 73.5q29.5 32.5 70.5 64.5l15 -15.5q-35 -47 -58.5 -82.5q-23.5 -35.5 -43.5 -73q-38 -70.5 -56.5 -150.5q-18.5 -80.5 -18.5 -175q0 -95 18 -175.5q18.5 -81 57 -151.5q20 -37 43.5 -72.5q23.5 -35.5 58.5 -83q-7.5 -7.5 -15 -15.5" />
</g>
<g id="PathID_603" transform="matrix(0.0352941, 0, 0, 0.0352941, 48, 132)">
<path style="fill:#000000;fill-opacity:1" d="M83.5 107.5q75 -61 128.5 -140q53 -79.5 81 -170.5q28 -91.5 28.5 -188q0 -97 -28 -187.5q-28 -90.5 -81 -169q-53.5 -78.5 -129 -139.5l-15 15.5q50.5 67 84.5 125q34.5 58 54.5 113.5q20.5 55.5 29.5 115q8.5 59 8.5 129q0 69 -8.5 128.5q-9 59 -29.5 114.5q-20 55 -54.5 113q-34 58 -84.5 125l15 15.5" />
</g>
</svg>
