<?xml version="1.0" encoding="utf-8"?>
<svg version="1.1" id="Layer_1"
xmlns="http://www.w3.org/2000/svg"
xmlns:xlink="http://www.w3.org/1999/xlink"
xmlns:author="http://www.sothink.com"
width="164px" height="212px"
xml:space="preserve">
<g id="PathID_589" transform="matrix(0.0352941, 0, 0, 0.0352941, 0, 37.8)">
<path style="fill:#000000;fill-opacity:1" d="M471 -367.5q0 -70.5 -12.5 -136.5q-12.5 -65.5 -38.5 -118q-26.5 -52.5 -68 -83.5q-41.5 -31 -99.5 -31.5q-52.5 0.5 -92 32q-39.5 31.5 -66 84.5q-27 53.5 -40 120q-13.5 66.5 -13.5 138q0 71.5 11.5 137.5q12 66 37.5 118.5q26 52.5 67.5 83q41.5 31 101.5 31.5q54 -0.5 94 -32q40 -31.5 66 -85q26.5 -53.5 39 -120.5q13 -66.5 13 -138M373.5 -364.5q0.5 62 -4 123q-4.5 61 -16.5 112q-12 51 -35 81.5q-22.5 30.5 -59 31.5q-42 -1 -67 -31.5q-24.5 -30.5 -37 -81.5q-12 -50.5 -15.5 -111.5q-4 -61 -3.5 -122.5q0 -63 5 -124.5q5 -61.5 18 -112q12.5 -51 35.5 -81.5q22.5 -30 57 -31q41.5 1 66.5 31q24.5 30 36.5 80q12 50.5 15.5 112q4 61.5 3.5 125" />
</g>
<g id="PathID_590" transform="matrix(0.0352941, 0, 0, 0.0352941, 48, 37.8)">
<path style="fill:#000000;fill-opacity:1" d="M442.5 -10q0 -5.5 -4 -10.5q-3.5 -4.5 -8 -7q-59 -3 -83.5 -12q-24 -9 -28.5 -23q-3.5 -10 -5 -29.5q-1 -19.5 -1 -61.5l0 -468q0 -26.5 0.5 -46q0.5 -19.5 1.5 -33q0 -4 0.5 -8q0.5 -3.5 0.5 -7.5q0.5 -9.5 -2.5 -15.5q-2.5 -6 -10.5 -6q-6 1 -15.5 7.5l-14.5 11q-9.5 6.5 -34 17.5q-25 11 -58 21.5q-33.5 10.5 -67.5 16.5q-8 1 -12 5q-4.5 4.5 -4.5 9q0 4 4 7q4 3 12.5 3.5l107.5 0q3 0 5.5 2q2.5 2.5 2.5 7l0 496q1 47.5 -4 69q-5.5 21 -29.5 27.5q-24.5 6.5 -80 10q-6.5 4 -9.5 8.5q-3 4 -3 9q0 4 4.5 7q4 3 14 3l303 0q10.5 0 14.5 -3q4 -3 4 -7" />
</g>
<g id="PathID_591" transform="matrix(0.0352941, 0, 0, 0.0352941, 96, 37.8)">
<path style="fill:#000000;fill-opacity:1" d="M462.5 -214.5q0 -6 -4 -8.5q-3.5 -2.5 -8 -2.5q-2.5 0 -6 1q-3 1.5 -5.5 3q-28 75.5 -56 111.5q-28.5 35.5 -50.5 35l-235.5 0q17.5 -35 47 -71.5q29 -37 61.5 -70q32.5 -33 59.5 -57q46 -38 90 -76.5q44.5 -38.5 74 -87q29.5 -49 30.5 -118.5q-1 -64.5 -28 -105q-27 -40 -71 -58.5q-43.5 -18.5 -93.5 -18.5q-58.5 1 -99 23q-41 22 -65.5 55q-25 33 -36.5 66.5q-11 33 -11 56q0 14.5 6 31.5q5.5 17 19.5 29.5q14 12.5 38 13q26.5 -0.5 41.5 -18q14.5 -17.5 15 -46.5q-0.5 -19.5 -7 -28.5q-6.5 -9 -13 -17q-6.5 -8 -7 -24.5q1 -55.5 31.5 -86q30 -30 77 -30.5q45 0.5 69 21.5q24 21 33.5 56q9 35 8.5 78q-0.5 50.5 -20.5 94q-20 43 -50.5 82q-31 38.5 -64.5 75q-68 77.5 -106 133.5q-38.5 56 -55.5 92q-16.5 36.5 -20.5 54.5q-4 18 -3 19.5q-1 5 4 6.5q5.5 1.5 27.5 1.5l322.5 0q5.5 -1 10 -5q4 -4.5 5.5 -11.5l21.5 -87q11.5 -49 22.5 -102.5l1.5 -4.5q0.5 -2 0.5 -4" />
</g>
<g id="PathID_592" transform="matrix(0.0352941, 0, 0, 0.0352941, 0, 84)">
<path style="fill:#000000;fill-opacity:1" d="M466 -204q-1 -77 -45.5 -127.5q-44 -50.5 -117.5 -61q40 -8 71.5 -31q31.5 -23 50 -59.5q18.5 -36 19 -84.5q0 -40.5 -19 -79q-19.5 -39 -60 -64.5q-40.5 -25.5 -104.5 -26.5q-68.5 1 -112.5 25q-44 24 -65 60.5q-21 36.5 -21 74.5q-0.5 11 3.5 24.5q4 13.5 16.5 23.5q12 9.5 36.5 10q19 0.5 34 -13q15 -13.5 16 -44q-0.5 -13 -5 -23.5q-4.5 -10 -10.5 -20.5q-2 -5 -3 -9.5q-1 -4.5 -1 -9q0.5 -20 15.5 -37q14.5 -17.5 37 -28q23 -10.5 47 -11q48 1 70.5 24q23 23.5 29.5 59q6.5 35.5 5.5 73q-0.5 70.5 -28 112q-27 41.5 -71.5 42.5l-3 0q-11.5 -0.5 -21.5 -3.5q-10 -3 -21.5 -3.5q-16 -0.5 -28.5 3.5q-13 4.5 -13.5 20q1 14.5 15 18.5q14 4 26 3.5q14 -0.5 25 -4.5q11 -4 25 -4.5l7.5 0q56 1 80 46q24.5 45 24 120q0.5 51 -9.5 94.5q-10.5 43.5 -39 70.5q-29 26.5 -83.5 27.5q-42 -1 -65 -23q-23.5 -22.5 -24 -55q0 -2 0.5 -5q0.5 -2.5 0.5 -5q1 -9.5 4.5 -19q3.5 -10 3.5 -20q0.5 -5 -2.5 -18.5q-3 -13.5 -15 -26q-11.5 -12 -36.5 -13q-3 -0.5 -17 2.5q-14 3 -27.5 16q-13 13.5 -14 44q-0.5 17 8.5 41q9 24.5 30.5 48.5q21.5 24 58.5 40q37.5 16.5 94 17q76.5 -0.5 127.5 -29q51.5 -28.5 77 -76.5q26 -48 26 -106.5" />
</g>
<g id="PathID_593" transform="matrix(0.0352941, 0, 0, 0.0352941, 48, 84)">
<path style="fill:#000000;fill-opacity:1" d="M489.5 -198.5q0.5 -11 -2.5 -13.5q-3 -2.5 -16 -2l-95 0l0 -486.5q0.5 -26.5 -4 -32.5q-4.5 -5.5 -16.5 -4.5q-8.5 -1 -13 4q-4.5 4.5 -17 24.5q-25 42.5 -61.5 103q-36.5 60.5 -77.5 127.5q-40.5 67 -77.5 127.5q-37 60.5 -63 102l-16 25.5q-8 12.5 -8.5 28q-0.5 9 9.5 13q9.5 3.5 34.5 3.5l230.5 0l0 69.5q0.5 35.5 -5.5 52.5q-6.5 17 -23.5 23q-17.5 5.5 -51 6.5q-3 3 -6 8q-3 4.5 -3 9.5q-0.5 4.5 3 7q3 3 12.5 3l225 0q10 0 14 -3.5q3.5 -3 3.5 -7.5q0 -5 -2.5 -9.5q-3 -4.5 -7.5 -7q-37.5 -1.5 -54.5 -8.5q-16.5 -7 -21 -17.5q-4 -10 -3.5 -22l0 -22.5l0 -81l95 0q13.5 0.5 16.5 -2.5q2.5 -3 2 -17M303.5 -614.5l-2 54q-1.5 31 -2.5 63.5q-1.5 33 -2 60q-1 27.5 -1 42.5l0 180.5l-235.5 0l58.5 -95q32 -53 66 -108.5l64.5 -107.5q30.5 -51 54 -89.5" />
</g>
<g id="PathID_594" transform="matrix(0.0352941, 0, 0, 0.0352941, 96, 84)">
<path style="fill:#000000;fill-opacity:1" d="M468 -242.5q0 -61 -25 -109.5q-25 -48.5 -73 -76.5q-48 -28.5 -117 -29l-2 0q-14.5 -0.5 -38.5 5q-24.5 5.5 -50 19.5q-26 14 -45.5 40l5 -59.5l6 -72.5q3.5 -37.5 6 -71.5l5 -55.5l252 1q10.5 0 15.5 -4q4.5 -4.5 8 -13.5q8.5 -20.5 16.5 -41q1.5 -4 2 -6.5l0 -5q0 -5 -4 -7q-3.5 -2 -11.5 -2l-282.5 0q-17.5 0 -22 7q-4.5 6.5 -4.5 17.5q-2 34 -6.5 78.5q-4 44.5 -9 93q-5 48.5 -8.5 94.5q-3.5 46 -3.5 83l0 1q0.5 7.5 9 12q8.5 4.5 17.5 4.5l4.5 0q2.5 -0.5 4 -2q18.5 -41 54 -64.5q35.5 -23 76 -23.5l2 0q48 1 75 28.5q27 27.5 38 69.5q11 41.5 10.5 85q0.5 57 -11 109q-12 52 -40.5 85q-28.5 33.5 -79.5 34.5q-42 -1 -67 -20q-25 -19 -26 -46.5q0 -8.5 2.5 -17.5q3 -9 9 -17.5q4 -6.5 6.5 -16.5q2.5 -10.5 2.5 -20q0.5 -2 -2.5 -16q-3.5 -14.5 -15.5 -28.5q-12.5 -14 -39 -15q-7 -0.5 -21 2.5q-14 3.5 -26 17q-12 13.5 -12.5 44q-0.5 10 5 35q6 25.5 25 54q19 28.5 57.5 49q38.5 20.5 102.5 21.5q83 -1 133 -37q50 -36.5 72 -93q22 -57 21.5 -120.5" />
</g>
<g id="PathID_595" transform="matrix(0.0352941, 0, 0, 0.0352941, 0, 132)">
<path style="fill:#000000;fill-opacity:1" d="M465 -248q0.5 -33 -8 -69.5q-8.5 -36 -29.5 -68q-20.5 -31.5 -57.5 -51.5q-37 -20 -93.5 -20.5q-44.5 1 -81 21.5q-36.5 20.5 -59.5 50q4 -54 14 -110.5q10.5 -57 27.5 -106q17.5 -49.5 44 -79.5q26.5 -30.5 63.5 -31.5q26 0 38.5 9.5q12.5 9 12.5 28.5q0 7 -1.5 16q-2 8.5 -5.5 18.5q-2.5 7 -3.5 12.5q-1 6 -0.5 11.5q1 24 17.5 35q17 11 35.5 11q17 -0.5 29 -10q11.5 -9 18 -23q6 -14 6.5 -27.5q-1 -45.5 -39.5 -74.5q-38 -29 -104 -30q-58.5 0.5 -103 33q-45 32.5 -75.5 90.5q-31 58 -46.5 134.5q-16 77 -16 165.5q0 53 10 108.5q10 55.5 34 103.5q23.5 48 63.5 78q40 29.5 99.5 30.5q56.5 -0.5 96.5 -23q40 -22.5 65.5 -59.5q25.5 -37.5 37 -82.5q12 -45 12 -91M375 -251q0 41 -5 82.5q-5.5 41 -18 76q-13 35 -35.5 56q-22.5 21.5 -56.5 22q-32.5 0.5 -61.5 -32q-29 -32 -47 -101q-18 -68.5 -18.5 -177l0 -10.5q10.5 -25 31.5 -45.5q21 -20.5 47 -33q25.5 -12 50.5 -12.5q34 0.5 56 17.5q22 17 34.5 44q12.5 27 17.5 57q5 30 5 56.5" />
</g>
</svg>
