<?xml version="1.0" encoding="utf-8"?>
<svg version="1.1" id="Layer_1"
xmlns="http://www.w3.org/2000/svg"
xmlns:xlink="http://www.w3.org/1999/xlink"
xmlns:author="http://www.sothink.com"
width="164px" height="212px"
xml:space="preserve">
<g id="PathID_1349" transform="matrix(0.0352941, 0, 0, 0.0352941, 0, 37.8)">
<path style="fill:#000000;fill-opacity:1" d="M143.5 19.5q0.5 28.5 16.5 45.5q16 16.5 44 17q28.5 0 44 -16q15.5 -16 15.5 -46.5l0 -565.5q28.5 -89 43.5 -151.5q14.5 -63 15 -97q-1 -25 -18 -41.5q-17 -16.5 -43.5 -17q-21 0 -36 12.5q-14.5 12.5 -19.5 34.5q-14 66.5 -25 112q-11.5 45 -24 80q-12.5 35 -29.5 69.5q-17 35 -42.5 80.5q-19.5 33 -30.5 54q-11 21 -15.5 34.5q-4 13.5 -4 24.5q0.5 23 17 39q16 16.5 39.5 17q13 0.5 25 -6q12.5 -6.5 28 -22.5l0 343M493.5 -555q-8 40.5 -34 94q-25.5 53 -61.5 107q-36 54 -75 96q-32 32.5 -44.5 52q-12.5 20 -12 36q0.5 22 15.5 37q15 15 37.5 15.5q18.5 0.5 38.5 -11.5q19.5 -12.5 48.5 -42q27.5 -27 51 -57q23.5 -29.5 47.5 -69q24.5 -39.5 55 -95l0 196.5l-94 0q-28 0 -43.5 13.5q-15.5 13.5 -16 38q0.5 24 15 37q15 13 41.5 13l97 0l0 113.5q0.5 31 17.5 50q17 19 46 19.5q31 0 47 -17.5q16.5 -17.5 16.5 -50l0 -115.5l99.5 0q24 -0.5 38 -13.5q14 -13 14 -34.5q0 -26.5 -15.5 -40q-15.5 -13.5 -44 -13.5l-92 0l0 -187.5q72.5 126.5 136 192q63.5 66 113 66q22 -0.5 36.5 -16.5q15 -16 15.5 -39.5q0 -14 -6.5 -27.5q-6.5 -13.5 -18 -24q-51.5 -41.5 -89 -83.5q-37 -42.5 -69.5 -98.5q-33 -56.5 -70 -140.5l188.5 0q26 -0.5 42 -16.5q16 -16.5 16.5 -43q0 -26 -17 -40q-17 -14 -48.5 -14l-229.5 0l0 -122q-0.5 -29.5 -18 -47.5q-18 -17.5 -47.5 -18q-28 0.5 -44.5 18q-16.5 17.5 -17 48.5l0 121l-210.5 0q-28 0 -43.5 14.5q-15.5 14 -16 39.5q0.5 26 16 42.5q15.5 16.5 40.5 17l147 0" />
</g>
<g id="PathID_1350" transform="matrix(0.0352941, 0, 0, 0.0352941, 48, 37.8)">
<path style="fill:#000000;fill-opacity:1" d="M77.5 -37q1 56 25 78q24 22.5 84 21.5l651 0q52.5 -1.5 77.5 -25.5q24.5 -24 25 -74l0 -684.5q2.5 -62 -20 -87.5q-23 -25.5 -82.5 -27.5l-651 0q-43.5 0 -67 10q-24 10 -33 34.5q-9.5 25 -9 70.5l0 684.5M822 -81q-0.5 20 -8.5 30q-8 9.5 -23 9l-559 0q-22.5 -1 -29.5 -8.5q-7 -7.5 -6.5 -30.5l0 -615q-0.5 -22.5 7 -30.5q8 -8.5 29 -8.5l108.5 0l0 58.5q-1 102 -10 172q-9.5 70 -31 123q-21.5 52.5 -58.5 102q-17 22 -22.5 34.5q-5.5 13 -5 29q0.5 23 15.5 37q15 13.5 41 14q18 0 33 -7q15 -7.5 29.5 -25q13 -15.5 26 -34.5q13 -19 22 -37q34.5 -67.5 53 -169q18.5 -101.5 18.5 -229l0 -68.5l99.5 0l0 427.5q-0.5 39 13.5 61q14 22 47.5 31.5q33.5 9.5 91.5 9q20.5 0 33.5 -0.5q13 0 26 -1.5q12.5 -1.5 33.5 -5q2.5 -0.5 9.5 -1.5q7.5 -1 16 -1.5l0 135M822 -310.5q-15 -5.5 -23.5 -7.5q-8.5 -2.5 -14.5 -2.5q-2 0 -11 1q-9 1.5 -23.5 4q-7 1 -15.5 1.5q-8 0.5 -17.5 0.5q-28 0 -42 -7q-14 -7 -14 -20.5l0 -394l130 0q16.5 0.5 24 10q7.5 10 7.5 29l0 385.5" />
</g>
<g id="PathID_1351" transform="matrix(0.0352941, 0, 0, 0.0352941, 96, 37.8)">
<path style="fill:#000000;fill-opacity:1" d="M80 -60.5q-2.5 3.5 -12 15.5q-9.5 12 -25 30.5q-8.5 10 -12 17.5q-3.5 8 -3.5 15.5q0.5 17.5 13 29.5q12.5 12 31 12.5q19.5 0 37 -11.5q18 -11.5 34 -33.5q24.5 -35.5 39 -66q14 -30.5 14 -49q-0.5 -15 -13 -25.5q-12 -11 -29 -11.5q-11 0.5 -20.5 6q-10 5.5 -16 14.5l-37 55.5M254 -483.5l-165 0q-27.5 0 -41.5 10.5q-13.5 10.5 -13.5 31.5q0 22.5 15.5 33.5q15.5 11.5 47 11.5l443 0q26 0 39 -11q13.5 -11 13.5 -33q-0.5 -21 -13.5 -32q-13.5 -11 -39 -11l-172 0l0 -41.5l108.5 0q39 -0.5 52.5 -17q13.5 -16.5 11 -61l0 -139.5q1.5 -38.5 -5.5 -58.5q-7.5 -20 -30 -26.5q-22.5 -7 -67 -7l-286.5 0q-40 0 -59 16q-19.5 16.5 -18.5 48.5l0 169q-0.5 44.5 18 60.5q18 16.5 68 15.5l95 0l0 41.5M434 -649.5l0 26q0.5 12 -4.5 15.5q-5 3.5 -22 3l-204.5 0q-18 -1 -22 -4q-4 -3 -3 -14.5l0 -26l256 0M178 -722l0 -14q0 -8.5 5 -12q4.5 -4 16.5 -4.5l211 0q13.5 0 18.5 3.5q5.5 3.5 5 13l0 14l-256 0M367.5 -145.5l99.5 0q40 0.5 57 -14q16.5 -14.5 15.5 -48.5l0 -83.5q0.5 -40 -12 -55.5q-12.5 -16 -46.5 -16.5l-336.5 0q-41 0.5 -57 14q-16 14 -14.5 46.5l0 97q0.5 32 18.5 46.5q18 14.5 56 14l106.5 0l0 101.5q0 14.5 -3.5 21.5q-4 6.5 -13 8q-28 2.5 -40.5 4q-12.5 1 -16.5 2q-4 1 -6.5 2.5q-10 4.5 -16 16q-6 11.5 -6.5 24.5q0 26.5 22 40q22.5 13.5 66 13.5q66.5 0.5 97.5 -25q31 -25.5 30.5 -80.5l0 -128M178 -263q-0.5 -11.5 4.5 -15q4.5 -4 20.5 -4.5l208.5 0q13 0.5 18 4q5 3 4.5 11.5l0 23.5q-0.5 7 -4.5 9.5q-4.5 2.5 -18 2.5l-208.5 0q-17 0.5 -21.5 -2.5q-4 -3 -3.5 -14l0 -15M438 -139.5q-17.5 0.5 -30 12.5q-12.5 12 -13 28.5q0 6 1.5 12q2 6 11 20.5q9 15 29.5 47.5q13.5 24 19.5 34.5q6 10.5 8 13.5q2 2.5 3.5 3q6.5 8 14 11q7.5 3.5 16.5 3.5q18.5 -0.5 31 -12.5q12.5 -12.5 13 -30.5q0 -21 -12 -46.5q-12 -25.5 -38 -59q-15.5 -20 -28.5 -29q-13 -9 -26 -9M939 -331.5q-14.5 -1 -26 5q-11 6.5 -29.5 30.5q-18 24 -54 77q-31 42.5 -63.5 75q-32.5 32.5 -74 61.5q-42 28.5 -100 60q-24 12 -34 25q-10.5 13 -10.5 29q1 22 18 37q17.5 15 42.5 15.5q19 0 46.5 -11q28 -11 62 -31q57.5 -34.5 108 -80q50.5 -45.5 99 -107.5q34 -42.5 50 -75q16.5 -33 16.5 -56q-0.5 -23.5 -15 -39q-14 -15.5 -36 -16M924.5 -621.5q-7 0.5 -12 2.5q-5.5 1.5 -8.5 3.5q-13 10.5 -35.5 37.5q-22.5 27 -52.5 69q-27 37.5 -68.5 76q-41.5 38 -86 67.5q-49 30.5 -72 47q-23.5 16.5 -30 27q-6.5 10.5 -5.5 24.5q0.5 24.5 15 39.5q15 15 40 15.5q18 0 35 -6.5q17.5 -6.5 43 -22q20.5 -13.5 46 -33q25.5 -19.5 52 -41.5q26 -21.5 48.5 -42.5q67.5 -63.5 107 -119.5q39.5 -56 40.5 -91q-1 -23 -17.5 -38.5q-16.5 -15 -39 -15M892 -853q-13.5 -0.5 -31 13.5q-18 13.5 -48 47q-40.5 44.5 -73.5 74.5q-32.5 30.5 -58.5 47.5q-50.5 32.5 -72.5 47q-22.5 15 -29 21q-6.5 5.5 -10.5 11.5q-3.5 5.5 -6 12q-2 7 -2 14q1 20.5 17.5 36.5q16 15.5 38 16.5q30 0 75.5 -27q46 -27 104.5 -78.5q74 -64.5 111 -111q37.5 -47 37.5 -75.5q-1 -19 -16.5 -33.5q-16 -14.5 -36.5 -15.5" />
</g>
<g id="PathID_1352" transform="matrix(0.0352941, 0, 0, 0.0352941, 0, 84)">
<path style="fill:#000000;fill-opacity:1" d="M196.5 -50.5l-84 0q-26.5 0.5 -42.5 16.5q-16.5 16 -17 42q1 25.5 17.5 43q16 17.5 40 18.5l805 0q34.5 0 51.5 -16q17 -16 17 -47.5q0 -28 -17.5 -42q-18 -14.5 -51 -14.5l-320.5 0l0 -298.5l254 0q28 -0.5 43 -16q15 -15.5 15.5 -43.5q-0.5 -28 -16 -43q-16 -15.5 -44.5 -15.5l-252 0l0 -227.5l293 0q26.5 -0.5 42 -16q16 -16 16 -42.5q0 -25.5 -16.5 -41.5q-16 -16 -42.5 -16.5l-749 0q-28 0.5 -45 16.5q-17 16 -17.5 41.5q0.5 26.5 17.5 42.5q17 15.5 45 16l330 0l0 644l-150.5 0l0 -364q-0.5 -27 -17.5 -44q-17.5 -17 -44 -17.5q-28 0 -43.5 16.5q-15.5 16.5 -16 45l0 364" />
</g>
<g id="PathID_1353" transform="matrix(0.0352941, 0, 0, 0.0352941, 48, 84)">
<path style="fill:#000000;fill-opacity:1" d="M431 -730l-61.5 97l-206.5 0q-48 1.5 -67.5 23q-20 21.5 -19.5 71.5l0 510q1 37 10.5 57.5q9 20 31 28q22.5 8.5 61.5 8.5l651.5 0q43 0.5 67.5 -8.5q24 -8.5 34.5 -30.5q10 -22 10.5 -62l0 -497q1.5 -51.5 -21.5 -75q-23.5 -23 -78.5 -25.5l-342.5 0l53.5 -97l328.5 0q31.5 0 46 -13q14.5 -13 14.5 -41.5q0 -25 -13.5 -38.5q-13 -13.5 -38.5 -13.5l-752.5 0q-31 0 -46.5 13.5q-16 13.5 -16 39.5q0 26.5 16 40q16.5 13.5 46.5 13.5l292.5 0M311 -48l-85 0q-19.5 -0.5 -27 -8q-8 -7.5 -7.5 -25l0 -402q0.5 -17.5 8.5 -24.5q8 -7 28.5 -6.5l82.5 0l0 466M429 -434l0 -80l165 0l0 80l-165 0M429 -48l0 -81l165 0l0 81l-165 0M429 -245.5l0 -73l165 0l0 73l-165 0M710.5 -48l0 -466l81 0q16.5 0 25 9.5q9 9.5 10 27.5l0 397q0 20.5 -6.5 26q-6 6 -28.5 6l-81 0" />
</g>
</svg>
