<?xml version="1.0" encoding="utf-8"?>
<svg version="1.1" id="Layer_1"
xmlns="http://www.w3.org/2000/svg"
xmlns:xlink="http://www.w3.org/1999/xlink"
xmlns:author="http://www.sothink.com"
width="113px" height="60px"
xml:space="preserve">
<g id="PathID_25" transform="matrix(0.941176, 0, 0, 0.941176, 2, 43.1)">
<path style="fill:#FFFFFF;fill-opacity:1" d="M46.6 4q-13.35 -3.2 -17.95 -12.95q-2.4 10.15 -16.3 13.55l-1.2 -3.8q12.55 -2.75 14.15 -11.35l-13.15 0q-0.6 8.6 -6 14.15l-2.8 -3.2q4.8 -4.55 4.8 -12.55l0 -19.5l35.25 0l0 12.75l-4 0l0 -1.2l-27.25 0l0 5.8l13.5 0l0 -4.6l3.8 0q1.6 0.2 0.2 1.2l0 3.4l16.95 0l0 3.75l-14.95 0q2.8 7.4 16.55 10.4l-1.6 4.15M45.8 -38.8l0 3.75l-40.05 0l0 -3.75l40.05 0M39.4 -27.85l-27.25 0l0 3.95l27.25 0l0 -3.95" />
</g>
<g id="PathID_26" transform="matrix(0.941176, 0, 0, 0.941176, 50, 43.1)">
<path style="fill:#FFFFFF;fill-opacity:1" d="M28.05 -0.95q3.2 -0.4 5.4 -2.6q2.4 -2.4 2.4 -6.4q0 -4.35 -2.6 -6.95q-2.6 -2.6 -8.15 -2.6q-6.6 0 -10.2 2.6q-3.35 2.4 -8.75 8.55l-3.4 -3q14.35 -14.3 21.75 -23.9q-6.6 0.8 -13.15 1.4l-1.4 -4.55q9.75 0 17.3 -1l1.8 -0.8l2.2 2.15q2.2 2 -1 2.6q-5.95 6.8 -11.95 13.35q4.2 -1 7 -1q7.55 0 11.15 3.6q3.55 3.6 3.55 9.15q0 5.8 -3.15 9q-4.8 4.75 -12.15 4.75q-7 0 -10.2 -3.2q-2.55 -2.55 -2.55 -6.15q0 -2.4 1.75 -4.2q2 -2 4.6 -2q3.6 0 6 2.4q2.75 2.8 3.75 8.8M24.1 -0.35q-0.6 -5.2 -2.4 -7q-1.4 -1.4 -2.8 -1.4q-1.6 0 -2.4 0.8q-1 1 -1 2.2q0 1.8 1.6 3.4q2 2 5.2 2q0.8 0 1.8 0" />
</g>
</svg>
