<?xml version="1.0" encoding="utf-8"?>
<svg version="1.1" id="Layer_1"
xmlns="http://www.w3.org/2000/svg"
xmlns:xlink="http://www.w3.org/1999/xlink"
xmlns:author="http://www.sothink.com"
width="160px" height="70px"
xml:space="preserve">
<g id="PathID_5" transform="matrix(1.13725, 0, 0, 1.13725, 2, 51.65)">
<path style="fill:#333333;fill-opacity:1" d="M2.75 -16.7q11.95 -3.4 21.35 -13.35l4.55 0.8q0.8 0.8 -0.6 1q5.6 6.35 20.55 10.15l-1.4 4.4q-7.2 -1.8 -11.75 -4.4l0 2.8l-19.95 0l0 -2.6q-4.75 3.4 -11.15 5.35l-1.6 -4.15M33.85 -19.1q-4.2 -2.2 -8.55 -6.95q-2.8 3.55 -8 6.95l16.55 0M2.75 -28.65q4.8 -4.2 7.6 -12.55l4.15 1.2q0.8 0.8 -0.6 1l-1.35 2.75l12.35 0l0 3.2l-7.4 0q1.2 2.2 2.4 5.2l-4.2 1.2q-1 -3.6 -2.2 -6.4l-2.15 0q-2.4 4.8 -5.8 7.75l-2.8 -3.35M31.45 -36.25l15.55 0l0 3.2l-9.35 0q1.55 2.2 2.55 4.8l-4.15 1.6q-1 -3.4 -2.6 -6.4l-3.4 0l-1.8 3.2l-3.35 -2q2.75 -4.4 4.35 -9.95l4 1.2q0.8 0.8 -0.6 1l-1.2 3.35M14.9 -8.55l0 7l21.55 0l0 -7l-21.55 0M10.95 -11.75l29.45 0l0 15.55l-3.95 0l0 -2.2l-21.55 0l0 2.8l-3.95 0l0 -16.15" />
</g>
<g id="PathID_6" transform="matrix(1.13725, 0, 0, 1.13725, 60, 51.65)">
<path style="fill:#333333;fill-opacity:1" d="M6.35 -25.85q17.75 -1.2 22.7 -2l1.6 -0.8l3.4 3.35q-7.6 5.4 -12.75 11q4 -0.6 5.15 -0.2q2.2 0.8 2.2 3.35l0 6.8q0 2.4 2.4 2.2l11.55 0l-0.8 4.35l-9.95 0q-7.15 0 -7.15 -6.15l0 -5q0 -2.4 -3 -2.4q-2.6 0 -5.2 2.4q-5.15 4.8 -9.75 10.35l-3.6 -2.35q9.6 -11.2 22.5 -22.75l-17.9 2.2l-1.4 -4.35M30.25 -33.25q-8.95 -0.2 -18.5 -1.2l0.6 -4.55q7.55 1.55 18.5 1.55l-0.6 4.2" />
</g>
</svg>
