<?xml version="1.0" encoding="utf-8"?>
<svg version="1.1" id="Layer_1"
xmlns="http://www.w3.org/2000/svg"
xmlns:xlink="http://www.w3.org/1999/xlink"
xmlns:author="http://www.sothink.com"
width="434px" height="60px"
xml:space="preserve">
<g id="PathID_144" transform="matrix(0.941176, 0, 0, 0.941176, 2, 43.1)">
<path style="fill:#FFFFFF;fill-opacity:1" d="M3.35 -24.9q0 -4.55 3 -7.55q2.6 -2.6 6.4 -2.6q4.35 0 6.95 2.6q2.4 2.4 2.4 6.4q0 3.95 -2 5.95q-1.4 1.4 -3 1.6q2 0.6 3.4 2q2.4 2.4 2.4 6.35q0 4.4 -2.8 7.2q-2.8 2.8 -7.75 2.8q-4.2 0 -7 -2.8q-2.8 -2.8 -2.8 -6.6l0 -1.6l4.6 0l0 1.4q0 2.6 1.8 4.4q1.4 1.4 3.4 1.4q2.55 0 4.15 -1.6q1.6 -1.6 1.6 -5q0 -2.75 -1.6 -4.35q-1.6 -1.6 -3.6 -1.6l-1.55 0l0 -3.4l1.2 0q1.75 0 3.35 -1.6q1.6 -1.6 1.6 -4.55q0 -2.6 -1.6 -4.2q-1.2 -1.2 -3.15 -1.2q-1.8 0 -3.2 1.4q-1.6 1.6 -1.8 5.15l-4.4 0" />
</g>
<g id="PathID_145" transform="matrix(0.941176, 0, 0, 0.941176, 26, 43.1)">
<path style="fill:#FFFFFF;fill-opacity:1" d="M2.95 -4.95l4.6 0l0 4.4l-4.6 0l0 -4.4" />
</g>
<g id="PathID_146" transform="matrix(0.941176, 0, 0, 0.941176, 50.3, 43.1)">
<path style="fill:#FFFFFF;fill-opacity:1" d="M10.95 -23.9q9.75 2.8 19.7 7.6l-2.4 4.55q-10.55 -5.35 -17.3 -7.15l0 20.7l-4.6 0l0 -39.85l4 0q2.4 0.2 0.6 1.6l0 12.55" />
</g>
<g id="PathID_147" transform="matrix(0.941176, 0, 0, 0.941176, 81.4, 43.1)">
<path style="fill:#FFFFFF;fill-opacity:1" d="M10.95 0.2q19.3 -4.95 21.7 -20.9l-30.3 0l0 -4.4l30.5 0l1.8 -0.55l3.6 2.15q1.15 1 -0.4 1.8q-3.2 19.95 -23.35 25.9l-3.55 -4M33.45 -32.05l-27.5 0l0 -4.4l27.5 0l0 4.4" />
</g>
<g id="PathID_148" transform="matrix(0.941176, 0, 0, 0.941176, 120.2, 43.1)">
<path style="fill:#FFFFFF;fill-opacity:1" d="M41.4 -23.1q-10.55 21.95 -35.45 23.1q-1 2.6 -2 0.4l-1.6 -5.15q25.9 -0.6 34.9 -21.3l4.15 2.95M13.3 -23.1q-5.35 -4.95 -10.15 -8.15l3.4 -4.2q4.2 2.6 10.55 8.6l-3.8 3.75" />
</g>
<g id="PathID_149" transform="matrix(0.941176, 0, 0, 0.941176, 161.65, 43.1)">
<path style="fill:#FFFFFF;fill-opacity:1" d="M38.25 -34.25q1.55 0 2.55 -1q1 -1 1 -2.6q0 -1.55 -1 -2.55q-1 -1 -2.55 -1q-1.6 0 -2.6 1q-1 1 -1 2.55q0 1.6 1 2.6q1 1 2.6 1M38.25 -32.25q-2.4 0 -4 -1.6q-1.6 -1.6 -1.6 -4q0 -2.35 1.6 -3.95q1.6 -1.6 4 -1.6q2.35 0 3.95 1.6q1.6 1.6 1.6 3.95q0 2.4 -1.6 4q-1.6 1.6 -3.95 1.6M2.55 -29.65l0 -4.4l29.5 0l5.2 3.8q-1 24.1 -27.3 31.45l-3.6 -4.35q24.9 -5.8 26.1 -26.5l-29.9 0" />
</g>
<g id="PathID_150" transform="matrix(0.941176, 0, 0, 0.941176, 204, 43.1)">
<path style="fill:#FFFFFF;fill-opacity:1" d="M27.25 -22.5q-0.8 2.4 -3.55 5.4l-2.8 -3.6q5.95 -6.75 7.55 -19.5l4.8 0.6q0.8 0.8 -0.6 1q-1 5.15 -2 7.75l16.55 0l0 3.8l-4.2 0q-1 9.35 -5.55 17.5q3.95 4.4 11.55 8.6l-2.4 4.55q-5.8 -3.2 -11.75 -9.55q-5.2 6.75 -13.75 10.55l-2 -4.6q8.75 -3.75 13.15 -9.55q-3.4 -5.95 -5 -12.95M20.9 -10.15q-2.8 -3.95 -5.6 -6.15l0 20.7l-3.95 0l0 -20.7q-2 4.95 -6.2 9.95l-2.6 -4q6.8 -7.95 8.8 -16.5l0 -0.6l-7.4 0l0 -3.8l7.4 0l0 -9.35l3.75 0q1.6 0.2 0.2 1.2l0 8.15l7.2 0l0 3.8l-7.2 0l0 6.55q4.6 2.6 8.4 6.8l-2.8 3.95M34.65 -13.3q2.8 -5.2 3.95 -13.75l-8.55 0q1.8 8.95 4.6 13.75" />
</g>
<g id="PathID_151" transform="matrix(0.941176, 0, 0, 0.941176, 252, 43.1)">
<path style="fill:#FFFFFF;fill-opacity:1" d="M37.05 -10.95q2.75 -5.35 3.35 -16.3l-6.75 0q0.6 10.95 3.4 16.3M44.4 -27.25q-0.4 12.35 -4.8 19.9q3.2 4 9 7l-2.6 4.35q-6.4 -4.15 -8.95 -7.95q-4.6 5.15 -14.15 8.95l-2 -4q10.35 -4.15 13.75 -8.55q-3.4 -6.55 -3.8 -13.15q-1.2 3 -2.4 4.6l-3.35 -2.6q5.95 -8.75 7.15 -21.7l4.2 1q1.2 0.8 -0.6 1.15q-0.6 3.6 -1.6 7.2l13.55 0l0 3.8l-3.4 0M25.85 -36.85q-1.15 3 -2.75 5l-3.2 -1.8q1.6 -2.6 3 -5.95l3.55 1.75q0.8 0.8 -0.6 1M13.1 -8.75q2.8 0.8 5 1.8q1.6 -1.8 2.6 -5.4l-5.8 0q-0.8 1.8 -1.8 3.6M10.35 -3.75l-3.2 -1.8q2 -3 4 -6.8l-7.6 0l0 -3.15l8.8 0q1.15 -2.6 1.75 -4.4l3.8 1q0.8 0.8 -0.6 1l-1.2 2.4l11.35 0l0 3.15l-2.95 0q-1 4 -3 6.8q1.8 0.8 3.8 2l-1.8 3.2q-2.2 -1.4 -4 -2.2q-5.2 5.15 -13.95 6.35l-1.4 -3.6q7.8 -0.75 11.95 -4.35q-2.2 -1 -4.35 -1.8l-1.4 2.2M14.3 -41.2l3.2 0q1.6 0.2 0.2 1.2l0 8.55l10.15 0l0 3.2l-8.35 0q2.2 2.6 6.75 4.95l-2.15 3.4q-3.4 -2 -6.4 -5.6l0 4.8l-3.4 0l0 -3.8q-3.15 4 -8.75 7.2l-2.6 -3.2q6.2 -3.2 10.15 -7.75l-9.15 0l0 -3.2l10.35 0l0 -9.75M8.75 -32.05q-1.4 -3 -3.6 -5.2l3.2 -1.95q2.4 2.35 3.6 4.95l-3.2 2.2" />
</g>
</svg>
