<?xml version="1.0" encoding="utf-8"?>
<svg version="1.1" id="Layer_1"
xmlns="http://www.w3.org/2000/svg"
xmlns:xlink="http://www.w3.org/1999/xlink"
xmlns:author="http://www.sothink.com"
width="61px" height="30px"
xml:space="preserve">
<g id="PathID_2" transform="matrix(0.392157, 0, 0, 0.392157, 2, 19.1)">
<path style="fill:#333333;fill-opacity:1" d="M18.9 -21.5l0 -1l-9.75 0l0 27.1l-4 0l0 -44.4l17.75 0l0 18.3l-4 0M18.9 -32.85l0 -3.8l-9.75 0l0 3.8l9.75 0M18.9 -25.65l0 -4l-9.75 0l0 4l9.75 0M19.5 -2.75l0 2.75l-3.4 0l0 -17.7l18.95 0l0 16.55l-3.4 0l0 -1.6l-12.15 0M31.65 -5.95l0 -8.55l-12.15 0l0 8.55l12.15 0M38.4 4l-0.95 -3.8l3.95 0q0.6 0 0.6 -0.55l0 -22.15l-10.15 0l0 1.2l-4 0l0 -18.5l18.15 0l0 40.4q0 3.4 -3.2 3.4l-4.4 0M42 -36.65l-10.15 0l0 3.8l10.15 0l0 -3.8M42 -25.65l0 -4l-10.15 0l0 4l10.15 0" />
</g>
<g id="PathID_3" transform="matrix(0.392157, 0, 0, 0.392157, 22, 19.1)">
<path style="fill:#333333;fill-opacity:1" d="M40.4 3.4l-3.95 0l0 -2.4l-22.55 0l0 3.2l-3.95 0l0 -42.8l30.45 0l0 42M36.45 -27.05l0 -7.8l-22.55 0l0 7.8l22.55 0M36.45 -15.3l0 -8l-22.55 0l0 8l22.55 0M36.45 -2.75l0 -8.8l-22.55 0l0 8.8l22.55 0" />
</g>
</svg>
