<?xml version="1.0" encoding="utf-8"?>
<svg version="1.1" id="Layer_1"
xmlns="http://www.w3.org/2000/svg"
xmlns:xlink="http://www.w3.org/1999/xlink"
xmlns:author="http://www.sothink.com"
width="162px" height="64px"
xml:space="preserve">
<g id="PathID_80" transform="matrix(1.01961, 0, 0, 1.01961, 2, 46.5)">
<path style="fill:#CCCCCC;fill-opacity:1" d="M15.1 -35.05l4.6 0l0 21.95l4.2 0l0 3.75l-4.2 0l0 8.8l-4.6 0l0 -8.8l-13.35 0l0 -3.95l13.35 -21.75M15.1 -27.65l-8.95 14.55l8.95 0l0 -14.55" />
</g>
<g id="PathID_81" transform="matrix(1.01961, 0, 0, 1.01961, 28, 46.5)">
<path style="fill:#CCCCCC;fill-opacity:1" d="M27.25 -22.5q-0.8 2.4 -3.55 5.4l-2.8 -3.6q5.95 -6.75 7.55 -19.5l4.8 0.6q0.8 0.8 -0.6 1q-1 5.15 -2 7.75l16.55 0l0 3.8l-4.2 0q-1 9.35 -5.55 17.5q3.95 4.4 11.55 8.6l-2.4 4.55q-5.8 -3.2 -11.75 -9.55q-5.2 6.75 -13.75 10.55l-2 -4.6q8.75 -3.75 13.15 -9.55q-3.4 -5.95 -5 -12.95M20.9 -10.15q-2.8 -3.95 -5.6 -6.15l0 20.7l-3.95 0l0 -20.7q-2 4.95 -6.2 9.95l-2.6 -4q6.8 -7.95 8.8 -16.5l0 -0.6l-7.4 0l0 -3.8l7.4 0l0 -9.35l3.75 0q1.6 0.2 0.2 1.2l0 8.15l7.2 0l0 3.8l-7.2 0l0 6.55q4.6 2.6 8.4 6.8l-2.8 3.95M34.65 -13.3q2.8 -5.2 3.95 -13.75l-8.55 0q1.8 8.95 4.6 13.75" />
</g>
</svg>
