<?xml version="1.0" encoding="utf-8"?>
<svg version="1.1" id="Layer_1"
xmlns="http://www.w3.org/2000/svg"
xmlns:xlink="http://www.w3.org/1999/xlink"
xmlns:author="http://www.sothink.com"
width="187px" height="60px"
xml:space="preserve">
<g id="PathID_31" transform="matrix(0.941176, 0, 0, 0.941176, 2, 43.1)">
<path style="fill:#FFFFFF;fill-opacity:1" d="M10.95 -23.9q9.75 2.8 19.7 7.6l-2.4 4.55q-10.55 -5.35 -17.3 -7.15l0 20.7l-4.6 0l0 -39.85l4 0q2.4 0.2 0.6 1.6l0 12.55" />
</g>
<g id="PathID_32" transform="matrix(0.941176, 0, 0, 0.941176, 33.1, 43.1)">
<path style="fill:#FFFFFF;fill-opacity:1" d="M10.95 0.2q19.3 -4.95 21.7 -20.9l-30.3 0l0 -4.4l30.5 0l1.8 -0.55l3.6 2.15q1.15 1 -0.4 1.8q-3.2 19.95 -23.35 25.9l-3.55 -4M33.45 -32.05l-27.5 0l0 -4.4l27.5 0l0 4.4" />
</g>
<g id="PathID_33" transform="matrix(0.941176, 0, 0, 0.941176, 71.9, 43.1)">
<path style="fill:#FFFFFF;fill-opacity:1" d="M41.4 -23.1q-10.55 21.95 -35.45 23.1q-1 2.6 -2 0.4l-1.6 -5.15q25.9 -0.6 34.9 -21.3l4.15 2.95M13.3 -23.1q-5.35 -4.95 -10.15 -8.15l3.4 -4.2q4.2 2.6 10.55 8.6l-3.8 3.75" />
</g>
<g id="PathID_34" transform="matrix(0.941176, 0, 0, 0.941176, 113.35, 43.1)">
<path style="fill:#FFFFFF;fill-opacity:1" d="M38.25 -34.25q1.55 0 2.55 -1q1 -1 1 -2.6q0 -1.55 -1 -2.55q-1 -1 -2.55 -1q-1.6 0 -2.6 1q-1 1 -1 2.55q0 1.6 1 2.6q1 1 2.6 1M38.25 -32.25q-2.4 0 -4 -1.6q-1.6 -1.6 -1.6 -4q0 -2.35 1.6 -3.95q1.6 -1.6 4 -1.6q2.35 0 3.95 1.6q1.6 1.6 1.6 3.95q0 2.4 -1.6 4q-1.6 1.6 -3.95 1.6M2.55 -29.65l0 -4.4l29.5 0l5.2 3.8q-1 24.1 -27.3 31.45l-3.6 -4.35q24.9 -5.8 26.1 -26.5l-29.9 0" />
</g>
</svg>
