<?xml version="1.0" encoding="utf-8"?>
<svg version="1.1" id="Layer_1"
xmlns="http://www.w3.org/2000/svg"
xmlns:xlink="http://www.w3.org/1999/xlink"
xmlns:author="http://www.sothink.com"
width="434px" height="60px"
xml:space="preserve">
<g id="PathID_152" transform="matrix(0.941176, 0, 0, 0.941176, 2, 43.1)">
<path style="fill:#FFFFFF;fill-opacity:1" d="M15.1 -35.05l4.6 0l0 21.95l4.2 0l0 3.75l-4.2 0l0 8.8l-4.6 0l0 -8.8l-13.35 0l0 -3.95l13.35 -21.75M15.1 -27.65l-8.95 14.55l8.95 0l0 -14.55" />
</g>
<g id="PathID_153" transform="matrix(0.941176, 0, 0, 0.941176, 26, 43.1)">
<path style="fill:#FFFFFF;fill-opacity:1" d="M2.95 -4.95l4.6 0l0 4.4l-4.6 0l0 -4.4" />
</g>
<g id="PathID_154" transform="matrix(0.941176, 0, 0, 0.941176, 50.3, 43.1)">
<path style="fill:#FFFFFF;fill-opacity:1" d="M2.75 -16.7q11.95 -3.4 21.35 -13.35l4.55 0.8q0.8 0.8 -0.6 1q5.6 6.35 20.55 10.15l-1.4 4.4q-7.2 -1.8 -11.75 -4.4l0 2.8l-19.95 0l0 -2.6q-4.75 3.4 -11.15 5.35l-1.6 -4.15M33.85 -19.1q-4.2 -2.2 -8.55 -6.95q-2.8 3.55 -8 6.95l16.55 0M2.75 -28.65q4.8 -4.2 7.6 -12.55l4.15 1.2q0.8 0.8 -0.6 1l-1.35 2.75l12.35 0l0 3.2l-7.4 0q1.2 2.2 2.4 5.2l-4.2 1.2q-1 -3.6 -2.2 -6.4l-2.15 0q-2.4 4.8 -5.8 7.75l-2.8 -3.35M31.45 -36.25l15.55 0l0 3.2l-9.35 0q1.55 2.2 2.55 4.8l-4.15 1.6q-1 -3.4 -2.6 -6.4l-3.4 0l-1.8 3.2l-3.35 -2q2.75 -4.4 4.35 -9.95l4 1.2q0.8 0.8 -0.6 1l-1.2 3.35M14.9 -8.55l0 7l21.55 0l0 -7l-21.55 0M10.95 -11.75l29.45 0l0 15.55l-3.95 0l0 -2.2l-21.55 0l0 2.8l-3.95 0l0 -16.15" />
</g>
<g id="PathID_155" transform="matrix(0.941176, 0, 0, 0.941176, 98.3, 43.1)">
<path style="fill:#FFFFFF;fill-opacity:1" d="M6.35 -25.85q17.75 -1.2 22.7 -2l1.6 -0.8l3.4 3.35q-7.6 5.4 -12.75 11q4 -0.6 5.15 -0.2q2.2 0.8 2.2 3.35l0 6.8q0 2.4 2.4 2.2l11.55 0l-0.8 4.35l-9.95 0q-7.15 0 -7.15 -6.15l0 -5q0 -2.4 -3 -2.4q-2.6 0 -5.2 2.4q-5.15 4.8 -9.75 10.35l-3.6 -2.35q9.6 -11.2 22.5 -22.75l-17.9 2.2l-1.4 -4.35M30.25 -33.25q-8.95 -0.2 -18.5 -1.2l0.6 -4.55q7.55 1.55 18.5 1.55l-0.6 4.2" />
</g>
<g id="PathID_156" transform="matrix(0.941176, 0, 0, 0.941176, 141.55, 43.1)">
<path style="fill:#FFFFFF;fill-opacity:1" d="M35.65 -7.35q3.15 4 11.95 7.2l-2 4.35q-15.55 -5.15 -19.75 -21.9l-1.15 0q-2 2.8 -4.2 4.95l0 11.2l11.35 -2.2l0.6 3.4q-10.75 2.55 -21.1 4.55q-0.6 1.8 -1.2 0.6l-1.4 -4.8l7.75 -0.95l0 -8.6q-5.15 3.6 -11.55 5.8l-2 -4q9.95 -2.8 16.95 -9.95l-15.95 0l0 -3.8l19.35 0l0 -3.6l-14.35 0l0 -3.75l14.35 0l0 -3.6l-16.95 0l0 -3.8l16.95 0l0 -4.75l3.75 0q1.6 0.2 0.2 1.2l0 3.55l16.95 0l0 3.8l-16.95 0l0 3.6l14.35 0l0 3.75l-14.35 0l0 3.6l19.35 0l0 3.8l-16.95 0q1.2 3.8 4 7.95q3.8 -3.15 7.15 -6.95l3 3q0.2 0.95 -1 0.6q-3.4 3.15 -7.15 5.75" />
</g>
<g id="PathID_157" transform="matrix(0.941176, 0, 0, 0.941176, 189.55, 43.1)">
<path style="fill:#FFFFFF;fill-opacity:1" d="M36.65 -17.3q3.95 6.55 10.95 11.55l-3.4 3.8q-6.55 -5.4 -11.15 -12.95l3.6 -2.4M28.05 -0.75q0 3.55 -3.35 3.55l-5.6 0l-0.8 -4.35l4.4 0q0.8 0 0.8 -0.8l0 -18.75l-19.55 0l0 -4.4l42.85 0l0 4.4l-18.75 0l0 20.35M10.55 -32.85l0 -4.4l30.25 0l0 4.4l-30.25 0M3.95 -4.95q5.6 -4 9.75 -12.15l4 2.2q1.6 1 -0.6 1.4q-3.4 7.15 -9.95 12.35l-3.2 -3.8" />
</g>
</svg>
