<?xml version="1.0" encoding="utf-8"?>
<svg version="1.1" id="Layer_1"
xmlns="http://www.w3.org/2000/svg"
xmlns:xlink="http://www.w3.org/1999/xlink"
xmlns:author="http://www.sothink.com"
width="187px" height="60px"
xml:space="preserve">
<g id="PathID_115" transform="matrix(0.941176, 0, 0, 0.941176, 2, 43.1)">
<path style="fill:#FFFFFF;fill-opacity:1" d="M10.95 0.2q19.3 -4.95 21.7 -20.9l-30.3 0l0 -4.4l30.5 0l1.8 -0.55l3.6 2.15q1.15 1 -0.4 1.8q-3.2 19.95 -23.35 25.9l-3.55 -4M33.45 -32.05l-27.5 0l0 -4.4l27.5 0l0 4.4" />
</g>
<g id="PathID_116" transform="matrix(0.941176, 0, 0, 0.941176, 40.8, 43.1)">
<path style="fill:#FFFFFF;fill-opacity:1" d="M41.4 -23.1q-10.55 21.95 -35.45 23.1q-1 2.6 -2 0.4l-1.6 -5.15q25.9 -0.6 34.9 -21.3l4.15 2.95M13.3 -23.1q-5.35 -4.95 -10.15 -8.15l3.4 -4.2q4.2 2.6 10.55 8.6l-3.8 3.75" />
</g>
<g id="PathID_117" transform="matrix(0.941176, 0, 0, 0.941176, 82.25, 43.1)">
<path style="fill:#FFFFFF;fill-opacity:1" d="M35.65 -30.65q0.8 1 -0.8 1.6q-1.6 7.95 -4.8 14.55l4.8 3.15l-3 4.4l-4.4 -3.2q-5.75 8.4 -16.5 13.75l-4.6 -3.4q11.95 -4.95 17.15 -13.1q-5 -3.2 -9.8 -5.8l2.4 -3.6q6.2 2.8 10.15 5.2q3 -6.2 3.6 -10.95l-14.55 0q-3.75 6.75 -9.35 12.35l-3.8 -2.6q10.2 -10.55 13.35 -22.3l4.8 2q1.6 0.75 -0.8 1.55q-0.8 2.4 -2 4.6l13.35 0l2.2 -0.8l2.6 2.6M34.25 -39.8q3.4 2.55 6.95 6.55l-2.6 2q-3.55 -3.8 -6.95 -6.6l2.6 -1.95M38.8 -42.8q3.2 2.2 6.6 6.15l-2.6 2.2q-3.6 -3.95 -6.55 -6.35l2.55 -2" />
</g>
<g id="PathID_118" transform="matrix(0.941176, 0, 0, 0.941176, 126.45, 43.1)">
<path style="fill:#FFFFFF;fill-opacity:1" d="M2.55 -7.15l8.4 -0.2q7.15 -15.55 10.95 -31.65l4.55 1.55q1.8 1.2 -0.4 1.8q-3.75 14.15 -10.15 27.9l20.75 -1q-4.2 -5.55 -6.6 -8.15l4 -2.8q6.75 7.35 12.95 17.35l-4.4 2.95l-3.2 -5.15l-33.45 2.6q-1.2 1.95 -1.8 0l-1.6 -5.2" />
</g>
</svg>
