<?xml version="1.0" encoding="utf-8"?>
<svg version="1.1" id="Layer_1"
xmlns="http://www.w3.org/2000/svg"
xmlns:xlink="http://www.w3.org/1999/xlink"
xmlns:author="http://www.sothink.com"
width="191px" height="122px"
xml:space="preserve">
<g id="PathID_4" transform="matrix(1.88235, 0, 0, 1.88235, 2, 84.2)">
<path style="fill:#333333;fill-opacity:1" d="M23.3 -17.9l-18.15 -18.15l2.4 -2.35l0.6 0.55l16.95 16.95l0.55 0.6l0.6 -0.6l16.75 -16.75l0.8 -0.75l2.4 2.35l-0.8 0.8l-16.75 16.75l-0.6 0.6l17.35 17.35l0.8 0.75l-2.4 2.4l-1.6 -1.6l-15.95 -15.9l-0.6 -0.6l-1.15 1.2l-16.95 16.9l-2.4 -2.4l0.6 -0.55l16.95 -16.95l0.6 -0.6M21.9 -30.65l0 -7.2l7.15 0l0 7.2l-7.15 0M38.25 -14.3l0 -7.2l7.15 0l0 7.2l-7.15 0M21.9 2l0 -7.15l7.15 0l0 7.15l-7.15 0M4.75 -14.3l0 -7.2l7.2 0l0 7.2l-7.2 0" />
</g>
</svg>
