<?xml version="1.0" encoding="utf-8"?>
<svg version="1.1" id="Layer_1"
xmlns="http://www.w3.org/2000/svg"
xmlns:xlink="http://www.w3.org/1999/xlink"
xmlns:author="http://www.sothink.com"
width="187px" height="64px"
xml:space="preserve">
<g id="PathID_86" transform="matrix(1.01961, 0, 0, 1.01961, 2, 46.5)">
<path style="fill:#CCCCCC;fill-opacity:1" d="M38.4 -24.1l0 -6.55l-25.1 0l0 6.55l25.1 0M38.4 -20.3l-25.1 0l0 6.8l25.1 0l0 -6.8M38.4 -2.35l0 -7.4l-25.1 0l0 7.4l25.1 0M21.7 -34.45l1.8 -6.95l4.75 1q0.8 0.8 -0.6 1l-2.15 4.95l16.9 0l0 37.65l-4 0l0 -1.8l-25.1 0l0 2.4l-3.95 0l0 -38.25l12.35 0" />
</g>
<g id="PathID_87" transform="matrix(1.01961, 0, 0, 1.01961, 54, 46.5)">
<path style="fill:#CCCCCC;fill-opacity:1" d="M23.5 1q2 -1 4.15 -2.95l-22.3 4.15q-0.2 1.4 -1 0.6l-1.2 -4.35l11.55 -1.4l0 -3.6l-9.35 0l0 -3.2l9.35 0l0 -3l-4.55 0l-4.4 0l0 -14.1l8.95 0l0 -2.8l-11.55 0l0 -3.2l11.55 0l0 -2.4q-4.95 0.2 -9.95 0.4l-0.6 -3.4q9.75 0 20.95 -2.15l1.75 3.35q0.6 1.2 -1.2 0.4q-4.15 0.6 -7.55 1l0 2.8l10.95 0l0 3.2l-10.95 0l0 2.8l9.15 0l0 14.1l-9.15 0l0 3l9.95 0l0 3.2l-9.95 0l0 3l9.95 -1.6l0 2.8q5.8 -5.2 6 -15.75l0.2 -7.75l-4.8 0l0 -3.8l4.8 0l0 -10.15l3.8 0q1.55 0.2 0.2 1.2l0 8.95l8.75 0l-0.4 26.3q-0.2 7.15 -5.2 7.15l-5.35 0l-0.6 -3.8l4.55 0q2.4 0 2.6 -4.15l0.6 -21.7l-4.95 0l-0.2 9.35q-0.2 13.75 -12.2 21.3l-2.35 -3.8M18.1 -18.7l0 3.6l5.8 0l0 -3.6l-5.8 0M18.1 -24.5l0 3.4l5.8 0l0 -3.4l-5.8 0M9.15 -18.7l0 3.6l5.55 0l0 -3.6l-5.55 0M9.15 -24.5l0 3.4l5.55 0l0 -3.4l-5.55 0" />
</g>
</svg>
