<?xml version="1.0" encoding="utf-8"?>
<svg version="1.1" id="Layer_1"
xmlns="http://www.w3.org/2000/svg"
xmlns:xlink="http://www.w3.org/1999/xlink"
xmlns:author="http://www.sothink.com"
width="187px" height="60px"
xml:space="preserve">
<g id="PathID_107" transform="matrix(0.941176, 0, 0, 0.941176, 2, 43.1)">
<path style="fill:#CCCCCC;fill-opacity:1" d="M37.05 -27.25q-3.8 21.7 -24.9 31.05l-3.6 -3.8q19.5 -7.95 23.5 -27.45l-15.95 0q-4.55 7.55 -9.55 12.15l-4 -2.6q10.35 -9.35 13.35 -21.9l4.6 1.55q1.2 0.6 -0.4 1.2q-0.8 2.6 -2.2 5.2l14.35 0l1.8 -1l3.6 3.6q1.35 1.4 -0.6 2" />
</g>
<g id="PathID_108" transform="matrix(0.941176, 0, 0, 0.941176, 40.6, 43.1)">
<path style="fill:#CCCCCC;fill-opacity:1" d="M30.85 -17.5q0 14.95 -13.95 21.5l-4 -3.4q13.15 -5.95 13.35 -18.3l0 -19.95l4.2 0q2 0.4 0.4 1.6l0 18.55M10.35 -13.1l-4.6 0l0 -22.55l4.4 0q2 0.2 0.2 1.6l0 20.95" />
</g>
<g id="PathID_109" transform="matrix(0.941176, 0, 0, 0.941176, 76.4, 43.1)">
<path style="fill:#CCCCCC;fill-opacity:1" d="M34.25 -24.3q-1.4 12.95 -7.2 18.75q-5.75 5.75 -15.1 9.15l-2.6 -3.75q9.15 -3 14.35 -8.2q5.55 -5.55 6.35 -18.9l4.2 1.4q1.8 0.55 0 1.55M17.3 -17.1q-2.4 -5.4 -4.75 -8.95l3.75 -2q3 3.75 5.2 8.95l-4.2 2M7.15 -14.1q-2.4 -5.6 -5 -9.4l4 -2q2.8 3.8 5 9.2l-4 2.2" />
</g>
<g id="PathID_110" transform="matrix(0.941176, 0, 0, 0.941176, 111.6, 43.1)">
<path style="fill:#CCCCCC;fill-opacity:1" d="M37.05 -27.25q-3.8 21.7 -24.9 31.05l-3.6 -3.8q19.5 -7.95 23.5 -27.45l-15.95 0q-4.55 7.55 -9.55 12.15l-4 -2.6q10.35 -9.35 13.35 -21.9l4.6 1.55q1.2 0.6 -0.4 1.2q-0.8 2.6 -2.2 5.2l14.35 0l1.8 -1l3.6 3.6q1.35 1.4 -0.6 2" />
</g>
</svg>
