<?xml version="1.0" encoding="utf-8"?>
<svg version="1.1" id="Layer_1"
xmlns="http://www.w3.org/2000/svg"
xmlns:xlink="http://www.w3.org/1999/xlink"
xmlns:author="http://www.sothink.com"
width="434px" height="60px"
xml:space="preserve">
<g id="PathID_165" transform="matrix(0.941176, 0, 0, 0.941176, 2, 43.1)">
<path style="fill:#FFFFFF;fill-opacity:1" d="M2.75 -16.9q0 -10.95 4.8 -15.75q2.4 -2.4 5.95 -2.4q3.8 0 6.2 2.4q2.6 2.6 2.6 6.6l-4.6 0q0 -2.8 -1.2 -4q-1.2 -1.2 -3 -1.2q-1.75 0 -2.95 1.2q-3.2 3.2 -3.2 11.15q0.8 -1.4 2 -2.6q1.8 -1.8 4.35 -1.8q3.6 0 6 2.4q3 3 3 8.95q0 6.2 -3.2 9.4q-2.4 2.4 -6.6 2.4q-3.55 0 -6.55 -3q-3.6 -3.6 -3.6 -13.75M13.3 -19.7q-1.95 0 -3.35 1.4q-2.2 2.2 -2.2 5.95q0 4.8 2.4 7.2q1.4 1.4 2.95 1.4q1.8 0 3 -1.2q1.8 -1.8 1.8 -7q0 -4.55 -1.8 -6.35q-1.4 -1.4 -2.8 -1.4" />
</g>
<g id="PathID_166" transform="matrix(0.941176, 0, 0, 0.941176, 26, 43.1)">
<path style="fill:#FFFFFF;fill-opacity:1" d="M2.95 -4.95l4.6 0l0 4.4l-4.6 0l0 -4.4" />
</g>
<g id="PathID_167" transform="matrix(0.941176, 0, 0, 0.941176, 50.3, 43.1)">
<path style="fill:#FFFFFF;fill-opacity:1" d="M18.9 -21.5l0 -1l-9.75 0l0 27.1l-4 0l0 -44.4l17.75 0l0 18.3l-4 0M18.9 -32.85l0 -3.8l-9.75 0l0 3.8l9.75 0M18.9 -25.65l0 -4l-9.75 0l0 4l9.75 0M19.5 -2.75l0 2.75l-3.4 0l0 -17.7l18.95 0l0 16.55l-3.4 0l0 -1.6l-12.15 0M31.65 -5.95l0 -8.55l-12.15 0l0 8.55l12.15 0M38.4 4l-0.95 -3.8l3.95 0q0.6 0 0.6 -0.55l0 -22.15l-10.15 0l0 1.2l-4 0l0 -18.5l18.15 0l0 40.4q0 3.4 -3.2 3.4l-4.4 0M42 -36.65l-10.15 0l0 3.8l10.15 0l0 -3.8M42 -25.65l0 -4l-10.15 0l0 4l10.15 0" />
</g>
<g id="PathID_168" transform="matrix(0.941176, 0, 0, 0.941176, 98.3, 43.1)">
<path style="fill:#FFFFFF;fill-opacity:1" d="M10.15 -13.5q-0.2 2.95 -0.4 5.55q2.2 2.8 3.75 4.2l0 -14.15l-10.35 0l0 -3.8l22.15 0l0 3.8l-8.4 0l0 5.35l6.8 0l0 3.8l-6.8 0l0 7q2.8 1.75 6.4 1.75l25.1 0l-1 3.8l-24.1 0q-8 0 -14.15 -7.55q-1.6 5.35 -3.4 7.95l-3.2 -3q4 -5.95 4 -16.5l4 0.6q0.6 0.6 -0.4 1.2M22.9 -4.35q4.95 -1.2 8.95 -3.6l-4.2 0l0 -24.1l5.6 0l1 -4l-8.4 0l0 -3.75l21.15 0l0 3.75l-8.4 0l-1.75 4l8.75 0l0 24.1l-5 0q2.6 1.6 7.6 3.2l-1.6 3.6q-5 -1.4 -8.55 -4.2l2.15 -2.6l-7.75 0l2.2 2.8q0.8 1.2 -1.2 0.8q-3.8 2 -8.95 3.4l-1.6 -3.4M6.35 -24.3l0 -15.5l16.35 0l0 15.5l-16.35 0M19.3 -30.45l-9.55 0l0 3l9.55 0l0 -3M42.2 -28.85l-11.15 0l0 3.75l11.15 0l0 -3.75M42.2 -21.9l-11.15 0l0 3.8l11.15 0l0 -3.8M42.2 -14.9l-11.15 0l0 3.75l11.15 0l0 -3.75M19.3 -36.65l-9.55 0l0 3l9.55 0l0 -3" />
</g>
<g id="PathID_169" transform="matrix(0.941176, 0, 0, 0.941176, 146.3, 43.1)">
<path style="fill:#FFFFFF;fill-opacity:1" d="M35.65 -7.35q3.15 4 11.95 7.2l-2 4.35q-15.55 -5.15 -19.75 -21.9l-1.15 0q-2 2.8 -4.2 4.95l0 11.2l11.35 -2.2l0.6 3.4q-10.75 2.55 -21.1 4.55q-0.6 1.8 -1.2 0.6l-1.4 -4.8l7.75 -0.95l0 -8.6q-5.15 3.6 -11.55 5.8l-2 -4q9.95 -2.8 16.95 -9.95l-15.95 0l0 -3.8l19.35 0l0 -3.6l-14.35 0l0 -3.75l14.35 0l0 -3.6l-16.95 0l0 -3.8l16.95 0l0 -4.75l3.75 0q1.6 0.2 0.2 1.2l0 3.55l16.95 0l0 3.8l-16.95 0l0 3.6l14.35 0l0 3.75l-14.35 0l0 3.6l19.35 0l0 3.8l-16.95 0q1.2 3.8 4 7.95q3.8 -3.15 7.15 -6.95l3 3q0.2 0.95 -1 0.6q-3.4 3.15 -7.15 5.75" />
</g>
<g id="PathID_170" transform="matrix(0.941176, 0, 0, 0.941176, 194.3, 43.1)">
<path style="fill:#FFFFFF;fill-opacity:1" d="M36.65 -17.3q3.95 6.55 10.95 11.55l-3.4 3.8q-6.55 -5.4 -11.15 -12.95l3.6 -2.4M28.05 -0.75q0 3.55 -3.35 3.55l-5.6 0l-0.8 -4.35l4.4 0q0.8 0 0.8 -0.8l0 -18.75l-19.55 0l0 -4.4l42.85 0l0 4.4l-18.75 0l0 20.35M10.55 -32.85l0 -4.4l30.25 0l0 4.4l-30.25 0M3.95 -4.95q5.6 -4 9.75 -12.15l4 2.2q1.6 1 -0.6 1.4q-3.4 7.15 -9.95 12.35l-3.2 -3.8" />
</g>
<g id="PathID_171" transform="matrix(0.941176, 0, 0, 0.941176, 242.3, 43.1)">
<path style="fill:#FFFFFF;fill-opacity:1" d="M28.45 -2.35q-2.4 -4.2 -3.95 -6l3.35 -2.4q1.6 1.8 4.2 5.8l-3.6 2.6M36.25 0.4q0.8 0 0.8 -0.75l0 -11.8l-16.75 0l0 -3.75l16.75 0l0 -5.2l-18.95 0l0 18.95l-3.4 0l0 -1.6l-6.75 0l0 3.6l-3.4 0l0 -36.7l13.55 0l0 11.95l12.15 0l0 -5.75l-8.55 0l0 -3.8l8.55 0l0 -6.75l3.8 0q1.6 0.2 0.2 1.2l0 5.55l10.15 0l0 3.8l-10.15 0l0 5.75l13.95 0l0 3.8l-7.2 0l0 5.2l6 0l0 3.75l-6 0l0 13.15q0 3.2 -3.15 3.2l-4.2 0l-0.8 -3.8l3.4 0M7.95 -22.9l6.75 0l0 -10.15l-6.75 0l0 10.15M7.95 -7.55l6.75 0l0 -11.55l-6.75 0l0 11.55" />
</g>
<g id="PathID_172" transform="matrix(0.941176, 0, 0, 0.941176, 290.3, 43.1)">
<path style="fill:#FFFFFF;fill-opacity:1" d="M41.2 0.2q0.8 0 0.8 -0.75l0 -22.95l-7.15 0l-7.2 0l0 -15.9l18.35 0l0 40.2q0 3.2 -3.2 3.2l-4 0l-0.4 -3.8l2.8 0M30.65 -9.35l-10.55 0l0 4l10.55 0l0 -4M30.65 -16.9l-10.55 0l0 4.35l10.55 0l0 -4.35M34.65 -20.1l0 19.55l-4 0l0 -1.6l-10.55 0l0 3.15l-4 0l0 -21.1l18.55 0M42 -33.05l0 -3.2l-10.35 0l0 3.2l10.35 0M42 -29.85l-10.35 0l0 3.2l10.35 0l0 -3.2M18.5 -29.85l-10.15 0l0 3.2l10.15 0l0 -3.2M18.5 -33.05l0 -3.2l-10.15 0l0 3.2l10.15 0M22.5 -23.5l-14.15 0l0 27.7l-4 0l0 -43.6l18.15 0l0 15.9" />
</g>
</svg>
