<?xml version="1.0" encoding="utf-8"?>
<svg version="1.1" id="Layer_1"
xmlns="http://www.w3.org/2000/svg"
xmlns:xlink="http://www.w3.org/1999/xlink"
xmlns:author="http://www.sothink.com"
width="434px" height="60px"
xml:space="preserve">
<g id="PathID_138" transform="matrix(0.941176, 0, 0, 0.941176, 2, 43.1)">
<path style="fill:#FFFFFF;fill-opacity:1" d="M3.35 -23.1q0 -6.15 3.2 -9.35q2.6 -2.6 6.2 -2.6q4.35 0 6.95 2.6q2.6 2.6 2.6 6.4q0 4.75 -3 8.35q-2.8 3.4 -5.8 6.55q-1.55 1.8 -3.15 3.6q-1.4 1.6 -2.4 3.2l14.95 0l0 3.8l-20.35 0l0 -3.4q0.4 -2 3.4 -5.6q5 -5.35 8.15 -8.95q3.4 -3.6 3.4 -7.55q0 -2.4 -1.6 -4q-1.2 -1.2 -3 -1.2q-1.55 0 -2.75 1.2q-2.2 2.2 -2.2 6.95l-4.6 0" />
</g>
<g id="PathID_139" transform="matrix(0.941176, 0, 0, 0.941176, 26, 43.1)">
<path style="fill:#FFFFFF;fill-opacity:1" d="M2.95 -4.95l4.6 0l0 4.4l-4.6 0l0 -4.4" />
</g>
<g id="PathID_140" transform="matrix(0.941176, 0, 0, 0.941176, 50.3, 43.1)">
<path style="fill:#FFFFFF;fill-opacity:1" d="M39.6 -8.35q4 3.8 7.2 9.35l-4.8 2.4q-2.8 -5.95 -5.95 -9.75l3.55 -2M30.45 -8.15q3.4 5.6 4 10.75l-5 1.2q-0.8 -5.35 -3 -10.55l4 -1.4M4.15 1.6q3.6 -3.55 5.8 -9.55l4.15 1.6q-1.35 6 -5.55 10.55l-4.4 -2.6M21.5 -6.95q1.6 3.8 1.2 10.55l-4.8 0.2q0.2 -6.75 -0.6 -10.55l4.2 -0.2M37.05 -14.5l0 -7.8l-22.35 0l0 7.8l22.35 0M26.45 -40.8q1.6 0.2 0.2 1.2l0 4.35l16.75 0l0 3.8l-16.75 0l0 5.4l14.95 0l0 16.5l-4.55 0l0 -1.2l-22.35 0l0 1.6l-4.55 0l0 -16.9l11.95 0l0 -14.75l4.35 0" />
</g>
<g id="PathID_141" transform="matrix(0.941176, 0, 0, 0.941176, 98.3, 43.1)">
<path style="fill:#FFFFFF;fill-opacity:1" d="M37.05 -10.95q2.75 -5.35 3.35 -16.3l-6.75 0q0.6 10.95 3.4 16.3M44.4 -27.25q-0.4 12.35 -4.8 19.9q3.2 4 9 7l-2.6 4.35q-6.4 -4.15 -8.95 -7.95q-4.6 5.15 -14.15 8.95l-2 -4q10.35 -4.15 13.75 -8.55q-3.4 -6.55 -3.8 -13.15q-1.2 3 -2.4 4.6l-3.35 -2.6q5.95 -8.75 7.15 -21.7l4.2 1q1.2 0.8 -0.6 1.15q-0.6 3.6 -1.6 7.2l13.55 0l0 3.8l-3.4 0M25.85 -36.85q-1.15 3 -2.75 5l-3.2 -1.8q1.6 -2.6 3 -5.95l3.55 1.75q0.8 0.8 -0.6 1M13.1 -8.75q2.8 0.8 5 1.8q1.6 -1.8 2.6 -5.4l-5.8 0q-0.8 1.8 -1.8 3.6M10.35 -3.75l-3.2 -1.8q2 -3 4 -6.8l-7.6 0l0 -3.15l8.8 0q1.15 -2.6 1.75 -4.4l3.8 1q0.8 0.8 -0.6 1l-1.2 2.4l11.35 0l0 3.15l-2.95 0q-1 4 -3 6.8q1.8 0.8 3.8 2l-1.8 3.2q-2.2 -1.4 -4 -2.2q-5.2 5.15 -13.95 6.35l-1.4 -3.6q7.8 -0.75 11.95 -4.35q-2.2 -1 -4.35 -1.8l-1.4 2.2M14.3 -41.2l3.2 0q1.6 0.2 0.2 1.2l0 8.55l10.15 0l0 3.2l-8.35 0q2.2 2.6 6.75 4.95l-2.15 3.4q-3.4 -2 -6.4 -5.6l0 4.8l-3.4 0l0 -3.8q-3.15 4 -8.75 7.2l-2.6 -3.2q6.2 -3.2 10.15 -7.75l-9.15 0l0 -3.2l10.35 0l0 -9.75M8.75 -32.05q-1.4 -3 -3.6 -5.2l3.2 -1.95q2.4 2.35 3.6 4.95l-3.2 2.2" />
</g>
<g id="PathID_142" transform="matrix(0.941176, 0, 0, 0.941176, 146.3, 43.1)">
<path style="fill:#FFFFFF;fill-opacity:1" d="M35.65 -7.35q3.15 4 11.95 7.2l-2 4.35q-15.55 -5.15 -19.75 -21.9l-1.15 0q-2 2.8 -4.2 4.95l0 11.2l11.35 -2.2l0.6 3.4q-10.75 2.55 -21.1 4.55q-0.6 1.8 -1.2 0.6l-1.4 -4.8l7.75 -0.95l0 -8.6q-5.15 3.6 -11.55 5.8l-2 -4q9.95 -2.8 16.95 -9.95l-15.95 0l0 -3.8l19.35 0l0 -3.6l-14.35 0l0 -3.75l14.35 0l0 -3.6l-16.95 0l0 -3.8l16.95 0l0 -4.75l3.75 0q1.6 0.2 0.2 1.2l0 3.55l16.95 0l0 3.8l-16.95 0l0 3.6l14.35 0l0 3.75l-14.35 0l0 3.6l19.35 0l0 3.8l-16.95 0q1.2 3.8 4 7.95q3.8 -3.15 7.15 -6.95l3 3q0.2 0.95 -1 0.6q-3.4 3.15 -7.15 5.75" />
</g>
<g id="PathID_143" transform="matrix(0.941176, 0, 0, 0.941176, 194.3, 43.1)">
<path style="fill:#FFFFFF;fill-opacity:1" d="M36.65 -17.3q3.95 6.55 10.95 11.55l-3.4 3.8q-6.55 -5.4 -11.15 -12.95l3.6 -2.4M28.05 -0.75q0 3.55 -3.35 3.55l-5.6 0l-0.8 -4.35l4.4 0q0.8 0 0.8 -0.8l0 -18.75l-19.55 0l0 -4.4l42.85 0l0 4.4l-18.75 0l0 20.35M10.55 -32.85l0 -4.4l30.25 0l0 4.4l-30.25 0M3.95 -4.95q5.6 -4 9.75 -12.15l4 2.2q1.6 1 -0.6 1.4q-3.4 7.15 -9.95 12.35l-3.2 -3.8" />
</g>
</svg>
