<?xml version="1.0" encoding="utf-8"?>
<svg version="1.1" id="Layer_1"
xmlns="http://www.w3.org/2000/svg"
xmlns:xlink="http://www.w3.org/1999/xlink"
xmlns:author="http://www.sothink.com"
width="434px" height="60px"
xml:space="preserve">
<g id="PathID_158" transform="matrix(0.941176, 0, 0, 0.941176, 2, 43.1)">
<path style="fill:#FFFFFF;fill-opacity:1" d="M4.95 -34.65l17.15 0l0 3.8l-13.35 0l0 0.6q-0.2 3.8 -0.6 7.35q-0.2 0.6 -0.2 1.2q2.6 -2.4 5.55 -2.4q4 0 6.6 2.6q2.8 2.8 2.8 8.2q0 6.75 -3.6 10.35q-2.8 2.8 -6.95 2.8q-4 0 -6.6 -2.6q-2.6 -2.6 -3.2 -7.8l4.6 0q0.4 3.8 2 5.4q1.2 1.2 3 1.2q2.35 0 3.75 -1.4q2.2 -2.2 2.2 -7.4q0 -4.95 -1.8 -6.75q-1.2 -1.2 -2.8 -1.2q-2.35 0 -4.15 1.8q-1.2 1.2 -1.6 1.8l-4 0q0.2 -0.8 0.2 -1.4l1 -15.35l0 -0.8" />
</g>
<g id="PathID_159" transform="matrix(0.941176, 0, 0, 0.941176, 26, 43.1)">
<path style="fill:#FFFFFF;fill-opacity:1" d="M2.95 -4.95l4.6 0l0 4.4l-4.6 0l0 -4.4" />
</g>
<g id="PathID_160" transform="matrix(0.941176, 0, 0, 0.941176, 50.3, 43.1)">
<path style="fill:#FFFFFF;fill-opacity:1" d="M44.6 -27.65l0 4.35l-11.55 0q-1.8 15.55 -14.95 26.9l-4.6 -2.6q13.75 -10.95 14.55 -24.3l-15.15 0q-2.55 5.2 -6.55 9.2l-4 -2.2q8.8 -9 11.15 -22.7l5 1.15q1.6 0.4 -0.4 1.6q-1.2 4.4 -3 8.6l29.5 0M35.65 -39.8q3.15 3.15 6.35 7.15l-2.6 2.2q-3.55 -4.2 -6.35 -7.2l2.6 -2.15M41.2 -42q3.4 3.2 6.6 6.95l-3 2.2q-3.2 -4.2 -6 -6.95l2.4 -2.2" />
</g>
<g id="PathID_161" transform="matrix(0.941176, 0, 0, 0.941176, 96.4, 43.1)">
<path style="fill:#FFFFFF;fill-opacity:1" d="M2.35 -16.3l0 -4.4l44.45 0l0 4.4l-44.45 0" />
</g>
<g id="PathID_162" transform="matrix(0.941176, 0, 0, 0.941176, 142.5, 43.1)">
<path style="fill:#FFFFFF;fill-opacity:1" d="M2.55 -7.15l8.4 -0.2q7.15 -15.55 10.95 -31.65l4.55 1.55q1.8 1.2 -0.4 1.8q-3.75 14.15 -10.15 27.9l20.75 -1q-4.2 -5.55 -6.6 -8.15l4 -2.8q6.75 7.35 12.95 17.35l-4.4 2.95l-3.2 -5.15l-33.45 2.6q-1.2 1.95 -1.8 0l-1.6 -5.2" />
</g>
<g id="PathID_163" transform="matrix(0.941176, 0, 0, 0.941176, 189.35, 43.1)">
<path style="fill:#FFFFFF;fill-opacity:1" d="M2.15 -0.75q4.8 -1.6 8 -4.4l0 -12.15l-7.2 0l0 -3.8l11.15 0l0 16.35q3.6 4 10.2 4l24.3 0l-1 3.75l-23.3 0q-8.6 0 -12.75 -5.55q-2.4 3.55 -7.2 6.15l-2.2 -4.35M20.1 -24.7q-2.4 3.2 -4 4.2l-2 -4.4q7.6 -6.75 10 -16.7l4.35 1.2q1.6 0.6 -0.4 1.2q-1 2.95 -2.75 6.15l6.15 0q2.8 -4.2 4 -8.15l4.35 1.6q1.4 1 -0.6 1.2q-1.35 2.35 -3.75 5.35l10.55 0l0 3.2l-10.55 0l0 4.95l8.95 0l0 3.2l-8.95 0l0 4.6l8.75 0l0 3.2l-8.75 0l0 5.35l11.95 0l0 3.2l-23.3 0l0 2.2l-4 0l0 -21.55M24.1 -13.9l0 5.35l7.35 0l0 -5.35l-7.35 0M24.1 -21.7l0 4.6l7.35 0l0 -4.6l-7.35 0M24.1 -29.85l0 4.95l7.35 0l0 -4.95l-7.35 0M12.75 -30.45q-2.6 -3 -7 -5.8l2.8 -3.15q4.95 2.75 7.35 5.55l-3.15 3.4" />
</g>
<g id="PathID_164" transform="matrix(0.941176, 0, 0, 0.941176, 237.35, 43.1)">
<path style="fill:#FFFFFF;fill-opacity:1" d="M17.9 -36.65q-6.15 7.6 -11.35 10.6l-2.4 -3.6q5.6 -3.2 11.15 -10.55l3 2.55q1 1.2 -0.4 1M15.1 4.2l-3.95 0l0 -21.1q-2 2.2 -6 4.75l-2.6 -3.95q8.6 -5.2 14.55 -14.55l3.2 2.6q1 1.2 -0.4 1q-2.4 3.15 -4.8 6.15l0 25.1M44.2 -37.65l0 3.8l-21.5 0l0 -3.8l21.5 0M20.5 -21.1l0 -3.8l27.7 0l0 3.8l-8.4 0l0 20.35q0 4.15 -3.35 4.15l-5.4 0l-0.8 -3.75l4.8 0q0.8 0 0.8 -0.8l0 -19.95l-15.35 0" />
</g>
</svg>
