<?xml version="1.0" encoding="utf-8"?>
<svg version="1.1" id="Layer_1"
xmlns="http://www.w3.org/2000/svg"
xmlns:xlink="http://www.w3.org/1999/xlink"
xmlns:author="http://www.sothink.com"
width="187px" height="60px"
xml:space="preserve">
<g id="PathID_49" transform="matrix(0.941176, 0, 0, 0.941176, 2, 43.1)">
<path style="fill:#FFFFFF;fill-opacity:1" d="M35.65 -7.35q3.15 4 11.95 7.2l-2 4.35q-15.55 -5.15 -19.75 -21.9l-1.15 0q-2 2.8 -4.2 4.95l0 11.2l11.35 -2.2l0.6 3.4q-10.75 2.55 -21.1 4.55q-0.6 1.8 -1.2 0.6l-1.4 -4.8l7.75 -0.95l0 -8.6q-5.15 3.6 -11.55 5.8l-2 -4q9.95 -2.8 16.95 -9.95l-15.95 0l0 -3.8l19.35 0l0 -3.6l-14.35 0l0 -3.75l14.35 0l0 -3.6l-16.95 0l0 -3.8l16.95 0l0 -4.75l3.75 0q1.6 0.2 0.2 1.2l0 3.55l16.95 0l0 3.8l-16.95 0l0 3.6l14.35 0l0 3.75l-14.35 0l0 3.6l19.35 0l0 3.8l-16.95 0q1.2 3.8 4 7.95q3.8 -3.15 7.15 -6.95l3 3q0.2 0.95 -1 0.6q-3.4 3.15 -7.15 5.75" />
</g>
<g id="PathID_50" transform="matrix(0.941176, 0, 0, 0.941176, 50, 43.1)">
<path style="fill:#FFFFFF;fill-opacity:1" d="M36.65 -17.3q3.95 6.55 10.95 11.55l-3.4 3.8q-6.55 -5.4 -11.15 -12.95l3.6 -2.4M28.05 -0.75q0 3.55 -3.35 3.55l-5.6 0l-0.8 -4.35l4.4 0q0.8 0 0.8 -0.8l0 -18.75l-19.55 0l0 -4.4l42.85 0l0 4.4l-18.75 0l0 20.35M10.55 -32.85l0 -4.4l30.25 0l0 4.4l-30.25 0M3.95 -4.95q5.6 -4 9.75 -12.15l4 2.2q1.6 1 -0.6 1.4q-3.4 7.15 -9.95 12.35l-3.2 -3.8" />
</g>
</svg>
