<?xml version="1.0" encoding="utf-8"?>
<svg version="1.1" id="Layer_1"
xmlns="http://www.w3.org/2000/svg"
xmlns:xlink="http://www.w3.org/1999/xlink"
xmlns:author="http://www.sothink.com"
width="434px" height="60px"
xml:space="preserve">
<g id="PathID_131" transform="matrix(0.941176, 0, 0, 0.941176, 2, 43.1)">
<path style="fill:#FFFFFF;fill-opacity:1" d="M11.55 -31.25q1.75 -1.8 1.95 -4l2.4 0l0 34.5l-4.55 0l0 -26.5l-6 0l0 -2.4l1.8 0q2.8 0 4.4 -1.6" />
</g>
<g id="PathID_132" transform="matrix(0.941176, 0, 0, 0.941176, 26, 43.1)">
<path style="fill:#FFFFFF;fill-opacity:1" d="M2.95 -4.95l4.6 0l0 4.4l-4.6 0l0 -4.4" />
</g>
<g id="PathID_133" transform="matrix(0.941176, 0, 0, 0.941176, 50.3, 43.1)">
<path style="fill:#FFFFFF;fill-opacity:1" d="M32.85 -25.1l-11.35 0.4q-1.2 16.95 -15.75 26.7l-3.4 -3.35q13.75 -9.2 14.55 -23.35l-14.15 0.4l-0.4 -3.95l14.75 -0.4l0 -11.15l4.2 0q2.2 0.4 0.4 1.55l0 9.6l15.75 -0.6l0 12.35q0 9.75 -1.8 13.75q-1.8 3.95 -7.6 3.95l-4.75 0l-0.6 -4.95q2.95 0.4 5.15 0.4q3 0 3.8 -2q1.2 -3.2 1.2 -11.15l0 -8.2" />
</g>
<g id="PathID_134" transform="matrix(0.941176, 0, 0, 0.941176, 89.85, 43.1)">
<path style="fill:#FFFFFF;fill-opacity:1" d="M2.35 -16.3l0 -4.4l44.45 0l0 4.4l-44.45 0" />
</g>
<g id="PathID_135" transform="matrix(0.941176, 0, 0, 0.941176, 135.95, 43.1)">
<path style="fill:#FFFFFF;fill-opacity:1" d="M27.85 -11.75q-10.55 -5.35 -17.3 -7.15l0 20.7l-4.6 0l0 -39.85l4 0q2.4 0.2 0.6 1.6l0 12.55q9.75 2.8 19.7 7.6l-2.4 4.55M27.45 -29.25q-3.35 -4.2 -6.75 -6.8l2.6 -2q3.35 2.6 6.75 6.8l-2.6 2M32.25 -33.05q-2.6 -3.4 -6.6 -6.55l2.6 -2q3.4 2.4 6.6 6.55l-2.6 2" />
</g>
<g id="PathID_136" transform="matrix(0.941176, 0, 0, 0.941176, 169.85, 43.1)">
<path style="fill:#FFFFFF;fill-opacity:1" d="M21.1 -38.05q14.15 -0.55 21.1 -2.95l2.4 2.95q0.6 1.2 -1 0.8q-3.6 0.8 -7.75 1.4l0 3.2l11.15 0l0 3.2l-11.15 0l0 3l9.15 0l0 15.7l-9.15 0l0 3.2l9.95 0l0 3.2l-9.95 0l0 4.35l12.55 0l0 3.2l-29.9 0l0 -3.2l13.35 0l0 -4.35l-9.95 0l0 -3.2l9.95 0l0 -3.2l-4.6 0l-4.55 0l0 -15.7l9.15 0l0 -3l-11.55 0l0 -3.2l11.55 0l0 -2.8q-4.4 0.4 -9.35 0.6l-1.4 -3.2M13.5 4.8l-3.35 0l0 -20.1q-2.2 5.15 -5.6 9.75l-2.8 -3.6q6.2 -7.55 8.2 -15.75l-6.6 0l0 -3.15l6.8 0l0 -6.8q-3 0.6 -5.6 0.8l-1.2 -3.4q8.6 -1.15 13.55 -3.15l2 2.95q0.8 1.2 -0.8 0.8q-2.4 0.8 -4.6 1.2l0 7.6l6.2 0l0 3.15l-6.2 0l0 5q4 2 6.8 4.6l-2.4 4.75q-2 -2.95 -4.4 -5.15l0 20.5M31.85 -23.3l-5.8 0l0 3.6l5.8 0l0 -3.6M31.85 -17.3l-5.8 0l0 3.4l5.8 0l0 -3.4M41.6 -17.3l-5.75 0l0 3.4l5.75 0l0 -3.4M35.85 -23.3l0 3.6l5.75 0l0 -3.6l-5.75 0" />
</g>
<g id="PathID_137" transform="matrix(0.941176, 0, 0, 0.941176, 217.85, 43.1)">
<path style="fill:#FFFFFF;fill-opacity:1" d="M21.3 0.8q-3 -3.15 -6.4 -5.35q-1.8 5.75 -8.95 9.35l-2.4 -3.6q7.8 -2.95 8.6 -10.95l-8.4 0l0 -3.15l8.6 0l0 -4.6l3.15 0q1.6 0.2 0.2 1.2l0 3.4l9.2 0l0 3.15l-9.2 0l-0.2 1.8q4.4 1.4 8.4 5.4l-2.6 3.35M22.7 -18.1q-3 -3.8 -6.4 -5.8l0 4.6l-3.4 0l0 -4q-2.95 4.4 -8.15 7.2l-2 -3.4q5.2 -2.6 8.8 -7.15l-7.6 0l0 -3.2l8.95 0l0 -11.15l3.2 0q1.6 0.2 0.2 1.2l0 9.95l8.8 0l0 3.2l-7.6 0q4.4 1.55 7.8 5.35l-2.6 3.2M47 4.8q-5.2 -1.6 -9.35 -5.15l2.55 -2.8q4 2.6 8.6 4.15l-1.8 3.8M35.25 -0.35q0.4 0.75 -1 0.75q-5 3.4 -9.95 4.8l-2 -4q5.75 -1.55 10.15 -4.55l2.8 3M33.25 -30.25l1.2 -5.2l-8.8 0l0 -3.75l22.35 0l0 3.75l-9.2 0l-1.95 5.2l9.15 0l0 26.5l-18.35 0l0 -26.5l5.6 0M42.6 -22.7l0 -4.35l-11.55 0l0 4.35l11.55 0M31.05 -14.9l11.55 0l0 -4.6l-11.55 0l0 4.6M31.05 -6.95l11.55 0l0 -4.8l-11.55 0l0 4.8M7.35 -38.8q2.4 1.95 3.6 5.15l-3.6 2.2q-1.4 -2.6 -3.4 -5.2l3.4 -2.15M17.5 -33.25q2 -2.6 3.6 -5.75l3.4 1.55q1.35 0.8 -0.4 1q-1.4 2.8 -3.2 5.4l-3.4 -2.2" />
</g>
</svg>
