<?xml version="1.0" encoding="utf-8"?>
<svg version="1.1" id="Layer_1"
xmlns="http://www.w3.org/2000/svg"
xmlns:xlink="http://www.w3.org/1999/xlink"
xmlns:author="http://www.sothink.com"
width="187px" height="60px"
xml:space="preserve">
<g id="PathID_43" transform="matrix(0.941176, 0, 0, 0.941176, 2, 43.1)">
<path style="fill:#FFFFFF;fill-opacity:1" d="M37.05 -10.95q2.75 -5.35 3.35 -16.3l-6.75 0q0.6 10.95 3.4 16.3M44.4 -27.25q-0.4 12.35 -4.8 19.9q3.2 4 9 7l-2.6 4.35q-6.4 -4.15 -8.95 -7.95q-4.6 5.15 -14.15 8.95l-2 -4q10.35 -4.15 13.75 -8.55q-3.4 -6.55 -3.8 -13.15q-1.2 3 -2.4 4.6l-3.35 -2.6q5.95 -8.75 7.15 -21.7l4.2 1q1.2 0.8 -0.6 1.15q-0.6 3.6 -1.6 7.2l13.55 0l0 3.8l-3.4 0M25.85 -36.85q-1.15 3 -2.75 5l-3.2 -1.8q1.6 -2.6 3 -5.95l3.55 1.75q0.8 0.8 -0.6 1M13.1 -8.75q2.8 0.8 5 1.8q1.6 -1.8 2.6 -5.4l-5.8 0q-0.8 1.8 -1.8 3.6M10.35 -3.75l-3.2 -1.8q2 -3 4 -6.8l-7.6 0l0 -3.15l8.8 0q1.15 -2.6 1.75 -4.4l3.8 1q0.8 0.8 -0.6 1l-1.2 2.4l11.35 0l0 3.15l-2.95 0q-1 4 -3 6.8q1.8 0.8 3.8 2l-1.8 3.2q-2.2 -1.4 -4 -2.2q-5.2 5.15 -13.95 6.35l-1.4 -3.6q7.8 -0.75 11.95 -4.35q-2.2 -1 -4.35 -1.8l-1.4 2.2M14.3 -41.2l3.2 0q1.6 0.2 0.2 1.2l0 8.55l10.15 0l0 3.2l-8.35 0q2.2 2.6 6.75 4.95l-2.15 3.4q-3.4 -2 -6.4 -5.6l0 4.8l-3.4 0l0 -3.8q-3.15 4 -8.75 7.2l-2.6 -3.2q6.2 -3.2 10.15 -7.75l-9.15 0l0 -3.2l10.35 0l0 -9.75M8.75 -32.05q-1.4 -3 -3.6 -5.2l3.2 -1.95q2.4 2.35 3.6 4.95l-3.2 2.2" />
</g>
<g id="PathID_44" transform="matrix(0.941176, 0, 0, 0.941176, 50, 43.1)">
<path style="fill:#FFFFFF;fill-opacity:1" d="M27.85 -17.9l0 2.6l19.55 0l0 3.75l-19.55 0l0 11.55q0 3.2 -3.15 3.2l-5.4 0l-1 -3.75l4.8 0q0.8 0 0.8 -0.8l0 -10.2l-20.75 0l0 -3.75l20.75 0l0 -5.2l1.95 0.4l5.6 -3.8l-19.1 0l0 -3.75l23.1 0l0.8 -0.8l3.35 3.35l-1.2 0.4l-10.55 6.8M27.65 -35.65l18.55 0l0 10l-4 0l0 -6.2l-33.65 0l0 6.55l-4 0l0 -10.35l18.55 0l0 -5.35l4.35 0q2 0.4 0.2 1.6l0 3.75" />
</g>
</svg>
