<?xml version="1.0" encoding="utf-8"?>
<svg version="1.1" id="Layer_1"
xmlns="http://www.w3.org/2000/svg"
xmlns:xlink="http://www.w3.org/1999/xlink"
xmlns:author="http://www.sothink.com"
width="216px" height="68px"
xml:space="preserve">
<g id="PathID_127" transform="matrix(1.09804, 0, 0, 1.09804, 2, 49.95)">
<path style="fill:#FFFFFF;fill-opacity:1" d="M3.95 -39.8l12.55 0l0 3.15l-9.15 0l0 38.05l9.15 0l0 3.2l-12.55 0l0 -44.4" />
</g>
<g id="PathID_128" transform="matrix(1.09804, 0, 0, 1.09804, 20.8, 49.95)">
<path style="fill:#FFFFFF;fill-opacity:1" d="M22.9 -15.5l0 -3.8l18.3 0l0.6 -0.6l3 2.2q1 1 -0.4 0.8q-3 7.15 -7.15 11.95q2.75 2.2 11.55 4.8l-1.2 4.15q-8.8 -3 -13.15 -6.15q-5.6 4.35 -11.55 6.55l-2 -3.8q5.95 -1.55 10.75 -5.35q-3 -3.8 -5.6 -10.75l-3.15 0M25.5 -39.4l14.7 0l0 11.15q0 1.6 1.4 1.6l1.4 0q1.6 0 1.6 -3.8l4 1q-0.2 6.55 -4.6 6.55l-4.2 0q-3.55 0 -3.55 -3.35l0 -9.4l-6.8 0l0 4.8q0 7.35 -6.55 10.95l-2.2 -3.2q4.8 -1.8 4.8 -8.15l0 -8.15M19.9 3.8l-3.4 0l0 -1.2l-8.15 0l0 2l-3.4 0l0 -16.15l14.95 0l0 15.35M21.7 -32.85l0 3.8l-18.75 0l0 -3.8l18.75 0M18.9 -40l0 3.75l-13.15 0l0 -3.75l13.15 0M18.9 -25.85l0 3.75l-13.15 0l0 -3.75l13.15 0M18.9 -18.9l0 3.8l-13.15 0l0 -3.8l13.15 0M16.5 -8.35l-8.15 0l0 7.8l8.15 0l0 -7.8M34.45 -7.15q3.4 -4 5.15 -8.35l-9.75 0q1.6 4.75 4.6 8.35" />
</g>
<g id="PathID_129" transform="matrix(1.09804, 0, 0, 1.09804, 76.8, 49.95)">
<path style="fill:#FFFFFF;fill-opacity:1" d="M3.35 1q9.75 -5.95 9.55 -19.1l4.6 0.8q0.6 0.6 -0.4 1.2l-1 7.15q3 3.6 7.8 6.2l0 -19.35l-13.55 0l0 -3.75l30.05 0l0 3.75l-12.55 0l0 7.4l13.95 0l0 3.75l-13.95 0l0 9.6q3 0.8 6 0.8l13.15 0l-0.8 3.75l-12.35 0q-11.55 0 -18.95 -8.35q-2.95 6.55 -8.35 9.95l-3.2 -3.8M27.65 -35.45l18.35 0l0 10.55l-4 0l0 -6.75l-33.05 0l0 7.15l-4 0l0 -10.95l18.15 0l0 -5.75l4.35 0q2 0.4 0.2 1.6l0 4.15" />
</g>
<g id="PathID_130" transform="matrix(1.09804, 0, 0, 1.09804, 132.8, 49.95)">
<path style="fill:#FFFFFF;fill-opacity:1" d="M0.35 -39.8l12.55 0l0 44.4l-12.55 0l0 -3.2l9.2 0l0 -38.05l-9.2 0l0 -3.15" />
</g>
</svg>
