<?xml version="1.0" encoding="utf-8"?>
<svg version="1.1" id="Layer_1"
xmlns="http://www.w3.org/2000/svg"
xmlns:xlink="http://www.w3.org/1999/xlink"
xmlns:author="http://www.sothink.com"
width="5px" height="77px"
xml:space="preserve">
<g id="47" transform="matrix(1, 0, 0, 1, 2.4, -0.4)">
<path style="fill:#DCDDDD;fill-opacity:1" d="M1.85,60.95L2.05 67.55Q2.1 74.6 1.65 76.7Q1.2 74.65 1 67.55L1 60.95L1.85 60.95" />
<path style="fill:none;stroke-width:0.2;stroke-linecap:butt;stroke-linejoin:miter;stroke-miterlimit:4;stroke:#595757;stroke-opacity:1" d="M1,60.95L1 67.55Q1.2 74.65 1.65 76.7Q2.1 74.6 2.05 67.55L1.85 60.95L1 60.95z" />
<path style="fill:#B5B5B6;fill-opacity:1" d="M2,3.95L2.45 64L0.85 64.05Q-0.2 62.15 -0.85 57.85L-1.4 53.9L-2.3 0.5L2 3.95" />
<path style="fill:none;stroke-width:0.2;stroke-linecap:butt;stroke-linejoin:miter;stroke-miterlimit:4;stroke:#000000;stroke-opacity:1" d="M2,3.95L2.45 64L0.85 64.05Q-0.2 62.15 -0.85 57.85L-1.4 53.9L-2.3 0.5" />
</g>
</svg>
