<?xml version="1.0" encoding="utf-8"?>
<svg version="1.1" id="Layer_1"
xmlns="http://www.w3.org/2000/svg"
xmlns:xlink="http://www.w3.org/1999/xlink"
xmlns:author="http://www.sothink.com"
width="32px" height="32px"
xml:space="preserve">
<g id="34" transform="matrix(1, 0, 0, 1, -255.45, -114.4)">
<path style="fill:#000000;fill-opacity:1" d="M287.1,141.65Q286.95 143.85 285.55 145.25Q284.2 146.25 282.5 146.25L260.05 146.25Q258 146.25 256.8 144.9Q255.45 143.7 255.45 141.5L255.45 119Q255.45 117 256.8 115.8Q258 114.4 260.05 114.4L282.5 114.4Q284.55 114.4 285.9 115.8Q287.1 117 287.1 119L287.1 141.65M263.25,141.8Q263.6 139.45 264.15 137.9Q265.65 134.5 268.7 131.95L273.15 128.9Q276.4 126.5 276.4 124.3Q276.4 120.7 271.45 120.7Q268.4 120.7 267.2 122.6Q266.7 123.45 266.15 125.5L263.6 125.15Q264.3 122.4 265.5 120.9Q267.55 118.5 271.45 118.5Q278.95 118.5 278.95 124.45Q278.95 126.7 277.05 128.9L269.25 134.5Q266.85 136.55 266.35 139.45L279.25 139.25L279.25 141.8L266.5 141.65L263.25 141.8M260.55,115.6Q256.65 115.6 256.65 119.55L256.65 141.15Q256.65 145.05 260.55 145.05L282 145.05Q286.1 145.05 286.1 141.15L286.1 119.55Q286.1 115.6 282 115.6L260.55 115.6" />
</g>
</svg>
