<?xml version="1.0" encoding="utf-8"?>
<svg version="1.1" id="Layer_1"
xmlns="http://www.w3.org/2000/svg"
xmlns:xlink="http://www.w3.org/1999/xlink"
xmlns:author="http://www.sothink.com"
width="161px" height="33px"
xml:space="preserve">
<g id="50" transform="matrix(1, 0, 0, 1, 0, 0)">
<path style="fill:#FFFFFF;fill-opacity:1" d="M32.85,28.05Q32.7 30.6 31.35 31.65Q30.15 32.85 28.1 32.85L4.75 32.85Q2.75 32.85 1.35 31.5Q0 30.1 0 28.05L0 4.75Q0 2.55 1.35 1.35Q2.75 0 4.75 0L28.1 0Q32.85 0 32.85 4.75L32.85 28.05M160.85,28.05Q160.7 30.6 159.3 31.65Q158.15 32.85 156.1 32.85L132.75 32.85Q130.7 32.85 129.35 31.5Q128 30.1 128 28.05L128 4.75Q128 2.55 129.35 1.35Q130.7 0 132.75 0L156.1 0Q158.15 0 159.5 1.35Q160.85 2.55 160.85 4.75L160.85 28.05" />
<path style="fill:#000000;fill-opacity:1" d="M32.85,28.05Q32.7 30.6 31.35 31.65Q30.15 32.85 28.1 32.85L4.75 32.85Q2.75 32.85 1.35 31.5Q0 30.1 0 28.05L0 4.75Q0 2.55 1.35 1.35Q2.75 0 4.75 0L28.1 0Q32.85 0 32.85 4.75L32.85 28.05M11.25,4.75L15.85 4.95L18.4 4.75L18.05 24.85L18.4 28.25L15.35 28.25L15.5 7.15L13.95 7.15L11.25 7.3L11.25 4.75M5.3,1.2Q1.2 1.2 1.2 5.25L1.2 27.55Q1.2 31.65 5.3 31.65L27.6 31.65Q31.65 31.65 31.65 27.55L31.65 5.25Q31.65 1.2 27.6 1.2L5.3 1.2M139.25,4.75L141.8 4.95L146.4 4.75L146.05 24.85L146.4 28.25L143.3 28.25L143.5 7.15L141.95 7.15L139.25 7.3L139.25 4.75M160.85,28.05Q160.7 30.6 159.3 31.65Q158.15 32.85 156.1 32.85L132.75 32.85Q130.7 32.85 129.35 31.5Q128 30.1 128 28.05L128 4.75Q128 2.55 129.35 1.35Q130.7 0 132.75 0L156.1 0Q158.15 0 159.5 1.35Q160.85 2.55 160.85 4.75L160.85 28.05M133.3,1.2Q129.2 1.2 129.2 5.25L129.2 27.55Q129.2 31.65 133.3 31.65L155.55 31.65Q159.65 31.65 159.65 27.55L159.65 5.25Q159.65 1.2 155.55 1.2L133.3 1.2" />
</g>
</svg>
