<?xml version="1.0" encoding="utf-8"?>
<svg version="1.1" id="Layer_1"
xmlns="http://www.w3.org/2000/svg"
xmlns:xlink="http://www.w3.org/1999/xlink"
xmlns:author="http://www.sothink.com"
width="32px" height="32px"
xml:space="preserve">
<g id="53" transform="matrix(1, 0, 0, 1, 0, -12)">
<path style="fill:#000000;fill-opacity:1" d="M31.65,39.25Q31.5 41.45 30.1 42.85Q28.75 43.85 27.05 43.85L4.6 43.85Q2.55 43.85 1.35 42.5Q0 41.3 0 39.1L0 16.6Q0 14.6 1.35 13.4Q2.55 12 4.6 12L27.05 12Q29.1 12 30.45 13.4Q31.65 14.6 31.65 16.6L31.65 39.25M7.8,39.4Q8.15 37.05 8.7 35.5Q10.2 32.1 13.25 29.55L17.7 26.5Q20.95 24.1 20.95 21.9Q20.95 18.3 16 18.3Q12.95 18.3 11.75 20.2Q11.25 21.05 10.7 23.1L8.15 22.75Q8.85 20 10.05 18.5Q12.1 16.1 16 16.1Q23.5 16.1 23.5 22.05Q23.5 24.3 21.6 26.5L13.8 32.1Q11.4 34.15 10.9 37.05L23.8 36.85L23.8 39.4L11.05 39.25L7.8 39.4M5.1,13.2Q1.2 13.2 1.2 17.15L1.2 38.75Q1.2 42.65 5.1 42.65L26.55 42.65Q30.65 42.65 30.65 38.75L30.65 17.15Q30.65 13.2 26.55 13.2L5.1 13.2" />
</g>
</svg>
