<?xml version="1.0" encoding="utf-8"?>
<svg version="1.1" id="Layer_1"
xmlns="http://www.w3.org/2000/svg"
xmlns:xlink="http://www.w3.org/1999/xlink"
xmlns:author="http://www.sothink.com"
width="33px" height="33px"
xml:space="preserve">
<g id="51" transform="matrix(1, 0, 0, 1, 0, 0)">
<path style="fill:#FFFFFF;fill-opacity:1" d="M32.85,28.1Q32.65 30.5 31.3 31.85Q30.1 32.85 28.05 32.85L4.75 32.85Q2.7 32.85 1.35 31.5Q0 30.3 0 28.1L0 4.8Q0 2.55 1.35 1.4Q2.7 0 4.75 0L28.05 0Q30.1 0 31.45 1.4Q32.85 2.75 32.85 4.8L32.85 28.1" />
<path style="fill:#000000;fill-opacity:1" d="M32.85,28.1Q32.65 30.5 31.3 31.85Q30.1 32.85 28.05 32.85L4.75 32.85Q2.7 32.85 1.35 31.5Q0 30.3 0 28.1L0 4.8Q0 2.55 1.35 1.4Q2.7 0 4.75 0L28.05 0Q30.1 0 31.45 1.4Q32.85 2.75 32.85 4.8L32.85 28.1M5.25,1.2Q1.2 1.2 1.2 5.3L1.2 27.6Q1.2 31.65 5.25 31.65L27.55 31.65Q31.65 31.65 31.65 27.6L31.65 5.3Q31.65 1.2 27.55 1.2L5.25 1.2M8.15,28.25Q8.5 25.9 9 24.35Q10.55 20.6 13.75 18.25L18.35 15Q21.75 12.8 21.75 10.25Q21.75 6.5 16.65 6.5Q13.45 6.5 12.25 8.35Q11.4 9.7 11.2 11.4L8.5 11.1Q9.15 8 10.55 6.65Q12.4 4.25 16.65 4.25Q24.3 4.25 24.3 10.25Q24.3 12.8 22.3 14.8Q21.45 15.85 19.2 17.2L14.45 20.8Q11.9 23 11.2 25.9L21.1 25.9L24.65 25.7L24.65 28.25L11.55 28.1L8.15 28.25" />
</g>
</svg>
