<?xml version="1.0" encoding="utf-8"?>
<svg version="1.1" id="Layer_1"
xmlns="http://www.w3.org/2000/svg"
xmlns:xlink="http://www.w3.org/1999/xlink"
xmlns:author="http://www.sothink.com"
width="111px" height="54px"
xml:space="preserve">
<g id="37" transform="matrix(1, 0, 0, 1, -53.05, -37.5)">
<path style="fill:#65AADD;fill-opacity:1" d="M53.05,48.75Q53.05 45.15 54.8 42.25Q56.3 40.05 58.7 38.85Q61.6 37.5 64.3 37.5L152.65 37.5Q156.55 37.5 159.1 39.2Q161.5 40.9 162.5 43.3Q164.05 46 164.05 48.75L164.05 79.2Q164.05 82.95 162.15 85.65Q161 87.7 158.25 89.05Q155.35 90.6 152.65 90.6L64.3 90.6Q60.9 90.6 57.85 88.7Q55.8 87.55 54.45 84.8Q53.6 82.95 53.25 81.05L53.05 79.2L53.05 48.75M56.5,79.85L56.8 81.75Q57.65 84.45 59.7 85.85Q61.4 87.2 64.3 87.2L152.8 87.2Q153.15 87.2 153.3 87L155.2 86.7Q157.9 86.15 159.45 83.8Q160.65 82.1 160.65 79.2L160.65 48.55L160.45 48.05L160.15 46.2Q159.45 43.45 157.25 42.1Q155.55 40.9 152.65 40.9L63.65 40.9L61.75 41.25Q59.05 42.1 57.65 44.15Q56.3 45.85 56.3 48.75L56.3 79.35L56.5 79.85" />
</g>
</svg>
