<?xml version="1.0" encoding="utf-8"?>
<svg version="1.1" id="Layer_1"
xmlns="http://www.w3.org/2000/svg"
xmlns:xlink="http://www.w3.org/1999/xlink"
xmlns:author="http://www.sothink.com"
width="387px" height="10px"
xml:space="preserve">
<g id="40" transform="matrix(1, 0, 0, 1, -57.6, -203.65)">
<path style="fill:#000000;fill-opacity:1" d="M67.5,208.75Q67.5 210.6 66.1 212.15Q64.6 213.5 62.55 213.5Q60.7 213.5 59.15 212.15Q57.8 210.6 57.8 208.75Q57.8 206.7 59.15 205.35Q60.7 203.8 62.55 203.8Q64.6 203.8 66.1 205.35Q67.5 206.7 67.5 208.75" />
<path style="fill:none;stroke-width:0.3;stroke-linecap:butt;stroke-linejoin:miter;stroke-miterlimit:4;stroke:#000000;stroke-opacity:1" d="M67.45,208.75Q67.45 210.6 66.05 212.15Q64.55 213.5 62.5 213.5Q60.65 213.5 59.1 212.15Q57.75 210.6 57.75 208.75Q57.75 206.7 59.1 205.35Q60.65 203.8 62.5 203.8Q64.55 203.8 66.05 205.35Q67.45 206.7 67.45 208.75z" />
<path style="fill:#000000;fill-opacity:1" d="M443.55,208.75Q443.55 210.6 442.2 212.15Q440.65 213.5 438.6 213.5Q436.75 213.5 435.2 212.15Q433.85 210.6 433.85 208.75Q433.85 206.7 435.2 205.35Q436.75 203.8 438.6 203.8Q440.65 203.8 442.2 205.35Q443.55 206.7 443.55 208.75" />
<path style="fill:none;stroke-width:0.3;stroke-linecap:butt;stroke-linejoin:miter;stroke-miterlimit:4;stroke:#000000;stroke-opacity:1" d="M443.55,208.75Q443.55 210.6 442.2 212.15Q440.65 213.5 438.6 213.5Q436.75 213.5 435.2 212.15Q433.85 210.6 433.85 208.75Q433.85 206.7 435.2 205.35Q436.75 203.8 438.6 203.8Q440.65 203.8 442.2 205.35Q443.55 206.7 443.55 208.75z" />
<path style="fill:none;stroke-width:2.85;stroke-linecap:butt;stroke-linejoin:miter;stroke-miterlimit:4;stroke:#000000;stroke-opacity:1" d="M62.2,208.75L440.15 208.75" />
</g>
</svg>
