<?xml version="1.0" encoding="utf-8"?>
<svg version="1.1" id="Layer_1"
xmlns="http://www.w3.org/2000/svg"
xmlns:xlink="http://www.w3.org/1999/xlink"
xmlns:author="http://www.sothink.com"
width="55px" height="55px"
xml:space="preserve">
<g id="358" transform="matrix(1, 0, 0, 1, 27.5, 27.5)">
<path style="fill:#FFFFFF;fill-opacity:1" d="M17.65,-17.7Q25 -10.35 25 0Q25 10.35 17.65 17.65Q10.35 25 0 25Q-10.35 25 -17.7 17.65Q-25 10.35 -25 0Q-25 -10.35 -17.7 -17.7Q-10.35 -25 0 -25Q10.35 -25 17.65 -17.7" />
<path style="fill:none;stroke-width:5;stroke-linecap:round;stroke-linejoin:round;stroke-miterlimit:3;stroke:#FFFFFF;stroke-opacity:1" d="M17.65,-17.7Q25 -10.35 25 0Q25 10.35 17.65 17.65Q10.35 25 0 25Q-10.35 25 -17.7 17.65Q-25 10.35 -25 0Q-25 -10.35 -17.7 -17.7Q-10.35 -25 0 -25Q10.35 -25 17.65 -17.7z" />
</g>
</svg>
