<?xml version="1.0" encoding="utf-8"?>
<svg version="1.1" id="Layer_1"
xmlns="http://www.w3.org/2000/svg"
xmlns:xlink="http://www.w3.org/1999/xlink"
xmlns:author="http://www.sothink.com"
width="34px" height="34px"
xml:space="preserve">
<g id="361" transform="matrix(1, 0, 0, 1, 1, 1)">
<path style="fill:none;stroke-width:2;stroke-linecap:round;stroke-linejoin:round;stroke-miterlimit:3;stroke:#383838;stroke-opacity:1" d="M14.35,0L31.95 7.3L31.95 24.95L16.75 32L0 24.9L0 24.75L0 7.45L0.35 7.3L14 0.2L14.35 0M13.9,17.9L14.15 17.75L16.8 18.85L16.8 14.25L16.75 14.25L13.95 13.1L13.9 17.9L0 24.75M0.35,7.3L13.95 13.1L14 0.2M31.25,7.35L16.8 14.25M16.8,31.6L16.8 18.85L31 24.95" />
</g>
</svg>
