<?xml version="1.0" encoding="utf-8"?>
<svg version="1.1" id="Layer_1"
xmlns="http://www.w3.org/2000/svg"
xmlns:xlink="http://www.w3.org/1999/xlink"
xmlns:author="http://www.sothink.com"
width="110px" height="13px"
xml:space="preserve">
<g id="PathID_1022" transform="matrix(0.010049, 0, 0, 0.010049, -0.4, 10.7)">
<path style="fill:#000000;fill-opacity:1" d="M569 -6l0 -390.5l323.5 0q5 0 7.5 -1.5q3 -1.5 3 -3.5q0 -1 -1.5 -2.5l-3 -3.5l-32.5 -30.5l-27.5 -24l-35 -28.5l-22.5 24.5l-18 20l-22 26l-172 0l0 -338l369.5 0q5.5 0 9 -1.5q3.5 -1.5 3.5 -4.5q0 -1.5 -1.5 -3.5l-2.5 -4l-35.5 -30q-14.5 -12 -29.5 -24q-14.5 -12.5 -36.5 -29.5q-13.5 15 -22.5 25.5l-18 21.5l-22 26.5l-560.5 0q-28.5 0 -49 -1q-20.5 -0.5 -39 -3q-18.5 -2 -40 -6l6 38.5l59.5 -3.5q33 -1.5 62.5 -1.5l274 0l0 752l-197.5 0l0 -495q22 -6 32 -11q10 -5 10 -10.5q0 -7 -17.5 -12.5q-17 -6 -50 -10l-22 -3l-31 -4q2.5 20 4 35.5q1.5 16 2.5 32.5q0.5 17 0.5 39.5l0 438.5l-60.5 0q-32.5 0 -61.5 -2.5q-29.5 -2.5 -64.5 -7.5q3.5 19 7.5 38.5q24 -3 52.5 -4q28 -1 66 -1l810.5 0q5 0 8 -2q3 -2 3.5 -5q0 -1.5 -1.5 -4q-1.5 -2.5 -4 -5.5q-21 -18.5 -36 -31l-30 -25q-15 -12 -37 -29l-24 27l-19.5 22.5l-24.5 28.5l-243.5 0" />
</g>
<g id="PathID_1023" transform="matrix(0.010049, 0, 0, 0.010049, 9.85, 10.7)">
<path style="fill:#000000;fill-opacity:1" d="M540.5 -652.5l0 -142.5q27 -9.5 36 -14.5q8.5 -4.5 8 -9q0.5 -6 -10.5 -10.5q-10.5 -4.5 -37 -8.5q-26.5 -4 -73 -8.5q3 26 4.5 42.5q1.5 16.5 1.5 31l0 120l-307 0q-10 0 -19 -0.5l-21 -2l-34 -3.5l-11.5 -2l-16 -2l10 40.5l43 -4.5l25 -2q10 -0.5 22.5 -0.5l231 0q-1.5 106.5 -15 192q-13.5 86 -40 156.5q-26.5 71 -67.5 133q-40 60.5 -91 107q-51.5 46.5 -126.5 89.5q4.5 8.5 8.5 17.5l42 -18q17 -8 31 -16q14.5 -8 30.5 -17.5q65.5 -41 118 -96q52.5 -54.5 89.5 -121q28.5 -49.5 47 -105.5q18.5 -56 32 -130l301 0q-4 91 -13 172.5q-9 82 -21.5 140q-12.5 58.5 -26 78.5q-5.5 7.5 -13.5 10.5q-7.5 3 -23.5 3l-57 -2.5l-84.5 -6.5l-94.5 -8.5l0 14.5q63.5 11.5 100.5 20q37 8.5 55 17.5q18.5 9 24.5 22q6.5 13.5 8 34.5q53 -6.5 83 -15.5q29.5 -8.5 45.5 -24.5q16 -15.5 28 -44q20 -46 36 -143.5q16 -97.5 27.5 -244.5q26 -17.5 31.5 -22q5.5 -5 4.5 -8.5q0 -2.5 -3 -6q-2.5 -3.5 -10.5 -10.5l-32 -24q-13 -10 -33.5 -25q-12 14 -19.5 23.5q-7.5 9.5 -19 25.5l-290 0q4 -28.5 7 -53.5q2.5 -24.5 3.5 -51.5q1.5 -27 2 -63l506.5 0q5.5 0 9 -2q3.5 -2 3.5 -5q0 -2.5 -1.5 -5q-1.5 -2.5 -4.5 -5.5l-35.5 -31q-14.5 -12 -29 -24.5l-36 -29.5l-22 28q-9 11 -17.5 22.5l-22 28.5l-278.5 0" />
</g>
<g id="PathID_1024" transform="matrix(0.010049, 0, 0, 0.010049, 20.1, 10.7)">
<path style="fill:#000000;fill-opacity:1" d="M463 -755.5l150.5 0q1.5 0 3 -2.5q1 -2 1 -4.5q0 -1 -1 -4l-3 -6.5l-29.5 -27l-24.5 -21.5l-31 -27l-20 24.5l-16 20l-19.5 25l-360 0l-31.5 -1.5q-16.5 -2 -35 -5.5l11 36.5q15.5 -3.5 26.5 -5l28 -1l67.5 0l0 76l0 76l0 50.5l-1 37l-1 37l-91 0l-28 -1.5q-16 -2 -37.5 -5.5l9 36.5q19.5 -3.5 32 -5l25.5 -1l89 0q-3 78.5 -7 134q-4 55 -10.5 95.5q-6.5 40.5 -16.5 75.5q-10 35 -25.5 73q-11 26.5 -21 47q-9.5 21 -21.5 41q-12 20.5 -29 46l14 9q44 -47.5 74 -89q30 -41 49.5 -82q19.5 -40.5 31.5 -87q12.5 -46 20.5 -108.5q7.5 -62 12 -154.5l144.5 0l0 256q-0.5 73.5 -0.5 115.5q-0.5 42 -0.5 64q0 22 -0.5 35.5q0 13.5 -0.5 29.5q0.5 8 5 10.5q4 3 15.5 3l21 -1l21 -3q6.5 -1.5 9.5 -4q3 -2.5 4.5 -8.5q-0.5 -16.5 -0.5 -30q-0.5 -13.5 -0.5 -35.5q-0.5 -21.5 -1 -63q0 -41 -1 -113l0 -256l179 0q2 0 4 -3q2 -2.5 2.5 -5q-0.5 -2 -2 -4.5l-4.5 -5l-27 -27l-23.5 -23l-29 -27.5q-16 19 -24 29l-15.5 18.5l-19 24l-41 0l0 -276.5M391.5 -755.5l0 276.5l-143.5 0q1 -18.5 2 -87.5q1.5 -69 2 -189l139.5 0M514 54.5q50.5 -17 90.5 -35.5q40.5 -18 77.5 -40q36.5 -22.5 76 -52.5q35.5 -26.5 65.5 -54q30 -28 61 -63.5q31 -35.5 70 -86.5l11 0l8.5 0q14 0 21.5 -3q8 -2.5 8 -8q0.5 -5.5 -7.5 -12q-7.5 -7 -30 -18.5q-22 -11.5 -64.5 -31q-15.5 38 -42.5 79.5q-27.5 41 -69.5 88.5q-39 44.5 -77 79.5q-38 34.5 -86.5 68.5q-49 34 -120 76l8 12.5M604.5 -535.5q46.5 -23 82 -45.5q35.5 -22.5 71.5 -51.5q47 -37.5 82 -72q35 -34 67.5 -74.5l9.5 0l7 0l19.5 0q10 0 15 -2.5q5 -2.5 5 -7.5q1.5 -5 -22.5 -18.5q-24 -13 -88 -43q-10 28.5 -29.5 59.5q-19 31 -53.5 72.5q-44 53 -86.5 94.5q-43 41.5 -89.5 76.5q5 6 10.5 12M558 -255q40.5 -16 72.5 -32q32.5 -15.5 62 -34q30 -18 62.5 -41.5q27.5 -19 49 -37.5q22 -18 52 -48q30 -30 82 -85.5q32 0.5 42 -2q10.5 -2.5 9.5 -9q0 -6 -12 -15q-12.5 -8.5 -38.5 -20q-9 -4.5 -23 -11l-32 -15.5q-14.5 33.5 -40.5 71q-25.5 37 -66 80.5q-51.5 57 -106 101.5q-54.5 45 -122.5 85l9 13" />
</g>
<g id="PathID_1025" transform="matrix(0.010049, 0, 0, 0.010049, 30.35, 10.7)">
<path style="fill:#000000;fill-opacity:1" d="M148.5 -665.5q23 30 45 47.5q22 17 47.5 24.5q25.5 7 60 7l29.5 -1q14.5 -1.5 39 -5q-36 54 -65.5 93q-29.5 38.5 -59.5 68.5q-29.5 30 -65.5 58.5q-14 11 -20.5 17.5q-6 6 -8 12q-1.5 6 -1 16.5q0 24.5 7.5 39.5q7.5 14.5 20 14.5q7.5 0.5 15.5 -6.5q8.5 -6.5 22.5 -26q56 -71 113.5 -109.5q57 -38.5 108.5 -39q17.5 0 31 8.5q14 8 21.5 22q7.5 15.5 10.5 32.5q3 17.5 3.5 48.5q-49.5 31 -78.5 51.5q-29.5 21 -48.5 39.5q-37.5 36 -55.5 70q-18 34.5 -18 70.5q0 37 18 63.5q18.5 26.5 57.5 45q31 14.5 83.5 22q52 7.5 124.5 7.5q32.5 0 66.5 -2l65 -5q30.5 -3 52 -7.5q15.5 -3 23.5 -10q8.5 -7.5 8.5 -17.5q-0.5 -11.5 -11.5 -23.5q-11 -11.5 -27.5 -19.5q-16.5 -8 -33 -8l-9 0.5l-10.5 2.5q-47 13.5 -99.5 21q-52.5 7.5 -106.5 7.5q-86 0 -128.5 -20q-42.5 -20.5 -42.5 -62q0 -23 12.5 -46.5q12.5 -24 38 -48.5q19 -18.5 46 -37q27 -18.5 73.5 -44q-0.5 34 -2.5 60.5q-1.5 27 -4.5 49q-1 5.5 -1 9.5l0 8q0 13.5 9 22q9 8.5 23.5 8.5q9.5 0 17 -5.5q8 -5 12 -13.5q3.5 -8 6 -31q2 -22.5 2 -57l0 -34q0 -12.5 -0.5 -23q0 -10.5 -0.5 -26q41 -20.5 93 -42q52 -21.5 101 -38.5q49 -17.5 80.5 -25q21.5 -4.5 29.5 -11q8 -7 7.5 -20.5q-1 -21.5 -20 -45q-19 -24 -45.5 -41q-26.5 -16.5 -50 -17.5l-10.5 1q-5 1.5 -13 5q22.5 9.5 34.5 22.5q12.5 12.5 12.5 25.5q0.5 9 -10 19.5q-11 10 -38.5 25.5q-27.5 16 -77.5 41q-41 20.5 -59.5 30q-18 9.5 -26 13q-7.5 3.5 -15 7.5q-7.5 -47 -38.5 -74.5q-30.5 -27.5 -76.5 -28q-28 0 -59 9.5q-30.5 9.5 -73 31.5l17 -24l16 -24l22.5 -34q17 -26 29 -43.5q12 -18 25 -36.5q41 -8 74.5 -15.5q34 -8 69 -18q35 -10 80 -24.5q23 -8 33.5 -16q10.5 -8 10.5 -17q-0.5 -15 -19.5 -24q-18.5 -9.5 -49 -10q-5.5 0 -10 2q-5 1.5 -9.5 5.5q-16.5 14 -34.5 24q-17.5 10.5 -44 20q-26.5 9.5 -69 21.5l8.5 -12.5l17 -27.5l14.5 -20.5q8 -12 15 -21.5q9 -11 13 -18q3.5 -6.5 3.5 -11.5q0 -9.5 -9 -18q-8.5 -8.5 -28 -16q-20 -8.5 -41 -13q-20.5 -4.5 -38.5 -4.5q-14 0 -24 2.5q-10 2 -22.5 9q39.5 9.5 56.5 23q17 14 16.5 34q0 17.5 -9.5 44.5q-9.5 27 -26.5 60q-34.5 7 -60 10.5q-25.5 3 -49.5 3q-27 0 -46.5 -4q-20 -4 -38.5 -14.5q-19 -10.5 -43 -29.5l-11 9" />
</g>
<g id="PathID_1026" transform="matrix(0.010049, 0, 0, 0.010049, 40.6, 10.7)">
<path style="fill:#000000;fill-opacity:1" d="M108.5 109.5q27.5 -13 47 -27.5q20 -14.5 35 -33q21 -26.5 32.5 -57.5q11.5 -31 11.5 -62q-0.5 -43.5 -21.5 -69q-21 -25 -57.5 -25.5q-30.5 0.5 -49 19.5q-19 18.5 -19.5 48q-0.5 25.5 13.5 40q14.5 14.5 47 21.5q11.5 3 15.5 7.5q4 4 4 13q0 27.5 -19 51.5q-19.5 24.5 -60 48l20.5 25.5" />
</g>
<g id="PathID_1027" transform="matrix(0.010049, 0, 0, 0.010049, 50.6, 10.7)">
<path style="fill:#000000;fill-opacity:1" d="M978 -777.5q12.5 0 12.5 -6q0 -1.5 -1 -3.5l-3 -4q-21.5 -19 -36.5 -32q-15 -13 -30.5 -25.5l-39 -30.5q-14.5 16 -24 27l-19.5 22.5l-23 28.5l-632 0q-33 0 -55 -1q-22 -0.5 -41.5 -3q-19 -2 -43.5 -6l7 38.5q29 -3 59.5 -4q30.5 -1 73.5 -1l271.5 0q-6.5 45 -12 74q-5.5 29 -12.5 54.5q-7 25.5 -18.5 61l-213 0q-18.5 -11.5 -31.5 -19q-13 -7.5 -26.5 -14.5l-33 -16.5l2 26.5l1 31.5q0.5 19 0.5 52.5q0.5 33.5 0.5 90l0 144l0 32l-0.5 52.5l-1 98l-2.5 169l0 3l0 1q-0.5 7 4 9.5q4 2 18.5 2l24.5 -1.5q13 -1 18.5 -2.5q5 -1.5 7 -4q2.5 -2 3 -7.5l0 -49l651.5 0l0 49q0 6 3.5 9q3 2.5 11 2.5q19 0 34.5 -2q16 -2 22 -4.5q3 -2 4.5 -5q1.5 -3 1.5 -8l-1 -97.5q-0.5 -40.5 -0.5 -79.5q-0.5 -39 -0.5 -90.5l0 -129.5l0 -198q17.5 -11.5 25 -18.5q8 -7 7.5 -12q0.5 -2.5 -2 -5q-2.5 -3 -8 -7.5l-23 -18l-20 -14.5q-10 -7 -26 -17.5q-13 15 -21 25l-21 25l-380.5 0q13.5 -17.5 23 -30.5q9 -13 19.5 -30q10 -17 26 -47q16.5 -30 44 -82l426 0M404.5 -408l0 -156.5l189.5 0l0 156.5l-189.5 0M404.5 -384.5l189.5 0l0 166l-189.5 0l0 -166M404.5 -195l189.5 0l0 180.5l-189.5 0l0 -180.5M339 -564.5l0 550l-157 0l0 -550l157 0M661.5 -564.5l172 0l0 550l-172 0l0 -550" />
</g>
<g id="PathID_1028" transform="matrix(0.010049, 0, 0, 0.010049, 60.85, 10.7)">
<path style="fill:#000000;fill-opacity:1" d="M259 -749.5q20 -5.5 34.5 -10q15 -4.5 30 -9.5q15.5 -5.5 37 -13.5l25 4q9 1.5 12 1.5q5.5 -0.5 8.5 -3q3.5 -2 3.5 -5.5q1 -5.5 -18 -19q-18.5 -14 -70 -45.5q-22 18 -42.5 30.5q-21 13 -52.5 29q-27.5 14 -52.5 25q-25.5 10.5 -55 20q-30 10 -71 21.5q3 7 6.5 14.5l47 -5q19 -2.5 39 -6.5q20.5 -4 52 -11l0 164.5l-88 0l-31.5 -1.5q-12 -1.5 -31 -6.5l8 37.5q13 -3 25.5 -4.5l29 -1.5l79 0q-6 29.5 -11.5 51.5q-5 22.5 -12.5 47q-7.5 24.5 -20 61.5q-19.5 57 -34 95q-14.5 37.5 -30 69.5q-15 32 -36.5 72l10 8.5q32.5 -41.5 58 -83q25.5 -41 48.5 -89.5q22.5 -48.5 46 -111.5l-4 175.5l-2.5 139.5l-1 79q-1 28.5 -1.5 48l-1 46.5q0 7.5 3.5 10.5q3 3 11 3l27 -1.5q14.5 -1 19 -2.5q4.5 -1.5 6 -4.5q1.5 -2.5 2 -7q-0.5 -43.5 -0.5 -72q-0.5 -28.5 -0.5 -56.5l0 -70l0 -112.5l0 -197q18.5 18.5 35 47.5q16.5 29 30.5 65q9.5 25.5 13.5 31.5q3.5 6.5 9 5.5q7 -0.5 14 -10q6.5 -9.5 11 -24q4.5 -14.5 5 -29.5q0 -13.5 -10.5 -28.5q-10.5 -15 -32.5 -32q-18.5 -14 -38.5 -26.5q-20 -12.5 -36.5 -20.5l0 -78l133 0q5.5 0 9 -1.5q3.5 -1.5 3.5 -4.5q0 -1.5 -1.5 -4l-3.5 -4.5q-14.5 -12.5 -24.5 -21.5q-10 -8.5 -20 -16.5l-24.5 -21q-14.5 15 -23 24.5q-9 9.5 -23 25.5l-25.5 0l0 -182M678 -746.5l0 -59.5q21.5 -5 31 -10q10 -5.5 10 -11.5q1 -5 -4 -7.5q-5.5 -3 -29 -6.5l-77.5 -10.5l1.5 38q1 15.5 1 31q0.5 15 0.5 36.5l-158 0l-35.5 -1.5q-14 -1.5 -33 -6.5l7 37.5q15.5 -3 28 -4.5l25.5 -1.5l166 0l0 82l-126 0l-29.5 -1.5q-14 -2 -32 -5.5l7 36.5q16 -3.5 25.5 -5l25 -1l130 0l0 90l-186.5 0q-12.5 0 -28.5 -2q-16 -2 -31 -5q3.5 18 7.5 36.5q14 -3 26 -4.5l26 -1.5l570.5 0q3 0 5.5 -1.5q2.5 -1.5 2.5 -3.5q0 -1.5 -1 -3.5q-0.5 -1.5 -2 -4q-16.5 -15 -28 -25l-23 -19.5q-11.5 -10 -28 -24q-17.5 16.5 -28 28l-28.5 29.5l-187 0l0 -90l247.5 0q5.5 0 9 -1.5q3.5 -1.5 3.5 -3.5q0 -1.5 -1 -4q-1 -2 -3 -4.5q-16.5 -14 -28 -23q-11 -9.5 -22.5 -18l-27.5 -21.5l-19.5 19l-14 14q-7 6.5 -19.5 19.5l-125 0l0 -82l281.5 0q4 0 7 -2q3 -2 3 -5l-0.5 -2.5q-1 -2 -3.5 -5q-17 -14 -28.5 -24l-24 -18.5l-29.5 -23q-17 17 -28.5 27.5q-11.5 11 -29.5 29l-147.5 0M485.5 -110.5l327.5 0l0 19.5q0.5 5 3.5 7q3 2 10 2q32.5 0.5 43.5 -3.5q10.5 -4 9.5 -17q-1 -48.5 -1.5 -84.5q-1 -36 -1 -65.5q-0.5 -29 -0.5 -57l0 -31.5l0 -23l0 -31.5q21 -13 26.5 -18q6 -5 5 -9.5q0.5 -3 -2.5 -6.5q-2.5 -3.5 -8.5 -9l-28.5 -19l-29 -20q-11 11.5 -17.5 19q-7 7.5 -17 20l-306 0l-28.5 -15l-22.5 -11q-11 -5.5 -27 -13q1.5 25 2 71.5q1 46.5 1 126.5l0 86q0 32.5 -0.5 55.5q-0.5 23.5 -1.5 50q0.5 5.5 4 8q3.5 2.5 10.5 2l12.5 -0.5l19 -1.5l10.5 -1q3.5 -1.5 5 -4q1.5 -2.5 2 -7l0 -18.5M813 -343l-327.5 0l0 -72l327.5 0l0 72M813 -319.5l0 78l-327.5 0l0 -78l327.5 0M813 -218l0 84l-327.5 0l0 -84l327.5 0M703.5 -61.5q59 24 107 51.5q47.5 28 84.5 60q16.5 14.5 24.5 20.5q7.5 6.5 11.5 8q3.5 1.5 8 1.5q6 -0.5 10 -7.5q4 -7.5 4.5 -20q-0.5 -7.5 -2 -18.5q-1.5 -10.5 -3.5 -19.5q-4 -19 -18.5 -31q-14.5 -12 -41.5 -20.5q-29 -9 -75.5 -18.5q-46.5 -9.5 -104 -18l-5 12M293 78q41 -8.5 72.5 -17q31.5 -8.5 60 -19.5q28.5 -10.5 60 -26q32 -15.5 74 -38l13.5 0l10 0q16.5 0 24 -2.5q7.5 -2.5 7.5 -7.5q1 -3.5 -4.5 -7q-5 -4 -25 -13q-20 -9.5 -63.5 -28.5q-18.5 20 -36 34.5q-17.5 14 -47 33q-25 17 -47 30q-22.5 12.5 -47 24.5q-25 11.5 -57 24.5q3 6 5.5 12.5" />
</g>
<g id="PathID_1029" transform="matrix(0.010049, 0, 0, 0.010049, 71.1, 10.7)">
<path style="fill:#000000;fill-opacity:1" d="M755 -709q31 26 61 61q29.5 35.5 45.5 65q10.5 20 17 27q6.5 7.5 13.5 7q10.5 -0.5 17.5 -14q7 -14 7 -35q0.5 -19.5 -10.5 -35.5q-11 -15.5 -38.5 -33.5q-25.5 -17 -53 -31q-27 -14.5 -51.5 -23l-8 12M840 -777.5q42 33 68.5 59.5q26 27 46 58.5q10.5 15 17 21.5q7 6 13 6q8.5 -0.5 14.5 -14q5.5 -14 6 -35q0 -17 -13.5 -32.5q-13.5 -16 -41 -31q-25.5 -14.5 -51 -25.5q-25.5 -11 -51.5 -18.5l-8 11M289 -431l-25.5 55.5q-9.5 21 -17 36.5l-16.5 32q-8.5 17.5 -23 45q-21.5 41.5 -41.5 73q-19.5 31 -34.5 47.5q-14.5 17 -19 28q-5 11.5 -4.5 29.5q0.5 33 8 52q8 18.5 22 18.5q7 0 13 -4.5q6 -5 11.5 -15q12.5 -22 36.5 -74q23.5 -51.5 54.5 -124.5q26 -62 41.5 -97.5l19 -45.5q16.5 -38.5 26.5 -60.5q9.5 -22 14.5 -35l9.5 -21.5q3.5 -9.5 9 -22.5q28.5 -8 47 -12.5q18.5 -4.5 32 -6.5l27 -1.5q17 0 28 2.5q11 2.5 18.5 7.5q27.5 18.5 27.5 83.5q0 39.5 -7.5 87q-8 47.5 -21.5 96q-13.5 48.5 -31.5 91q-19.5 47.5 -35 67q-15 19.5 -31.5 19q-16.5 0 -58 -18.5q-41.5 -18 -100.5 -51l-9.5 12q53.5 43.5 77 64.5q24 20.5 30 31.5q6.5 10.5 7 24q1.5 12 8 18q6.5 5.5 19.5 5.5q25 -0.5 51.5 -13q27 -12.5 46.5 -33q22.5 -25 42.5 -66.5q20.5 -41.5 36 -92q15.5 -51 24.5 -104.5q9 -53.5 9 -103.5q0 -80.5 -32 -120.5q-32.5 -39.5 -98.5 -39.5q-18 0 -37 2q-19 2.5 -51.5 9.5q22 -53.5 38.5 -88.5q16.5 -35 26.5 -50q9 -13.5 12 -19q3 -6 2.5 -10.5q0 -16.5 -18.5 -30.5q-18.5 -14 -53 -24q-21 -6 -39.5 -9.5q-18.5 -3.5 -30 -4q-8 0 -14.5 2.5q-6.5 2.5 -15.5 9q43.5 13.5 61.5 29.5q18 15.5 17.5 39q0 18 -5.5 46q-5.5 28.5 -15 60.5q-9.5 32 -21.5 61.5q-38.5 10.5 -74 18.5q-35 8 -62 13q-26.5 4.5 -38 4.5q-28 0.5 -45 -12.5q-17.5 -12.5 -33 -44q-3 8 -4.5 13.5q-1.5 5.5 -1.5 9.5q0.5 14.5 10 37q9.5 22 24 40.5q10.5 13.5 23 22q13 8.5 22 9q5.5 0 12 -2q6.5 -2.5 17.5 -9.5q20.5 -11.5 50.5 -24q30 -12 82.5 -29l-30.5 66.5M711 -549q50 25 83 57q33 32.5 57 79.5q14 25 21.5 48.5q7.5 24 10.5 49.5q-15.5 6.5 -31.5 12.5l-44 15q-28.5 9 -81.5 25q2.5 6.5 4.5 13l63.5 -6.5l34.5 -2q13 -0.5 30 -0.5q13.5 -0.5 21.5 2q8 2 20.5 9q8 4.5 12.5 6q5 1.5 11 1.5q19 -0.5 30 -15q10.5 -14.5 11 -41.5q0 -33.5 -15 -70q-14.5 -36.5 -43.5 -74q-67.5 -88 -187.5 -123.5l-8 14.5" />
</g>
<g id="PathID_1030" transform="matrix(0.010049, 0, 0, 0.010049, 81.35, 10.7)">
<path style="fill:#000000;fill-opacity:1" d="M529.5 -533.5l0 -50q24.5 -6 33 -10q8.5 -4 8 -10.5q0.5 -4 -4 -7q-4 -2.5 -18 -5.5l-42.5 -7q21 -19.5 40 -40.5q19.5 -21.5 45 -53l53 0q21.5 27.5 35.5 58q14 30 25 72q2.5 11.5 6.5 17.5q4.5 5.5 10 5.5q7.5 -0.5 16 -10.5q9 -9.5 15 -22.5q6.5 -13.5 7 -24.5q0 -10.5 -7 -21q-7 -10.5 -25 -26.5q-19.5 -17.5 -32 -27q-13 -9.5 -32.5 -21l302 0q3.5 0 6.5 -2q2.5 -2 3 -5q0 -1.5 -1.5 -3.5q-1.5 -2 -5 -5q-48 -36.5 -96 -73.5l-29.5 31.5q-11 13 -30 34l-201.5 0q14 -18 23 -32q9 -13.5 22 -35.5q25 -3 36.5 -8q11.5 -4.5 11.5 -11.5q1 -4.5 -6.5 -8q-7 -3.5 -31.5 -8.5l-74.5 -13q-15 59 -40.5 115.5q-26 56.5 -64 115.5l-14 -1l-12.5 -2l3 38l1 19.5l0 15.5l0 22.5l-203 0q-23.5 0 -42 -2.5q-19 -2.5 -42.5 -9l8 43q19 -3.5 31 -5q11.5 -2 21.5 -2.5q10.5 -0.5 24 -0.5l203 0l0 124l-304 0q-22 0 -37.5 -0.5q-15 -1 -29 -3q-14.5 -2 -34 -6.5l7 40.5l32 -4.5l26 -2q13.5 -0.5 35.5 -0.5l495.5 0l0 118.5l-479 0q-23.5 0 -38 -1q-15 -0.5 -27 -3q-12 -2 -26.5 -6q3.5 20.5 7.5 41.5q11.5 -3.5 22 -5q10 -2 24 -2.5q14 -0.5 38 -0.5l479 0l0 197.5q0 10 -3 13.5q-3 3 -10.5 3l-2 0l-3 0l-58 -2.5l-39 -2l-33.5 -2l-42.5 -2.5l0 16q39 5 61 9q22.5 3.5 34.5 8q12 4.5 20 11q10.5 7 16 18.5q5 11.5 8 32.5q33.5 -5 54 -12q20.5 -6.5 36 -17.5q15 -9.5 21.5 -23q6.5 -13.5 9 -39.5q-0.5 -48.5 -0.5 -70q-0.5 -21.5 -0.5 -29.5l0 -14.5l0 -94l231.5 0q3 0 6 -2q3 -2 3 -4q0 -1.5 -1 -4q-0.5 -2 -3 -4.5q-18.5 -16 -31 -27.5l-26 -21.5q-12.5 -11 -31 -26.5l-20 23.5l-16.5 19l-20 24l-92 0l0 -118.5l243.5 0q5 0 8 -2q3.5 -2 3.5 -4q0 -1.5 -1.5 -4l-3.5 -5.5q-19 -17 -32 -28l-26.5 -22.5l-33 -26l-22.5 23.5q-9 10 -17.5 20q-9 10 -21 25l-291 0l0 -124l324.5 0q3.5 0 5.5 -2q2.5 -2 3 -4q0 -3 -3.5 -6.5q-16 -14.5 -27 -25l-22 -19.5q-11 -10 -27.5 -24q-15 17.5 -25.5 29q-10.5 11 -29 28.5l-198.5 0M231.5 -740.5q12.5 -19.5 20.5 -34.5q7.5 -15 18.5 -39q27.5 -4.5 37 -8q9.5 -3.5 9 -9.5q0 -2 -1.5 -4l-3.5 -4.5q-3 -2.5 -13.5 -5.5q-10 -2.5 -40 -7.5q-9 -1.5 -22 -4.5l-31 -6q-4 20 -9 37.5q-4.5 17.5 -12 36.5q-7.5 19 -19 45q-26 57 -52 100.5q-26.5 43 -61.5 85l15 10q43.5 -39.5 79.5 -80q36 -41 69 -88l55.5 0q14 25 23 45.5q9 20 15 39.5q5.5 19.5 10 43q4.5 20.5 7 26.5q2.5 6 8.5 5.5q15.5 -1.5 29 -19.5q13 -18.5 14 -39q0 -7.5 -4 -16.5q-4 -8.5 -12.5 -18.5q-18.5 -22.5 -35 -37q-17 -15 -40.5 -29.5l223 0q4 0 7 -2.5q3 -2 3 -4.5l-0.5 -2.5l-2.5 -3q-17 -15.5 -28.5 -26.5l-23.5 -22l-28.5 -27q-17.5 19.5 -28 32.5q-11 12.5 -27.5 32l-147.5 0M270.5 -192q35.5 30 60.5 60.5q24.5 30 47 70.5q15.5 30 22 38q6.5 8.5 13 7.5q11.5 -1.5 20.5 -20.5q8.5 -19.5 9 -45.5q0.5 -18.5 -14.5 -35.5q-14.5 -17 -50.5 -36.5q-36 -20 -99 -46.5l-8 8" />
</g>
<g id="PathID_1031" transform="matrix(0.010049, 0, 0, 0.010049, 91.6, 10.7)">
<path style="fill:#000000;fill-opacity:1" d="M846.5 -195.5q-26 22 -47 38q-20.5 16 -40 28.5q-20 12.5 -43 24.5q-59 31 -119.5 48q-61 17 -114 17.5q-27 0 -50.5 -7.5q-23.5 -7 -40.5 -20q-21.5 -17.5 -31.5 -47q-9.5 -29.5 -9.5 -76q0 -37 3.5 -91.5q3.5 -54 9.5 -115.5q6 -61.5 13 -119.5q7 -58 14 -102q7.5 -43.5 13 -63q6.5 -17 8.5 -24.5q1.5 -7.5 1.5 -12.5q0 -16 -15 -31.5q-15 -15 -44.5 -29q-24.5 -10.5 -49 -17q-25 -6.5 -43.5 -6.5q-8 0 -14 2q-6.5 2.5 -14.5 8.5q36 14.5 54 29.5q18 14.5 23.5 39q6 24.5 5.5 67.5q0 17.5 -0.5 37.5q-0.5 20 -2 52l-4.5 86.5q-3 47 -4.5 93q-2 46 -3 85.5q-1 40 -1 68.5q0 64.5 6.5 105.5q7 41.5 22 67.5q24 41.5 67.5 64q44 22.5 102.5 23q64 0 128 -25.5q63.5 -25 122.5 -72.5q59.5 -47 109 -114l-12.5 -11" />
</g>
<g id="PathID_1032" transform="matrix(0.010049, 0, 0, 0.010049, 101.85, 10.7)">
<path style="fill:#000000;fill-opacity:1" d="M484 -825.5q32 20.5 44.5 34q12.5 14 12 26.5q0.5 11.5 -12.5 34q-13 22.5 -47 66q-33.5 43.5 -95 118q-31 38 -48.5 62.5q-17 24.5 -24 42q-7 17 -6.5 33q0 20.5 9 40.5q9.5 20.5 30 45.5q39.5 46 63 74l37.5 45q14 17.5 24.5 32q11 14.5 24.5 34.5q27 38 49.5 76q22.5 37.5 36.5 68q12.5 27 19 35q6.5 8 16 7q16 0 25.5 -16q9 -16 9 -45.5q0.5 -20 -3 -36q-4 -15.5 -12 -31.5q-17.5 -35 -62 -83.5q-44 -49 -126.5 -125.5l-41 -37q-13 -12 -18.5 -17.5l-12.5 -13q-15 -15.5 -23 -29q-7.5 -13.5 -7.5 -24q-0.5 -14.5 11 -34q11.5 -19.5 38 -49q17.5 -19.5 51 -52q34 -33 71.5 -67q37.5 -34 66 -58q27 -22 39.5 -33.5q13 -11.5 16.5 -17.5q4 -6.5 3.5 -12.5q0 -10.5 -5 -20q-5.5 -9 -17.5 -21q-15 -14 -36 -26.5q-21 -12.5 -42 -20q-21 -7.5 -36 -8l-11.5 1q-4.5 1 -10 3" />
</g>
</svg>
