<?xml version="1.0" encoding="utf-8"?>
<svg version="1.1" id="Layer_1"
xmlns="http://www.w3.org/2000/svg"
xmlns:xlink="http://www.w3.org/1999/xlink"
xmlns:author="http://www.sothink.com"
width="54px" height="13px"
xml:space="preserve">
<g id="PathID_1047" transform="matrix(0.010049, 0, 0, 0.010049, -1.25, 10.55)">
<path style="fill:#000000;fill-opacity:1" d="M200.5 -760l626 0l0 717q0 6 -3 8.5q-3 2.5 -9.5 2.5l-2 0l-3 0l-37 -1l-31.5 -1.5l-44.5 -1.5l-74 -3l0 15.5l65.5 8.5q21 3 30.5 5.5q9 3 16.5 7.5q12.5 6 20 18q7.5 12 15.5 38q36.5 -5 60 -12q23.5 -6.5 41.5 -16.5q17 -9.5 23.5 -19.5q6.5 -10.5 7 -29.5l0 -26.5l0 -20l0 -16l0 -21.5l-1 -102.5q-0.5 -37 -0.5 -56q-0.5 -19 -0.5 -30l0 -23.5l0 -417l11.5 -8.5q5 -3.5 8 -6q1.5 -1.5 3 -2q1.5 -1 2 -2q6 -5 9 -8q2.5 -3.5 2.5 -6q0 -3 -3 -6.5q-3 -3.5 -8.5 -8l-24.5 -18.5q-10 -7.5 -20.5 -14.5q-10.5 -7 -26.5 -17l-18.5 24.5q-7.5 9.5 -18 25.5l-602.5 0l-32 -16l-25.5 -13l-31.5 -16q1 25.5 1.5 81.5q1 56 1 136.5q0.5 80 0.5 178.5q0 54.5 -0.5 119.5q0 64.5 -1 131q-0.5 66.5 -1.5 125q-1 58.5 -2 100.5q-0.5 8 5 12q6 3.5 19.5 3q30.5 0.5 43 -3.5q12 -4.5 12 -15.5l-1 -95q-0.5 -35.5 -0.5 -57.5q-0.5 -22.5 -0.5 -43.5l0 -52l0 -552M262 -584q37.5 -6 55 -8q18 -2 30.5 -2l422.5 0q5 0 8 -2.5q3.5 -3 3.5 -6.5q0 -1.5 -1.5 -4l-3.5 -5.5l-29.5 -26l-24.5 -20.5l-30 -25l-25.5 33q-13 16.5 -27 33.5l-288.5 0q-20 0 -42.5 -3q-22.5 -2.5 -60 -10.5l13 47M398.5 -208l232.5 0l0 61.5q0 9 4 12.5q4.5 4 14.5 4q29 0 40 -4.5q10.5 -4 10 -16q-1.5 -26.5 -2.5 -54l-1 -61q-0.5 -33.5 -0.5 -77.5l0 -36.5l1 -50.5q16.5 -13.5 23.5 -20.5q6.5 -6.5 6 -10.5q0 -1.5 -2 -4q-2.5 -3 -7 -7q-18 -14.5 -30 -23.5q-12 -9 -32.5 -22.5q-11.5 14.5 -19 23.5q-7 9 -18 22.5l-207.5 0q-17 -9 -29 -15q-12 -6.5 -24 -12q-12 -5.5 -30 -13q1.5 20.5 2.5 45.5l1 59.5q0.5 34.5 0.5 85.5q0 32 -0.5 59l-1 56.5l-2.5 68.5l0 3q0 6.5 5.5 9.5q5.5 3 17 3q10.5 0 23.5 -2q12.5 -1.5 17.5 -3q4.5 -2.5 6 -5.5q2 -3 2 -9l0 -66.5M398.5 -448.5l232.5 0l0 217l-232.5 0l0 -217" />
</g>
<g id="PathID_1048" transform="matrix(0.010049, 0, 0, 0.010049, 9, 10.55)">
<path style="fill:#000000;fill-opacity:1" d="M663.5 -662.5l303 0q4 0 6 -2q2.5 -1.5 2.5 -4q0 -1 -1 -2.5l-1.5 -4l-30 -27.5l-25 -21.5l-32 -25.5q-15 18 -24 30q-9.5 12.5 -24 33.5l-140 0q24.5 -18 42.5 -33q18 -14.5 36 -31.5q17.5 -17 41 -41q29.5 -2 38.5 -5q9.5 -2.5 8.5 -9.5q1.5 -6 -20 -18q-21 -12 -79 -38q-12.5 35.5 -26 64q-13 28.5 -29.5 55.5q-16 26.5 -38 56.5l-189 0q-21.5 0 -42 -2.5q-21 -2.5 -45 -7.5l8 42q19.5 -5 37.5 -6.5q18 -2 41.5 -2l117.5 0l0 113.5l-127 0q-22.5 0 -47 -3q-25 -2.5 -42 -7l8 40.5q14 -3.5 33.5 -5.5l47.5 -1.5l127 0l0 114l-139 0q-32 0 -55.5 -2.5q-23.5 -2 -43 -6.5l7 41.5q16 -5 35.5 -7l56 -2l139 0l0 194.5q-72 32.5 -148 57q-76 24.5 -149 38.5q16 41 25 62.5q9 22 14.5 30q5.5 8 10 7.5q5.5 0.5 9 -8q3 -9 5 -33q47 -23.5 83 -42.5q36 -19.5 71 -40.5q35.5 -20.5 79.5 -49l0 148.5q0 9 -2.5 12.5q-2.5 3 -10 3l-0.5 0l-1.5 0l-61 -0.5l-39 -1l-30.5 -1l-37 -1.5l-1 16q37 5.5 60.5 11q24 6 39.5 13q15.5 7 24.5 17.5q8.5 11 15.5 32.5q39.5 -5 58.5 -11q19 -5.5 28.5 -13.5q14.5 -11 20.5 -26q5.5 -15 6 -39.5l-1.5 -33.5q-1 -12.5 -1.5 -24.5l-1 -31.5q0 -19 -0.5 -45l-2.5 -60l0 -131.5q13.5 40 27 71.5q13 31.5 29 59.5q15.5 28.5 36 58.5q28.5 41.5 52.5 70.5q24.5 29 51.5 52.5q27.5 23.5 64 48q13 -24.5 22 -37q9.5 -12.5 21.5 -18.5q12 -5.5 32.5 -10l0 -12q-75.5 -30.5 -132 -68.5q-57 -38 -103.5 -91.5q31 -15 51 -25.5q20.5 -11 39.5 -23q18.5 -12 45.5 -30.5l16 1.5q7 0 10.5 1l5 0l2.5 0l1 0l1 0q5.5 -0.5 9 -3.5q4 -3 4 -7q0.5 -5 -22 -21q-22.5 -16.5 -75 -47.5q-24 47.5 -47.5 80q-23 33 -52 61q-20 -24.5 -34.5 -46.5q-14 -22 -26 -48.5q-12 -26.5 -25.5 -64.5l326.5 0q5.5 0 8 -1q2.5 -1 2.5 -4q0 -1.5 -1 -4q-1 -2 -4 -5.5q-18.5 -16 -31.5 -26.5q-13 -11 -26 -21.5l-33 -25.5q-18 18 -29 30.5q-11 13 -28 34l-187.5 0l0 -114l252 0q4.5 0 7 -1.5q2 -1.5 2 -3.5q0 -2.5 -1 -4.5q-1 -2 -4 -5l-28 -25q-11 -10 -23 -19.5q-12 -10 -30 -23.5l-25 28.5q-9.5 11 -24 30.5l-126 0l0 -113.5M255 -647l0 -168q21 -7.5 29.5 -12.5q8.5 -5 8.5 -11q0.5 -5 -6 -8.5q-6.5 -3.5 -30 -7.5l-72.5 -11.5q3 20.5 4.5 35q1.5 15 2 30.5q0.5 15.5 0.5 37.5l0 116l-69.5 0q-22.5 0 -42.5 -2q-20 -2.5 -38.5 -6.5l7 40q14 -3.5 32.5 -6q18.5 -2 41.5 -2l54 0l-15 70.5q-5.5 26 -9.5 42q-4 16 -8 30.5l-10.5 35q-20 64.5 -48 129.5q-27.5 65 -68.5 143l11 7q22.5 -26.5 38 -48q16 -21.5 29.5 -45q13.5 -23 29 -54q16 -32.5 28.5 -60.5q12 -28 23.5 -60.5q11.5 -32 25.5 -76l-9 151.5q-1.5 15.5 -2 46.5l0 74.5l0 39.5l-1 40.5l0 38q0 16 -0.5 36l-1.5 54q-1.5 34.5 -3 93l0 2.5l0 1.5q-0.5 7 3.5 10q3.5 2.5 11.5 2.5q31.5 0 43 -3q11.5 -3.5 12.5 -13.5q-0.5 -64 -0.5 -105.5q-0.5 -42 -0.5 -74l0 -66l0 -82l0 -264.5q15.5 22.5 28.5 53q13.5 30 22.5 65q3 10.5 7 15.5q4 5 9.5 5q11.5 -1.5 22.5 -19q10.5 -17.5 11.5 -37.5q0 -17 -11.5 -33q-11.5 -16.5 -34.5 -32.5l-29 -20l-14 -10l-11.5 -8l0 -73.5l140.5 0q5 0 8 -1.5q3 -1.5 3 -3.5q0 -2.5 -1.5 -4.5l-2.5 -5q-15.5 -15 -26.5 -25l-21.5 -20l-27 -24.5q-16 17.5 -26 29q-10 12 -25 31.5l-21.5 0M452.5 -847q28 33 43.5 58.5q16 25.5 28 57.5q11.5 29 16.5 36q5 7 12.5 6q15 -1 25.5 -18q11 -17.5 11.5 -41.5q0 -12 -7.5 -22.5q-7.5 -10.5 -26.5 -24.5q-21.5 -16 -44.5 -30.5q-23.5 -15 -50.5 -30q-4.5 4.5 -8.5 9M380 -352q20.5 22 34 41q13.5 18.5 25 42.5q11.5 23.5 26 60.5q4.5 12.5 9.5 17.5q5 5.5 11 5.5q13.5 -1.5 25 -21q11 -20 11.5 -45q0.5 -14.5 -8.5 -27.5q-9.5 -13 -31 -28.5q-23 -16 -46 -30q-22.5 -14 -46.5 -25.5l-10 10.5" />
</g>
<g id="PathID_1049" transform="matrix(0.010049, 0, 0, 0.010049, 19.25, 10.55)">
<path style="fill:#000000;fill-opacity:1" d="M309.5 -382l-54.5 143.5q-8 22 -16 41.5q-8 19.5 -21 45.5q-10.5 -31.5 -15 -62.5q-4.5 -31.5 -4.5 -72.5q0 -33.5 3.5 -65.5q3 -32.5 10 -61.5q5.5 -24.5 14.5 -54q9 -29.5 19.5 -58.5q11 -28.5 21.5 -50.5q10 -20 14.5 -30.5q5 -10.5 6 -16.5q1 -6.5 1 -14.5q0 -16.5 -9.5 -37q-9.5 -20 -28.5 -43.5q-20.5 -27 -36.5 -38.5q-16 -11.5 -32.5 -12q15.5 27 22.5 49.5q6.5 22 6.5 47q0 15.5 -3.5 37.5q-3.5 22 -11 57.5l-16.5 78.5q-6.5 29 -9.5 46.5q-3 17 -5 32q-2.5 15 -5 36.5q-3.5 31 -6 58.5q-2 28 -2 51q0 62.5 9.5 120q9.5 57 26.5 98q8.5 20.5 19.5 31.5q11.5 10.5 24.5 10.5q8.5 0 15 -4.5q6.5 -4.5 9.5 -13q1.5 -4 2.5 -13q1 -9.5 1 -31q-0.5 -15.5 1 -28.5q1.5 -13.5 5.5 -32q3.5 -18 10.5 -48l33 -137q11.5 -48.5 13.5 -55.5q-7.5 -2.5 -14.5 -5M441.5 -639q32 31.5 64.5 44.5q32.5 13.5 74.5 13l16.5 -0.5l25.5 -1.5q-12.5 9.5 -37.5 30q-25 20.5 -59.5 50l10 10q21 -13.5 45.5 -27.5q24.5 -14.5 47.5 -26.5q23 -12 39 -18.5q29 -12 62.5 -20.5q33.5 -8 83 -15.5q16 -3 22.5 -8.5q6.5 -5 6 -15q0 -10 -7.5 -19.5q-8 -9.5 -24 -18.5q-11 -7 -20.5 -10.5q-9 -3.5 -15.5 -4q-5 0 -9 1.5q-4 1.5 -13.5 7q-22.5 12 -58.5 22.5q-36 10.5 -75 17q-39.5 6.5 -72 6.5q-27 0.5 -48 -6q-21.5 -6 -47.5 -21.5l-9 12M435 -329.5q-6.5 24 -9.5 43q-2.5 19 -2.5 37.5q0 42 14 75q13.5 33 41 58q35 31 102 46.5q67 16 163.5 16q43.5 0 77.5 -3q33.5 -3 50.5 -8q10.5 -4 16.5 -10.5q6 -6 6 -15.5q-0.5 -12.5 -11 -26.5q-10 -13.5 -25 -23.5q-15 -9.5 -28.5 -10q-6 0 -15.5 3q-16 6.5 -24 9.5q-8 3 -14 4q-6 1.5 -16 3q-21 3.5 -43 5.5l-44.5 1.5q-118 0.5 -171 -37q-53 -38 -52 -121.5q0 -9.5 1 -19q0.5 -9.5 2 -24l-17.5 -4" />
</g>
<g id="PathID_1050" transform="matrix(0.010049, 0, 0, 0.010049, 29.5, 10.55)">
<path style="fill:#000000;fill-opacity:1" d="M846.5 -195.5q-26 22 -47 38q-20.5 16 -40 28.5q-20 12.5 -43 24.5q-59 31 -119.5 48q-61 17 -114 17.5q-27 0 -50.5 -7.5q-23.5 -7 -40.5 -20q-21.5 -17.5 -31.5 -47q-9.5 -29.5 -9.5 -76q0 -37 3.5 -91.5q3.5 -54 9.5 -115.5q6 -61.5 13 -119.5q7 -58 14 -102q7.5 -43.5 13 -63q6.5 -17 8.5 -24.5q1.5 -7.5 1.5 -12.5q0 -16 -15 -31.5q-15 -15 -44.5 -29q-24.5 -10.5 -49 -17q-25 -6.5 -43.5 -6.5q-8 0 -14 2q-6.5 2.5 -14.5 8.5q36 14.5 54 29.5q18 14.5 23.5 39q6 24.5 5.5 67.5q0 17.5 -0.5 37.5q-0.5 20 -2 52l-4.5 86.5q-3 47 -4.5 93q-2 46 -3 85.5q-1 40 -1 68.5q0 64.5 6.5 105.5q7 41.5 22 67.5q24 41.5 67.5 64q44 22.5 102.5 23q64 0 128 -25.5q63.5 -25 122.5 -72.5q59.5 -47 109 -114l-12.5 -11" />
</g>
<g id="PathID_1051" transform="matrix(0.010049, 0, 0, 0.010049, 39.75, 10.55)">
<path style="fill:#000000;fill-opacity:1" d="M107.5 -668q-6.5 9 -9 15q-2.5 6 -2 12q0 12.5 7 31q7 18.5 19.5 37.5q18 28 39 44q21 16 40 16.5q9 0.5 17.5 -2.5q8.5 -3 23.5 -12q25.5 -13.5 70 -31.5q44 -18 93.5 -34q58 -19 107.5 -32q49 -13.5 94.5 -23q45.5 -9 92 -15.5q-42.5 21.5 -72 39.5q-30 18.5 -52.5 36.5q-22.5 18.5 -42.5 40.5q-53.5 58 -82.5 122.5q-28.5 64.5 -29 127.5q0 71.5 30 129.5q30 58 88.5 100q29.5 20.5 66.5 37.5q37 16.5 74.5 26q37 10 67 10q17 0 27.5 -7.5q10 -8 10.5 -21q-0.5 -9.5 -8.5 -22.5q-8.5 -12.5 -22.5 -26.5q-10.5 -10 -19.5 -13.5q-8.5 -3.5 -23.5 -3q-22.5 -1 -50.5 -7.5q-28 -6.5 -54 -17q-66 -29 -100.5 -80q-34.5 -51 -34.5 -122q0.5 -65 29 -125.5q28.5 -60.5 77.5 -108.5q48.5 -48 110 -76q61.5 -28.5 127.5 -29l13 0.5q6 0 15.5 1.5q5.5 1 10.5 1l8 0q15 0 23.5 -7q8.5 -7 8.5 -18.5q0 -10.5 -7.5 -20q-7 -9 -22.5 -19q-15.5 -9.5 -30.5 -15.5q-15 -6 -24.5 -6q-6 0 -13.5 2q-7.5 1.5 -22.5 6q-15 5 -32 10q-17.5 4.5 -42.5 10q-25 5.5 -63.5 13q-51 10 -92.5 19q-41.5 9 -73.5 17q-85 20.5 -137 32.5q-52 12.5 -80 18.5q-28 6 -42.5 8l-24 1.5q-15 0 -25.5 -3.5q-10 -4 -20.5 -14q-12 -10.5 -19.5 -22.5q-7.5 -12 -14.5 -30" />
</g>
<g id="PathID_1052" transform="matrix(0.010049, 0, 0, 0.010049, 50, 10.55)">
<path style="fill:#000000;fill-opacity:1" d="M108.5 109.5q27.5 -13 47 -27.5q20 -14.5 35 -33q21 -26.5 32.5 -57.5q11.5 -31 11.5 -62q-0.5 -43.5 -21.5 -69q-21 -25 -57.5 -25.5q-30.5 0.5 -49 19.5q-19 18.5 -19.5 48q-0.5 25.5 13.5 40q14.5 14.5 47 21.5q11.5 3 15.5 7.5q4 4 4 13q0 27.5 -19 51.5q-19.5 24.5 -60 48l20.5 25.5" />
</g>
</svg>
