<?xml version="1.0" encoding="utf-8"?>
<svg version="1.1" id="Layer_1"
xmlns="http://www.w3.org/2000/svg"
xmlns:xlink="http://www.w3.org/1999/xlink"
xmlns:author="http://www.sothink.com"
width="82px" height="13px"
xml:space="preserve">
<g id="PathID_1085" transform="matrix(0.010049, 0, 0, 0.010049, -0.4, 10.45)">
<path style="fill:#000000;fill-opacity:1" d="M853 -748.5q0 33.5 -0.5 59.5l-1 50l-1.5 54.5q-4 79 -10 148q-5.5 69 -13 121.5q-7.5 52 -15 79.5q-9 29.5 -18 41q-9 12 -23 11.5l-7.5 -0.5l-11 -0.5l-39.5 -4l-22 -2.5l-24.5 -3l-37 -4.5l-19.5 -2l-18 -1.5l0 13l63.5 15.5q20 5 27.5 7.5q7 2.5 13 6q18.5 7 26 21q8 14 9 40.5q37 -2.5 59.5 -7.5q22.5 -5 37 -14q23.5 -14.5 41 -59.5q17 -45 29.5 -123q3.5 -21 6 -38.5q2.5 -17 4.5 -41q2 -23.5 4 -64q2 -40.5 4.5 -107.5l6.5 -171q15.5 -10 24 -16q8.5 -6 11 -8.5l3 -4.5q2 -2.5 2 -3.5q0 -3.5 -3 -7.5q-2.5 -4 -7.5 -8l-34 -23.5l-35.5 -24.5l-16.5 18l-12 12.5l-17.5 17.5l-436 0q-18 0 -36.5 -1l-47.5 -5l11 36.5q15.5 -2.5 37 -4.5q21 -2.5 36 -2.5l158.5 0l-2.5 48q-0.5 18.5 -0.5 28q-8.5 120.5 -39.5 220.5q-31.5 100 -84.5 177.5q-25.5 38 -57 71.5q-31 34 -82 77q5.5 6 11 11.5q47.5 -27 81 -53q34 -26 67.5 -62q50.5 -52 85 -110q34.5 -58 55.5 -127.5q21 -69 30.5 -154.5l4 -32q1 -12.5 2 -33q1.5 -20 3 -62l219.5 0M65.5 -826.5q37.5 41.5 66.5 84q29.5 42.5 46 78q14 30.5 20.5 44q7 13.5 10.5 16q3.5 3 8 2.5q8.5 0 16 -7.5q7.5 -7 13.5 -23q4 -11 7 -23q3.5 -12.5 3.5 -19q-0.5 -31.5 -47 -73.5q-46.5 -42 -133 -89.5q-6 5.5 -11.5 11M48 -404.5q19.5 -3 32.5 -4l29 -1l84 0l0 264q-45 36.5 -84.5 62.5q-39 25.5 -68 38q10 25 22 48.5q12 23 23 39.5q3 5.5 7 9q4 3.5 7.5 3.5q4.5 -0.5 7 -7q3 -6 3 -15.5l0 -11.5q0 -6.5 -1 -13q38 -38 69.5 -77q31 -39 54.5 -77q14.5 39 29.5 63q15 24 36 43.5q44 43.5 123 63.5q79 20 205.5 19.5l311.5 -4q9.5 -31 24 -47.5q14 -16.5 35.5 -22l0 -15.5q-43 4 -101 7l-122.5 6l-125.5 4q-62 1.5 -112 1.5q-68 0 -115 -7q-47 -7.5 -79.5 -22.5q-33.5 -16 -52 -35q-19 -19 -30 -48l0 -252l12.5 -9.5q4.5 -3 7.5 -5.5q3.5 -2.5 5.5 -4.5l4.5 -5q1.5 -3 1.5 -5q0 -3 -2 -6q-2.5 -3 -7 -6.5q-16.5 -14.5 -27.5 -23q-11 -9 -30 -21l-40.5 44l-76 0l-17 -0.5l-18.5 -1.5l-36 -5l10 35.5" />
</g>
<g id="PathID_1086" transform="matrix(0.010049, 0, 0, 0.010049, 9.85, 10.45)">
<path style="fill:#000000;fill-opacity:1" d="M317.5 -794q31.5 5.5 48.5 14q17 8.5 25 23q4 7 6 18q2.5 11 3.5 34q1.5 23 3 66l2.5 60.5q1 23 2 37.5q1 14 2.5 26q3.5 32.5 11 51q7 18.5 18.5 26.5q12.5 9 23 12.5q10 3 26.5 3q-45 24 -74 43q-29 19.5 -51 39q-50.5 42 -75.5 84.5q-25 43 -25 87.5q0.5 51.5 30 91.5q29.5 40 81.5 60q32.5 11.5 75.5 17.5q43 6 98.5 6q32 0 71 -2l74 -5q34.5 -3 52 -6.5q24 -4 34 -12q10 -8 10 -21.5q-1 -19.5 -18 -34.5q-16.5 -15 -37.5 -16q-4.5 0 -8.5 1l-12 2.5q-37.5 8.5 -80 15q-43 7 -84 10.5q-41 4 -73.5 4q-85.5 0 -128.5 -28q-43.5 -28.5 -43.5 -83.5q0 -36 19 -67.5q19.5 -32 61 -63.5q31.5 -24.5 67.5 -44q35.5 -19.5 81.5 -36.5q45.5 -17 107 -34.5q34.5 -9.5 49 -14.5q15 -5 19.5 -7q10.5 -4.5 16 -12.5q5.5 -8 5.5 -18q-1 -17 -15.5 -29.5q-14.5 -13 -33.5 -13.5q-9 0 -19 2.5q-9.5 3 -23 9.5q-46 22 -72.5 33.5q-26 11 -40.5 15q-14.5 4 -24.5 4q-23 1 -31.5 -15.5q-9 -16 -8.5 -60.5q0.5 -43 3.5 -84q3 -40.5 8 -73.5q5 -32.5 11 -50q5.5 -13 7 -17.5q1.5 -4 1.5 -9.5l0 -0.5l0 -1.5q0 -10.5 -6.5 -18.5q-7 -8 -22.5 -14q-12.5 -5.5 -30.5 -10q-18.5 -4 -37.5 -7q-19.5 -2.5 -35 -2.5q-15 -0.5 -24 3q-9.5 3.5 -20 13" />
</g>
<g id="PathID_1087" transform="matrix(0.010049, 0, 0, 0.010049, 20.1, 10.45)">
<path style="fill:#000000;fill-opacity:1" d="M362.5 58.5q47.5 -21 85.5 -45.5q38 -24.5 67 -52q53.5 -50.5 82 -117.5q28.5 -66.5 29 -142.5q0 -26 -3 -47q-2.5 -21 -10 -42.5q-7 -21 -20 -46.5l-1 -20.5l0 -14.5q0 -19.5 1 -44.5q1 -25 2.5 -50q1.5 -25 4 -45l56 -3q25.5 -1 53.5 -1l81.5 2.5q37 2.5 76 8l33.5 4l14.5 1.5l7.5 0.5q11.5 0 17 -4.5q5.5 -4.5 5.5 -13q0 -8 -3.5 -14.5q-4 -6.5 -13 -13q-20 -16 -45.5 -27q-25 -10.5 -41.5 -11q-5.5 -0.5 -12.5 2q-7 2 -25.5 9q-12 4.5 -25 7.5q-13 3 -38 5.5l-73 5.5l-29 2.5l-17.5 1.5l-20 2.5q3 -36.5 8.5 -60q5.5 -24 14 -39.5q6.5 -12.5 8.5 -17.5q2 -4.5 1.5 -10q0 -11 -10 -20.5q-10 -9 -29 -15.5q-22.5 -7 -47.5 -10.5q-25.5 -4 -52 -4q-20 0 -29 3.5q-9.5 4 -18 15q39 5.5 59.5 17q20.5 12 28.5 33.5q6 16 9 42q2.5 26 2.5 71.5l-68 7.5l-57 7.5q-27.5 3.5 -60 8.5l-77 12.5q-33.5 5 -53.5 7l-35 2q-30.5 0 -55 -13q-24.5 -13 -44 -39q-2.5 3.5 -4 7q-1 3.5 -1 5q0 13 12 34.5q11.5 21 28.5 40q18 18.5 35 29q17 10 31 10q4.5 0 11.5 -2q7 -1.5 12 -3q17 -9 32.5 -15.5q15 -6 34 -12q63 -19 130 -32q67 -13.5 128 -19l1 12.5l0 7.5q0 17 -0.5 38.5q0 21.5 -0.5 40.5l0 28q-19.5 -10.5 -31.5 -14q-12 -4 -26 -3.5q-38 0.5 -68 20.5q-29.5 20 -46.5 55.5q-17 35 -17.5 80.5q0.5 42.5 16.5 75.5q16.5 33 45 52.5q28 19 64.5 19.5q17.5 0 32.5 -5q15.5 -5 33 -15.5q-12.5 54 -35.5 97q-23 43 -61.5 81q-38.5 38 -97.5 78l8 13.5M551 -344q0 47.5 -16.5 71.5q-16 24.5 -49 24.5q-37 -1 -59.5 -31.5q-23 -30.5 -23.5 -80q1 -48 23.5 -78.5q23 -31 58.5 -32q33.5 0 50 31q16.5 31 16.5 95" />
</g>
<g id="PathID_1088" transform="matrix(0.010049, 0, 0, 0.010049, 30.35, 10.45)">
<path style="fill:#000000;fill-opacity:1" d="M601 -716.5l3.5 -1.5l1.5 -0.5l2 0l1 0q0 -1 0.5 -1l0.5 0q1 0 2 1q1 0.5 1 1q-1 3 -2.5 6q-1.5 2.5 -7.5 10.5q-30 38.5 -55 69.5q-25 31 -51 61.5q-26 31 -59 68.5q-33.5 38 -80 90l-66.5 73q-24.5 25.5 -40.5 40.5q-16.5 14.5 -35 28.5q-11 9 -16 18q-5.5 8.5 -5.5 18q0 15.5 5.5 30.5q5 15.5 12.5 25.5q8 10 16 10.5q7 0 14.5 -6q7.5 -6 20 -22q43.5 -54.5 100 -97.5q56.5 -42.5 115.5 -67.5q59 -24.5 110 -25q30.5 0 57.5 5.5q27.5 5.5 44 15q31 18.5 47 51.5q16.5 32.5 16.5 75.5q-0.5 65.5 -33 115.5q-32 50 -91 76q-11 -22 -21.5 -36.5q-10 -14.5 -23.5 -27q-25.5 -24 -59 -37q-33 -13.5 -71 -13.5q-48.5 1 -79 25q-30.5 24 -31.5 62q1 47.5 44.5 74.5q44 27.5 120 28q93.5 -0.5 166 -33.5q72.5 -33 114 -90q41 -57.5 42 -131.5q-0.5 -57.5 -27.5 -100.5q-27.5 -42.5 -76.5 -66.5q-49.5 -23.5 -115.5 -24q-63.5 -0.5 -130.5 23q-66.5 23 -148 74l-2 -2q10 -9.5 19 -19l31 -33l70 -75q35 -37 69 -71.5q34 -35 81.5 -82q22 -22 35.5 -34.5q13.5 -12 24 -19.5q11 -7.5 25.5 -14.5q9 -4.5 13 -9.5q4.5 -4.5 4.5 -10q0 -9 -6.5 -19q-7 -10.5 -24.5 -27q-19 -19 -32 -27.5q-13.5 -8.5 -23 -8.5q-4 0 -8 1.5q-3.5 1.5 -6.5 3.5q-10.5 9 -17 13.5q-7 4.5 -17 8.5l-29.5 10q-36 11 -75.5 21q-39.5 10 -71.5 16.5q-32.5 6.5 -46.5 6.5q-25.5 0 -45.5 -19.5q-19.5 -19 -31.5 -55.5q-5 8 -7 14q-2 6 -2 13q0 16 7.5 35.5q7.5 19.5 21 40q15 21.5 30 32.5q14.5 10.5 28.5 10.5q6 0 16.5 -3q10 -3.5 25.5 -10.5q36 -15.5 76 -31.5q40 -16.5 75 -29.5q35 -13 56 -19.5l5 -2M563 -21.5q-23 5 -38 7q-15 2 -34.5 2q-54.5 -0.5 -85.5 -17q-31 -16.5 -31.5 -45.5q0.5 -24 17.5 -38q17.5 -13.5 47 -14q43.5 0.5 76.5 28q32.5 28 48.5 77.5" />
</g>
<g id="PathID_1089" transform="matrix(0.010049, 0, 0, 0.010049, 40.6, 10.45)">
<path style="fill:#000000;fill-opacity:1" d="M569 -6l0 -390.5l323.5 0q5 0 7.5 -1.5q3 -1.5 3 -3.5q0 -1 -1.5 -2.5l-3 -3.5l-32.5 -30.5l-27.5 -24l-35 -28.5l-22.5 24.5l-18 20l-22 26l-172 0l0 -338l369.5 0q5.5 0 9 -1.5q3.5 -1.5 3.5 -4.5q0 -1.5 -1.5 -3.5l-2.5 -4l-35.5 -30q-14.5 -12 -29.5 -24q-14.5 -12.5 -36.5 -29.5q-13.5 15 -22.5 25.5l-18 21.5l-22 26.5l-560.5 0q-28.5 0 -49 -1q-20.5 -0.5 -39 -3q-18.5 -2 -40 -6l6 38.5l59.5 -3.5q33 -1.5 62.5 -1.5l274 0l0 752l-197.5 0l0 -495q22 -6 32 -11q10 -5 10 -10.5q0 -7 -17.5 -12.5q-17 -6 -50 -10l-22 -3l-31 -4q2.5 20 4 35.5q1.5 16 2.5 32.5q0.5 17 0.5 39.5l0 438.5l-60.5 0q-32.5 0 -61.5 -2.5q-29.5 -2.5 -64.5 -7.5q3.5 19 7.5 38.5q24 -3 52.5 -4q28 -1 66 -1l810.5 0q5 0 8 -2q3 -2 3.5 -5q0 -1.5 -1.5 -4q-1.5 -2.5 -4 -5.5q-21 -18.5 -36 -31l-30 -25q-15 -12 -37 -29l-24 27l-19.5 22.5l-24.5 28.5l-243.5 0" />
</g>
<g id="PathID_1090" transform="matrix(0.010049, 0, 0, 0.010049, 50.85, 10.45)">
<path style="fill:#000000;fill-opacity:1" d="M540.5 -652.5l0 -142.5q27 -9.5 36 -14.5q8.5 -4.5 8 -9q0.5 -6 -10.5 -10.5q-10.5 -4.5 -37 -8.5q-26.5 -4 -73 -8.5q3 26 4.5 42.5q1.5 16.5 1.5 31l0 120l-307 0q-10 0 -19 -0.5l-21 -2l-34 -3.5l-11.5 -2l-16 -2l10 40.5l43 -4.5l25 -2q10 -0.5 22.5 -0.5l231 0q-1.5 106.5 -15 192q-13.5 86 -40 156.5q-26.5 71 -67.5 133q-40 60.5 -91 107q-51.5 46.5 -126.5 89.5q4.5 8.5 8.5 17.5l42 -18q17 -8 31 -16q14.5 -8 30.5 -17.5q65.5 -41 118 -96q52.5 -54.5 89.5 -121q28.5 -49.5 47 -105.5q18.5 -56 32 -130l301 0q-4 91 -13 172.5q-9 82 -21.5 140q-12.5 58.5 -26 78.5q-5.5 7.5 -13.5 10.5q-7.5 3 -23.5 3l-57 -2.5l-84.5 -6.5l-94.5 -8.5l0 14.5q63.5 11.5 100.5 20q37 8.5 55 17.5q18.5 9 24.5 22q6.5 13.5 8 34.5q53 -6.5 83 -15.5q29.5 -8.5 45.5 -24.5q16 -15.5 28 -44q20 -46 36 -143.5q16 -97.5 27.5 -244.5q26 -17.5 31.5 -22q5.5 -5 4.5 -8.5q0 -2.5 -3 -6q-2.5 -3.5 -10.5 -10.5l-32 -24q-13 -10 -33.5 -25q-12 14 -19.5 23.5q-7.5 9.5 -19 25.5l-290 0q4 -28.5 7 -53.5q2.5 -24.5 3.5 -51.5q1.5 -27 2 -63l506.5 0q5.5 0 9 -2q3.5 -2 3.5 -5q0 -2.5 -1.5 -5q-1.5 -2.5 -4.5 -5.5l-35.5 -31q-14.5 -12 -29 -24.5l-36 -29.5l-22 28q-9 11 -17.5 22.5l-22 28.5l-278.5 0" />
</g>
<g id="PathID_1091" transform="matrix(0.010049, 0, 0, 0.010049, 61.1, 10.45)">
<path style="fill:#000000;fill-opacity:1" d="M463 -755.5l150.5 0q1.5 0 3 -2.5q1 -2 1 -4.5q0 -1 -1 -4l-3 -6.5l-29.5 -27l-24.5 -21.5l-31 -27l-20 24.5l-16 20l-19.5 25l-360 0l-31.5 -1.5q-16.5 -2 -35 -5.5l11 36.5q15.5 -3.5 26.5 -5l28 -1l67.5 0l0 76l0 76l0 50.5l-1 37l-1 37l-91 0l-28 -1.5q-16 -2 -37.5 -5.5l9 36.5q19.5 -3.5 32 -5l25.5 -1l89 0q-3 78.5 -7 134q-4 55 -10.5 95.5q-6.5 40.5 -16.5 75.5q-10 35 -25.5 73q-11 26.5 -21 47q-9.5 21 -21.5 41q-12 20.5 -29 46l14 9q44 -47.5 74 -89q30 -41 49.5 -82q19.5 -40.5 31.5 -87q12.5 -46 20.5 -108.5q7.5 -62 12 -154.5l144.5 0l0 256q-0.5 73.5 -0.5 115.5q-0.5 42 -0.5 64q0 22 -0.5 35.5q0 13.5 -0.5 29.5q0.5 8 5 10.5q4 3 15.5 3l21 -1l21 -3q6.5 -1.5 9.5 -4q3 -2.5 4.5 -8.5q-0.5 -16.5 -0.5 -30q-0.5 -13.5 -0.5 -35.5q-0.5 -21.5 -1 -63q0 -41 -1 -113l0 -256l179 0q2 0 4 -3q2 -2.5 2.5 -5q-0.5 -2 -2 -4.5l-4.5 -5l-27 -27l-23.5 -23l-29 -27.5q-16 19 -24 29l-15.5 18.5l-19 24l-41 0l0 -276.5M391.5 -755.5l0 276.5l-143.5 0q1 -18.5 2 -87.5q1.5 -69 2 -189l139.5 0M514 54.5q50.5 -17 90.5 -35.5q40.5 -18 77.5 -40q36.5 -22.5 76 -52.5q35.5 -26.5 65.5 -54q30 -28 61 -63.5q31 -35.5 70 -86.5l11 0l8.5 0q14 0 21.5 -3q8 -2.5 8 -8q0.5 -5.5 -7.5 -12q-7.5 -7 -30 -18.5q-22 -11.5 -64.5 -31q-15.5 38 -42.5 79.5q-27.5 41 -69.5 88.5q-39 44.5 -77 79.5q-38 34.5 -86.5 68.5q-49 34 -120 76l8 12.5M604.5 -535.5q46.5 -23 82 -45.5q35.5 -22.5 71.5 -51.5q47 -37.5 82 -72q35 -34 67.5 -74.5l9.5 0l7 0l19.5 0q10 0 15 -2.5q5 -2.5 5 -7.5q1.5 -5 -22.5 -18.5q-24 -13 -88 -43q-10 28.5 -29.5 59.5q-19 31 -53.5 72.5q-44 53 -86.5 94.5q-43 41.5 -89.5 76.5q5 6 10.5 12M558 -255q40.5 -16 72.5 -32q32.5 -15.5 62 -34q30 -18 62.5 -41.5q27.5 -19 49 -37.5q22 -18 52 -48q30 -30 82 -85.5q32 0.5 42 -2q10.5 -2.5 9.5 -9q0 -6 -12 -15q-12.5 -8.5 -38.5 -20q-9 -4.5 -23 -11l-32 -15.5q-14.5 33.5 -40.5 71q-25.5 37 -66 80.5q-51.5 57 -106 101.5q-54.5 45 -122.5 85l9 13" />
</g>
<g id="PathID_1092" transform="matrix(0.010049, 0, 0, 0.010049, 71.35, 10.45)">
<path style="fill:#000000;fill-opacity:1" d="M511 -3q64 -11 110 -25.5q46.5 -14.5 89.5 -38q97.5 -52.5 150.5 -133q53 -80.5 53.5 -177.5q0 -74.5 -24.5 -134.5q-24.5 -60.5 -74 -106q-50 -45.5 -118 -69.5q-68 -24.5 -146 -24.5q-67.5 0 -132.5 17.5q-65 17.5 -121.5 49.5q-56.5 32 -98.5 76q-43 48 -67.5 101q-24 53 -24.5 102q0 24 5.5 46.5q6 22.5 18 46.5q14.5 28.5 23 44.5q8 16.5 13 28q5 11 9 24q8.5 24 13.5 36q4.5 12 7.5 18q3.5 6 8 11.5q8.5 10 20 15.5q11.5 6 25 6q28 0 66 -38q38 -38 86.5 -114.5q39 -63.5 69.5 -129.5q30.5 -66.5 47.5 -125.5q17.5 -58.5 18 -99.5q0.5 -21.5 -6.5 -40q-7 -19 -25.5 -45l19.5 -1.5l16.5 -0.5q49.5 0 96 12.5q46.5 12 81.5 34.5q56.5 36.5 86 94q29.5 57.5 29.5 132.5q0 71 -23 133q-23 62 -68 114q-43 50 -100.5 84q-57 34 -139.5 58q3.5 9 7.5 17.5M484 -677q8.5 18.5 11.5 29.5q3 11 3 22q-0.5 32.5 -17 83.5q-16.5 50.5 -45.5 111q-29.5 60.5 -67.5 122q-38.5 60.5 -71 97.5q-33 36.5 -50.5 37.5q-8.5 0 -18.5 -8q-10 -7.5 -20.5 -21.5q-19.5 -27.5 -30 -63q-11 -35 -11 -72.5q1 -79.5 42.5 -150.5q42 -71 113.5 -120.5q71 -50 161 -67" />
</g>
</svg>
