<?xml version="1.0" encoding="utf-8"?>
<svg version="1.1" id="Layer_1"
xmlns="http://www.w3.org/2000/svg"
xmlns:xlink="http://www.w3.org/1999/xlink"
xmlns:author="http://www.sothink.com"
width="75px" height="13px"
xml:space="preserve">
<g id="PathID_922" transform="matrix(0.010049, 0, 0, 0.010049, -10.75, 10.55)">
<path style="fill:#000000;fill-opacity:1" d="" />
</g>
<g id="PathID_923" transform="matrix(0.010049, 0, 0, 0.010049, -0.5, 10.55)">
<path style="fill:#000000;fill-opacity:1" d="M517 -761l454.5 0q5.5 0 8 -1.5q2.5 -1.5 2.5 -4.5q0 -1.5 -1 -3.5q-1 -2 -3 -5q-22 -20 -37.5 -33l-30.5 -26l-38.5 -31l-24.5 28.5q-10 11.5 -19.5 23.5q-10 11.5 -24 29l-607 0l-80 -2.5q-34.5 -2.5 -65 -9l6 42q34.5 -3.5 67.5 -5.5q32.5 -1.5 71.5 -1.5l248 0l0 517l-2 298q0 9.5 5 12.5q5 2.5 20.5 2l20.5 -1q10 -1 19.5 -3q6.5 -1.5 9.5 -4.5q3 -3 3.5 -9l-4 -295l0 -341q23 13.5 41 25.5q17.5 11.5 35.5 26q17.5 14.5 41.5 35.5q49.5 44.5 84.5 82q35 37.5 56.5 68.5q4 6.5 7 9q3.5 2.5 7.5 2.5q11 -0.5 17.5 -18q7 -17.5 7 -45.5q0.5 -24 -5.5 -40.5q-6 -16 -23.5 -30q-17 -14.5 -50 -33l-55.5 -31q-23.5 -12.5 -46 -22.5q-22 -10.5 -49.5 -21.5l-68 -26.5l0 -156.5" />
</g>
<g id="PathID_924" transform="matrix(0.010049, 0, 0, 0.010049, 9.75, 10.55)">
<path style="fill:#000000;fill-opacity:1" d="M511 -3q64 -11 110 -25.5q46.5 -14.5 89.5 -38q97.5 -52.5 150.5 -133q53 -80.5 53.5 -177.5q0 -74.5 -24.5 -134.5q-24.5 -60.5 -74 -106q-50 -45.5 -118 -69.5q-68 -24.5 -146 -24.5q-67.5 0 -132.5 17.5q-65 17.5 -121.5 49.5q-56.5 32 -98.5 76q-43 48 -67.5 101q-24 53 -24.5 102q0 24 5.5 46.5q6 22.5 18 46.5q14.5 28.5 23 44.5q8 16.5 13 28q5 11 9 24q8.5 24 13.5 36q4.5 12 7.5 18q3.5 6 8 11.5q8.5 10 20 15.5q11.5 6 25 6q28 0 66 -38q38 -38 86.5 -114.5q39 -63.5 69.5 -129.5q30.5 -66.5 47.5 -125.5q17.5 -58.5 18 -99.5q0.5 -21.5 -6.5 -40q-7 -19 -25.5 -45l19.5 -1.5l16.5 -0.5q49.5 0 96 12.5q46.5 12 81.5 34.5q56.5 36.5 86 94q29.5 57.5 29.5 132.5q0 71 -23 133q-23 62 -68 114q-43 50 -100.5 84q-57 34 -139.5 58q3.5 9 7.5 17.5M484 -677q8.5 18.5 11.5 29.5q3 11 3 22q-0.5 32.5 -17 83.5q-16.5 50.5 -45.5 111q-29.5 60.5 -67.5 122q-38.5 60.5 -71 97.5q-33 36.5 -50.5 37.5q-8.5 0 -18.5 -8q-10 -7.5 -20.5 -21.5q-19.5 -27.5 -30 -63q-11 -35 -11 -72.5q1 -79.5 42.5 -150.5q42 -71 113.5 -120.5q71 -50 161 -67" />
</g>
<g id="PathID_925" transform="matrix(0.010049, 0, 0, 0.010049, 20, 10.55)">
<path style="fill:#000000;fill-opacity:1" d="M238.5 -424q58.5 32.5 95 53q36.5 20.5 59.5 34.5q23.5 13.5 43 26q19 12.5 43.5 29q-17.5 19.5 -33 35q-16 15.5 -35 31.5q-34 30.5 -65.5 54q-31 24 -63.5 44.5q-32.5 20.5 -71.5 42l9 15q42 -16.5 75.5 -32.5q33 -16.5 64 -35.5q30.5 -19 65.5 -44.5q28 -20.5 50.5 -40q22.5 -19.5 43.5 -42q43.5 30.5 73.5 54.5q30 23.5 55 46.5q25 23.5 53 53.5q19 21 25.5 26.5q6.5 5 12.5 4.5q7.5 -0.5 12.5 -7.5q4.5 -7 5 -17q-1.5 -29 -7.5 -49q-6 -20 -17.5 -35q-17 -21.5 -63.5 -53.5q-46.5 -31.5 -110.5 -65.5q46.5 -56 81.5 -106.5q35 -51 65 -108.5q30.5 -58 62.5 -134l1.5 0l0.5 0q20.5 0 29 -3q8 -3 8 -10.5q0.5 -4.5 -8 -9.5q-8.5 -5.5 -30.5 -14q-22.5 -8.5 -64 -22.5q-20.5 92.5 -70 192q-49.5 99.5 -121.5 192q-47.5 -24 -87.5 -42.5q-40.5 -18.5 -82 -36q-42 -17.5 -94.5 -38.5l-8.5 13.5M260 -657.5q19 33 31.5 55.5q12.5 23 21 42q8.5 19.5 16 42q8 22.5 17.5 55q3 10 7 14.5q3.5 4 9.5 4q8.5 -0.5 17 -11q9 -10.5 14.5 -25.5q6 -15.5 6.5 -30q0 -11 -4.5 -22q-4 -11.5 -12 -23q-21 -28.5 -49 -56q-28 -27.5 -62.5 -53.5l-12.5 8M421 -708.5q30 44.5 51.5 87q21.5 42.5 35.5 84q6.5 21.5 11.5 29q4.5 7 12 6.5q7.5 -0.5 15.5 -11q8 -10.5 13.5 -25.5q5.5 -15 6 -29q0 -10 -4 -20q-4 -10 -11.5 -21q-19 -26.5 -45 -51q-26.5 -24 -73 -58.5q-6 4.5 -12 9.5M169 0l682 0l0 54.5q-0.5 7.5 4 10q4.5 2.5 16.5 2l25.5 -1.5q13 -1 18.5 -3.5q4.5 -1.5 6.5 -4.5q2.5 -3 2.5 -9l0 -42.5q0 -16.5 -0.5 -30q0 -13.5 -0.5 -31l-1 -47l-1 -93.5q-0.5 -37.5 -0.5 -66.5q-0.5 -28.5 -0.5 -57l0 -65l0 -91.5l0 -261.5q24 -14 31.5 -21q8 -7 7.5 -12.5q0 -3 -2.5 -6.5q-2.5 -3.5 -8 -9l-22.5 -18q-9 -7.5 -19 -14.5l-24 -16.5q-21.5 24.5 -42.5 49l-658.5 0l-30.5 -20q-12.5 -7.5 -25.5 -14q-12.5 -6 -31 -14l3 119q1 44 1 58q0 164.5 -0.5 281q0 116.5 -1 197q-0.5 80.5 -2 137q-1.5 56.5 -3.5 101q1 6.5 5 9q4 2.5 12 2l26 -1q12.5 -0.5 20 -3q6 -0.5 9 -4q3 -3.5 4.5 -10.5l0 -51M169 -763l682 0l0 739.5l-682 0l0 -739.5" />
</g>
<g id="PathID_926" transform="matrix(0.010049, 0, 0, 0.010049, 30.25, 10.55)">
<path style="fill:#000000;fill-opacity:1" d="M148.5 -665.5q23 30 45 47.5q22 17 47.5 24.5q25.5 7 60 7l29.5 -1q14.5 -1.5 39 -5q-36 54 -65.5 93q-29.5 38.5 -59.5 68.5q-29.5 30 -65.5 58.5q-14 11 -20.5 17.5q-6 6 -8 12q-1.5 6 -1 16.5q0 24.5 7.5 39.5q7.5 14.5 20 14.5q7.5 0.5 15.5 -6.5q8.5 -6.5 22.5 -26q56 -71 113.5 -109.5q57 -38.5 108.5 -39q17.5 0 31 8.5q14 8 21.5 22q7.5 15.5 10.5 32.5q3 17.5 3.5 48.5q-49.5 31 -78.5 51.5q-29.5 21 -48.5 39.5q-37.5 36 -55.5 70q-18 34.5 -18 70.5q0 37 18 63.5q18.5 26.5 57.5 45q31 14.5 83.5 22q52 7.5 124.5 7.5q32.5 0 66.5 -2l65 -5q30.5 -3 52 -7.5q15.5 -3 23.5 -10q8.5 -7.5 8.5 -17.5q-0.5 -11.5 -11.5 -23.5q-11 -11.5 -27.5 -19.5q-16.5 -8 -33 -8l-9 0.5l-10.5 2.5q-47 13.5 -99.5 21q-52.5 7.5 -106.5 7.5q-86 0 -128.5 -20q-42.5 -20.5 -42.5 -62q0 -23 12.5 -46.5q12.5 -24 38 -48.5q19 -18.5 46 -37q27 -18.5 73.5 -44q-0.5 34 -2.5 60.5q-1.5 27 -4.5 49q-1 5.5 -1 9.5l0 8q0 13.5 9 22q9 8.5 23.5 8.5q9.5 0 17 -5.5q8 -5 12 -13.5q3.5 -8 6 -31q2 -22.5 2 -57l0 -34q0 -12.5 -0.5 -23q0 -10.5 -0.5 -26q41 -20.5 93 -42q52 -21.5 101 -38.5q49 -17.5 80.5 -25q21.5 -4.5 29.5 -11q8 -7 7.5 -20.5q-1 -21.5 -20 -45q-19 -24 -45.5 -41q-26.5 -16.5 -50 -17.5l-10.5 1q-5 1.5 -13 5q22.5 9.5 34.5 22.5q12.5 12.5 12.5 25.5q0.5 9 -10 19.5q-11 10 -38.5 25.5q-27.5 16 -77.5 41q-41 20.5 -59.5 30q-18 9.5 -26 13q-7.5 3.5 -15 7.5q-7.5 -47 -38.5 -74.5q-30.5 -27.5 -76.5 -28q-28 0 -59 9.5q-30.5 9.5 -73 31.5l17 -24l16 -24l22.5 -34q17 -26 29 -43.5q12 -18 25 -36.5q41 -8 74.5 -15.5q34 -8 69 -18q35 -10 80 -24.5q23 -8 33.5 -16q10.5 -8 10.5 -17q-0.5 -15 -19.5 -24q-18.5 -9.5 -49 -10q-5.5 0 -10 2q-5 1.5 -9.5 5.5q-16.5 14 -34.5 24q-17.5 10.5 -44 20q-26.5 9.5 -69 21.5l8.5 -12.5l17 -27.5l14.5 -20.5q8 -12 15 -21.5q9 -11 13 -18q3.5 -6.5 3.5 -11.5q0 -9.5 -9 -18q-8.5 -8.5 -28 -16q-20 -8.5 -41 -13q-20.5 -4.5 -38.5 -4.5q-14 0 -24 2.5q-10 2 -22.5 9q39.5 9.5 56.5 23q17 14 16.5 34q0 17.5 -9.5 44.5q-9.5 27 -26.5 60q-34.5 7 -60 10.5q-25.5 3 -49.5 3q-27 0 -46.5 -4q-20 -4 -38.5 -14.5q-19 -10.5 -43 -29.5l-11 9" />
</g>
<g id="PathID_927" transform="matrix(0.010049, 0, 0, 0.010049, 40.5, 10.55)">
<path style="fill:#000000;fill-opacity:1" d="M414.5 -271.5q7 4.5 11 9.5q4 5 11 15q19.5 30.5 31 47q11.5 17 21 28.5q9 12 22.5 27q-25.5 36.5 -60 68.5q-34.5 32 -82.5 62.5q-48 30.5 -113.5 63.5l7 14.5q71.5 -24 123.5 -48.5q52 -24.5 91.5 -53.5q39.5 -29.5 74 -68q30.5 27 62.5 49q32.5 22 67.5 41q55.5 29 109 46q53.5 16.5 116 25q10 -36.5 25 -54q15.5 -17 46 -28l0 -11.5q-88.5 0 -160 -10q-71 -10.5 -130.5 -33q-59 -22.5 -112 -58q19.5 -31 32.5 -61q13 -29.5 21.5 -63.5q8.5 -34.5 14.5 -78.5l181.5 0l0 60.5q-0.5 7.5 4 10.5q4.5 3 16.5 2.5q29.5 0.5 40.5 -3.5q11 -4.5 10.5 -15.5q-0.5 -36 -0.5 -59q-0.5 -23.5 -0.5 -45q0 -21 -0.5 -52l-0.5 -83q20.5 -10.5 28 -17q8 -7 8 -12.5q0 -3 -3 -6.5q-2.5 -3.5 -9.5 -9q-18.5 -14 -31 -23q-12.5 -9.5 -33.5 -24l-17 23l-17.5 24l-166 0l2 -115.5l326.5 0q6 0 9.5 -2q3.5 -2 4 -5q0 -2.5 -2 -5.5q-1.5 -3 -5.5 -7q-19.5 -16.5 -32.5 -27q-13.5 -11 -27.5 -21q-14 -10 -35 -24.5q-13 17 -27 34q-13.5 17 -28 34.5l-181.5 0l0 -29.5q0 -12 0.5 -26.5l1.5 -38q20 -5.5 29.5 -11q9.5 -5.5 9.5 -11.5q0 -2.5 -2.5 -5q-2.5 -3 -5.5 -4.5q-5 -2.5 -13 -4.5l-29 -5l-67 -9l2.5 34q1 15 1.5 29.5q0.5 15 0.5 35l0 46l-151 0q-37.5 0 -68.5 -2.5q-31 -2.5 -62.5 -9l8 41q18.5 -2.5 35.5 -3.5l37 -2q21 -0.5 51.5 -0.5l150 0q-0.5 57.5 -1.5 115.5l-164.5 0q-17 -11 -29 -18q-11.5 -7 -23.5 -13.5l-28.5 -15.5q1.5 19.5 2 33l1 27.5l0 33.5q0 50 -0.5 87q0 37.5 -1 67.5q-0.5 30 -1.5 57.5q0 9 3.5 12.5q4 3 14 3q28.5 0 39.5 -3.5q11 -4 10.5 -14l0 -27.5l170 0q-5 50.5 -16.5 91.5q-11 40.5 -29.5 76.5q-38.5 -34 -58 -60.5q-20 -27 -20 -47l0 -2.5l1 -2.5l-37 15M582.5 -548q0 47.5 -0.5 76q-0.5 28 -2 51q-1 23.5 -3.5 55.5l-172 0l0 -182.5l178 0M824.5 -548l0 182.5l-179.5 0q2 -20.5 3 -34.5q1.5 -14 2 -30.5l1 -43.5l1.5 -74l172 0M36.5 -356.5q25.5 -24 43 -43q17 -19 34 -42q16.5 -23 41 -60.5l0 272.5q0 34 -0.5 71l-1.5 88q-1 50.5 -3 125q0 11.5 4 14.5q4 3 20.5 2.5q27 0.5 38.5 -3.5q11 -4 10.5 -13.5l-1 -82q-0.5 -29.5 -1 -44.5l0 -24.5l0 -19l1 -130l0 -252.5q16 -4.5 24 -9.5q8 -5.5 8 -11q0.5 -7 -16.5 -11.5q-16.5 -4.5 -60.5 -10q25.5 -42 46 -80.5q20.5 -39 39.5 -82.5q19.5 -43.5 41.5 -100.5q25 -3 36 -7.5q10.5 -4.5 10 -12q1 -6 -7.5 -11q-9 -5 -35.5 -12q-26.5 -7 -80 -19q-3.5 49 -19 106q-15 57 -46.5 134.5q-29.5 75 -62.5 138q-33.5 62.5 -74.5 121l12 9" />
</g>
<g id="PathID_928" transform="matrix(0.010049, 0, 0, 0.010049, 50.75, 10.55)">
<path style="fill:#000000;fill-opacity:1" d="M412 -9q75.5 -8.5 133.5 -21.5q58 -13 104.5 -32q46 -19.5 86.5 -47q51.5 -34.5 80.5 -85.5q29.5 -51.5 30 -107q-0.5 -58.5 -29.5 -103.5q-28.5 -44.5 -80 -70q-51 -25 -118.5 -25.5l-43 1.5q-19 1.5 -37 4.5q-44.5 8 -104 26.5q-60 19 -129.5 46.5q-38.5 15.5 -59.5 22.5q-21 6.5 -30.5 6.5q-18.5 0 -35 -14.5q-16 -14 -28.5 -42q-4 7.5 -5.5 12q-2 5 -2 8.5q1 24.5 17.5 52.5q16.5 27.5 39.5 47.5q23 20 42.5 21q9 0 18 -4.5q9 -4.5 23 -15q55 -43 114.5 -74.5q59.5 -31 117.5 -48q57.5 -17 108 -17q69.5 1 110.5 41q41 40 42 108q0 46 -22 88.5q-21.5 42.5 -64 77q-53 45.5 -120.5 75q-68 29.5 -163 49l4 19.5" />
</g>
<g id="PathID_929" transform="matrix(0.010049, 0, 0, 0.010049, 61, 10.55)">
<path style="fill:#000000;fill-opacity:1" d="M107.5 -668q-6.5 9 -9 15q-2.5 6 -2 12q0 12.5 7 31q7 18.5 19.5 37.5q18 28 39 44q21 16 40 16.5q9 0.5 17.5 -2.5q8.5 -3 23.5 -12q25.5 -13.5 70 -31.5q44 -18 93.5 -34q58 -19 107.5 -32q49 -13.5 94.5 -23q45.5 -9 92 -15.5q-42.5 21.5 -72 39.5q-30 18.5 -52.5 36.5q-22.5 18.5 -42.5 40.5q-53.5 58 -82.5 122.5q-28.5 64.5 -29 127.5q0 71.5 30 129.5q30 58 88.5 100q29.5 20.5 66.5 37.5q37 16.5 74.5 26q37 10 67 10q17 0 27.5 -7.5q10 -8 10.5 -21q-0.5 -9.5 -8.5 -22.5q-8.5 -12.5 -22.5 -26.5q-10.5 -10 -19.5 -13.5q-8.5 -3.5 -23.5 -3q-22.5 -1 -50.5 -7.5q-28 -6.5 -54 -17q-66 -29 -100.5 -80q-34.5 -51 -34.5 -122q0.5 -65 29 -125.5q28.5 -60.5 77.5 -108.5q48.5 -48 110 -76q61.5 -28.5 127.5 -29l13 0.5q6 0 15.5 1.5q5.5 1 10.5 1l8 0q15 0 23.5 -7q8.5 -7 8.5 -18.5q0 -10.5 -7.5 -20q-7 -9 -22.5 -19q-15.5 -9.5 -30.5 -15.5q-15 -6 -24.5 -6q-6 0 -13.5 2q-7.5 1.5 -22.5 6q-15 5 -32 10q-17.5 4.5 -42.5 10q-25 5.5 -63.5 13q-51 10 -92.5 19q-41.5 9 -73.5 17q-85 20.5 -137 32.5q-52 12.5 -80 18.5q-28 6 -42.5 8l-24 1.5q-15 0 -25.5 -3.5q-10 -4 -20.5 -14q-12 -10.5 -19.5 -22.5q-7.5 -12 -14.5 -30" />
</g>
<g id="PathID_930" transform="matrix(0.010049, 0, 0, 0.010049, 71.25, 10.55)">
<path style="fill:#000000;fill-opacity:1" d="M82 122q27.5 -13 47 -27.5q19.5 -14 35 -33q20.5 -26 32 -57q11.5 -30.5 12 -62q-0.5 -43.5 -21.5 -68.5q-21 -25 -57.5 -25.5q-30.5 0.5 -49.5 19q-18.5 19 -19 48.5q-0.5 25 13.5 39q14 14.5 47 22.5q11 2 15.5 7q4 4.5 4 13.5q0 27.5 -19.5 51.5q-19 24 -59.5 48l20.5 24.5" />
</g>
</svg>
