<?xml version="1.0" encoding="utf-8"?>
<svg version="1.1" id="Layer_1"
xmlns="http://www.w3.org/2000/svg"
xmlns:xlink="http://www.w3.org/1999/xlink"
xmlns:author="http://www.sothink.com"
width="19px" height="11px"
xml:space="preserve">
<g id="PathID_1071" transform="matrix(0.010049, 0, 0, 0.010049, -2.2, 9.2)">
<path style="fill:#000000;fill-opacity:1" d="M275.5 -721q21 22.5 36.5 36q16 13.5 35.5 23.5q24.5 12.5 56 20q31.5 7.5 60.5 7.5q15 0 37 -1l40 -2l-14.5 8.5q-6.5 4 -22 12.5l-49.5 27q-19.5 10.5 -35.5 20l-39.5 23l7 15.5q13.5 -5 20 -8l20 -8.5l43 -18.5l21.5 -9l19.5 -7.5l74.5 -28q25.5 -9 41 -13.5q15.5 -4.5 34 -8.5q34 -7.5 50 -12q16 -5 20.5 -10q5 -5 4.5 -13.5q-0.5 -11.5 -10 -24q-10 -12 -24 -20.5q-14 -8.5 -27.5 -9q-2.5 0 -8 1.5q-5 1 -10.5 3q-30 9 -66.5 16q-36.5 7 -74.5 10.5q-38 4 -72 4q-34 0 -59.5 -4q-25.5 -4 -48.5 -14q-23 -10 -48.5 -27q-5.5 5 -10.5 10M237 -331q-8.5 25.5 -12.5 46.5q-4 21.5 -4 39.5q0.5 49.5 23 93q23 43.5 62 69q37.5 26 95.5 37.5q57.5 11.5 143 11.5q46 0 92 -2.5q45.5 -2.5 84 -7q38.5 -5 62.5 -11q16 -4 24.5 -12q8 -8 8 -19.5q0 -9.5 -5.5 -18.5q-6 -9 -17 -17.5q-13.5 -8.5 -28.5 -14.5q-15.5 -5.5 -27.5 -6q-4 0 -8.5 1q-4.5 1 -9 3q-46 17 -105.5 27q-59.5 10 -121 10q-123 0 -182.5 -44q-59.5 -44 -59 -135q0 -10.5 1 -20q0.5 -10 2 -26.5l-17 -4" />
</g>
<g id="PathID_1072" transform="matrix(0.010049, 0, 0, 0.010049, 8.05, 9.2)">
<path style="fill:#000000;fill-opacity:1" d="M511 -3q64 -11 110 -25.5q46.5 -14.5 89.5 -38q97.5 -52.5 150.5 -133q53 -80.5 53.5 -177.5q0 -74.5 -24.5 -134.5q-24.5 -60.5 -74 -106q-50 -45.5 -118 -69.5q-68 -24.5 -146 -24.5q-67.5 0 -132.5 17.5q-65 17.5 -121.5 49.5q-56.5 32 -98.5 76q-43 48 -67.5 101q-24 53 -24.5 102q0 24 5.5 46.5q6 22.5 18 46.5q14.5 28.5 23 44.5q8 16.5 13 28q5 11 9 24q8.5 24 13.5 36q4.5 12 7.5 18q3.5 6 8 11.5q8.5 10 20 15.5q11.5 6 25 6q28 0 66 -38q38 -38 86.5 -114.5q39 -63.5 69.5 -129.5q30.5 -66.5 47.5 -125.5q17.5 -58.5 18 -99.5q0.5 -21.5 -6.5 -40q-7 -19 -25.5 -45l19.5 -1.5l16.5 -0.5q49.5 0 96 12.5q46.5 12 81.5 34.5q56.5 36.5 86 94q29.5 57.5 29.5 132.5q0 71 -23 133q-23 62 -68 114q-43 50 -100.5 84q-57 34 -139.5 58q3.5 9 7.5 17.5M484 -677q8.5 18.5 11.5 29.5q3 11 3 22q-0.5 32.5 -17 83.5q-16.5 50.5 -45.5 111q-29.5 60.5 -67.5 122q-38.5 60.5 -71 97.5q-33 36.5 -50.5 37.5q-8.5 0 -18.5 -8q-10 -7.5 -20.5 -21.5q-19.5 -27.5 -30 -63q-11 -35 -11 -72.5q1 -79.5 42.5 -150.5q42 -71 113.5 -120.5q71 -50 161 -67" />
</g>
</svg>
