<?xml version="1.0" encoding="utf-8"?>
<svg version="1.1" id="Layer_1"
xmlns="http://www.w3.org/2000/svg"
xmlns:xlink="http://www.w3.org/1999/xlink"
xmlns:author="http://www.sothink.com"
width="112px" height="13px"
xml:space="preserve">
<g id="PathID_1074" transform="matrix(0.010049, 0, 0, 0.010049, -0.75, 10.7)">
<path style="fill:#000000;fill-opacity:1" d="M427 -52q74.5 -6.5 135 -21q60.5 -14 118 -38.5q112.5 -48.5 173.5 -126q61.5 -78 62 -174q-0.5 -67.5 -33.5 -118q-33 -50.5 -91.5 -79q-59 -28 -137.5 -28.5q-52.5 0 -108.5 10q-55.5 10 -120.5 31.5q-65 22 -145.5 57q-43.5 19 -74 28q-30 9 -50 9q-10.5 0 -20.5 -4q-10 -4 -21.5 -12.5q-9 -6.5 -15 -14.5q-6.5 -7.5 -13.5 -23.5q-4.5 9 -6.5 15q-2 5.5 -2 11q1 23.5 21.5 51q20 27 48.5 46q28 19.5 53 20.5q9 0 18 -3.5q9 -4 21 -14q68 -53 140 -91q72 -38.5 141.5 -59q69.5 -21 130 -21q85 1 135.5 47.5q51 46.5 52 124.5q-0.5 81.5 -49.5 153q-48.5 71 -139 122.5q-47.5 27.5 -102 48q-54.5 20.5 -124 38l5 15.5" />
</g>
<g id="PathID_1075" transform="matrix(0.010049, 0, 0, 0.010049, 9.5, 10.7)">
<path style="fill:#000000;fill-opacity:1" d="M511 -3q64 -11 110 -25.5q46.5 -14.5 89.5 -38q97.5 -52.5 150.5 -133q53 -80.5 53.5 -177.5q0 -74.5 -24.5 -134.5q-24.5 -60.5 -74 -106q-50 -45.5 -118 -69.5q-68 -24.5 -146 -24.5q-67.5 0 -132.5 17.5q-65 17.5 -121.5 49.5q-56.5 32 -98.5 76q-43 48 -67.5 101q-24 53 -24.5 102q0 24 5.5 46.5q6 22.5 18 46.5q14.5 28.5 23 44.5q8 16.5 13 28q5 11 9 24q8.5 24 13.5 36q4.5 12 7.5 18q3.5 6 8 11.5q8.5 10 20 15.5q11.5 6 25 6q28 0 66 -38q38 -38 86.5 -114.5q39 -63.5 69.5 -129.5q30.5 -66.5 47.5 -125.5q17.5 -58.5 18 -99.5q0.5 -21.5 -6.5 -40q-7 -19 -25.5 -45l19.5 -1.5l16.5 -0.5q49.5 0 96 12.5q46.5 12 81.5 34.5q56.5 36.5 86 94q29.5 57.5 29.5 132.5q0 71 -23 133q-23 62 -68 114q-43 50 -100.5 84q-57 34 -139.5 58q3.5 9 7.5 17.5M484 -677q8.5 18.5 11.5 29.5q3 11 3 22q-0.5 32.5 -17 83.5q-16.5 50.5 -45.5 111q-29.5 60.5 -67.5 122q-38.5 60.5 -71 97.5q-33 36.5 -50.5 37.5q-8.5 0 -18.5 -8q-10 -7.5 -20.5 -21.5q-19.5 -27.5 -30 -63q-11 -35 -11 -72.5q1 -79.5 42.5 -150.5q42 -71 113.5 -120.5q71 -50 161 -67" />
</g>
<g id="PathID_1076" transform="matrix(0.010049, 0, 0, 0.010049, 19.75, 10.7)">
<path style="fill:#000000;fill-opacity:1" d="M959.5 -356.5q1.5 -0.5 3.5 -3.5q2.5 -3 2.5 -4.5l0 -2l-1 -2.5l-32.5 -30.5l-27 -25l-33.5 -29.5l-23 27q-9 11 -18.5 21.5l-24.5 25.5l-500.5 0l0 -116l493.5 0q3.5 0 5.5 -2q2.5 -2 3 -4q0 -3 -3.5 -6.5q-18 -17 -30 -29l-24.5 -22.5l-30.5 -27q-16.5 19.5 -28 32.5q-11.5 13 -30 35l-355.5 0l0 -108.5l493.5 0q4 0 6.5 -2.5q2.5 -2 3 -4.5q0 -1 -1 -2.5l-2.5 -3q-16.5 -16.5 -28.5 -27.5q-12 -11 -24 -20.5q-11.5 -10 -29 -23.5l-22.5 25.5l-14 15.5q-6 7.5 -17 19.5l-364.5 0l0 -111.5l556 0q3 0 5.5 -2q2.5 -2 2.5 -5q0 -1 -0.5 -2l-1.5 -2q-20.5 -17.5 -34 -29.5l-27.5 -23.5l-33.5 -28q-11.5 13 -18 21l-15.5 17.5l-26 30l-389 0q-19 -11 -32 -18q-13.5 -7 -27 -13q-13.5 -5.5 -34 -13q2 46.5 3 87q1 40.5 1 85l0 278.5l-122 0q-19 0 -38.5 -2.5q-19.5 -2.5 -42.5 -7.5q5 20.5 9.5 41.5q8.5 -2 22 -4l26.5 -3l22 -1l123 0l0 297q-57 12 -89.5 18.5q-33 6 -52.5 8q-19 2.5 -36 2l9 31.5q4 13.5 6 23q5 17.5 9.5 30.5q4.5 13.5 9 22.5q2.5 5.5 7 9q4 3.5 7.5 3.5q6 0 9.5 -11.5q3.5 -11.5 6 -36.5q78 -27.5 137 -49q58.5 -21 104.5 -39q46.5 -17.5 88 -35q41.5 -17 86 -37l-5 -15.5q-43 13 -76 22.5q-32.5 9 -67 17.5q-34.5 8.5 -82.5 19.5l0 -281.5l120 0q18 44 34 76.5q16 32.5 33.5 59.5q17.5 26.5 40 53.5q40 49 89 88q48.5 39 113 72q64 33 151 64q6 -17 13 -28q6.5 -10.5 18 -21q11 -9 21.5 -13.5q11 -5 26.5 -7l0 -15.5q-74.5 -7 -138 -24q-63 -17 -125 -47.5q-30 -14 -51.5 -27.5q-21.5 -13.5 -44 -31l67.5 -40.5q23.5 -15 38 -25l40 -27l17.5 -11.5q5 -3.5 10 -6.5l20.5 1l17.5 0q11 0 18 -3.5q7.5 -3 7.5 -7.5q0 -4 -4 -8q-4 -3.5 -10 -6.5q-1.5 0 -16 -7q-15 -6.5 -38.5 -17.5l-18.5 -8q-12 -4.5 -26.5 -10.5q-16.5 33 -51.5 74.5q-35.5 42 -88 90.5q-49 -43 -83 -88.5q-34 -46 -56 -97l509 0" />
</g>
<g id="PathID_1077" transform="matrix(0.010049, 0, 0, 0.010049, 30, 10.7)">
<path style="fill:#000000;fill-opacity:1" d="M540.5 -652.5l0 -142.5q27 -9.5 36 -14.5q8.5 -4.5 8 -9q0.5 -6 -10.5 -10.5q-10.5 -4.5 -37 -8.5q-26.5 -4 -73 -8.5q3 26 4.5 42.5q1.5 16.5 1.5 31l0 120l-307 0q-10 0 -19 -0.5l-21 -2l-34 -3.5l-11.5 -2l-16 -2l10 40.5l43 -4.5l25 -2q10 -0.5 22.5 -0.5l231 0q-1.5 106.5 -15 192q-13.5 86 -40 156.5q-26.5 71 -67.5 133q-40 60.5 -91 107q-51.5 46.5 -126.5 89.5q4.5 8.5 8.5 17.5l42 -18q17 -8 31 -16q14.5 -8 30.5 -17.5q65.5 -41 118 -96q52.5 -54.5 89.5 -121q28.5 -49.5 47 -105.5q18.5 -56 32 -130l301 0q-4 91 -13 172.5q-9 82 -21.5 140q-12.5 58.5 -26 78.5q-5.5 7.5 -13.5 10.5q-7.5 3 -23.5 3l-57 -2.5l-84.5 -6.5l-94.5 -8.5l0 14.5q63.5 11.5 100.5 20q37 8.5 55 17.5q18.5 9 24.5 22q6.5 13.5 8 34.5q53 -6.5 83 -15.5q29.5 -8.5 45.5 -24.5q16 -15.5 28 -44q20 -46 36 -143.5q16 -97.5 27.5 -244.5q26 -17.5 31.5 -22q5.5 -5 4.5 -8.5q0 -2.5 -3 -6q-2.5 -3.5 -10.5 -10.5l-32 -24q-13 -10 -33.5 -25q-12 14 -19.5 23.5q-7.5 9.5 -19 25.5l-290 0q4 -28.5 7 -53.5q2.5 -24.5 3.5 -51.5q1.5 -27 2 -63l506.5 0q5.5 0 9 -2q3.5 -2 3.5 -5q0 -2.5 -1.5 -5q-1.5 -2.5 -4.5 -5.5l-35.5 -31q-14.5 -12 -29 -24.5l-36 -29.5l-22 28q-9 11 -17.5 22.5l-22 28.5l-278.5 0" />
</g>
<g id="PathID_1078" transform="matrix(0.010049, 0, 0, 0.010049, 40.25, 10.7)">
<path style="fill:#000000;fill-opacity:1" d="M463 -755.5l150.5 0q1.5 0 3 -2.5q1 -2 1 -4.5q0 -1 -1 -4l-3 -6.5l-29.5 -27l-24.5 -21.5l-31 -27l-20 24.5l-16 20l-19.5 25l-360 0l-31.5 -1.5q-16.5 -2 -35 -5.5l11 36.5q15.5 -3.5 26.5 -5l28 -1l67.5 0l0 76l0 76l0 50.5l-1 37l-1 37l-91 0l-28 -1.5q-16 -2 -37.5 -5.5l9 36.5q19.5 -3.5 32 -5l25.5 -1l89 0q-3 78.5 -7 134q-4 55 -10.5 95.5q-6.5 40.5 -16.5 75.5q-10 35 -25.5 73q-11 26.5 -21 47q-9.5 21 -21.5 41q-12 20.5 -29 46l14 9q44 -47.5 74 -89q30 -41 49.5 -82q19.5 -40.5 31.5 -87q12.5 -46 20.5 -108.5q7.5 -62 12 -154.5l144.5 0l0 256q-0.5 73.5 -0.5 115.5q-0.5 42 -0.5 64q0 22 -0.5 35.5q0 13.5 -0.5 29.5q0.5 8 5 10.5q4 3 15.5 3l21 -1l21 -3q6.5 -1.5 9.5 -4q3 -2.5 4.5 -8.5q-0.5 -16.5 -0.5 -30q-0.5 -13.5 -0.5 -35.5q-0.5 -21.5 -1 -63q0 -41 -1 -113l0 -256l179 0q2 0 4 -3q2 -2.5 2.5 -5q-0.5 -2 -2 -4.5l-4.5 -5l-27 -27l-23.5 -23l-29 -27.5q-16 19 -24 29l-15.5 18.5l-19 24l-41 0l0 -276.5M391.5 -755.5l0 276.5l-143.5 0q1 -18.5 2 -87.5q1.5 -69 2 -189l139.5 0M514 54.5q50.5 -17 90.5 -35.5q40.5 -18 77.5 -40q36.5 -22.5 76 -52.5q35.5 -26.5 65.5 -54q30 -28 61 -63.5q31 -35.5 70 -86.5l11 0l8.5 0q14 0 21.5 -3q8 -2.5 8 -8q0.5 -5.5 -7.5 -12q-7.5 -7 -30 -18.5q-22 -11.5 -64.5 -31q-15.5 38 -42.5 79.5q-27.5 41 -69.5 88.5q-39 44.5 -77 79.5q-38 34.5 -86.5 68.5q-49 34 -120 76l8 12.5M604.5 -535.5q46.5 -23 82 -45.5q35.5 -22.5 71.5 -51.5q47 -37.5 82 -72q35 -34 67.5 -74.5l9.5 0l7 0l19.5 0q10 0 15 -2.5q5 -2.5 5 -7.5q1.5 -5 -22.5 -18.5q-24 -13 -88 -43q-10 28.5 -29.5 59.5q-19 31 -53.5 72.5q-44 53 -86.5 94.5q-43 41.5 -89.5 76.5q5 6 10.5 12M558 -255q40.5 -16 72.5 -32q32.5 -15.5 62 -34q30 -18 62.5 -41.5q27.5 -19 49 -37.5q22 -18 52 -48q30 -30 82 -85.5q32 0.5 42 -2q10.5 -2.5 9.5 -9q0 -6 -12 -15q-12.5 -8.5 -38.5 -20q-9 -4.5 -23 -11l-32 -15.5q-14.5 33.5 -40.5 71q-25.5 37 -66 80.5q-51.5 57 -106 101.5q-54.5 45 -122.5 85l9 13" />
</g>
<g id="PathID_1079" transform="matrix(0.010049, 0, 0, 0.010049, 50.5, 10.7)">
<path style="fill:#000000;fill-opacity:1" d="M511 -3q64 -11 110 -25.5q46.5 -14.5 89.5 -38q97.5 -52.5 150.5 -133q53 -80.5 53.5 -177.5q0 -74.5 -24.5 -134.5q-24.5 -60.5 -74 -106q-50 -45.5 -118 -69.5q-68 -24.5 -146 -24.5q-67.5 0 -132.5 17.5q-65 17.5 -121.5 49.5q-56.5 32 -98.5 76q-43 48 -67.5 101q-24 53 -24.5 102q0 24 5.5 46.5q6 22.5 18 46.5q14.5 28.5 23 44.5q8 16.5 13 28q5 11 9 24q8.5 24 13.5 36q4.5 12 7.5 18q3.5 6 8 11.5q8.5 10 20 15.5q11.5 6 25 6q28 0 66 -38q38 -38 86.5 -114.5q39 -63.5 69.5 -129.5q30.5 -66.5 47.5 -125.5q17.5 -58.5 18 -99.5q0.5 -21.5 -6.5 -40q-7 -19 -25.5 -45l19.5 -1.5l16.5 -0.5q49.5 0 96 12.5q46.5 12 81.5 34.5q56.5 36.5 86 94q29.5 57.5 29.5 132.5q0 71 -23 133q-23 62 -68 114q-43 50 -100.5 84q-57 34 -139.5 58q3.5 9 7.5 17.5M484 -677q8.5 18.5 11.5 29.5q3 11 3 22q-0.5 32.5 -17 83.5q-16.5 50.5 -45.5 111q-29.5 60.5 -67.5 122q-38.5 60.5 -71 97.5q-33 36.5 -50.5 37.5q-8.5 0 -18.5 -8q-10 -7.5 -20.5 -21.5q-19.5 -27.5 -30 -63q-11 -35 -11 -72.5q1 -79.5 42.5 -150.5q42 -71 113.5 -120.5q71 -50 161 -67" />
</g>
<g id="PathID_1080" transform="matrix(0.010049, 0, 0, 0.010049, 60.75, 10.7)">
<path style="fill:#000000;fill-opacity:1" d="M978 -777.5q12.5 0 12.5 -6q0 -1.5 -1 -3.5l-3 -4q-21.5 -19 -36.5 -32q-15 -13 -30.5 -25.5l-39 -30.5q-14.5 16 -24 27l-19.5 22.5l-23 28.5l-632 0q-33 0 -55 -1q-22 -0.5 -41.5 -3q-19 -2 -43.5 -6l7 38.5q29 -3 59.5 -4q30.5 -1 73.5 -1l271.5 0q-6.5 45 -12 74q-5.5 29 -12.5 54.5q-7 25.5 -18.5 61l-213 0q-18.5 -11.5 -31.5 -19q-13 -7.5 -26.5 -14.5l-33 -16.5l2 26.5l1 31.5q0.5 19 0.5 52.5q0.5 33.5 0.5 90l0 144l0 32l-0.5 52.5l-1 98l-2.5 169l0 3l0 1q-0.5 7 4 9.5q4 2 18.5 2l24.5 -1.5q13 -1 18.5 -2.5q5 -1.5 7 -4q2.5 -2 3 -7.5l0 -49l651.5 0l0 49q0 6 3.5 9q3 2.5 11 2.5q19 0 34.5 -2q16 -2 22 -4.5q3 -2 4.5 -5q1.5 -3 1.5 -8l-1 -97.5q-0.5 -40.5 -0.5 -79.5q-0.5 -39 -0.5 -90.5l0 -129.5l0 -198q17.5 -11.5 25 -18.5q8 -7 7.5 -12q0.5 -2.5 -2 -5q-2.5 -3 -8 -7.5l-23 -18l-20 -14.5q-10 -7 -26 -17.5q-13 15 -21 25l-21 25l-380.5 0q13.5 -17.5 23 -30.5q9 -13 19.5 -30q10 -17 26 -47q16.5 -30 44 -82l426 0M404.5 -408l0 -156.5l189.5 0l0 156.5l-189.5 0M404.5 -384.5l189.5 0l0 166l-189.5 0l0 -166M404.5 -195l189.5 0l0 180.5l-189.5 0l0 -180.5M339 -564.5l0 550l-157 0l0 -550l157 0M661.5 -564.5l172 0l0 550l-172 0l0 -550" />
</g>
<g id="PathID_1081" transform="matrix(0.010049, 0, 0, 0.010049, 71, 10.7)">
<path style="fill:#000000;fill-opacity:1" d="M259 -749.5q20 -5.5 34.5 -10q15 -4.5 30 -9.5q15.5 -5.5 37 -13.5l25 4q9 1.5 12 1.5q5.5 -0.5 8.5 -3q3.5 -2 3.5 -5.5q1 -5.5 -18 -19q-18.5 -14 -70 -45.5q-22 18 -42.5 30.5q-21 13 -52.5 29q-27.5 14 -52.5 25q-25.5 10.5 -55 20q-30 10 -71 21.5q3 7 6.5 14.5l47 -5q19 -2.5 39 -6.5q20.5 -4 52 -11l0 164.5l-88 0l-31.5 -1.5q-12 -1.5 -31 -6.5l8 37.5q13 -3 25.5 -4.5l29 -1.5l79 0q-6 29.5 -11.5 51.5q-5 22.5 -12.5 47q-7.5 24.5 -20 61.5q-19.5 57 -34 95q-14.5 37.5 -30 69.5q-15 32 -36.5 72l10 8.5q32.5 -41.5 58 -83q25.5 -41 48.5 -89.5q22.5 -48.5 46 -111.5l-4 175.5l-2.5 139.5l-1 79q-1 28.5 -1.5 48l-1 46.5q0 7.5 3.5 10.5q3 3 11 3l27 -1.5q14.5 -1 19 -2.5q4.5 -1.5 6 -4.5q1.5 -2.5 2 -7q-0.5 -43.5 -0.5 -72q-0.5 -28.5 -0.5 -56.5l0 -70l0 -112.5l0 -197q18.5 18.5 35 47.5q16.5 29 30.5 65q9.5 25.5 13.5 31.5q3.5 6.5 9 5.5q7 -0.5 14 -10q6.5 -9.5 11 -24q4.5 -14.5 5 -29.5q0 -13.5 -10.5 -28.5q-10.5 -15 -32.5 -32q-18.5 -14 -38.5 -26.5q-20 -12.5 -36.5 -20.5l0 -78l133 0q5.5 0 9 -1.5q3.5 -1.5 3.5 -4.5q0 -1.5 -1.5 -4l-3.5 -4.5q-14.5 -12.5 -24.5 -21.5q-10 -8.5 -20 -16.5l-24.5 -21q-14.5 15 -23 24.5q-9 9.5 -23 25.5l-25.5 0l0 -182M678 -746.5l0 -59.5q21.5 -5 31 -10q10 -5.5 10 -11.5q1 -5 -4 -7.5q-5.5 -3 -29 -6.5l-77.5 -10.5l1.5 38q1 15.5 1 31q0.5 15 0.5 36.5l-158 0l-35.5 -1.5q-14 -1.5 -33 -6.5l7 37.5q15.5 -3 28 -4.5l25.5 -1.5l166 0l0 82l-126 0l-29.5 -1.5q-14 -2 -32 -5.5l7 36.5q16 -3.5 25.5 -5l25 -1l130 0l0 90l-186.5 0q-12.5 0 -28.5 -2q-16 -2 -31 -5q3.5 18 7.5 36.5q14 -3 26 -4.5l26 -1.5l570.5 0q3 0 5.5 -1.5q2.5 -1.5 2.5 -3.5q0 -1.5 -1 -3.5q-0.5 -1.5 -2 -4q-16.5 -15 -28 -25l-23 -19.5q-11.5 -10 -28 -24q-17.5 16.5 -28 28l-28.5 29.5l-187 0l0 -90l247.5 0q5.5 0 9 -1.5q3.5 -1.5 3.5 -3.5q0 -1.5 -1 -4q-1 -2 -3 -4.5q-16.5 -14 -28 -23q-11 -9.5 -22.5 -18l-27.5 -21.5l-19.5 19l-14 14q-7 6.5 -19.5 19.5l-125 0l0 -82l281.5 0q4 0 7 -2q3 -2 3 -5l-0.5 -2.5q-1 -2 -3.5 -5q-17 -14 -28.5 -24l-24 -18.5l-29.5 -23q-17 17 -28.5 27.5q-11.5 11 -29.5 29l-147.5 0M485.5 -110.5l327.5 0l0 19.5q0.5 5 3.5 7q3 2 10 2q32.5 0.5 43.5 -3.5q10.5 -4 9.5 -17q-1 -48.5 -1.5 -84.5q-1 -36 -1 -65.5q-0.5 -29 -0.5 -57l0 -31.5l0 -23l0 -31.5q21 -13 26.5 -18q6 -5 5 -9.5q0.5 -3 -2.5 -6.5q-2.5 -3.5 -8.5 -9l-28.5 -19l-29 -20q-11 11.5 -17.5 19q-7 7.5 -17 20l-306 0l-28.5 -15l-22.5 -11q-11 -5.5 -27 -13q1.5 25 2 71.5q1 46.5 1 126.5l0 86q0 32.5 -0.5 55.5q-0.5 23.5 -1.5 50q0.5 5.5 4 8q3.5 2.5 10.5 2l12.5 -0.5l19 -1.5l10.5 -1q3.5 -1.5 5 -4q1.5 -2.5 2 -7l0 -18.5M813 -343l-327.5 0l0 -72l327.5 0l0 72M813 -319.5l0 78l-327.5 0l0 -78l327.5 0M813 -218l0 84l-327.5 0l0 -84l327.5 0M703.5 -61.5q59 24 107 51.5q47.5 28 84.5 60q16.5 14.5 24.5 20.5q7.5 6.5 11.5 8q3.5 1.5 8 1.5q6 -0.5 10 -7.5q4 -7.5 4.5 -20q-0.5 -7.5 -2 -18.5q-1.5 -10.5 -3.5 -19.5q-4 -19 -18.5 -31q-14.5 -12 -41.5 -20.5q-29 -9 -75.5 -18.5q-46.5 -9.5 -104 -18l-5 12M293 78q41 -8.5 72.5 -17q31.5 -8.5 60 -19.5q28.5 -10.5 60 -26q32 -15.5 74 -38l13.5 0l10 0q16.5 0 24 -2.5q7.5 -2.5 7.5 -7.5q1 -3.5 -4.5 -7q-5 -4 -25 -13q-20 -9.5 -63.5 -28.5q-18.5 20 -36 34.5q-17.5 14 -47 33q-25 17 -47 30q-22.5 12.5 -47 24.5q-25 11.5 -57 24.5q3 6 5.5 12.5" />
</g>
<g id="PathID_1082" transform="matrix(0.010049, 0, 0, 0.010049, 81.25, 10.7)">
<path style="fill:#000000;fill-opacity:1" d="M511 -3q64 -11 110 -25.5q46.5 -14.5 89.5 -38q97.5 -52.5 150.5 -133q53 -80.5 53.5 -177.5q0 -74.5 -24.5 -134.5q-24.5 -60.5 -74 -106q-50 -45.5 -118 -69.5q-68 -24.5 -146 -24.5q-67.5 0 -132.5 17.5q-65 17.5 -121.5 49.5q-56.5 32 -98.5 76q-43 48 -67.5 101q-24 53 -24.5 102q0 24 5.5 46.5q6 22.5 18 46.5q14.5 28.5 23 44.5q8 16.5 13 28q5 11 9 24q8.5 24 13.5 36q4.5 12 7.5 18q3.5 6 8 11.5q8.5 10 20 15.5q11.5 6 25 6q28 0 66 -38q38 -38 86.5 -114.5q39 -63.5 69.5 -129.5q30.5 -66.5 47.5 -125.5q17.5 -58.5 18 -99.5q0.5 -21.5 -6.5 -40q-7 -19 -25.5 -45l19.5 -1.5l16.5 -0.5q49.5 0 96 12.5q46.5 12 81.5 34.5q56.5 36.5 86 94q29.5 57.5 29.5 132.5q0 71 -23 133q-23 62 -68 114q-43 50 -100.5 84q-57 34 -139.5 58q3.5 9 7.5 17.5M484 -677q8.5 18.5 11.5 29.5q3 11 3 22q-0.5 32.5 -17 83.5q-16.5 50.5 -45.5 111q-29.5 60.5 -67.5 122q-38.5 60.5 -71 97.5q-33 36.5 -50.5 37.5q-8.5 0 -18.5 -8q-10 -7.5 -20.5 -21.5q-19.5 -27.5 -30 -63q-11 -35 -11 -72.5q1 -79.5 42.5 -150.5q42 -71 113.5 -120.5q71 -50 161 -67" />
</g>
<g id="PathID_1083" transform="matrix(0.010049, 0, 0, 0.010049, 91.5, 10.7)">
<path style="fill:#000000;fill-opacity:1" d="M325.5 -734l50 -13q20 -5.5 40 -11.5q20.5 -6.5 49.5 -16.5l22 3l12.5 1q8 0 13 -2.5q5.5 -3 5.5 -7.5q1 -2 -3 -6q-4 -4 -23 -17l-61 -42.5q-17 12 -33.5 21.5q-16.5 10 -39 20.5q-22 10.5 -56.5 24.5q-37.5 15.5 -71 28q-33.5 12.5 -71 23.5q-37 11.5 -85 24l6 13.5l61 -7.5q25.5 -4 52 -9q26 -4.5 62 -12l0 156.5l-121 0q-24 0 -41 -2q-17 -2 -37.5 -7l7 38.5q15 -3 31 -4.5l30.5 -1.5l126 0q-17 46 -27.5 73.5q-10 27 -17 44q-7 17 -14.5 32.5q-7 15 -18 37.5q-17 34.5 -34.5 65.5q-17.5 31 -40.5 66.5q-22.5 35 -55 82l11.5 7q53.5 -56 89.5 -101q36 -45.5 64.5 -94q28.5 -49 59 -115q-3.5 90 -6.5 180l-1 37.5l-1 38q-0.5 21 -0.5 52.5l-1.5 82q0 24 -0.5 39.5q0 15.5 -0.5 31.5l-1 40.5q0.5 5.5 3 7.5q2.5 2 7 2l19 -1l22.5 -1.5q10.5 -1 13 -2q3 -1 4.5 -4q1.5 -2.5 1.5 -7q-0.5 -25 -0.5 -44q-0.5 -19.5 -0.5 -47.5l0 -80.5l0 -143.5l0 -158.5q38.5 30.5 67 68.5q28 38.5 56 95q5 10 9 14.5q4 4 9.5 4q10 -0.5 17.5 -20q7.5 -19.5 8 -47.5q0.5 -20 -11.5 -37q-12.5 -16.5 -45 -40q-25.5 -18 -51 -32.5q-25.5 -15 -59.5 -31l0 -94l176 0q4 0 6.5 -1.5q3 -1.5 3 -4.5q0 -1.5 -2 -4q-1.5 -2.5 -5.5 -6.5q-16 -16 -27.5 -26.5l-22.5 -20.5l-28.5 -24.5q-15.5 18.5 -25.5 31q-10 12.5 -26 33.5l-48 0l0 -171M606 -51l249 0l0 66.5l0 1.5l0 0.5q0 12.5 12.5 12.5l0.5 0l0.5 0q3.5 -1 9 -1l12.5 0q25 0 34 -4q9.5 -4 9 -14.5q-3 -52.5 -4.5 -96.5q-1.5 -44.5 -2.5 -91.5q-1 -47.5 -1 -109q-0.5 -61.5 -0.5 -148.5l0 -211q17.5 -10.5 25.5 -17.5q8.5 -7 8.5 -12q0 -2.5 -2 -5.5q-2 -2.5 -7.5 -8q-17.5 -16 -28.5 -25q-11.5 -9 -29.5 -22q-14 13.5 -22.5 22.5q-9 9 -22.5 23.5l-235 0l-27.5 -20q-11.5 -8 -23 -15q-11 -7.5 -28 -17q1.5 22.5 2.5 56.5q1 33.5 1.5 88.5l1 140l0 211.5l0 80l-1 62.5l-1 58.5l-2 67q0.5 8.5 4.5 12q3.5 3.5 12 3.5l3 0l7.5 -0.5l12 -0.5q18 0 26 -4q7.5 -4 7.5 -12.5l0 -2l0 -3l0 -66.5M606 -666.5l249 0l0 592l-249 0l0 -592" />
</g>
<g id="PathID_1084" transform="matrix(0.010049, 0, 0, 0.010049, 101.75, 10.7)">
<path style="fill:#000000;fill-opacity:1" d="M311.5 -382q-27.5 66 -55.5 132l-43 102.5q-9 -30.5 -13 -59.5q-3.5 -29 -3.5 -67.5q0.5 -83 20.5 -169.5q20.5 -86.5 57.5 -164q8 -16.5 11.5 -24.5q3.5 -7.5 4.5 -11.5q0.5 -4 0.5 -9q0 -15 -9.5 -35q-9.5 -20.5 -27.5 -43q-21 -27 -38 -39q-16.5 -11.5 -34 -12q16 25.5 23 46.5q7 21 7 43.5q0 8 -1 17.5q-1 9.5 -4.5 26.5l-10 48q-17.5 79.5 -27.5 139q-10 59.5 -14.5 107.5q-4 48 -4 94.5q0 57.5 8.5 111.5q9 54 24 94q9.5 24 20.5 35q11 11 24 11q6 0 11 -3q4.5 -2.5 8.5 -8q3.5 -5.5 5 -13.5q1.5 -8 2 -31.5q0 -18 3 -36.5q3 -18 10.5 -50.5l16.5 -66.5l22 -83.5q11.5 -43 21 -76l-15.5 -5.5M420 -550.5q37 39 75.5 55.5q38.5 16.5 93 16l45 -2q22 -1.5 45.5 -6l1 130.5l2 109.5l0 6l0 11.5l-35 -2l-27.5 -1q-89 0.5 -140 31.5q-51.5 30.5 -52.5 84q1 47 42.5 75.5q41 28 109 29q77.5 -0.5 120 -31q43 -31 43.5 -86.5q0.5 -5.5 0 -11.5q0 -6.5 -1 -13q29 12 53.5 30q24.5 18 57.5 51.5q14.5 15 22.5 20.5q7.5 5.5 13 5q9 0 14.5 -10.5q6 -10.5 6 -27q0.5 -44.5 -40 -76q-40.5 -31.5 -129 -55q-5 -42 -8 -80q-2.5 -38.5 -4 -85q-1 -46.5 -1 -113.5q53.5 -10.5 94 -23q41 -13 64 -26q22.5 -13 23 -24.5q0 -5.5 -3.5 -10.5q-3.5 -5 -9.5 -8q-10 -5.5 -24.5 -9.5q-14 -3.5 -24 -4q-6.5 0 -10.5 2q-4.5 2 -12 9.5q-13 11.5 -36 21.5q-23 10.5 -58 20.5q3 -52.5 8 -84q5 -32 13.5 -53.5q6.5 -16.5 8 -22q1.5 -5 1 -9.5q0 -11.5 -11 -21q-11.5 -9 -34 -16q-15 -4 -33.5 -6.5q-18.5 -2.5 -36 -2.5q-19 -0.5 -29 3q-10 3.5 -20 13q24.5 2.5 41.5 8q16.5 6 26 16q6.5 6 9.5 17.5q3 11.5 4 40q1 28 0.5 84.5l0 19l0 26q-31.5 7 -60.5 11q-29 3.5 -56 3.5q-37.5 0.5 -67 -9q-29.5 -9.5 -65 -33l-9 11.5M681 -176q0 27.5 -3 43q-3 15.5 -10.5 28.5q-12.5 23.5 -41.5 36q-28.5 12 -71 12q-46 -0.5 -73 -17q-27 -16 -27.5 -43.5q0.5 -34 35 -52.5q35 -18.5 96 -19q28 0 51 3q23 3 44.5 9.5" />
</g>
</svg>
