<?xml version="1.0" encoding="utf-8"?>
<svg version="1.1" id="Layer_1"
xmlns="http://www.w3.org/2000/svg"
xmlns:xlink="http://www.w3.org/1999/xlink"
xmlns:author="http://www.sothink.com"
width="135px" height="13px"
xml:space="preserve">
<g id="PathID_936" transform="matrix(0.010049, 0, 0, 0.010049, -7.75, 10.5)">
<path style="fill:#000000;fill-opacity:1" d="" />
</g>
<g id="PathID_937" transform="matrix(0.010049, 0, 0, 0.010049, -2.65, 10.5)">
<path style="fill:#000000;fill-opacity:1" d="M317.5 -794q31.5 5.5 48.5 14q17 8.5 25 23q4 7 6 18q2.5 11 3.5 34q1.5 23 3 66l2.5 60.5q1 23 2 37.5q1 14 2.5 26q3.5 32.5 11 51q7 18.5 18.5 26.5q12.5 9 23 12.5q10 3 26.5 3q-45 24 -74 43q-29 19.5 -51 39q-50.5 42 -75.5 84.5q-25 43 -25 87.5q0.5 51.5 30 91.5q29.5 40 81.5 60q32.5 11.5 75.5 17.5q43 6 98.5 6q32 0 71 -2l74 -5q34.5 -3 52 -6.5q24 -4 34 -12q10 -8 10 -21.5q-1 -19.5 -18 -34.5q-16.5 -15 -37.5 -16q-4.5 0 -8.5 1l-12 2.5q-37.5 8.5 -80 15q-43 7 -84 10.5q-41 4 -73.5 4q-85.5 0 -128.5 -28q-43.5 -28.5 -43.5 -83.5q0 -36 19 -67.5q19.5 -32 61 -63.5q31.5 -24.5 67.5 -44q35.5 -19.5 81.5 -36.5q45.5 -17 107 -34.5q34.5 -9.5 49 -14.5q15 -5 19.5 -7q10.5 -4.5 16 -12.5q5.5 -8 5.5 -18q-1 -17 -15.5 -29.5q-14.5 -13 -33.5 -13.5q-9 0 -19 2.5q-9.5 3 -23 9.5q-46 22 -72.5 33.5q-26 11 -40.5 15q-14.5 4 -24.5 4q-23 1 -31.5 -15.5q-9 -16 -8.5 -60.5q0.5 -43 3.5 -84q3 -40.5 8 -73.5q5 -32.5 11 -50q5.5 -13 7 -17.5q1.5 -4 1.5 -9.5l0 -0.5l0 -1.5q0 -10.5 -6.5 -18.5q-7 -8 -22.5 -14q-12.5 -5.5 -30.5 -10q-18.5 -4 -37.5 -7q-19.5 -2.5 -35 -2.5q-15 -0.5 -24 3q-9.5 3.5 -20 13" />
</g>
<g id="PathID_938" transform="matrix(0.010049, 0, 0, 0.010049, 7.6, 10.5)">
<path style="fill:#000000;fill-opacity:1" d="M119 -635.5q15 24.5 33.5 43q18 18.5 41 31.5q19 11.5 41 16.5q21.5 5 49 5l22 -1l26.5 -3q-30.5 71 -61 128.5q-30 57 -67 112q-10.5 15.5 -21.5 29.5q-11.5 14 -28 32q-6.5 7 -9 14.5q-2.5 7.5 -2 22.5q0 31 9 51.5q9 20.5 22.5 21q9 0.5 17.5 -8q8 -8.5 19.5 -29q4 -7.5 18 -38q14.5 -30.5 33.5 -72q19 -41.5 37 -82q18.5 -40.5 30 -68q21 -46 34.5 -77q13 -31.5 20 -47q121 -28 174.5 -49q53 -21.5 52 -41q-0.5 -13 -20 -22q-19 -8.5 -50 -8.5q-7 0 -11.5 1.5q-4 1.5 -10 6.5q-13.5 12 -25.5 19.5q-11.5 8 -31.5 16q-19.5 8 -56.5 21q27.5 -57 43.5 -88.5q15.5 -31.5 19 -37.5q6 -9 8 -15q2 -6 2 -11.5q0.5 -10.5 -11 -20.5q-11 -10 -37 -22.5q-22.5 -11 -44.5 -17.5q-21.5 -6 -37.5 -6q-5.5 -0.5 -11 1q-5.5 1.5 -13.5 6q36.5 18 51 36q15 18 14.5 43q0 26 -9 61q-8.5 35 -27.5 84q-29 6.5 -51.5 9.5q-22.5 3 -42 3q-25 0 -45 -5q-20.5 -5.5 -40 -18.5q-20 -13 -44 -36q-6 4 -12 8.5M670 -570q53 17.5 83 33q29.5 16 49 37.5l-28 6l-14.5 4q-5.5 1.5 -13 3q-35.5 9.5 -59 21q-23 11.5 -38 27.5q-14 14.5 -21.5 33q-8 18 -11.5 45q-3 27 -3 68.5l0 13.5q0.5 8.5 1 28q0.5 20 2 59.5q-19 -3 -32 -4l-29.5 -1q-57.5 0.5 -100 15.5q-43 15.5 -67 43q-24 27.5 -24.5 63.5q1 49 43 78.5q42.5 29.5 112.5 30q43.5 0 78 -11.5q34.5 -11.5 55.5 -32.5q15 -16.5 22 -36.5q7 -20.5 6.5 -50.5l0 -8.5l0 -11q39.5 18.5 68 39.5q29 21 56 50.5q15.5 17.5 22 22.5q7 5 14 4.5q9 -0.5 14.5 -10q5.5 -9.5 6 -25q0 -24.5 -10.5 -45q-10 -20 -30.5 -36q-23 -18 -60.5 -35.5q-37.5 -17 -85 -31q-7.5 -52 -12 -86q-4.5 -34 -6.5 -55.5q-2 -21.5 -2 -35q-1 -52 23 -73q24 -20.5 84.5 -20q25.5 0 43 2q17 1.5 30 6.5q13.5 4.5 27.5 13q6.5 4.5 12 6.5q5.5 2 11.5 2q12.5 -0.5 19.5 -8.5q7 -8 7 -21.5q0 -18 -17 -39q-17 -21 -47.5 -41q-35 -23.5 -78.5 -37.5q-43.5 -14 -96.5 -18.5l-3 16.5M617.5 -110.5q0 48.5 -32 73.5q-31.5 25 -94 25q-48 0 -75 -16q-27 -16 -27.5 -44.5q0.5 -36.5 37.5 -57q37 -20.5 103 -21q24 0 44.5 2.5q20.5 3 43.5 10l0 27.5" />
</g>
<g id="PathID_939" transform="matrix(0.010049, 0, 0, 0.010049, 17.85, 10.5)">
<path style="fill:#000000;fill-opacity:1" d="M601 -716.5l3.5 -1.5l1.5 -0.5l2 0l1 0q0 -1 0.5 -1l0.5 0q1 0 2 1q1 0.5 1 1q-1 3 -2.5 6q-1.5 2.5 -7.5 10.5q-30 38.5 -55 69.5q-25 31 -51 61.5q-26 31 -59 68.5q-33.5 38 -80 90l-66.5 73q-24.5 25.5 -40.5 40.5q-16.5 14.5 -35 28.5q-11 9 -16 18q-5.5 8.5 -5.5 18q0 15.5 5.5 30.5q5 15.5 12.5 25.5q8 10 16 10.5q7 0 14.5 -6q7.5 -6 20 -22q43.5 -54.5 100 -97.5q56.5 -42.5 115.5 -67.5q59 -24.5 110 -25q30.5 0 57.5 5.5q27.5 5.5 44 15q31 18.5 47 51.5q16.5 32.5 16.5 75.5q-0.5 65.5 -33 115.5q-32 50 -91 76q-11 -22 -21.5 -36.5q-10 -14.5 -23.5 -27q-25.5 -24 -59 -37q-33 -13.5 -71 -13.5q-48.5 1 -79 25q-30.5 24 -31.5 62q1 47.5 44.5 74.5q44 27.5 120 28q93.5 -0.5 166 -33.5q72.5 -33 114 -90q41 -57.5 42 -131.5q-0.5 -57.5 -27.5 -100.5q-27.5 -42.5 -76.5 -66.5q-49.5 -23.5 -115.5 -24q-63.5 -0.5 -130.5 23q-66.5 23 -148 74l-2 -2q10 -9.5 19 -19l31 -33l70 -75q35 -37 69 -71.5q34 -35 81.5 -82q22 -22 35.5 -34.5q13.5 -12 24 -19.5q11 -7.5 25.5 -14.5q9 -4.5 13 -9.5q4.5 -4.5 4.5 -10q0 -9 -6.5 -19q-7 -10.5 -24.5 -27q-19 -19 -32 -27.5q-13.5 -8.5 -23 -8.5q-4 0 -8 1.5q-3.5 1.5 -6.5 3.5q-10.5 9 -17 13.5q-7 4.5 -17 8.5l-29.5 10q-36 11 -75.5 21q-39.5 10 -71.5 16.5q-32.5 6.5 -46.5 6.5q-25.5 0 -45.5 -19.5q-19.5 -19 -31.5 -55.5q-5 8 -7 14q-2 6 -2 13q0 16 7.5 35.5q7.5 19.5 21 40q15 21.5 30 32.5q14.5 10.5 28.5 10.5q6 0 16.5 -3q10 -3.5 25.5 -10.5q36 -15.5 76 -31.5q40 -16.5 75 -29.5q35 -13 56 -19.5l5 -2M563 -21.5q-23 5 -38 7q-15 2 -34.5 2q-54.5 -0.5 -85.5 -17q-31 -16.5 -31.5 -45.5q0.5 -24 17.5 -38q17.5 -13.5 47 -14q43.5 0.5 76.5 28q32.5 28 48.5 77.5" />
</g>
<g id="PathID_940" transform="matrix(0.010049, 0, 0, 0.010049, 28.1, 10.5)">
<path style="fill:#000000;fill-opacity:1" d="M275.5 -721q21 22.5 36.5 36q16 13.5 35.5 23.5q24.5 12.5 56 20q31.5 7.5 60.5 7.5q15 0 37 -1l40 -2l-14.5 8.5q-6.5 4 -22 12.5l-49.5 27q-19.5 10.5 -35.5 20l-39.5 23l7 15.5q13.5 -5 20 -8l20 -8.5l43 -18.5l21.5 -9l19.5 -7.5l74.5 -28q25.5 -9 41 -13.5q15.5 -4.5 34 -8.5q34 -7.5 50 -12q16 -5 20.5 -10q5 -5 4.5 -13.5q-0.5 -11.5 -10 -24q-10 -12 -24 -20.5q-14 -8.5 -27.5 -9q-2.5 0 -8 1.5q-5 1 -10.5 3q-30 9 -66.5 16q-36.5 7 -74.5 10.5q-38 4 -72 4q-34 0 -59.5 -4q-25.5 -4 -48.5 -14q-23 -10 -48.5 -27q-5.5 5 -10.5 10M237 -331q-8.5 25.5 -12.5 46.5q-4 21.5 -4 39.5q0.5 49.5 23 93q23 43.5 62 69q37.5 26 95.5 37.5q57.5 11.5 143 11.5q46 0 92 -2.5q45.5 -2.5 84 -7q38.5 -5 62.5 -11q16 -4 24.5 -12q8 -8 8 -19.5q0 -9.5 -5.5 -18.5q-6 -9 -17 -17.5q-13.5 -8.5 -28.5 -14.5q-15.5 -5.5 -27.5 -6q-4 0 -8.5 1q-4.5 1 -9 3q-46 17 -105.5 27q-59.5 10 -121 10q-123 0 -182.5 -44q-59.5 -44 -59 -135q0 -10.5 1 -20q0.5 -10 2 -26.5l-17 -4" />
</g>
<g id="PathID_941" transform="matrix(0.010049, 0, 0, 0.010049, 38.35, 10.5)">
<path style="fill:#000000;fill-opacity:1" d="M317.5 -794q31.5 5.5 48.5 14q17 8.5 25 23q4 7 6 18q2.5 11 3.5 34q1.5 23 3 66l2.5 60.5q1 23 2 37.5q1 14 2.5 26q3.5 32.5 11 51q7 18.5 18.5 26.5q12.5 9 23 12.5q10 3 26.5 3q-45 24 -74 43q-29 19.5 -51 39q-50.5 42 -75.5 84.5q-25 43 -25 87.5q0.5 51.5 30 91.5q29.5 40 81.5 60q32.5 11.5 75.5 17.5q43 6 98.5 6q32 0 71 -2l74 -5q34.5 -3 52 -6.5q24 -4 34 -12q10 -8 10 -21.5q-1 -19.5 -18 -34.5q-16.5 -15 -37.5 -16q-4.5 0 -8.5 1l-12 2.5q-37.5 8.5 -80 15q-43 7 -84 10.5q-41 4 -73.5 4q-85.5 0 -128.5 -28q-43.5 -28.5 -43.5 -83.5q0 -36 19 -67.5q19.5 -32 61 -63.5q31.5 -24.5 67.5 -44q35.5 -19.5 81.5 -36.5q45.5 -17 107 -34.5q34.5 -9.5 49 -14.5q15 -5 19.5 -7q10.5 -4.5 16 -12.5q5.5 -8 5.5 -18q-1 -17 -15.5 -29.5q-14.5 -13 -33.5 -13.5q-9 0 -19 2.5q-9.5 3 -23 9.5q-46 22 -72.5 33.5q-26 11 -40.5 15q-14.5 4 -24.5 4q-23 1 -31.5 -15.5q-9 -16 -8.5 -60.5q0.5 -43 3.5 -84q3 -40.5 8 -73.5q5 -32.5 11 -50q5.5 -13 7 -17.5q1.5 -4 1.5 -9.5l0 -0.5l0 -1.5q0 -10.5 -6.5 -18.5q-7 -8 -22.5 -14q-12.5 -5.5 -30.5 -10q-18.5 -4 -37.5 -7q-19.5 -2.5 -35 -2.5q-15 -0.5 -24 3q-9.5 3.5 -20 13" />
</g>
<g id="PathID_942" transform="matrix(0.010049, 0, 0, 0.010049, 48.6, 10.5)">
<path style="fill:#000000;fill-opacity:1" d="M148.5 -665.5q23 30 45 47.5q22 17 47.5 24.5q25.5 7 60 7l29.5 -1q14.5 -1.5 39 -5q-36 54 -65.5 93q-29.5 38.5 -59.5 68.5q-29.5 30 -65.5 58.5q-14 11 -20.5 17.5q-6 6 -8 12q-1.5 6 -1 16.5q0 24.5 7.5 39.5q7.5 14.5 20 14.5q7.5 0.5 15.5 -6.5q8.5 -6.5 22.5 -26q56 -71 113.5 -109.5q57 -38.5 108.5 -39q17.5 0 31 8.5q14 8 21.5 22q7.5 15.5 10.5 32.5q3 17.5 3.5 48.5q-49.5 31 -78.5 51.5q-29.5 21 -48.5 39.5q-37.5 36 -55.5 70q-18 34.5 -18 70.5q0 37 18 63.5q18.5 26.5 57.5 45q31 14.5 83.5 22q52 7.5 124.5 7.5q32.5 0 66.5 -2l65 -5q30.5 -3 52 -7.5q15.5 -3 23.5 -10q8.5 -7.5 8.5 -17.5q-0.5 -11.5 -11.5 -23.5q-11 -11.5 -27.5 -19.5q-16.5 -8 -33 -8l-9 0.5l-10.5 2.5q-47 13.5 -99.5 21q-52.5 7.5 -106.5 7.5q-86 0 -128.5 -20q-42.5 -20.5 -42.5 -62q0 -23 12.5 -46.5q12.5 -24 38 -48.5q19 -18.5 46 -37q27 -18.5 73.5 -44q-0.5 34 -2.5 60.5q-1.5 27 -4.5 49q-1 5.5 -1 9.5l0 8q0 13.5 9 22q9 8.5 23.5 8.5q9.5 0 17 -5.5q8 -5 12 -13.5q3.5 -8 6 -31q2 -22.5 2 -57l0 -34q0 -12.5 -0.5 -23q0 -10.5 -0.5 -26q41 -20.5 93 -42q52 -21.5 101 -38.5q49 -17.5 80.5 -25q21.5 -4.5 29.5 -11q8 -7 7.5 -20.5q-1 -21.5 -20 -45q-19 -24 -45.5 -41q-26.5 -16.5 -50 -17.5l-10.5 1q-5 1.5 -13 5q22.5 9.5 34.5 22.5q12.5 12.5 12.5 25.5q0.5 9 -10 19.5q-11 10 -38.5 25.5q-27.5 16 -77.5 41q-41 20.5 -59.5 30q-18 9.5 -26 13q-7.5 3.5 -15 7.5q-7.5 -47 -38.5 -74.5q-30.5 -27.5 -76.5 -28q-28 0 -59 9.5q-30.5 9.5 -73 31.5l17 -24l16 -24l22.5 -34q17 -26 29 -43.5q12 -18 25 -36.5q41 -8 74.5 -15.5q34 -8 69 -18q35 -10 80 -24.5q23 -8 33.5 -16q10.5 -8 10.5 -17q-0.5 -15 -19.5 -24q-18.5 -9.5 -49 -10q-5.5 0 -10 2q-5 1.5 -9.5 5.5q-16.5 14 -34.5 24q-17.5 10.5 -44 20q-26.5 9.5 -69 21.5l8.5 -12.5l17 -27.5l14.5 -20.5q8 -12 15 -21.5q9 -11 13 -18q3.5 -6.5 3.5 -11.5q0 -9.5 -9 -18q-8.5 -8.5 -28 -16q-20 -8.5 -41 -13q-20.5 -4.5 -38.5 -4.5q-14 0 -24 2.5q-10 2 -22.5 9q39.5 9.5 56.5 23q17 14 16.5 34q0 17.5 -9.5 44.5q-9.5 27 -26.5 60q-34.5 7 -60 10.5q-25.5 3 -49.5 3q-27 0 -46.5 -4q-20 -4 -38.5 -14.5q-19 -10.5 -43 -29.5l-11 9" />
</g>
<g id="PathID_943" transform="matrix(0.010049, 0, 0, 0.010049, 58.85, 10.5)">
<path style="fill:#000000;fill-opacity:1" d="M705.5 -359.5l0 256.5l0 20.5l-0.5 23.5l-0.5 44q0 19.5 4.5 31.5q4.5 11.5 16 18.5q6.5 5 16 7q9.5 2 32 3q23 0.5 69 0.5q56.5 0 89 -3.5q32.5 -3.5 46 -12.5q13.5 -8.5 13 -24q0.5 -10 -5.5 -16.5q-5.5 -6.5 -20 -13.5q-8.5 -3.5 -12 -8.5q-3.5 -5.5 -3.5 -14l0 -2l0 -3q5 -87.5 9.5 -175l-14.5 -1.5q-20.5 89.5 -34.5 139.5q-14 50.5 -20.5 59.5q-5 9 -17.5 12q-12.5 2.5 -45 2.5q-35 0 -45.5 -2.5q-10 -3 -9 -12l0 -330l56.5 0l0 37q-0.5 8 3.5 11q4.5 2.5 17 2q28.5 0.5 38.5 -3q10 -4 9.5 -15q-1 -35 -1.5 -74.5q-0.5 -39 -0.5 -95.5l0 -96.5q25 -18 30.5 -23q5.5 -5 4.5 -8.5q0 -3 -3 -6.5q-2.5 -3.5 -9.5 -8q-16.5 -13 -28 -21.5q-11.5 -8.5 -31.5 -21.5q-11.5 13 -19 22q-7 8.5 -18.5 23l-89.5 0q28.5 -30 48.5 -53.5q20 -23 37 -46q17.5 -23 37.5 -53q26 -2 37.5 -6q12 -3.5 11.5 -11q0.5 -7 -26.5 -18.5q-27 -11 -88 -28q-7 43.5 -28 98q-21 55 -54 118l-164.5 0l-28 -20q-11.5 -8 -23 -15l-29 -17l1.5 53.5q1 20 1 33.5q0.5 13 0.5 25.5q0 46.5 -0.5 95q-0.5 48.5 -1.5 91q-1 42 -2 70q-0.5 8 5.5 11q6 2.5 26 2.5q21 0 29.5 -4q8 -3.5 8.5 -12.5l0 -35l42 0l0 8l0 5.5q0 47 -10 97.5q-10 51 -27 92q-28 66.5 -77 120.5q-49.5 54 -127 101q3.5 6.5 6.5 13.5q33.5 -13.5 53.5 -23.5q20.5 -10 40.5 -23q46.5 -28.5 83 -63.5q36 -34.5 61.5 -75q28.5 -46 44.5 -109.5q16 -63.5 19 -143.5l65.5 0M530.5 -614.5l298 0l0 231.5l-298 0l0 -231.5M90 -746.5q20 -3 33.5 -4l30 -1l246 0q4 0 6 -1.5q2 -1.5 2 -3.5l-0.5 -4l-2.5 -4.5l-25.5 -24.5q-10.5 -10 -21.5 -19l-27 -23q-15.5 17 -26 28l-26 28.5l-125 0q-12.5 0 -21.5 -0.5q-9 -0.5 -20 -2.5q-11 -1.5 -29 -5l7 36.5M37.5 -609.5q22.5 -3 38 -4q15.5 -1 36 -1l329 0q5.5 0 8 -1.5q3 -1.5 3 -4.5l-0.5 -3.5l-3.5 -4q-17.5 -15.5 -29.5 -26.5q-12 -10.5 -24.5 -20.5l-30 -24.5l-28.5 31q-11 11.5 -27 30.5l-196.5 0q-18.5 0 -38 -2.5q-19.5 -2 -43 -6.5l7 37.5M83 -484.5q19 -3 32 -4l25 -1l263.5 0q3 0 5.5 -2.5q2.5 -2 2.5 -4.5q0.5 -1 -1 -3q-1 -2 -4 -4.5l-26 -22.5q-10.5 -9.5 -21.5 -18.5q-11 -9 -27.5 -21.5q-16 16 -25.5 26.5q-10 10.5 -24.5 27l-137.5 0q-14.5 0 -30.5 -2q-15.5 -1.5 -38 -6q3.5 18 7.5 36.5M83 -347q19 -3 32.5 -4l29.5 -1l258.5 0q4 -0.5 6.5 -2.5q2.5 -2 2.5 -5q0 -1 -1 -3.5q-1.5 -2 -3 -4.5l-26 -25q-11 -10 -22.5 -19.5q-12 -10 -29.5 -23l-28 29l-27 30.5l-130.5 0q-14.5 0 -31.5 -2q-17 -1.5 -38 -5.5q3.5 18 7.5 36M158.5 9.5l149.5 0l0 12.5q0 7 4 9.5q4 2.5 17.5 2.5q25.5 0.5 35 -3q9.5 -3.5 10.5 -13.5l-1 -34l0 -32.5l0 -50l0 -86q21.5 -11 29 -17q7 -6 6.5 -11.5q0 -3 -2.5 -7q-2.5 -4 -7.5 -8.5l-27 -22.5q-10.5 -9 -29.5 -22.5q-12.5 12 -20 20l-19 21l-139.5 0q-15 -11.5 -25 -19.5l-21.5 -15q-11 -7.5 -28 -18l1.5 42q1 19 1 42.5q0.5 23.5 0.5 59l0 36q0 15 -0.5 33.5l-0.5 49.5l-1 83.5q0.5 8.5 5 11q4.5 2.5 18.5 2.5q26.5 0.5 35.5 -3.5q9 -3.5 8.5 -15l0 -46M158.5 -209.5l149.5 0l0 195.5l-149.5 0l0 -195.5M491.5 -838.5q19 25 31.5 46q13 21.5 23 45q10 23.5 20.5 55.5q7 22.5 10.5 28.5q3 6 9 5q8.5 -0.5 17.5 -11q9.5 -10 16 -25q7 -14.5 7 -28.5q0.5 -13.5 -7 -25.5q-8 -12.5 -27.5 -30q-18.5 -16.5 -41 -35q-22.5 -18 -48 -36.5q-6 5.5 -11.5 11.5" />
</g>
<g id="PathID_944" transform="matrix(0.010049, 0, 0, 0.010049, 69.1, 10.5)">
<path style="fill:#000000;fill-opacity:1" d="M845 -301l0 255q0.5 11 -2.5 15q-3 3.5 -13 3.5l-3 0l-53.5 -1.5l-37.5 -1.5l-34 -1.5l-44 -2l0 19.5q54 5 81.5 11.5q27.5 6.5 40 20.5q12 14 20 42q48 -7.5 71.5 -15.5q23.5 -7.5 34.5 -20.5q9.5 -9.5 13 -22q3.5 -13 3.5 -35.5q-0.5 -17.5 -0.5 -27.5q-0.5 -10.5 -0.5 -22l0 -33q-0.5 -23 -0.5 -35.5q-0.5 -12.5 -0.5 -26q-0.5 -13.5 -1 -39l0 -527.5q15.5 -8.5 25.5 -16.5q10 -8 10.5 -12q0 -2.5 -2.5 -5l-7 -7.5q-18.5 -15 -31.5 -24.5q-13 -9.5 -34 -25.5q-12 13.5 -19.5 22.5q-8 8.5 -20 22.5l-246 0q-16 -12 -27 -20q-11 -7.5 -22.5 -14.5q-11 -7 -28 -16.5q2 39.5 3 73q1 33.5 1.5 66q0.5 32.5 0.5 70q0 119.5 -4.5 203.5q-4.5 84 -16 143q-12 59.5 -32 104.5q-20.5 45 -52 87.5q-21.5 28.5 -43.5 52q-22 23 -50 45.5q-27.5 22 -66 47.5l8 15.5q54.5 -28 94 -55q39.5 -27 70 -58q31 -30.5 59 -70q33 -44 52 -88q19.5 -44 29 -96.5l275.5 0M587 -562l1.5 -94l0.5 -42l0 -17l0 -22l-1 -31l258 0l0 206l-259 0M845 -538.5l0 214l-271.5 0q4.5 -30 7.5 -80q3 -50.5 4.5 -134l259.5 0M156.5 -257l187.5 0l0 60.5q0.5 6.5 4 9.5q3.5 3 10.5 2.5q32 0.5 42.5 -3.5q11 -4.5 11.5 -18q-0.5 -36 -0.5 -58.5q-0.5 -22.5 -0.5 -36l0 -22l0 -403.5q19 -11.5 26 -16.5q7 -5.5 7 -9q0 -2.5 -2 -5q-2 -3 -7.5 -7.5q-16.5 -14.5 -27.5 -23.5l-28.5 -22.5l-20 20.5l-20 21.5l-176.5 0l-27 -18.5q-11 -7.5 -22.5 -14q-11 -7 -28 -16.5l2 50.5l1 59l1 83l0 124.5l0 108l-1 82l-1 69l-2 71q1.5 8.5 4.5 11.5q3 3.5 9.5 4l39 -2q12 -1.5 15 -5q3 -4 3.5 -12.5l0 -83M344 -527.5l-187.5 0l0 -217l187.5 0l0 217M344 -504l0 223.5l-187.5 0l0 -223.5l187.5 0" />
</g>
<g id="PathID_945" transform="matrix(0.010049, 0, 0, 0.010049, 79.35, 10.5)">
<path style="fill:#000000;fill-opacity:1" d="M846.5 -195.5q-26 22 -47 38q-20.5 16 -40 28.5q-20 12.5 -43 24.5q-59 31 -119.5 48q-61 17 -114 17.5q-27 0 -50.5 -7.5q-23.5 -7 -40.5 -20q-21.5 -17.5 -31.5 -47q-9.5 -29.5 -9.5 -76q0 -37 3.5 -91.5q3.5 -54 9.5 -115.5q6 -61.5 13 -119.5q7 -58 14 -102q7.5 -43.5 13 -63q6.5 -17 8.5 -24.5q1.5 -7.5 1.5 -12.5q0 -16 -15 -31.5q-15 -15 -44.5 -29q-24.5 -10.5 -49 -17q-25 -6.5 -43.5 -6.5q-8 0 -14 2q-6.5 2.5 -14.5 8.5q36 14.5 54 29.5q18 14.5 23.5 39q6 24.5 5.5 67.5q0 17.5 -0.5 37.5q-0.5 20 -2 52l-4.5 86.5q-3 47 -4.5 93q-2 46 -3 85.5q-1 40 -1 68.5q0 64.5 6.5 105.5q7 41.5 22 67.5q24 41.5 67.5 64q44 22.5 102.5 23q64 0 128 -25.5q63.5 -25 122.5 -72.5q59.5 -47 109 -114l-12.5 -11" />
</g>
<g id="PathID_946" transform="matrix(0.010049, 0, 0, 0.010049, 89.6, 10.5)">
<path style="fill:#000000;fill-opacity:1" d="M107.5 -668q-6.5 9 -9 15q-2.5 6 -2 12q0 12.5 7 31q7 18.5 19.5 37.5q18 28 39 44q21 16 40 16.5q9 0.5 17.5 -2.5q8.5 -3 23.5 -12q25.5 -13.5 70 -31.5q44 -18 93.5 -34q58 -19 107.5 -32q49 -13.5 94.5 -23q45.5 -9 92 -15.5q-42.5 21.5 -72 39.5q-30 18.5 -52.5 36.5q-22.5 18.5 -42.5 40.5q-53.5 58 -82.5 122.5q-28.5 64.5 -29 127.5q0 71.5 30 129.5q30 58 88.5 100q29.5 20.5 66.5 37.5q37 16.5 74.5 26q37 10 67 10q17 0 27.5 -7.5q10 -8 10.5 -21q-0.5 -9.5 -8.5 -22.5q-8.5 -12.5 -22.5 -26.5q-10.5 -10 -19.5 -13.5q-8.5 -3.5 -23.5 -3q-22.5 -1 -50.5 -7.5q-28 -6.5 -54 -17q-66 -29 -100.5 -80q-34.5 -51 -34.5 -122q0.5 -65 29 -125.5q28.5 -60.5 77.5 -108.5q48.5 -48 110 -76q61.5 -28.5 127.5 -29l13 0.5q6 0 15.5 1.5q5.5 1 10.5 1l8 0q15 0 23.5 -7q8.5 -7 8.5 -18.5q0 -10.5 -7.5 -20q-7 -9 -22.5 -19q-15.5 -9.5 -30.5 -15.5q-15 -6 -24.5 -6q-6 0 -13.5 2q-7.5 1.5 -22.5 6q-15 5 -32 10q-17.5 4.5 -42.5 10q-25 5.5 -63.5 13q-51 10 -92.5 19q-41.5 9 -73.5 17q-85 20.5 -137 32.5q-52 12.5 -80 18.5q-28 6 -42.5 8l-24 1.5q-15 0 -25.5 -3.5q-10 -4 -20.5 -14q-12 -10.5 -19.5 -22.5q-7.5 -12 -14.5 -30" />
</g>
<g id="PathID_947" transform="matrix(0.010049, 0, 0, 0.010049, 99.85, 10.5)">
<path style="fill:#000000;fill-opacity:1" d="M473 47q48.5 -23 84 -48q36 -25 69.5 -57.5q27 -25.5 48 -53q21.5 -27.5 41 -62.5q20 -35.5 42 -84q41 27 69.5 49.5q28.5 22.5 52.5 46.5q13.5 12.5 21 17q7.5 5 14 4.5q10 0 16.5 -10.5q6.5 -10.5 7 -26q0.5 -27 -13 -48.5q-14 -21.5 -48 -44q-34 -23 -95 -53q7 -23.5 11.5 -37q4.5 -14 7 -23q3 -9 5 -18q11.5 -35.5 17 -53.5q5.5 -18.5 8 -23.5q5.5 -14.5 7.5 -21.5q1.5 -7 1.5 -14q0 -14 -12 -26.5q-11.5 -12.5 -36 -25q-23 -11.5 -41 -17.5q-18 -6 -31 -6q-5 0 -9 1.5q-4 1 -9 5q28.5 17.5 41 34q12.5 16 12 36.5q0 17 -5 45.5q-4.5 28.5 -12.5 60q-7.5 32 -16.5 59.5q-75 -27 -146 -41q-71 -14 -147.5 -17.5q5 -9 9 -18l12 -23.5l21 -41.5q34.5 -69 53 -103q18 -34.5 28.5 -48.5q10.5 -14 22 -22.5q8 -6 11.5 -12q3.5 -5.5 3.5 -11.5q-0.5 -14 -14 -32.5q-13.5 -18.5 -30.5 -32.5q-17 -14.5 -29 -15q-7 0 -12 2q-5 2 -9.5 7q-10 9 -18 13q-8 3.5 -27 8.5q-37.5 9 -63 13.5q-26 4 -45.5 4q-28 0.5 -45 -13.5q-17 -14 -32 -49q-6.5 6 -9 11q-2.5 5 -2 12.5q0 25 9.5 47.5q9.5 23 24 37q14.5 14.5 31 15q6.5 0 14 -1.5l19.5 -5.5q27 -9.5 56 -19q29.5 -10 54 -17.5q24.5 -7.5 37.5 -11q-8 27 -14 45q-6 18 -14.5 40q-8.5 21.5 -24.5 59.5l-33.5 76q-12 28.5 -19 43.5q-6.5 15.5 -11 24l-9.5 17.5q-61.5 4.5 -111 22q-49.5 17 -83.5 45.5q-33 28 -51 65q-18.5 36.5 -18.5 76.5q1 45.5 23.5 76.5q22 31 55.5 32q21 0 45.5 -17.5q24.5 -18 52.5 -53.5q17 -22 34 -47.5q16.5 -25.5 38 -62q21 -37 52 -93q86.5 3.5 157 21.5q71 18 137 53q-22 57.5 -43 99q-21 41 -48.5 78.5q-18 25 -37.5 47q-19 22 -45 45q-26 23.5 -62.5 53.5l8 11M350 -362.5q-58 115.5 -94.5 166q-36.5 50 -61 49q-17.5 -1 -30.5 -22.5q-13 -22 -13.5 -51q0 -59.5 50.5 -95q50.5 -35.5 149 -46.5" />
</g>
<g id="PathID_948" transform="matrix(0.010049, 0, 0, 0.010049, 110.1, 10.5)">
<path style="fill:#000000;fill-opacity:1" d="M377.5 -785.5q33 5.5 51.5 14.5q18 9 26.5 26.5q8 17 11.5 46q2 20 4 37q1.5 17 2.5 43.5l2.5 73q1 46.5 2 125.5q1.5 79 3 201.5l-23 -1l-16 0q-40.5 0 -79 6.5q-39 6.5 -69.5 18q-48.5 18.5 -73.5 47q-25.5 28.5 -25.5 65.5q1 52 47 81.5q46.5 29.5 128 30q28.5 0 57 -4q28 -4.5 47.5 -11.5q36.5 -13.5 54.5 -38.5q18 -25 18 -62.5l0 -15l-0.5 -17l-1.5 -34.5q47 14 83 30q35.5 16 70 40q35 23.5 77.5 60q8 7 14 10q5.5 3 10.5 3q10 0 15.5 -10q5 -10 5 -28.5q0 -27 -15 -48.5q-15.5 -21.5 -48.5 -39.5q-45.5 -26.5 -100.5 -45.5q-55.5 -19 -115.5 -29.5q-3 -34 -5.5 -80.5q-2.5 -47 -4 -96q-1.5 -49.5 -2 -90.5l0 -18.5l0 -26.5q16.5 14 32 20q15 5.5 37 5.5q28.5 0 64.5 -8q36 -8.5 77.5 -24q35 -12.5 48 -21q13 -9 12.5 -20q0.5 -6.5 -4.5 -12q-5 -5.5 -17 -12.5q-11 -5.5 -24 -9q-12.5 -4 -20 -4q-4.5 0 -9.5 2.5q-5 2.5 -13 8.5q-19.5 15 -48.5 29q-29 13.5 -58 22.5q-29 8.5 -49 9q-9 0 -14.5 -2q-6 -2.5 -13.5 -9.5l0 -11l0 -8q0.5 -26.5 3 -54.5q3 -28 7.5 -52.5q4.5 -24.5 10 -40.5q6 -14.5 7.5 -19q1 -4.5 1 -10q0 -15 -12.5 -26q-13 -11 -39 -18q-22 -6 -42.5 -9q-21 -3 -39 -3q-16.5 -0.5 -26 3q-9.5 3 -21.5 12M480 -169q0 34.5 -1 55q-1.5 21 -5 33q-3.5 11.5 -10.5 19.5q-15 19.5 -49 30.5q-33.5 11.5 -79 11.5q-54.5 0 -84.5 -17q-29.5 -16.5 -30 -47.5q0.5 -26 23.5 -45.5q23 -19.5 64 -30.5q40.5 -11 93.5 -11l27.5 0q11.5 0 23 0.5l27.5 1.5" />
</g>
<g id="PathID_949" transform="matrix(0.010049, 0, 0, 0.010049, 120.35, 10.5)">
<path style="fill:#000000;fill-opacity:1" d="M376.5 -853q28.5 46 70 72.5q41 26.5 103.5 39q-20.5 7.5 -67.5 28l-106 47.5l5.5 14.5q78.5 -23 123 -35.5l67.5 -18.5q23 -5.5 36 -7l28.5 -1.5q20.5 0 31 -6q11 -5.5 11 -16.5q0 -7.5 -5.5 -16.5q-5.5 -9 -16 -18.5q-15 -12.5 -28 -18.5q-12.5 -6 -27.5 -6l-23.5 0q-54.5 0 -104 -17q-49.5 -16.5 -87.5 -48.5l-10.5 8.5M452.5 81q43.5 -19 83.5 -49q40 -29.5 77.5 -71q61 -68.5 94 -153.5q32.5 -85.5 33 -177q0 -46.5 -10.5 -85q-10 -38.5 -28.5 -65.5q-23 -32 -57 -50.5q-34 -18 -70 -18.5q-25.5 0 -49 4.5q-23 5 -52 18q-29.5 12.5 -72 36q-39.5 21.5 -62 31q-22 9 -32.5 9q-20 0 -34.5 -18.5q-14.5 -18 -21.5 -52q-9.5 11 -13 19.5q-3.5 8.5 -3.5 18q0 14.5 7 32.5q7.5 18.5 20.5 36.5q16.5 22.5 34 34q17.5 12 33.5 12q11.5 0.5 20 -4.5q8.5 -5 22 -19q53.5 -58 104.5 -89.5q51 -31 92 -31.5q46 0.5 71.5 44q25.5 43 26 120q0 53 -10.5 108q-11 55.5 -30.5 107.5q-19.5 52 -46 96q-25.5 41.5 -58 76q-32.5 35 -77 71l9 11.5" />
</g>
<g id="PathID_950" transform="matrix(0.010049, 0, 0, 0.010049, 130.6, 10.5)">
<path style="fill:#000000;fill-opacity:1" d="M192.5 -169q-36.5 0.5 -66.5 18q-29.5 18 -47.5 47.5q-17.5 30 -18 66.5q0.5 37 18 67q18 29.5 47.5 47.5q30 17.5 66.5 18q36.5 -0.5 66.5 -18q29.5 -18 47.5 -47.5q17.5 -30 18 -67q-0.5 -37 -18 -67q-17.5 -29.5 -47 -47q-30 -17.5 -67 -18M192.5 -136q42.5 1 70 29q28 28 29 70q-1 42.5 -29 70.5q-27.5 28 -70 29q-41.5 -1 -70 -29.5q-28 -28 -29 -70q1 -42 29 -70q27.5 -28 70 -29" />
</g>
</svg>
