<?xml version="1.0" encoding="utf-8"?>
<svg version="1.1" id="Layer_1"
xmlns="http://www.w3.org/2000/svg"
xmlns:xlink="http://www.w3.org/1999/xlink"
xmlns:author="http://www.sothink.com"
width="137px" height="13px"
xml:space="preserve">
<g id="PathID_1033" transform="matrix(0.010049, 0, 0, 0.010049, -1.2, 10.55)">
<path style="fill:#000000;fill-opacity:1" d="M119 -635.5q15 24.5 33.5 43q18 18.5 41 31.5q19 11.5 41 16.5q21.5 5 49 5l22 -1l26.5 -3q-30.5 71 -61 128.5q-30 57 -67 112q-10.5 15.5 -21.5 29.5q-11.5 14 -28 32q-6.5 7 -9 14.5q-2.5 7.5 -2 22.5q0 31 9 51.5q9 20.5 22.5 21q9 0.5 17.5 -8q8 -8.5 19.5 -29q4 -7.5 18 -38q14.5 -30.5 33.5 -72q19 -41.5 37 -82q18.5 -40.5 30 -68q21 -46 34.5 -77q13 -31.5 20 -47q121 -28 174.5 -49q53 -21.5 52 -41q-0.5 -13 -20 -22q-19 -8.5 -50 -8.5q-7 0 -11.5 1.5q-4 1.5 -10 6.5q-13.5 12 -25.5 19.5q-11.5 8 -31.5 16q-19.5 8 -56.5 21q27.5 -57 43.5 -88.5q15.5 -31.5 19 -37.5q6 -9 8 -15q2 -6 2 -11.5q0.5 -10.5 -11 -20.5q-11 -10 -37 -22.5q-22.5 -11 -44.5 -17.5q-21.5 -6 -37.5 -6q-5.5 -0.5 -11 1q-5.5 1.5 -13.5 6q36.5 18 51 36q15 18 14.5 43q0 26 -9 61q-8.5 35 -27.5 84q-29 6.5 -51.5 9.5q-22.5 3 -42 3q-25 0 -45 -5q-20.5 -5.5 -40 -18.5q-20 -13 -44 -36q-6 4 -12 8.5M670 -570q53 17.5 83 33q29.5 16 49 37.5l-28 6l-14.5 4q-5.5 1.5 -13 3q-35.5 9.5 -59 21q-23 11.5 -38 27.5q-14 14.5 -21.5 33q-8 18 -11.5 45q-3 27 -3 68.5l0 13.5q0.5 8.5 1 28q0.5 20 2 59.5q-19 -3 -32 -4l-29.5 -1q-57.5 0.5 -100 15.5q-43 15.5 -67 43q-24 27.5 -24.5 63.5q1 49 43 78.5q42.5 29.5 112.5 30q43.5 0 78 -11.5q34.5 -11.5 55.5 -32.5q15 -16.5 22 -36.5q7 -20.5 6.5 -50.5l0 -8.5l0 -11q39.5 18.5 68 39.5q29 21 56 50.5q15.5 17.5 22 22.5q7 5 14 4.5q9 -0.5 14.5 -10q5.5 -9.5 6 -25q0 -24.5 -10.5 -45q-10 -20 -30.5 -36q-23 -18 -60.5 -35.5q-37.5 -17 -85 -31q-7.5 -52 -12 -86q-4.5 -34 -6.5 -55.5q-2 -21.5 -2 -35q-1 -52 23 -73q24 -20.5 84.5 -20q25.5 0 43 2q17 1.5 30 6.5q13.5 4.5 27.5 13q6.5 4.5 12 6.5q5.5 2 11.5 2q12.5 -0.5 19.5 -8.5q7 -8 7 -21.5q0 -18 -17 -39q-17 -21 -47.5 -41q-35 -23.5 -78.5 -37.5q-43.5 -14 -96.5 -18.5l-3 16.5M617.5 -110.5q0 48.5 -32 73.5q-31.5 25 -94 25q-48 0 -75 -16q-27 -16 -27.5 -44.5q0.5 -36.5 37.5 -57q37 -20.5 103 -21q24 0 44.5 2.5q20.5 3 43.5 10l0 27.5" />
</g>
<g id="PathID_1034" transform="matrix(0.010049, 0, 0, 0.010049, 9.05, 10.55)">
<path style="fill:#000000;fill-opacity:1" d="M601 -716.5l3.5 -1.5l1.5 -0.5l2 0l1 0q0 -1 0.5 -1l0.5 0q1 0 2 1q1 0.5 1 1q-1 3 -2.5 6q-1.5 2.5 -7.5 10.5q-30 38.5 -55 69.5q-25 31 -51 61.5q-26 31 -59 68.5q-33.5 38 -80 90l-66.5 73q-24.5 25.5 -40.5 40.5q-16.5 14.5 -35 28.5q-11 9 -16 18q-5.5 8.5 -5.5 18q0 15.5 5.5 30.5q5 15.5 12.5 25.5q8 10 16 10.5q7 0 14.5 -6q7.5 -6 20 -22q43.5 -54.5 100 -97.5q56.5 -42.5 115.5 -67.5q59 -24.5 110 -25q30.5 0 57.5 5.5q27.5 5.5 44 15q31 18.5 47 51.5q16.5 32.5 16.5 75.5q-0.5 65.5 -33 115.5q-32 50 -91 76q-11 -22 -21.5 -36.5q-10 -14.5 -23.5 -27q-25.5 -24 -59 -37q-33 -13.5 -71 -13.5q-48.5 1 -79 25q-30.5 24 -31.5 62q1 47.5 44.5 74.5q44 27.5 120 28q93.5 -0.5 166 -33.5q72.5 -33 114 -90q41 -57.5 42 -131.5q-0.5 -57.5 -27.5 -100.5q-27.5 -42.5 -76.5 -66.5q-49.5 -23.5 -115.5 -24q-63.5 -0.5 -130.5 23q-66.5 23 -148 74l-2 -2q10 -9.5 19 -19l31 -33l70 -75q35 -37 69 -71.5q34 -35 81.5 -82q22 -22 35.5 -34.5q13.5 -12 24 -19.5q11 -7.5 25.5 -14.5q9 -4.5 13 -9.5q4.5 -4.5 4.5 -10q0 -9 -6.5 -19q-7 -10.5 -24.5 -27q-19 -19 -32 -27.5q-13.5 -8.5 -23 -8.5q-4 0 -8 1.5q-3.5 1.5 -6.5 3.5q-10.5 9 -17 13.5q-7 4.5 -17 8.5l-29.5 10q-36 11 -75.5 21q-39.5 10 -71.5 16.5q-32.5 6.5 -46.5 6.5q-25.5 0 -45.5 -19.5q-19.5 -19 -31.5 -55.5q-5 8 -7 14q-2 6 -2 13q0 16 7.5 35.5q7.5 19.5 21 40q15 21.5 30 32.5q14.5 10.5 28.5 10.5q6 0 16.5 -3q10 -3.5 25.5 -10.5q36 -15.5 76 -31.5q40 -16.5 75 -29.5q35 -13 56 -19.5l5 -2M563 -21.5q-23 5 -38 7q-15 2 -34.5 2q-54.5 -0.5 -85.5 -17q-31 -16.5 -31.5 -45.5q0.5 -24 17.5 -38q17.5 -13.5 47 -14q43.5 0.5 76.5 28q32.5 28 48.5 77.5" />
</g>
<g id="PathID_1035" transform="matrix(0.010049, 0, 0, 0.010049, 19.3, 10.55)">
<path style="fill:#000000;fill-opacity:1" d="M377.5 -785.5q33 5.5 51.5 14.5q18 9 26.5 26.5q8 17 11.5 46q2 20 4 37q1.5 17 2.5 43.5l2.5 73q1 46.5 2 125.5q1.5 79 3 201.5l-23 -1l-16 0q-40.5 0 -79 6.5q-39 6.5 -69.5 18q-48.5 18.5 -73.5 47q-25.5 28.5 -25.5 65.5q1 52 47 81.5q46.5 29.5 128 30q28.5 0 57 -4q28 -4.5 47.5 -11.5q36.5 -13.5 54.5 -38.5q18 -25 18 -62.5l0 -15l-0.5 -17l-1.5 -34.5q47 14 83 30q35.5 16 70 40q35 23.5 77.5 60q8 7 14 10q5.5 3 10.5 3q10 0 15.5 -10q5 -10 5 -28.5q0 -27 -15 -48.5q-15.5 -21.5 -48.5 -39.5q-45.5 -26.5 -100.5 -45.5q-55.5 -19 -115.5 -29.5q-3 -34 -5.5 -80.5q-2.5 -47 -4 -96q-1.5 -49.5 -2 -90.5l0 -18.5l0 -26.5q16.5 14 32 20q15 5.5 37 5.5q28.5 0 64.5 -8q36 -8.5 77.5 -24q35 -12.5 48 -21q13 -9 12.5 -20q0.5 -6.5 -4.5 -12q-5 -5.5 -17 -12.5q-11 -5.5 -24 -9q-12.5 -4 -20 -4q-4.5 0 -9.5 2.5q-5 2.5 -13 8.5q-19.5 15 -48.5 29q-29 13.5 -58 22.5q-29 8.5 -49 9q-9 0 -14.5 -2q-6 -2.5 -13.5 -9.5l0 -11l0 -8q0.5 -26.5 3 -54.5q3 -28 7.5 -52.5q4.5 -24.5 10 -40.5q6 -14.5 7.5 -19q1 -4.5 1 -10q0 -15 -12.5 -26q-13 -11 -39 -18q-22 -6 -42.5 -9q-21 -3 -39 -3q-16.5 -0.5 -26 3q-9.5 3 -21.5 12M480 -169q0 34.5 -1 55q-1.5 21 -5 33q-3.5 11.5 -10.5 19.5q-15 19.5 -49 30.5q-33.5 11.5 -79 11.5q-54.5 0 -84.5 -17q-29.5 -16.5 -30 -47.5q0.5 -26 23.5 -45.5q23 -19.5 64 -30.5q40.5 -11 93.5 -11l27.5 0q11.5 0 23 0.5l27.5 1.5" />
</g>
<g id="PathID_1036" transform="matrix(0.010049, 0, 0, 0.010049, 29.55, 10.55)">
<path style="fill:#000000;fill-opacity:1" d="M376.5 -853q28.5 46 70 72.5q41 26.5 103.5 39q-20.5 7.5 -67.5 28l-106 47.5l5.5 14.5q78.5 -23 123 -35.5l67.5 -18.5q23 -5.5 36 -7l28.5 -1.5q20.5 0 31 -6q11 -5.5 11 -16.5q0 -7.5 -5.5 -16.5q-5.5 -9 -16 -18.5q-15 -12.5 -28 -18.5q-12.5 -6 -27.5 -6l-23.5 0q-54.5 0 -104 -17q-49.5 -16.5 -87.5 -48.5l-10.5 8.5M452.5 81q43.5 -19 83.5 -49q40 -29.5 77.5 -71q61 -68.5 94 -153.5q32.5 -85.5 33 -177q0 -46.5 -10.5 -85q-10 -38.5 -28.5 -65.5q-23 -32 -57 -50.5q-34 -18 -70 -18.5q-25.5 0 -49 4.5q-23 5 -52 18q-29.5 12.5 -72 36q-39.5 21.5 -62 31q-22 9 -32.5 9q-20 0 -34.5 -18.5q-14.5 -18 -21.5 -52q-9.5 11 -13 19.5q-3.5 8.5 -3.5 18q0 14.5 7 32.5q7.5 18.5 20.5 36.5q16.5 22.5 34 34q17.5 12 33.5 12q11.5 0.5 20 -4.5q8.5 -5 22 -19q53.5 -58 104.5 -89.5q51 -31 92 -31.5q46 0.5 71.5 44q25.5 43 26 120q0 53 -10.5 108q-11 55.5 -30.5 107.5q-19.5 52 -46 96q-25.5 41.5 -58 76q-32.5 35 -77 71l9 11.5" />
</g>
<g id="PathID_1037" transform="matrix(0.010049, 0, 0, 0.010049, 39.8, 10.55)">
<path style="fill:#000000;fill-opacity:1" d="M309.5 -382l-54.5 143.5q-8 22 -16 41.5q-8 19.5 -21 45.5q-10.5 -31.5 -15 -62.5q-4.5 -31.5 -4.5 -72.5q0 -33.5 3.5 -65.5q3 -32.5 10 -61.5q5.5 -24.5 14.5 -54q9 -29.5 19.5 -58.5q11 -28.5 21.5 -50.5q10 -20 14.5 -30.5q5 -10.5 6 -16.5q1 -6.5 1 -14.5q0 -16.5 -9.5 -37q-9.5 -20 -28.5 -43.5q-20.5 -27 -36.5 -38.5q-16 -11.5 -32.5 -12q15.5 27 22.5 49.5q6.5 22 6.5 47q0 15.5 -3.5 37.5q-3.5 22 -11 57.5l-16.5 78.5q-6.5 29 -9.5 46.5q-3 17 -5 32q-2.5 15 -5 36.5q-3.5 31 -6 58.5q-2 28 -2 51q0 62.5 9.5 120q9.5 57 26.5 98q8.5 20.5 19.5 31.5q11.5 10.5 24.5 10.5q8.5 0 15 -4.5q6.5 -4.5 9.5 -13q1.5 -4 2.5 -13q1 -9.5 1 -31q-0.5 -15.5 1 -28.5q1.5 -13.5 5.5 -32q3.5 -18 10.5 -48l33 -137q11.5 -48.5 13.5 -55.5q-7.5 -2.5 -14.5 -5M441.5 -639q32 31.5 64.5 44.5q32.5 13.5 74.5 13l16.5 -0.5l25.5 -1.5q-12.5 9.5 -37.5 30q-25 20.5 -59.5 50l10 10q21 -13.5 45.5 -27.5q24.5 -14.5 47.5 -26.5q23 -12 39 -18.5q29 -12 62.5 -20.5q33.5 -8 83 -15.5q16 -3 22.5 -8.5q6.5 -5 6 -15q0 -10 -7.5 -19.5q-8 -9.5 -24 -18.5q-11 -7 -20.5 -10.5q-9 -3.5 -15.5 -4q-5 0 -9 1.5q-4 1.5 -13.5 7q-22.5 12 -58.5 22.5q-36 10.5 -75 17q-39.5 6.5 -72 6.5q-27 0.5 -48 -6q-21.5 -6 -47.5 -21.5l-9 12M435 -329.5q-6.5 24 -9.5 43q-2.5 19 -2.5 37.5q0 42 14 75q13.5 33 41 58q35 31 102 46.5q67 16 163.5 16q43.5 0 77.5 -3q33.5 -3 50.5 -8q10.5 -4 16.5 -10.5q6 -6 6 -15.5q-0.5 -12.5 -11 -26.5q-10 -13.5 -25 -23.5q-15 -9.5 -28.5 -10q-6 0 -15.5 3q-16 6.5 -24 9.5q-8 3 -14 4q-6 1.5 -16 3q-21 3.5 -43 5.5l-44.5 1.5q-118 0.5 -171 -37q-53 -38 -52 -121.5q0 -9.5 1 -19q0.5 -9.5 2 -24l-17.5 -4" />
</g>
<g id="PathID_1038" transform="matrix(0.010049, 0, 0, 0.010049, 50.05, 10.55)">
<path style="fill:#000000;fill-opacity:1" d="M959.5 -356.5q1.5 -0.5 3.5 -3.5q2.5 -3 2.5 -4.5l0 -2l-1 -2.5l-32.5 -30.5l-27 -25l-33.5 -29.5l-23 27q-9 11 -18.5 21.5l-24.5 25.5l-500.5 0l0 -116l493.5 0q3.5 0 5.5 -2q2.5 -2 3 -4q0 -3 -3.5 -6.5q-18 -17 -30 -29l-24.5 -22.5l-30.5 -27q-16.5 19.5 -28 32.5q-11.5 13 -30 35l-355.5 0l0 -108.5l493.5 0q4 0 6.5 -2.5q2.5 -2 3 -4.5q0 -1 -1 -2.5l-2.5 -3q-16.5 -16.5 -28.5 -27.5q-12 -11 -24 -20.5q-11.5 -10 -29 -23.5l-22.5 25.5l-14 15.5q-6 7.5 -17 19.5l-364.5 0l0 -111.5l556 0q3 0 5.5 -2q2.5 -2 2.5 -5q0 -1 -0.5 -2l-1.5 -2q-20.5 -17.5 -34 -29.5l-27.5 -23.5l-33.5 -28q-11.5 13 -18 21l-15.5 17.5l-26 30l-389 0q-19 -11 -32 -18q-13.5 -7 -27 -13q-13.5 -5.5 -34 -13q2 46.5 3 87q1 40.5 1 85l0 278.5l-122 0q-19 0 -38.5 -2.5q-19.5 -2.5 -42.5 -7.5q5 20.5 9.5 41.5q8.5 -2 22 -4l26.5 -3l22 -1l123 0l0 297q-57 12 -89.5 18.5q-33 6 -52.5 8q-19 2.5 -36 2l9 31.5q4 13.5 6 23q5 17.5 9.5 30.5q4.5 13.5 9 22.5q2.5 5.5 7 9q4 3.5 7.5 3.5q6 0 9.5 -11.5q3.5 -11.5 6 -36.5q78 -27.5 137 -49q58.5 -21 104.5 -39q46.5 -17.5 88 -35q41.5 -17 86 -37l-5 -15.5q-43 13 -76 22.5q-32.5 9 -67 17.5q-34.5 8.5 -82.5 19.5l0 -281.5l120 0q18 44 34 76.5q16 32.5 33.5 59.5q17.5 26.5 40 53.5q40 49 89 88q48.5 39 113 72q64 33 151 64q6 -17 13 -28q6.5 -10.5 18 -21q11 -9 21.5 -13.5q11 -5 26.5 -7l0 -15.5q-74.5 -7 -138 -24q-63 -17 -125 -47.5q-30 -14 -51.5 -27.5q-21.5 -13.5 -44 -31l67.5 -40.5q23.5 -15 38 -25l40 -27l17.5 -11.5q5 -3.5 10 -6.5l20.5 1l17.5 0q11 0 18 -3.5q7.5 -3 7.5 -7.5q0 -4 -4 -8q-4 -3.5 -10 -6.5q-1.5 0 -16 -7q-15 -6.5 -38.5 -17.5l-18.5 -8q-12 -4.5 -26.5 -10.5q-16.5 33 -51.5 74.5q-35.5 42 -88 90.5q-49 -43 -83 -88.5q-34 -46 -56 -97l509 0" />
</g>
<g id="PathID_1039" transform="matrix(0.010049, 0, 0, 0.010049, 60.3, 10.55)">
<path style="fill:#000000;fill-opacity:1" d="M540.5 -652.5l0 -142.5q27 -9.5 36 -14.5q8.5 -4.5 8 -9q0.5 -6 -10.5 -10.5q-10.5 -4.5 -37 -8.5q-26.5 -4 -73 -8.5q3 26 4.5 42.5q1.5 16.5 1.5 31l0 120l-307 0q-10 0 -19 -0.5l-21 -2l-34 -3.5l-11.5 -2l-16 -2l10 40.5l43 -4.5l25 -2q10 -0.5 22.5 -0.5l231 0q-1.5 106.5 -15 192q-13.5 86 -40 156.5q-26.5 71 -67.5 133q-40 60.5 -91 107q-51.5 46.5 -126.5 89.5q4.5 8.5 8.5 17.5l42 -18q17 -8 31 -16q14.5 -8 30.5 -17.5q65.5 -41 118 -96q52.5 -54.5 89.5 -121q28.5 -49.5 47 -105.5q18.5 -56 32 -130l301 0q-4 91 -13 172.5q-9 82 -21.5 140q-12.5 58.5 -26 78.5q-5.5 7.5 -13.5 10.5q-7.5 3 -23.5 3l-57 -2.5l-84.5 -6.5l-94.5 -8.5l0 14.5q63.5 11.5 100.5 20q37 8.5 55 17.5q18.5 9 24.5 22q6.5 13.5 8 34.5q53 -6.5 83 -15.5q29.5 -8.5 45.5 -24.5q16 -15.5 28 -44q20 -46 36 -143.5q16 -97.5 27.5 -244.5q26 -17.5 31.5 -22q5.5 -5 4.5 -8.5q0 -2.5 -3 -6q-2.5 -3.5 -10.5 -10.5l-32 -24q-13 -10 -33.5 -25q-12 14 -19.5 23.5q-7.5 9.5 -19 25.5l-290 0q4 -28.5 7 -53.5q2.5 -24.5 3.5 -51.5q1.5 -27 2 -63l506.5 0q5.5 0 9 -2q3.5 -2 3.5 -5q0 -2.5 -1.5 -5q-1.5 -2.5 -4.5 -5.5l-35.5 -31q-14.5 -12 -29 -24.5l-36 -29.5l-22 28q-9 11 -17.5 22.5l-22 28.5l-278.5 0" />
</g>
<g id="PathID_1040" transform="matrix(0.010049, 0, 0, 0.010049, 70.55, 10.55)">
<path style="fill:#000000;fill-opacity:1" d="M463 -755.5l150.5 0q1.5 0 3 -2.5q1 -2 1 -4.5q0 -1 -1 -4l-3 -6.5l-29.5 -27l-24.5 -21.5l-31 -27l-20 24.5l-16 20l-19.5 25l-360 0l-31.5 -1.5q-16.5 -2 -35 -5.5l11 36.5q15.5 -3.5 26.5 -5l28 -1l67.5 0l0 76l0 76l0 50.5l-1 37l-1 37l-91 0l-28 -1.5q-16 -2 -37.5 -5.5l9 36.5q19.5 -3.5 32 -5l25.5 -1l89 0q-3 78.5 -7 134q-4 55 -10.5 95.5q-6.5 40.5 -16.5 75.5q-10 35 -25.5 73q-11 26.5 -21 47q-9.5 21 -21.5 41q-12 20.5 -29 46l14 9q44 -47.5 74 -89q30 -41 49.5 -82q19.5 -40.5 31.5 -87q12.5 -46 20.5 -108.5q7.5 -62 12 -154.5l144.5 0l0 256q-0.5 73.5 -0.5 115.5q-0.5 42 -0.5 64q0 22 -0.5 35.5q0 13.5 -0.5 29.5q0.5 8 5 10.5q4 3 15.5 3l21 -1l21 -3q6.5 -1.5 9.5 -4q3 -2.5 4.5 -8.5q-0.5 -16.5 -0.5 -30q-0.5 -13.5 -0.5 -35.5q-0.5 -21.5 -1 -63q0 -41 -1 -113l0 -256l179 0q2 0 4 -3q2 -2.5 2.5 -5q-0.5 -2 -2 -4.5l-4.5 -5l-27 -27l-23.5 -23l-29 -27.5q-16 19 -24 29l-15.5 18.5l-19 24l-41 0l0 -276.5M391.5 -755.5l0 276.5l-143.5 0q1 -18.5 2 -87.5q1.5 -69 2 -189l139.5 0M514 54.5q50.5 -17 90.5 -35.5q40.5 -18 77.5 -40q36.5 -22.5 76 -52.5q35.5 -26.5 65.5 -54q30 -28 61 -63.5q31 -35.5 70 -86.5l11 0l8.5 0q14 0 21.5 -3q8 -2.5 8 -8q0.5 -5.5 -7.5 -12q-7.5 -7 -30 -18.5q-22 -11.5 -64.5 -31q-15.5 38 -42.5 79.5q-27.5 41 -69.5 88.5q-39 44.5 -77 79.5q-38 34.5 -86.5 68.5q-49 34 -120 76l8 12.5M604.5 -535.5q46.5 -23 82 -45.5q35.5 -22.5 71.5 -51.5q47 -37.5 82 -72q35 -34 67.5 -74.5l9.5 0l7 0l19.5 0q10 0 15 -2.5q5 -2.5 5 -7.5q1.5 -5 -22.5 -18.5q-24 -13 -88 -43q-10 28.5 -29.5 59.5q-19 31 -53.5 72.5q-44 53 -86.5 94.5q-43 41.5 -89.5 76.5q5 6 10.5 12M558 -255q40.5 -16 72.5 -32q32.5 -15.5 62 -34q30 -18 62.5 -41.5q27.5 -19 49 -37.5q22 -18 52 -48q30 -30 82 -85.5q32 0.5 42 -2q10.5 -2.5 9.5 -9q0 -6 -12 -15q-12.5 -8.5 -38.5 -20q-9 -4.5 -23 -11l-32 -15.5q-14.5 33.5 -40.5 71q-25.5 37 -66 80.5q-51.5 57 -106 101.5q-54.5 45 -122.5 85l9 13" />
</g>
<g id="PathID_1041" transform="matrix(0.010049, 0, 0, 0.010049, 80.8, 10.55)">
<path style="fill:#000000;fill-opacity:1" d="M309.5 -382l-54.5 143.5q-8 22 -16 41.5q-8 19.5 -21 45.5q-10.5 -31.5 -15 -62.5q-4.5 -31.5 -4.5 -72.5q0 -33.5 3.5 -65.5q3 -32.5 10 -61.5q5.5 -24.5 14.5 -54q9 -29.5 19.5 -58.5q11 -28.5 21.5 -50.5q10 -20 14.5 -30.5q5 -10.5 6 -16.5q1 -6.5 1 -14.5q0 -16.5 -9.5 -37q-9.5 -20 -28.5 -43.5q-20.5 -27 -36.5 -38.5q-16 -11.5 -32.5 -12q15.5 27 22.5 49.5q6.5 22 6.5 47q0 15.5 -3.5 37.5q-3.5 22 -11 57.5l-16.5 78.5q-6.5 29 -9.5 46.5q-3 17 -5 32q-2.5 15 -5 36.5q-3.5 31 -6 58.5q-2 28 -2 51q0 62.5 9.5 120q9.5 57 26.5 98q8.5 20.5 19.5 31.5q11.5 10.5 24.5 10.5q8.5 0 15 -4.5q6.5 -4.5 9.5 -13q1.5 -4 2.5 -13q1 -9.5 1 -31q-0.5 -15.5 1 -28.5q1.5 -13.5 5.5 -32q3.5 -18 10.5 -48l33 -137q11.5 -48.5 13.5 -55.5q-7.5 -2.5 -14.5 -5M441.5 -639q32 31.5 64.5 44.5q32.5 13.5 74.5 13l16.5 -0.5l25.5 -1.5q-12.5 9.5 -37.5 30q-25 20.5 -59.5 50l10 10q21 -13.5 45.5 -27.5q24.5 -14.5 47.5 -26.5q23 -12 39 -18.5q29 -12 62.5 -20.5q33.5 -8 83 -15.5q16 -3 22.5 -8.5q6.5 -5 6 -15q0 -10 -7.5 -19.5q-8 -9.5 -24 -18.5q-11 -7 -20.5 -10.5q-9 -3.5 -15.5 -4q-5 0 -9 1.5q-4 1.5 -13.5 7q-22.5 12 -58.5 22.5q-36 10.5 -75 17q-39.5 6.5 -72 6.5q-27 0.5 -48 -6q-21.5 -6 -47.5 -21.5l-9 12M435 -329.5q-6.5 24 -9.5 43q-2.5 19 -2.5 37.5q0 42 14 75q13.5 33 41 58q35 31 102 46.5q67 16 163.5 16q43.5 0 77.5 -3q33.5 -3 50.5 -8q10.5 -4 16.5 -10.5q6 -6 6 -15.5q-0.5 -12.5 -11 -26.5q-10 -13.5 -25 -23.5q-15 -9.5 -28.5 -10q-6 0 -15.5 3q-16 6.5 -24 9.5q-8 3 -14 4q-6 1.5 -16 3q-21 3.5 -43 5.5l-44.5 1.5q-118 0.5 -171 -37q-53 -38 -52 -121.5q0 -9.5 1 -19q0.5 -9.5 2 -24l-17.5 -4" />
</g>
<g id="PathID_1042" transform="matrix(0.010049, 0, 0, 0.010049, 91.05, 10.55)">
<path style="fill:#000000;fill-opacity:1" d="M596 -715l0 229.5q0 10 -3 14q-3 3.5 -10.5 3.5l-38.5 -1.5l-34.5 -2.5l-57 -4l0 16q23.5 3.5 39.5 8q16 4.5 28 10.5q13 7.5 19 16q6.5 8.5 11 25q27 -3 47 -8q20.5 -5 37 -12.5q16.5 -7 23.5 -17.5q7 -10 7 -26.5q0 -13 -0.5 -23.5q-0.5 -10.5 -0.5 -17.5l-1 -38.5l0 -22l0 -148.5l306 0q2.5 0 4.5 -2q1.5 -1.5 2 -4q0 -1 -1 -2.5l-1 -2.5l-35 -31.5q-14.5 -12.5 -28.5 -25.5l-35 -31.5q-14 15.5 -23 26.5q-9.5 11 -18 22q-8.5 11 -20.5 27.5l-273.5 0l0 -70.5q26 -10.5 36.5 -17.5q11 -6.5 11 -12.5q0.5 -5.5 -7.5 -9q-8 -3.5 -33 -7.5q-25 -3.5 -75.5 -9l1.5 30.5q0.5 12.5 0.5 25l0 70.5l-329.5 0q-22 0 -45 -3q-23 -3 -45.5 -9.5q5.5 21.5 10.5 43l46 -5.5l34 -1.5l244.5 0q-3 73 -11.5 124q-8.5 51 -25 89q-17 38 -44.5 72q-17.5 22 -36 40q-19 18 -44.5 35.5q-26 18 -64 40l6.5 12.5q42 -17 67.5 -30q25.5 -13 46 -27.5q53.5 -35.5 91 -82.5q38 -46.5 56.5 -100q7.5 -21 12 -43.5q4.5 -22.5 7 -53q2.5 -30.5 4.5 -76.5l142.5 0M50 72.5q58.5 -4 105.5 -11.5q47 -7.5 93 -20q46 -13 101.5 -34q50.5 -18 91 -38q40.5 -20 85 -48q34.5 23 74 43.5q39 20 85 37.5q39.5 16 75.5 26q36 10.5 74 17q38 6.5 83 10.5q10 -35 26.5 -51.5q16.5 -17 47 -22.5l0 -11q-108 -4 -183 -12.5q-75 -8.5 -131.5 -24.5q-56 -15.5 -108 -41q31 -23 55.5 -43.5q24.5 -20 50 -45q25.5 -25 60 -62q29 -6.5 39.5 -10.5q10.5 -4 10 -9q0 -2 -2 -5q-2 -2.5 -7.5 -7l-32.5 -26q-13 -11 -35 -28.5q-13 13 -22 21.5q-9 8 -22 20.5l-237.5 0q11.5 -13.5 18 -23q7 -9 17.5 -24q20 -4 31 -7q11 -3 13 -4.5q2.5 -1.5 4 -3.5q1.5 -2.5 1.5 -4.5q0.5 -6.5 -21 -15q-21 -8.5 -73.5 -23q-11.5 24.5 -33.5 56.5q-21.5 32 -55.5 72.5q-36.5 45 -72.5 81q-36 36.5 -79 70.5q-42.5 34 -100.5 73l8.5 12q61 -28.5 106.5 -56q46 -27.5 88.5 -63q43 -35 94.5 -87q22 35 38.5 57q16.5 22.5 32.5 39.5q16 17 37.5 36q-36 24 -68.5 42.5q-32 19 -70.5 36q-56 26 -101.5 43q-46 17.5 -91 29q-45.5 12 -100.5 21.5l1 15M662.5 -278.5q-30 34 -53.5 58q-23 23.5 -45.5 43q-22 19.5 -48.5 39.5q-28 -18 -48 -34q-20 -16 -38.5 -37q-18.5 -20.5 -42.5 -52l9 -9l8.5 -8.5l259 0M62.5 -371.5q59 -31 110.5 -81.5q51.5 -51 105.5 -131q27.5 -2 40 -6.5q12.5 -4 12 -12q1 -3.5 -4.5 -7.5q-5 -3.5 -26.5 -11.5q-21 -8.5 -67 -25q-7.5 21.5 -17.5 42.5q-10 20.5 -28.5 52q-34.5 57 -65 96q-31 39 -68.5 73q5 5.5 9.5 11.5M715.5 -628q55.5 48.5 98 98.5q43 50.5 74.5 103.5q9 15 15 21.5q6 6.5 10.5 6q7.5 -0.5 15.5 -12q8.5 -11.5 14 -28q6 -16 6 -31.5q0.5 -17 -15.5 -35.5q-16 -18.5 -55 -45.5q-31.5 -22.5 -71.5 -44.5q-40 -22 -84 -41.5l-7.5 9" />
</g>
<g id="PathID_1043" transform="matrix(0.010049, 0, 0, 0.010049, 101.3, 10.55)">
<path style="fill:#000000;fill-opacity:1" d="M463 -755.5l150.5 0q1.5 0 3 -2.5q1 -2 1 -4.5q0 -1 -1 -4l-3 -6.5l-29.5 -27l-24.5 -21.5l-31 -27l-20 24.5l-16 20l-19.5 25l-360 0l-31.5 -1.5q-16.5 -2 -35 -5.5l11 36.5q15.5 -3.5 26.5 -5l28 -1l67.5 0l0 76l0 76l0 50.5l-1 37l-1 37l-91 0l-28 -1.5q-16 -2 -37.5 -5.5l9 36.5q19.5 -3.5 32 -5l25.5 -1l89 0q-3 78.5 -7 134q-4 55 -10.5 95.5q-6.5 40.5 -16.5 75.5q-10 35 -25.5 73q-11 26.5 -21 47q-9.5 21 -21.5 41q-12 20.5 -29 46l14 9q44 -47.5 74 -89q30 -41 49.5 -82q19.5 -40.5 31.5 -87q12.5 -46 20.5 -108.5q7.5 -62 12 -154.5l144.5 0l0 256q-0.5 73.5 -0.5 115.5q-0.5 42 -0.5 64q0 22 -0.5 35.5q0 13.5 -0.5 29.5q0.5 8 5 10.5q4 3 15.5 3l21 -1l21 -3q6.5 -1.5 9.5 -4q3 -2.5 4.5 -8.5q-0.5 -16.5 -0.5 -30q-0.5 -13.5 -0.5 -35.5q-0.5 -21.5 -1 -63q0 -41 -1 -113l0 -256l179 0q2 0 4 -3q2 -2.5 2.5 -5q-0.5 -2 -2 -4.5l-4.5 -5l-27 -27l-23.5 -23l-29 -27.5q-16 19 -24 29l-15.5 18.5l-19 24l-41 0l0 -276.5M391.5 -755.5l0 276.5l-143.5 0q1 -18.5 2 -87.5q1.5 -69 2 -189l139.5 0M514 54.5q50.5 -17 90.5 -35.5q40.5 -18 77.5 -40q36.5 -22.5 76 -52.5q35.5 -26.5 65.5 -54q30 -28 61 -63.5q31 -35.5 70 -86.5l11 0l8.5 0q14 0 21.5 -3q8 -2.5 8 -8q0.5 -5.5 -7.5 -12q-7.5 -7 -30 -18.5q-22 -11.5 -64.5 -31q-15.5 38 -42.5 79.5q-27.5 41 -69.5 88.5q-39 44.5 -77 79.5q-38 34.5 -86.5 68.5q-49 34 -120 76l8 12.5M604.5 -535.5q46.5 -23 82 -45.5q35.5 -22.5 71.5 -51.5q47 -37.5 82 -72q35 -34 67.5 -74.5l9.5 0l7 0l19.5 0q10 0 15 -2.5q5 -2.5 5 -7.5q1.5 -5 -22.5 -18.5q-24 -13 -88 -43q-10 28.5 -29.5 59.5q-19 31 -53.5 72.5q-44 53 -86.5 94.5q-43 41.5 -89.5 76.5q5 6 10.5 12M558 -255q40.5 -16 72.5 -32q32.5 -15.5 62 -34q30 -18 62.5 -41.5q27.5 -19 49 -37.5q22 -18 52 -48q30 -30 82 -85.5q32 0.5 42 -2q10.5 -2.5 9.5 -9q0 -6 -12 -15q-12.5 -8.5 -38.5 -20q-9 -4.5 -23 -11l-32 -15.5q-14.5 33.5 -40.5 71q-25.5 37 -66 80.5q-51.5 57 -106 101.5q-54.5 45 -122.5 85l9 13" />
</g>
<g id="PathID_1044" transform="matrix(0.010049, 0, 0, 0.010049, 111.55, 10.55)">
<path style="fill:#000000;fill-opacity:1" d="M362.5 58.5q47.5 -21 85.5 -45.5q38 -24.5 67 -52q53.5 -50.5 82 -117.5q28.5 -66.5 29 -142.5q0 -26 -3 -47q-2.5 -21 -10 -42.5q-7 -21 -20 -46.5l-1 -20.5l0 -14.5q0 -19.5 1 -44.5q1 -25 2.5 -50q1.5 -25 4 -45l56 -3q25.5 -1 53.5 -1l81.5 2.5q37 2.5 76 8l33.5 4l14.5 1.5l7.5 0.5q11.5 0 17 -4.5q5.5 -4.5 5.5 -13q0 -8 -3.5 -14.5q-4 -6.5 -13 -13q-20 -16 -45.5 -27q-25 -10.5 -41.5 -11q-5.5 -0.5 -12.5 2q-7 2 -25.5 9q-12 4.5 -25 7.5q-13 3 -38 5.5l-73 5.5l-29 2.5l-17.5 1.5l-20 2.5q3 -36.5 8.5 -60q5.5 -24 14 -39.5q6.5 -12.5 8.5 -17.5q2 -4.5 1.5 -10q0 -11 -10 -20.5q-10 -9 -29 -15.5q-22.5 -7 -47.5 -10.5q-25.5 -4 -52 -4q-20 0 -29 3.5q-9.5 4 -18 15q39 5.5 59.5 17q20.5 12 28.5 33.5q6 16 9 42q2.5 26 2.5 71.5l-68 7.5l-57 7.5q-27.5 3.5 -60 8.5l-77 12.5q-33.5 5 -53.5 7l-35 2q-30.5 0 -55 -13q-24.5 -13 -44 -39q-2.5 3.5 -4 7q-1 3.5 -1 5q0 13 12 34.5q11.5 21 28.5 40q18 18.5 35 29q17 10 31 10q4.5 0 11.5 -2q7 -1.5 12 -3q17 -9 32.5 -15.5q15 -6 34 -12q63 -19 130 -32q67 -13.5 128 -19l1 12.5l0 7.5q0 17 -0.5 38.5q0 21.5 -0.5 40.5l0 28q-19.5 -10.5 -31.5 -14q-12 -4 -26 -3.5q-38 0.5 -68 20.5q-29.5 20 -46.5 55.5q-17 35 -17.5 80.5q0.5 42.5 16.5 75.5q16.5 33 45 52.5q28 19 64.5 19.5q17.5 0 32.5 -5q15.5 -5 33 -15.5q-12.5 54 -35.5 97q-23 43 -61.5 81q-38.5 38 -97.5 78l8 13.5M551 -344q0 47.5 -16.5 71.5q-16 24.5 -49 24.5q-37 -1 -59.5 -31.5q-23 -30.5 -23.5 -80q1 -48 23.5 -78.5q23 -31 58.5 -32q33.5 0 50 31q16.5 31 16.5 95" />
</g>
<g id="PathID_1045" transform="matrix(0.010049, 0, 0, 0.010049, 121.8, 10.55)">
<path style="fill:#000000;fill-opacity:1" d="M601 -716.5l3.5 -1.5l1.5 -0.5l2 0l1 0q0 -1 0.5 -1l0.5 0q1 0 2 1q1 0.5 1 1q-1 3 -2.5 6q-1.5 2.5 -7.5 10.5q-30 38.5 -55 69.5q-25 31 -51 61.5q-26 31 -59 68.5q-33.5 38 -80 90l-66.5 73q-24.5 25.5 -40.5 40.5q-16.5 14.5 -35 28.5q-11 9 -16 18q-5.5 8.5 -5.5 18q0 15.5 5.5 30.5q5 15.5 12.5 25.5q8 10 16 10.5q7 0 14.5 -6q7.5 -6 20 -22q43.5 -54.5 100 -97.5q56.5 -42.5 115.5 -67.5q59 -24.5 110 -25q30.5 0 57.5 5.5q27.5 5.5 44 15q31 18.5 47 51.5q16.5 32.5 16.5 75.5q-0.5 65.5 -33 115.5q-32 50 -91 76q-11 -22 -21.5 -36.5q-10 -14.5 -23.5 -27q-25.5 -24 -59 -37q-33 -13.5 -71 -13.5q-48.5 1 -79 25q-30.5 24 -31.5 62q1 47.5 44.5 74.5q44 27.5 120 28q93.5 -0.5 166 -33.5q72.5 -33 114 -90q41 -57.5 42 -131.5q-0.5 -57.5 -27.5 -100.5q-27.5 -42.5 -76.5 -66.5q-49.5 -23.5 -115.5 -24q-63.5 -0.5 -130.5 23q-66.5 23 -148 74l-2 -2q10 -9.5 19 -19l31 -33l70 -75q35 -37 69 -71.5q34 -35 81.5 -82q22 -22 35.5 -34.5q13.5 -12 24 -19.5q11 -7.5 25.5 -14.5q9 -4.5 13 -9.5q4.5 -4.5 4.5 -10q0 -9 -6.5 -19q-7 -10.5 -24.5 -27q-19 -19 -32 -27.5q-13.5 -8.5 -23 -8.5q-4 0 -8 1.5q-3.5 1.5 -6.5 3.5q-10.5 9 -17 13.5q-7 4.5 -17 8.5l-29.5 10q-36 11 -75.5 21q-39.5 10 -71.5 16.5q-32.5 6.5 -46.5 6.5q-25.5 0 -45.5 -19.5q-19.5 -19 -31.5 -55.5q-5 8 -7 14q-2 6 -2 13q0 16 7.5 35.5q7.5 19.5 21 40q15 21.5 30 32.5q14.5 10.5 28.5 10.5q6 0 16.5 -3q10 -3.5 25.5 -10.5q36 -15.5 76 -31.5q40 -16.5 75 -29.5q35 -13 56 -19.5l5 -2M563 -21.5q-23 5 -38 7q-15 2 -34.5 2q-54.5 -0.5 -85.5 -17q-31 -16.5 -31.5 -45.5q0.5 -24 17.5 -38q17.5 -13.5 47 -14q43.5 0.5 76.5 28q32.5 28 48.5 77.5" />
</g>
<g id="PathID_1046" transform="matrix(0.010049, 0, 0, 0.010049, 132.05, 10.55)">
<path style="fill:#000000;fill-opacity:1" d="M192.5 -169q-36.5 0.5 -66.5 18q-29.5 18 -47.5 47.5q-17.5 30 -18 66.5q0.5 37 18 67q18 29.5 47.5 47.5q30 17.5 66.5 18q36.5 -0.5 66.5 -18q29.5 -18 47.5 -47.5q17.5 -30 18 -67q-0.5 -37 -18 -67q-17.5 -29.5 -47 -47q-30 -17.5 -67 -18M192.5 -136q42.5 1 70 29q28 28 29 70q-1 42.5 -29 70.5q-27.5 28 -70 29q-41.5 -1 -70 -29.5q-28 -28 -29 -70q1 -42 29 -70q27.5 -28 70 -29" />
</g>
</svg>
