<?xml version="1.0" encoding="utf-8"?>
<svg version="1.1" id="Layer_1"
xmlns="http://www.w3.org/2000/svg"
xmlns:xlink="http://www.w3.org/1999/xlink"
xmlns:author="http://www.sothink.com"
width="145px" height="13px"
xml:space="preserve">
<g id="PathID_1007" transform="matrix(0.010049, 0, 0, 0.010049, -1.7, 10.55)">
<path style="fill:#000000;fill-opacity:1" d="M637.5 -722l40.5 27q13 9 21.5 15.5q8.5 6.5 21 17q-23 13.5 -40.5 22q-17 8.5 -34 16l-36.5 14.5q-11.5 4.5 -17 7q-5 2 -11 5q-31 -39 -50.5 -64l-28.5 -34.5q-23.5 -26.5 -33 -38.5q-9.5 -12.5 -9 -15.5q0 -5.5 8 -8.5q7.5 -3 23.5 -3l17 1l29.5 3l5 -15q-34.5 -11.5 -63.5 -16.5q-29 -5.5 -56.5 -5q-33 0 -51 10q-18.5 10 -18.5 27.5q-0.5 10.5 7.5 19q8 8.5 31.5 21q31.5 18 70.5 54q38.5 36 71.5 79.5q-51.5 15 -100 23.5q-48 8 -89 8q-47.5 0.5 -85.5 -13q-38 -13 -78.5 -43.5l-11 10.5q38.5 46.5 84.5 68.5q45.5 21.5 103.5 21.5q50.5 0 101.5 -8.5q51.5 -8.5 106.5 -25.5q43 60 74.5 117.5q31.5 57 48.5 110.5q-42.5 -12.5 -95.5 -20q-53 -7 -105.5 -7q-127 0.5 -197.5 43.5q-70.5 43 -71.5 120.5q0.5 56 38.5 99.5q38 43.5 108 67.5q40 13.5 91.5 20.5q51 7 109 7q52.5 0.5 71.5 -6.5q18.5 -6.5 17.5 -25.5q-0.5 -11.5 -10.5 -24q-10 -13 -24.5 -22q-14.5 -9 -28.5 -9l-5.5 0.5l-6.5 1.5q-19.5 3.5 -40 5.5l-49.5 1.5q-41.5 0 -78.5 -6q-36.5 -5.5 -63.5 -16.5q-38 -16.5 -59 -43q-20.5 -27 -21 -60.5q1 -55.5 51.5 -87.5q50.5 -31.5 140 -32q49.5 0 97.5 10q48 10.5 88 29q17 8 35 20.5q18 12.5 33.5 27.5q10.5 10.5 17 14q6.5 3.5 14.5 3.5q15.5 0 21.5 -12.5q6.5 -12.5 6.5 -42q0 -18.5 -5.5 -36.5q-5 -18.5 -17 -40.5q-16 -29 -38.5 -66q-22.5 -37 -49 -77q-26 -40 -53 -78q48.5 -18.5 74.5 -29q26.5 -10.5 42 -18q15.5 -7 33 -16.5q29 -16.5 43 -29.5q13.5 -12.5 13.5 -24q-0.5 -15 -10.5 -23.5q-10.5 -8 -29.5 -8l-6 0l-5.5 1l-5 0q-9.5 0 -29 -4.5q-19.5 -4.5 -42.5 -11.5q-23 -7.5 -44 -15.5q-4 5.5 -7.5 11" />
</g>
<g id="PathID_1008" transform="matrix(0.010049, 0, 0, 0.010049, 8.55, 10.55)">
<path style="fill:#000000;fill-opacity:1" d="M372.5 -820.5q13.5 31.5 25 49.5q11.5 18 27.5 32.5q18.5 17.5 40.5 31q22.5 14 52.5 27.5q-15 6.5 -26 10.5q-11.5 4 -31.5 10l-63.5 18.5q-45.5 13.5 -70 24.5q-25 11 -35 22.5q-10 9 -13.5 20.5q-3.5 12 -3 38q-0.5 15 -5 45.5q-4 30.5 -14.5 89.5l-7.5 48.5l-5 37q-3.5 27 -6 38.5q-2 11.5 -5 22.5q-1 6 -2 10.5q-1 5 -1 6q0 9.5 5.5 22.5q5.5 13.5 16 30q12 17.5 22.5 25.5q11 8 22.5 8q8 0.5 14.5 -4.5q6.5 -4.5 14 -16q11.5 -19 24 -33.5q12 -14 32.5 -31q61 -52.5 125 -82q64 -29 119.5 -29.5q57 0.5 90 30.5q33.5 30 34 81q0 48 -24.5 88.5q-25 40.5 -78 77.5q-33.5 23 -70 40q-37 16.5 -82.5 29q-45.5 12.5 -104.5 22l3 16.5q71.5 -3 126.5 -12.5q55 -9 106 -27.5q96.5 -33.5 149 -90q52.5 -56.5 53 -128q-0.5 -47 -25.5 -83q-24.5 -36 -68.5 -56q-44 -20.5 -102 -21q-70 0 -155 32.5q-85 32.5 -178.5 94.5q1 -34.5 3.5 -72q2.5 -38 6 -73q3 -35.5 7 -63q1.5 -13.5 2 -21.5q1 -7.5 1 -11q0 -7.5 -1.5 -14q-1.5 -6.5 -6 -19q-3 -10 -4.5 -16.5q-1.5 -7 -1.5 -13q0 -8 3 -15q3 -7.5 8.5 -13q5 -5 15.5 -9q10.5 -4 31.5 -9q33.5 -9 69 -15.5q35.5 -6.5 68.5 -10q32.5 -3.5 58 -3.5l27.5 1l22.5 2l15 2.5q4.5 1 6.5 1q11 -0.5 18 -6.5q6.5 -6 7 -15q0 -9.5 -5.5 -21q-6 -11 -17.5 -24.5q-9 -11 -19 -17q-10 -6 -22.5 -8.5q-18.5 -4 -38.5 -9q-20.5 -5.5 -35.5 -10.5q-34.5 -11.5 -57 -23q-22.5 -11 -39.5 -27q-16.5 -15.5 -33.5 -40l-13.5 7" />
</g>
<g id="PathID_1009" transform="matrix(0.010049, 0, 0, 0.010049, 18.8, 10.55)">
<path style="fill:#000000;fill-opacity:1" d="M309.5 -382l-54.5 143.5q-8 22 -16 41.5q-8 19.5 -21 45.5q-10.5 -31.5 -15 -62.5q-4.5 -31.5 -4.5 -72.5q0 -33.5 3.5 -65.5q3 -32.5 10 -61.5q5.5 -24.5 14.5 -54q9 -29.5 19.5 -58.5q11 -28.5 21.5 -50.5q10 -20 14.5 -30.5q5 -10.5 6 -16.5q1 -6.5 1 -14.5q0 -16.5 -9.5 -37q-9.5 -20 -28.5 -43.5q-20.5 -27 -36.5 -38.5q-16 -11.5 -32.5 -12q15.5 27 22.5 49.5q6.5 22 6.5 47q0 15.5 -3.5 37.5q-3.5 22 -11 57.5l-16.5 78.5q-6.5 29 -9.5 46.5q-3 17 -5 32q-2.5 15 -5 36.5q-3.5 31 -6 58.5q-2 28 -2 51q0 62.5 9.5 120q9.5 57 26.5 98q8.5 20.5 19.5 31.5q11.5 10.5 24.5 10.5q8.5 0 15 -4.5q6.5 -4.5 9.5 -13q1.5 -4 2.5 -13q1 -9.5 1 -31q-0.5 -15.5 1 -28.5q1.5 -13.5 5.5 -32q3.5 -18 10.5 -48l33 -137q11.5 -48.5 13.5 -55.5q-7.5 -2.5 -14.5 -5M441.5 -639q32 31.5 64.5 44.5q32.5 13.5 74.5 13l16.5 -0.5l25.5 -1.5q-12.5 9.5 -37.5 30q-25 20.5 -59.5 50l10 10q21 -13.5 45.5 -27.5q24.5 -14.5 47.5 -26.5q23 -12 39 -18.5q29 -12 62.5 -20.5q33.5 -8 83 -15.5q16 -3 22.5 -8.5q6.5 -5 6 -15q0 -10 -7.5 -19.5q-8 -9.5 -24 -18.5q-11 -7 -20.5 -10.5q-9 -3.5 -15.5 -4q-5 0 -9 1.5q-4 1.5 -13.5 7q-22.5 12 -58.5 22.5q-36 10.5 -75 17q-39.5 6.5 -72 6.5q-27 0.5 -48 -6q-21.5 -6 -47.5 -21.5l-9 12M435 -329.5q-6.5 24 -9.5 43q-2.5 19 -2.5 37.5q0 42 14 75q13.5 33 41 58q35 31 102 46.5q67 16 163.5 16q43.5 0 77.5 -3q33.5 -3 50.5 -8q10.5 -4 16.5 -10.5q6 -6 6 -15.5q-0.5 -12.5 -11 -26.5q-10 -13.5 -25 -23.5q-15 -9.5 -28.5 -10q-6 0 -15.5 3q-16 6.5 -24 9.5q-8 3 -14 4q-6 1.5 -16 3q-21 3.5 -43 5.5l-44.5 1.5q-118 0.5 -171 -37q-53 -38 -52 -121.5q0 -9.5 1 -19q0.5 -9.5 2 -24l-17.5 -4" />
</g>
<g id="PathID_1010" transform="matrix(0.010049, 0, 0, 0.010049, 29.05, 10.55)">
<path style="fill:#000000;fill-opacity:1" d="M108.5 109.5q27.5 -13 47 -27.5q20 -14.5 35 -33q21 -26.5 32.5 -57.5q11.5 -31 11.5 -62q-0.5 -43.5 -21.5 -69q-21 -25 -57.5 -25.5q-30.5 0.5 -49 19.5q-19 18.5 -19.5 48q-0.5 25.5 13.5 40q14.5 14.5 47 21.5q11.5 3 15.5 7.5q4 4 4 13q0 27.5 -19 51.5q-19.5 24.5 -60 48l20.5 25.5" />
</g>
<g id="PathID_1011" transform="matrix(0.010049, 0, 0, 0.010049, 39.05, 10.55)">
<path style="fill:#000000;fill-opacity:1" d="M262 -770.5q-3.5 7 -5 11.5q-1 4.5 -1 8q0 12 5 28q5 15.5 14.5 31.5q14.5 27 31 41.5q16.5 15 32.5 15q6.5 0 13.5 -2.5q6.5 -2.5 17 -9q21 -12.5 50.5 -26.5q29.5 -13.5 73.5 -31q44.5 -17.5 66.5 -26q22 -8 31 -10.5q9.5 -2.5 14 -2.5q6.5 0.5 10.5 4q4 3.5 4 9.5q0.5 12 -39.5 56q-39.5 44 -124.5 124.5q-105.5 102 -177 157q-71 55.5 -110.5 67.5q-15.5 4.5 -21.5 10q-6.5 6 -6.5 16.5q0.5 10.5 10 23q9.5 12.5 22.5 22q13.5 9 25 9.5q4.5 0 9.5 -2.5q5.5 -2 16 -9q24 -15 67 -35.5q42.5 -20 95.5 -41.5q52.5 -21 106 -40q53.5 -19 98.5 -31.5q-41.5 24 -67.5 43.5q-25.5 19.5 -48.5 44.5q-31.5 33.5 -47.5 70q-16 37 -16 75.5q0.5 60 36 106q35.5 46 98 72.5q62.5 26 144.5 26.5q26.5 0 39.5 -6.5q13 -6.5 12.5 -21q-0.5 -11.5 -10.5 -25q-10 -13.5 -24 -23q-14 -10 -25.5 -10.5l-6 0.5l-10.5 1.5l-9 1l-10.5 0q-23 0 -38.5 -1q-15 -1 -27 -3q-11.5 -2.5 -24.5 -7.5q-48 -16.5 -74.5 -49.5q-26.5 -33.5 -27 -78.5q0.5 -54.5 37 -104q36.5 -50 102.5 -85.5q40 -21 89.5 -35q49 -14 92.5 -16l40 -2.5l17.5 -1q4.5 -0.5 8 -1.5q9.5 -1 15 -6.5q5.5 -5.5 5.5 -13q0 -8.5 -3.5 -15q-4 -6.5 -14 -15q-13.5 -11 -28 -17.5q-14.5 -7 -25 -7q-7 0 -15.5 1.5q-8 2 -26.5 9q-17.5 6 -41 12.5q-23 7 -54.5 16q-76.5 22 -133.5 39q-57 17.5 -101 31.5q-44.5 14.5 -83.5 28.5q-39 14 -80 30q52.5 -39 106 -80l102.5 -80q49 -39 88.5 -71.5q57.5 -47.5 91 -73q33.5 -25.5 44 -30.5q16.5 -6.5 21 -11q5 -4.5 4.5 -12.5q-1 -16.5 -17.5 -39q-16.5 -22 -38 -39.5q-22 -17 -37.5 -18q-4.5 0 -9.5 2q-5 2 -9 5q-10 9 -13.5 11.5q-3 2 -7 4q-9.5 4.5 -29 11q-19.5 6 -51 14.5q-57 16.5 -100 26q-42.5 10 -57.5 10q-14 0 -24.5 -3q-10.5 -3 -17.5 -9.5q-13.5 -10 -22 -21q-9 -11 -17 -27" />
</g>
<g id="PathID_1012" transform="matrix(0.010049, 0, 0, 0.010049, 49.3, 10.55)">
<path style="fill:#000000;fill-opacity:1" d="M174 -299q-24.5 39 -39.5 60q-15 20.5 -27 31q-11.5 11.5 -14.5 17q-3 5.5 -3 14q0.5 12 3.5 27.5q3 16 8 29q4.5 11.5 10.5 17.5q6 6 13 6q7 1 13.5 -9.5q6.5 -10 21.5 -46q34.5 37.5 58 66.5q23.5 29.5 32 45.5l5 13.5q3.5 9.5 7 20l5.5 15.5q3.5 14.5 10 21q6 6.5 14.5 6.5q19 -1 31 -31.5q12.5 -30 13 -75q0 -10.5 -0.5 -20.5q-0.5 -10 -2.5 -27.5q-5.5 -58 -8 -100.5q-2.5 -42.5 -2.5 -83q0 -11 0.5 -23.5q0 -12 0.5 -30q40.5 -48 78.5 -87.5q38 -39.5 77.5 -74.5q60.5 -54 103.5 -78.5q43 -25 75.5 -24.5q30 0 46 20.5q16.5 20.5 16.5 58q0 18 -1.5 34.5q-1.5 16.5 -7 45q-5.5 29 -17 82.5q-12.5 60.5 -19 107.5q-6.5 47 -6.5 75q0 70 30.5 106.5q30.5 37 89 37q55 -0.5 113 -30.5q58 -30.5 113.5 -87.5q-4 -6 -8 -12.5q-51.5 35 -101.5 54q-50 19 -89 19q-15 0 -28 -4q-13.5 -3.5 -24.5 -11.5q-13.5 -9.5 -19.5 -27.5q-6 -18 -6 -48q0 -32 4.5 -75q4.5 -43 14 -93.5q9.5 -51.5 14 -77.5q4.5 -26 5.5 -41q1 -14.5 1 -33q0 -29.5 -6.5 -51.5q-6.5 -21.5 -21 -38.5q-15.5 -17.5 -36.5 -27q-20.5 -9.5 -44.5 -9.5q-33 -0.5 -72.5 17q-39.5 17.5 -92.5 55.5q-21.5 15 -43.5 33.5q-22.5 18 -54 47q-31.5 29 -81 76q0 -11.5 0.5 -18.5q0 -7 1.5 -19.5q7.5 -18 15.5 -34q8 -16 17 -32.5q10 -15.5 12.5 -20.5q2.5 -5.5 2 -9q0.5 -6 -6.5 -14.5q-6.5 -8.5 -23 -25.5q3 -22 8 -43.5q5 -22 10.5 -37q5 -15 7 -22q2 -7 2.5 -11q0.5 -4 0.5 -9q-0.5 -15 -14.5 -32.5q-14 -18 -38.5 -35q-20 -13.5 -36.5 -20.5q-16.5 -7 -29 -7.5q-3.5 0 -6.5 1l-7 4.5q24.5 17.5 37 32.5q13 14.5 17.5 33.5q4.5 18.5 4 47.5q0 27 -1.5 52q-2 25 -5.5 56q-31 17.5 -60.5 31q-30 14 -53 22q-23.5 8.5 -34 8.5q-16.5 0 -33 -12.5q-17 -12 -33.5 -36.5q-1.5 5.5 -2.5 10.5q-1 5 -1 7q1 17 14 38.5q13 21.5 30.5 37.5q17.5 16 31.5 17q6.5 0 13.5 -3q7.5 -3.5 21.5 -13.5q9.5 -7 28 -19.5q18.5 -13 39 -26.5l36.5 -24.5l-1.5 16l-2 19.5q-0.5 13 -0.5 19.5q-0.5 6.5 -0.5 11.5l-1 12.5q-55.5 85.5 -111.5 171M284.5 -394.5q-1.5 20.5 -2.5 37.5l-1 35.5q-0.5 18.5 -0.5 43q-0.5 56.5 -0.5 89q-0.5 32 -0.5 49.5l-1 28l-1 25q-14.5 -8.5 -28 -18.5q-13.5 -9.5 -32 -24.5q-19 -15 -48.5 -40l17.5 -36.5l16.5 -33q8.5 -17 20 -39q22.5 -42 33.5 -61.5l16 -30.5q5.5 -10 12 -24" />
</g>
<g id="PathID_1013" transform="matrix(0.010049, 0, 0, 0.010049, 59.55, 10.55)">
<path style="fill:#000000;fill-opacity:1" d="M148.5 -665.5q23 30 45 47.5q22 17 47.5 24.5q25.5 7 60 7l29.5 -1q14.5 -1.5 39 -5q-36 54 -65.5 93q-29.5 38.5 -59.5 68.5q-29.5 30 -65.5 58.5q-14 11 -20.5 17.5q-6 6 -8 12q-1.5 6 -1 16.5q0 24.5 7.5 39.5q7.5 14.5 20 14.5q7.5 0.5 15.5 -6.5q8.5 -6.5 22.5 -26q56 -71 113.5 -109.5q57 -38.5 108.5 -39q17.5 0 31 8.5q14 8 21.5 22q7.5 15.5 10.5 32.5q3 17.5 3.5 48.5q-49.5 31 -78.5 51.5q-29.5 21 -48.5 39.5q-37.5 36 -55.5 70q-18 34.5 -18 70.5q0 37 18 63.5q18.5 26.5 57.5 45q31 14.5 83.5 22q52 7.5 124.5 7.5q32.5 0 66.5 -2l65 -5q30.5 -3 52 -7.5q15.5 -3 23.5 -10q8.5 -7.5 8.5 -17.5q-0.5 -11.5 -11.5 -23.5q-11 -11.5 -27.5 -19.5q-16.5 -8 -33 -8l-9 0.5l-10.5 2.5q-47 13.5 -99.5 21q-52.5 7.5 -106.5 7.5q-86 0 -128.5 -20q-42.5 -20.5 -42.5 -62q0 -23 12.5 -46.5q12.5 -24 38 -48.5q19 -18.5 46 -37q27 -18.5 73.5 -44q-0.5 34 -2.5 60.5q-1.5 27 -4.5 49q-1 5.5 -1 9.5l0 8q0 13.5 9 22q9 8.5 23.5 8.5q9.5 0 17 -5.5q8 -5 12 -13.5q3.5 -8 6 -31q2 -22.5 2 -57l0 -34q0 -12.5 -0.5 -23q0 -10.5 -0.5 -26q41 -20.5 93 -42q52 -21.5 101 -38.5q49 -17.5 80.5 -25q21.5 -4.5 29.5 -11q8 -7 7.5 -20.5q-1 -21.5 -20 -45q-19 -24 -45.5 -41q-26.5 -16.5 -50 -17.5l-10.5 1q-5 1.5 -13 5q22.5 9.5 34.5 22.5q12.5 12.5 12.5 25.5q0.5 9 -10 19.5q-11 10 -38.5 25.5q-27.5 16 -77.5 41q-41 20.5 -59.5 30q-18 9.5 -26 13q-7.5 3.5 -15 7.5q-7.5 -47 -38.5 -74.5q-30.5 -27.5 -76.5 -28q-28 0 -59 9.5q-30.5 9.5 -73 31.5l17 -24l16 -24l22.5 -34q17 -26 29 -43.5q12 -18 25 -36.5q41 -8 74.5 -15.5q34 -8 69 -18q35 -10 80 -24.5q23 -8 33.5 -16q10.5 -8 10.5 -17q-0.5 -15 -19.5 -24q-18.5 -9.5 -49 -10q-5.5 0 -10 2q-5 1.5 -9.5 5.5q-16.5 14 -34.5 24q-17.5 10.5 -44 20q-26.5 9.5 -69 21.5l8.5 -12.5l17 -27.5l14.5 -20.5q8 -12 15 -21.5q9 -11 13 -18q3.5 -6.5 3.5 -11.5q0 -9.5 -9 -18q-8.5 -8.5 -28 -16q-20 -8.5 -41 -13q-20.5 -4.5 -38.5 -4.5q-14 0 -24 2.5q-10 2 -22.5 9q39.5 9.5 56.5 23q17 14 16.5 34q0 17.5 -9.5 44.5q-9.5 27 -26.5 60q-34.5 7 -60 10.5q-25.5 3 -49.5 3q-27 0 -46.5 -4q-20 -4 -38.5 -14.5q-19 -10.5 -43 -29.5l-11 9" />
</g>
<g id="PathID_1014" transform="matrix(0.010049, 0, 0, 0.010049, 69.8, 10.55)">
<path style="fill:#000000;fill-opacity:1" d="M380 -255l249 0l0 56.5q0.5 6.5 4 9.5q4 2.5 11.5 2.5l3 0l6 0q24 -0.5 34 -4.5q9.5 -4.5 10 -15q-0.5 -13.5 -0.5 -49l-1 -80.5q0 -45.5 -0.5 -89l0 -73l0 -42q14.5 -7.5 20.5 -12.5q6.5 -5 6 -9q0 -2.5 -2.5 -5.5q-2.5 -3.5 -7.5 -8l-52.5 -42q-20 20.5 -39.5 41l-231 0q-15.5 -12 -27 -19.5q-11 -7.5 -22 -13.5q-11.5 -6 -28.5 -14q1 30 1.5 58.5q0.5 29 0.5 65.5l0 89q0 48 -0.5 83.5q0 35 -1 68l-1.5 74.5q0 7 3.5 10.5q4 3 11 3l3 0l6.5 -1l8.5 0q21 0 29 -3q7.5 -3.5 8 -12.5l0 -68.5M380 -552l249 0l0 273.5l-249 0l0 -273.5M174 2l671 0l0 52q1 7 5.5 10.5q4 3 12 3l1 0l1 0l5 0l3 0q26.5 -0.5 37.5 -4.5q10.5 -4.5 11 -15q-1.5 -42 -2 -78q-1 -36.5 -1.5 -80.5q-0.5 -44.5 -0.5 -111.5q-0.5 -67 -0.5 -171l0 -259.5l0 -87q20 -10.5 30 -18.5q10 -8 10 -14q0 -3 -1.5 -6l-5.5 -8.5l-23 -18l-18.5 -14.5l-24 -18.5q-15.5 14 -25.5 24q-10 9.5 -26 27l-647 0l-31 -19q-12.5 -7.5 -25 -14.5l-31 -17.5q1.5 44 3 103l2 118.5q1 60 1 107l0 219l-1 158q-1 65.5 -2 112q-1 46.5 -3 81.5q-0.5 7.5 3.5 10q4 2.5 17 2q31 0.5 42 -2.5q11 -3.5 13 -13.5l0 -55.5M174 -763l671 0l0 741.5l-671 0l0 -741.5" />
</g>
<g id="PathID_1015" transform="matrix(0.010049, 0, 0, 0.010049, 80.05, 10.55)">
<path style="fill:#000000;fill-opacity:1" d="M398.5 -269.5l0 25.5q0 9.5 15.5 9.5l1 0l2 0l2.5 0l3.5 0q22.5 -0.5 30.5 -4q8.5 -3 8.5 -11.5q-1 -58 -2 -96.5q-1 -38 -1 -64.5l-1 -49l0 -47.5l0 -63q15 -7.5 22 -12q6.5 -5 6.5 -9q0 -3 -2.5 -6.5q-2.5 -3.5 -8.5 -8l-25.5 -19q-10 -7.5 -27 -19q-10 11.5 -16 19q-6 7.5 -14.5 20l-92.5 0l0 -98.5l197 0q3 0 5.5 -1.5q2.5 -1.5 2.5 -3.5q0 -1 -1 -3l-2 -3l-25.5 -25.5l-21 -20.5l-26.5 -25l-25.5 28l-24.5 30.5l-79 0l0 -33.5l0 -24.5l0 -34q26.5 -4.5 36 -8q9.5 -4 9 -10.5q0.5 -5 -3.5 -8q-4.5 -3 -18 -6q-13 -2.5 -40 -6.5l-20.5 -3.5q-12.5 -1.5 -28.5 -4.5q1.5 20.5 2 34q1 13.5 1.5 26q0.5 12.5 0.5 31l0 48l-124 0q-23 0 -43.5 -3q-20.5 -2.5 -35.5 -7q3 20 5.5 40.5q13 -3.5 31.5 -5.5l42 -1.5l124 0l1 98.5l-85 0l-23.5 -15q-10 -6 -20 -11q-10 -5.5 -25 -13q2 29 3 52.5q1 24 1.5 49.5q0.5 25.5 0.5 61q0 53 -0.5 93.5l-1 77.5l-2.5 80.5q-0.5 6 3 8.5q4 2 14.5 2q27 0 36 -3.5q9 -3 9 -12l0 -35l91 0l0 70.5q0 22 -0.5 30q0 8 -0.5 14.5l-125 0q-25 0 -44.5 -2.5q-20 -2 -34.5 -6.5q2.5 20 4.5 40.5q13 -3.5 33 -6l41.5 -2l125 0l-1.5 125q-0.5 49.5 -0.5 71.5q0 4.5 3.5 6.5q4 2 11 2l23.5 -1.5q14 -1 18.5 -2q3.5 -1.5 5.5 -4q2 -2.5 2.5 -7q-0.5 -18.5 -0.5 -32q-0.5 -13 -0.5 -30.5l-0.5 -46.5l-0.5 -81.5l203 0q4 0 6 -1.5q2 -1 2 -2.5q0 -1.5 -1 -4l-3 -4.5l-26 -26.5q-10.5 -11 -21.5 -21q-10.5 -10 -27 -24q-25 30 -49.5 60.5l-83 0l0 -37l0 -78l98.5 0M398.5 -293l-98.5 0l0 -135l98.5 0l0 135M398.5 -451.5l-98.5 0l0 -130l98.5 0l0 130M240.5 -293l-91 0l0 -135l91 0l0 135M149.5 -451.5l0 -130l90 0l0.5 75l0.5 34l0 21l-91 0M977 -448.5q1.5 0 3.5 -1.5q1.5 -1 1.5 -2.5q0 -1.5 -1 -3.5q-1.5 -1.5 -3 -3.5l-34.5 -32.5q-14 -13 -28.5 -25l-36 -30l-22 25.5l-18.5 22q-9 11 -23 27.5l-257 0q-26.5 0 -44.5 -2.5q-18 -2.5 -33.5 -7.5l5 39.5q14 -3.5 30 -5q16 -1 43 -1l72.5 0q-12.5 80 -25.5 143.5q-13 63 -28.5 120q-16 57 -37 117.5l-45.5 3l-23.5 1.5l-14 0.5l-11.5 0l-16.5 -1q15 58.5 22 83.5q7 25.5 10.5 31q3.5 5.5 7.5 4.5q7.5 0 12.5 -11q4.5 -11 8 -36.5q50 -10.5 108.5 -23.5l115 -25.5l99.5 -23q43 -10 61 -15q7.5 20.5 14 40q6.5 19 9.5 30q6.5 27.5 11 35q4 7.5 10.5 7q11.5 -1 22.5 -15.5q11 -15 19 -36.5q7.5 -21.5 8 -42.5q0 -10 -4 -21q-4 -10.5 -15 -26.5q-11 -16.5 -32.5 -43.5q-33 -43 -57.5 -73q-25 -29.5 -47.5 -54q-23 -24 -50.5 -50l-11.5 11q33 52 53.5 87q20.5 35.5 34.5 65.5q14 29.5 28 65.5l-73.5 10q-29.5 4 -57.5 6.5l-66.5 6.5l-102.5 8q30 -59 57.5 -124.5q28 -65.5 51 -131q23.5 -65 39 -123.5l264 0M599 -744.5q-23.5 0 -43 -2.5q-19.5 -2 -33.5 -6.5l6 39.5q14 -3.5 30.5 -5.5l40 -1.5l341 0q4 0 6 -1.5q2.5 -1 2.5 -2.5q0 -1.5 -1 -3.5q-0.5 -2 -2 -3.5q-20.5 -18 -34.5 -30.5l-28 -23.5q-14 -11.5 -35 -28q-12.5 14.5 -20.5 24.5q-8.5 10 -16.5 20q-8.5 10 -20.5 25l-191.5 0" />
</g>
<g id="PathID_1016" transform="matrix(0.010049, 0, 0, 0.010049, 90.3, 10.55)">
<path style="fill:#000000;fill-opacity:1" d="M889 -322.5q-24.5 40.5 -41.5 64.5q-17 24.5 -34.5 44q-36 41.5 -82.5 80q-46.5 38 -100.5 69.5q-44 26.5 -88.5 47q-44 20.5 -95 38q-51 17 -115.5 34l6 15l67.5 -11.5q28.5 -5 51.5 -10.5q23 -5 47 -11.5q87.5 -24 166 -65.5q78 -41.5 144 -99.5q27.5 -23.5 49.5 -46.5q22 -23 45 -53q23 -29.5 53 -73.5q22.5 -7.5 32.5 -13.5q10 -6 9.5 -12q0 -3 -2 -6l-7 -7.5q-19.5 -14.5 -32.5 -23.5q-12.5 -9 -32 -22.5q-12.5 11.5 -20 19.5q-7.5 8.5 -20 21.5l-183.5 0q14 -15 27 -30q13 -15 34.5 -41q24.5 -4 33.5 -8.5q9 -4 8.5 -11q0.5 -3.5 -7 -8q-8 -4 -29 -9.5q-21 -6 -61 -15q-11.5 26.5 -30.5 55q-19 28 -53.5 68q-36.5 43 -72 76.5q-35.5 34 -78.5 65q-43 31 -100.5 66.5l7 14q48.5 -21.5 83 -39q34.5 -18 64 -37.5q30 -19.5 65 -46q18.5 16.5 33 34q15 17.5 25.5 35.5q17.5 29 25.5 38q7.5 9 14.5 8q8.5 -0.5 14 -12q5.5 -11.5 5.5 -31q0.5 -22 -7.5 -32.5q-8 -10.5 -34.5 -24q-13.5 -7.5 -21 -11q-7.5 -4 -16 -7.5l-24.5 -9q21 -17 37 -31.5q16 -14.5 34.5 -33l207 0M799 -704.5q-30 54 -57 93q-27.5 39 -59 72.5q-31.5 33.5 -75.5 71q-45 38 -83.5 66q-38.5 28.5 -76.5 50.5q-38.5 22 -83 42.5q3.5 7 6.5 14q51.5 -16.5 92 -33q40.5 -17 78 -38q37 -21 77.5 -49.5q49 -34 89 -70q39.5 -36.5 77.5 -83q37.5 -46 80.5 -110.5q33.5 -11 43 -16q9.5 -4.5 8 -9.5q0 -2.5 -2.5 -5.5q-2 -3 -7.5 -8l-32 -22.5l-34.5 -23.5l-36 36l-171 0l19.5 -28q9.5 -13.5 25.5 -38.5q30.5 -4.5 40 -8q9 -3.5 8 -9.5q0.5 -5 -7.5 -9.5q-8 -4 -31.5 -10.5q-23.5 -6.5 -68.5 -17q-6 19 -13.5 36q-7.5 17 -19 37.5q-11.5 21 -30 50.5q-29 48 -56 85q-27 36.5 -58 69q-31 33 -72 68l8 12.5q36.5 -23 62 -41.5q25.5 -18 47.5 -37q21.5 -19 47 -44.5q18 14.5 34 34.5q16.5 19.5 32 43.5q9.5 15 15.5 21q6 5.5 11 5.5q10 -0.5 16.5 -14.5q6.5 -14 7 -35q1 -22 -21.5 -36.5q-22.5 -15 -82 -32q20.5 -21 35.5 -38.5q14.5 -17 32 -39l184.5 0M269.5 -743.5l38.5 -12q16.5 -5.5 35 -12.5l44.5 -17.5q12.5 2 24 3l14.5 1.5q7 -0.5 12 -3q4.5 -3 4.5 -7.5q0.5 -6.5 -21 -20.5q-21.5 -14 -71 -39q-14.5 11 -27.5 19.5q-13 8.5 -29.5 17q-17 9 -42.5 21q-30.5 14.5 -59 26q-28.5 11.5 -62 22.5q-33.5 11 -79.5 24l5 14.5l56 -5q23.5 -2.5 45 -6q22 -4 49.5 -10.5l0 158.5l-85 0q-21.5 0 -35.5 -1q-14 -1.5 -33 -5l5 34.5l28 -3.5l30.5 -1.5l77.5 0q-10 40 -17.5 65q-7 25 -14 47q-7.5 22 -18.5 52q-17.5 47 -33.5 85q-16 37.5 -34 74.5q-18.5 37 -43 81q6 4.5 12 8.5q37.5 -51 66 -97q28.5 -46 52 -95.5q24 -50 48 -113l-5 185.5l0 14.5l0 15.5l0 142q0 35 -1 69q-0.5 33.5 -2 78.5q0 6 2.5 9q3 2.5 10.5 2.5l26.5 -1.5q12 -1.5 21 -5q3.5 -1 5.5 -3.5q1.5 -2.5 1.5 -7.5l-1 -313.5l0 -218q22.5 17.5 42 42q19.5 24 36 54.5q9.5 18.5 14.5 24.5q5.5 5.5 12 5q10 -0.5 16.5 -14q7 -14 7 -35q0.5 -18 -9.5 -31q-10.5 -13 -37.5 -28.5q-15 -9.5 -31.5 -17q-17 -7.5 -49.5 -20l0 -55.5l129 0q4 0 7 -1.5q3 -1.5 3.5 -4.5l-1.5 -4q-1 -2 -3 -4.5l-23.5 -23.5l-20 -18.5q-10.5 -9.5 -26 -22q-13 15.5 -21.5 26.5l-22.5 28.5l-21.5 0l0 -174" />
</g>
<g id="PathID_1017" transform="matrix(0.010049, 0, 0, 0.010049, 100.55, 10.55)">
<path style="fill:#000000;fill-opacity:1" d="M98.5 -244q-0.5 7 3.5 9.5q4.5 3 15 3l22 -1.5q12 -1 17 -2.5q6 -1.5 8 -4.5q2 -3.5 2 -10l0 -19.5l122.5 0l0 101.5l-160.5 0l-37 -1.5q-15.5 -1.5 -33.5 -4.5l7 34.5q18 -3 30.5 -4l28 -1l165.5 0l0 88q-77.5 7.5 -136 12q-59 4 -107.5 5.5q14.5 58 22.5 80q8.5 22.5 15.5 21.5q5 0 9.5 -8q4 -8.5 9 -29l24 -5.5l30.5 -6l57 -11.5q38 -8 104 -21q28 -6 58 -13q30 -6.5 71.5 -17q41 -10 102 -26.5l-2 -12l-70 9.5l-60.5 7.5l-67 7.5l0 -82l216 0q4 0 6.5 -2q2.5 -2 3 -5q0 -1.5 -1 -3.5q-1 -2 -3.5 -5q-15 -12.5 -26 -21l-21.5 -17q-11 -9 -27 -21.5q-14 15.5 -23.5 25.5l-24.5 26l-98.5 0l0 -101.5l128 0l0 12.5l0 3q0 6 5 9q5 3 14.5 3q24.5 0.5 34.5 -4q10 -4.5 9.5 -15.5l-1.5 -64q-0.5 -25 -0.5 -44.5l0 -19.5l0 -21.5q0 -12.5 0.5 -36.5q0 -24 0.5 -65.5q18.5 -13.5 23 -17.5q4.5 -4 3.5 -7q0 -2.5 -2.5 -5.5l-8.5 -8q-15.5 -12 -25 -20l-25.5 -20q-10.5 12.5 -18 20l-17.5 20l-120 0l0 -82l238.5 0q6.5 0 10 -1.5q3.5 -1.5 3.5 -4.5q0 -1.5 -1.5 -4l-3.5 -4.5l-27.5 -21.5q-11 -9 -23 -18l-28.5 -21.5q-15.5 15.5 -24.5 25.5q-9 10 -22.5 26.5l-121 0l0 -95l58 -12q26 -5.5 51.5 -11.5l55.5 -14.5l30 2l13 1q8.5 0 13.5 -2.5q5 -3 5 -6.5q0.5 -3.5 -3 -7q-4 -3 -18.5 -11.5l-31 -17.5q-18 -10.5 -38 -20.5q-28.5 16.5 -67.5 31.5q-38.5 14.5 -101.5 32q-67.5 19 -131 33.5q-63.5 14 -119.5 23l2 14q61.5 -3.5 113.5 -9q52 -5 107.5 -13.5l0 84l-164.5 0l-37 -2q-22 -2 -41 -5q4 17.5 7.5 35.5q24.5 -3 40 -4l30.5 -1l164.5 0l0 82l-115.5 0l-26 -14l-21.5 -11.5l-27 -14.5l3 65.5q0.5 20.5 1 31l0 23.5q0 38 -0.5 78.5q-0.5 40.5 -1.5 78l-2 68.5l0 2M477 -293l-128 0l0 -107.5l128 0l0 107.5M477 -424l-128 0l0 -103.5l128 0l0 103.5M288.5 -293l-122.5 0l0 -107.5l122.5 0l0 107.5M288.5 -424l-122.5 0l0 -103.5l122.5 0l0 103.5M768 -581.5q2 -39 3 -66q1 -27.5 1.5 -57.5l1.5 -78.5q26 -11.5 34 -17q8 -5.5 8 -11.5l0 -1q0.5 -7.5 -27 -13q-27.5 -5 -85.5 -8.5l2.5 37.5l1 33.5q0.5 17 0.5 41.5q0 30.5 -1 65q-1 34 -3 75.5l-48.5 0l-37.5 -1.5l-45 -5.5l10 36.5q23 -3.5 38 -5l27.5 -1l54.5 0q-6.5 120 -21 206.5q-14 86 -39.5 150q-25 64 -63.5 116.5q-36 48 -79 84q-43.5 36.5 -107.5 71.5l8 12.5q29.5 -11 50.5 -20.5q20.5 -9.5 38 -19.5q17 -10 35.5 -23.5q58 -40.5 101 -92q43 -51.5 70 -113q29 -65 47 -157q17.5 -91.5 25 -215.5l116.5 0q-4 194 -16 325.5q-12 131.5 -32 191.5q-4.5 14.5 -16 20.5q-11 6 -33 6q-10.5 0 -35 -1l-54 -3l-58.5 -4l0 14q40 7.5 62 14q22 6.5 35 14q10 4 15 12q5 8.5 15 35q33 -5 52.5 -11.5q19.5 -6.5 35.5 -17.5q20 -11 31.5 -30q11 -19 20.5 -56q16 -60 27.5 -179.5q11 -120 17.5 -306.5q17.5 -15 24.5 -21.5q6.5 -7 6.5 -10q0 -4 -2 -7q-2.5 -3.5 -8.5 -8.5l-27.5 -21.5q-11 -8.5 -29.5 -21l-19 21.5l-19 21l-108.5 0" />
</g>
<g id="PathID_1018" transform="matrix(0.010049, 0, 0, 0.010049, 110.8, 10.55)">
<path style="fill:#000000;fill-opacity:1" d="M637.5 -722l40.5 27q13 9 21.5 15.5q8.5 6.5 21 17q-23 13.5 -40.5 22q-17 8.5 -34 16l-36.5 14.5q-11.5 4.5 -17 7q-5 2 -11 5q-31 -39 -50.5 -64l-28.5 -34.5q-23.5 -26.5 -33 -38.5q-9.5 -12.5 -9 -15.5q0 -5.5 8 -8.5q7.5 -3 23.5 -3l17 1l29.5 3l5 -15q-34.5 -11.5 -63.5 -16.5q-29 -5.5 -56.5 -5q-33 0 -51 10q-18.5 10 -18.5 27.5q-0.5 10.5 7.5 19q8 8.5 31.5 21q31.5 18 70.5 54q38.5 36 71.5 79.5q-51.5 15 -100 23.5q-48 8 -89 8q-47.5 0.5 -85.5 -13q-38 -13 -78.5 -43.5l-11 10.5q38.5 46.5 84.5 68.5q45.5 21.5 103.5 21.5q50.5 0 101.5 -8.5q51.5 -8.5 106.5 -25.5q43 60 74.5 117.5q31.5 57 48.5 110.5q-42.5 -12.5 -95.5 -20q-53 -7 -105.5 -7q-127 0.5 -197.5 43.5q-70.5 43 -71.5 120.5q0.5 56 38.5 99.5q38 43.5 108 67.5q40 13.5 91.5 20.5q51 7 109 7q52.5 0.5 71.5 -6.5q18.5 -6.5 17.5 -25.5q-0.5 -11.5 -10.5 -24q-10 -13 -24.5 -22q-14.5 -9 -28.5 -9l-5.5 0.5l-6.5 1.5q-19.5 3.5 -40 5.5l-49.5 1.5q-41.5 0 -78.5 -6q-36.5 -5.5 -63.5 -16.5q-38 -16.5 -59 -43q-20.5 -27 -21 -60.5q1 -55.5 51.5 -87.5q50.5 -31.5 140 -32q49.5 0 97.5 10q48 10.5 88 29q17 8 35 20.5q18 12.5 33.5 27.5q10.5 10.5 17 14q6.5 3.5 14.5 3.5q15.5 0 21.5 -12.5q6.5 -12.5 6.5 -42q0 -18.5 -5.5 -36.5q-5 -18.5 -17 -40.5q-16 -29 -38.5 -66q-22.5 -37 -49 -77q-26 -40 -53 -78q48.5 -18.5 74.5 -29q26.5 -10.5 42 -18q15.5 -7 33 -16.5q29 -16.5 43 -29.5q13.5 -12.5 13.5 -24q-0.5 -15 -10.5 -23.5q-10.5 -8 -29.5 -8l-6 0l-5.5 1l-5 0q-9.5 0 -29 -4.5q-19.5 -4.5 -42.5 -11.5q-23 -7.5 -44 -15.5q-4 5.5 -7.5 11" />
</g>
<g id="PathID_1019" transform="matrix(0.010049, 0, 0, 0.010049, 121.05, 10.55)">
<path style="fill:#000000;fill-opacity:1" d="M437 -346q12.5 11.5 17.5 15.5l14.5 12l30.5 27l12.5 11l6 5q15.5 14.5 24 26q9 11.5 12 21.5q4.5 15 10 20.5q6 5.5 15.5 5q23.5 -0.5 44 -22.5q21 -22.5 33 -60.5q7 -23 14.5 -76.5q7.5 -53 15 -134.5l88 -7l42 -2l25 0.5l36 1l24 1.5l13 1l9.5 0q11 0 18.5 -6q7 -6 7 -14.5q0.5 -8 -5.5 -14.5q-6.5 -6.5 -23 -15q-20.5 -12 -39.5 -18.5q-19 -7 -30 -7.5q-5 0 -11 1.5q-6 1.5 -21 7q-19.5 6.5 -36.5 11q-16.5 4.5 -31 7.5l-33 6.5l-15.5 3l-12 1.5q7 -59.5 13.5 -96q6 -36 12.5 -53.5q6.5 -16.5 8 -21.5q1.5 -5.5 1 -11q0 -14 -10.5 -25.5q-10.5 -12 -30.5 -22q-28 -13 -54 -20q-26 -7.5 -46.5 -7.5q-9.5 0 -15 2.5q-5 2 -12.5 9q16 4 27.5 10q12 6 25 16.5q18.5 14.5 26.5 33.5q7.5 19 7 50.5q0 36.5 -1.5 76.5q-1 40 -3.5 69l-75 14q-32 6 -61 12q-28.5 6 -62.5 14l-80 19.5l1.5 -11l1.5 -17l3 -39l2 -21q1.5 -11 3 -17.5q4 -14 4.5 -18q1 -4 1 -8q-0.5 -14.5 -10 -27q-9.5 -12.5 -28 -21q-25.5 -12.5 -52.5 -20.5q-26.5 -8 -46 -8q-8 0 -13.5 2q-5.5 2 -13 7q38.5 15 57.5 32.5q19 17 23.5 41.5q2.5 11.5 4.5 34.5q2 22.5 3.5 50.5q1.5 27.5 2 54q-58.5 16.5 -92 24.5q-34 8.5 -53 11.5q-19.5 3 -35 3q-27.5 0 -49 -12q-21.5 -12 -39 -37q-1 4.5 -1.5 8.5q-0.5 3.5 -0.5 6.5q0.5 21 18 45q17.5 24.5 41.5 42q24 17.5 44.5 18.5q6 0 11.5 -2q5.5 -2 15.5 -7q25 -14 60.5 -28.5q36 -14.5 78.5 -28q1 43.5 2 72q0.5 28 1.5 47q0.5 18.5 1.5 33.5q4.5 61.5 14 99.5q9.5 38 26 60q22 31.5 54 50q32 18.5 81.5 26.5q49.5 7.5 125 7.5l72.5 -2.5q37.5 -2.5 67 -6.5q29.5 -3.5 41.5 -8.5q18.5 -6 18.5 -24.5q-0.5 -10.5 -11.5 -22.5q-11 -12 -27 -20.5q-15.5 -8.5 -29 -9q-4 -0.5 -8.5 1q-4.5 1 -18 6q-36 11 -82.5 17.5q-47 7 -92 7q-53 0 -85.5 -6q-32 -6 -51.5 -20.5q-19.5 -12.5 -30 -34.5q-11 -22.5 -15 -62q-4.5 -39.5 -4 -105q0 -31.5 0.5 -59.5q1 -27.5 3.5 -64.5q66 -22 133.5 -37q67 -15 142 -24q-11 104 -22 155.5q-11.5 51 -24 51q-7 0.5 -39 -16q-32.5 -16.5 -103.5 -56.5l-8.5 10" />
</g>
<g id="PathID_1020" transform="matrix(0.010049, 0, 0, 0.010049, 131.3, 10.55)">
<path style="fill:#000000;fill-opacity:1" d="M107.5 -668q-6.5 9 -9 15q-2.5 6 -2 12q0 12.5 7 31q7 18.5 19.5 37.5q18 28 39 44q21 16 40 16.5q9 0.5 17.5 -2.5q8.5 -3 23.5 -12q25.5 -13.5 70 -31.5q44 -18 93.5 -34q58 -19 107.5 -32q49 -13.5 94.5 -23q45.5 -9 92 -15.5q-42.5 21.5 -72 39.5q-30 18.5 -52.5 36.5q-22.5 18.5 -42.5 40.5q-53.5 58 -82.5 122.5q-28.5 64.5 -29 127.5q0 71.5 30 129.5q30 58 88.5 100q29.5 20.5 66.5 37.5q37 16.5 74.5 26q37 10 67 10q17 0 27.5 -7.5q10 -8 10.5 -21q-0.5 -9.5 -8.5 -22.5q-8.5 -12.5 -22.5 -26.5q-10.5 -10 -19.5 -13.5q-8.5 -3.5 -23.5 -3q-22.5 -1 -50.5 -7.5q-28 -6.5 -54 -17q-66 -29 -100.5 -80q-34.5 -51 -34.5 -122q0.5 -65 29 -125.5q28.5 -60.5 77.5 -108.5q48.5 -48 110 -76q61.5 -28.5 127.5 -29l13 0.5q6 0 15.5 1.5q5.5 1 10.5 1l8 0q15 0 23.5 -7q8.5 -7 8.5 -18.5q0 -10.5 -7.5 -20q-7 -9 -22.5 -19q-15.5 -9.5 -30.5 -15.5q-15 -6 -24.5 -6q-6 0 -13.5 2q-7.5 1.5 -22.5 6q-15 5 -32 10q-17.5 4.5 -42.5 10q-25 5.5 -63.5 13q-51 10 -92.5 19q-41.5 9 -73.5 17q-85 20.5 -137 32.5q-52 12.5 -80 18.5q-28 6 -42.5 8l-24 1.5q-15 0 -25.5 -3.5q-10 -4 -20.5 -14q-12 -10.5 -19.5 -22.5q-7.5 -12 -14.5 -30" />
</g>
<g id="PathID_1021" transform="matrix(0.010049, 0, 0, 0.010049, 141.55, 10.55)">
<path style="fill:#000000;fill-opacity:1" d="M108.5 109.5q27.5 -13 47 -27.5q20 -14.5 35 -33q21 -26.5 32.5 -57.5q11.5 -31 11.5 -62q-0.5 -43.5 -21.5 -69q-21 -25 -57.5 -25.5q-30.5 0.5 -49 19.5q-19 18.5 -19.5 48q-0.5 25.5 13.5 40q14.5 14.5 47 21.5q11.5 3 15.5 7.5q4 4 4 13q0 27.5 -19 51.5q-19.5 24.5 -60 48l20.5 25.5" />
</g>
</svg>
