<?xml version="1.0" encoding="utf-8"?>
<svg version="1.1" id="Layer_1"
xmlns="http://www.w3.org/2000/svg"
xmlns:xlink="http://www.w3.org/1999/xlink"
xmlns:author="http://www.sothink.com"
width="66px" height="13px"
xml:space="preserve">
<g id="PathID_1059" transform="matrix(0.010049, 0, 0, 0.010049, -0.4, 10.7)">
<path style="fill:#000000;fill-opacity:1" d="M978 -777.5q12.5 0 12.5 -6q0 -1.5 -1 -3.5l-3 -4q-21.5 -19 -36.5 -32q-15 -13 -30.5 -25.5l-39 -30.5q-14.5 16 -24 27l-19.5 22.5l-23 28.5l-632 0q-33 0 -55 -1q-22 -0.5 -41.5 -3q-19 -2 -43.5 -6l7 38.5q29 -3 59.5 -4q30.5 -1 73.5 -1l271.5 0q-6.5 45 -12 74q-5.5 29 -12.5 54.5q-7 25.5 -18.5 61l-213 0q-18.5 -11.5 -31.5 -19q-13 -7.5 -26.5 -14.5l-33 -16.5l2 26.5l1 31.5q0.5 19 0.5 52.5q0.5 33.5 0.5 90l0 144l0 32l-0.5 52.5l-1 98l-2.5 169l0 3l0 1q-0.5 7 4 9.5q4 2 18.5 2l24.5 -1.5q13 -1 18.5 -2.5q5 -1.5 7 -4q2.5 -2 3 -7.5l0 -49l651.5 0l0 49q0 6 3.5 9q3 2.5 11 2.5q19 0 34.5 -2q16 -2 22 -4.5q3 -2 4.5 -5q1.5 -3 1.5 -8l-1 -97.5q-0.5 -40.5 -0.5 -79.5q-0.5 -39 -0.5 -90.5l0 -129.5l0 -198q17.5 -11.5 25 -18.5q8 -7 7.5 -12q0.5 -2.5 -2 -5q-2.5 -3 -8 -7.5l-23 -18l-20 -14.5q-10 -7 -26 -17.5q-13 15 -21 25l-21 25l-380.5 0q13.5 -17.5 23 -30.5q9 -13 19.5 -30q10 -17 26 -47q16.5 -30 44 -82l426 0M404.5 -408l0 -156.5l189.5 0l0 156.5l-189.5 0M404.5 -384.5l189.5 0l0 166l-189.5 0l0 -166M404.5 -195l189.5 0l0 180.5l-189.5 0l0 -180.5M339 -564.5l0 550l-157 0l0 -550l157 0M661.5 -564.5l172 0l0 550l-172 0l0 -550" />
</g>
<g id="PathID_1060" transform="matrix(0.010049, 0, 0, 0.010049, 9.85, 10.7)">
<path style="fill:#000000;fill-opacity:1" d="M259 -749.5q20 -5.5 34.5 -10q15 -4.5 30 -9.5q15.5 -5.5 37 -13.5l25 4q9 1.5 12 1.5q5.5 -0.5 8.5 -3q3.5 -2 3.5 -5.5q1 -5.5 -18 -19q-18.5 -14 -70 -45.5q-22 18 -42.5 30.5q-21 13 -52.5 29q-27.5 14 -52.5 25q-25.5 10.5 -55 20q-30 10 -71 21.5q3 7 6.5 14.5l47 -5q19 -2.5 39 -6.5q20.5 -4 52 -11l0 164.5l-88 0l-31.5 -1.5q-12 -1.5 -31 -6.5l8 37.5q13 -3 25.5 -4.5l29 -1.5l79 0q-6 29.5 -11.5 51.5q-5 22.5 -12.5 47q-7.5 24.5 -20 61.5q-19.5 57 -34 95q-14.5 37.5 -30 69.5q-15 32 -36.5 72l10 8.5q32.5 -41.5 58 -83q25.5 -41 48.5 -89.5q22.5 -48.5 46 -111.5l-4 175.5l-2.5 139.5l-1 79q-1 28.5 -1.5 48l-1 46.5q0 7.5 3.5 10.5q3 3 11 3l27 -1.5q14.5 -1 19 -2.5q4.5 -1.5 6 -4.5q1.5 -2.5 2 -7q-0.5 -43.5 -0.5 -72q-0.5 -28.5 -0.5 -56.5l0 -70l0 -112.5l0 -197q18.5 18.5 35 47.5q16.5 29 30.5 65q9.5 25.5 13.5 31.5q3.5 6.5 9 5.5q7 -0.5 14 -10q6.5 -9.5 11 -24q4.5 -14.5 5 -29.5q0 -13.5 -10.5 -28.5q-10.5 -15 -32.5 -32q-18.5 -14 -38.5 -26.5q-20 -12.5 -36.5 -20.5l0 -78l133 0q5.5 0 9 -1.5q3.5 -1.5 3.5 -4.5q0 -1.5 -1.5 -4l-3.5 -4.5q-14.5 -12.5 -24.5 -21.5q-10 -8.5 -20 -16.5l-24.5 -21q-14.5 15 -23 24.5q-9 9.5 -23 25.5l-25.5 0l0 -182M678 -746.5l0 -59.5q21.5 -5 31 -10q10 -5.5 10 -11.5q1 -5 -4 -7.5q-5.5 -3 -29 -6.5l-77.5 -10.5l1.5 38q1 15.5 1 31q0.5 15 0.5 36.5l-158 0l-35.5 -1.5q-14 -1.5 -33 -6.5l7 37.5q15.5 -3 28 -4.5l25.5 -1.5l166 0l0 82l-126 0l-29.5 -1.5q-14 -2 -32 -5.5l7 36.5q16 -3.5 25.5 -5l25 -1l130 0l0 90l-186.5 0q-12.5 0 -28.5 -2q-16 -2 -31 -5q3.5 18 7.5 36.5q14 -3 26 -4.5l26 -1.5l570.5 0q3 0 5.5 -1.5q2.5 -1.5 2.5 -3.5q0 -1.5 -1 -3.5q-0.5 -1.5 -2 -4q-16.5 -15 -28 -25l-23 -19.5q-11.5 -10 -28 -24q-17.5 16.5 -28 28l-28.5 29.5l-187 0l0 -90l247.5 0q5.5 0 9 -1.5q3.5 -1.5 3.5 -3.5q0 -1.5 -1 -4q-1 -2 -3 -4.5q-16.5 -14 -28 -23q-11 -9.5 -22.5 -18l-27.5 -21.5l-19.5 19l-14 14q-7 6.5 -19.5 19.5l-125 0l0 -82l281.5 0q4 0 7 -2q3 -2 3 -5l-0.5 -2.5q-1 -2 -3.5 -5q-17 -14 -28.5 -24l-24 -18.5l-29.5 -23q-17 17 -28.5 27.5q-11.5 11 -29.5 29l-147.5 0M485.5 -110.5l327.5 0l0 19.5q0.5 5 3.5 7q3 2 10 2q32.5 0.5 43.5 -3.5q10.5 -4 9.5 -17q-1 -48.5 -1.5 -84.5q-1 -36 -1 -65.5q-0.5 -29 -0.5 -57l0 -31.5l0 -23l0 -31.5q21 -13 26.5 -18q6 -5 5 -9.5q0.5 -3 -2.5 -6.5q-2.5 -3.5 -8.5 -9l-28.5 -19l-29 -20q-11 11.5 -17.5 19q-7 7.5 -17 20l-306 0l-28.5 -15l-22.5 -11q-11 -5.5 -27 -13q1.5 25 2 71.5q1 46.5 1 126.5l0 86q0 32.5 -0.5 55.5q-0.5 23.5 -1.5 50q0.5 5.5 4 8q3.5 2.5 10.5 2l12.5 -0.5l19 -1.5l10.5 -1q3.5 -1.5 5 -4q1.5 -2.5 2 -7l0 -18.5M813 -343l-327.5 0l0 -72l327.5 0l0 72M813 -319.5l0 78l-327.5 0l0 -78l327.5 0M813 -218l0 84l-327.5 0l0 -84l327.5 0M703.5 -61.5q59 24 107 51.5q47.5 28 84.5 60q16.5 14.5 24.5 20.5q7.5 6.5 11.5 8q3.5 1.5 8 1.5q6 -0.5 10 -7.5q4 -7.5 4.5 -20q-0.5 -7.5 -2 -18.5q-1.5 -10.5 -3.5 -19.5q-4 -19 -18.5 -31q-14.5 -12 -41.5 -20.5q-29 -9 -75.5 -18.5q-46.5 -9.5 -104 -18l-5 12M293 78q41 -8.5 72.5 -17q31.5 -8.5 60 -19.5q28.5 -10.5 60 -26q32 -15.5 74 -38l13.5 0l10 0q16.5 0 24 -2.5q7.5 -2.5 7.5 -7.5q1 -3.5 -4.5 -7q-5 -4 -25 -13q-20 -9.5 -63.5 -28.5q-18.5 20 -36 34.5q-17.5 14 -47 33q-25 17 -47 30q-22.5 12.5 -47 24.5q-25 11.5 -57 24.5q3 6 5.5 12.5" />
</g>
<g id="PathID_1061" transform="matrix(0.010049, 0, 0, 0.010049, 20.1, 10.7)">
<path style="fill:#000000;fill-opacity:1" d="M309.5 -382l-54.5 143.5q-8 22 -16 41.5q-8 19.5 -21 45.5q-10.5 -31.5 -15 -62.5q-4.5 -31.5 -4.5 -72.5q0 -33.5 3.5 -65.5q3 -32.5 10 -61.5q5.5 -24.5 14.5 -54q9 -29.5 19.5 -58.5q11 -28.5 21.5 -50.5q10 -20 14.5 -30.5q5 -10.5 6 -16.5q1 -6.5 1 -14.5q0 -16.5 -9.5 -37q-9.5 -20 -28.5 -43.5q-20.5 -27 -36.5 -38.5q-16 -11.5 -32.5 -12q15.5 27 22.5 49.5q6.5 22 6.5 47q0 15.5 -3.5 37.5q-3.5 22 -11 57.5l-16.5 78.5q-6.5 29 -9.5 46.5q-3 17 -5 32q-2.5 15 -5 36.5q-3.5 31 -6 58.5q-2 28 -2 51q0 62.5 9.5 120q9.5 57 26.5 98q8.5 20.5 19.5 31.5q11.5 10.5 24.5 10.5q8.5 0 15 -4.5q6.5 -4.5 9.5 -13q1.5 -4 2.5 -13q1 -9.5 1 -31q-0.5 -15.5 1 -28.5q1.5 -13.5 5.5 -32q3.5 -18 10.5 -48l33 -137q11.5 -48.5 13.5 -55.5q-7.5 -2.5 -14.5 -5M441.5 -639q32 31.5 64.5 44.5q32.5 13.5 74.5 13l16.5 -0.5l25.5 -1.5q-12.5 9.5 -37.5 30q-25 20.5 -59.5 50l10 10q21 -13.5 45.5 -27.5q24.5 -14.5 47.5 -26.5q23 -12 39 -18.5q29 -12 62.5 -20.5q33.5 -8 83 -15.5q16 -3 22.5 -8.5q6.5 -5 6 -15q0 -10 -7.5 -19.5q-8 -9.5 -24 -18.5q-11 -7 -20.5 -10.5q-9 -3.5 -15.5 -4q-5 0 -9 1.5q-4 1.5 -13.5 7q-22.5 12 -58.5 22.5q-36 10.5 -75 17q-39.5 6.5 -72 6.5q-27 0.5 -48 -6q-21.5 -6 -47.5 -21.5l-9 12M435 -329.5q-6.5 24 -9.5 43q-2.5 19 -2.5 37.5q0 42 14 75q13.5 33 41 58q35 31 102 46.5q67 16 163.5 16q43.5 0 77.5 -3q33.5 -3 50.5 -8q10.5 -4 16.5 -10.5q6 -6 6 -15.5q-0.5 -12.5 -11 -26.5q-10 -13.5 -25 -23.5q-15 -9.5 -28.5 -10q-6 0 -15.5 3q-16 6.5 -24 9.5q-8 3 -14 4q-6 1.5 -16 3q-21 3.5 -43 5.5l-44.5 1.5q-118 0.5 -171 -37q-53 -38 -52 -121.5q0 -9.5 1 -19q0.5 -9.5 2 -24l-17.5 -4" />
</g>
<g id="PathID_1062" transform="matrix(0.010049, 0, 0, 0.010049, 30.35, 10.7)">
<path style="fill:#000000;fill-opacity:1" d="M529.5 -533.5l0 -50q24.5 -6 33 -10q8.5 -4 8 -10.5q0.5 -4 -4 -7q-4 -2.5 -18 -5.5l-42.5 -7q21 -19.5 40 -40.5q19.5 -21.5 45 -53l53 0q21.5 27.5 35.5 58q14 30 25 72q2.5 11.5 6.5 17.5q4.5 5.5 10 5.5q7.5 -0.5 16 -10.5q9 -9.5 15 -22.5q6.5 -13.5 7 -24.5q0 -10.5 -7 -21q-7 -10.5 -25 -26.5q-19.5 -17.5 -32 -27q-13 -9.5 -32.5 -21l302 0q3.5 0 6.5 -2q2.5 -2 3 -5q0 -1.5 -1.5 -3.5q-1.5 -2 -5 -5q-48 -36.5 -96 -73.5l-29.5 31.5q-11 13 -30 34l-201.5 0q14 -18 23 -32q9 -13.5 22 -35.5q25 -3 36.5 -8q11.5 -4.5 11.5 -11.5q1 -4.5 -6.5 -8q-7 -3.5 -31.5 -8.5l-74.5 -13q-15 59 -40.5 115.5q-26 56.5 -64 115.5l-14 -1l-12.5 -2l3 38l1 19.5l0 15.5l0 22.5l-203 0q-23.5 0 -42 -2.5q-19 -2.5 -42.5 -9l8 43q19 -3.5 31 -5q11.5 -2 21.5 -2.5q10.5 -0.5 24 -0.5l203 0l0 124l-304 0q-22 0 -37.5 -0.5q-15 -1 -29 -3q-14.5 -2 -34 -6.5l7 40.5l32 -4.5l26 -2q13.5 -0.5 35.5 -0.5l495.5 0l0 118.5l-479 0q-23.5 0 -38 -1q-15 -0.5 -27 -3q-12 -2 -26.5 -6q3.5 20.5 7.5 41.5q11.5 -3.5 22 -5q10 -2 24 -2.5q14 -0.5 38 -0.5l479 0l0 197.5q0 10 -3 13.5q-3 3 -10.5 3l-2 0l-3 0l-58 -2.5l-39 -2l-33.5 -2l-42.5 -2.5l0 16q39 5 61 9q22.5 3.5 34.5 8q12 4.5 20 11q10.5 7 16 18.5q5 11.5 8 32.5q33.5 -5 54 -12q20.5 -6.5 36 -17.5q15 -9.5 21.5 -23q6.5 -13.5 9 -39.5q-0.5 -48.5 -0.5 -70q-0.5 -21.5 -0.5 -29.5l0 -14.5l0 -94l231.5 0q3 0 6 -2q3 -2 3 -4q0 -1.5 -1 -4q-0.5 -2 -3 -4.5q-18.5 -16 -31 -27.5l-26 -21.5q-12.5 -11 -31 -26.5l-20 23.5l-16.5 19l-20 24l-92 0l0 -118.5l243.5 0q5 0 8 -2q3.5 -2 3.5 -4q0 -1.5 -1.5 -4l-3.5 -5.5q-19 -17 -32 -28l-26.5 -22.5l-33 -26l-22.5 23.5q-9 10 -17.5 20q-9 10 -21 25l-291 0l0 -124l324.5 0q3.5 0 5.5 -2q2.5 -2 3 -4q0 -3 -3.5 -6.5q-16 -14.5 -27 -25l-22 -19.5q-11 -10 -27.5 -24q-15 17.5 -25.5 29q-10.5 11 -29 28.5l-198.5 0M231.5 -740.5q12.5 -19.5 20.5 -34.5q7.5 -15 18.5 -39q27.5 -4.5 37 -8q9.5 -3.5 9 -9.5q0 -2 -1.5 -4l-3.5 -4.5q-3 -2.5 -13.5 -5.5q-10 -2.5 -40 -7.5q-9 -1.5 -22 -4.5l-31 -6q-4 20 -9 37.5q-4.5 17.5 -12 36.5q-7.5 19 -19 45q-26 57 -52 100.5q-26.5 43 -61.5 85l15 10q43.5 -39.5 79.5 -80q36 -41 69 -88l55.5 0q14 25 23 45.5q9 20 15 39.5q5.5 19.5 10 43q4.5 20.5 7 26.5q2.5 6 8.5 5.5q15.5 -1.5 29 -19.5q13 -18.5 14 -39q0 -7.5 -4 -16.5q-4 -8.5 -12.5 -18.5q-18.5 -22.5 -35 -37q-17 -15 -40.5 -29.5l223 0q4 0 7 -2.5q3 -2 3 -4.5l-0.5 -2.5l-2.5 -3q-17 -15.5 -28.5 -26.5l-23.5 -22l-28.5 -27q-17.5 19.5 -28 32.5q-11 12.5 -27.5 32l-147.5 0M270.5 -192q35.5 30 60.5 60.5q24.5 30 47 70.5q15.5 30 22 38q6.5 8.5 13 7.5q11.5 -1.5 20.5 -20.5q8.5 -19.5 9 -45.5q0.5 -18.5 -14.5 -35.5q-14.5 -17 -50.5 -36.5q-36 -20 -99 -46.5l-8 8" />
</g>
<g id="PathID_1063" transform="matrix(0.010049, 0, 0, 0.010049, 40.6, 10.7)">
<path style="fill:#000000;fill-opacity:1" d="M846.5 -195.5q-26 22 -47 38q-20.5 16 -40 28.5q-20 12.5 -43 24.5q-59 31 -119.5 48q-61 17 -114 17.5q-27 0 -50.5 -7.5q-23.5 -7 -40.5 -20q-21.5 -17.5 -31.5 -47q-9.5 -29.5 -9.5 -76q0 -37 3.5 -91.5q3.5 -54 9.5 -115.5q6 -61.5 13 -119.5q7 -58 14 -102q7.5 -43.5 13 -63q6.5 -17 8.5 -24.5q1.5 -7.5 1.5 -12.5q0 -16 -15 -31.5q-15 -15 -44.5 -29q-24.5 -10.5 -49 -17q-25 -6.5 -43.5 -6.5q-8 0 -14 2q-6.5 2.5 -14.5 8.5q36 14.5 54 29.5q18 14.5 23.5 39q6 24.5 5.5 67.5q0 17.5 -0.5 37.5q-0.5 20 -2 52l-4.5 86.5q-3 47 -4.5 93q-2 46 -3 85.5q-1 40 -1 68.5q0 64.5 6.5 105.5q7 41.5 22 67.5q24 41.5 67.5 64q44 22.5 102.5 23q64 0 128 -25.5q63.5 -25 122.5 -72.5q59.5 -47 109 -114l-12.5 -11" />
</g>
<g id="PathID_1064" transform="matrix(0.010049, 0, 0, 0.010049, 50.85, 10.7)">
<path style="fill:#000000;fill-opacity:1" d="M450.5 -414.5l-10 16.5l-7.5 13q-4.5 6.5 -12.5 19.5l-31 52.5q-11.5 19.5 -19.5 32.5q-7.5 13 -15.5 26l-20 33.5q-10.5 18.5 -16 27q-5.5 9 -9 14l-8.5 13q-19 -13.5 -30.5 -31.5q-12 -17.5 -23 -48.5q-11.5 -31.5 -17.5 -69q-6 -37.5 -6 -79.5q0 -31 4.5 -68.5q5 -37 14 -84l2.5 -15.5q0.5 -6.5 0.5 -11q0 -17.5 -11.5 -38q-11.5 -20.5 -34.5 -43q-23.5 -23 -43.5 -36.5q-20.5 -13.5 -33.5 -13.5l-4.5 0l-4.5 0q22 27.5 33 50q11 22 15 51q4 28.5 4.5 75q-0.5 54 0 85.5q1 31.5 2.5 52.5q1.5 20.5 4.5 42.5q7.5 61.5 25.5 114q18 52.5 44 90.5q16.5 24 37 43.5q20.5 20 41 31.5q20 12 34.5 12q9.5 0 16 -7.5q6.5 -7 6.5 -18q0 -4 -0.5 -8q-0.5 -4.5 -1.5 -8.5l-5 -24q-1 -5.5 -1 -10.5q-0.5 -20 8.5 -51q8.5 -31 29.5 -84.5q21 -53 58.5 -138l-15.5 -7M679 -580.5q43.5 23.5 75 56.5q31 33 52 77.5q8.5 19 15.5 43q7.5 23.5 11.5 48q4.5 24 4.5 43q0.5 14 -4 20q-4.5 6 -19.5 11l-41.5 12q-34.5 10 -97 27q1.5 7.5 3.5 15l43 -1.5q17.5 -0.5 34.5 -0.5q32.5 0 50 3q17.5 2.5 27 9.5q10.5 6.5 17 9q6.5 2.5 13.5 2q23.5 -0.5 37.5 -22q13.5 -21.5 14 -58.5q-0.5 -72 -31.5 -136q-30.5 -64 -82.5 -109.5q-52.5 -45.5 -117.5 -61l-5 12.5" />
</g>
<g id="PathID_1065" transform="matrix(0.010049, 0, 0, 0.010049, 61.1, 10.7)">
<path style="fill:#000000;fill-opacity:1" d="M192.5 -169q-36.5 0.5 -66.5 18q-29.5 18 -47.5 47.5q-17.5 30 -18 66.5q0.5 37 18 67q18 29.5 47.5 47.5q30 17.5 66.5 18q36.5 -0.5 66.5 -18q29.5 -18 47.5 -47.5q17.5 -30 18 -67q-0.5 -37 -18 -67q-17.5 -29.5 -47 -47q-30 -17.5 -67 -18M192.5 -136q42.5 1 70 29q28 28 29 70q-1 42.5 -29 70.5q-27.5 28 -70 29q-41.5 -1 -70 -29.5q-28 -28 -29 -70q1 -42 29 -70q27.5 -28 70 -29" />
</g>
</svg>
