<?xml version="1.0" encoding="utf-8"?>
<svg version="1.1" id="Layer_1"
xmlns="http://www.w3.org/2000/svg"
xmlns:xlink="http://www.w3.org/1999/xlink"
xmlns:author="http://www.sothink.com"
width="8px" height="12px"
xml:space="preserve">
<g id="PathID_957" transform="matrix(0.00970588, 0, 0, 0.00970588, -1.05, 9.1)">
<path style="fill:#000000;fill-opacity:1" d="M801 -491.5q0 -79 -29 -143q-29 -64.5 -87.5 -103q-58 -38 -146 -39q-87 1 -156.5 35q-69.5 34 -121 90.5q-51.5 56 -86 123q-34.5 67 -51.5 133.5q-17 67 -17 122.5q0 80 30 145.5q29.5 65.5 88.5 105q59.5 39 148 40q20.5 0 40 -2q19.5 -2.5 38.5 -6q6.5 52 24.5 78.5q18 26.5 42.5 35.5q24.5 9 49 8.5q29 -1 53 -15q24.5 -14 41 -31q16 -17.5 21.5 -28.5q1 -1.5 1 -3.5l0 -4q0 -4.5 -3 -7.5q-2.5 -3.5 -8 -3.5l-3.5 0.5q-2 0.5 -4 1.5q-17 12.5 -34 18.5q-17 6 -42.5 6q-33.5 -1.5 -51 -22.5q-18 -20.5 -26 -52q68.5 -29 118 -77q50 -48 83 -105.5q33 -57.5 52.5 -115.5q19 -58 27.5 -106.5q8 -49 8 -79M502 -60.5q-9.5 -43 -27.5 -75q-18 -31.5 -49.5 -49q-31.5 -17.5 -81 -18q-43.5 0.5 -75 24.5q-31 23.5 -48.5 63.5q-8.5 -25 -12.5 -52.5q-4 -28 -4 -58q0 -65 16.5 -136.5q16 -71.5 46 -140.5q29.5 -68.5 71 -124.5q41.5 -56 92 -89.5q50.5 -33 108 -34q62 0.5 98.5 29q36.5 28 52 75.5q16 47.5 15.5 105.5q0 61.5 -14.5 129.5q-15 68 -41.5 134.5q-27 66 -64 122q-37 56 -81.5 93.5M448.5 -25.5q-18.5 8.5 -38 13.5q-19.5 5 -39.5 5q-51.5 -0.5 -85.5 -21q-34 -21 -53 -57q15 -41 42.5 -65.5q27 -24 71 -24.5q34.5 0.5 54.5 16q20.5 15 30.5 39q10 23.5 13.5 48.5q3.5 25.5 4 46" />
</g>
</svg>
