<?xml version="1.0" encoding="utf-8"?>
<svg version="1.1" id="Layer_1"
xmlns="http://www.w3.org/2000/svg"
xmlns:xlink="http://www.w3.org/1999/xlink"
xmlns:author="http://www.sothink.com"
width="32px" height="11px"
xml:space="preserve">
<g id="PathID_934" transform="matrix(0.0107353, 0, 0, 0.0107353, -1.65, 9.3)">
<path style="fill:#231815;fill-opacity:1" d="M868.5 -337l0 -37l-337 0l0 -339l-41 0l0 339l-335 0l0 37l336 0l0 339l41 0l0 -339l336 0" />
</g>
<g id="PathID_935" transform="matrix(0.0107353, 0, 0, 0.0107353, 21.55, 9.3)">
<path style="fill:#231815;fill-opacity:1" d="M867.5 -435l0 -39l-710.5 0l0 39l710.5 0M867.5 -236.5l0 -38l-710.5 0l0 38l710.5 0" />
</g>
</svg>
