<?xml version="1.0" encoding="utf-8"?>
<svg version="1.1" id="Layer_1"
xmlns="http://www.w3.org/2000/svg"
xmlns:xlink="http://www.w3.org/1999/xlink"
xmlns:author="http://www.sothink.com"
width="9px" height="11px"
xml:space="preserve">
<g id="PathID_959" transform="matrix(0.00970588, 0, 0, 0.00970588, 0.15, 8.95)">
<path style="fill:#000000;fill-opacity:1" d="M778.5 -544q6 -26 6 -49q-1 -60.5 -36 -97q-35 -36.5 -91.5 -53q-56.5 -16.5 -121.5 -16l-322.5 0q-10.5 0 -15.5 4q-5 4 -5 9.5q0 3.5 2.5 7.5q2 4 7 6.5q36 0 54.5 4.5q18.5 4.5 24.5 12q6 7.5 6 16.5q0 6.5 -11.5 52.5q-11.5 46 -37 132l-70.5 240.5q-23.5 79 -40.5 132.5q-17 53.5 -24 68.5q-7 13.5 -17 22.5q-10 9 -29.5 14q-19.5 5 -56 7.5q-7.5 3 -11.5 7.5q-4 4 -4 8.5q0 5 4 8q4 3.5 11.5 3.5l290 0q10 0 14.5 -4q5 -4 5 -9.5q0 -3.5 -2.5 -8q-2 -4 -6 -7q-51.5 -2.5 -73 -12q-22 -9.5 -22 -28q-0.5 -0.5 6.5 -35.5q7 -34.5 25 -97l45 -151.5q17.5 4.5 42 7.5q25 3 50.5 5l46 2q39 0.5 92.5 -4.5q53 -5 107.5 -24.5q54.5 -19.5 96.5 -61.5q42.5 -41.5 60 -114.5M673 -538.5q-19.5 74 -54.5 111q-34.5 37 -80 49q-45.5 12 -97 11q-29 0 -63 -4.5q-33.5 -4 -58 -9.5q-24.5 -6 -24.5 -10.5l34 -121q17 -62 27 -96.5q9.5 -34.5 15.5 -51.5q5.5 -17.5 10.5 -27.5q5.5 -13 12.5 -22.5q6.5 -9.5 22 -15.5q15.5 -5.5 46.5 -6l12 -0.5q11 0 26 -0.5l25.5 0q86.5 1 121.5 33.5q35.5 33 34 87.5q0 17 -3 35.5q-2.5 18.5 -7 38.5" />
</g>
</svg>
