<?xml version="1.0" encoding="utf-8"?>
<svg version="1.1" id="Layer_1"
xmlns="http://www.w3.org/2000/svg"
xmlns:xlink="http://www.w3.org/1999/xlink"
xmlns:author="http://www.sothink.com"
width="21px" height="13px"
xml:space="preserve">
<g id="PathID_953" transform="matrix(0.0107353, 0, 0, 0.0107353, -0.65, 10.55)">
<path style="fill:#F39800;fill-opacity:1" d="M597 -662.5q-94 47 -151 103.5q-57.5 56.5 -83.5 120.5q-26 64 -25.5 134.5q1 87 34 148q33 61 83.5 100q50 39 103 61q52.5 21.5 93.5 30q41 8.5 55.5 8q29 -1 44.5 -19.5q15 -18.5 15 -42q-0.5 -29.5 -20 -40q-19.5 -11 -56 -17.5q-15.5 -3 -44 -12q-28.5 -9.5 -61.5 -26q-33.5 -17 -63.5 -44q-30 -27 -49.5 -65.5q-19.5 -38.5 -20 -91q1 -65.5 36 -124.5q35 -58.5 95 -106q59.5 -47.5 133.5 -78.5q74 -31 152.5 -40.5q30.5 -3 50 -7.5q19.5 -4.5 28.5 -15.5q9.5 -11 9.5 -34q-0.5 -29 -10.5 -41q-10 -12.5 -23 -15.5q-13 -2.5 -23 -2q-9 0 -20 0.5l-19 1.5l-647 46l-29 2l-42.5 3q-21.5 1 -31 2.5q-22 2 -36.5 14q-15 11.5 -15.5 40q0 24.5 11.5 42q11.5 17.5 37.5 18.5q9.5 0 26.5 -2l28 -3l434 -48" />
</g>
<g id="PathID_954" transform="matrix(0.0107353, 0, 0, 0.0107353, 9.25, 10.55)">
<path style="fill:#F39800;fill-opacity:1" d="M741.5 -363.5q-77.5 -46 -131 -68.5q-54 -22.5 -83 -32l27.5 -63.5l30.5 -71.5l28 -63.5q19 -42 26 -61.5q7 -19 7 -25.5q-1 -19.5 -20 -36.5q-18.5 -17 -42.5 -18l-21 2.5l-28.5 4.5l-20.5 3.5q-20 2.5 -46.5 4.5l-55 2.5q-28 1 -53 1q-7 0 -26 -0.5l-37.5 -1l-26.5 -0.5q-31 -1 -49 10q-18.5 11 -18.5 45.5q0.5 26.5 11.5 38q11 11.5 28 14q17 2.5 34 2q30.5 0 87 -2.5q56.5 -2.5 143.5 -11q-25 71 -47.5 124q-22.5 53.5 -35.5 81l-23.5 -2.5l-33 -1.5q-86.5 1 -154 41q-67.5 39.5 -106.5 106q-38.5 66 -39.5 146q1 76 37 120.5q35.5 45 92 46q19.5 1 44 -7.5q25 -9 58 -41q33 -32 78.5 -101q45 -69 105.5 -188q16 4.5 50.5 19q35 14 80 37.5q45.5 23 92.5 55q-19 45.5 -45 82q-26 36.5 -53 63.5q-27.5 27 -51.5 43.5q-29.5 21 -44 33q-14.5 12 -18.5 20q-4.5 8.5 -4 19q0.5 20.5 16 37.5q16 16.5 39.5 17.5q18.5 0.5 61 -24.5q42.5 -25 94.5 -80q51.5 -55 97.5 -144q42 35 63.5 51.5q21.5 17 31.5 22q10.5 4.5 19.5 4q21.5 -0.5 37.5 -19.5q16 -18.5 17 -44.5q0 -13.5 -7 -24.5q-7 -10.5 -24 -25q-27.5 -24.5 -53 -43.5q-26 -19.5 -43 -31q10.5 -33 20 -76q10 -42.5 16 -83q6.5 -41 7 -68.5q0.5 -20 -12 -36q-12.5 -16 -47.5 -17q-23.5 0 -36 13.5q-12.5 13.5 -15.5 39.5q-5.5 51 -12.5 89.5q-6.5 38.5 -17 74.5M370 -387q-18 35 -40.5 76.5q-22.5 41 -46.5 79q-24 37.5 -46 62q-22 24 -39 25q-15 -0.5 -24 -14.5q-9 -14.5 -9 -38.5q1 -57.5 30.5 -101q29.5 -43.5 76 -67.5q46.5 -23.5 98.5 -21" />
</g>
</svg>
