<?xml version="1.0" encoding="utf-8"?>
<svg version="1.1" id="Layer_1"
xmlns="http://www.w3.org/2000/svg"
xmlns:xlink="http://www.w3.org/1999/xlink"
xmlns:author="http://www.sothink.com"
width="16px" height="11px"
xml:space="preserve">
<g id="PathID_1057" transform="matrix(0.00970588, 0, 0, 0.00970588, -0.1, 9.15)">
<path style="fill:#000000;fill-opacity:1" d="M779 -29q-26.5 -2 -41.5 -8.5q-15 -6.5 -25 -21.5q-9.5 -14.5 -20.5 -41.5q-25 -60 -57 -140q-32 -80 -67 -169q-35 -89 -68.5 -175.5l-60.5 -157.5q-5 -14.5 -9.5 -25q-4.5 -10.5 -12 -11q-0.5 -0.5 -6.5 2q-6.5 2.5 -23 13.5q-8 5.5 -18 9q-10 3.5 -16 5q-8.5 3 -12.5 18.5q-4 15.5 -11 37q-38.5 102 -75 202q-36.5 99.5 -67.5 185q-31 85.5 -53.5 145q-22.5 59.5 -33.5 80.5q-10 22.5 -27 35.5q-17 12.5 -53.5 16q-7 3.5 -10 8q-2.5 4.5 -2.5 8q0 5.5 4.5 9q4.5 3.5 13 3.5l193.5 0q9 0 13.5 -4q4 -3.5 4 -8.5q0 -4.5 -3 -9q-2.5 -4.5 -7.5 -7q-35 -3.5 -53 -8q-17.5 -4 -23.5 -10.5q-5.5 -6.5 -5 -16.5q0.5 -15 11.5 -48.5q11.5 -33.5 26.5 -73.5q15.5 -40.5 28.5 -76q1 -4.5 4 -7.5q3 -2.5 11 -2.5l296 0l44.5 118l23 61.5q6.5 19 8 24.5q1.5 5 1.5 6q-1 18.5 -20.5 25q-20 6 -49 8q-7 3.5 -11 8q-3.5 4.5 -3.5 8q0 5.5 5 9q5.5 3.5 15.5 3.5l237.5 0q9.5 0 14.5 -3.5q5 -3.5 5 -9q0 -3 -3.5 -7.5q-3 -4 -10 -8M513 -305.5l-287 0q69 -191.5 137.5 -383q74.5 191.5 149.5 383" />
</g>
<g id="PathID_1058" transform="matrix(0.00970588, 0, 0, 0.00970588, 7.7, 9.15)">
<path style="fill:#000000;fill-opacity:1" d="M687 -166.5q-1 -8.5 -4.5 -12q-3 -3.5 -7 -3.5q-3 0 -6 1.5q-3 1 -6.5 3.5q-49 75.5 -110 109.5q-61 33.5 -130.5 33q-73 0 -132 -38.5q-58.5 -38.5 -93.5 -117.5q-34.5 -79 -35.5 -199.5q1 -123.5 34.5 -203q33 -79.5 86 -118q53 -38.5 113 -38q62.5 0 107.5 23.5q45 23 77.5 66q32.5 43 57.5 102q4 4 7.5 5.5q4 2 7 2q7 -0.5 10.5 -5.5q4 -5.5 4 -11l-42 -198.5q-1 -4.5 -3 -7.5q-2.5 -2.5 -5.5 -2.5q-2 0 -5 2q-2.5 2.5 -5 8q-5.5 11 -14.5 21.5q-8.5 10.5 -17.5 11.5l-2 -0.5q-1 0 -2 -0.5q-25.5 -15.5 -55.5 -25q-30 -9.5 -59.5 -14q-30 -4.5 -55 -4q-81 0.5 -145.5 34q-64.5 33 -110 89q-46 55.5 -70 124.5q-24.5 68.5 -24.5 140.5q0.5 132.5 44 222.5q44 90.5 124.5 136.5q81 46.5 194 46.5q55 0 107.5 -20q52.5 -19.5 96 -60.5q43 -40.5 71 -103.5" />
</g>
</svg>
