<?xml version="1.0" encoding="utf-8"?>
<svg version="1.1" id="Layer_1"
xmlns="http://www.w3.org/2000/svg"
xmlns:xlink="http://www.w3.org/1999/xlink"
xmlns:author="http://www.sothink.com"
width="10px" height="12px"
xml:space="preserve">
<g id="PathID_933" transform="matrix(0.0107353, 0, 0, 0.0107353, 0.1, 9.8)">
<path style="fill:#231815;fill-opacity:1" d="M759.5 -594q-0.5 -51.5 -28.5 -88.5q-27.5 -37 -76.5 -56.5q-49 -20 -113 -20l-327.5 0q-9.5 0 -15 4q-5.5 4 -5.5 10.5q0 3 2 6q1.5 3 6 7q36 0 54.5 5q18.5 5 25 12.5q6 8 5.5 16.5q0.5 0.5 -2 13q-2.5 13 -12.5 51.5q-10.5 39 -33.5 119q-35.5 120 -70.5 240.5q-23 78.5 -39.5 130q-16 52 -25 70q-7 13.5 -16 23q-9 9 -27 14.5q-18 5.5 -53.5 7.5q-7 3 -10.5 8q-3.5 4.5 -3.5 9.5q-0.5 4.5 3 7q3.5 3 11 3l272.5 0q8.5 -0.5 13.5 -4.5q5 -4 5 -10q0 -3.5 -2 -7.5q-2.5 -3.5 -6.5 -6.5q-45.5 -1.5 -66.5 -10q-20.5 -8.5 -20.5 -29q0 -12.5 8 -44q7.5 -31.5 25 -89.5l50 -164.5l49.5 3l32.5 2q8 -1 14.5 4q6.5 5 15.5 28.5l27 72.5q18 47 39 108q21 61.5 40.5 131l2 16.5l146 0q9.5 -0.5 15.5 -4.5q6 -4 6 -10q0 -3.5 -3 -7.5q-3 -3.5 -9 -6.5q-30.5 -2 -45 -8q-14.5 -6 -20 -16q-6 -10 -10 -24q-3 -9.5 -12.5 -36.5q-9.5 -27 -23 -63.5q-13 -36.5 -27.5 -74q-14 -37.5 -26.5 -67.5q-12.5 -30 -20 -44.5q78.5 -6.5 142 -35q63.5 -28 101.5 -77q38 -49.5 39 -118.5M430 -389q-50.5 0 -79 -1l-41.5 -2.5q-12.5 -1.5 -16.5 -2.5q16.5 -59 33.5 -118q17.5 -62 27.5 -96q10 -34.5 16 -51.5q5.5 -17 11 -27q9.5 -21.5 22.5 -31q13 -9.5 41 -11.5q28 -2 83 -1.5q53 0.5 83 16.5q30 16 42.5 42q12 26 11.5 56.5q0 38.5 -13.5 78.5q-13 39.5 -41.5 73.5q-28.5 33.5 -73 54q-44.5 21 -106.5 21.5" />
</g>
</svg>
