<?xml version="1.0" encoding="utf-8"?>
<svg version="1.1" id="Layer_1"
xmlns="http://www.w3.org/2000/svg"
xmlns:xlink="http://www.w3.org/1999/xlink"
xmlns:author="http://www.sothink.com"
width="5px" height="11px"
xml:space="preserve">
<g id="PathID_986" transform="matrix(0.0107353, 0, 0, 0.0107353, -1.05, 9.6)">
<path style="fill:#231815;fill-opacity:1" d="M430 -28.5q-58.5 -3.5 -83 -12q-24 -9 -28.5 -23q-3.5 -10.5 -5 -29.5q-1 -19.5 -1 -61.5l0 -467q0 -26 0.5 -46q0.5 -19.5 1.5 -33q0 -4 0.5 -7.5q0.5 -4 0.5 -8q0.5 -9.5 -2.5 -15.5q-2.5 -5.5 -11 -6q-5.5 1 -15 8l-14.5 10.5q-9.5 6.5 -34 17.5q-25 11 -58 21.5q-33.5 11 -67.5 16.5q-8 1 -12 5q-4.5 4.5 -4.5 9q0 4 4 7q4 3.5 12.5 3.5l107.5 0q3 0 5.5 2q2.5 2.5 2.5 7l0 495q1 47.5 -4 68.5q-5.5 21.5 -29.5 28q-24.5 6 -80 10q-6.5 3.5 -9.5 8q-3 4.5 -3 9q0 4 4.5 7.5q4 3 14 3l303 0q10.5 0 14.5 -3q4 -3.5 4 -7.5q0 -5.5 -4 -10q-3.5 -4.5 -8.5 -7" />
</g>
</svg>
