<?xml version="1.0" encoding="utf-8"?>
<svg version="1.1" id="Layer_1"
xmlns="http://www.w3.org/2000/svg"
xmlns:xlink="http://www.w3.org/1999/xlink"
xmlns:author="http://www.sothink.com"
width="15px" height="11px"
xml:space="preserve">
<g id="PathID_996" transform="matrix(0.00970588, 0, 0, 0.00970588, -0.25, 9.1)">
<path style="fill:#000000;fill-opacity:1" d="M700.5 -211.5q0 -89.5 -66 -138q-65.5 -49 -194 -56q49.5 -3.5 97.5 -22.5q47.5 -19 79 -56q31.5 -37 32.5 -94.5q-0.5 -63.5 -30.5 -103.5q-30.5 -40 -84.5 -58.5q-54 -18.5 -127 -18.5l-361.5 0q-10.5 0 -15.5 4q-5 3.5 -5 8q0 5 3.5 9q3.5 4.5 11 7.5q37 0.5 54.5 6.5q17 6.5 22.5 15q5 9 6 16.5q3 17 5 59q2 42.5 2 119.5l0 239.5q0 78 -1 132.5q-1.5 54 -5 72.5q-2.5 12.5 -8 20q-5.5 8 -21.5 12.5q-16.5 4.5 -51.5 7.5q-6 3 -9.5 8q-4 4.5 -4 9.5q0 4.5 5 7.5q5 3.5 15.5 3.5l342 0q40 0.5 92 -7.5q52 -8.5 101 -30.5q49.5 -22.5 82 -64q32.5 -41.5 33.5 -108.5M549 -583q-0.5 48 -17.5 80.5q-17 32.5 -43.5 52q-27 19.5 -57.5 28.5q-30.5 8.5 -58 8.5l-133 0q-5.5 0 -10 -1q-4.5 -1 -8.5 -3l0 -141.5q0 -29.5 0.5 -59q0.5 -29 1.5 -53q1 -23.5 3 -36q0 -4 6 -11.5q6 -7.5 16.5 -10l34.5 -1.5q25.5 -0.5 54 -0.5l46 0q68 0.5 104 21.5q36.5 20.5 49.5 54q13.5 33.5 12.5 72M593 -206q0 47.5 -21.5 87q-21.5 40 -65 64q-43.5 24 -109 24.5q-62.5 0.5 -98.5 -2.5q-35.5 -3 -52.5 -12.5q-17 -9 -21.5 -28q-4.5 -19 -4 -51l0 -256.5q1.5 -2 5.5 -3q4.5 -1 10 -1l144.5 0q65.5 -0.5 112.5 15q47.5 16 73.5 55q25.5 39.5 26 109" />
</g>
<g id="PathID_997" transform="matrix(0.00970588, 0, 0, 0.00970588, 6.95, 9.1)">
<path style="fill:#000000;fill-opacity:1" d="M687 -166.5q-1 -8.5 -4.5 -12q-3 -3.5 -7 -3.5q-3 0 -6 1.5q-3 1 -6.5 3.5q-49 75.5 -110 109.5q-61 33.5 -130.5 33q-73 0 -132 -38.5q-58.5 -38.5 -93.5 -117.5q-34.5 -79 -35.5 -199.5q1 -123.5 34.5 -203q33 -79.5 86 -118q53 -38.5 113 -38q62.5 0 107.5 23.5q45 23 77.5 66q32.5 43 57.5 102q4 4 7.5 5.5q4 2 7 2q7 -0.5 10.5 -5.5q4 -5.5 4 -11l-42 -198.5q-1 -4.5 -3 -7.5q-2.5 -2.5 -5.5 -2.5q-2 0 -5 2q-2.5 2.5 -5 8q-5.5 11 -14.5 21.5q-8.5 10.5 -17.5 11.5l-2 -0.5q-1 0 -2 -0.5q-25.5 -15.5 -55.5 -25q-30 -9.5 -59.5 -14q-30 -4.5 -55 -4q-81 0.5 -145.5 34q-64.5 33 -110 89q-46 55.5 -70 124.5q-24.5 68.5 -24.5 140.5q0.5 132.5 44 222.5q44 90.5 124.5 136.5q81 46.5 194 46.5q55 0 107.5 -20q52.5 -19.5 96 -60.5q43 -40.5 71 -103.5" />
</g>
</svg>
