<?xml version="1.0" encoding="utf-8"?>
<svg version="1.1" id="Layer_1"
xmlns="http://www.w3.org/2000/svg"
xmlns:xlink="http://www.w3.org/1999/xlink"
xmlns:author="http://www.sothink.com"
width="49px" height="12px"
xml:space="preserve">
<g id="PathID_1066" transform="matrix(0.010049, 0, 0, 0.010049, -2.35, 10)">
<path style="fill:#000000;fill-opacity:1" d="M846.5 -195.5q-26 22 -47 38q-20.5 16 -40 28.5q-20 12.5 -43 24.5q-59 31 -119.5 48q-61 17 -114 17.5q-27 0 -50.5 -7.5q-23.5 -7 -40.5 -20q-21.5 -17.5 -31.5 -47q-9.5 -29.5 -9.5 -76q0 -37 3.5 -91.5q3.5 -54 9.5 -115.5q6 -61.5 13 -119.5q7 -58 14 -102q7.5 -43.5 13 -63q6.5 -17 8.5 -24.5q1.5 -7.5 1.5 -12.5q0 -16 -15 -31.5q-15 -15 -44.5 -29q-24.5 -10.5 -49 -17q-25 -6.5 -43.5 -6.5q-8 0 -14 2q-6.5 2.5 -14.5 8.5q36 14.5 54 29.5q18 14.5 23.5 39q6 24.5 5.5 67.5q0 17.5 -0.5 37.5q-0.5 20 -2 52l-4.5 86.5q-3 47 -4.5 93q-2 46 -3 85.5q-1 40 -1 68.5q0 64.5 6.5 105.5q7 41.5 22 67.5q24 41.5 67.5 64q44 22.5 102.5 23q64 0 128 -25.5q63.5 -25 122.5 -72.5q59.5 -47 109 -114l-12.5 -11" />
</g>
<g id="PathID_1067" transform="matrix(0.010049, 0, 0, 0.010049, 7.9, 10)">
<path style="fill:#000000;fill-opacity:1" d="M96 -591.5q28 48.5 61 70.5q33.5 22 79.5 21.5q22 0 45.5 -2.5q24 -2.5 53 -7.5q-34.5 100 -61.5 168.5q-27 68 -50.5 114.5q-23.5 47 -49 83.5q-10.5 15 -15.5 23q-4.5 8 -6 13.5q-1 5.5 -1 13.5q0 13.5 4 30q4 16.5 10.5 29.5q4.5 10.5 10 15.5q6 5 13.5 5q10.5 0.5 20 -11.5q9.5 -11.5 22.5 -43.5q13 -32.5 33 -92.5l33 -97.5l19 -56.5q7 -20.5 12 -36.5l13 -38l22 -68l11 -34l10 -28q49 -12.5 96.5 -28q47 -15.5 82.5 -31.5q32 -14 46 -25.5q14 -12 13.5 -24.5q0 -6 -4 -10.5q-4 -5 -12.5 -8q-13 -4.5 -28 -8q-15.5 -3 -26 -3q-6 -0.5 -11.5 3q-5.5 3 -17.5 14q-18 17 -47 32q-29 15.5 -71.5 30.5q19.5 -55 35 -93q16 -38 26 -53q9 -12.5 11 -16.5q2 -3.5 1.5 -8.5q0 -11.5 -11.5 -22q-11.5 -10.5 -34.5 -19q-23.5 -9 -46.5 -14q-23.5 -5 -41.5 -5q-9.5 -0.5 -16 1.5q-6 2 -15.5 7.5q42 14 57.5 27.5q16 14 15 37q0 18 -4.5 45.5q-4.5 28 -12 61q-8 33 -18.5 66.5q-35 10 -67.5 15q-32.5 4.5 -62.5 4.5q-32 0.5 -57 -12q-25 -12.5 -55.5 -44.5q-6 4.5 -12.5 8.5M551 -422.5q54 -20 100 -29q45.5 -9 95.5 -9q-23 23 -33.5 33l-17 15q-18 16.5 -26 24.5l-13 11.5q-4 4.5 -10 10l6 9.5q11.5 -6.5 17 -10q5.5 -3 19 -11.5q17 -11.5 25.5 -17q8.5 -5.5 15 -9l16 -9q14 -7.5 24.5 -11.5q11 -4.5 23.5 -6q12 -2 30.5 -3q22 -0.5 31 -6q8.5 -5.5 8 -17.5q0 -8.5 -4 -16.5q-4.5 -7.5 -12 -12q-13 -8.5 -30.5 -13.5q-17.5 -5 -34.5 -5q-60 0 -121 17.5q-60.5 18 -116.5 51q3 6.5 6.5 13.5M501.5 -249.5q-5 18 -7 33q-2 15 -2 31.5q0.5 51.5 23 90q22.5 38 64 58.5q34 16 82 24q48 8.5 107.5 8.5q60.5 0 90.5 -8.5q30.5 -8.5 30.5 -25.5q0 -6.5 -5 -13.5q-4.5 -7 -13.5 -15q-14 -10 -28.5 -17q-15 -7 -24 -7.5q-3 0 -7.5 1q-4.5 1 -10 3q-23.5 9 -45.5 12.5q-22 3 -52.5 3q-30.5 0 -59.5 -5q-29 -5 -50 -14.5q-38 -16.5 -58 -48q-20 -32 -20 -76l0 -11.5l1 -20l-15.5 -3" />
</g>
<g id="PathID_1068" transform="matrix(0.010049, 0, 0, 0.010049, 18.15, 10)">
<path style="fill:#000000;fill-opacity:1" d="M755 -709q31 26 61 61q29.5 35.5 45.5 65q10.5 20 17 27q6.5 7.5 13.5 7q10.5 -0.5 17.5 -14q7 -14 7 -35q0.5 -19.5 -10.5 -35.5q-11 -15.5 -38.5 -33.5q-25.5 -17 -53 -31q-27 -14.5 -51.5 -23l-8 12M840 -777.5q42 33 68.5 59.5q26 27 46 58.5q10.5 15 17 21.5q7 6 13 6q8.5 -0.5 14.5 -14q5.5 -14 6 -35q0 -17 -13.5 -32.5q-13.5 -16 -41 -31q-25.5 -14.5 -51 -25.5q-25.5 -11 -51.5 -18.5l-8 11M289 -431l-25.5 55.5q-9.5 21 -17 36.5l-16.5 32q-8.5 17.5 -23 45q-21.5 41.5 -41.5 73q-19.5 31 -34.5 47.5q-14.5 17 -19 28q-5 11.5 -4.5 29.5q0.5 33 8 52q8 18.5 22 18.5q7 0 13 -4.5q6 -5 11.5 -15q12.5 -22 36.5 -74q23.5 -51.5 54.5 -124.5q26 -62 41.5 -97.5l19 -45.5q16.5 -38.5 26.5 -60.5q9.5 -22 14.5 -35l9.5 -21.5q3.5 -9.5 9 -22.5q28.5 -8 47 -12.5q18.5 -4.5 32 -6.5l27 -1.5q17 0 28 2.5q11 2.5 18.5 7.5q27.5 18.5 27.5 83.5q0 39.5 -7.5 87q-8 47.5 -21.5 96q-13.5 48.5 -31.5 91q-19.5 47.5 -35 67q-15 19.5 -31.5 19q-16.5 0 -58 -18.5q-41.5 -18 -100.5 -51l-9.5 12q53.5 43.5 77 64.5q24 20.5 30 31.5q6.5 10.5 7 24q1.5 12 8 18q6.5 5.5 19.5 5.5q25 -0.5 51.5 -13q27 -12.5 46.5 -33q22.5 -25 42.5 -66.5q20.5 -41.5 36 -92q15.5 -51 24.5 -104.5q9 -53.5 9 -103.5q0 -80.5 -32 -120.5q-32.5 -39.5 -98.5 -39.5q-18 0 -37 2q-19 2.5 -51.5 9.5q22 -53.5 38.5 -88.5q16.5 -35 26.5 -50q9 -13.5 12 -19q3 -6 2.5 -10.5q0 -16.5 -18.5 -30.5q-18.5 -14 -53 -24q-21 -6 -39.5 -9.5q-18.5 -3.5 -30 -4q-8 0 -14.5 2.5q-6.5 2.5 -15.5 9q43.5 13.5 61.5 29.5q18 15.5 17.5 39q0 18 -5.5 46q-5.5 28.5 -15 60.5q-9.5 32 -21.5 61.5q-38.5 10.5 -74 18.5q-35 8 -62 13q-26.5 4.5 -38 4.5q-28 0.5 -45 -12.5q-17.5 -12.5 -33 -44q-3 8 -4.5 13.5q-1.5 5.5 -1.5 9.5q0.5 14.5 10 37q9.5 22 24 40.5q10.5 13.5 23 22q13 8.5 22 9q5.5 0 12 -2q6.5 -2.5 17.5 -9.5q20.5 -11.5 50.5 -24q30 -12 82.5 -29l-30.5 66.5M711 -549q50 25 83 57q33 32.5 57 79.5q14 25 21.5 48.5q7.5 24 10.5 49.5q-15.5 6.5 -31.5 12.5l-44 15q-28.5 9 -81.5 25q2.5 6.5 4.5 13l63.5 -6.5l34.5 -2q13 -0.5 30 -0.5q13.5 -0.5 21.5 2q8 2 20.5 9q8 4.5 12.5 6q5 1.5 11 1.5q19 -0.5 30 -15q10.5 -14.5 11 -41.5q0 -33.5 -15 -70q-14.5 -36.5 -43.5 -74q-67.5 -88 -187.5 -123.5l-8 14.5" />
</g>
<g id="PathID_1069" transform="matrix(0.010049, 0, 0, 0.010049, 28.4, 10)">
<path style="fill:#000000;fill-opacity:1" d="M412 -9q75.5 -8.5 133.5 -21.5q58 -13 104.5 -32q46 -19.5 86.5 -47q51.5 -34.5 80.5 -85.5q29.5 -51.5 30 -107q-0.5 -58.5 -29.5 -103.5q-28.5 -44.5 -80 -70q-51 -25 -118.5 -25.5l-43 1.5q-19 1.5 -37 4.5q-44.5 8 -104 26.5q-60 19 -129.5 46.5q-38.5 15.5 -59.5 22.5q-21 6.5 -30.5 6.5q-18.5 0 -35 -14.5q-16 -14 -28.5 -42q-4 7.5 -5.5 12q-2 5 -2 8.5q1 24.5 17.5 52.5q16.5 27.5 39.5 47.5q23 20 42.5 21q9 0 18 -4.5q9 -4.5 23 -15q55 -43 114.5 -74.5q59.5 -31 117.5 -48q57.5 -17 108 -17q69.5 1 110.5 41q41 40 42 108q0 46 -22 88.5q-21.5 42.5 -64 77q-53 45.5 -120.5 75q-68 29.5 -163 49l4 19.5" />
</g>
<g id="PathID_1070" transform="matrix(0.010049, 0, 0, 0.010049, 38.65, 10)">
<path style="fill:#000000;fill-opacity:1" d="M107.5 -668q-6.5 9 -9 15q-2.5 6 -2 12q0 12.5 7 31q7 18.5 19.5 37.5q18 28 39 44q21 16 40 16.5q9 0.5 17.5 -2.5q8.5 -3 23.5 -12q25.5 -13.5 70 -31.5q44 -18 93.5 -34q58 -19 107.5 -32q49 -13.5 94.5 -23q45.5 -9 92 -15.5q-42.5 21.5 -72 39.5q-30 18.5 -52.5 36.5q-22.5 18.5 -42.5 40.5q-53.5 58 -82.5 122.5q-28.5 64.5 -29 127.5q0 71.5 30 129.5q30 58 88.5 100q29.5 20.5 66.5 37.5q37 16.5 74.5 26q37 10 67 10q17 0 27.5 -7.5q10 -8 10.5 -21q-0.5 -9.5 -8.5 -22.5q-8.5 -12.5 -22.5 -26.5q-10.5 -10 -19.5 -13.5q-8.5 -3.5 -23.5 -3q-22.5 -1 -50.5 -7.5q-28 -6.5 -54 -17q-66 -29 -100.5 -80q-34.5 -51 -34.5 -122q0.5 -65 29 -125.5q28.5 -60.5 77.5 -108.5q48.5 -48 110 -76q61.5 -28.5 127.5 -29l13 0.5q6 0 15.5 1.5q5.5 1 10.5 1l8 0q15 0 23.5 -7q8.5 -7 8.5 -18.5q0 -10.5 -7.5 -20q-7 -9 -22.5 -19q-15.5 -9.5 -30.5 -15.5q-15 -6 -24.5 -6q-6 0 -13.5 2q-7.5 1.5 -22.5 6q-15 5 -32 10q-17.5 4.5 -42.5 10q-25 5.5 -63.5 13q-51 10 -92.5 19q-41.5 9 -73.5 17q-85 20.5 -137 32.5q-52 12.5 -80 18.5q-28 6 -42.5 8l-24 1.5q-15 0 -25.5 -3.5q-10 -4 -20.5 -14q-12 -10.5 -19.5 -22.5q-7.5 -12 -14.5 -30" />
</g>
</svg>
