<?xml version="1.0" encoding="utf-8"?>
<svg version="1.1" id="Layer_1"
xmlns="http://www.w3.org/2000/svg"
xmlns:xlink="http://www.w3.org/1999/xlink"
xmlns:author="http://www.sothink.com"
width="20px" height="13px"
xml:space="preserve">
<g id="PathID_951" transform="matrix(0.0107353, 0, 0, 0.0107353, -0.65, 10.8)">
<path style="fill:#F39800;fill-opacity:1" d="M516.5 -661.5q-31 8.5 -64 20q-33.5 11.5 -64 22.5l-52.5 20q-7.5 -20 -23.5 -58q-16 -38 -47 -107q-10 -24 -21 -36.5q-11 -12.5 -35.5 -12.5q-13 0 -27.5 6q-14 6 -24.5 18q-10 11.5 -10.5 28q0 8 3 16.5q3 8.5 8.5 21.5l14 32q9.5 22.5 21.5 49.5q11.5 27.5 21.5 50.5l14.5 34q-78 29 -114.5 45.5q-37 16 -47.5 28.5q-10 12 -9 30.5q0 22 13.5 41q13 19 40 20q8 0.5 17 -2q9 -2.5 25 -10q9.5 -4 33.5 -14.5q24 -10 48.5 -20.5q24 -10 34.5 -14q48 127.5 85.5 239q37.5 111.5 62 197q11 38.5 19 59q8 20.5 19 28q10.5 7.5 29.5 7q26.5 0 45.5 -14q19.5 -13.5 20 -39q0 -15.5 -20.5 -83.5q-20.5 -68 -59.5 -179.5q-39 -111.5 -95 -258.5q50 -20.5 108 -42q58 -21.5 115.5 -36.5q57.5 -15 106.5 -15.5q54.5 1 84.5 22.5q29.5 21.5 41 49.5q11 28.5 10.5 50q-0.5 42 -24 71q-23.5 29.5 -63 44.5q-39.5 15.5 -88 15.5l-22 -1l-24.5 -1.5l-17 -0.5q-21.5 0.5 -33.5 14q-11.5 13.5 -11.5 36q0.5 29.5 26.5 45.5q26.5 16 73.5 16q94.5 -0.5 160.5 -29.5q66 -29 100.5 -82q35 -53 35 -125q-0.5 -67 -30.5 -119q-30.5 -52 -87.5 -81.5q-56.5 -29.5 -137 -30q-26.5 0 -44.5 2.5l-28 3.5q-37 -62.5 -57.5 -92q-20 -30 -33 -38.5q-12.5 -8.5 -27.5 -7.5q-21 0 -39.5 13q-18.5 13 -19.5 36q-0.5 8.5 5.5 20.5q6 11.5 21 35q15.5 23 24 37l16 25.5" />
</g>
<g id="PathID_952" transform="matrix(0.0107353, 0, 0, 0.0107353, 8.9, 10.8)">
<path style="fill:#F39800;fill-opacity:1" d="M206 -510q-38.5 8 -54 21.5q-15.5 13.5 -15 36q0 21 12 39.5q12 18.5 37.5 20q7 -0.5 26 -5q19.5 -5 40.5 -11l33.5 -9.5q31.5 -9.5 81 -22.5q49.5 -13 106.5 -23.5q57 -10 110.5 -10.5q68.5 1 108.5 26.5q40.5 25.5 58 64.5q17.5 39 17 80q-1 60 -27.5 100q-26.5 40 -68.5 64q-42 23.5 -88 35.5q-46.5 12 -86.5 16.5q-40 4.5 -63.5 5q-29.5 1.5 -49 4.5q-19.5 3 -29.5 13q-9.5 10 -9.5 32q0.5 27.5 12 39.5q11 12 25.5 14.5q14 2.5 24 2q21 0.5 60.5 -3q39.5 -3 87 -11q22.5 -3.5 61 -12.5q39 -9.5 83.5 -29q44.5 -19.5 85 -54q40.5 -34 66.5 -87.5q25.5 -53.5 26.5 -130.5q0 -74.5 -33.5 -135.5q-34 -61 -98.5 -97.5q-65 -36.5 -158.5 -37.5q-42 0 -91.5 6q-49.5 6 -111.5 19.5l-178 40" />
</g>
</svg>
