<?xml version="1.0" encoding="utf-8"?>
<svg version="1.1" id="Layer_1"
xmlns="http://www.w3.org/2000/svg"
xmlns:xlink="http://www.w3.org/1999/xlink"
xmlns:author="http://www.sothink.com"
width="107px" height="13px"
xml:space="preserve">
<g id="PathID_974" transform="matrix(0.010049, 0, 0, 0.010049, -0.4, 10.6)">
<path style="fill:#000000;fill-opacity:1" d="M529.5 -769l404.5 0q7.5 0 11 -1.5q3.5 -1.5 3.5 -4.5q0 -2.5 -1.5 -5l-5 -5.5l-35 -29.5q-14.5 -11.5 -29 -23.5l-36 -29l-23 26l-18 21.5l-22.5 27.5l-561 0q-29 0 -50 -1q-21.5 -0.5 -39.5 -2.5q-18.5 -2 -38.5 -5.5l6 38.5q25.5 -3 56 -4.5q30.5 -1.5 66 -1.5l240.5 0l0 411.5l-267.5 0q-38 0 -63 -1q-25 -0.5 -45 -3q-20.5 -2 -44.5 -6q2.5 20 5.5 40.5q33 -3.5 68.5 -5.5q35.5 -1.5 78.5 -1.5l267.5 0l0 193.5q0 31.5 -0.5 69.5q-0.5 38 -1.5 74.5q-1 36 -2 62q0.5 7.5 5 11q4 3.5 12.5 3l3 0l6.5 -0.5l15 -0.5q21.5 -1 30 -5.5q8 -4 7.5 -14q-2 -68 -3 -119.5q-1 -52 -1 -81l0 -192.5l455.5 0q12.5 0 12.5 -6q0 -1 -1 -2.5l-3 -4l-38.5 -34q-15.5 -13.5 -31.5 -26.5l-39.5 -31.5l-21.5 28l-17.5 23.5q-8.5 12 -21.5 29.5l-294 0l0 -411.5M157 -705.5q18.5 26.5 29.5 44.5q10.5 18 20.5 38.5q23.5 46 42.5 93.5q18.5 47 28.5 82.5q5.5 20 8.5 25.5q3 5.5 8.5 7q2.5 1 3 1q0.5 0.5 1.5 0l3 -2q11 -6 14 -9q3 -2.5 5.5 -7q9 -16 15 -33.5q6 -17.5 6.5 -30q0 -12.5 -8.5 -29.5q-8.5 -17 -30.5 -46.5q-31.5 -43 -64 -76q-33 -33 -74.5 -66l-9 7M621.5 -393.5q29 -26.5 51.5 -49.5q22 -22.5 43.5 -49q21.5 -26.5 48 -63.5q26.5 -37.5 64 -92.5l9 0l7.5 0q16 0 24.5 -3.5q8 -3 8 -9q1 -4.5 -7.5 -9.5q-8.5 -5.5 -34 -16q-25.5 -10 -76 -28.5q-3.5 15.5 -8 29.5q-4 14 -12 32.5q-8 19 -22 50.5q-21 45 -38 79q-17 34 -34 62.5q-16.5 29 -35.5 58l11 9" />
</g>
<g id="PathID_975" transform="matrix(0.010049, 0, 0, 0.010049, 9.85, 10.6)">
<path style="fill:#000000;fill-opacity:1" d="M706.5 -494.5l0 464q0.5 8 -3.5 11q-3.5 2.5 -14 3q-41.5 -1 -70.5 -2l-57.5 -3l-66.5 -4l0 17.5l68.5 10q22 3 35.5 6.5q13.5 3 21 6q18 8 26 20q7.5 12.5 9 36q36.5 -6.5 58 -13q21.5 -6.5 37 -15.5q17.5 -10.5 25 -22q7.5 -11.5 7.5 -28l0 -3.5l0 -6q-1 -63 -1.5 -107.5q-0.5 -44 -0.5 -82l0 -82.5l0 -205l205 0q3 0 6 -2q3 -2 3 -5q0 -1 -1 -2.5q-1 -2 -3 -5l-31 -30l-26 -23.5q-13 -12 -33 -28q-13 14.5 -22 25l-18 21l-21.5 26.5l-380.5 0q-19.5 0 -33.5 -0.5l-29 -3q-14.5 -2 -36 -6.5l8 40.5l50.5 -5.5l40 -1.5l248.5 0M201 -194.5q-3 209 -6 249l0 3l0 2q-0.5 5.5 4.5 7.5q5 2 18 1.5l19.5 -1l22.5 -3q6.5 -1 9 -3q2.5 -2.5 3 -8l0 -24l0 -18l0 -14l0 -19q-0.5 -49.5 -0.5 -78.5q-0.5 -28.5 -0.5 -45.5l0 -31l0 -33.5l0 -175q21 -6.5 27 -10q6.5 -3.5 6 -8.5q0.5 -6.5 -13.5 -11.5q-14 -5 -54 -14q21 -23 38.5 -44q17 -21 35 -44.5q17.5 -23.5 40 -55q2 1 4 1q2 0.5 3 0q19 0 29 -3.5q10 -3.5 10 -10.5q0.5 -6 -10 -12q-11 -6 -43.5 -19l-20 -8q-12 -5.5 -29 -12.5q-15.5 39 -35 75q-20 35.5 -53 83q-31.5 46 -58 80.5q-27 34.5 -54 62.5q-27 28.5 -59 55.5l9.5 13.5q31 -19 53.5 -35q23 -16 46.5 -37q24 -21 57.5 -54l0 198.5M66 -556q75.5 -44.5 140 -101q64.5 -56.5 128 -133.5l13 0.5l10.5 0.5q8.5 0 15 -3q6 -3.5 6.5 -8q-1.5 -4.5 -3 -7l-2 -3.5q-7 -5 -29.5 -16q-22.5 -11.5 -64 -29q-20 37 -36.5 63.5q-17 27 -38 54.5q-39 53.5 -75 94q-36 40.5 -75.5 76q5 6 10.5 12M411.5 -744.5q29 -4.5 49 -5.5l46.5 -1.5l409 0q5 0 8.5 -2.5q4 -2.5 4 -5.5q0 -1.5 -1 -3.5q-0.5 -1.5 -2 -4l-33.5 -29q-13.5 -11.5 -27.5 -22l-33.5 -25.5l-20 23.5q-8 10 -15.5 20q-8 10 -19.5 25l-269 0q-28.5 0 -52.5 -2.5q-23.5 -2.5 -50 -7.5l7 40.5" />
</g>
<g id="PathID_976" transform="matrix(0.010049, 0, 0, 0.010049, 20.1, 10.6)">
<path style="fill:#000000;fill-opacity:1" d="M163 -55.5l695 0l0 76l0 2.5l0 2.5q0 4.5 4.5 7.5q4.5 2.5 13 2.5q9.5 0 25 -2q15.5 -1.5 24.5 -4q6 -1.5 8.5 -4q2.5 -2.5 2.5 -9.5l0 -1l-1 -150q-0.5 -84.5 -0.5 -173.5q-0.5 -89 -0.5 -168l0 -213q22.5 -15 31 -22.5q8.5 -7.5 8 -13q0 -3 -2.5 -6q-2 -3.5 -7 -8.5q-13 -12 -23 -20l-20 -16.5l-26.5 -20q-14.5 17.5 -23.5 29l-23 29.5l-669 0q-18 -12.5 -31 -21q-12.5 -8.5 -26 -17q-13 -8.5 -33 -20.5l3.5 75l2 81q0.5 45.5 0.5 111.5q0 128.5 -1.5 265l-3.5 286q-0.5 7.5 4 10q4.5 2.5 16.5 2q30 0.5 42 -3q11.5 -3 11 -11l0 -1l0 -1.5l0 -73.5M366 -714l0 12.5l0 8q0 93 -11 166.5q-11.5 73 -34.5 132.5q-23 60 -55 107.5q-32.5 48 -74 84l10.5 12.5q25 -15.5 40 -27q15 -11 32.5 -27.5q45.5 -43 77.5 -90.5q31.5 -47 48.5 -98q12.5 -36 20 -76q8 -40.5 12 -90q4 -50 5 -114.5l130 0l0 401.5q-0.5 22.5 4 34q4.5 11.5 16.5 17q11 5.5 32 8q20.5 2.5 54 2.5q21.5 0 45 -1l43 -2q20 -1.5 29.5 -3q19 -3 28 -10q9 -6.5 9 -19q0 -8 -4.5 -13q-4 -5 -14 -9.5q-12 -5.5 -15 -11q-3 -5.5 -2.5 -20.5l0 -167l-16.5 0q-12.5 66 -20 103l-11 54.5q-3.5 17 -5 22.5l-2.5 8.5q-2 5 -13 7q-11 2 -39.5 2l-13.5 -0.5q-9.5 0 -18.5 -0.5l-10 0q-4.5 -1.5 -6.5 -3.5q-2.5 -2.5 -2.5 -7l1 -11l0 -382l224 0l0 635l-696 0l0 -635l203 0" />
</g>
<g id="PathID_977" transform="matrix(0.010049, 0, 0, 0.010049, 30.35, 10.6)">
<path style="fill:#000000;fill-opacity:1" d="M853 -748.5q0 33.5 -0.5 59.5l-1 50l-1.5 54.5q-4 79 -10 148q-5.5 69 -13 121.5q-7.5 52 -15 79.5q-9 29.5 -18 41q-9 12 -23 11.5l-7.5 -0.5l-11 -0.5l-39.5 -4l-22 -2.5l-24.5 -3l-37 -4.5l-19.5 -2l-18 -1.5l0 13l63.5 15.5q20 5 27.5 7.5q7 2.5 13 6q18.5 7 26 21q8 14 9 40.5q37 -2.5 59.5 -7.5q22.5 -5 37 -14q23.5 -14.5 41 -59.5q17 -45 29.5 -123q3.5 -21 6 -38.5q2.5 -17 4.5 -41q2 -23.5 4 -64q2 -40.5 4.5 -107.5l6.5 -171q15.5 -10 24 -16q8.5 -6 11 -8.5l3 -4.5q2 -2.5 2 -3.5q0 -3.5 -3 -7.5q-2.5 -4 -7.5 -8l-34 -23.5l-35.5 -24.5l-16.5 18l-12 12.5l-17.5 17.5l-436 0q-18 0 -36.5 -1l-47.5 -5l11 36.5q15.5 -2.5 37 -4.5q21 -2.5 36 -2.5l158.5 0l-2.5 48q-0.5 18.5 -0.5 28q-8.5 120.5 -39.5 220.5q-31.5 100 -84.5 177.5q-25.5 38 -57 71.5q-31 34 -82 77q5.5 6 11 11.5q47.5 -27 81 -53q34 -26 67.5 -62q50.5 -52 85 -110q34.5 -58 55.5 -127.5q21 -69 30.5 -154.5l4 -32q1 -12.5 2 -33q1.5 -20 3 -62l219.5 0M65.5 -826.5q37.5 41.5 66.5 84q29.5 42.5 46 78q14 30.5 20.5 44q7 13.5 10.5 16q3.5 3 8 2.5q8.5 0 16 -7.5q7.5 -7 13.5 -23q4 -11 7 -23q3.5 -12.5 3.5 -19q-0.5 -31.5 -47 -73.5q-46.5 -42 -133 -89.5q-6 5.5 -11.5 11M48 -404.5q19.5 -3 32.5 -4l29 -1l84 0l0 264q-45 36.5 -84.5 62.5q-39 25.5 -68 38q10 25 22 48.5q12 23 23 39.5q3 5.5 7 9q4 3.5 7.5 3.5q4.5 -0.5 7 -7q3 -6 3 -15.5l0 -11.5q0 -6.5 -1 -13q38 -38 69.5 -77q31 -39 54.5 -77q14.5 39 29.5 63q15 24 36 43.5q44 43.5 123 63.5q79 20 205.5 19.5l311.5 -4q9.5 -31 24 -47.5q14 -16.5 35.5 -22l0 -15.5q-43 4 -101 7l-122.5 6l-125.5 4q-62 1.5 -112 1.5q-68 0 -115 -7q-47 -7.5 -79.5 -22.5q-33.5 -16 -52 -35q-19 -19 -30 -48l0 -252l12.5 -9.5q4.5 -3 7.5 -5.5q3.5 -2.5 5.5 -4.5l4.5 -5q1.5 -3 1.5 -5q0 -3 -2 -6q-2.5 -3 -7 -6.5q-16.5 -14.5 -27.5 -23q-11 -9 -30 -21l-40.5 44l-76 0l-17 -0.5l-18.5 -1.5l-36 -5l10 35.5" />
</g>
<g id="PathID_978" transform="matrix(0.010049, 0, 0, 0.010049, 40.6, 10.6)">
<path style="fill:#000000;fill-opacity:1" d="M463 -755.5l150.5 0q1.5 0 3 -2.5q1 -2 1 -4.5q0 -1 -1 -4l-3 -6.5l-29.5 -27l-24.5 -21.5l-31 -27l-20 24.5l-16 20l-19.5 25l-360 0l-31.5 -1.5q-16.5 -2 -35 -5.5l11 36.5q15.5 -3.5 26.5 -5l28 -1l67.5 0l0 76l0 76l0 50.5l-1 37l-1 37l-91 0l-28 -1.5q-16 -2 -37.5 -5.5l9 36.5q19.5 -3.5 32 -5l25.5 -1l89 0q-3 78.5 -7 134q-4 55 -10.5 95.5q-6.5 40.5 -16.5 75.5q-10 35 -25.5 73q-11 26.5 -21 47q-9.5 21 -21.5 41q-12 20.5 -29 46l14 9q44 -47.5 74 -89q30 -41 49.5 -82q19.5 -40.5 31.5 -87q12.5 -46 20.5 -108.5q7.5 -62 12 -154.5l144.5 0l0 256q-0.5 73.5 -0.5 115.5q-0.5 42 -0.5 64q0 22 -0.5 35.5q0 13.5 -0.5 29.5q0.5 8 5 10.5q4 3 15.5 3l21 -1l21 -3q6.5 -1.5 9.5 -4q3 -2.5 4.5 -8.5q-0.5 -16.5 -0.5 -30q-0.5 -13.5 -0.5 -35.5q-0.5 -21.5 -1 -63q0 -41 -1 -113l0 -256l179 0q2 0 4 -3q2 -2.5 2.5 -5q-0.5 -2 -2 -4.5l-4.5 -5l-27 -27l-23.5 -23l-29 -27.5q-16 19 -24 29l-15.5 18.5l-19 24l-41 0l0 -276.5M391.5 -755.5l0 276.5l-143.5 0q1 -18.5 2 -87.5q1.5 -69 2 -189l139.5 0M514 54.5q50.5 -17 90.5 -35.5q40.5 -18 77.5 -40q36.5 -22.5 76 -52.5q35.5 -26.5 65.5 -54q30 -28 61 -63.5q31 -35.5 70 -86.5l11 0l8.5 0q14 0 21.5 -3q8 -2.5 8 -8q0.5 -5.5 -7.5 -12q-7.5 -7 -30 -18.5q-22 -11.5 -64.5 -31q-15.5 38 -42.5 79.5q-27.5 41 -69.5 88.5q-39 44.5 -77 79.5q-38 34.5 -86.5 68.5q-49 34 -120 76l8 12.5M604.5 -535.5q46.5 -23 82 -45.5q35.5 -22.5 71.5 -51.5q47 -37.5 82 -72q35 -34 67.5 -74.5l9.5 0l7 0l19.5 0q10 0 15 -2.5q5 -2.5 5 -7.5q1.5 -5 -22.5 -18.5q-24 -13 -88 -43q-10 28.5 -29.5 59.5q-19 31 -53.5 72.5q-44 53 -86.5 94.5q-43 41.5 -89.5 76.5q5 6 10.5 12M558 -255q40.5 -16 72.5 -32q32.5 -15.5 62 -34q30 -18 62.5 -41.5q27.5 -19 49 -37.5q22 -18 52 -48q30 -30 82 -85.5q32 0.5 42 -2q10.5 -2.5 9.5 -9q0 -6 -12 -15q-12.5 -8.5 -38.5 -20q-9 -4.5 -23 -11l-32 -15.5q-14.5 33.5 -40.5 71q-25.5 37 -66 80.5q-51.5 57 -106 101.5q-54.5 45 -122.5 85l9 13" />
</g>
<g id="PathID_979" transform="matrix(0.010049, 0, 0, 0.010049, 50.85, 10.6)">
<path style="fill:#000000;fill-opacity:1" d="M309.5 -382l-54.5 143.5q-8 22 -16 41.5q-8 19.5 -21 45.5q-10.5 -31.5 -15 -62.5q-4.5 -31.5 -4.5 -72.5q0 -33.5 3.5 -65.5q3 -32.5 10 -61.5q5.5 -24.5 14.5 -54q9 -29.5 19.5 -58.5q11 -28.5 21.5 -50.5q10 -20 14.5 -30.5q5 -10.5 6 -16.5q1 -6.5 1 -14.5q0 -16.5 -9.5 -37q-9.5 -20 -28.5 -43.5q-20.5 -27 -36.5 -38.5q-16 -11.5 -32.5 -12q15.5 27 22.5 49.5q6.5 22 6.5 47q0 15.5 -3.5 37.5q-3.5 22 -11 57.5l-16.5 78.5q-6.5 29 -9.5 46.5q-3 17 -5 32q-2.5 15 -5 36.5q-3.5 31 -6 58.5q-2 28 -2 51q0 62.5 9.5 120q9.5 57 26.5 98q8.5 20.5 19.5 31.5q11.5 10.5 24.5 10.5q8.5 0 15 -4.5q6.5 -4.5 9.5 -13q1.5 -4 2.5 -13q1 -9.5 1 -31q-0.5 -15.5 1 -28.5q1.5 -13.5 5.5 -32q3.5 -18 10.5 -48l33 -137q11.5 -48.5 13.5 -55.5q-7.5 -2.5 -14.5 -5M441.5 -639q32 31.5 64.5 44.5q32.5 13.5 74.5 13l16.5 -0.5l25.5 -1.5q-12.5 9.5 -37.5 30q-25 20.5 -59.5 50l10 10q21 -13.5 45.5 -27.5q24.5 -14.5 47.5 -26.5q23 -12 39 -18.5q29 -12 62.5 -20.5q33.5 -8 83 -15.5q16 -3 22.5 -8.5q6.5 -5 6 -15q0 -10 -7.5 -19.5q-8 -9.5 -24 -18.5q-11 -7 -20.5 -10.5q-9 -3.5 -15.5 -4q-5 0 -9 1.5q-4 1.5 -13.5 7q-22.5 12 -58.5 22.5q-36 10.5 -75 17q-39.5 6.5 -72 6.5q-27 0.5 -48 -6q-21.5 -6 -47.5 -21.5l-9 12M435 -329.5q-6.5 24 -9.5 43q-2.5 19 -2.5 37.5q0 42 14 75q13.5 33 41 58q35 31 102 46.5q67 16 163.5 16q43.5 0 77.5 -3q33.5 -3 50.5 -8q10.5 -4 16.5 -10.5q6 -6 6 -15.5q-0.5 -12.5 -11 -26.5q-10 -13.5 -25 -23.5q-15 -9.5 -28.5 -10q-6 0 -15.5 3q-16 6.5 -24 9.5q-8 3 -14 4q-6 1.5 -16 3q-21 3.5 -43 5.5l-44.5 1.5q-118 0.5 -171 -37q-53 -38 -52 -121.5q0 -9.5 1 -19q0.5 -9.5 2 -24l-17.5 -4" />
</g>
<g id="PathID_980" transform="matrix(0.010049, 0, 0, 0.010049, 61.1, 10.6)">
<path style="fill:#000000;fill-opacity:1" d="M596 -715l0 229.5q0 10 -3 14q-3 3.5 -10.5 3.5l-38.5 -1.5l-34.5 -2.5l-57 -4l0 16q23.5 3.5 39.5 8q16 4.5 28 10.5q13 7.5 19 16q6.5 8.5 11 25q27 -3 47 -8q20.5 -5 37 -12.5q16.5 -7 23.5 -17.5q7 -10 7 -26.5q0 -13 -0.5 -23.5q-0.5 -10.5 -0.5 -17.5l-1 -38.5l0 -22l0 -148.5l306 0q2.5 0 4.5 -2q1.5 -1.5 2 -4q0 -1 -1 -2.5l-1 -2.5l-35 -31.5q-14.5 -12.5 -28.5 -25.5l-35 -31.5q-14 15.5 -23 26.5q-9.5 11 -18 22q-8.5 11 -20.5 27.5l-273.5 0l0 -70.5q26 -10.5 36.5 -17.5q11 -6.5 11 -12.5q0.5 -5.5 -7.5 -9q-8 -3.5 -33 -7.5q-25 -3.5 -75.5 -9l1.5 30.5q0.5 12.5 0.5 25l0 70.5l-329.5 0q-22 0 -45 -3q-23 -3 -45.5 -9.5q5.5 21.5 10.5 43l46 -5.5l34 -1.5l244.5 0q-3 73 -11.5 124q-8.5 51 -25 89q-17 38 -44.5 72q-17.5 22 -36 40q-19 18 -44.5 35.5q-26 18 -64 40l6.5 12.5q42 -17 67.5 -30q25.5 -13 46 -27.5q53.5 -35.5 91 -82.5q38 -46.5 56.5 -100q7.5 -21 12 -43.5q4.5 -22.5 7 -53q2.5 -30.5 4.5 -76.5l142.5 0M50 72.5q58.5 -4 105.5 -11.5q47 -7.5 93 -20q46 -13 101.5 -34q50.5 -18 91 -38q40.5 -20 85 -48q34.5 23 74 43.5q39 20 85 37.5q39.5 16 75.5 26q36 10.5 74 17q38 6.5 83 10.5q10 -35 26.5 -51.5q16.5 -17 47 -22.5l0 -11q-108 -4 -183 -12.5q-75 -8.5 -131.5 -24.5q-56 -15.5 -108 -41q31 -23 55.5 -43.5q24.5 -20 50 -45q25.5 -25 60 -62q29 -6.5 39.5 -10.5q10.5 -4 10 -9q0 -2 -2 -5q-2 -2.5 -7.5 -7l-32.5 -26q-13 -11 -35 -28.5q-13 13 -22 21.5q-9 8 -22 20.5l-237.5 0q11.5 -13.5 18 -23q7 -9 17.5 -24q20 -4 31 -7q11 -3 13 -4.5q2.5 -1.5 4 -3.5q1.5 -2.5 1.5 -4.5q0.5 -6.5 -21 -15q-21 -8.5 -73.5 -23q-11.5 24.5 -33.5 56.5q-21.5 32 -55.5 72.5q-36.5 45 -72.5 81q-36 36.5 -79 70.5q-42.5 34 -100.5 73l8.5 12q61 -28.5 106.5 -56q46 -27.5 88.5 -63q43 -35 94.5 -87q22 35 38.5 57q16.5 22.5 32.5 39.5q16 17 37.5 36q-36 24 -68.5 42.5q-32 19 -70.5 36q-56 26 -101.5 43q-46 17.5 -91 29q-45.5 12 -100.5 21.5l1 15M662.5 -278.5q-30 34 -53.5 58q-23 23.5 -45.5 43q-22 19.5 -48.5 39.5q-28 -18 -48 -34q-20 -16 -38.5 -37q-18.5 -20.5 -42.5 -52l9 -9l8.5 -8.5l259 0M62.5 -371.5q59 -31 110.5 -81.5q51.5 -51 105.5 -131q27.5 -2 40 -6.5q12.5 -4 12 -12q1 -3.5 -4.5 -7.5q-5 -3.5 -26.5 -11.5q-21 -8.5 -67 -25q-7.5 21.5 -17.5 42.5q-10 20.5 -28.5 52q-34.5 57 -65 96q-31 39 -68.5 73q5 5.5 9.5 11.5M715.5 -628q55.5 48.5 98 98.5q43 50.5 74.5 103.5q9 15 15 21.5q6 6.5 10.5 6q7.5 -0.5 15.5 -12q8.5 -11.5 14 -28q6 -16 6 -31.5q0.5 -17 -15.5 -35.5q-16 -18.5 -55 -45.5q-31.5 -22.5 -71.5 -44.5q-40 -22 -84 -41.5l-7.5 9" />
</g>
<g id="PathID_981" transform="matrix(0.010049, 0, 0, 0.010049, 71.35, 10.6)">
<path style="fill:#000000;fill-opacity:1" d="M463 -755.5l150.5 0q1.5 0 3 -2.5q1 -2 1 -4.5q0 -1 -1 -4l-3 -6.5l-29.5 -27l-24.5 -21.5l-31 -27l-20 24.5l-16 20l-19.5 25l-360 0l-31.5 -1.5q-16.5 -2 -35 -5.5l11 36.5q15.5 -3.5 26.5 -5l28 -1l67.5 0l0 76l0 76l0 50.5l-1 37l-1 37l-91 0l-28 -1.5q-16 -2 -37.5 -5.5l9 36.5q19.5 -3.5 32 -5l25.5 -1l89 0q-3 78.5 -7 134q-4 55 -10.5 95.5q-6.5 40.5 -16.5 75.5q-10 35 -25.5 73q-11 26.5 -21 47q-9.5 21 -21.5 41q-12 20.5 -29 46l14 9q44 -47.5 74 -89q30 -41 49.5 -82q19.5 -40.5 31.5 -87q12.5 -46 20.5 -108.5q7.5 -62 12 -154.5l144.5 0l0 256q-0.5 73.5 -0.5 115.5q-0.5 42 -0.5 64q0 22 -0.5 35.5q0 13.5 -0.5 29.5q0.5 8 5 10.5q4 3 15.5 3l21 -1l21 -3q6.5 -1.5 9.5 -4q3 -2.5 4.5 -8.5q-0.5 -16.5 -0.5 -30q-0.5 -13.5 -0.5 -35.5q-0.5 -21.5 -1 -63q0 -41 -1 -113l0 -256l179 0q2 0 4 -3q2 -2.5 2.5 -5q-0.5 -2 -2 -4.5l-4.5 -5l-27 -27l-23.5 -23l-29 -27.5q-16 19 -24 29l-15.5 18.5l-19 24l-41 0l0 -276.5M391.5 -755.5l0 276.5l-143.5 0q1 -18.5 2 -87.5q1.5 -69 2 -189l139.5 0M514 54.5q50.5 -17 90.5 -35.5q40.5 -18 77.5 -40q36.5 -22.5 76 -52.5q35.5 -26.5 65.5 -54q30 -28 61 -63.5q31 -35.5 70 -86.5l11 0l8.5 0q14 0 21.5 -3q8 -2.5 8 -8q0.5 -5.5 -7.5 -12q-7.5 -7 -30 -18.5q-22 -11.5 -64.5 -31q-15.5 38 -42.5 79.5q-27.5 41 -69.5 88.5q-39 44.5 -77 79.5q-38 34.5 -86.5 68.5q-49 34 -120 76l8 12.5M604.5 -535.5q46.5 -23 82 -45.5q35.5 -22.5 71.5 -51.5q47 -37.5 82 -72q35 -34 67.5 -74.5l9.5 0l7 0l19.5 0q10 0 15 -2.5q5 -2.5 5 -7.5q1.5 -5 -22.5 -18.5q-24 -13 -88 -43q-10 28.5 -29.5 59.5q-19 31 -53.5 72.5q-44 53 -86.5 94.5q-43 41.5 -89.5 76.5q5 6 10.5 12M558 -255q40.5 -16 72.5 -32q32.5 -15.5 62 -34q30 -18 62.5 -41.5q27.5 -19 49 -37.5q22 -18 52 -48q30 -30 82 -85.5q32 0.5 42 -2q10.5 -2.5 9.5 -9q0 -6 -12 -15q-12.5 -8.5 -38.5 -20q-9 -4.5 -23 -11l-32 -15.5q-14.5 33.5 -40.5 71q-25.5 37 -66 80.5q-51.5 57 -106 101.5q-54.5 45 -122.5 85l9 13" />
</g>
<g id="PathID_982" transform="matrix(0.010049, 0, 0, 0.010049, 81.6, 10.6)">
<path style="fill:#000000;fill-opacity:1" d="M362.5 58.5q47.5 -21 85.5 -45.5q38 -24.5 67 -52q53.5 -50.5 82 -117.5q28.5 -66.5 29 -142.5q0 -26 -3 -47q-2.5 -21 -10 -42.5q-7 -21 -20 -46.5l-1 -20.5l0 -14.5q0 -19.5 1 -44.5q1 -25 2.5 -50q1.5 -25 4 -45l56 -3q25.5 -1 53.5 -1l81.5 2.5q37 2.5 76 8l33.5 4l14.5 1.5l7.5 0.5q11.5 0 17 -4.5q5.5 -4.5 5.5 -13q0 -8 -3.5 -14.5q-4 -6.5 -13 -13q-20 -16 -45.5 -27q-25 -10.5 -41.5 -11q-5.5 -0.5 -12.5 2q-7 2 -25.5 9q-12 4.5 -25 7.5q-13 3 -38 5.5l-73 5.5l-29 2.5l-17.5 1.5l-20 2.5q3 -36.5 8.5 -60q5.5 -24 14 -39.5q6.5 -12.5 8.5 -17.5q2 -4.5 1.5 -10q0 -11 -10 -20.5q-10 -9 -29 -15.5q-22.5 -7 -47.5 -10.5q-25.5 -4 -52 -4q-20 0 -29 3.5q-9.5 4 -18 15q39 5.5 59.5 17q20.5 12 28.5 33.5q6 16 9 42q2.5 26 2.5 71.5l-68 7.5l-57 7.5q-27.5 3.5 -60 8.5l-77 12.5q-33.5 5 -53.5 7l-35 2q-30.5 0 -55 -13q-24.5 -13 -44 -39q-2.5 3.5 -4 7q-1 3.5 -1 5q0 13 12 34.5q11.5 21 28.5 40q18 18.5 35 29q17 10 31 10q4.5 0 11.5 -2q7 -1.5 12 -3q17 -9 32.5 -15.5q15 -6 34 -12q63 -19 130 -32q67 -13.5 128 -19l1 12.5l0 7.5q0 17 -0.5 38.5q0 21.5 -0.5 40.5l0 28q-19.5 -10.5 -31.5 -14q-12 -4 -26 -3.5q-38 0.5 -68 20.5q-29.5 20 -46.5 55.5q-17 35 -17.5 80.5q0.5 42.5 16.5 75.5q16.5 33 45 52.5q28 19 64.5 19.5q17.5 0 32.5 -5q15.5 -5 33 -15.5q-12.5 54 -35.5 97q-23 43 -61.5 81q-38.5 38 -97.5 78l8 13.5M551 -344q0 47.5 -16.5 71.5q-16 24.5 -49 24.5q-37 -1 -59.5 -31.5q-23 -30.5 -23.5 -80q1 -48 23.5 -78.5q23 -31 58.5 -32q33.5 0 50 31q16.5 31 16.5 95" />
</g>
<g id="PathID_983" transform="matrix(0.010049, 0, 0, 0.010049, 91.85, 10.6)">
<path style="fill:#000000;fill-opacity:1" d="M601 -716.5l3.5 -1.5l1.5 -0.5l2 0l1 0q0 -1 0.5 -1l0.5 0q1 0 2 1q1 0.5 1 1q-1 3 -2.5 6q-1.5 2.5 -7.5 10.5q-30 38.5 -55 69.5q-25 31 -51 61.5q-26 31 -59 68.5q-33.5 38 -80 90l-66.5 73q-24.5 25.5 -40.5 40.5q-16.5 14.5 -35 28.5q-11 9 -16 18q-5.5 8.5 -5.5 18q0 15.5 5.5 30.5q5 15.5 12.5 25.5q8 10 16 10.5q7 0 14.5 -6q7.5 -6 20 -22q43.5 -54.5 100 -97.5q56.5 -42.5 115.5 -67.5q59 -24.5 110 -25q30.5 0 57.5 5.5q27.5 5.5 44 15q31 18.5 47 51.5q16.5 32.5 16.5 75.5q-0.5 65.5 -33 115.5q-32 50 -91 76q-11 -22 -21.5 -36.5q-10 -14.5 -23.5 -27q-25.5 -24 -59 -37q-33 -13.5 -71 -13.5q-48.5 1 -79 25q-30.5 24 -31.5 62q1 47.5 44.5 74.5q44 27.5 120 28q93.5 -0.5 166 -33.5q72.5 -33 114 -90q41 -57.5 42 -131.5q-0.5 -57.5 -27.5 -100.5q-27.5 -42.5 -76.5 -66.5q-49.5 -23.5 -115.5 -24q-63.5 -0.5 -130.5 23q-66.5 23 -148 74l-2 -2q10 -9.5 19 -19l31 -33l70 -75q35 -37 69 -71.5q34 -35 81.5 -82q22 -22 35.5 -34.5q13.5 -12 24 -19.5q11 -7.5 25.5 -14.5q9 -4.5 13 -9.5q4.5 -4.5 4.5 -10q0 -9 -6.5 -19q-7 -10.5 -24.5 -27q-19 -19 -32 -27.5q-13.5 -8.5 -23 -8.5q-4 0 -8 1.5q-3.5 1.5 -6.5 3.5q-10.5 9 -17 13.5q-7 4.5 -17 8.5l-29.5 10q-36 11 -75.5 21q-39.5 10 -71.5 16.5q-32.5 6.5 -46.5 6.5q-25.5 0 -45.5 -19.5q-19.5 -19 -31.5 -55.5q-5 8 -7 14q-2 6 -2 13q0 16 7.5 35.5q7.5 19.5 21 40q15 21.5 30 32.5q14.5 10.5 28.5 10.5q6 0 16.5 -3q10 -3.5 25.5 -10.5q36 -15.5 76 -31.5q40 -16.5 75 -29.5q35 -13 56 -19.5l5 -2M563 -21.5q-23 5 -38 7q-15 2 -34.5 2q-54.5 -0.5 -85.5 -17q-31 -16.5 -31.5 -45.5q0.5 -24 17.5 -38q17.5 -13.5 47 -14q43.5 0.5 76.5 28q32.5 28 48.5 77.5" />
</g>
<g id="PathID_984" transform="matrix(0.010049, 0, 0, 0.010049, 102.1, 10.6)">
<path style="fill:#000000;fill-opacity:1" d="M192.5 -169q-36.5 0.5 -66.5 18q-29.5 18 -47.5 47.5q-17.5 30 -18 66.5q0.5 37 18 67q18 29.5 47.5 47.5q30 17.5 66.5 18q36.5 -0.5 66.5 -18q29.5 -18 47.5 -47.5q17.5 -30 18 -67q-0.5 -37 -18 -67q-17.5 -29.5 -47 -47q-30 -17.5 -67 -18M192.5 -136q42.5 1 70 29q28 28 29 70q-1 42.5 -29 70.5q-27.5 28 -70 29q-41.5 -1 -70 -29.5q-28 -28 -29 -70q1 -42 29 -70q27.5 -28 70 -29" />
</g>
</svg>
