<?xml version="1.0" encoding="utf-8"?>
<svg version="1.1" id="Layer_1"
xmlns="http://www.w3.org/2000/svg"
xmlns:xlink="http://www.w3.org/1999/xlink"
xmlns:author="http://www.sothink.com"
width="20px" height="13px"
xml:space="preserve">
<g id="PathID_955" transform="matrix(0.0107353, 0, 0, 0.0107353, -0.9, 11.05)">
<path style="fill:#F39800;fill-opacity:1" d="M567.5 -528.5q70 -3 128.5 -8.5q59 -5.5 103 -11q20.5 -2 37 -6.5q17 -4 26.5 -15q10 -10.5 10 -33q0.5 -11 -4 -25q-4.5 -13.5 -15.5 -23.5q-11 -10.5 -30.5 -11q-9.5 0.5 -32.5 3.5l-47 6.5q-23.5 3.5 -33 4.5q-40 4.5 -72.5 6.5l-71 4l-2 -154q0.5 -12.5 -3 -26.5q-3.5 -14 -16 -23.5q-12.5 -10 -38.5 -10.5q-28.5 1 -41 12.5q-12 11.5 -14.5 26q-2.5 14.5 -2 23l8 468q-22 -3 -44.5 -4.5l-45.5 -1.5q-79.5 0 -143.5 19.5q-64.5 19.5 -102 60.5q-38 40.5 -39 103.5q0.5 59.5 35 102q34 42.5 93 65.5q58.5 23 133 23q86.5 -1 134.5 -24.5q47.5 -24 67.5 -61q20 -37.5 23.5 -79q3.5 -41 2 -77.5q61.5 19 115.5 43.5q53.5 24.5 92 46.5q38.5 21.5 54.5 32q20 12 30.5 17.5q10 5 21 5q22.5 -1 37 -18.5q14.5 -17.5 15 -41q0.5 -24 -19.5 -42q-20.5 -18 -69.5 -43q-59.5 -32 -126 -59q-66.5 -27 -151.5 -48.5l-3 -225M459 -219.5q1 56.5 -4.5 92.5q-6 36.5 -32 54q-26.5 17.5 -87.5 17.5q-18 0 -42.5 -3.5q-24.5 -4 -48.5 -13.5q-24 -9.5 -40 -26.5q-16 -17 -16.5 -43.5q1 -41.5 46 -63q45.5 -22 124 -22q35 0 61 3q25.5 2.5 40.5 5" />
</g>
<g id="PathID_956" transform="matrix(0.0107353, 0, 0, 0.0107353, 8.95, 11.05)">
<path style="fill:#F39800;fill-opacity:1" d="M281.5 -776q-0.5 18.5 8.5 29q8.5 11 27.5 18q19.5 7 51 15.5q80 21.5 147.5 35q67 13 111.5 19.5q44.5 6 56.5 6q28.5 -0.5 40.5 -16.5q12 -16 11.5 -41q1 -22 -11.5 -35q-12 -12.5 -48 -17q-67.5 -8.5 -133.5 -22.5q-66 -13.5 -128.5 -32l-24 -7q-17 -5 -33.5 -9q-17 -4 -23.5 -4.5q-23.5 1 -37.5 18q-14.5 17.5 -14.5 43.5M105 -472q0 13.5 5.5 27.5q5.5 14 17.5 24q12 9.5 31.5 10q7.5 -0.5 27.5 -5.5q20.5 -5 41.5 -11.5l33.5 -9.5q47 -13.5 107.5 -27.5q60 -14 120.5 -24q60 -9.5 106.5 -10q52 -0.5 93 13.5q41 14 65 47.5q24 33.5 24.5 92.5q-0.5 65.5 -34 116q-33.5 51 -93 86.5q-59 36 -137 56.5q-78 21 -167 26q-32 0.5 -49.5 10.5q-18 10 -18 41.5q0 30.5 17 44.5q16.5 14 48.5 14q40.5 0 96 -7.5q55.5 -7 117.5 -24.5q61.5 -17 121.5 -46.5q59.5 -29.5 108.5 -73.5q48.5 -44 77.5 -104.5q29.5 -61 30 -141q0.5 -70 -29 -129q-29.5 -59 -95 -95q-65 -36 -172 -37q-25.5 -0.5 -67 3q-41.5 3.5 -109.5 15.5q-67.5 12 -172 37q-63 14.5 -95 25q-32 10 -42.5 22.5q-10.5 12 -10 33" />
</g>
</svg>
