<?xml version="1.0" encoding="utf-8"?>
<svg version="1.1" id="Layer_1"
xmlns="http://www.w3.org/2000/svg"
xmlns:xlink="http://www.w3.org/1999/xlink"
xmlns:author="http://www.sothink.com"
width="6px" height="11px"
xml:space="preserve">
<g id="PathID_1073" transform="matrix(0.0107353, 0, 0, 0.0107353, -0.5, 9.6)">
<path style="fill:#231815;fill-opacity:1" d="M460.5 -207q1 -2 1.5 -4.5q0.5 -2 0.5 -3.5q0 -6 -4 -8.5q-3.5 -3 -8 -2.5q-2.5 0 -6 1q-3 1 -5.5 3q-28 75.5 -56 111q-28.5 35.5 -50.5 35l-235 0q17.5 -34.5 46.5 -71.5q29 -36.5 61.5 -69.5q32.5 -33.5 59.5 -57.5q46 -38 90 -76q44.5 -38.5 74 -87q29.5 -49 30.5 -118q-1 -64.5 -28 -105q-27 -40 -71 -58.5q-43.5 -18.5 -93.5 -18.5q-58.5 1 -99 23q-40.5 22 -65.5 55q-24.5 33 -36 66q-11 33.5 -11 56.5q0 14.5 6 31q5.5 17 19.5 29.5q14 12.5 38 13q26 -0.5 41 -18q15 -17.5 15 -46.5q-0.5 -19 -7 -28q-6 -9 -12.5 -17.5q-6.5 -8 -7 -24q1 -55.5 31 -86q30.5 -30 77.5 -30.5q44.5 0.5 68.5 21.5q24.5 21 33.5 56q9 35 8.5 78q-0.5 50.5 -20.5 93.5q-19.5 43 -50.5 82q-30.5 38.5 -64 75q-68 77.5 -106 133q-38.5 56 -55.5 92.5q-16.5 36 -20.5 54q-4 18 -3 19q-1 5.5 4 7q5.5 1.5 27.5 1.5l322 0q5.5 -1 10 -5q4 -4.5 5.5 -11.5l21.5 -87q11.5 -49 22.5 -102.5" />
</g>
</svg>
