<?xml version="1.0" encoding="utf-8"?>
<svg version="1.1" id="Layer_1"
xmlns="http://www.w3.org/2000/svg"
xmlns:xlink="http://www.w3.org/1999/xlink"
xmlns:author="http://www.sothink.com"
width="8px" height="11px"
xml:space="preserve">
<g id="PathID_962" transform="matrix(0.00970588, 0, 0, 0.00970588, -0.5, 9.1)">
<path style="fill:#000000;fill-opacity:1" d="M687 -166.5q-1 -8.5 -4.5 -12q-3 -3.5 -7 -3.5q-3 0 -6 1.5q-3 1 -6.5 3.5q-49 75.5 -110 109.5q-61 33.5 -130.5 33q-73 0 -132 -38.5q-58.5 -38.5 -93.5 -117.5q-34.5 -79 -35.5 -199.5q1 -123.5 34.5 -203q33 -79.5 86 -118q53 -38.5 113 -38q62.5 0 107.5 23.5q45 23 77.5 66q32.5 43 57.5 102q4 4 7.5 5.5q4 2 7 2q7 -0.5 10.5 -5.5q4 -5.5 4 -11l-42 -198.5q-1 -4.5 -3 -7.5q-2.5 -2.5 -5.5 -2.5q-2 0 -5 2q-2.5 2.5 -5 8q-5.5 11 -14.5 21.5q-8.5 10.5 -17.5 11.5l-2 -0.5q-1 0 -2 -0.5q-25.5 -15.5 -55.5 -25q-30 -9.5 -59.5 -14q-30 -4.5 -55 -4q-81 0.5 -145.5 34q-64.5 33 -110 89q-46 55.5 -70 124.5q-24.5 68.5 -24.5 140.5q0.5 132.5 44 222.5q44 90.5 124.5 136.5q81 46.5 194 46.5q55 0 107.5 -20q52.5 -19.5 96 -60.5q43 -40.5 71 -103.5" />
</g>
</svg>
