<?xml version="1.0" encoding="utf-8"?>
<svg version="1.1" id="Layer_1"
xmlns="http://www.w3.org/2000/svg"
xmlns:xlink="http://www.w3.org/1999/xlink"
xmlns:author="http://www.sothink.com"
width="561px" height="39px"
xml:space="preserve">
<g id="PathID_1194" transform="matrix(0.588235, 0, 0, 0.588235, 2, 27.65)">
<path style="fill:#66CCFF;fill-opacity:1" d="M46.8 3.2q-15.15 -4.55 -21.3 -17.9q-3.6 13.35 -21.55 18.5l-1.4 -4.95q17.95 -4.6 19.55 -17.95l-16.35 0l0 -3.8l16.75 0l0 -9.95l-18.75 0l0 -3.8l43.25 0l0 3.8l-19.95 0l0 9.95l17.75 0l0 3.8l-17.15 0q5.2 13.35 20.95 17.15l-1.8 5.15" />
</g>
<g id="PathID_1195" transform="matrix(0.588235, 0, 0, 0.588235, 32, 27.65)">
<path style="fill:#66CCFF;fill-opacity:1" d="M21.3 -37.05q0.6 1.4 -1.4 0.4q-2.4 0.6 -4.6 1l0 6.8l7 0l0 3.75l-7 0l0 5q4.4 2.2 6.8 4.6l-2.2 4.55q-2.6 -2.95 -4.6 -4.55l0 19.7l-3.95 0l0 -19.3q-3.2 7.15 -6.4 10.55l-2.4 -4.2q5 -5.15 8.4 -14.75l0.4 -1.6l-8 0l0 -3.75l8 0l0 -6q-3.4 0.6 -7 1l-0.8 -4q9.35 -1.15 15.95 -3.15l1.8 3.95M46.2 -37.85l0 3.8l-9.15 0l0 19.15l11.15 0l0 3.75l-11.15 0l0 15.15l-4 0l0 -15.15l-10.55 0l0 -3.75l10.55 0l0 -19.15l-10.15 0l0 -3.8l23.3 0M30.85 -30.05q0.8 0.8 -0.6 1q-0.8 5.15 -3 10.75l-3.75 -1.4q2.35 -6.35 2.95 -11.35l4.4 1M42.6 -30.65q2.4 5 2.8 10.75l-4.2 1q-0.6 -6.75 -2.4 -10.55l3.8 -1.2" />
</g>
<g id="PathID_1196" transform="matrix(0.588235, 0, 0, 0.588235, 62, 27.65)">
<path style="fill:#66CCFF;fill-opacity:1" d="M3.35 0q5.8 -8.95 10.15 -23.3q-4.35 0.6 -8.55 1l-0.4 -4.35q3.6 0 9.95 -0.6q1.8 -6.2 3 -12.55l4.2 1.4q2.4 0.95 -0.2 1.75q-1.2 4.2 -2.4 9q2.4 -0.4 5 -0.4q2.75 0 4.15 1.4q2.4 2.35 2.4 10.75q0 11.55 -3.4 14.95q-1.95 1.95 -4.55 1.95q-3.8 0 -7.6 -4.35l2.6 -3.6q3.2 3.2 4.8 3.2q1 0 1.8 -0.8q2.15 -2.2 2.15 -12.15q0 -5.6 -1.15 -6.8q-0.6 -0.6 -2.4 -0.6q-1.8 0 -5 0.4q-4.2 14.75 -9.95 25.3l-4.6 -1.6M43.4 -9.95q-3.6 -12.95 -10.35 -19.3l3.6 -2.6q8.15 8.35 11.15 20.1l-4.4 1.8" />
</g>
<g id="PathID_1197" transform="matrix(0.588235, 0, 0, 0.588235, 92, 27.65)">
<path style="fill:#66CCFF;fill-opacity:1" d="M13.1 -1.75l4.8 0q9.95 0 12.55 -2.6q2.2 -2.2 2.2 -5q0 -2.4 -2 -4.35q-1.8 -1.8 -5.95 -1.8q-8.8 0 -15.95 8.55l-4 -0.4l2.2 -21.3l4.2 0.8q1.95 0.8 0 1.6l-1.4 12.95q6.95 -6 15.9 -6q5.4 0 8.6 3.2q2.6 2.6 2.6 6.75q0 4.6 -3.4 8q-4 3.95 -15.15 3.95l-3.6 0l-1.6 -4.35M10.75 -39.8q5.55 1.4 15.1 4.75l-1.95 4q-7.2 -3 -14.95 -5.2l1.8 -3.55" />
</g>
<g id="PathID_1198" transform="matrix(0.588235, 0, 0, 0.588235, 116.1, 27.65)">
<path style="fill:#66CCFF;fill-opacity:1" d="M18.7 -19.1q5.2 -1.4 8.55 -1.4q8.4 0 12.55 4.2q3.4 3.4 3.4 8.35q0 4.6 -2.4 7q-2.95 2.95 -7.35 2.95q-4.4 0 -6.6 -2.15q-1.95 -2 -3.15 -4.2l3.55 -2.4q0.8 1.8 2.4 3.4q1.4 1.4 3.8 1.4q2.4 0 4.2 -1.8q1.35 -1.4 1.35 -4.4q0 -3.2 -2.75 -5.95q-2.6 -2.6 -8.4 -2.6q-4.35 0 -9.15 1.6l0 10.55q0 3.8 -2.2 5.95q-2.2 2.2 -5.55 2.2q-2.6 0 -4.8 -2.2q-2 -1.95 -2 -4.95q0 -5.6 3.6 -9.2q2.8 -2.75 6.95 -4.95l0 -8.55q-4.95 0.6 -9.15 0.6l-0.6 -4.2q4.2 0.2 9.75 -0.4l0 -9.95l4 0q1.6 0.4 0 1.6l0 7.75q4.4 -0.8 7.95 -2.4l1 4.4q-3.75 1.2 -8.95 2l0 7.75M14.7 -13.5q-2.75 1.95 -4.15 3.35q-2.6 2.6 -2.6 6.2q0 2 0.8 2.8q1 1 2.4 1q3.55 0 3.55 -5.6l0 -7.75M35.05 -35.25q6.55 4.2 10.15 8.4l-3.2 3.15q-4.75 -4.75 -9.95 -8.15l3 -3.4" />
</g>
<g id="PathID_1199" transform="matrix(0.588235, 0, 0, 0.588235, 144.45, 27.65)">
<path style="fill:#66CCFF;fill-opacity:1" d="M14.1 -1.75q14.95 0.2 18.75 -3.6q2.2 -2.2 2.2 -5.6q0 -3.75 -2 -5.75q-2.2 -2.2 -7.4 -2.2q-12.15 0 -19.3 10.55l-3.4 -3.4q12.95 -12.75 18.75 -22.3q-6.6 1 -13.15 1.8l-1.4 -4.6q7.15 0 17.35 -1.4l1.35 -0.55l2.4 2.15q1.8 1.8 -0.6 2.2q-5.35 7 -10.55 13.55q5.8 -1.6 9.35 -1.6q6.4 0 9.8 3.4q2.95 3 2.95 8.15q0 5.2 -3.15 8.4q-4.8 4.75 -19.95 4.95l-2 -4.15" />
</g>
<g id="PathID_1200" transform="matrix(0.588235, 0, 0, 0.588235, 169.75, 27.65)">
<path style="fill:#66CCFF;fill-opacity:1" d="M24.5 -10.35q-2.4 1.4 -5 1.4q-3.4 0 -5.2 -1.8q-2.35 -2.35 -2.35 -5.35q0 -3.2 2.35 -5.6q2.4 -2.4 6 -2.4q2.4 0 4.6 0.6l0 -4.35l-21.95 1.4l-0.8 -4.2l22.75 -1l0 -9.35l3.55 0q2.2 0.4 0.4 1.6l0 7.55l16.95 -1.2l0 4.2l-16.95 0.8l0 7.55q0.8 3.6 0.8 7.95q-0.2 10.2 -11.35 17.15l-3.8 -2.8q10 -5.75 10 -12.15M20.7 -20.7q-2.2 0 -3.6 1.4q-1.2 1.2 -1.2 3.2q0 1.8 1 2.8q1 0.95 3.2 0.95q2.2 0 3.6 -1.35q1.2 -1.2 1.2 -3q0 -1.8 -1.2 -3q-1 -1 -3 -1" />
</g>
<g id="PathID_1201" transform="matrix(0.588235, 0, 0, 0.588235, 198.55, 27.65)">
<path style="fill:#66CCFF;fill-opacity:1" d="M13.1 -11.55l5 -1.75l1 2.55q4.6 -2.95 6.75 -6.95l-7.95 0l0 -3.8l30.1 0l0 3.8l-18.15 0q-0.8 1.6 -1.6 2.6l18.55 0l-1.2 14.55q-0.4 4.55 -4 4.55l-4.75 0l-0.6 -3.8l3.75 0q1.4 0 1.6 -1.35l1 -10.2l-2.2 0q-3.55 13.55 -20.1 16.35l-1.2 -3.8q14.15 -2.55 17.35 -12.55l-3.4 0q-3.6 8.6 -13.35 10.4l-1.2 -3.2q7.95 -2 10.55 -7.2l-3 0q-4.15 3.8 -6.55 5l-1.6 -3l-12.55 5q-0.2 1.4 -1 0.6l-1.6 -4.4l6.4 -1.8l0 -15.15l-6.2 0l0 -3.75l6.2 0l0 -11.35l3.75 0q1.6 0.2 0.2 1.2l0 10.15l6 0l0 3.75l-6 0l0 13.55M21.9 -23.9l0 -16.1l20.9 0l0 16.1l-20.9 0M25.85 -33.25l12.95 0l0 -3.6l-12.95 0l0 3.6M25.85 -27.05l12.95 0l0 -3l-12.95 0l0 3" />
</g>
<g id="PathID_1202" transform="matrix(0.588235, 0, 0, 0.588235, 228.55, 27.65)">
<path style="fill:#66CCFF;fill-opacity:1" d="M27.05 -38.6q7.8 9.75 20.55 13.7l-2 4.6q-13.55 -5 -21.3 -15.75q-3.6 7.4 -10 11.75l22.15 0l0 3.8l-22.35 0l0 -3.6q-3.55 3 -8.35 5.2l-2.8 -3.8q14.55 -6.75 19.15 -18.1l5.15 1q1.4 0.2 -0.2 1.2M14.5 4l-3.95 0l0 -19.7l29.65 0l0 19.1l-3.95 0l0 -2.2l-21.75 0l0 2.8M14.5 -2.55l21.75 0l0 -9.4l-21.75 0l0 9.4" />
</g>
<g id="PathID_1203" transform="matrix(0.588235, 0, 0, 0.588235, 258.55, 27.65)">
<path style="fill:#66CCFF;fill-opacity:1" d="M14.9 4.8q-4.75 -5.35 -9.95 -8.75l3 -4q6.35 3.8 10.55 8.55l-3.6 4.2" />
</g>
<g id="PathID_1204" transform="matrix(0.588235, 0, 0, 0.588235, 278.45, 27.65)">
<path style="fill:#66CCFF;fill-opacity:1" d="M15.1 -0.95q-6.15 0 -8.55 -2.4q-2.4 -2.4 -2.4 -6.4q0 -2.2 0.8 -5.15l4.6 0.6q-1 3.15 -1 4.55q0 1.8 1.2 3q1.4 1.4 5.55 1.4l21.75 0l0 4.4l-21.95 0M7.15 -34.65l25.9 0l0 4.4l-25.9 0l0 -4.4" />
</g>
<g id="PathID_1205" transform="matrix(0.588235, 0, 0, 0.588235, 302.35, 27.65)">
<path style="fill:#66CCFF;fill-opacity:1" d="M15.1 -0.95q-6.15 0 -8.55 -2.4q-2.4 -2.4 -2.4 -6.4q0 -2.2 0.8 -5.15l4.6 0.6q-1 3.15 -1 4.55q0 1.8 1.2 3q1.4 1.4 5.55 1.4l21.75 0l0 4.4l-21.95 0M7.15 -34.65l25.9 0l0 4.4l-25.9 0l0 -4.4" />
</g>
<g id="PathID_1206" transform="matrix(0.588235, 0, 0, 0.588235, 326.25, 27.65)">
<path style="fill:#66CCFF;fill-opacity:1" d="M34.05 -2.35q-9.35 0 -15.55 -6l2.6 -3.4q5.35 5.2 12.95 5l10.95 0l0 4.4l-10.95 0M5.55 1.4q-0.6 -10.35 -0.6 -17.7q0 -9 2.2 -21.35l4 1q2.15 0.4 0.2 1.8q-2 11.55 -2 18.55q0 7.75 0.8 17.3l-4.6 0.4M42.4 -28.05q-8.55 -0.2 -22.3 1.2l0 -4.2q14.35 -1.4 22.3 -1.2l0 4.2" />
</g>
<g id="PathID_1207" transform="matrix(0.588235, 0, 0, 0.588235, 354.45, 27.65)">
<path style="fill:#66CCFF;fill-opacity:1" d="M27.85 -11.75q-10.55 -5.35 -17.3 -7.15l0 20.7l-4.6 0l0 -39.85l4 0q2.4 0.2 0.6 1.6l0 12.55q9.75 2.8 19.7 7.6l-2.4 4.55M27.45 -29.25q-3.35 -4.2 -6.75 -6.8l2.6 -2q3.35 2.6 6.75 6.8l-2.6 2M32.25 -33.05q-2.6 -3.4 -6.6 -6.55l2.6 -2q3.4 2.4 6.6 6.55l-2.6 2" />
</g>
<g id="PathID_1208" transform="matrix(0.588235, 0, 0, 0.588235, 375.65, 27.65)">
<path style="fill:#66CCFF;fill-opacity:1" d="M10.95 0.2q19.3 -4.95 21.7 -20.9l-30.3 0l0 -4.4l30.5 0l1.8 -0.55l3.6 2.15q1.15 1 -0.4 1.8q-3.2 19.95 -23.35 25.9l-3.55 -4M33.45 -32.05l-27.5 0l0 -4.4l27.5 0l0 4.4" />
</g>
<g id="PathID_1209" transform="matrix(0.588235, 0, 0, 0.588235, 399.9, 27.65)">
<path style="fill:#66CCFF;fill-opacity:1" d="M34.25 -24.3q-1.4 12.95 -7.2 18.75q-5.75 5.75 -15.1 9.15l-2.6 -3.75q9.15 -3 14.35 -8.2q5.55 -5.55 6.35 -18.9l4.2 1.4q1.8 0.55 0 1.55M17.3 -17.1q-2.4 -5.4 -4.75 -8.95l3.75 -2q3 3.75 5.2 8.95l-4.2 2M7.15 -14.1q-2.4 -5.6 -5 -9.4l4 -2q2.8 3.8 5 9.2l-4 2.2" />
</g>
<g id="PathID_1210" transform="matrix(0.588235, 0, 0, 0.588235, 421.9, 27.65)">
<path style="fill:#66CCFF;fill-opacity:1" d="M37.05 -27.25q-3.8 21.7 -24.9 31.05l-3.6 -3.8q19.5 -7.95 23.5 -27.45l-15.95 0q-4.55 7.55 -9.55 12.15l-4 -2.6q10.35 -9.35 13.35 -21.9l4.6 1.55q1.2 0.6 -0.4 1.2q-0.8 2.6 -2.2 5.2l14.35 0l1.8 -1l3.6 3.6q1.35 1.4 -0.6 2M38.25 -32.05q-3.2 -4.6 -6.2 -6.95l2.6 -2.2q3.4 2.95 6.35 6.95l-2.75 2.2M44 -34.45q-3.2 -3.95 -5.75 -6.35l2.35 -2.4q3 2.8 5.8 6.35l-2.4 2.4" />
</g>
<g id="PathID_1211" transform="matrix(0.588235, 0, 0, 0.588235, 450.1, 27.65)">
<path style="fill:#66CCFF;fill-opacity:1" d="M37.05 -7.15q-8.6 9.35 -18.55 9.35q-7.15 0 -10.55 -3.35q-2.6 -2.6 -2.6 -10l0 -26.7l4.2 0q1.8 0.4 0.4 1.6l0 25.1q0 5 1.8 6.8q2.15 2.2 6.55 2.2q7.75 0 15.75 -8.8l3 3.8" />
</g>
<g id="PathID_1212" transform="matrix(0.588235, 0, 0, 0.588235, 473.05, 27.65)">
<path style="fill:#66CCFF;fill-opacity:1" d="M43 -31.25q-6.95 0 -10.95 1.4q-4.4 1.6 -8.15 5.35q-3.8 3.8 -3.8 9.8q0 4.75 3 7.75q3.95 4 15.3 4.4l-1.55 4.35q-11.75 -0.6 -16.35 -5.15q-4.6 -4.6 -4.6 -11.15q0 -9.4 7.4 -14.75q-9.4 1.4 -19.15 2.8l-1.2 -4.6q19.55 -1.4 39.25 -4.8l0.8 4.6" />
</g>
<g id="PathID_1213" transform="matrix(0.588235, 0, 0, 0.588235, 500.1, 27.65)">
<path style="fill:#66CCFF;fill-opacity:1" d="M3.35 -18.3q0 -2.2 2.2 -4.2q12.95 -12.15 16.75 -18.3l3.55 2.75q1.8 2 -0.95 1.6q-3 4.4 -15.75 16.35q-0.8 0.8 -0.8 1.4q0 1.2 0.8 1.8q11.15 8.75 17.9 16.55l-3.55 3.55q-7 -8.15 -17.15 -16.9q-3 -2.6 -3 -4.6" />
</g>
<g id="PathID_1214" transform="matrix(0.588235, 0, 0, 0.588235, 517.8, 27.65)">
<path style="fill:#66CCFF;fill-opacity:1" d="M42.6 -19.1q-11.55 0.4 -18.1 3.2l-1.2 -4q8.55 -3.4 18.5 -3.4l0.8 4.2M43.6 -2.55l0 4.35l-8.75 0q-7.6 0 -14.35 -3.55l1.8 -3.6q5.15 2.8 12.55 2.8l8.75 0M25.85 -27.45q-5.15 1 -9.75 1.6q-3 17.7 -7.35 28.05l-4.4 -1.4q5.4 -12.55 7.6 -26.3q-5 0.4 -8.6 0.4l-0.8 -3.95q5.6 0 10 -0.4q0.75 -6.2 1.35 -10.75l4 0.8q2.2 0.6 0.4 1.55q-0.6 2.4 -1.6 8q4.6 -0.6 8.4 -1.6l0.75 4M37.85 -41q3.15 1.8 7.75 5.15l-1.8 2.8q-4.4 -3.2 -7.75 -5.2l1.8 -2.75M33.85 -37.05q3.6 2.2 7.75 5.2l-1.8 2.8q-4.35 -3 -7.75 -5.2l1.8 -2.8" />
</g>
<g id="PathID_1215" transform="matrix(0.588235, 0, 0, 0.588235, 2, 57.5)">
<path style="fill:#66CCFF;fill-opacity:1" d="M20.1 -26.45q-8.15 0.6 -16.15 0.6l-1.2 -4q9.8 0 15.75 -0.4q-2 -5.6 -2.8 -10.35l4.4 0q1.8 0.4 0.4 1.6q0.8 3.75 2.4 8.35q6.95 -0.6 11.95 -1.8l1 4.4q-5.8 0.8 -11.35 1.2q3.95 7.55 12.15 13.15l-3 3.55q-7.4 -3.35 -14.55 -3.35q-6.55 0 -9.15 2.55q-1.2 1.2 -1.2 3.4q0 2 1.8 3.8q2.75 2.8 13.15 2.8l6.95 0l-1 4.35l-7.55 0q-10.35 0 -14.55 -4.15q-3 -3 -3 -6.8q0 -3.8 2.2 -5.95q3.6 -3.6 11.15 -3.6q7.6 0 8.75 0.8q-4.75 -6 -6.55 -10.15" />
</g>
<g id="PathID_1216" transform="matrix(0.588235, 0, 0, 0.588235, 24.95, 57.5)">
<path style="fill:#66CCFF;fill-opacity:1" d="M22.3 -9.95q-1.8 4.6 -3.8 7q-2.8 3.35 -5.6 3.35q-4.95 0 -7.35 -5.75q-1.4 -3.4 -1.4 -14.55q0 -7.95 0.8 -16.15l4.2 1q2.4 0.6 0.2 2q-0.8 7.4 -0.8 13.35q0 8.15 1 11.55q1 3.4 3 3.4q2.15 0 3.75 -3.2q1 -2 2 -4.8l4 2.8M34.05 -33.25q8.95 9.35 10.95 22.7l-5.4 1.4q-2.35 -13.95 -9.75 -21.7l4.2 -2.4" />
</g>
</svg>
