<?xml version="1.0" encoding="utf-8"?>
<svg version="1.1" id="Layer_1"
xmlns="http://www.w3.org/2000/svg"
xmlns:xlink="http://www.w3.org/1999/xlink"
xmlns:author="http://www.sothink.com"
width="109px" height="60px"
xml:space="preserve">
<g id="PathID_1232" transform="matrix(0.941176, 0, 0, 0.941176, 2, 43.1)">
<path style="fill:#666666;fill-opacity:1" d="M22.9 -7.75q-7.6 7.4 -17.75 10.75l-2.4 -4.35q11.95 -3.2 19.15 -10.6l-16.15 0l0 -3.75l17.15 0l0 -5.2l3.75 0q1.6 0.2 0.2 1.2l0 4l17.55 0l0 3.75l-15.95 0q6.8 6.8 18.55 9.8l-1.6 4.55q-11.15 -3.35 -18.55 -11.35l0 13.55l-3.95 0l0 -12.35M34.45 -38.05l1 -0.95l2.8 2.75q0.55 0.8 -0.6 1q-5 5.2 -9.2 8q7.4 3.75 19.95 3.95l-1.4 4.8q-14.95 -1.6 -21.7 -6.6q-11.2 6.2 -19.95 8l-2 -4q9.95 -2 18.55 -6.55q-2.6 -2.6 -4.8 -5.8q-4 5.2 -9.55 8.35l-2.6 -3.35q8.35 -4 12.55 -13.35l4.2 1.2q0.8 0.8 -0.6 1l-1 1.55l14.35 0M19.9 -34.85q2.2 2.8 5.4 5.4q3.55 -2.6 6.55 -5.4l-11.95 0" />
</g>
<g id="PathID_1233" transform="matrix(0.941176, 0, 0, 0.941176, 50, 43.1)">
<path style="fill:#666666;fill-opacity:1" d="M25.5 -35.05q-0.2 1.4 -1.2 5.6l6.15 0l0 -10.95l3.8 0q1.6 0.2 0.2 1.2l0 9.75l9.75 0l0 3.8l-9.75 0l0 9.95l13.75 0l0 3.75l-13.75 0l0 16.15l-4 0l0 -16.15l-14.75 0l0 -3.75l14.75 0l0 -9.95l-7.35 0q-2 5.35 -4.8 8.55l-3.4 -3.2q5.8 -7.35 6.4 -16.95l4.75 1.2q0.8 0.8 -0.55 1M13.1 4.4l-3.95 0l0 -24.7q-1.4 2.6 -3.6 5.2l-3.2 -3.6q7.6 -8.75 9 -22.1l4.15 0.8q1.4 0.4 0 1q-1.2 6.55 -2.75 11.15l0.75 0.2q0.6 0.6 -0.4 1.2l0 30.85" />
</g>
</svg>
