<?xml version="1.0" encoding="utf-8"?>
<svg version="1.1" id="Layer_1"
xmlns="http://www.w3.org/2000/svg"
xmlns:xlink="http://www.w3.org/1999/xlink"
xmlns:author="http://www.sothink.com"
width="180px" height="52px"
xml:space="preserve">
<g id="PathID_1192" transform="matrix(0.941176, 0, 0, 0.941176, 2, 43.1)">
<path style="fill:#FFFFFF;fill-opacity:1" d="M11.15 -29.45l3.35 0l0 9.75l9.8 0l0 3.2l-9.8 0l0 9.75l-3.35 0l0 -9.75l-9.8 0l0 -3.2l9.8 0l0 -9.75" />
</g>
<g id="PathID_1193" transform="matrix(0.941176, 0, 0, 0.941176, 26, 43.1)">
<path style="fill:#FFFFFF;fill-opacity:1" d="M1.35 -25.85l22.75 0l0 3.15l-22.75 0l0 -3.15M1.35 -13.7l22.75 0l0 3.15l-22.75 0l0 -3.15" />
</g>
</svg>
