<?xml version="1.0" encoding="utf-8"?>
<svg version="1.1" id="Layer_1"
xmlns="http://www.w3.org/2000/svg"
xmlns:xlink="http://www.w3.org/1999/xlink"
xmlns:author="http://www.sothink.com"
width="572px" height="161px"
xml:space="preserve">
<g id="169" transform="matrix(1, 0, 0, 1, -15.6, -32.3)">
<path style="fill:#707F87;fill-opacity:1" d="M348.05,111.05L80.5 111.05L80.5 101.8L348.05 101.8L348.05 111.05" />
<path style="fill:none;stroke-width:0.25;stroke-linecap:butt;stroke-linejoin:miter;stroke-miterlimit:10;stroke:#231815;stroke-opacity:1" d="M348.05,111.05L80.5 111.05L80.5 101.8L348.05 101.8L348.05 111.05z" />
<path style="fill:#B9AC67;fill-opacity:1" d="M361.35,114.3L345.85 114.3L334.75 103.6L361.35 103.6L361.35 114.3" />
<path style="fill:none;stroke-width:0.25;stroke-linecap:butt;stroke-linejoin:miter;stroke-miterlimit:10;stroke:#231815;stroke-opacity:1" d="M361.35,114.3L345.85 114.3L334.75 103.6L361.35 103.6L361.35 114.3z" />
<path style="fill:#96A9B3;fill-opacity:1" d="M304.9,111.05Q304.9 113.75 303 115.65Q300.95 117.55 298.25 117.55Q295.55 117.55 293.5 115.65Q291.6 113.75 291.6 111.05Q291.6 108.3 293.5 106.3Q295.55 104.4 298.25 104.4Q300.95 104.4 303 106.3Q304.9 108.3 304.9 111.05" />
<path style="fill:none;stroke-width:0.25;stroke-linecap:butt;stroke-linejoin:miter;stroke-miterlimit:10;stroke:#231815;stroke-opacity:1" d="M304.9,111.05Q304.9 113.75 303 115.65Q300.95 117.55 298.25 117.55Q295.55 117.55 293.5 115.65Q291.6 113.75 291.6 111.05Q291.6 108.3 293.5 106.3Q295.55 104.4 298.25 104.4Q300.95 104.4 303 106.3Q304.9 108.3 304.9 111.05z" />
<path style="fill:#707F87;fill-opacity:1" d="M300.7,111.05Q300.7 112.1 300 112.8Q299.35 113.45 298.25 113.45Q297.3 113.45 296.5 112.8Q295.8 112.1 295.8 111.05Q295.8 110.1 296.5 109.25Q297.3 108.6 298.25 108.6Q299.35 108.6 300 109.25Q300.7 110.1 300.7 111.05" />
<path style="fill:none;stroke-width:0.25;stroke-linecap:butt;stroke-linejoin:miter;stroke-miterlimit:10;stroke:#231815;stroke-opacity:1" d="M300.7,111.05Q300.7 112.1 300 112.8Q299.35 113.45 298.25 113.45Q297.3 113.45 296.5 112.8Q295.8 112.1 295.8 111.05Q295.8 110.1 296.5 109.25Q297.3 108.6 298.25 108.6Q299.35 108.6 300 109.25Q300.7 110.1 300.7 111.05z" />
<path style="fill:#96A9B3;fill-opacity:1" d="M335.85,111.05Q335.85 113.75 333.95 115.65Q332.05 117.55 329.3 117.55Q326.6 117.55 324.55 115.65Q322.65 113.75 322.65 111.05Q322.65 108.3 324.55 106.3Q326.6 104.4 329.3 104.4Q332.05 104.4 333.95 106.3Q335.85 108.3 335.85 111.05" />
<path style="fill:none;stroke-width:0.25;stroke-linecap:butt;stroke-linejoin:miter;stroke-miterlimit:10;stroke:#231815;stroke-opacity:1" d="M335.85,111.05Q335.85 113.75 333.95 115.65Q332.05 117.55 329.3 117.55Q326.6 117.55 324.55 115.65Q322.65 113.75 322.65 111.05Q322.65 108.3 324.55 106.3Q326.6 104.4 329.3 104.4Q332.05 104.4 333.95 106.3Q335.85 108.3 335.85 111.05z" />
<path style="fill:#707F87;fill-opacity:1" d="M331.6,111.05Q331.6 112 330.95 112.8Q330.25 113.45 329.3 113.45Q328.35 113.45 327.55 112.8Q326.9 112.1 326.9 111.05Q326.9 110.1 327.55 109.25Q328.35 108.6 329.3 108.6Q330.25 108.6 330.95 109.25Q331.6 110.1 331.6 111.05" />
<path style="fill:none;stroke-width:0.25;stroke-linecap:butt;stroke-linejoin:miter;stroke-miterlimit:10;stroke:#231815;stroke-opacity:1" d="M331.6,111.05Q331.6 112 330.95 112.8Q330.25 113.45 329.3 113.45Q328.35 113.45 327.55 112.8Q326.9 112.1 326.9 111.05Q326.9 110.1 327.55 109.25Q328.35 108.6 329.3 108.6Q330.25 108.6 330.95 109.25Q331.6 110.1 331.6 111.05z" />
<path style="fill:#96A9B3;fill-opacity:1" d="M99.8,111.05Q99.8 113.75 97.9 115.65Q95.85 117.55 93.15 117.55Q90.4 117.55 88.4 115.65Q86.5 113.75 86.5 111.05Q86.5 108.3 88.4 106.3Q90.4 104.4 93.15 104.4Q95.85 104.4 97.9 106.3Q99.8 108.3 99.8 111.05" />
<path style="fill:none;stroke-width:0.25;stroke-linecap:butt;stroke-linejoin:miter;stroke-miterlimit:10;stroke:#231815;stroke-opacity:1" d="M99.8,111.05Q99.8 113.75 97.9 115.65Q95.85 117.55 93.15 117.55Q90.4 117.55 88.4 115.65Q86.5 113.75 86.5 111.05Q86.5 108.3 88.4 106.3Q90.4 104.4 93.15 104.4Q95.85 104.4 97.9 106.3Q99.8 108.3 99.8 111.05z" />
<path style="fill:#707F87;fill-opacity:1" d="M95.55,111.05Q95.55 112.1 94.9 112.8Q94.2 113.45 93.15 113.45Q92.2 113.45 91.35 112.8Q90.7 112.1 90.7 111.05Q90.7 110.1 91.35 109.25Q92.2 108.6 93.15 108.6Q94.2 108.6 94.9 109.25Q95.55 110.1 95.55 111.05" />
<path style="fill:none;stroke-width:0.25;stroke-linecap:butt;stroke-linejoin:miter;stroke-miterlimit:10;stroke:#231815;stroke-opacity:1" d="M95.55,111.05Q95.55 112.1 94.9 112.8Q94.2 113.45 93.15 113.45Q92.2 113.45 91.35 112.8Q90.7 112.1 90.7 111.05Q90.7 110.1 91.35 109.25Q92.2 108.6 93.15 108.6Q94.2 108.6 94.9 109.25Q95.55 110.1 95.55 111.05z" />
<path style="fill:#96A9B3;fill-opacity:1" d="M130.7,111.05Q130.7 113.75 128.8 115.65Q126.9 117.55 124.2 117.55Q121.5 117.55 119.45 115.65Q117.55 113.75 117.55 111.05Q117.55 108.3 119.45 106.3Q121.5 104.4 124.2 104.4Q126.9 104.4 128.8 106.3Q130.7 108.3 130.7 111.05" />
<path style="fill:none;stroke-width:0.25;stroke-linecap:butt;stroke-linejoin:miter;stroke-miterlimit:10;stroke:#231815;stroke-opacity:1" d="M130.7,111.05Q130.7 113.75 128.8 115.65Q126.9 117.55 124.2 117.55Q121.5 117.55 119.45 115.65Q117.55 113.75 117.55 111.05Q117.55 108.3 119.45 106.3Q121.5 104.4 124.2 104.4Q126.9 104.4 128.8 106.3Q130.7 108.3 130.7 111.05z" />
<path style="fill:#707F87;fill-opacity:1" d="M126.5,111.05Q126.5 112 125.8 112.8Q125.15 113.45 124.2 113.45Q123.25 113.45 122.45 112.8Q121.75 112.1 121.75 111.05Q121.75 110.1 122.45 109.25Q123.25 108.6 124.2 108.6Q125.15 108.6 125.8 109.25Q126.5 110.1 126.5 111.05" />
<path style="fill:none;stroke-width:0.25;stroke-linecap:butt;stroke-linejoin:miter;stroke-miterlimit:10;stroke:#231815;stroke-opacity:1" d="M126.5,111.05Q126.5 112 125.8 112.8Q125.15 113.45 124.2 113.45Q123.25 113.45 122.45 112.8Q121.75 112.1 121.75 111.05Q121.75 110.1 122.45 109.25Q123.25 108.6 124.2 108.6Q125.15 108.6 125.8 109.25Q126.5 110.1 126.5 111.05z" />
<path style="fill:#707F87;fill-opacity:1" d="M267.3,114.3L207.65 114.3L207.65 101.8L267.3 101.8L267.3 114.3" />
<path style="fill:none;stroke-width:0.25;stroke-linecap:butt;stroke-linejoin:miter;stroke-miterlimit:10;stroke:#231815;stroke-opacity:1" d="M267.3,114.3L207.65 114.3L207.65 101.8L267.3 101.8L267.3 114.3z" />
<path style="fill:#707F87;fill-opacity:1" d="M178.6,114.3L141 114.3L141 101.8L178.6 101.8L178.6 114.3" />
<path style="fill:none;stroke-width:0.25;stroke-linecap:butt;stroke-linejoin:miter;stroke-miterlimit:10;stroke:#231815;stroke-opacity:1" d="M178.6,114.3L141 114.3L141 101.8L178.6 101.8L178.6 114.3z" />
<path style="fill:#707F87;fill-opacity:1" d="M83.75,114.3L61.25 114.3L61.25 101.8L83.75 101.8L83.75 114.3" />
<path style="fill:none;stroke-width:0.25;stroke-linecap:butt;stroke-linejoin:miter;stroke-miterlimit:10;stroke:#231815;stroke-opacity:1" d="M83.75,114.3L61.25 114.3L61.25 101.8L83.75 101.8L83.75 114.3z" />
<path style="fill:#96A9B3;fill-opacity:1" d="M252.25,68.75L206.8 68.75L206.8 57.35L252.25 57.35L252.25 68.75" />
<path style="fill:none;stroke-width:0.25;stroke-linecap:butt;stroke-linejoin:miter;stroke-miterlimit:10;stroke:#231815;stroke-opacity:1" d="M252.25,68.75L206.8 68.75L206.8 57.35L252.25 57.35L252.25 68.75z" />
<path style="fill:#96A9B3;fill-opacity:1" d="M274.35,68.75L270.7 68.75L270.7 57.35L274.35 57.35L274.35 68.75" />
<path style="fill:none;stroke-width:0.25;stroke-linecap:butt;stroke-linejoin:miter;stroke-miterlimit:10;stroke:#231815;stroke-opacity:1" d="M274.35,68.75L270.7 68.75L270.7 57.35L274.35 57.35L274.35 68.75z" />
<path style="fill:#96A9B3;fill-opacity:1" d="M171.15,68.75L167.45 68.75L167.45 57.35L171.15 57.35L171.15 68.75" />
<path style="fill:none;stroke-width:0.25;stroke-linecap:butt;stroke-linejoin:miter;stroke-miterlimit:10;stroke:#231815;stroke-opacity:1" d="M171.15,68.75L167.45 68.75L167.45 57.35L171.15 57.35L171.15 68.75z" />
<path style="fill:#DCD4B2;fill-opacity:1" d="M361.35,103.6L61.25 103.6L61.25 63.45L293.5 63.45L303.8 61.15Q315.05 58.7 320.65 58.7L327.85 58.7Q341.1 58.7 351.85 71.85Q361.35 83.4 361.35 93.8L361.35 103.6" />
<path style="fill:none;stroke-width:0.25;stroke-linecap:butt;stroke-linejoin:miter;stroke-miterlimit:10;stroke:#231815;stroke-opacity:1" d="M361.35,103.6L61.25 103.6L61.25 63.45L293.5 63.45L303.8 61.15Q315.05 58.7 320.65 58.7L327.85 58.7Q341.1 58.7 351.85 71.85Q361.35 83.4 361.35 93.8L361.35 103.6z" />
<path style="fill:#B9AC67;fill-opacity:1" d="M307.6,100.75L293.35 100.75L293.35 72L307.6 72L307.6 100.75" />
<path style="fill:none;stroke-width:0.25;stroke-linecap:butt;stroke-linejoin:miter;stroke-miterlimit:10;stroke:#231815;stroke-opacity:1" d="M307.6,100.75L293.35 100.75L293.35 72L307.6 72L307.6 100.75z" />
<path style="fill:#C6DEEB;fill-opacity:1" d="M304.2,89.9L296.75 89.9L296.75 74.85L304.2 74.85L304.2 89.9" />
<path style="fill:none;stroke-width:0.25;stroke-linecap:butt;stroke-linejoin:miter;stroke-miterlimit:10;stroke:#231815;stroke-opacity:1" d="M304.2,89.9L296.75 89.9L296.75 74.85L304.2 74.85L304.2 89.9z" />
<path style="fill:#B9AC67;fill-opacity:1" d="M103.7,100.75L89.45 100.75L89.45 72L103.7 72L103.7 100.75" />
<path style="fill:none;stroke-width:0.25;stroke-linecap:butt;stroke-linejoin:miter;stroke-miterlimit:10;stroke:#231815;stroke-opacity:1" d="M103.7,100.75L89.45 100.75L89.45 72L103.7 72L103.7 100.75z" />
<path style="fill:#C6DEEB;fill-opacity:1" d="M100.3,89.9L92.85 89.9L92.85 74.85L100.3 74.85L100.3 89.9" />
<path style="fill:none;stroke-width:0.25;stroke-linecap:butt;stroke-linejoin:miter;stroke-miterlimit:10;stroke:#231815;stroke-opacity:1" d="M100.3,89.9L92.85 89.9L92.85 74.85L100.3 74.85L100.3 89.9z" />
<path style="fill:#B9AC67;fill-opacity:1" d="M319.4,100.75L311.7 100.75L311.7 72L319.4 72L319.4 100.75" />
<path style="fill:none;stroke-width:0.25;stroke-linecap:butt;stroke-linejoin:miter;stroke-miterlimit:10;stroke:#231815;stroke-opacity:1" d="M319.4,100.75L311.7 100.75L311.7 72L319.4 72L319.4 100.75z" />
<path style="fill:#C6DEEB;fill-opacity:1" d="M318.2,85.3L312.9 85.3L312.9 74.85L318.2 74.85L318.2 85.3" />
<path style="fill:none;stroke-width:0.25;stroke-linecap:butt;stroke-linejoin:miter;stroke-miterlimit:10;stroke:#231815;stroke-opacity:1" d="M318.2,85.3L312.9 85.3L312.9 74.85L318.2 74.85L318.2 85.3z" />
<path style="fill:#C6DEEB;fill-opacity:1" d="M347.5,67.1Q354.95 73.9 358.9 83.4Q356.6 83.4 353.2 82.45Q344.9 80.15 336.65 73.75Q329.2 68.05 327.85 64.4Q326.75 61.55 329.2 58.7Q338.95 59.25 347.5 67.1" />
<path style="fill:none;stroke-width:0.25;stroke-linecap:butt;stroke-linejoin:miter;stroke-miterlimit:10;stroke:#231815;stroke-opacity:1" d="M329.2,58.7Q326.75 61.55 327.85 64.4Q329.2 68.05 336.65 73.75Q344.9 80.15 353.2 82.45Q356.6 83.4 358.9 83.4Q354.95 73.9 347.5 67.1Q338.95 59.25 329.2 58.7z" />
<path style="fill:#C6DEEB;fill-opacity:1" d="M137.9,89.9L119.45 89.9L119.45 78.35L137.9 78.35L137.9 89.9" />
<path style="fill:none;stroke-width:0.25;stroke-linecap:butt;stroke-linejoin:miter;stroke-miterlimit:10;stroke:#231815;stroke-opacity:1" d="M137.9,89.9L119.45 89.9L119.45 78.35L137.9 78.35L137.9 89.9z" />
<path style="fill:#C6DEEB;fill-opacity:1" d="M163.25,89.9L141.7 89.9L141.7 78.35L163.25 78.35L163.25 89.9" />
<path style="fill:none;stroke-width:0.25;stroke-linecap:butt;stroke-linejoin:miter;stroke-miterlimit:10;stroke:#231815;stroke-opacity:1" d="M163.25,89.9L141.7 89.9L141.7 78.35L163.25 78.35L163.25 89.9z" />
<path style="fill:#C6DEEB;fill-opacity:1" d="M188.75,89.9L167.05 89.9L167.05 78.35L188.75 78.35L188.75 89.9" />
<path style="fill:none;stroke-width:0.25;stroke-linecap:butt;stroke-linejoin:miter;stroke-miterlimit:10;stroke:#231815;stroke-opacity:1" d="M188.75,89.9L167.05 89.9L167.05 78.35L188.75 78.35L188.75 89.9z" />
<path style="fill:#C6DEEB;fill-opacity:1" d="M214.15,89.9L192.55 89.9L192.55 78.35L214.15 78.35L214.15 89.9" />
<path style="fill:none;stroke-width:0.25;stroke-linecap:butt;stroke-linejoin:miter;stroke-miterlimit:10;stroke:#231815;stroke-opacity:1" d="M214.15,89.9L192.55 89.9L192.55 78.35L214.15 78.35L214.15 89.9z" />
<path style="fill:#C6DEEB;fill-opacity:1" d="M239.65,89.9L218.05 89.9L218.05 78.35L239.65 78.35L239.65 89.9" />
<path style="fill:none;stroke-width:0.25;stroke-linecap:butt;stroke-linejoin:miter;stroke-miterlimit:10;stroke:#231815;stroke-opacity:1" d="M239.65,89.9L218.05 89.9L218.05 78.35L239.65 78.35L239.65 89.9z" />
<path style="fill:#C6DEEB;fill-opacity:1" d="M265,89.9L243.45 89.9L243.45 78.35L265 78.35L265 89.9" />
<path style="fill:none;stroke-width:0.25;stroke-linecap:butt;stroke-linejoin:miter;stroke-miterlimit:10;stroke:#231815;stroke-opacity:1" d="M265,89.9L243.45 89.9L243.45 78.35L265 78.35L265 89.9z" />
<path style="fill:#9F9D89;fill-opacity:1" d="M80.6,33.25L80.6 54.3L79.35 54.3L79.35 33.25L80.6 33.25" />
<path style="fill:#9F9D89;fill-opacity:1" d="M45.05,54.3L45.05 33.25L46.25 33.25L46.25 54.3L45.05 54.3" />
<path style="fill:#E6E4CF;fill-opacity:1" d="M110.05,98.8L103.1 98.8L103.1 32.3L110.05 32.3L110.05 98.8" />
<path style="fill:#E6E4CF;fill-opacity:1" d="M22.5,98.8L15.6 98.8L15.6 32.3L22.5 32.3L22.5 98.8" />
<path style="fill:#B5B5B6;fill-opacity:1" d="M130.4,184.65L35.95 184.65L29.7 183.45L29.7 168.4L130.4 168.4L130.4 184.65" />
<path style="fill:#B5B5B6;fill-opacity:1" d="M134.2,184.65L125.65 184.65L125.9 182.1Q125.9 177.1 122.25 173.4Q118.7 169.75 113.55 169.75Q108.4 169.75 104.75 173.4Q101.05 176.95 101.05 182.1L101.35 184.65L56.45 184.65L56.7 182.1Q56.7 176.95 53.05 173.4Q49.4 169.75 44.2 169.75Q39.2 169.75 35.55 173.4Q31.85 177.1 31.85 182.1L32 183.85Q27.55 183.3 26.7 182.5Q25.65 181.7 25.2 177.75Q24.95 174.1 25.35 170.55L26.15 163.5Q26.85 159.05 28.75 155.9Q32 150.5 32.7 149.8Q35 147.1 38.5 146.4L57.1 145.35Q71.2 145.2 80.85 145.85Q88.45 146.3 100.55 152.65Q106.5 155.9 111 159.05L114.25 160.65Q117.75 162.3 119.65 162.55Q128.2 164.05 130.65 166.9Q134.2 170.85 134.2 176.55L134.2 184.65" />
<path style="fill:#B5B5B6;fill-opacity:1" d="M54.1,182.1Q54.1 186.3 51.3 189.15Q48.45 192 44.2 192Q40.15 192 37.3 189.15Q34.3 186.3 34.3 182.1Q34.3 178.05 37.3 175.2Q40.15 172.2 44.2 172.2Q48.45 172.2 51.3 175.2Q54.1 178.05 54.1 182.1" />
<path style="fill:#B5B5B6;fill-opacity:1" d="M50.2,182.1Q50.2 184.55 48.45 186.3Q46.65 188.05 44.2 188.05Q41.8 188.05 40 186.3Q38.25 184.55 38.25 182.1Q38.25 179.65 40 177.9Q41.8 176.15 44.2 176.15Q46.65 176.15 48.45 177.9Q50.2 179.65 50.2 182.1" />
<path style="fill:#B5B5B6;fill-opacity:1" d="M123.45,182.1Q123.45 186.3 120.6 189.15Q117.6 192 113.55 192Q109.35 192 106.5 189.15Q103.65 186.3 103.65 182.1Q103.65 178.05 106.5 175.2Q109.35 172.2 113.55 172.2Q117.6 172.2 120.6 175.2Q123.45 178.05 123.45 182.1" />
<path style="fill:#B5B5B6;fill-opacity:1" d="M119.5,182.1Q119.5 184.55 117.75 186.3Q116 188.05 113.55 188.05Q111 188.05 109.35 186.3Q107.6 184.55 107.6 182.1Q107.6 179.65 109.35 177.9Q111 176.15 113.55 176.15Q116 176.15 117.75 177.9Q119.5 179.65 119.5 182.1" />
<path style="fill:#B5B5B6;fill-opacity:1" d="M65.8,161.9L65.8 148.3L80.6 148.7Q87.75 149.25 99.3 155.35Q105.15 158.5 109.5 161.6L110.05 161.9L65.8 161.9" />
<path style="fill:#B5B5B6;fill-opacity:1" d="M61.3,148.3L61.3 161.9L29.45 161.9Q30.1 159.3 31.35 157.4L32.3 155.75Q34.3 152.25 35.4 151.3Q36.9 149.65 39.2 149.25L61.3 148.3" />
<path style="fill:#000000;fill-opacity:1" d="M130.9,166.65Q134.45 170.55 134.45 176.55L134.45 185.1L123.45 185.1Q122.35 188.2 119.8 190.25Q117.1 192.4 113.55 192.4Q110.05 192.4 107.2 190.25Q104.6 188.2 103.8 185.1L54.1 185.1Q53.2 188.2 50.6 190.25Q47.75 192.4 44.2 192.4Q40.55 192.4 37.85 190.1Q35.15 188.05 34.3 184.8L28.75 183.75L26.45 182.8Q25.65 182.25 25.2 179.65Q24.8 177.5 24.8 174.65L24.95 170.55L25.75 163.35Q26.45 158.9 28.5 155.65Q31.2 150.9 32.4 149.55Q34.85 146.7 38.5 146L61.3 144.9Q70.55 144.9 80.85 145.45Q88.7 146 100.65 152.4Q106.65 155.5 111.1 158.6L114.35 160.25Q118.15 162 119.8 162.3Q128.5 163.9 130.9 166.65M130.4,167.15Q128.05 164.45 119.65 162.95Q117.75 162.7 113.95 160.95L107.7 157.4Q91.15 146.95 80.7 146.3Q74.05 145.75 61.3 145.75L38.65 146.7Q35.4 147.5 32.95 149.95Q32.15 150.9 29 156.05Q27.25 159.15 26.6 163.5Q26.15 166.1 25.75 170.7L25.5 174.65Q25.5 177.5 25.9 179.5Q26.3 181.85 27 182.25Q27.55 182.8 28.9 182.9L34.7 184L34.85 184L35 184.25Q35.65 187.4 38.25 189.55Q40.85 191.6 44.2 191.6Q47.5 191.6 50.05 189.55Q52.65 187.65 53.45 184.55L53.45 184.25L104.2 184.25L104.35 184.55Q105.15 187.65 107.7 189.55Q110.3 191.6 113.55 191.6Q116.8 191.6 119.4 189.55Q121.85 187.65 122.65 184.55L122.8 184.25L133.75 184.25L133.75 176.55Q133.75 170.95 130.4 167.15" />
<path style="fill:#96A9B3;fill-opacity:1" d="M583.7,184.65L489.1 184.65L482.9 183.45L482.9 168.4L583.7 168.4L583.7 184.65" />
<path style="fill:#000000;fill-opacity:1" d="M583.3,168.8L483.3 168.8L483.3 183.05L489.25 184.25L583.3 184.25L583.3 168.8M583.95,185.1L489.1 185.1L482.45 183.75L482.45 168.1L583.95 168.1L583.95 185.1" />
<path style="fill:#0092D8;fill-opacity:1" d="M587.35,184.65L578.8 184.65L579.1 182.1Q579.1 177.1 575.4 173.4Q571.9 169.75 566.75 169.75Q561.55 169.75 557.9 173.4Q554.25 176.95 554.25 182.1L554.5 184.65L509.6 184.65L509.9 182.1Q509.9 176.95 506.2 173.4Q502.55 169.75 497.4 169.75Q492.4 169.75 488.7 173.4Q485.05 177.1 485.05 182.1L485.2 183.85Q480.7 183.3 479.9 182.5Q478.8 181.7 478.4 177.75Q478.15 174.1 478.55 170.55L479.35 163.5Q480.05 159.05 481.95 155.9Q485.2 150.5 485.85 149.8Q488.15 147.1 491.7 146.4L510.3 145.35Q524.4 145.2 534.05 145.85Q541.65 146.3 553.7 152.65Q559.65 155.9 564.15 159.05L567.4 160.65Q571.05 162.3 572.85 162.55Q581.4 164.05 583.8 166.9Q587.35 170.85 587.35 176.55L587.35 184.65" />
<path style="fill:#000000;fill-opacity:1" d="M587.6,176.55L587.6 185.1L578.4 185.1L578.4 184.55L578.65 182.1Q578.65 177.2 575.15 173.7Q571.6 170.15 566.75 170.15Q561.7 170.15 558.2 173.7Q554.65 177.2 554.65 182.1L554.9 184.55L555.05 185.1L509.05 185.1L509.2 184.55L509.45 182.1Q509.45 177.2 505.95 173.7Q502.4 170.15 497.4 170.15Q492.5 170.15 489 173.7Q485.45 177.2 485.45 182.1L485.6 183.85L485.6 184.25L485.2 184.25L481.95 183.75L479.6 182.8Q478.8 182.25 478.4 179.65Q478 177.5 478 174.65L478.15 170.55L478.95 163.35Q479.6 159.05 481.65 155.75L485.6 149.55Q488.05 146.7 491.7 146L514.5 144.9Q523.7 144.9 534.05 145.45Q541.9 146 553.85 152.4Q559.8 155.5 564.3 158.6L567.55 160.25Q571.2 161.9 572.95 162.3Q581.65 163.9 584.1 166.65Q587.6 170.55 587.6 176.55M586.95,176.55Q586.95 170.95 583.55 167.15Q581.25 164.45 572.85 162.95Q570.95 162.7 567.25 160.95L563.9 159.3L560.9 157.4Q544.35 146.95 533.9 146.3Q527.25 145.75 514.5 145.75L491.85 146.7Q488.45 147.5 486.25 149.95Q485.05 151.45 482.2 156.05Q480.45 159.15 479.75 163.5L478.95 170.7L478.8 174.65Q478.8 178.15 479.1 179.5Q479.5 181.85 480.15 182.25Q480.7 182.8 482.05 182.9L484.8 183.45L484.65 182.1Q484.65 176.8 488.45 173.15Q492.1 169.35 497.4 169.35Q502.7 169.35 506.5 173.15Q510.15 176.8 510.15 182.1L510 184.25L554.1 184.25Q553.95 183.45 553.95 182.1Q553.95 176.8 557.75 173.15Q561.45 169.35 566.75 169.35Q572 169.35 575.8 173.15Q579.5 176.8 579.5 182.1L579.35 184.25L586.95 184.25L586.95 176.55" />
<path style="fill:#707F87;fill-opacity:1" d="M507.3,182.1Q507.3 186.3 504.45 189.15Q501.6 192 497.4 192Q493.3 192 490.5 189.15Q487.5 186.3 487.5 182.1Q487.5 178.05 490.5 175.2Q493.3 172.2 497.4 172.2Q501.6 172.2 504.45 175.2Q507.3 178.05 507.3 182.1" />
<path style="fill:#000000;fill-opacity:1" d="M507.05,182.1Q506.9 178.15 504.2 175.3Q501.35 172.6 497.4 172.6Q493.45 172.6 490.6 175.3Q487.9 178.15 487.9 182.1Q487.9 186.05 490.6 188.9Q493.45 191.6 497.4 191.6Q501.35 191.6 504.2 188.9Q506.9 186.05 507.05 182.1M507.7,182.1Q507.7 186.45 504.7 189.4Q501.75 192.4 497.4 192.4Q493.2 192.4 490.05 189.4Q487.1 186.45 487.1 182.1Q487.1 177.9 490.05 174.75Q493.2 171.8 497.4 171.8Q501.75 171.8 504.7 174.75Q507.7 177.9 507.7 182.1" />
<path style="fill:#96A9B3;fill-opacity:1" d="M503.35,182.1Q503.35 184.55 501.6 186.3Q499.85 188.05 497.4 188.05Q494.95 188.05 493.2 186.3Q491.45 184.55 491.45 182.1Q491.45 179.65 493.2 177.9Q494.95 176.15 497.4 176.15Q499.85 176.15 501.6 177.9Q503.35 179.65 503.35 182.1" />
<path style="fill:#000000;fill-opacity:1" d="M502.95,182.1Q502.95 179.8 501.35 178.15Q499.7 176.55 497.4 176.55Q495.2 176.55 493.45 178.15Q491.85 179.95 491.85 182.1Q491.85 184.4 493.45 186.05Q495.1 187.65 497.4 187.65Q499.7 187.65 501.35 186.05Q502.95 184.4 502.95 182.1M503.75,182.1Q503.75 184.8 501.85 186.55Q500.1 188.45 497.4 188.45Q494.8 188.45 492.9 186.55Q491.15 184.8 491.15 182.1Q491.15 179.4 492.9 177.6Q494.8 175.7 497.4 175.7Q500.1 175.7 501.85 177.6Q503.75 179.5 503.75 182.1" />
<path style="fill:#707F87;fill-opacity:1" d="M576.65,182.1Q576.65 186.3 573.8 189.15Q570.8 192 566.75 192Q562.5 192 559.65 189.15Q556.8 186.3 556.8 182.1Q556.8 178.05 559.65 175.2Q562.5 172.2 566.75 172.2Q570.8 172.2 573.8 175.2Q576.65 178.05 576.65 182.1" />
<path style="fill:#000000;fill-opacity:1" d="M576.25,182.1Q576.25 178.15 573.5 175.3Q570.65 172.6 566.75 172.6Q562.8 172.6 559.95 175.3Q557.25 178.15 557.25 182.1Q557.25 186.05 559.95 188.9Q562.8 191.6 566.75 191.6Q570.65 191.6 573.5 188.9Q576.25 186.05 576.25 182.1M577.05,182.1Q577.05 186.45 574.05 189.4Q571.05 192.4 566.75 192.4Q562.5 192.4 559.4 189.4Q556.4 186.45 556.4 182.1Q556.4 177.9 559.4 174.75Q562.5 171.8 566.75 171.8Q571.05 171.8 574.05 174.75Q577.05 177.9 577.05 182.1" />
<path style="fill:#96A9B3;fill-opacity:1" d="M572.7,182.1Q572.7 184.55 570.95 186.3Q569.15 188.05 566.75 188.05Q564.3 188.05 562.5 186.3Q560.75 184.55 560.75 182.1Q560.75 179.65 562.5 177.9Q564.3 176.15 566.75 176.15Q569.15 176.15 570.95 177.9Q572.7 179.65 572.7 182.1" />
<path style="fill:#000000;fill-opacity:1" d="M572.3,182.1Q572.3 179.95 570.65 178.15Q569.05 176.55 566.75 176.55Q564.4 176.55 562.8 178.15Q561.15 179.8 561.15 182.1Q561.15 184.4 562.8 186.05Q564.4 187.65 566.75 187.65Q569.05 187.65 570.65 186.05Q572.3 184.4 572.3 182.1M572.95,182.1Q572.95 184.8 571.2 186.55Q569.3 188.45 566.75 188.45Q564.15 188.45 562.25 186.55Q560.35 184.8 560.35 182.1Q560.35 179.5 562.25 177.6Q564.15 175.7 566.75 175.7Q569.3 175.7 571.2 177.6Q572.95 179.4 572.95 182.1" />
<path style="fill:#C6DEEB;fill-opacity:1" d="M518.95,161.9L518.95 148.3L533.75 148.7Q540.95 149.25 552.5 155.35Q558.3 158.5 562.65 161.6L563.2 161.9L518.95 161.9" />
<path style="fill:#000000;fill-opacity:1" d="M533.75,149.15L519.4 148.7L519.4 161.45L561.85 161.45Q544.2 149.8 533.75 149.15M564.7,162.3L518.55 162.3L518.55 147.9L518.95 147.9L533.75 148.45Q541.1 148.7 552.6 155.1Q555.6 156.6 559.95 159.3L562.1 160.65L562.65 161.05L562.8 161.2L562.95 161.2L564.7 162.3" />
<path style="fill:#C6DEEB;fill-opacity:1" d="M514.5,148.3L514.5 161.9L482.6 161.9Q483.3 159.3 484.5 157.4L485.45 155.75Q487.5 152.25 488.6 151.3Q490.05 149.65 492.4 149.25L514.5 148.3" />
<path style="fill:#000000;fill-opacity:1" d="M492.25,148.85L514.5 147.9L514.9 147.9L514.9 162.3L482.2 162.3L482.35 161.75Q483.15 158.9 484.1 157.25L485.2 155.5L488.3 150.9Q489.8 149.4 492.25 148.85M492.5,149.65Q490.2 150.1 488.85 151.45Q487.35 153.2 485.85 155.9L484.8 157.65L483.15 161.45L514.2 161.45L514.2 148.7L492.5 149.65" />
</g>
</svg>
