<?xml version="1.0" encoding="utf-8"?>
<svg version="1.1" id="Layer_1"
xmlns="http://www.w3.org/2000/svg"
xmlns:xlink="http://www.w3.org/1999/xlink"
xmlns:author="http://www.sothink.com"
width="111px" height="23px"
xml:space="preserve">
<g id="168" transform="matrix(1, 0, 0, 1, 0, 0)">
<path style="fill:#717F87;fill-opacity:1" d="M105.95,19.95L7.35 19.95L7.35 16.55L105.95 16.55L105.95 19.95" />
<path style="fill:none;stroke-width:0.25;stroke-linecap:butt;stroke-linejoin:miter;stroke-miterlimit:10;stroke:#231916;stroke-opacity:1" d="M105.95,19.95L7.35 19.95L7.35 16.55L105.95 16.55L105.95 19.95z" />
<path style="fill:#B9AC67;fill-opacity:1" d="M110.8,21.2L105.15 21.2L101.05 17.25L110.8 17.25L110.8 21.2" />
<path style="fill:none;stroke-width:0.25;stroke-linecap:butt;stroke-linejoin:miter;stroke-miterlimit:10;stroke:#231916;stroke-opacity:1" d="M110.8,21.2L105.15 21.2L101.05 17.25L110.8 17.25L110.8 21.2z" />
<path style="fill:#96A9B3;fill-opacity:1" d="M90,19.95Q90 20.95 89.3 21.7Q88.6 22.4 87.6 22.4Q86.6 22.4 85.85 21.7Q85.15 20.95 85.15 19.95Q85.15 18.95 85.85 18.25Q86.6 17.55 87.6 17.55Q88.6 17.55 89.3 18.25Q90 19 90 19.95" />
<path style="fill:none;stroke-width:0.25;stroke-linecap:butt;stroke-linejoin:miter;stroke-miterlimit:10;stroke:#231916;stroke-opacity:1" d="M90,19.95Q90 20.95 89.3 21.7Q88.6 22.4 87.6 22.4Q86.6 22.4 85.85 21.7Q85.15 20.95 85.15 19.95Q85.15 18.95 85.85 18.25Q86.6 17.55 87.6 17.55Q88.6 17.55 89.3 18.25Q90 19 90 19.95z" />
<path style="fill:#717F87;fill-opacity:1" d="M88.5,19.95L88.2 20.6L87.6 20.85L86.95 20.6L86.7 19.95Q86.7 19.6 86.95 19.35Q87.25 19.1 87.6 19.1Q87.95 19.1 88.2 19.35L88.5 19.95" />
<path style="fill:none;stroke-width:0.25;stroke-linecap:butt;stroke-linejoin:miter;stroke-miterlimit:10;stroke:#231916;stroke-opacity:1" d="M88.5,19.95L88.2 20.6L87.6 20.85L86.95 20.6L86.7 19.95Q86.7 19.6 86.95 19.35Q87.25 19.1 87.6 19.1Q87.95 19.1 88.2 19.35L88.5 19.95z" />
<path style="fill:#96A9B3;fill-opacity:1" d="M101.45,19.95Q101.45 20.95 100.75 21.7Q100 22.4 99 22.4Q98 22.4 97.25 21.7Q96.55 20.95 96.55 19.95Q96.55 18.95 97.25 18.25Q98 17.55 99 17.55Q100 17.55 100.75 18.25Q101.45 18.95 101.45 19.95" />
<path style="fill:none;stroke-width:0.25;stroke-linecap:butt;stroke-linejoin:miter;stroke-miterlimit:10;stroke:#231916;stroke-opacity:1" d="M101.45,19.95Q101.45 20.95 100.75 21.7Q100 22.4 99 22.4Q98 22.4 97.25 21.7Q96.55 20.95 96.55 19.95Q96.55 18.95 97.25 18.25Q98 17.55 99 17.55Q100 17.55 100.75 18.25Q101.45 18.95 101.45 19.95z" />
<path style="fill:#717F87;fill-opacity:1" d="M99.9,19.95L99.65 20.6L99 20.85L98.35 20.6L98.1 19.95Q98.1 19.6 98.35 19.35Q98.65 19.1 99 19.1L99.65 19.35L99.9 19.95" />
<path style="fill:none;stroke-width:0.25;stroke-linecap:butt;stroke-linejoin:miter;stroke-miterlimit:10;stroke:#231916;stroke-opacity:1" d="M99.9,19.95L99.65 20.6L99 20.85L98.35 20.6L98.1 19.95Q98.1 19.6 98.35 19.35Q98.65 19.1 99 19.1L99.65 19.35L99.9 19.95z" />
<path style="fill:#96A9B3;fill-opacity:1" d="M14.4,19.95Q14.4 20.95 13.7 21.7Q13 22.4 12 22.4Q11 22.4 10.25 21.7Q9.55 20.95 9.55 19.95Q9.55 18.95 10.25 18.25Q11 17.55 12 17.55Q13 17.55 13.7 18.25Q14.4 19 14.4 19.95" />
<path style="fill:none;stroke-width:0.25;stroke-linecap:butt;stroke-linejoin:miter;stroke-miterlimit:10;stroke:#231916;stroke-opacity:1" d="M14.4,19.95Q14.4 20.95 13.7 21.7Q13 22.4 12 22.4Q11 22.4 10.25 21.7Q9.55 20.95 9.55 19.95Q9.55 18.95 10.25 18.25Q11 17.55 12 17.55Q13 17.55 13.7 18.25Q14.4 19 14.4 19.95z" />
<path style="fill:#717F87;fill-opacity:1" d="M12.9,19.95L12.6 20.6L12 20.85L11.35 20.6L11.1 19.95Q11.1 19.6 11.35 19.35Q11.65 19.1 12 19.1Q12.35 19.1 12.6 19.35L12.9 19.95" />
<path style="fill:none;stroke-width:0.25;stroke-linecap:butt;stroke-linejoin:miter;stroke-miterlimit:10;stroke:#231916;stroke-opacity:1" d="M12.9,19.95L12.6 20.6L12 20.85L11.35 20.6L11.1 19.95Q11.1 19.6 11.35 19.35Q11.65 19.1 12 19.1Q12.35 19.1 12.6 19.35L12.9 19.95z" />
<path style="fill:#96A9B3;fill-opacity:1" d="M25.85,19.95Q25.85 20.95 25.15 21.7Q24.4 22.4 23.4 22.4Q22.4 22.4 21.65 21.7Q20.95 20.95 20.95 19.95Q20.95 18.95 21.65 18.25Q22.4 17.55 23.4 17.55Q24.4 17.55 25.15 18.25Q25.85 18.95 25.85 19.95" />
<path style="fill:none;stroke-width:0.25;stroke-linecap:butt;stroke-linejoin:miter;stroke-miterlimit:10;stroke:#231916;stroke-opacity:1" d="M25.85,19.95Q25.85 20.95 25.15 21.7Q24.4 22.4 23.4 22.4Q22.4 22.4 21.65 21.7Q20.95 20.95 20.95 19.95Q20.95 18.95 21.65 18.25Q22.4 17.55 23.4 17.55Q24.4 17.55 25.15 18.25Q25.85 18.95 25.85 19.95z" />
<path style="fill:#717F87;fill-opacity:1" d="M24.3,19.95L24.05 20.6L23.4 20.85L22.75 20.6L22.5 19.95Q22.5 19.6 22.75 19.35Q23.05 19.1 23.4 19.1Q23.75 19.1 24.05 19.35L24.3 19.95" />
<path style="fill:none;stroke-width:0.25;stroke-linecap:butt;stroke-linejoin:miter;stroke-miterlimit:10;stroke:#231916;stroke-opacity:1" d="M24.3,19.95L24.05 20.6L23.4 20.85L22.75 20.6L22.5 19.95Q22.5 19.6 22.75 19.35Q23.05 19.1 23.4 19.1Q23.75 19.1 24.05 19.35L24.3 19.95z" />
<path style="fill:#717F87;fill-opacity:1" d="M76.15,21.2L54.15 21.2L54.15 16.55L76.15 16.55L76.15 21.2" />
<path style="fill:none;stroke-width:0.25;stroke-linecap:butt;stroke-linejoin:miter;stroke-miterlimit:10;stroke:#231916;stroke-opacity:1" d="M76.15,21.2L54.15 21.2L54.15 16.55L76.15 16.55L76.15 21.2z" />
<path style="fill:#717F87;fill-opacity:1" d="M43.5,21.2L29.6 21.2L29.6 16.55L43.5 16.55L43.5 21.2" />
<path style="fill:none;stroke-width:0.25;stroke-linecap:butt;stroke-linejoin:miter;stroke-miterlimit:10;stroke:#231916;stroke-opacity:1" d="M43.5,21.2L29.6 21.2L29.6 16.55L43.5 16.55L43.5 21.2z" />
<path style="fill:#717F87;fill-opacity:1" d="M8.5,21.2L0.25 21.2L0.25 16.55L8.5 16.55L8.5 21.2" />
<path style="fill:none;stroke-width:0.25;stroke-linecap:butt;stroke-linejoin:miter;stroke-miterlimit:10;stroke:#231916;stroke-opacity:1" d="M8.5,21.2L0.25 21.2L0.25 16.55L8.5 16.55L8.5 21.2z" />
<path style="fill:#96A9B3;fill-opacity:1" d="M70.65,4.4L53.9 4.4L53.9 0.2L70.65 0.2L70.65 4.4" />
<path style="fill:none;stroke-width:0.25;stroke-linecap:butt;stroke-linejoin:miter;stroke-miterlimit:10;stroke:#231916;stroke-opacity:1" d="M70.65,4.4L53.9 4.4L53.9 0.2L70.65 0.2L70.65 4.4z" />
<path style="fill:#96A9B3;fill-opacity:1" d="M78.8,4.4L77.4 4.4L77.4 0.2L78.8 0.2L78.8 4.4" />
<path style="fill:none;stroke-width:0.25;stroke-linecap:butt;stroke-linejoin:miter;stroke-miterlimit:10;stroke:#231916;stroke-opacity:1" d="M78.8,4.4L77.4 4.4L77.4 0.2L78.8 0.2L78.8 4.4z" />
<path style="fill:#96A9B3;fill-opacity:1" d="M40.75,4.4L39.35 4.4L39.35 0.2L40.75 0.2L40.75 4.4" />
<path style="fill:none;stroke-width:0.25;stroke-linecap:butt;stroke-linejoin:miter;stroke-miterlimit:10;stroke:#231916;stroke-opacity:1" d="M40.75,4.4L39.35 4.4L39.35 0.2L40.75 0.2L40.75 4.4z" />
<path style="fill:#DCD5B2;fill-opacity:1" d="M110.8,17.25L0.25 17.25L0.25 2.45L85.8 2.45L89.6 1.55L95.85 0.65L98.45 0.65Q103.4 0.65 107.35 5.5Q110.8 9.8 110.8 13.65L110.8 17.25" />
<path style="fill:none;stroke-width:0.25;stroke-linecap:butt;stroke-linejoin:miter;stroke-miterlimit:10;stroke:#231916;stroke-opacity:1" d="M110.8,17.25L0.25 17.25L0.25 2.45L85.8 2.45L89.6 1.55L95.85 0.65L98.45 0.65Q103.4 0.65 107.35 5.5Q110.8 9.8 110.8 13.65L110.8 17.25z" />
<path style="fill:#B9AC67;fill-opacity:1" d="M91.05,16.2L85.8 16.2L85.8 5.6L91.05 5.6L91.05 16.2" />
<path style="fill:none;stroke-width:0.25;stroke-linecap:butt;stroke-linejoin:miter;stroke-miterlimit:10;stroke:#231916;stroke-opacity:1" d="M91.05,16.2L85.8 16.2L85.8 5.6L91.05 5.6L91.05 16.2z" />
<path style="fill:#C6DEEB;fill-opacity:1" d="M89.8,12.15L87.05 12.15L87.05 6.65L89.8 6.65L89.8 12.15" />
<path style="fill:none;stroke-width:0.25;stroke-linecap:butt;stroke-linejoin:miter;stroke-miterlimit:10;stroke:#231916;stroke-opacity:1" d="M89.8,12.15L87.05 12.15L87.05 6.65L89.8 6.65L89.8 12.15z" />
<path style="fill:#B9AC67;fill-opacity:1" d="M15.85,16.2L10.6 16.2L10.6 5.6L15.85 5.6L15.85 16.2" />
<path style="fill:none;stroke-width:0.25;stroke-linecap:butt;stroke-linejoin:miter;stroke-miterlimit:10;stroke:#231916;stroke-opacity:1" d="M15.85,16.2L10.6 16.2L10.6 5.6L15.85 5.6L15.85 16.2z" />
<path style="fill:#C6DEEB;fill-opacity:1" d="M14.6,12.15L11.9 12.15L11.9 6.65L14.6 6.65L14.6 12.15" />
<path style="fill:none;stroke-width:0.25;stroke-linecap:butt;stroke-linejoin:miter;stroke-miterlimit:10;stroke:#231916;stroke-opacity:1" d="M14.6,12.15L11.9 12.15L11.9 6.65L14.6 6.65L14.6 12.15z" />
<path style="fill:#B9AC67;fill-opacity:1" d="M95.4,16.2L92.5 16.2L92.5 5.6L95.4 5.6L95.4 16.2" />
<path style="fill:none;stroke-width:0.25;stroke-linecap:butt;stroke-linejoin:miter;stroke-miterlimit:10;stroke:#231916;stroke-opacity:1" d="M95.4,16.2L92.5 16.2L92.5 5.6L95.4 5.6L95.4 16.2z" />
<path style="fill:#C6DEEB;fill-opacity:1" d="M94.95,10.5L92.95 10.5L92.95 6.65L94.95 6.65L94.95 10.5" />
<path style="fill:none;stroke-width:0.25;stroke-linecap:butt;stroke-linejoin:miter;stroke-miterlimit:10;stroke:#231916;stroke-opacity:1" d="M94.95,10.5L92.95 10.5L92.95 6.65L94.95 6.65L94.95 10.5z" />
<path style="fill:#C6DEEB;fill-opacity:1" d="M105.75,3.8Q108.45 6.3 109.9 9.8L107.85 9.4Q104.8 8.55 101.75 6.2Q99 4.15 98.5 2.8Q98.05 1.7 98.95 0.7Q102.55 0.9 105.75 3.8" />
<path style="fill:none;stroke-width:0.25;stroke-linecap:butt;stroke-linejoin:miter;stroke-miterlimit:10;stroke:#231916;stroke-opacity:1" d="M98.95,0.7Q98.05 1.7 98.5 2.8Q99 4.15 101.75 6.2Q104.8 8.55 107.85 9.4L109.9 9.8Q108.45 6.3 105.75 3.8Q102.55 0.9 98.95 0.7z" />
<path style="fill:#C6DEEB;fill-opacity:1" d="M28.45,12.15L21.7 12.15L21.7 7.95L28.45 7.95L28.45 12.15" />
<path style="fill:none;stroke-width:0.25;stroke-linecap:butt;stroke-linejoin:miter;stroke-miterlimit:10;stroke:#231916;stroke-opacity:1" d="M28.45,12.15L21.7 12.15L21.7 7.95L28.45 7.95L28.45 12.15z" />
<path style="fill:#C6DEEB;fill-opacity:1" d="M37.85,12.15L29.85 12.15L29.85 7.95L37.85 7.95L37.85 12.15" />
<path style="fill:none;stroke-width:0.25;stroke-linecap:butt;stroke-linejoin:miter;stroke-miterlimit:10;stroke:#231916;stroke-opacity:1" d="M37.85,12.15L29.85 12.15L29.85 7.95L37.85 7.95L37.85 12.15z" />
<path style="fill:#C6DEEB;fill-opacity:1" d="M47.2,12.15L39.25 12.15L39.25 7.95L47.2 7.95L47.2 12.15" />
<path style="fill:none;stroke-width:0.25;stroke-linecap:butt;stroke-linejoin:miter;stroke-miterlimit:10;stroke:#231916;stroke-opacity:1" d="M47.2,12.15L39.25 12.15L39.25 7.95L47.2 7.95L47.2 12.15z" />
<path style="fill:#C6DEEB;fill-opacity:1" d="M56.6,12.15L48.65 12.15L48.65 7.95L56.6 7.95L56.6 12.15" />
<path style="fill:none;stroke-width:0.25;stroke-linecap:butt;stroke-linejoin:miter;stroke-miterlimit:10;stroke:#231916;stroke-opacity:1" d="M56.6,12.15L48.65 12.15L48.65 7.95L56.6 7.95L56.6 12.15z" />
<path style="fill:#C6DEEB;fill-opacity:1" d="M65.95,12.15L58 12.15L58 7.95L65.95 7.95L65.95 12.15" />
<path style="fill:none;stroke-width:0.25;stroke-linecap:butt;stroke-linejoin:miter;stroke-miterlimit:10;stroke:#231916;stroke-opacity:1" d="M65.95,12.15L58 12.15L58 7.95L65.95 7.95L65.95 12.15z" />
<path style="fill:#C6DEEB;fill-opacity:1" d="M75.35,12.15L67.4 12.15L67.4 7.95L75.35 7.95L75.35 12.15" />
<path style="fill:none;stroke-width:0.25;stroke-linecap:butt;stroke-linejoin:miter;stroke-miterlimit:10;stroke:#231916;stroke-opacity:1" d="M75.35,12.15L67.4 12.15L67.4 7.95L75.35 7.95L75.35 12.15z" />
<path style="fill:#231916;fill-opacity:1" d="M98,0.65L97.8 0.85L97.55 0.65L97.8 0.45L98 0.65M98.85,0.7L98.6 0.9L98.45 0.65L98.65 0.45L98.85 0.7M99.7,0.75L99.45 0.95L99.25 0.7L99.5 0.5L99.7 0.75M95.45,0.65L95.25 0.9L95 0.7L95.2 0.45Q95.45 0.45 95.45 0.65M97.15,0.65L96.95 0.85L96.7 0.65L96.95 0.45L97.15 0.65M96.3,0.65L96.1 0.85Q95.85 0.85 95.85 0.65Q95.85 0.45 96.1 0.45L96.3 0.65M101.35,1.15Q101.3 1.3 101.05 1.3Q100.85 1.2 100.95 1L101.2 0.85L101.35 1.15M100.5,0.9Q100.5 1.15 100.25 1.05L100.1 0.8Q100.2 0.65 100.35 0.65L100.5 0.9M102.15,1.45L101.85 1.55Q101.65 1.45 101.75 1.3Q101.85 1.05 102 1.15L102.15 1.45M104.35,2.7L104.05 2.75Q103.9 2.6 104 2.45L104.3 2.4L104.35 2.7M102.9,1.8L102.6 1.9Q102.45 1.8 102.55 1.6L102.8 1.5L102.9 1.8M103.65,2.2L103.35 2.3Q103.1 2.2 103.3 2Q103.4 1.8 103.55 1.9L103.65 2.2M105.05,3.2L104.75 3.25L104.7 2.95L105 2.9L105.05 3.2M87.05,2.15L86.9 2.4L86.65 2.25Q86.65 2 86.8 2L87.05 2.15M86.25,2.35L86.1 2.6Q85.85 2.7 85.85 2.45Q85.75 2.2 86 2.2Q86.15 2.15 86.25 2.35M85.4,2.45L85.2 2.65L85 2.45L85.2 2.25L85.4 2.45M88.75,1.75L88.55 2L88.3 1.85Q88.3 1.6 88.45 1.6L88.75 1.75M89.55,1.55L89.4 1.8Q89.15 1.95 89.15 1.65Q89.1 1.5 89.3 1.4L89.55 1.55M87.9,1.95L87.75 2.2L87.5 2.05Q87.4 1.8 87.65 1.8Q87.8 1.7 87.9 1.95M92.9,0.95L92.75 1.2L92.5 1L92.65 0.75L92.9 0.95M93.75,0.8L93.55 1.05L93.35 0.9Q93.25 0.65 93.5 0.65Q93.75 0.55 93.75 0.8M94.6,0.75L94.4 0.95L94.2 0.75Q94.1 0.55 94.35 0.55Q94.6 0.45 94.6 0.75M91.25,1.25L91.05 1.5L90.8 1.3Q90.8 1.1 91 1.05Q91.2 1.05 91.25 1.25M92.05,1.1L91.9 1.3L91.65 1.15Q91.65 0.9 91.8 0.9L92.05 1.1M90.4,1.4L90.25 1.65L90 1.5Q89.9 1.25 90.15 1.25L90.4 1.4M106.3,4.35L106 4.35L106 4.05L106.3 4.05L106.3 4.35M105.7,3.75L105.4 3.75L105.35 3.45L105.65 3.45L105.7 3.75M110.15,10.35L109.85 10.25Q109.8 10.1 109.9 10L109.7 9.8L109.9 9.6L110.1 9.8L110.05 9.95L110.25 10.05L110.15 10.35M108.4,7L108.1 6.95Q108 6.75 108.2 6.65L108.45 6.7L108.4 7M107.95,6.3L107.65 6.25Q107.45 6.05 107.7 5.95L108 6L107.95 6.3M108.85,7.7L108.55 7.65Q108.45 7.45 108.65 7.35Q108.85 7.25 108.95 7.45L108.85 7.7M106.85,4.95L106.55 4.95L106.6 4.65L106.9 4.65L106.85 4.95M107.4,5.6Q107.3 5.8 107.1 5.6Q107 5.4 107.15 5.3L107.45 5.3L107.4 5.6M109.3,8.45Q109.05 8.55 109 8.35Q108.9 8.15 109.05 8.1L109.35 8.15L109.3 8.45M109.65,9.2L109.35 9.1Q109.25 8.95 109.45 8.85L109.75 8.95L109.65 9.2M110.4,11.15Q110.15 11.3 110.15 11Q110.05 10.85 110.25 10.75L110.55 10.9L110.4 11.15M110.6,12L110.35 11.8L110.5 11.55L110.75 11.7Q110.85 11.95 110.6 12M110.8,13.65L110.6 13.45L110.8 13.25L111 13.45L110.8 13.65M110.75,12.8L110.5 12.65L110.7 12.4Q110.9 12.4 110.95 12.55L110.75 12.8M110.8,14.5L110.6 14.3L110.8 14.1L111 14.3L110.8 14.5M110.8,15.35L110.6 15.15L110.8 14.95L111 15.15L110.8 15.35M110.8,16.2L110.6 16L110.8 15.8L111 16L110.8 16.2M110.8,17.05L110.6 16.85L110.8 16.65L111 16.85L110.8 17.05M110.8,17.9L110.6 17.7L110.8 17.5L111 17.7L110.8 17.9M110.8,19.6L110.6 19.4L110.8 19.2L111 19.4L110.8 19.6M110.8,18.75L110.6 18.55L110.8 18.35L111 18.55L110.8 18.75M110.8,20.45L110.6 20.25L110.8 20.05L111 20.25L110.8 20.45M109.85,21.2L110.05 21L110.3 21.2L110.05 21.4L109.85 21.2M110.8,21.3L110.6 21.1L110.8 20.9L111 21.1L110.8 21.3M106.45,21.2L106.65 21L106.9 21.2L106.65 21.4L106.45 21.2M105.6,21.2L105.8 21L106.05 21.2L105.8 21.4L105.6 21.2M104.85,20.95L105.15 20.95L105.15 21.25L104.85 21.25L104.85 20.95M109,21.2L109.2 21Q109.45 21 109.45 21.2L109.2 21.4L109 21.2M107.3,21.2L107.5 21L107.75 21.2L107.5 21.4L107.3 21.2M108.15,21.2L108.35 21L108.6 21.2L108.35 21.4L108.15 21.2M101.85,19.95L102.05 19.75L102.3 19.95L102.05 20.2L101.85 19.95M101.4,20.4L101.2 20.15Q101.2 19.9 101.45 20L101.65 20.2L101.4 20.4M101.1,21.2Q100.9 21.1 101 20.9Q101.1 20.7 101.3 20.8L101.4 21.1L101.1 21.2M100.55,21.85L100.55 21.55L100.85 21.55L100.85 21.85L100.55 21.85M99.85,22.25Q99.75 22.05 99.95 22L100.2 22.1L100.1 22.35Q99.95 22.45 99.85 22.25M103.55,19.95L103.75 19.75L104 19.95L103.75 20.2L103.55 19.95M104.25,20.35L104.55 20.35L104.55 20.65L104.25 20.65L104.25 20.35M102.7,19.95L102.9 19.75L103.15 19.95L102.9 20.2L102.7 19.95M96.15,19.95L96.35 19.75L96.55 19.95L96.35 20.2L96.15 19.95M96.6,20.35L96.85 20.55L96.7 20.8L96.45 20.65L96.6 20.35M96.9,21.15L97.2 21.25Q97.35 21.4 97.1 21.5L96.85 21.45Q96.75 21.35 96.9 21.15M95.25,19.95Q95.25 19.75 95.5 19.75L95.7 19.95L95.5 20.2L95.25 19.95M97.4,21.85L97.7 21.8Q98 21.95 97.75 22.05L97.45 22.1L97.4 21.85M98.15,22.4L98.15 22.25Q98.25 22.1 98.4 22.1L98.55 22.35L98.3 22.5L98.15 22.4M99,22.4L99.2 22.2L99.4 22.4L99.2 22.6L99 22.4M91.85,19.95Q91.85 19.75 92.1 19.75L92.3 19.95L92.1 20.2L91.85 19.95M91,19.95Q91 19.75 91.25 19.75L91.45 19.95L91.25 20.2L91 19.95M89.9,20.65L89.75 20.4Q89.85 20.2 90 20.25Q90.25 20.25 90.15 20.5L89.9 20.65M90.15,19.95L90.4 19.75L90.6 19.95L90.4 20.2L90.15 19.95M94.4,19.95Q94.4 19.75 94.65 19.75L94.85 19.95L94.65 20.2L94.4 19.95M93.55,19.95L93.8 19.75L94 19.95L93.8 20.2L93.55 19.95M92.7,19.95L92.95 19.75L93.15 19.95L92.95 20.2L92.7 19.95M85.15,20.1L85.4 20.3L85.2 20.55L84.95 20.35L85.15 20.1M85.35,20.95L85.65 21.05L85.55 21.3L85.25 21.25Q85.15 21.05 85.35 20.95M85.8,21.65L86.1 21.65L86.15 21.95L85.85 21.95L85.8 21.65M86.5,22.15Q86.6 21.95 86.75 22.05L86.9 22.3L86.6 22.45Q86.4 22.35 86.5 22.15M89.55,21.4Q89.3 21.3 89.5 21.1L89.75 21.05L89.85 21.35L89.55 21.4M87.3,22.4L87.55 22.2L87.75 22.4L87.5 22.6L87.3 22.4M88.15,22.35Q88.05 22.15 88.3 22.05L88.55 22.2L88.45 22.5Q88.25 22.5 88.15 22.35M88.95,22Q88.8 21.85 88.95 21.7L89.25 21.75L89.25 22.05L88.95 22M57.35,0.2L57.1 0.4L56.9 0.2L57.1 0L57.35 0.2M58.2,0.2L57.95 0.4L57.75 0.2L57.95 0Q58.2 0 58.2 0.2M59.05,0.2L58.8 0.4L58.6 0.2L58.8 0L59.05 0.2M54.8,0.2L54.55 0.4L54.35 0.2L54.55 0L54.8 0.2M55.65,0.2L55.4 0.4L55.2 0.2L55.4 0Q55.65 0 55.65 0.2M56.5,0.2L56.25 0.4L56.05 0.2L56.25 0L56.5 0.2M62.45,0.2L62.2 0.4L62 0.2L62.2 0Q62.45 0 62.45 0.2M63.3,0.2L63.05 0.4L62.85 0.2L63.05 0L63.3 0.2M64.15,0.2L63.9 0.4L63.7 0.2L63.9 0L64.15 0.2M59.9,0.2L59.65 0.4L59.45 0.2L59.65 0L59.9 0.2M60.75,0.2L60.5 0.4L60.3 0.2L60.5 0L60.75 0.2M61.6,0.2L61.35 0.4L61.15 0.2L61.35 0L61.6 0.2M46.85,2.45L46.6 2.65L46.4 2.45L46.6 2.25L46.85 2.45M46,2.45L45.75 2.65L45.55 2.45L45.75 2.25L46 2.45M45.15,2.45L44.9 2.65L44.7 2.45L44.9 2.25L45.15 2.45M48.55,2.45L48.3 2.65L48.1 2.45L48.3 2.25L48.55 2.45M49.4,2.45L49.15 2.65L48.95 2.45L49.15 2.25Q49.4 2.25 49.4 2.45M47.7,2.45L47.45 2.65L47.25 2.45L47.45 2.25L47.7 2.45M53.9,1L54.1 1.2L53.9 1.45L53.7 1.2L53.9 1M53.9,0.15L54.1 0.35L53.9 0.6L53.7 0.35L53.9 0.15M51.95,2.45L51.7 2.65L51.5 2.45L51.7 2.25L51.95 2.45M51.1,2.45L50.85 2.65L50.65 2.45L50.85 2.25L51.1 2.45M50.25,2.45L50 2.65L49.8 2.45L50 2.25Q50.25 2.25 50.25 2.45M53.9,1.85L54.1 2.05L53.9 2.3L53.7 2.05L53.9 1.85M53.65,2.45L53.4 2.65L53.2 2.45L53.4 2.25Q53.65 2.25 53.65 2.45M52.8,2.45L52.55 2.65L52.35 2.45L52.55 2.25L52.8 2.45M78.3,0.2L78.1 0.4L77.9 0.2L78.1 0L78.3 0.2M77.4,0.15Q77.65 0.15 77.65 0.35L77.4 0.55L77.2 0.35L77.4 0.15M77.4,1Q77.65 1 77.65 1.2L77.4 1.4L77.2 1.2L77.4 1M78.8,1.4L78.55 1.2L78.8 1L79 1.2L78.8 1.4M78.8,0.55L78.55 0.35L78.8 0.15L79 0.35L78.8 0.55M77.15,2.45L76.95 2.65L76.75 2.45L76.95 2.25L77.15 2.45M76.3,2.45L76.1 2.65L75.9 2.45L76.1 2.25L76.3 2.45M75.45,2.45L75.25 2.65L75.05 2.45L75.25 2.25L75.45 2.45M78.8,2.25L78.55 2.05L78.8 1.85L79 2.05L78.8 2.25M79.45,2.45L79.25 2.65L79 2.45Q79 2.25 79.25 2.25L79.45 2.45M77.4,1.85Q77.65 1.85 77.65 2.05L77.4 2.25L77.2 2.05L77.4 1.85M82,2.45L81.8 2.65L81.6 2.45L81.8 2.25L82 2.45M81.15,2.45L80.95 2.65L80.75 2.45L80.95 2.25L81.15 2.45M80.3,2.45L80.1 2.65L79.9 2.45L80.1 2.25L80.3 2.45M84.55,2.45L84.35 2.65L84.15 2.45L84.35 2.25L84.55 2.45M83.7,2.45L83.5 2.65L83.3 2.45L83.5 2.25L83.7 2.45M82.85,2.45L82.65 2.65L82.45 2.45L82.65 2.25L82.85 2.45M67.55,0.2L67.3 0.4L67.1 0.2L67.3 0L67.55 0.2M68.4,0.2L68.15 0.4L67.95 0.2L68.15 0Q68.4 0 68.4 0.2M69.25,0.2L69 0.4L68.8 0.2L69 0Q69.25 0 69.25 0.2M65,0.2L64.75 0.4L64.55 0.2L64.75 0L65 0.2M65.85,0.2L65.6 0.4L65.4 0.2L65.6 0L65.85 0.2M66.7,0.2L66.45 0.4L66.25 0.2L66.45 0L66.7 0.2M70.1,0.2L69.85 0.4L69.65 0.2L69.85 0L70.1 0.2M70.65,1.3L70.45 1.1L70.65 0.9L70.85 1.1L70.65 1.3M70.65,0.45L70.45 0.25L70.65 0.05L70.85 0.25L70.65 0.45M72.05,2.45L71.85 2.65L71.65 2.45L71.85 2.25L72.05 2.45M71.2,2.45L71 2.65L70.8 2.45L71 2.25L71.2 2.45M70.65,2.15L70.45 1.95L70.65 1.75L70.85 1.95L70.65 2.15M74.6,2.45L74.4 2.65L74.2 2.45L74.4 2.25L74.6 2.45M73.75,2.45L73.55 2.65L73.35 2.45L73.55 2.25L73.75 2.45M72.9,2.45L72.7 2.65L72.5 2.45L72.7 2.25L72.9 2.45M16.5,2.45L16.3 2.65L16.05 2.45Q16.05 2.25 16.3 2.25L16.5 2.45M15.65,2.45L15.45 2.65L15.2 2.45Q15.2 2.25 15.45 2.25L15.65 2.45M14.8,2.45L14.6 2.65L14.35 2.45L14.6 2.25L14.8 2.45M18.2,2.45L18 2.65L17.75 2.45L18 2.25L18.2 2.45M19.05,2.45L18.85 2.65L18.6 2.45Q18.6 2.25 18.85 2.25L19.05 2.45M17.35,2.45L17.15 2.65L16.9 2.45L17.15 2.25L17.35 2.45M21.6,2.45L21.4 2.65L21.15 2.45L21.4 2.25L21.6 2.45M20.75,2.45L20.55 2.65L20.3 2.45L20.55 2.25L20.75 2.45M19.9,2.45L19.7 2.65L19.45 2.45Q19.45 2.25 19.7 2.25L19.9 2.45M23.3,2.45L23.1 2.65Q22.85 2.65 22.85 2.45Q22.85 2.25 23.1 2.25L23.3 2.45M22.45,2.45L22.25 2.65L22 2.45Q22 2.25 22.25 2.25L22.45 2.45M6.3,2.45L6.1 2.65Q5.85 2.65 5.85 2.45Q5.85 2.25 6.1 2.25L6.3 2.45M5.45,2.45L5.25 2.65L5 2.45Q5 2.25 5.25 2.25L5.45 2.45M4.6,2.45L4.4 2.65L4.15 2.45L4.4 2.25L4.6 2.45M8,2.45L7.8 2.65L7.55 2.45L7.8 2.25L8 2.45M8.85,2.45L8.65 2.65L8.4 2.45Q8.4 2.25 8.65 2.25L8.85 2.45M7.15,2.45L6.95 2.65L6.7 2.45L6.95 2.25L7.15 2.45M11.4,2.45L11.2 2.65L10.95 2.45L11.2 2.25L11.4 2.45M10.55,2.45L10.35 2.65L10.1 2.45L10.35 2.25L10.55 2.45M9.7,2.45L9.5 2.65L9.25 2.45Q9.25 2.25 9.5 2.25L9.7 2.45M13.95,2.45L13.75 2.65L13.5 2.45L13.75 2.25L13.95 2.45M13.1,2.45L12.9 2.65L12.65 2.45Q12.65 2.25 12.9 2.25L13.1 2.45M12.25,2.45L12.05 2.65L11.8 2.45Q11.8 2.25 12.05 2.25L12.25 2.45M36.05,2.45L35.85 2.65L35.65 2.45L35.85 2.25L36.05 2.45M34.35,2.45L34.15 2.65L33.95 2.45L34.15 2.25L34.35 2.45M35.2,2.45L35 2.65L34.8 2.45L35 2.25L35.2 2.45M38.6,2.45L38.4 2.65L38.2 2.45L38.4 2.25L38.6 2.45M36.9,2.45L36.7 2.65L36.5 2.45L36.7 2.25L36.9 2.45M37.75,2.45L37.55 2.65L37.35 2.45L37.55 2.25L37.75 2.45M40.6,0.2L40.4 0.4L40.15 0.2L40.4 0L40.6 0.2M39.75,0.2L39.55 0.4L39.3 0.2L39.55 0L39.75 0.2M39.35,0.65L39.6 0.9L39.35 1.1L39.15 0.9L39.35 0.65M40.75,0.9L40.5 0.7L40.75 0.5L40.95 0.7L40.75 0.9M40.75,1.75L40.5 1.55L40.75 1.35L40.95 1.55L40.75 1.75M40.75,2.6L40.5 2.4L40.75 2.2L40.95 2.4L40.75 2.6M41.75,2.45L41.5 2.65L41.3 2.45L41.5 2.25L41.75 2.45M39.45,2.45L39.25 2.65L39.05 2.45L39.25 2.25L39.45 2.45M39.35,1.5L39.6 1.75L39.35 1.95L39.15 1.75L39.35 1.5M44.3,2.45L44.05 2.65L43.85 2.45L44.05 2.25L44.3 2.45M43.45,2.45L43.2 2.65L43 2.45L43.2 2.25Q43.45 2.25 43.45 2.45M42.6,2.45L42.35 2.65L42.15 2.45L42.35 2.25L42.6 2.45M25.85,2.45L25.65 2.65L25.4 2.45Q25.4 2.25 25.65 2.25L25.85 2.45M24.15,2.45L23.95 2.65L23.7 2.45L23.95 2.25L24.15 2.45M25,2.45L24.8 2.65L24.55 2.45L24.8 2.25L25 2.45M28.4,2.45L28.2 2.65L27.95 2.45L28.2 2.25L28.4 2.45M26.7,2.45L26.5 2.65L26.25 2.45Q26.25 2.25 26.5 2.25L26.7 2.45M27.55,2.45L27.35 2.65L27.1 2.45L27.35 2.25L27.55 2.45M30.95,2.45L30.75 2.65L30.55 2.45L30.75 2.25L30.95 2.45M29.25,2.45L29.05 2.65L28.8 2.45Q28.8 2.25 29.05 2.25L29.25 2.45M30.1,2.45L29.9 2.65L29.7 2.45L29.9 2.25L30.1 2.45M33.5,2.45L33.3 2.65L33.1 2.45L33.3 2.25L33.5 2.45M31.8,2.45L31.6 2.65L31.4 2.45L31.6 2.25L31.8 2.45M32.65,2.45L32.45 2.65L32.25 2.45L32.45 2.25L32.65 2.45M41.4,21.2L41.6 21L41.8 21.2L41.6 21.4L41.4 21.2M40.55,21.2L40.75 21L40.95 21.2L40.75 21.4L40.55 21.2M39.7,21.2L39.9 21L40.1 21.2L39.9 21.4L39.7 21.2M43.55,19.95L43.75 19.75L43.95 19.95L43.75 20.2L43.55 19.95M43.5,20.75L43.25 20.55Q43.25 20.35 43.5 20.35L43.7 20.55L43.5 20.75M43.1,21.2L43.3 21L43.5 21.2L43.3 21.4L43.1 21.2M42.25,21.2L42.45 21L42.65 21.2L42.45 21.4L42.25 21.2M36.3,21.2L36.5 21L36.7 21.2L36.5 21.4L36.3 21.2M35.45,21.2L35.65 21L35.85 21.2L35.65 21.4L35.45 21.2M34.6,21.2L34.8 21L35 21.2L34.8 21.4L34.6 21.2M38.85,21.2L39.05 21L39.25 21.2L39.05 21.4L38.85 21.2M38,21.2L38.2 21L38.4 21.2L38.2 21.4L38 21.2M37.15,21.2L37.35 21L37.55 21.2L37.35 21.4L37.15 21.2M31.2,21.2L31.4 21L31.6 21.2L31.4 21.4L31.2 21.2M30.35,21.2L30.55 21L30.75 21.2L30.55 21.4L30.35 21.2M29.6,20.25L29.8 20.45L29.6 20.65L29.4 20.45L29.6 20.25M29,19.95L29.2 19.75Q29.45 19.75 29.45 19.95L29.2 20.2L29 19.95M29.5,21.2L29.7 21L29.9 21.2L29.7 21.4L29.5 21.2M33.75,21.2L33.95 21L34.15 21.2L33.95 21.4L33.75 21.2M32.9,21.2L33.1 21L33.3 21.2L33.1 21.4L32.9 21.2M32.05,21.2L32.25 21L32.45 21.2L32.25 21.4L32.05 21.2M25.85,20.2L25.6 20Q25.6 19.75 25.85 19.75L26.05 20L25.85 20.2M25.6,21Q25.4 20.9 25.5 20.75L25.6 20.6L25.75 20.6L25.9 20.9L25.6 21M24.4,22.2Q24.3 22 24.5 21.9Q24.7 21.8 24.8 22L24.7 22.25L24.4 22.2M25.1,21.7L25.1 21.4L25.4 21.4L25.4 21.7L25.1 21.7M28.15,19.95L28.35 19.75L28.6 19.95L28.35 20.2L28.15 19.95M27.3,19.95L27.5 19.75L27.75 19.95L27.5 20.2L27.3 19.95M26.45,19.95L26.65 19.75L26.9 19.95L26.65 20.2L26.45 19.95M20.9,20.7Q20.95 20.6 21.05 20.6Q21.2 20.5 21.3 20.7L21.2 21L20.9 20.85L20.9 20.7M20.75,19.95L20.95 19.75L21.15 19.95L20.95 20.2L20.75 19.95M19.9,19.95L20.1 19.75L20.3 19.95L20.1 20.2L19.9 19.95M19.05,19.95L19.25 19.75L19.45 19.95L19.25 20.2L19.05 19.95M21.4,21.35L21.7 21.4L21.65 21.7L21.35 21.65L21.4 21.35M22,21.95L22.3 21.9L22.35 22.15L22.05 22.25L22 21.95M23.6,22.4L23.75 22.15L24 22.35L23.85 22.6L23.6 22.4M22.75,22.3Q22.75 22.15 23 22.15L23.15 22.25L23.15 22.4L22.9 22.55L22.75 22.3M15.65,19.95L15.85 19.75L16.05 19.95L15.85 20.2L15.65 19.95M14.8,19.95L15 19.75L15.2 19.95L15 20.2L14.8 19.95M14.35,20.45Q14.1 20.45 14.2 20.2L14.4 20L14.6 20.25L14.35 20.45M14.05,21.25Q13.85 21.15 13.95 20.95Q14.05 20.75 14.25 20.85L14.35 21.15L14.05 21.25M18.2,19.95L18.4 19.75L18.6 19.95L18.4 20.2L18.2 19.95M17.35,19.95L17.55 19.75L17.75 19.95L17.55 20.2L17.35 19.95M16.5,19.95L16.7 19.75L16.9 19.95L16.7 20.2L16.5 19.95M9.55,20.35L9.8 20.5L9.65 20.75L9.4 20.6Q9.4 20.35 9.55 20.35M9.05,19.95L9.25 19.75L9.5 19.95L9.25 20.2L9.05 19.95M11.1,22.25Q11.1 22 11.35 22.1L11.5 22.35L11.25 22.5Q11 22.4 11.1 22.25M10.35,21.8L10.65 21.75L10.7 22.05L10.4 22.1L10.35 21.8M9.85,21.15L10.15 21.2L10.05 21.5L9.75 21.45Q9.65 21.25 9.85 21.15M11.9,22.4L12.1 22.2L12.35 22.4L12.15 22.6L11.9 22.4M13.5,21.9L13.5 21.6L13.8 21.6L13.8 21.9L13.5 21.9M12.75,22.3Q12.65 22.1 12.85 22L13.15 22.1L13.05 22.4L12.75 22.3M5.2,21.2L5.4 21L5.6 21.2L5.4 21.4L5.2 21.2M3.5,21.2L3.7 21L3.9 21.2L3.7 21.4L3.5 21.2M4.35,21.2L4.55 21L4.75 21.2L4.55 21.4L4.35 21.2M8.5,20.25L8.3 20.05L8.5 19.85L8.7 20.05L8.5 20.25M7.75,21.2L7.95 21L8.15 21.2L7.95 21.4L7.75 21.2M8.5,21.1L8.3 20.9L8.5 20.7L8.7 20.9L8.5 21.1M6.05,21.2L6.25 21L6.45 21.2L6.25 21.4L6.05 21.2M6.9,21.2L7.1 21L7.3 21.2L7.1 21.4L6.9 21.2M81.05,19.95L81.25 19.75L81.45 19.95L81.25 20.2L81.05 19.95M81.9,19.95L82.1 19.75L82.3 19.95L82.1 20.2L81.9 19.95M80.2,19.95L80.4 19.75L80.6 19.95L80.4 20.2L80.2 19.95M84.45,19.95L84.65 19.75L84.85 19.95L84.65 20.2L84.45 19.95M83.6,19.95L83.8 19.75L84 19.95L83.8 20.2L83.6 19.95M82.75,19.95L82.95 19.75L83.15 19.95L82.95 20.2L82.75 19.95M76.15,20.2L75.95 19.95L76.15 19.75L76.35 19.95L76.15 20.2M76.15,21.05L75.95 20.8L76.15 20.6L76.35 20.8L76.15 21.05M76.8,19.95L77 19.75L77.2 19.95L77 20.2L76.8 19.95M74.65,21.2L74.85 21L75.05 21.2L74.85 21.4L74.65 21.2M75.5,21.2L75.7 21L75.9 21.2L75.7 21.4L75.5 21.2M79.35,19.95L79.55 19.75L79.75 19.95L79.55 20.2L79.35 19.95M78.5,19.95L78.7 19.75L78.9 19.95L78.7 20.2L78.5 19.95M77.65,19.95L77.85 19.75L78.05 19.95L77.85 20.2L77.65 19.95M71.2,21.2Q71.2 21 71.45 21L71.65 21.2L71.45 21.4L71.2 21.2M70.35,21.2L70.6 21L70.8 21.2L70.6 21.4L70.35 21.2M69.5,21.2L69.75 21L69.95 21.2L69.75 21.4L69.5 21.2M73.8,21.2L74 21L74.2 21.2L74 21.4L73.8 21.2M72.1,21.2L72.3 21L72.5 21.2L72.3 21.4L72.1 21.2M72.95,21.2L73.15 21L73.35 21.2L73.15 21.4L72.95 21.2M66.1,21.2L66.35 21L66.55 21.2L66.35 21.4L66.1 21.2M65.25,21.2Q65.25 21 65.5 21L65.7 21.2L65.5 21.4L65.25 21.2M64.4,21.2Q64.4 21 64.65 21L64.85 21.2L64.65 21.4L64.4 21.2M68.65,21.2Q68.65 21 68.9 21L69.1 21.2L68.9 21.4L68.65 21.2M66.95,21.2L67.2 21L67.4 21.2L67.2 21.4L66.95 21.2M67.8,21.2Q67.8 21 68.05 21L68.25 21.2L68.05 21.4L67.8 21.2M61,21.2Q61 21 61.25 21L61.45 21.2L61.25 21.4L61 21.2M60.15,21.2L60.4 21L60.6 21.2L60.4 21.4L60.15 21.2M59.3,21.2L59.55 21L59.75 21.2L59.55 21.4L59.3 21.2M63.55,21.2L63.8 21L64 21.2L63.8 21.4L63.55 21.2M61.85,21.2Q61.85 21 62.1 21L62.3 21.2L62.1 21.4Q61.85 21.4 61.85 21.2M62.7,21.2L62.95 21L63.15 21.2L62.95 21.4L62.7 21.2M55.9,21.2L56.15 21L56.35 21.2L56.15 21.4L55.9 21.2M54.2,21.2Q54.2 21 54.45 21L54.65 21.2L54.45 21.4L54.2 21.2M55.05,21.2Q55.05 21 55.3 21L55.5 21.2L55.3 21.4L55.05 21.2M58.45,21.2Q58.45 21 58.7 21L58.9 21.2L58.7 21.4L58.45 21.2M56.75,21.2L57 21L57.2 21.2L57 21.4L56.75 21.2M57.6,21.2Q57.6 21 57.85 21L58.05 21.2L57.85 21.4L57.6 21.2M51.2,19.95L51.4 19.75Q51.65 19.75 51.65 19.95L51.4 20.2L51.2 19.95M49.5,19.95L49.7 19.75L49.95 19.95L49.7 20.2L49.5 19.95M50.35,19.95L50.55 19.75L50.8 19.95L50.55 20.2L50.35 19.95M54.15,20.4L54.35 20.65L54.15 20.85L53.95 20.65L54.15 20.4M53.75,19.95L53.95 19.75Q54.2 19.75 54.2 19.95L53.95 20.2L53.75 19.95M52.9,19.95L53.1 19.75L53.35 19.95L53.1 20.2L52.9 19.95M52.05,19.95L52.25 19.75L52.5 19.95L52.25 20.2L52.05 19.95M44.4,19.95L44.6 19.75L44.8 19.95L44.6 20.2L44.4 19.95M46.1,19.95L46.3 19.75L46.5 19.95L46.3 20.2L46.1 19.95M45.25,19.95L45.45 19.75L45.65 19.95L45.45 20.2L45.25 19.95M48.65,19.95L48.85 19.75L49.1 19.95L48.85 20.2L48.65 19.95M47.8,19.95L48 19.75L48.2 19.95L48 20.2L47.8 19.95M46.95,19.95L47.15 19.75L47.35 19.95L47.15 20.2L46.95 19.95M1.2,2.45L0.95 2.65L0.75 2.45L0.95 2.25Q1.2 2.25 1.2 2.45M0.25,2.35L0.45 2.55L0.25 2.75L0 2.55Q0 2.35 0.25 2.35M0.25,4.05L0.45 4.25L0.25 4.5L0 4.25Q0 4.05 0.25 4.05M0.25,3.2L0.45 3.4L0.25 3.65L0 3.4Q0 3.2 0.25 3.2M3.75,2.45L3.55 2.65L3.3 2.45L3.55 2.25L3.75 2.45M2.9,2.45L2.7 2.65L2.45 2.45Q2.45 2.25 2.7 2.25L2.9 2.45M2.05,2.45L1.8 2.65L1.6 2.45L1.8 2.25L2.05 2.45M0.25,4.9L0.45 5.1L0.25 5.35L0 5.1Q0 4.9 0.25 4.9M0.25,5.75L0.45 5.95L0.25 6.2L0 5.95Q0 5.75 0.25 5.75M0.25,6.6L0.45 6.8L0.25 7.05L0 6.8Q0 6.6 0.25 6.6M0.25,7.45L0.45 7.65L0.25 7.9L0 7.65Q0 7.45 0.25 7.45M0.25,8.3L0.45 8.5L0.25 8.75L0 8.5Q0 8.3 0.25 8.3M0.25,10L0.45 10.2L0.25 10.45L0 10.2Q0 10 0.25 10M0.25,9.15L0.45 9.35L0.25 9.6L0 9.35Q0 9.15 0.25 9.15M0.25,11.7L0.45 11.9L0.25 12.15L0 11.9Q0 11.7 0.25 11.7M0.25,10.85L0.45 11.05L0.25 11.3L0 11.05Q0 10.85 0.25 10.85M0.25,13.4L0.45 13.6L0.25 13.85L0 13.6Q0 13.4 0.25 13.4M0.25,12.55L0.45 12.75L0.25 13L0 12.75Q0 12.55 0.25 12.55M0.25,14.25L0.45 14.45L0.25 14.7L0 14.45Q0 14.25 0.25 14.25M0.25,15.95L0.45 16.15L0.25 16.4L0 16.15Q0 15.95 0.25 15.95M0.25,15.1L0.45 15.3L0.25 15.55L0 15.3Q0 15.1 0.25 15.1M0.25,16.8L0.45 17L0.25 17.25L0 17Q0 16.8 0.25 16.8M0.25,17.65L0.45 17.85L0.25 18.1L0 17.85Q0 17.65 0.25 17.65M0.25,19.35L0.45 19.55L0.25 19.8L0 19.55Q0 19.35 0.25 19.35M0.25,18.5L0.45 18.7L0.25 18.95L0 18.7Q0 18.5 0.25 18.5M0.25,20.2L0.45 20.4L0.25 20.65L0 20.4Q0 20.2 0.25 20.2M0.1,21.2L0.3 21L0.5 21.2L0.3 21.4L0.1 21.2M0.95,21.2L1.15 21L1.35 21.2L1.15 21.4L0.95 21.2M2.65,21.2L2.85 21L3.05 21.2L2.85 21.4L2.65 21.2M1.8,21.2L2 21L2.2 21.2L2 21.4L1.8 21.2" />
</g>
</svg>
