<?xml version="1.0" encoding="utf-8"?>
<svg version="1.1" id="Layer_1"
xmlns="http://www.w3.org/2000/svg"
xmlns:xlink="http://www.w3.org/1999/xlink"
xmlns:author="http://www.sothink.com"
width="35px" height="6px"
xml:space="preserve">
<g id="170" transform="matrix(1, 0, 0, 1, 0, 0)">
<path style="fill:#FF0000;fill-opacity:1" d="M34.3,5.2L33.65 5.2L33.75 4.4Q33.75 2.85 32.65 1.7Q31.55 0.6 29.95 0.6Q28.4 0.6 27.25 1.7Q26.15 2.85 26.15 4.4L26.25 5.2L25.6 5.2L25.5 4.4Q25.5 2.6 26.8 1.3Q28.1 0 29.95 0Q31.75 0 33.05 1.3Q34.35 2.6 34.35 4.4L34.3 5.2M8.75,5.2L8.15 5.2L8.2 4.4Q8.2 2.85 7.1 1.7Q6 0.6 4.4 0.6Q2.85 0.6 1.7 1.7Q0.6 2.85 0.6 4.4L0.65 5.05L0 4.95L0 4.4Q0 2.6 1.3 1.3Q2.6 0 4.4 0Q6.25 0 7.55 1.3Q8.85 2.6 8.85 4.4L8.75 5.2" />
</g>
</svg>
