<?xml version="1.0" encoding="utf-8"?>
<svg version="1.1" id="Layer_1"
xmlns="http://www.w3.org/2000/svg"
xmlns:xlink="http://www.w3.org/1999/xlink"
xmlns:author="http://www.sothink.com"
width="110px" height="48px"
xml:space="preserve">
<g id="172" transform="matrix(1, 0, 0, 1, -931.05, -144.8)">
<path style="fill:#9F9FA0;fill-opacity:1" d="M940.65,184.65L938.35 184.25L938.75 184.25L938.75 183.85L938.65 183.6L940.4 183.85L940.65 184.65M962.25,185.1L960.5 185.1L960.75 184.25L962.35 184.25L962.35 184.55L962.25 185.1M1010,185.1L1008.25 185.1L1008.1 184.55L1008.1 184.25L1009.85 184.25L1010 185.1M1031.55,185.1L1029.8 185.1L1029.95 184.25L1031.7 184.25L1031.7 184.55L1031.55 185.1" />
<path style="fill:#92C6EB;fill-opacity:1" d="M1040.1,184.25L1032.5 184.25L1032.65 182.1Q1032.65 176.8 1029 173.15Q1025.2 169.35 1019.9 169.35Q1014.6 169.35 1010.95 173.15Q1007.15 176.8 1007.15 182.1L1007.3 184.25L963.2 184.25L963.45 182.1Q963.45 176.8 959.65 173.15Q955.85 169.35 950.55 169.35Q945.3 169.35 941.6 173.15Q937.8 176.8 937.8 182.1L937.95 183.45L935.25 182.9Q933.9 182.8 933.35 182.25Q932.65 181.85 932.25 179.5Q932 178.15 932 174.65L932.1 170.7Q932.5 166.1 932.95 163.5Q933.6 159.15 935.5 156.05L939.45 149.95Q941.6 147.65 945 146.7L967.55 145.75L967.65 145.75Q980.4 145.75 987.05 146.3Q997.5 146.95 1014.05 157.4L1017.05 159.3L1020.45 160.95Q1024.1 162.7 1026 162.95Q1034.4 164.45 1036.75 167.15Q1040.1 170.85 1040.1 176.55L1040.1 184.25M1018,162.3L1016.5 161.45L1016.1 161.2L1015.95 161.2L1015.85 161.05L1015.3 160.65L1013.1 159.3L1005.8 155.1Q994.25 148.7 986.95 148.45L972.15 147.9L971.75 147.9L971.75 162.3L1018 162.3M945.4,148.85Q943.1 149.4 941.5 150.9Q940.65 151.85 938.35 155.5L937.25 157.25Q936.3 158.9 935.5 161.75L935.35 162.3L968.05 162.3L968.05 147.9L967.65 147.9L945.4 148.85" />
<path style="fill:#9F9FA0;fill-opacity:1" d="M1040.95,185.1L1031.55 185.1L1031.7 184.55L1031.85 182.1Q1031.85 177.2 1028.3 173.7Q1024.8 170.15 1019.9 170.15Q1014.9 170.15 1011.35 173.7Q1007.85 177.2 1007.85 182.1L1008.1 184.25L1008.1 184.55L1008.25 185.1L962.25 185.1L962.35 184.55L962.35 184.25L962.65 182.1Q962.65 177.2 959.1 173.7Q955.6 170.15 950.55 170.15Q945.7 170.15 942.15 173.7Q938.65 177.2 938.65 182.1L938.65 183.6L938.75 183.85L938.75 184.25L938.35 184.25L935.1 183.75L932.8 182.8Q932 182.25 931.55 179.65Q931.15 177.5 931.15 174.65Q931.15 171.8 931.45 170.55L932.1 163.35Q932.8 159.05 934.85 155.75L938.75 149.55Q941.2 146.7 944.85 146L967.65 144.9Q976.9 144.9 987.2 145.45Q994.8 146 1006.6 152.25Q1012.6 155.35 1017.45 158.6L1020.7 160.25Q1024.4 161.9 1026.15 162.3Q1034.85 163.9 1037.25 166.65Q1040.95 170.7 1040.95 176.55L1040.95 185.1M1040.1,176.55Q1040.1 170.85 1036.75 167.15Q1034.4 164.45 1026 162.95Q1024.1 162.7 1020.45 160.95L1017.05 159.3L1014.05 157.4Q997.5 146.95 987.05 146.3Q980.4 145.75 967.65 145.75L967.55 145.75L945 146.7Q941.6 147.65 939.45 149.95L935.5 156.05Q933.6 159.15 932.95 163.5Q932.5 166.1 932.1 170.7L932 174.65Q932 178.15 932.25 179.5Q932.65 181.85 933.35 182.25Q933.9 182.8 935.25 182.9L937.95 183.45L937.8 182.1Q937.8 176.8 941.6 173.15Q945.3 169.35 950.55 169.35Q955.85 169.35 959.65 173.15Q963.45 176.8 963.45 182.1L963.2 184.25L1007.3 184.25L1007.15 182.1Q1007.15 176.8 1010.95 173.15Q1014.6 169.35 1019.9 169.35Q1025.2 169.35 1029 173.15Q1032.65 176.8 1032.65 182.1L1032.5 184.25L1040.1 184.25L1040.1 176.55" />
<path style="fill:#B8C3C8;fill-opacity:1" d="M950.55,191.6Q946.65 191.6 943.9 188.9Q941.05 186.05 941.05 182.1Q941.05 178.15 943.9 175.3Q946.65 172.6 950.55 172.6Q954.5 172.6 957.35 175.3Q960.2 178.15 960.2 182.1Q960.2 186.05 957.35 188.9Q954.5 191.6 950.55 191.6M950.55,175.7Q948 175.7 946.25 177.6Q944.35 179.5 944.35 182.1Q944.35 184.65 946.25 186.55Q948 188.45 950.55 188.45Q953.3 188.45 955.05 186.55Q956.95 184.8 956.95 182.1Q956.95 179.5 955.05 177.6Q953.3 175.7 950.55 175.7" />
<path style="fill:#9F9FA0;fill-opacity:1" d="M960.2,182.1Q960.2 178.15 957.35 175.3Q954.5 172.6 950.55 172.6Q946.65 172.6 943.9 175.3Q941.05 178.15 941.05 182.1Q941.05 186.05 943.9 188.9Q946.65 191.6 950.55 191.6Q954.5 191.6 957.35 188.9Q960.2 186.05 960.2 182.1M950.7,192.4L950.45 192.4Q946.9 192.4 944.2 190.25Q941.5 188.05 940.65 184.65L940.4 183.85L940.25 182.1Q940.25 177.9 943.25 174.75Q946.35 171.8 950.55 171.8Q954.9 171.8 957.9 174.75Q960.9 177.9 960.9 182.1L960.75 184.25L960.5 185.1Q959.55 188.35 956.8 190.35Q954.1 192.4 950.7 192.4" />
<path style="fill:#CAD5DB;fill-opacity:1" d="M950.55,187.65Q948.25 187.65 946.65 186.05Q945 184.4 945 182.1Q945 179.95 946.65 178.15Q948.4 176.55 950.55 176.55Q952.9 176.55 954.5 178.15Q956.15 179.8 956.15 182.1Q956.15 184.4 954.5 186.05Q952.9 187.65 950.55 187.65" />
<path style="fill:#9F9FA0;fill-opacity:1" d="M956.15,182.1Q956.15 179.8 954.5 178.15Q952.9 176.55 950.55 176.55Q948.4 176.55 946.65 178.15Q945 179.95 945 182.1Q945 184.4 946.65 186.05Q948.25 187.65 950.55 187.65Q952.9 187.65 954.5 186.05Q956.15 184.4 956.15 182.1M950.55,188.45Q948 188.45 946.25 186.55Q944.35 184.65 944.35 182.1Q944.35 179.5 946.25 177.6Q948 175.7 950.55 175.7Q953.3 175.7 955.05 177.6Q956.95 179.5 956.95 182.1Q956.95 184.8 955.05 186.55Q953.3 188.45 950.55 188.45" />
<path style="fill:#B8C3C8;fill-opacity:1" d="M1019.9,191.6Q1015.95 191.6 1013.1 188.9Q1010.4 186.05 1010.4 182.1Q1010.4 178.15 1013.1 175.3Q1015.95 172.6 1019.9 172.6Q1023.85 172.6 1026.7 175.3Q1029.4 178.15 1029.4 182.1Q1029.4 186.05 1026.7 188.9Q1023.85 191.6 1019.9 191.6M1019.9,175.7Q1017.35 175.7 1015.45 177.6Q1013.55 179.5 1013.55 182.1Q1013.55 184.8 1015.45 186.55Q1017.35 188.45 1019.9 188.45Q1022.6 188.45 1024.4 186.55Q1026.3 184.8 1026.3 182.1Q1026.3 179.5 1024.4 177.6Q1022.6 175.7 1019.9 175.7" />
<path style="fill:#9F9FA0;fill-opacity:1" d="M1029.4,182.1Q1029.4 178.15 1026.7 175.3Q1023.85 172.6 1019.9 172.6Q1015.95 172.6 1013.1 175.3Q1010.4 178.15 1010.4 182.1Q1010.4 186.05 1013.1 188.9Q1015.95 191.6 1019.9 191.6Q1023.85 191.6 1026.7 188.9Q1029.4 186.05 1029.4 182.1M1020.05,192.4L1019.75 192.4Q1016.4 192.4 1013.65 190.35Q1010.95 188.35 1010 185.1L1009.85 184.25Q1009.6 183.6 1009.6 182.1Q1009.6 177.9 1012.6 174.75Q1015.7 171.8 1019.9 171.8Q1024.25 171.8 1027.25 174.75Q1030.2 177.9 1030.2 182.1L1029.8 185.1Q1028.85 188.35 1026.15 190.35Q1023.45 192.4 1020.05 192.4" />
<path style="fill:#CAD5DB;fill-opacity:1" d="M1019.9,187.65Q1017.6 187.65 1015.95 186.05Q1014.35 184.4 1014.35 182.1Q1014.35 179.8 1015.95 178.15Q1017.6 176.55 1019.9 176.55Q1022.2 176.55 1023.85 178.15Q1025.45 179.8 1025.45 182.1Q1025.45 184.4 1023.85 186.05Q1022.2 187.65 1019.9 187.65" />
<path style="fill:#9F9FA0;fill-opacity:1" d="M1025.45,182.1Q1025.45 179.8 1023.85 178.15Q1022.2 176.55 1019.9 176.55Q1017.6 176.55 1015.95 178.15Q1014.35 179.8 1014.35 182.1Q1014.35 184.4 1015.95 186.05Q1017.6 187.65 1019.9 187.65Q1022.2 187.65 1023.85 186.05Q1025.45 184.4 1025.45 182.1M1019.9,188.45Q1017.35 188.45 1015.45 186.55Q1013.55 184.8 1013.55 182.1Q1013.55 179.5 1015.45 177.6Q1017.35 175.7 1019.9 175.7Q1022.6 175.7 1024.4 177.6Q1026.3 179.5 1026.3 182.1Q1026.3 184.8 1024.4 186.55Q1022.6 188.45 1019.9 188.45" />
<path style="fill:#E3EFF6;fill-opacity:1" d="M1015,161.45L972.55 161.45L972.55 148.7L986.95 149.15Q997.5 149.8 1015 161.45" />
<path style="fill:#9F9FA0;fill-opacity:1" d="M972.55,148.7L972.55 161.45L1015 161.45Q997.5 149.8 986.95 149.15L972.55 148.7M1018,162.3L971.75 162.3L971.75 147.9L972.15 147.9L986.95 148.45Q994.25 148.7 1005.8 155.1L1013.1 159.3L1015.3 160.65L1015.85 161.05L1015.95 161.2L1016.1 161.2L1016.5 161.45L1018 162.3" />
<path style="fill:#E3EFF6;fill-opacity:1" d="M967.4,161.45L936.3 161.45Q936.85 159.55 937.95 157.65L939.05 155.9Q940.55 153.2 942 151.45Q943.4 150.1 945.7 149.65L967.4 148.7L967.4 161.45" />
<path style="fill:#9F9FA0;fill-opacity:1" d="M968.05,162.3L935.35 162.3L935.5 161.75Q936.3 158.9 937.25 157.25L938.35 155.5Q940.65 151.85 941.5 150.9Q943.1 149.4 945.4 148.85L967.65 147.9L968.05 147.9L968.05 162.3M945.7,149.65Q943.4 150.1 942 151.45Q940.55 153.2 939.05 155.9L937.95 157.65Q936.85 159.55 936.3 161.45L967.4 161.45L967.4 148.7L945.7 149.65" />
<path style="fill:#000000;fill-opacity:1" d="M983.95,146.3Q983.4 146.3 983.4 145.6Q983.7 145.05 984.1 145.05Q984.65 145.05 984.65 145.75Q984.65 146.3 983.95 146.3M981.8,146.15Q981.1 146.15 981.1 145.6Q981.35 144.9 981.8 145.05Q982.3 145.05 982.3 145.6Q982.3 146.15 981.8 146.15M986.25,146.4Q985.7 146.15 985.7 145.75Q986 145.2 986.4 145.2Q986.95 145.2 986.95 145.85Q986.95 146.4 986.25 146.4M988.55,146.55Q988 146.55 988 145.85Q988.3 145.35 988.7 145.45Q989.25 145.45 989.25 146Q989.1 146.55 988.55 146.55M990.75,146.95Q990.3 146.8 990.3 146.3Q990.6 145.75 991 145.85Q991.7 145.85 991.4 146.55Q991.4 146.95 990.75 146.95M993.05,147.5Q992.35 147.25 992.65 146.8Q992.65 146.15 993.3 146.4Q993.6 146.4 993.7 146.7L993.7 147.1Q993.45 147.65 993.05 147.5M995.2,148.2Q994.65 147.9 994.8 147.5Q995.05 146.8 995.5 147.1Q996.15 147.35 995.9 147.75Q995.6 148.3 995.2 148.2M942.85,147.65Q942.45 147.9 942.15 147.25Q941.9 146.8 942.45 146.55Q942.95 146.3 943.25 146.8Q943.5 147.35 942.85 147.65M945,146.95Q944.35 146.95 944.35 146.55Q944.2 146 944.75 145.75Q945.4 145.75 945.4 146.3Q945.55 146.7 945 146.95M949.5,146.4Q949.1 146.4 948.8 145.85Q948.8 145.45 949.35 145.2Q950.05 145.2 950.05 145.75Q950.05 146.4 949.5 146.4M947.2,146.55Q946.65 146.8 946.65 146.15Q946.35 145.45 947.05 145.45Q947.7 145.45 947.7 146Q947.7 146.55 947.2 146.55M951.8,146.3Q951.4 146.3 951.1 145.75Q951.1 145.35 951.65 145.05Q952.35 145.05 952.35 145.6Q952.35 146.3 951.8 146.3M954.1,146.15Q953.7 146.15 953.4 145.6Q953.4 145.05 953.95 145.05Q954.65 145.05 954.65 145.6Q954.65 146.15 954.1 146.15M956.4,146.15Q955.75 146.15 955.75 145.45Q955.75 144.9 956.4 144.9Q956.95 144.9 956.95 145.45L956.4 146.15M958.7,146Q958.05 146 958.05 145.45Q958.05 144.9 958.7 144.9Q959.25 144.9 959.25 145.45Q959.25 146 958.7 146M961,146Q960.35 146 960.35 145.45Q960.35 144.8 961 144.8Q961.55 144.8 961.55 145.35Q961.55 146 961 146M963.3,146Q962.65 146 962.65 145.35Q962.65 144.8 963.3 144.8Q963.85 144.8 963.85 145.35Q963.85 146 963.3 146M965.65,145.85Q964.95 145.85 964.95 145.35Q964.95 144.8 965.65 144.8Q966.15 144.8 966.15 145.35Q966.15 145.85 965.65 145.85M970.25,145.85Q969.55 145.85 969.55 145.35Q969.55 144.8 970.25 144.8Q970.8 144.8 970.8 145.35Q970.8 145.85 970.25 145.85M967.95,145.85Q967.25 145.85 967.25 145.35Q967.25 144.8 967.95 144.8Q968.5 144.8 968.5 145.35Q968.5 145.85 967.95 145.85M972.55,146Q971.85 146 971.85 145.35Q971.85 144.8 972.55 144.8Q973.1 144.8 973.1 145.35Q973.1 146 972.55 146M974.85,146Q974.2 146 974.2 145.35Q974.2 144.8 974.85 144.8Q975.4 144.8 975.4 145.45Q975.4 146 974.85 146M977.15,146Q976.5 146 976.5 145.45Q976.5 144.9 977.15 144.9Q977.7 144.9 977.7 145.45Q977.7 146 977.15 146M979.45,146.15Q978.8 145.85 978.8 145.45Q978.8 144.9 979.45 144.9Q980 144.9 980 145.45Q980 146.15 979.45 146.15M941.05,148.7L940.25 148.6Q939.7 148.05 940.4 147.75Q940.65 147.35 941.2 147.9Q941.5 148.3 941.05 148.7M939.45,150.2L938.65 150.2L938.65 149.4L939.45 149.4L939.45 150.2M938.1,152Q937.8 152.5 937.4 152.1Q936.85 151.85 937.15 151.3Q937.55 150.9 937.95 151.15Q938.65 151.45 938.1 152M935.8,155.9Q935.5 156.45 934.95 156.2Q934.55 155.75 934.85 155.35Q935.1 154.8 935.65 155.1Q936.05 155.35 935.8 155.9M937,153.9Q936.6 154.3 936.2 154.15Q935.65 153.9 935.9 153.35Q936.45 152.95 936.75 153.2Q937.25 153.45 937 153.9M933.9,160Q933.9 160.4 933.2 160.4Q932.65 160.1 932.8 159.55Q933.05 159.05 933.45 159.3Q934.3 159.3 933.9 160M932.95,164.3Q932.95 164.85 932.25 164.85Q931.55 164.85 931.85 164.2Q931.85 163.5 932.5 163.8Q933.2 163.8 932.95 164.3M933.35,162.15L933.05 162.55L932.65 162.55Q932 162.55 932.25 161.9Q932.25 161.2 932.95 161.45L933.35 161.75L933.35 162.15M934.7,157.95Q934.4 158.5 934 158.2Q933.35 157.95 933.6 157.4Q933.9 156.85 934.4 157.15Q934.85 157.4 934.7 157.95M932.65,166.65Q932.65 167.15 932.1 167.15Q931.55 167.15 931.55 166.5Q931.55 165.8 932.25 166.1Q932.95 166.1 932.65 166.65M932.25,171.25Q932.25 171.8 931.55 171.8Q930.9 171.8 931.15 171.1Q931.15 170.55 931.7 170.55Q932.25 170.7 932.25 171.25M932.5,168.95Q932.5 169.5 931.85 169.5Q931.3 169.5 931.3 168.8Q931.55 168.25 932 168.25Q932.5 168.55 932.5 168.95M932.1,173.55Q932.1 174.1 931.55 174.1Q931.05 174.1 931.05 173.4Q931.05 172.85 931.55 172.85Q932.1 172.85 932.1 173.55M932.1,175.7Q932.1 176.4 931.55 176.4Q931.05 176.4 931.05 175.85Q931.05 175.2 931.55 175.2Q932.1 175.2 932.1 175.7M932.65,180.2Q932.65 180.9 932.25 180.9Q931.55 181.15 931.55 180.45Q931.3 180.05 932 179.8Q932.5 179.8 932.65 180.2M932.25,178.05Q932.25 178.7 931.7 178.7Q931.15 178.7 931.15 178.15Q931.15 177.6 931.7 177.5Q932.25 177.5 932.25 178.05M941.75,185.1Q941.9 185.6 941.5 185.9Q940.95 185.9 940.65 185.5L940.65 185.1L941.05 184.8Q941.75 184.55 941.75 185.1M942.7,187.1Q942.95 187.5 942.55 187.95Q942 188.2 941.75 187.65Q941.5 187.25 941.9 186.85Q942.45 186.55 942.7 187.1M944.05,188.75L944.05 189.55L943.25 189.55L943.25 188.75L944.05 188.75M945.8,190.1Q946.25 190.35 945.95 190.9Q945.7 191.6 945.15 191.05Q944.75 190.8 945 190.25Q945.3 189.85 945.8 190.1M952.05,191.3Q952.6 191.3 952.75 191.85L952.2 192.55Q951.8 192.55 951.5 192Q951.5 191.6 952.05 191.3M949.9,191.45Q950.45 191.45 950.45 192Q950.45 192.55 949.75 192.55Q949.2 192.55 949.2 192Q949.2 191.45 949.9 191.45M947.7,191.05Q948 191.05 948.15 191.3L948.15 191.75Q947.85 192.25 947.45 192.15Q946.9 192 947.05 191.3Q947.3 190.8 947.7 191.05M937.55,183.2Q937.95 183.2 937.95 183.85Q937.95 184.55 937.25 184.25Q936.6 184.25 936.85 183.6Q936.85 182.9 937.55 183.2M939.7,183.6Q940.25 183.6 940.25 184.25Q940 184.8 939.6 184.65Q939.05 184.65 939.05 184Q939.3 183.45 939.7 183.6M935.25,182.8L935.65 183.05L935.65 183.45L935.35 183.85L934.95 183.85Q934.55 183.75 934.55 183.2Q934.85 182.65 935.25 182.8M933.35,182.1L933.45 182.9L932.65 182.9L932.5 182.1L933.35 182.1M978.65,184.15Q979.2 184.15 979.2 184.65Q979.2 185.2 978.65 185.2Q978.1 185.2 978.1 184.65Q978.1 184.15 978.65 184.15M980.95,184.15Q981.5 184.15 981.5 184.65Q981.5 185.2 980.95 185.2Q980.4 185.2 980.4 184.65Q980.4 184.15 980.95 184.15M976.35,184.15Q976.9 184.15 976.9 184.65Q976.9 185.2 976.35 185.2Q975.8 185.2 975.8 184.65Q975.8 184.15 976.35 184.15M974.05,184.15Q974.6 184.15 974.6 184.65Q974.6 185.2 974.05 185.2Q973.5 185.2 973.5 184.65Q973.5 184.15 974.05 184.15M971.75,184.15Q972.3 184.15 972.3 184.65Q972.3 185.2 971.75 185.2Q971.2 185.2 971.2 184.65Q971.2 184.15 971.75 184.15M969.45,184.15Q969.95 184.15 969.95 184.65Q969.95 185.2 969.45 185.2Q968.9 185.2 968.9 184.65Q968.9 184.15 969.45 184.15M964.8,184.15Q965.35 184.15 965.35 184.65Q965.35 185.2 964.8 185.2Q964.25 185.2 964.25 184.65Q964.25 184.15 964.8 184.15M967.1,184.15Q967.65 184.15 967.65 184.65Q967.65 185.2 967.1 185.2Q966.6 185.2 966.6 184.65Q966.6 184.15 967.1 184.15M962.5,184.15Q963.05 184.15 963.05 184.65Q963.05 185.2 962.5 185.2Q961.95 185.2 961.95 184.65Q961.95 184.15 962.5 184.15M960.2,184.15Q960.75 184.15 960.75 184.65Q960.75 185.2 960.2 185.2Q959.65 185.2 959.65 184.65Q959.65 184.15 960.2 184.15M958.85,186.45Q959.1 185.9 959.65 186.15Q960.2 186.7 959.8 187Q959.55 187.5 959.1 187.25Q958.6 187 958.85 186.45M957.65,188.2L958.45 188.2L958.45 189L957.65 189L957.65 188.2M954.1,190.8Q954.65 190.5 954.9 191.05Q955.2 191.6 954.5 191.85Q954.1 192.15 953.85 191.45Q953.55 191.05 954.1 190.8M956,189.7Q956.55 189.4 956.8 189.85Q957.1 190.35 956.7 190.65Q956.25 190.9 955.85 190.5Q955.6 190.1 956 189.7M1023.95,162.7Q1023.55 162.4 1023.7 161.9Q1023.7 161.35 1024.4 161.6Q1024.8 161.6 1024.8 162.3Q1024.65 162.7 1023.95 162.7M1028.6,163.65Q1027.9 163.65 1028.2 162.95Q1028.2 162.55 1028.85 162.55Q1029.25 162.85 1029.25 163.25Q1029 163.9 1028.6 163.65M1026.3,163.25Q1025.85 163.25 1025.85 162.55L1026.15 162.15Q1026.4 162 1026.55 162.15Q1027.25 162.15 1026.95 162.85Q1026.95 163.5 1026.3 163.25M1032.95,165Q1032.5 164.85 1032.5 164.3Q1032.8 163.65 1033.35 163.9Q1033.9 164.2 1033.6 164.75Q1033.35 165.25 1032.95 165M1030.75,164.3Q1030.35 164.2 1030.35 163.5Q1030.6 162.95 1031.05 163.25Q1031.85 163.25 1031.45 163.9Q1031.45 164.3 1030.75 164.3M1011.65,156.2Q1011.2 155.75 1011.5 155.35Q1011.75 154.8 1012.3 155.1Q1012.7 155.35 1012.45 155.9Q1012.15 156.45 1011.65 156.2M1009.75,154.95Q1009.2 154.7 1009.45 154.15Q1009.75 153.45 1010.25 154Q1010.8 154.3 1010.55 154.7Q1010.15 155.1 1009.75 154.95M1015.55,158.5Q1015.15 158.35 1015.45 157.8Q1015.7 157.25 1016.25 157.55Q1016.65 157.95 1016.4 158.35Q1016.1 159.05 1015.55 158.5M1013.65,157.25Q1013.1 157 1013.55 156.6Q1013.8 156.05 1014.2 156.3Q1014.75 156.6 1014.5 157.15Q1014.05 157.65 1013.65 157.25M1019.65,160.8Q1019.1 160.5 1019.35 160.1Q1019.65 159.55 1020.15 159.85Q1020.7 160.1 1020.45 160.5Q1020.15 160.95 1019.65 160.8M1017.6,159.85Q1017.05 159.55 1017.35 159.05Q1017.6 158.5 1018.15 158.75Q1018.7 159.05 1018.4 159.55Q1018.15 160.1 1017.6 159.85M1021.8,161.75Q1021.25 161.45 1021.55 161.05Q1021.8 160.5 1022.2 160.8Q1022.9 161.05 1022.6 161.45Q1022.35 162 1021.8 161.75M1034.95,165.95Q1034.4 165.7 1034.7 165.15Q1034.95 164.75 1035.5 165Q1036.2 165.25 1035.65 165.8Q1035.5 166.2 1034.95 165.95M1001.6,150.75Q1001.05 150.5 1001.3 149.95Q1001.6 149.4 1002 149.65Q1002.55 149.95 1002.25 150.5Q1002 151.05 1001.6 150.75M1003.6,151.7Q1003.1 151.45 1003.35 150.9Q1003.6 150.35 1004.15 150.6Q1004.7 150.9 1004.45 151.45Q1004.15 152 1003.6 151.7M1007.7,153.9Q1007.15 153.6 1007.4 153.05Q1007.7 152.5 1008.25 152.8Q1008.8 153.05 1008.5 153.6Q1008.25 154.15 1007.7 153.9M1005.65,152.8Q1005.1 152.5 1005.4 152Q1005.65 151.45 1006.2 151.7Q1006.75 152 1006.45 152.5Q1006.2 153.05 1005.65 152.8M999.4,149.8Q999 149.55 999.15 149Q999.4 148.6 999.95 148.7Q1000.5 149 1000.25 149.55Q999.95 150.1 999.4 149.8M997.4,149Q996.7 148.7 996.95 148.2Q997.25 147.75 997.8 147.9Q998.35 148.2 998.05 148.6L997.4 149M1008.65,184.15Q1009.2 184.15 1009.2 184.65Q1009.2 185.2 1008.65 185.2Q1008.1 185.2 1008.1 184.65Q1008.1 184.15 1008.65 184.15M1006.35,184.15Q1006.9 184.15 1006.9 184.65Q1006.9 185.2 1006.35 185.2Q1005.8 185.2 1005.8 184.65Q1005.8 184.15 1006.35 184.15M1004.05,184.15Q1004.55 184.15 1004.55 184.65Q1004.55 185.2 1004.05 185.2Q1003.5 185.2 1003.5 184.65Q1003.5 184.15 1004.05 184.15M1001.7,184.15Q1002.25 184.15 1002.25 184.65Q1002.25 185.2 1001.7 185.2Q1001.2 185.2 1001.2 184.65Q1001.2 184.15 1001.7 184.15M999.4,184.15Q999.95 184.15 999.95 184.65Q999.95 185.2 999.4 185.2Q998.85 185.2 998.85 184.65Q998.85 184.15 999.4 184.15M997.1,184.15Q997.65 184.15 997.65 184.65Q997.65 185.2 997.1 185.2Q996.55 185.2 996.55 184.65Q996.55 184.15 997.1 184.15M992.5,184.15Q993.05 184.15 993.05 184.65Q993.05 185.2 992.5 185.2Q991.95 185.2 991.95 184.65Q991.95 184.15 992.5 184.15M994.8,184.15Q995.35 184.15 995.35 184.65Q995.35 185.2 994.8 185.2Q994.25 185.2 994.25 184.65Q994.25 184.15 994.8 184.15M990.2,184.15Q990.75 184.15 990.75 184.65Q990.75 185.2 990.2 185.2Q989.65 185.2 989.65 184.65Q989.65 184.15 990.2 184.15M987.9,184.15Q988.45 184.15 988.45 184.65Q988.45 185.2 987.9 185.2Q987.35 185.2 987.35 184.65Q987.35 184.15 987.9 184.15M985.6,184.15Q986.1 184.15 986.1 184.65Q986.1 185.2 985.6 185.2Q985.05 185.2 985.05 184.65Q985.05 184.15 985.6 184.15M983.25,184.15Q983.8 184.15 983.8 184.65Q983.8 185.2 983.25 185.2Q982.75 185.2 982.75 184.65Q982.75 184.15 983.25 184.15M1034.15,184.15Q1034.7 184.15 1034.7 184.65Q1034.7 185.2 1034.15 185.2Q1033.45 185.2 1033.45 184.65Q1033.45 184.15 1034.15 184.15M1031.85,184.15Q1032.4 184.15 1032.4 184.65Q1032.4 185.2 1031.85 185.2Q1031.15 185.2 1031.15 184.65Q1031.15 184.15 1031.85 184.15M1029.55,184.15Q1030.1 184.15 1030.1 184.65Q1030.1 185.2 1029.55 185.2Q1028.85 185.2 1028.85 184.65Q1028.85 184.15 1029.55 184.15M1026.8,188.35L1027.65 188.2L1027.75 189L1026.95 189.15L1026.8 188.35M1028.05,186.45Q1028.45 186.05 1028.85 186.3Q1029.4 186.55 1029.15 187Q1028.85 187.5 1028.3 187.25Q1027.75 187 1028.05 186.45M1023.45,190.8Q1023.85 190.5 1024.1 191.05Q1024.25 191.6 1023.85 191.85Q1023.3 192.15 1023 191.6Q1022.9 191.05 1023.45 190.8M1025.35,189.7Q1025.75 189.3 1026 189.85Q1026.55 190.35 1025.85 190.65Q1025.6 191.3 1025.2 190.5Q1024.9 190.25 1025.35 189.7M1011.1,185.1L1011.1 185.5L1010.7 185.75Q1010.25 186.05 1010 185.5Q1009.75 184.95 1010.25 184.65Q1010.95 184.65 1011.1 185.1M1012.05,187Q1012.3 187.5 1011.75 187.8Q1011.5 188.2 1010.95 187.65Q1010.7 187.1 1011.2 186.85Q1011.65 186.55 1012.05 187M1013.4,188.75L1013.4 189.55L1012.6 189.55L1012.6 188.75L1013.4 188.75M1015,190.1Q1015.7 190.35 1015.15 190.9Q1015 191.3 1014.5 191.05Q1013.95 190.8 1014.2 190.25Q1014.5 189.85 1015 190.1M1021.25,191.3Q1021.95 191.3 1021.95 191.85Q1021.95 192.4 1021.4 192.55Q1020.85 192.55 1020.85 192Q1020.7 191.6 1021.25 191.3M1017.05,191.05Q1017.75 191.05 1017.35 191.75Q1017.35 192.15 1016.65 192.15Q1016.1 191.85 1016.25 191.3Q1016.5 190.9 1017.05 191.05M1019.1,191.45Q1019.65 191.45 1019.65 192Q1019.65 192.55 1019.1 192.55Q1018.3 192.55 1018.55 192Q1018.55 191.45 1019.1 191.45M1036.6,167.3L1036.6 166.5L1037.4 166.5L1037.4 167.3L1036.6 167.3M1037.7,168.65Q1037.4 168.1 1037.8 168Q1038.35 167.45 1038.65 168.1Q1038.9 168.65 1038.5 168.95Q1037.95 169.2 1037.7 168.65M1038.65,170.7Q1038.65 170.15 1039.05 169.9Q1039.45 169.6 1039.7 170.3Q1040 170.7 1039.45 170.95Q1038.9 171.25 1038.65 170.7M1039.45,172.75Q1039.15 172.35 1039.85 172.05Q1040.4 172.05 1040.55 172.45Q1040.8 173.15 1040.1 173.15Q1039.45 173.55 1039.45 172.75M1039.85,175.05Q1039.6 174.35 1040.25 174.35Q1040.95 174.35 1040.95 174.9Q1040.95 175.45 1040.4 175.45Q1039.85 175.7 1039.85 175.05M1039.85,179.5Q1039.85 179 1040.55 179Q1041.05 179 1041.05 179.5Q1041.05 180.05 1040.55 180.05Q1039.85 180.05 1039.85 179.5M1039.85,177.2Q1039.85 176.65 1040.55 176.65Q1041.05 176.65 1041.05 177.2Q1041.05 177.75 1040.55 177.75Q1039.85 177.75 1039.85 177.2M1039.85,181.85Q1039.85 181.3 1040.55 181.3Q1041.05 181.3 1041.05 181.85Q1041.05 182.35 1040.55 182.35Q1039.85 182.35 1039.85 181.85M1039.85,184.15Q1039.85 183.6 1040.55 183.6Q1041.05 183.6 1041.05 184.15Q1041.05 184.65 1040.55 184.65Q1039.85 184.65 1039.85 184.15M1036.45,184.15Q1037 184.15 1037 184.65Q1037 185.2 1036.45 185.2Q1035.8 185.2 1035.8 184.65Q1035.8 184.15 1036.45 184.15M1038.75,184.15Q1039.3 184.15 1039.3 184.65Q1039.3 185.2 1038.75 185.2Q1038.1 185.2 1038.1 184.65Q1038.1 184.15 1038.75 184.15" />
</g>
</svg>
