<?xml version="1.0" encoding="utf-8"?>
<svg version="1.1" id="Layer_1"
xmlns="http://www.w3.org/2000/svg"
xmlns:xlink="http://www.w3.org/1999/xlink"
xmlns:author="http://www.sothink.com"
width="154px" height="181px"
xml:space="preserve">
<g id="241" transform="matrix(1, 0, 0, 1, 152.1, 1)">
<path style="fill:none;stroke-width:2;stroke-linecap:round;stroke-linejoin:round;stroke-miterlimit:3;stroke:#000000;stroke-opacity:1" d="M-24.15,3.2L-29.95 4.7M-12.1,0.9L-16.7 1.65L-18.3 1.95M-67.95,21.65L-72.95 24.75M-57.55,15.85L-62.75 18.7M-46.95,10.8L-52.4 13.25M-35.75,6.5L-41.35 8.5M-96.85,42.95L-99.45 45.55M-87.7,35.25L-89 36.25L-92.35 39M-130.45,85.35L-127.4 80.35M-136,96.25L-133.4 90.95M-140.5,107.35L-138.35 101.75M-144.15,118.65L-142.4 112.95M-147.05,130L-145.75 124.55M-149.3,142L-148.3 136M-151.1,166.3L-151.05 163.2L-151 160M-150.25,178.4L-150.9 172.3M-150.7,154L-150.1 148M-77.95,28L-82.85 31.5M0,0.05L-6.05 0.2" />
</g>
</svg>
