<?xml version="1.0" encoding="utf-8"?>
<svg version="1.1" id="Layer_1"
xmlns="http://www.w3.org/2000/svg"
xmlns:xlink="http://www.w3.org/1999/xlink"
xmlns:author="http://www.sothink.com"
width="11px" height="13px"
xml:space="preserve">
<g id="PathID_344" transform="matrix(0.0107353, 0, 0, 0.0107353, -0.75, 10.95)">
<path style="fill:#FFFFFF;fill-opacity:1" d="M177 -444.5l192.5 0q51.5 1 77.5 -22q26 -22.5 26 -81.5l0 -188.5q0 -57 -25 -80.5q-25.5 -23.5 -78.5 -22.5l-193.5 0q-53.5 -1 -78.5 22.5q-25 23.5 -25 80.5l0 773.5q-0.5 8 2 20.5q3 13 14.5 23q11 10 37 10.5q25 -0.5 36 -11q10.5 -10.5 13 -23q2.5 -13 2 -20l0 -481.5M177 -682l0 -36q-0.5 -10.5 5 -19q5.5 -9 23.5 -9.5l134.5 0q16.5 0.5 22.5 8.5q6.5 8.5 6 20l0 36l-191.5 0M177 -604l191.5 0l0 45q0 15 -7.5 22q-7.5 6.5 -21 6.5l-163 0l0 -73.5M845.5 -444.5l0 382q0.5 20 -7 28q-7.5 8.5 -26 8q-7 0 -24.5 -0.5l-35.5 -1l-26 -0.5q-28 -0.5 -43.5 12q-15.5 12 -16 42q0 13.5 4.5 26q5 12.5 16 21.5q7.5 5.5 17.5 7.5q10.5 2.5 29 3q18 0.5 50 0.5q22 0 47.5 -0.5q25.5 -0.5 47 -3q21 -2.5 31.5 -9q19 -11.5 27.5 -28q8.5 -17 11 -33q2 -16 1.5 -25.5l0 -721.5q0 -57 -25 -80.5q-25 -23.5 -78.5 -22.5l-191.5 0q-53.5 -1 -78.5 22.5q-25 23.5 -25 80.5l0 188.5q0 59.5 26 82q26 22.5 77.5 21.5l190.5 0M656 -682l0 -36q0 -14.5 7 -21.5q7 -7 21.5 -7l132.5 0q15 0 22 7.5q6.5 7.5 6.5 21l0 36l-189.5 0M684.5 -530.5q-14.5 0 -21.5 -7q-7 -7 -7 -21.5l0 -45l189.5 0l0 73.5l-161 0M729 -268.5q0.5 -46.5 -10 -72q-10 -25.5 -35.5 -35q-25.5 -10 -71.5 -9.5l-201.5 0q-46.5 -0.5 -72 9.5q-25.5 10 -35.5 35.5q-10 25.5 -9.5 71.5l0 112q-0.5 46 9.5 71.5q10 25.5 35.5 35.5q25.5 10 72 9.5l201.5 0q47 0.5 72.5 -10q25.5 -10 35 -35.5q10 -25.5 9.5 -71l0 -112M628.5 -168q0.5 16 -7 26q-7.5 9.5 -29 10l-162.5 0q-20 0 -28.5 -9.5q-9 -9.5 -8.5 -26.5l0 -92q0 -37 37 -37l162.5 0q18 0 27 9q9 8.5 9 28l0 92" />
</g>
</svg>
