<?xml version="1.0" encoding="utf-8"?>
<svg version="1.1" id="Layer_1"
xmlns="http://www.w3.org/2000/svg"
xmlns:xlink="http://www.w3.org/1999/xlink"
xmlns:author="http://www.sothink.com"
width="157px" height="13px"
xml:space="preserve">
<g id="PathID_298" transform="matrix(0.010049, 0, 0, 0.010049, -1.1, 10.55)">
<path style="fill:#000000;fill-opacity:1" d="M511 -3q64 -11 110 -25.5q46.5 -14.5 89.5 -38q97.5 -52.5 150.5 -133q53 -80.5 53.5 -177.5q0 -74.5 -24.5 -134.5q-24.5 -60.5 -74 -106q-50 -45.5 -118 -69.5q-68 -24.5 -146 -24.5q-67.5 0 -132.5 17.5q-65 17.5 -121.5 49.5q-56.5 32 -98.5 76q-43 48 -67.5 101q-24 53 -24.5 102q0 24 5.5 46.5q6 22.5 18 46.5q14.5 28.5 23 44.5q8 16.5 13 28q5 11 9 24q8.5 24 13.5 36q4.5 12 7.5 18q3.5 6 8 11.5q8.5 10 20 15.5q11.5 6 25 6q28 0 66 -38q38 -38 86.5 -114.5q39 -63.5 69.5 -129.5q30.5 -66.5 47.5 -125.5q17.5 -58.5 18 -99.5q0.5 -21.5 -6.5 -40q-7 -19 -25.5 -45l19.5 -1.5l16.5 -0.5q49.5 0 96 12.5q46.5 12 81.5 34.5q56.5 36.5 86 94q29.5 57.5 29.5 132.5q0 71 -23 133q-23 62 -68 114q-43 50 -100.5 84q-57 34 -139.5 58q3.5 9 7.5 17.5M484 -677q8.5 18.5 11.5 29.5q3 11 3 22q-0.5 32.5 -17 83.5q-16.5 50.5 -45.5 111q-29.5 60.5 -67.5 122q-38.5 60.5 -71 97.5q-33 36.5 -50.5 37.5q-8.5 0 -18.5 -8q-10 -7.5 -20.5 -21.5q-19.5 -27.5 -30 -63q-11 -35 -11 -72.5q1 -79.5 42.5 -150.5q42 -71 113.5 -120.5q71 -50 161 -67" />
</g>
<g id="PathID_299" transform="matrix(0.010049, 0, 0, 0.010049, 9.15, 10.55)">
<path style="fill:#000000;fill-opacity:1" d="M559 -713.5q37.5 -6 70.5 -13q33 -7 72.5 -17q39 -10 95.5 -25.5q18.5 4 29 5.5q11 1.5 16 1.5q8 0 13 -3q5.5 -3.5 5.5 -8q1 -5 -21 -20q-21.5 -14.5 -75 -45.5q-53 25 -108 43q-55 18 -126.5 34.5q-83.5 18.5 -184 34q-100.5 15.5 -210 26.5l3 18.5q72.5 -1 130 -3.5q58 -2.5 110 -6.5q52 -4.5 107 -10.5l0 169l-239.5 0q-27.5 0 -56.5 -2.5q-29 -2 -53 -6.5l5 39.5q21 -3 48.5 -5l52 -2l243.5 0l0 186.5l-298 0q-30 0 -61 -3q-31 -3 -61 -8.5q3 20.5 6.5 41q23.5 -2.5 55 -4l60.5 -2l298 0l0 258q0.5 9 -3.5 12.5q-3.5 3.5 -15 5l-34 -1l-32.5 -1l-50 -3l-86 -5.5l-1 18.5q49 6.5 82 13q33 7 53 15q19.5 7.5 27.5 20q8 12 10.5 38q50 -10 76.5 -20.5q27 -10.5 36.5 -25.5q10 -15 9.5 -40l0 -3l0 -5q-0.5 -123.5 -1 -187.5l0 -69.5l0 -18.5l405.5 0q4.5 0 8 -2q3 -1.5 3.5 -4q0 -1.5 -1 -3.5l-2.5 -4q-19.5 -18.5 -33.5 -30.5q-13.5 -12.5 -27.5 -24q-14 -12 -35 -28.5l-24.5 25.5q-10 10.5 -19.5 21.5l-23.5 26l-250 0l0 -186.5l349 0q5.5 0 8.5 -2q3 -2 3 -5q0 -1 -1 -3q-0.5 -1.5 -2 -3.5q-20.5 -18.5 -34.5 -30.5l-28 -24.5q-14.5 -12 -36 -28.5l-22 25.5l-18 21.5l-23.5 26.5l-195.5 0l0 -180" />
</g>
<g id="PathID_300" transform="matrix(0.010049, 0, 0, 0.010049, 19.4, 10.55)">
<path style="fill:#000000;fill-opacity:1" d="M968.5 -764q4 0 7 -2q3 -2 3 -5q0 -1.5 -1.5 -4q-1 -2 -3.5 -4.5q-18.5 -14.5 -31 -24l-25 -20l-31 -24.5q-16 19 -25 30.5l-24 30l-252.5 0q-19 0 -37.5 -2q-18.5 -1.5 -50 -6q4 17.5 7.5 35.5l38.5 -3l29 -1l101.5 0q-2.5 30.5 -8.5 58.5q-6 28 -18.5 68.5l-47 0q-15 -10 -26 -16.5q-11 -7 -22.5 -13q-11.5 -6 -29 -14.5q2 25 3 56.5q1 31 1.5 80q0.5 48.5 0.5 126.5l0 87.5l-1 70q0 32.5 -0.5 66.5q-1 34.5 -1.5 77q0 7 3.5 10q4 2.5 14 2.5q28 0 39 -3.5q11.5 -4 11 -13l0 -1l0 -2l0 -23.5l245.5 0l0 29.5l0 3q0 4 2.5 6.5q2.5 2 7.5 2l1 0l1.5 0q4.5 -1 11 -1l13.5 -1q20 -0.5 27 -3.5q7 -3 6.5 -12q0 -1 -0.5 -2q-0.5 -1.5 -0.5 -3l-1.5 -69l-1 -99.5q-1 -55 -1.5 -112.5l-1 -107l0 -84q16 -7 23.5 -11.5q7 -5 7 -9q0 -4 -2.5 -7q-2.5 -3.5 -7.5 -8.5l-23.5 -17.5q-8 -6 -15 -11l-19 -15.5l-19 23.5l-16.5 20.5l-158.5 0q15.5 -20 26 -34.5q10.5 -14 23.5 -34.5q13.5 -20 37 -58l211 0M837.5 -488.5l-245.5 0l0 -125l245.5 0l0 125M837.5 -465l0 128l-245.5 0l0 -128l245.5 0M837.5 -313.5l0 142.5l-245.5 0l0 -142.5l245.5 0M38 13q43 -57 72 -115.5q28.5 -58.5 44.5 -130q16.5 -71.5 23.5 -166.5q6.5 -95.5 6.5 -225.5l0 -122l0 -11l0 -23q17 -5 25.5 -10.5q8.5 -5 8.5 -10q0 -5.5 -8.5 -9.5q-8.5 -4 -31 -7.5q-22.5 -4 -64 -8.5l3.5 49l2 51q0.5 27.5 0.5 65q0 81 -2 159.5q-2.5 78.5 -6.5 143.5q-3.5 65 -9 106.5q-7 55.5 -16 98.5q-9.5 43 -23.5 81.5q-14 39 -35 81l9 4M312.5 -351.5l1 -388q18 -5 26 -10.5q8 -5 7.5 -12q1.5 -7.5 -20 -12.5q-21 -5.5 -78 -13l2.5 55.5q1.5 26.5 2 55.5q0.5 29 0.5 67q0 119.5 -0.5 205q-0.5 85.5 -2 151q-1 65.5 -2.5 126.5q0 6 3 8.5q3.5 3 10 2.5l1 0l1.5 0l5 -0.5l7 -0.5q22 0.5 29.5 -2.5q8 -2.5 8.5 -11.5l-2 -220.5M381 -828.5q1 14 2 34.5q1 20 1.5 57l1 101.5q0 65 0.5 168l0 255.5q0 26.5 -0.5 50.5q0 23.5 -0.5 51l0 65.5q0 6.5 2.5 9.5q3 3 9.5 2.5q11 0 23.5 -0.5q12.5 -1 18.5 -2.5q9 -0.5 12 -3q3 -2.5 3.5 -9q-1.5 -53 -2.5 -95.5l-1 -87q-0.5 -45 -0.5 -105l0 -149l0 -298q20.5 -3.5 29.5 -8q8.5 -5 8.5 -12.5q0.5 -6.5 -13 -10.5q-14 -4.5 -48.5 -9q-15.5 -1.5 -46 -6M740.5 -87q60 30 98 56q38 26 60.5 52.5q17.5 19.5 26.5 26.5q8.5 6.5 16.5 6q7.5 0 12.5 -8.5q4.5 -8 4.5 -22q0.5 -25 -7.5 -40.5q-8.5 -15.5 -28 -28q-21.5 -15 -63.5 -28.5q-42 -13 -115.5 -29l-4 15.5M347 68.5q95.5 -20.5 169 -48.5q73.5 -28.5 137.5 -70.5q31.5 -2.5 40 -5q8 -2.5 7 -9q0 -6 -19.5 -16q-19.5 -10 -62.5 -25q-27 28.5 -70.5 58q-44 29.5 -97 56q-53 26.5 -109 45.5l5 14.5" />
</g>
<g id="PathID_301" transform="matrix(0.010049, 0, 0, 0.010049, 29.65, 10.55)">
<path style="fill:#000000;fill-opacity:1" d="M711.5 -540q30 28.5 55 59q24.5 31 40 60q14 26 19.5 33q5 7 11.5 6q11 -0.5 18 -14.5q7 -14 7.5 -35.5q0 -17.5 -9.5 -33q-10 -15 -30.5 -30.5q-20.5 -15 -47 -29.5q-26.5 -14.5 -55.5 -27l-9 12M811.5 -583q38.5 28.5 65 58.5q27 30 44 64.5q5 12 10 17q5 5 10 4.5q11 -0.5 18 -14q6.5 -14 7 -35q0 -20.5 -11 -36.5q-10.5 -15.5 -34 -29q-21.5 -12 -45.5 -22q-24.5 -10 -56 -19q-3.5 5.5 -7.5 11M96 -663.5q-6.5 10 -9 16q-2.5 6 -2 11.5q0 13 7 31.5q7 18 19.5 37q18 28 39 44q21 16 40 16.5q9 0.5 17.5 -2.5q8.5 -3 23.5 -12q25.5 -13.5 70 -31.5q44 -18 93.5 -34q58 -18.5 107.5 -32q49 -13.5 94.5 -23q45.5 -9.5 92 -16q-42.5 22 -72.5 40q-30 18.5 -52 36.5q-22.5 18.5 -42.5 40.5q-53.5 57 -82.5 122q-28.5 65 -29 128q0 71 30 129.5q30 58 88.5 100q29.5 20.5 66.5 37.5q37 16.5 74.5 26q37.5 10 68 10q16.5 0 26.5 -8q10 -8 10.5 -20.5q-0.5 -9.5 -8 -22.5q-8 -12.5 -23 -26.5q-10 -10 -19 -13.5q-9 -3.5 -24 -3q-23.5 -1 -50.5 -7.5q-27.5 -6.5 -54 -17q-66 -29 -100.5 -80.5q-34.5 -51.5 -34.5 -122.5q0.5 -65 29 -125.5q28.5 -60 77.5 -108q48.5 -48 110 -76.5q61.5 -28 127.5 -28.5l13 0.5q6 0 15.5 1.5q5.5 1 10.5 1l8 0q15 0 23.5 -7q8.5 -7 8.5 -18.5q0 -10.5 -7.5 -20q-7 -9 -22.5 -19q-15.5 -9.5 -30.5 -15.5q-15 -6 -24.5 -6q-6 0 -13.5 2q-7.5 1.5 -22.5 6q-15 5 -32 10q-17.5 4.5 -42.5 10q-25 6 -63.5 14l-92.5 18.5q-41.5 9 -73.5 17.5q-85 20.5 -137 32.5q-52 12 -80 18q-28 6 -42.5 8l-24 1.5q-15 0 -25.5 -3.5q-10 -4 -20.5 -14q-12 -10 -19.5 -22q-7.5 -12 -14.5 -31" />
</g>
<g id="PathID_302" transform="matrix(0.010049, 0, 0, 0.010049, 39.9, 10.55)">
<path style="fill:#000000;fill-opacity:1" d="M648 -640l326.5 0q4 0 6 -1.5q2.5 -1.5 2.5 -3.5q0 -1 -1 -2.5l-1 -2.5l-36.5 -33l-29 -26.5l-36 -32l-21 27q-9 11 -17.5 22.5l-21 28.5l-285.5 0q14.5 -25.5 24.5 -44q10 -18.5 18.5 -36.5q8.5 -18 18.5 -41.5l15 -3.5l11.5 -2.5q7 -1.5 12.5 -3.5q6 -2.5 10 -4.5q2.5 -2 3.5 -4.5q1.5 -2.5 1.5 -5q1 -4 -7 -8.5q-8.5 -5 -35 -13.5q-26.5 -9 -80.5 -26q-5 32 -13.5 63q-8.5 30.5 -22 66q-14 35.5 -35.5 82q-26 57 -49 100q-22.5 43 -47.5 81q-24.5 38.5 -57 82l11 9q38.5 -35.5 71 -73q32.5 -37 65 -83.5q32.5 -46 71 -109.5l56.5 0l0 461.5l0 19l-0.5 30.5l-1.5 59q-0.5 28.5 -0.5 45.5q-0.5 17 -0.5 29.5q-0.5 12 -0.5 26l-0.5 36.5q-0.5 9 4.5 12q5 3.5 17 3q31.5 0.5 44.5 -4q13 -4.5 12.5 -15.5l0 -0.5l0 -1.5l-1 -60.5l-1 -38.5q0 -16 -0.5 -32.5l-0.5 -42.5l-1 -39.5l0 -27l0 -44l305 0q4 0 6.5 -1.5q3 -1.5 3 -4.5q0 -1 -1.5 -3l-2.5 -4.5q-18.5 -17.5 -31.5 -29q-12.5 -12 -25.5 -23.5l-32.5 -28l-21 24.5l-17 20l-21 26l-162 0l0 -191.5l306 0q4 0 6.5 -1.5q3 -1.5 3 -3.5q0 -1.5 -1.5 -4l-3.5 -4.5q-18 -17.5 -31 -29q-12.5 -12 -25.5 -23.5l-33 -27l-20 23.5l-16 20l-20 26l-165 0l0 -178M53 -349.5q26 -24 46 -44.5q20 -20.5 41.5 -46.5q21.5 -26.5 52 -66.5l0 300q0 81 -1.5 146q-1.5 64.5 -4.5 127.5l0 3q-0.5 6.5 4 9q4.5 2.5 17.5 2q11.5 0 26 -2q15 -1.5 22 -4q5 -1.5 7 -4q2 -2.5 2 -6.5q0 -1.5 -0.5 -3q-0.5 -1.5 -0.5 -3q0 -27 0.5 -49l0.5 -35l0 -47.5q0 -25.5 -1 -55l-1 -48.5l0 -30l0 -286.5q18.5 -9 24.5 -13.5q6 -4.5 5 -10q0.5 -5.5 -2 -7.5q-2.5 -1.5 -10 -3l-36 -6l-17 -2.5l-12.5 -1.5q31.5 -42 55 -77.5q23 -35 46.5 -77.5q23.5 -42.5 55 -105l28 -6.5q10 -2 13 -3q2.5 -1.5 4 -4q1 -2.5 1 -5q0 -3 -1.5 -5q-1.5 -2 -5.5 -4.5l-22.5 -8.5l-41.5 -14q-23.5 -8.5 -47.5 -16q-6 39.5 -24 88.5q-18 49 -53 120q-30.5 62.5 -59 114q-29 51 -58.5 95.5q-30 45 -63.5 87.5l12 9" />
</g>
<g id="PathID_303" transform="matrix(0.010049, 0, 0, 0.010049, 50.15, 10.55)">
<path style="fill:#000000;fill-opacity:1" d="M238.5 -424q58.5 32.5 95 53q36.5 20.5 59.5 34.5q23.5 13.5 43 26q19 12.5 43.5 29q-17.5 19.5 -33 35q-16 15.5 -35 31.5q-34 30.5 -65.5 54q-31 24 -63.5 44.5q-32.5 20.5 -71.5 42l9 15q42 -16.5 75.5 -32.5q33 -16.5 64 -35.5q30.5 -19 65.5 -44.5q28 -20.5 50.5 -40q22.5 -19.5 43.5 -42q43.5 30.5 73.5 54.5q30 23.5 55 46.5q25 23.5 53 53.5q19 21 25.5 26.5q6.5 5 12.5 4.5q7.5 -0.5 12.5 -7.5q4.5 -7 5 -17q-1.5 -29 -7.5 -49q-6 -20 -17.5 -35q-17 -21.5 -63.5 -53.5q-46.5 -31.5 -110.5 -65.5q46.5 -56 81.5 -106.5q35 -51 65 -108.5q30.5 -58 62.5 -134l1.5 0l0.5 0q20.5 0 29 -3q8 -3 8 -10.5q0.5 -4.5 -8 -9.5q-8.5 -5.5 -30.5 -14q-22.5 -8.5 -64 -22.5q-20.5 92.5 -70 192q-49.5 99.5 -121.5 192q-47.5 -24 -87.5 -42.5q-40.5 -18.5 -82 -36q-42 -17.5 -94.5 -38.5l-8.5 13.5M260 -657.5q19 33 31.5 55.5q12.5 23 21 42q8.5 19.5 16 42q8 22.5 17.5 55q3 10 7 14.5q3.5 4 9.5 4q8.5 -0.5 17 -11q9 -10.5 14.5 -25.5q6 -15.5 6.5 -30q0 -11 -4.5 -22q-4 -11.5 -12 -23q-21 -28.5 -49 -56q-28 -27.5 -62.5 -53.5l-12.5 8M421 -708.5q30 44.5 51.5 87q21.5 42.5 35.5 84q6.5 21.5 11.5 29q4.5 7 12 6.5q7.5 -0.5 15.5 -11q8 -10.5 13.5 -25.5q5.5 -15 6 -29q0 -10 -4 -20q-4 -10 -11.5 -21q-19 -26.5 -45 -51q-26.5 -24 -73 -58.5q-6 4.5 -12 9.5M169 0l682 0l0 54.5q-0.5 7.5 4 10q4.5 2.5 16.5 2l25.5 -1.5q13 -1 18.5 -3.5q4.5 -1.5 6.5 -4.5q2.5 -3 2.5 -9l0 -42.5q0 -16.5 -0.5 -30q0 -13.5 -0.5 -31l-1 -47l-1 -93.5q-0.5 -37.5 -0.5 -66.5q-0.5 -28.5 -0.5 -57l0 -65l0 -91.5l0 -261.5q24 -14 31.5 -21q8 -7 7.5 -12.5q0 -3 -2.5 -6.5q-2.5 -3.5 -8 -9l-22.5 -18q-9 -7.5 -19 -14.5l-24 -16.5q-21.5 24.5 -42.5 49l-658.5 0l-30.5 -20q-12.5 -7.5 -25.5 -14q-12.5 -6 -31 -14l3 119q1 44 1 58q0 164.5 -0.5 281q0 116.5 -1 197q-0.5 80.5 -2 137q-1.5 56.5 -3.5 101q1 6.5 5 9q4 2.5 12 2l26 -1q12.5 -0.5 20 -3q6 -0.5 9 -4q3 -3.5 4.5 -10.5l0 -51M169 -763l682 0l0 739.5l-682 0l0 -739.5" />
</g>
<g id="PathID_304" transform="matrix(0.010049, 0, 0, 0.010049, 60.4, 10.55)">
<path style="fill:#000000;fill-opacity:1" d="M362.5 58.5q47.5 -21 85.5 -45.5q38 -24.5 67 -52q53.5 -50.5 82 -117.5q28.5 -66.5 29 -142.5q0 -26 -3 -47q-2.5 -21 -10 -42.5q-7 -21 -20 -46.5l-1 -20.5l0 -14.5q0 -19.5 1 -44.5q1 -25 2.5 -50q1.5 -25 4 -45l56 -3q25.5 -1 53.5 -1l81.5 2.5q37 2.5 76 8l33.5 4l14.5 1.5l7.5 0.5q11.5 0 17 -4.5q5.5 -4.5 5.5 -13q0 -8 -3.5 -14.5q-4 -6.5 -13 -13q-20 -16 -45.5 -27q-25 -10.5 -41.5 -11q-5.5 -0.5 -12.5 2q-7 2 -25.5 9q-12 4.5 -25 7.5q-13 3 -38 5.5l-73 5.5l-29 2.5l-17.5 1.5l-20 2.5q3 -36.5 8.5 -60q5.5 -24 14 -39.5q6.5 -12.5 8.5 -17.5q2 -4.5 1.5 -10q0 -11 -10 -20.5q-10 -9 -29 -15.5q-22.5 -7 -47.5 -10.5q-25.5 -4 -52 -4q-20 0 -29 3.5q-9.5 4 -18 15q39 5.5 59.5 17q20.5 12 28.5 33.5q6 16 9 42q2.5 26 2.5 71.5l-68 7.5l-57 7.5q-27.5 3.5 -60 8.5l-77 12.5q-33.5 5 -53.5 7l-35 2q-30.5 0 -55 -13q-24.5 -13 -44 -39q-2.5 3.5 -4 7q-1 3.5 -1 5q0 13 12 34.5q11.5 21 28.5 40q18 18.5 35 29q17 10 31 10q4.5 0 11.5 -2q7 -1.5 12 -3q17 -9 32.5 -15.5q15 -6 34 -12q63 -19 130 -32q67 -13.5 128 -19l1 12.5l0 7.5q0 17 -0.5 38.5q0 21.5 -0.5 40.5l0 28q-19.5 -10.5 -31.5 -14q-12 -4 -26 -3.5q-38 0.5 -68 20.5q-29.5 20 -46.5 55.5q-17 35 -17.5 80.5q0.5 42.5 16.5 75.5q16.5 33 45 52.5q28 19 64.5 19.5q17.5 0 32.5 -5q15.5 -5 33 -15.5q-12.5 54 -35.5 97q-23 43 -61.5 81q-38.5 38 -97.5 78l8 13.5M551 -344q0 47.5 -16.5 71.5q-16 24.5 -49 24.5q-37 -1 -59.5 -31.5q-23 -30.5 -23.5 -80q1 -48 23.5 -78.5q23 -31 58.5 -32q33.5 0 50 31q16.5 31 16.5 95" />
</g>
<g id="PathID_305" transform="matrix(0.010049, 0, 0, 0.010049, 70.65, 10.55)">
<path style="fill:#000000;fill-opacity:1" d="M601 -716.5l3.5 -1.5l1.5 -0.5l2 0l1 0q0 -1 0.5 -1l0.5 0q1 0 2 1q1 0.5 1 1q-1 3 -2.5 6q-1.5 2.5 -7.5 10.5q-30 38.5 -55 69.5q-25 31 -51 61.5q-26 31 -59 68.5q-33.5 38 -80 90l-66.5 73q-24.5 25.5 -40.5 40.5q-16.5 14.5 -35 28.5q-11 9 -16 18q-5.5 8.5 -5.5 18q0 15.5 5.5 30.5q5 15.5 12.5 25.5q8 10 16 10.5q7 0 14.5 -6q7.5 -6 20 -22q43.5 -54.5 100 -97.5q56.5 -42.5 115.5 -67.5q59 -24.5 110 -25q30.5 0 57.5 5.5q27.5 5.5 44 15q31 18.5 47 51.5q16.5 32.5 16.5 75.5q-0.5 65.5 -33 115.5q-32 50 -91 76q-11 -22 -21.5 -36.5q-10 -14.5 -23.5 -27q-25.5 -24 -59 -37q-33 -13.5 -71 -13.5q-48.5 1 -79 25q-30.5 24 -31.5 62q1 47.5 44.5 74.5q44 27.5 120 28q93.5 -0.5 166 -33.5q72.5 -33 114 -90q41 -57.5 42 -131.5q-0.5 -57.5 -27.5 -100.5q-27.5 -42.5 -76.5 -66.5q-49.5 -23.5 -115.5 -24q-63.5 -0.5 -130.5 23q-66.5 23 -148 74l-2 -2q10 -9.5 19 -19l31 -33l70 -75q35 -37 69 -71.5q34 -35 81.5 -82q22 -22 35.5 -34.5q13.5 -12 24 -19.5q11 -7.5 25.5 -14.5q9 -4.5 13 -9.5q4.5 -4.5 4.5 -10q0 -9 -6.5 -19q-7 -10.5 -24.5 -27q-19 -19 -32 -27.5q-13.5 -8.5 -23 -8.5q-4 0 -8 1.5q-3.5 1.5 -6.5 3.5q-10.5 9 -17 13.5q-7 4.5 -17 8.5l-29.5 10q-36 11 -75.5 21q-39.5 10 -71.5 16.5q-32.5 6.5 -46.5 6.5q-25.5 0 -45.5 -19.5q-19.5 -19 -31.5 -55.5q-5 8 -7 14q-2 6 -2 13q0 16 7.5 35.5q7.5 19.5 21 40q15 21.5 30 32.5q14.5 10.5 28.5 10.5q6 0 16.5 -3q10 -3.5 25.5 -10.5q36 -15.5 76 -31.5q40 -16.5 75 -29.5q35 -13 56 -19.5l5 -2M563 -21.5q-23 5 -38 7q-15 2 -34.5 2q-54.5 -0.5 -85.5 -17q-31 -16.5 -31.5 -45.5q0.5 -24 17.5 -38q17.5 -13.5 47 -14q43.5 0.5 76.5 28q32.5 28 48.5 77.5" />
</g>
<g id="PathID_306" transform="matrix(0.010049, 0, 0, 0.010049, 80.9, 10.55)">
<path style="fill:#000000;fill-opacity:1" d="M275.5 -721q21 22.5 36.5 36q16 13.5 35.5 23.5q24.5 12.5 56 20q31.5 7.5 60.5 7.5q15 0 37 -1l40 -2l-14.5 8.5q-6.5 4 -22 12.5l-49.5 27q-19.5 10.5 -35.5 20l-39.5 23l7 15.5q13.5 -5 20 -8l20 -8.5l43 -18.5l21.5 -9l19.5 -7.5l74.5 -28q25.5 -9 41 -13.5q15.5 -4.5 34 -8.5q34 -7.5 50 -12q16 -5 20.5 -10q5 -5 4.5 -13.5q-0.5 -11.5 -10 -24q-10 -12 -24 -20.5q-14 -8.5 -27.5 -9q-2.5 0 -8 1.5q-5 1 -10.5 3q-30 9 -66.5 16q-36.5 7 -74.5 10.5q-38 4 -72 4q-34 0 -59.5 -4q-25.5 -4 -48.5 -14q-23 -10 -48.5 -27q-5.5 5 -10.5 10M237 -331q-8.5 25.5 -12.5 46.5q-4 21.5 -4 39.5q0.5 49.5 23 93q23 43.5 62 69q37.5 26 95.5 37.5q57.5 11.5 143 11.5q46 0 92 -2.5q45.5 -2.5 84 -7q38.5 -5 62.5 -11q16 -4 24.5 -12q8 -8 8 -19.5q0 -9.5 -5.5 -18.5q-6 -9 -17 -17.5q-13.5 -8.5 -28.5 -14.5q-15.5 -5.5 -27.5 -6q-4 0 -8.5 1q-4.5 1 -9 3q-46 17 -105.5 27q-59.5 10 -121 10q-123 0 -182.5 -44q-59.5 -44 -59 -135q0 -10.5 1 -20q0.5 -10 2 -26.5l-17 -4" />
</g>
<g id="PathID_307" transform="matrix(0.010049, 0, 0, 0.010049, 91.15, 10.55)">
<path style="fill:#000000;fill-opacity:1" d="M317.5 -794q31.5 5.5 48.5 14q17 8.5 25 23q4 7 6 18q2.5 11 3.5 34q1.5 23 3 66l2.5 60.5q1 23 2 37.5q1 14 2.5 26q3.5 32.5 11 51q7 18.5 18.5 26.5q12.5 9 23 12.5q10 3 26.5 3q-45 24 -74 43q-29 19.5 -51 39q-50.5 42 -75.5 84.5q-25 43 -25 87.5q0.5 51.5 30 91.5q29.5 40 81.5 60q32.5 11.5 75.5 17.5q43 6 98.5 6q32 0 71 -2l74 -5q34.5 -3 52 -6.5q24 -4 34 -12q10 -8 10 -21.5q-1 -19.5 -18 -34.5q-16.5 -15 -37.5 -16q-4.5 0 -8.5 1l-12 2.5q-37.5 8.5 -80 15q-43 7 -84 10.5q-41 4 -73.5 4q-85.5 0 -128.5 -28q-43.5 -28.5 -43.5 -83.5q0 -36 19 -67.5q19.5 -32 61 -63.5q31.5 -24.5 67.5 -44q35.5 -19.5 81.5 -36.5q45.5 -17 107 -34.5q34.5 -9.5 49 -14.5q15 -5 19.5 -7q10.5 -4.5 16 -12.5q5.5 -8 5.5 -18q-1 -17 -15.5 -29.5q-14.5 -13 -33.5 -13.5q-9 0 -19 2.5q-9.5 3 -23 9.5q-46 22 -72.5 33.5q-26 11 -40.5 15q-14.5 4 -24.5 4q-23 1 -31.5 -15.5q-9 -16 -8.5 -60.5q0.5 -43 3.5 -84q3 -40.5 8 -73.5q5 -32.5 11 -50q5.5 -13 7 -17.5q1.5 -4 1.5 -9.5l0 -0.5l0 -1.5q0 -10.5 -6.5 -18.5q-7 -8 -22.5 -14q-12.5 -5.5 -30.5 -10q-18.5 -4 -37.5 -7q-19.5 -2.5 -35 -2.5q-15 -0.5 -24 3q-9.5 3.5 -20 13" />
</g>
<g id="PathID_308" transform="matrix(0.010049, 0, 0, 0.010049, 101.4, 10.55)">
<path style="fill:#000000;fill-opacity:1" d="M755 -709q31 26 61 61q29.5 35.5 45.5 65q10.5 20 17 27q6.5 7.5 13.5 7q10.5 -0.5 17.5 -14q7 -14 7 -35q0.5 -19.5 -10.5 -35.5q-11 -15.5 -38.5 -33.5q-25.5 -17 -53 -31q-27 -14.5 -51.5 -23l-8 12M840 -777.5q42 33 68.5 59.5q26 27 46 58.5q10.5 15 17 21.5q7 6 13 6q8.5 -0.5 14.5 -14q5.5 -14 6 -35q0 -17 -13.5 -32.5q-13.5 -16 -41 -31q-25.5 -14.5 -51 -25.5q-25.5 -11 -51.5 -18.5l-8 11M289 -431l-25.5 55.5q-9.5 21 -17 36.5l-16.5 32q-8.5 17.5 -23 45q-21.5 41.5 -41.5 73q-19.5 31 -34.5 47.5q-14.5 17 -19 28q-5 11.5 -4.5 29.5q0.5 33 8 52q8 18.5 22 18.5q7 0 13 -4.5q6 -5 11.5 -15q12.5 -22 36.5 -74q23.5 -51.5 54.5 -124.5q26 -62 41.5 -97.5l19 -45.5q16.5 -38.5 26.5 -60.5q9.5 -22 14.5 -35l9.5 -21.5q3.5 -9.5 9 -22.5q28.5 -8 47 -12.5q18.5 -4.5 32 -6.5l27 -1.5q17 0 28 2.5q11 2.5 18.5 7.5q27.5 18.5 27.5 83.5q0 39.5 -7.5 87q-8 47.5 -21.5 96q-13.5 48.5 -31.5 91q-19.5 47.5 -35 67q-15 19.5 -31.5 19q-16.5 0 -58 -18.5q-41.5 -18 -100.5 -51l-9.5 12q53.5 43.5 77 64.5q24 20.5 30 31.5q6.5 10.5 7 24q1.5 12 8 18q6.5 5.5 19.5 5.5q25 -0.5 51.5 -13q27 -12.5 46.5 -33q22.5 -25 42.5 -66.5q20.5 -41.5 36 -92q15.5 -51 24.5 -104.5q9 -53.5 9 -103.5q0 -80.5 -32 -120.5q-32.5 -39.5 -98.5 -39.5q-18 0 -37 2q-19 2.5 -51.5 9.5q22 -53.5 38.5 -88.5q16.5 -35 26.5 -50q9 -13.5 12 -19q3 -6 2.5 -10.5q0 -16.5 -18.5 -30.5q-18.5 -14 -53 -24q-21 -6 -39.5 -9.5q-18.5 -3.5 -30 -4q-8 0 -14.5 2.5q-6.5 2.5 -15.5 9q43.5 13.5 61.5 29.5q18 15.5 17.5 39q0 18 -5.5 46q-5.5 28.5 -15 60.5q-9.5 32 -21.5 61.5q-38.5 10.5 -74 18.5q-35 8 -62 13q-26.5 4.5 -38 4.5q-28 0.5 -45 -12.5q-17.5 -12.5 -33 -44q-3 8 -4.5 13.5q-1.5 5.5 -1.5 9.5q0.5 14.5 10 37q9.5 22 24 40.5q10.5 13.5 23 22q13 8.5 22 9q5.5 0 12 -2q6.5 -2.5 17.5 -9.5q20.5 -11.5 50.5 -24q30 -12 82.5 -29l-30.5 66.5M711 -549q50 25 83 57q33 32.5 57 79.5q14 25 21.5 48.5q7.5 24 10.5 49.5q-15.5 6.5 -31.5 12.5l-44 15q-28.5 9 -81.5 25q2.5 6.5 4.5 13l63.5 -6.5l34.5 -2q13 -0.5 30 -0.5q13.5 -0.5 21.5 2q8 2 20.5 9q8 4.5 12.5 6q5 1.5 11 1.5q19 -0.5 30 -15q10.5 -14.5 11 -41.5q0 -33.5 -15 -70q-14.5 -36.5 -43.5 -74q-67.5 -88 -187.5 -123.5l-8 14.5" />
</g>
<g id="PathID_309" transform="matrix(0.010049, 0, 0, 0.010049, 111.65, 10.55)">
<path style="fill:#000000;fill-opacity:1" d="M711.5 -540q30 28.5 55 59q24.5 31 40 60q14 26 19.5 33q5 7 11.5 6q11 -0.5 18 -14.5q7 -14 7.5 -35.5q0 -17.5 -9.5 -33q-10 -15 -30.5 -30.5q-20.5 -15 -47 -29.5q-26.5 -14.5 -55.5 -27l-9 12M811.5 -583q38.5 28.5 65 58.5q27 30 44 64.5q5 12 10 17q5 5 10 4.5q11 -0.5 18 -14q6.5 -14 7 -35q0 -20.5 -11 -36.5q-10.5 -15.5 -34 -29q-21.5 -12 -45.5 -22q-24.5 -10 -56 -19q-3.5 5.5 -7.5 11M96 -663.5q-6.5 10 -9 16q-2.5 6 -2 11.5q0 13 7 31.5q7 18 19.5 37q18 28 39 44q21 16 40 16.5q9 0.5 17.5 -2.5q8.5 -3 23.5 -12q25.5 -13.5 70 -31.5q44 -18 93.5 -34q58 -18.5 107.5 -32q49 -13.5 94.5 -23q45.5 -9.5 92 -16q-42.5 22 -72.5 40q-30 18.5 -52 36.5q-22.5 18.5 -42.5 40.5q-53.5 57 -82.5 122q-28.5 65 -29 128q0 71 30 129.5q30 58 88.5 100q29.5 20.5 66.5 37.5q37 16.5 74.5 26q37.5 10 68 10q16.5 0 26.5 -8q10 -8 10.5 -20.5q-0.5 -9.5 -8 -22.5q-8 -12.5 -23 -26.5q-10 -10 -19 -13.5q-9 -3.5 -24 -3q-23.5 -1 -50.5 -7.5q-27.5 -6.5 -54 -17q-66 -29 -100.5 -80.5q-34.5 -51.5 -34.5 -122.5q0.5 -65 29 -125.5q28.5 -60 77.5 -108q48.5 -48 110 -76.5q61.5 -28 127.5 -28.5l13 0.5q6 0 15.5 1.5q5.5 1 10.5 1l8 0q15 0 23.5 -7q8.5 -7 8.5 -18.5q0 -10.5 -7.5 -20q-7 -9 -22.5 -19q-15.5 -9.5 -30.5 -15.5q-15 -6 -24.5 -6q-6 0 -13.5 2q-7.5 1.5 -22.5 6q-15 5 -32 10q-17.5 4.5 -42.5 10q-25 6 -63.5 14l-92.5 18.5q-41.5 9 -73.5 17.5q-85 20.5 -137 32.5q-52 12 -80 18q-28 6 -42.5 8l-24 1.5q-15 0 -25.5 -3.5q-10 -4 -20.5 -14q-12 -10 -19.5 -22q-7.5 -12 -14.5 -31" />
</g>
<g id="PathID_310" transform="matrix(0.010049, 0, 0, 0.010049, 121.9, 10.55)">
<path style="fill:#000000;fill-opacity:1" d="M177.5 -644.5q33.5 38 70.5 56.5q36.5 18.5 78.5 18.5q41.5 0 90 -8.5q49 -8 100.5 -24.5q18 28.5 37 60.5q18.5 32 35 62.5q-64 19.5 -119.5 29q-55 10 -99.5 10q-40.5 0.5 -68.5 -13.5q-28.5 -14 -52.5 -47l-12 9.5q12.5 24 23 37.5q11 13.5 26 24q22 15 47.5 22.5q26 7 59 7q31.5 0 69 -5q37.5 -4.5 75.5 -13.5q38.5 -8.5 73.5 -20.5q28.5 55 48.5 99q19.5 44.5 28 75.5q-55 -12 -101.5 -17.5q-46 -5 -91 -5q-81 0.5 -142 19.5q-60.5 19 -94 53q-33.5 34.5 -34 81q0.5 40.5 26 74q26 33.5 73 55q35 14.5 86 22.5q50.5 8 111 8l58 -2q28 -2.5 50 -5.5q22 -3.5 32 -8q8 -3 11.5 -8q4 -5 4 -11q-0.5 -13.5 -11 -25.5q-10 -12.5 -25.5 -20.5q-15.5 -8 -31 -8.5l-5.5 0.5q-3 1 -7 1.5q-35.5 8.5 -64 11.5q-28.5 3 -65 3q-94.5 0 -144 -25q-49 -24.5 -49.5 -72.5q0 -26 15 -46.5q15 -20.5 46.5 -36.5q26.5 -13.5 59.5 -21q33 -7.5 68.5 -7.5q45.5 0 90 9q44.5 9 82.5 24.5q38.5 16 65 37q11.5 10 17 13q5.5 3 11.5 2.5q15.5 -0.5 25 -18.5q9 -17.5 9 -48q0 -14.5 -4 -27.5q-4.5 -13.5 -13.5 -27.5l-17.5 -29l-12 -21l-17.5 -31.5l-9 -15.5q-4.5 -8.5 -13 -23l-24 -41.5q103.5 -36.5 151.5 -61.5q47.5 -25.5 47 -43.5q0 -12 -7.5 -19q-7.5 -6.5 -20 -7l-4 0.5l-4.5 0.5l-16 2q-3 0.5 -2 0q-15.5 0 -36.5 -7q-21 -7 -50 -21.5l-7 10.5q17.5 13.5 28 22.5q10 9.5 25.5 25.5q-13 8 -27 15q-14 6.5 -37 16q-23.5 9.5 -63 25q-21 -33.5 -33.5 -55q-12 -21 -17 -28.5l-12 -20.5l-10.5 -17.5q63 -20 101 -33q37.5 -13 49.5 -18.5q39.5 -16 53.5 -25.5q14 -9.5 13 -19.5q0 -13 -15 -20q-15 -6.5 -45 -6.5q-11.5 0 -19.5 2.5q-7.5 2.5 -13.5 7.5q-13 14 -29.5 25q-16 10.5 -43 22q-27.5 12 -74 29q-20 -39.5 -28.5 -57.5q-9 -18.5 -11 -26.5q-2 -8 -2.5 -17.5q-1 -20.5 -3.5 -27.5q-2 -7 -8.5 -12.5q-7 -6 -25 -9.5q-18 -3.5 -45 -3.5l-24 1q-11 1 -23 4q-20 4 -28 9q-8 5 -13 17.5q28.5 3 49 8.5q20 5.5 30 13q12 9 28 28q16 18.5 32 41.5q16 23 28 45.5q-23 8.5 -53 15.5q-30 7 -60.5 11q-30.5 4 -54.5 4q-39.5 0.5 -70 -10q-31 -10.5 -66 -36l-8 11" />
</g>
<g id="PathID_311" transform="matrix(0.010049, 0, 0, 0.010049, 132.15, 10.55)">
<path style="fill:#000000;fill-opacity:1" d="M177 -646q25 34 50.5 53.5q25.5 19 58.5 27q33.5 8 81.5 7.5q25.5 0 58 -1.5l74 -5.5l0 12l2 75l0 59l0 4.5l0 8l-56 5.5l-43.5 1.5q-45 0 -76 -6q-31 -5.5 -43.5 -16.5q-11.5 -8.5 -16.5 -22q-4.5 -13 -5 -36.5l-15.5 -1q-1 8.5 -1.5 16q-0.5 7.5 -0.5 13q0 24 12 44q11.5 20 34 33.5q18.5 11.5 52.5 17q34 5.5 83.5 5.5l28.5 -1l47.5 -2l0 15.5l0 10l0 17.5l0 30l0 9l0 7l0 14q0 7 0.5 20q0 13 0.5 37l-28.5 -1l-22.5 0q-69 0.5 -120.5 16q-52 15.5 -81.5 43.5q-29 28 -29.5 64.5q1 49 48 79q47 29.5 125 30.5q42 0 78.5 -10q36.5 -10 58.5 -28q18 -14 26.5 -35q8.5 -21 8.5 -51q0 -8.5 -1 -18.5q-0.5 -10 -2 -26.5q30.5 8 54 18q23 10 48.5 25q23 14 47.5 32.5q24.5 18 38.5 31q19 19 26.5 24q7.5 5.5 14 5q10.5 -0.5 16.5 -10q6 -9.5 6.5 -26q-0.5 -20 -8 -37.5q-7.5 -17 -22 -30q-21 -18.5 -55.5 -35q-35 -17 -78.5 -30.5q-43.5 -14 -91 -23q-2.5 -18 -3.5 -35q-1.5 -16.5 -3 -45q-0.5 -17.5 -0.5 -31l-1 -27.5l-1.5 -33.5q38 -3.5 83 -11.5q44.5 -8 84 -18.5q47.5 -12 63.5 -21.5q16.5 -9 15.5 -22.5q0 -6 -3 -11q-3.5 -5 -9.5 -8q-10 -6.5 -25.5 -11q-15 -4.5 -26.5 -4.5q-5 0 -8.5 1q-4 1 -7 3q-13.5 9.5 -23 14.5q-9.5 4.5 -28 11q-26.5 8.5 -56 15.5q-29.5 7 -61 12l-1 -53l0 -40l0 -31.5l1 -34q46 -5 95 -14q48.5 -9.5 100.5 -21.5q47 -11 64 -19.5q17 -8 16 -18.5q0 -7 -4.5 -13q-4.5 -6 -13 -11.5q-9.5 -6.5 -26 -12q-17 -5 -27 -5.5q-2.5 0 -6.5 1.5q-3.5 1 -6 2.5q-24.5 17.5 -70 32q-45 14 -120.5 28.5q2.5 -40 7 -67q4.5 -27 11.5 -41.5q9.5 -20.5 11.5 -26q2 -5.5 2 -9q0 -11.5 -8.5 -19.5q-8 -8 -26.5 -14q-18 -6.5 -41 -10q-23 -3.5 -45 -3.5q-20.5 -0.5 -31 3q-10.5 3 -20 13.5q28.5 3.5 46 11q17 7.5 26 25.5q8.5 18 12 52.5q3.5 35 5 93q-46 7 -80 10l-66.5 2.5q-38.5 0 -65.5 -4.5q-27 -4.5 -50 -16.5q-23 -12 -49.5 -34.5l-10 10.5M500.5 -145.5l0 3.5l-0.5 19.5l-1.5 19q-2.5 19 -7.5 32q-5.5 12.5 -15 21.5q-19 18 -49 27.5q-30 9.5 -68 9.5q-52.5 0 -82 -15.5q-29 -15 -29.5 -43q0 -40 55.5 -61.5q24 -9.5 52.5 -14.5q28.5 -5 59 -5l38.5 1.5l47.5 5.5" />
</g>
<g id="PathID_312" transform="matrix(0.010049, 0, 0, 0.010049, 142.4, 10.55)">
<path style="fill:#000000;fill-opacity:1" d="M362.5 58.5q47.5 -21 85.5 -45.5q38 -24.5 67 -52q53.5 -50.5 82 -117.5q28.5 -66.5 29 -142.5q0 -26 -3 -47q-2.5 -21 -10 -42.5q-7 -21 -20 -46.5l-1 -20.5l0 -14.5q0 -19.5 1 -44.5q1 -25 2.5 -50q1.5 -25 4 -45l56 -3q25.5 -1 53.5 -1l81.5 2.5q37 2.5 76 8l33.5 4l14.5 1.5l7.5 0.5q11.5 0 17 -4.5q5.5 -4.5 5.5 -13q0 -8 -3.5 -14.5q-4 -6.5 -13 -13q-20 -16 -45.5 -27q-25 -10.5 -41.5 -11q-5.5 -0.5 -12.5 2q-7 2 -25.5 9q-12 4.5 -25 7.5q-13 3 -38 5.5l-73 5.5l-29 2.5l-17.5 1.5l-20 2.5q3 -36.5 8.5 -60q5.5 -24 14 -39.5q6.5 -12.5 8.5 -17.5q2 -4.5 1.5 -10q0 -11 -10 -20.5q-10 -9 -29 -15.5q-22.5 -7 -47.5 -10.5q-25.5 -4 -52 -4q-20 0 -29 3.5q-9.5 4 -18 15q39 5.5 59.5 17q20.5 12 28.5 33.5q6 16 9 42q2.5 26 2.5 71.5l-68 7.5l-57 7.5q-27.5 3.5 -60 8.5l-77 12.5q-33.5 5 -53.5 7l-35 2q-30.5 0 -55 -13q-24.5 -13 -44 -39q-2.5 3.5 -4 7q-1 3.5 -1 5q0 13 12 34.5q11.5 21 28.5 40q18 18.5 35 29q17 10 31 10q4.5 0 11.5 -2q7 -1.5 12 -3q17 -9 32.5 -15.5q15 -6 34 -12q63 -19 130 -32q67 -13.5 128 -19l1 12.5l0 7.5q0 17 -0.5 38.5q0 21.5 -0.5 40.5l0 28q-19.5 -10.5 -31.5 -14q-12 -4 -26 -3.5q-38 0.5 -68 20.5q-29.5 20 -46.5 55.5q-17 35 -17.5 80.5q0.5 42.5 16.5 75.5q16.5 33 45 52.5q28 19 64.5 19.5q17.5 0 32.5 -5q15.5 -5 33 -15.5q-12.5 54 -35.5 97q-23 43 -61.5 81q-38.5 38 -97.5 78l8 13.5M551 -344q0 47.5 -16.5 71.5q-16 24.5 -49 24.5q-37 -1 -59.5 -31.5q-23 -30.5 -23.5 -80q1 -48 23.5 -78.5q23 -31 58.5 -32q33.5 0 50 31q16.5 31 16.5 95" />
</g>
<g id="PathID_313" transform="matrix(0.010049, 0, 0, 0.010049, 152.65, 10.55)">
<path style="fill:#000000;fill-opacity:1" d="M192.5 -169q-36.5 0.5 -66.5 18q-29.5 18 -47.5 47.5q-17.5 30 -18 66.5q0.5 37 18 67q18 29.5 47.5 47.5q30 17.5 66.5 18q36.5 -0.5 66.5 -18q29.5 -18 47.5 -47.5q17.5 -30 18 -67q-0.5 -37 -18 -67q-17.5 -29.5 -47 -47q-30 -17.5 -67 -18M192.5 -136q42.5 1 70 29q28 28 29 70q-1 42.5 -29 70.5q-27.5 28 -70 29q-41.5 -1 -70 -29.5q-28 -28 -29 -70q1 -42 29 -70q27.5 -28 70 -29" />
</g>
</svg>
