<?xml version="1.0" encoding="utf-8"?>
<svg version="1.1" id="Layer_1"
xmlns="http://www.w3.org/2000/svg"
xmlns:xlink="http://www.w3.org/1999/xlink"
xmlns:author="http://www.sothink.com"
width="83px" height="13px"
xml:space="preserve">
<g id="PathID_314" transform="matrix(0.010049, 0, 0, 0.010049, -2.2, 10.55)">
<path style="fill:#000000;fill-opacity:1" d="M275.5 -721q21 22.5 36.5 36q16 13.5 35.5 23.5q24.5 12.5 56 20q31.5 7.5 60.5 7.5q15 0 37 -1l40 -2l-14.5 8.5q-6.5 4 -22 12.5l-49.5 27q-19.5 10.5 -35.5 20l-39.5 23l7 15.5q13.5 -5 20 -8l20 -8.5l43 -18.5l21.5 -9l19.5 -7.5l74.5 -28q25.5 -9 41 -13.5q15.5 -4.5 34 -8.5q34 -7.5 50 -12q16 -5 20.5 -10q5 -5 4.5 -13.5q-0.5 -11.5 -10 -24q-10 -12 -24 -20.5q-14 -8.5 -27.5 -9q-2.5 0 -8 1.5q-5 1 -10.5 3q-30 9 -66.5 16q-36.5 7 -74.5 10.5q-38 4 -72 4q-34 0 -59.5 -4q-25.5 -4 -48.5 -14q-23 -10 -48.5 -27q-5.5 5 -10.5 10M237 -331q-8.5 25.5 -12.5 46.5q-4 21.5 -4 39.5q0.5 49.5 23 93q23 43.5 62 69q37.5 26 95.5 37.5q57.5 11.5 143 11.5q46 0 92 -2.5q45.5 -2.5 84 -7q38.5 -5 62.5 -11q16 -4 24.5 -12q8 -8 8 -19.5q0 -9.5 -5.5 -18.5q-6 -9 -17 -17.5q-13.5 -8.5 -28.5 -14.5q-15.5 -5.5 -27.5 -6q-4 0 -8.5 1q-4.5 1 -9 3q-46 17 -105.5 27q-59.5 10 -121 10q-123 0 -182.5 -44q-59.5 -44 -59 -135q0 -10.5 1 -20q0.5 -10 2 -26.5l-17 -4" />
</g>
<g id="PathID_315" transform="matrix(0.010049, 0, 0, 0.010049, 8.05, 10.55)">
<path style="fill:#000000;fill-opacity:1" d="M511 -3q64 -11 110 -25.5q46.5 -14.5 89.5 -38q97.5 -52.5 150.5 -133q53 -80.5 53.5 -177.5q0 -74.5 -24.5 -134.5q-24.5 -60.5 -74 -106q-50 -45.5 -118 -69.5q-68 -24.5 -146 -24.5q-67.5 0 -132.5 17.5q-65 17.5 -121.5 49.5q-56.5 32 -98.5 76q-43 48 -67.5 101q-24 53 -24.5 102q0 24 5.5 46.5q6 22.5 18 46.5q14.5 28.5 23 44.5q8 16.5 13 28q5 11 9 24q8.5 24 13.5 36q4.5 12 7.5 18q3.5 6 8 11.5q8.5 10 20 15.5q11.5 6 25 6q28 0 66 -38q38 -38 86.5 -114.5q39 -63.5 69.5 -129.5q30.5 -66.5 47.5 -125.5q17.5 -58.5 18 -99.5q0.5 -21.5 -6.5 -40q-7 -19 -25.5 -45l19.5 -1.5l16.5 -0.5q49.5 0 96 12.5q46.5 12 81.5 34.5q56.5 36.5 86 94q29.5 57.5 29.5 132.5q0 71 -23 133q-23 62 -68 114q-43 50 -100.5 84q-57 34 -139.5 58q3.5 9 7.5 17.5M484 -677q8.5 18.5 11.5 29.5q3 11 3 22q-0.5 32.5 -17 83.5q-16.5 50.5 -45.5 111q-29.5 60.5 -67.5 122q-38.5 60.5 -71 97.5q-33 36.5 -50.5 37.5q-8.5 0 -18.5 -8q-10 -7.5 -20.5 -21.5q-19.5 -27.5 -30 -63q-11 -35 -11 -72.5q1 -79.5 42.5 -150.5q42 -71 113.5 -120.5q71 -50 161 -67" />
</g>
<g id="PathID_316" transform="matrix(0.010049, 0, 0, 0.010049, 18.3, 10.55)">
<path style="fill:#000000;fill-opacity:1" d="M648 -640l326.5 0q4 0 6 -1.5q2.5 -1.5 2.5 -3.5q0 -1 -1 -2.5l-1 -2.5l-36.5 -33l-29 -26.5l-36 -32l-21 27q-9 11 -17.5 22.5l-21 28.5l-285.5 0q14.5 -25.5 24.5 -44q10 -18.5 18.5 -36.5q8.5 -18 18.5 -41.5l15 -3.5l11.5 -2.5q7 -1.5 12.5 -3.5q6 -2.5 10 -4.5q2.5 -2 3.5 -4.5q1.5 -2.5 1.5 -5q1 -4 -7 -8.5q-8.5 -5 -35 -13.5q-26.5 -9 -80.5 -26q-5 32 -13.5 63q-8.5 30.5 -22 66q-14 35.5 -35.5 82q-26 57 -49 100q-22.5 43 -47.5 81q-24.5 38.5 -57 82l11 9q38.5 -35.5 71 -73q32.5 -37 65 -83.5q32.5 -46 71 -109.5l56.5 0l0 461.5l0 19l-0.5 30.5l-1.5 59q-0.5 28.5 -0.5 45.5q-0.5 17 -0.5 29.5q-0.5 12 -0.5 26l-0.5 36.5q-0.5 9 4.5 12q5 3.5 17 3q31.5 0.5 44.5 -4q13 -4.5 12.5 -15.5l0 -0.5l0 -1.5l-1 -60.5l-1 -38.5q0 -16 -0.5 -32.5l-0.5 -42.5l-1 -39.5l0 -27l0 -44l305 0q4 0 6.5 -1.5q3 -1.5 3 -4.5q0 -1 -1.5 -3l-2.5 -4.5q-18.5 -17.5 -31.5 -29q-12.5 -12 -25.5 -23.5l-32.5 -28l-21 24.5l-17 20l-21 26l-162 0l0 -191.5l306 0q4 0 6.5 -1.5q3 -1.5 3 -3.5q0 -1.5 -1.5 -4l-3.5 -4.5q-18 -17.5 -31 -29q-12.5 -12 -25.5 -23.5l-33 -27l-20 23.5l-16 20l-20 26l-165 0l0 -178M53 -349.5q26 -24 46 -44.5q20 -20.5 41.5 -46.5q21.5 -26.5 52 -66.5l0 300q0 81 -1.5 146q-1.5 64.5 -4.5 127.5l0 3q-0.5 6.5 4 9q4.5 2.5 17.5 2q11.5 0 26 -2q15 -1.5 22 -4q5 -1.5 7 -4q2 -2.5 2 -6.5q0 -1.5 -0.5 -3q-0.5 -1.5 -0.5 -3q0 -27 0.5 -49l0.5 -35l0 -47.5q0 -25.5 -1 -55l-1 -48.5l0 -30l0 -286.5q18.5 -9 24.5 -13.5q6 -4.5 5 -10q0.5 -5.5 -2 -7.5q-2.5 -1.5 -10 -3l-36 -6l-17 -2.5l-12.5 -1.5q31.5 -42 55 -77.5q23 -35 46.5 -77.5q23.5 -42.5 55 -105l28 -6.5q10 -2 13 -3q2.5 -1.5 4 -4q1 -2.5 1 -5q0 -3 -1.5 -5q-1.5 -2 -5.5 -4.5l-22.5 -8.5l-41.5 -14q-23.5 -8.5 -47.5 -16q-6 39.5 -24 88.5q-18 49 -53 120q-30.5 62.5 -59 114q-29 51 -58.5 95.5q-30 45 -63.5 87.5l12 9" />
</g>
<g id="PathID_317" transform="matrix(0.010049, 0, 0, 0.010049, 28.55, 10.55)">
<path style="fill:#000000;fill-opacity:1" d="M238.5 -424q58.5 32.5 95 53q36.5 20.5 59.5 34.5q23.5 13.5 43 26q19 12.5 43.5 29q-17.5 19.5 -33 35q-16 15.5 -35 31.5q-34 30.5 -65.5 54q-31 24 -63.5 44.5q-32.5 20.5 -71.5 42l9 15q42 -16.5 75.5 -32.5q33 -16.5 64 -35.5q30.5 -19 65.5 -44.5q28 -20.5 50.5 -40q22.5 -19.5 43.5 -42q43.5 30.5 73.5 54.5q30 23.5 55 46.5q25 23.5 53 53.5q19 21 25.5 26.5q6.5 5 12.5 4.5q7.5 -0.5 12.5 -7.5q4.5 -7 5 -17q-1.5 -29 -7.5 -49q-6 -20 -17.5 -35q-17 -21.5 -63.5 -53.5q-46.5 -31.5 -110.5 -65.5q46.5 -56 81.5 -106.5q35 -51 65 -108.5q30.5 -58 62.5 -134l1.5 0l0.5 0q20.5 0 29 -3q8 -3 8 -10.5q0.5 -4.5 -8 -9.5q-8.5 -5.5 -30.5 -14q-22.5 -8.5 -64 -22.5q-20.5 92.5 -70 192q-49.5 99.5 -121.5 192q-47.5 -24 -87.5 -42.5q-40.5 -18.5 -82 -36q-42 -17.5 -94.5 -38.5l-8.5 13.5M260 -657.5q19 33 31.5 55.5q12.5 23 21 42q8.5 19.5 16 42q8 22.5 17.5 55q3 10 7 14.5q3.5 4 9.5 4q8.5 -0.5 17 -11q9 -10.5 14.5 -25.5q6 -15.5 6.5 -30q0 -11 -4.5 -22q-4 -11.5 -12 -23q-21 -28.5 -49 -56q-28 -27.5 -62.5 -53.5l-12.5 8M421 -708.5q30 44.5 51.5 87q21.5 42.5 35.5 84q6.5 21.5 11.5 29q4.5 7 12 6.5q7.5 -0.5 15.5 -11q8 -10.5 13.5 -25.5q5.5 -15 6 -29q0 -10 -4 -20q-4 -10 -11.5 -21q-19 -26.5 -45 -51q-26.5 -24 -73 -58.5q-6 4.5 -12 9.5M169 0l682 0l0 54.5q-0.5 7.5 4 10q4.5 2.5 16.5 2l25.5 -1.5q13 -1 18.5 -3.5q4.5 -1.5 6.5 -4.5q2.5 -3 2.5 -9l0 -42.5q0 -16.5 -0.5 -30q0 -13.5 -0.5 -31l-1 -47l-1 -93.5q-0.5 -37.5 -0.5 -66.5q-0.5 -28.5 -0.5 -57l0 -65l0 -91.5l0 -261.5q24 -14 31.5 -21q8 -7 7.5 -12.5q0 -3 -2.5 -6.5q-2.5 -3.5 -8 -9l-22.5 -18q-9 -7.5 -19 -14.5l-24 -16.5q-21.5 24.5 -42.5 49l-658.5 0l-30.5 -20q-12.5 -7.5 -25.5 -14q-12.5 -6 -31 -14l3 119q1 44 1 58q0 164.5 -0.5 281q0 116.5 -1 197q-0.5 80.5 -2 137q-1.5 56.5 -3.5 101q1 6.5 5 9q4 2.5 12 2l26 -1q12.5 -0.5 20 -3q6 -0.5 9 -4q3 -3.5 4.5 -10.5l0 -51M169 -763l682 0l0 739.5l-682 0l0 -739.5" />
</g>
<g id="PathID_318" transform="matrix(0.010049, 0, 0, 0.010049, 38.8, 10.55)">
<path style="fill:#000000;fill-opacity:1" d="M511 -3q64 -11 110 -25.5q46.5 -14.5 89.5 -38q97.5 -52.5 150.5 -133q53 -80.5 53.5 -177.5q0 -74.5 -24.5 -134.5q-24.5 -60.5 -74 -106q-50 -45.5 -118 -69.5q-68 -24.5 -146 -24.5q-67.5 0 -132.5 17.5q-65 17.5 -121.5 49.5q-56.5 32 -98.5 76q-43 48 -67.5 101q-24 53 -24.5 102q0 24 5.5 46.5q6 22.5 18 46.5q14.5 28.5 23 44.5q8 16.5 13 28q5 11 9 24q8.5 24 13.5 36q4.5 12 7.5 18q3.5 6 8 11.5q8.5 10 20 15.5q11.5 6 25 6q28 0 66 -38q38 -38 86.5 -114.5q39 -63.5 69.5 -129.5q30.5 -66.5 47.5 -125.5q17.5 -58.5 18 -99.5q0.5 -21.5 -6.5 -40q-7 -19 -25.5 -45l19.5 -1.5l16.5 -0.5q49.5 0 96 12.5q46.5 12 81.5 34.5q56.5 36.5 86 94q29.5 57.5 29.5 132.5q0 71 -23 133q-23 62 -68 114q-43 50 -100.5 84q-57 34 -139.5 58q3.5 9 7.5 17.5M484 -677q8.5 18.5 11.5 29.5q3 11 3 22q-0.5 32.5 -17 83.5q-16.5 50.5 -45.5 111q-29.5 60.5 -67.5 122q-38.5 60.5 -71 97.5q-33 36.5 -50.5 37.5q-8.5 0 -18.5 -8q-10 -7.5 -20.5 -21.5q-19.5 -27.5 -30 -63q-11 -35 -11 -72.5q1 -79.5 42.5 -150.5q42 -71 113.5 -120.5q71 -50 161 -67" />
</g>
<g id="PathID_319" transform="matrix(0.010049, 0, 0, 0.010049, 49.05, 10.55)">
<path style="fill:#000000;fill-opacity:1" d="M559 -713.5q37.5 -6 70.5 -13q33 -7 72.5 -17q39 -10 95.5 -25.5q18.5 4 29 5.5q11 1.5 16 1.5q8 0 13 -3q5.5 -3.5 5.5 -8q1 -5 -21 -20q-21.5 -14.5 -75 -45.5q-53 25 -108 43q-55 18 -126.5 34.5q-83.5 18.5 -184 34q-100.5 15.5 -210 26.5l3 18.5q72.5 -1 130 -3.5q58 -2.5 110 -6.5q52 -4.5 107 -10.5l0 169l-239.5 0q-27.5 0 -56.5 -2.5q-29 -2 -53 -6.5l5 39.5q21 -3 48.5 -5l52 -2l243.5 0l0 186.5l-298 0q-30 0 -61 -3q-31 -3 -61 -8.5q3 20.5 6.5 41q23.5 -2.5 55 -4l60.5 -2l298 0l0 258q0.5 9 -3.5 12.5q-3.5 3.5 -15 5l-34 -1l-32.5 -1l-50 -3l-86 -5.5l-1 18.5q49 6.5 82 13q33 7 53 15q19.5 7.5 27.5 20q8 12 10.5 38q50 -10 76.5 -20.5q27 -10.5 36.5 -25.5q10 -15 9.5 -40l0 -3l0 -5q-0.5 -123.5 -1 -187.5l0 -69.5l0 -18.5l405.5 0q4.5 0 8 -2q3 -1.5 3.5 -4q0 -1.5 -1 -3.5l-2.5 -4q-19.5 -18.5 -33.5 -30.5q-13.5 -12.5 -27.5 -24q-14 -12 -35 -28.5l-24.5 25.5q-10 10.5 -19.5 21.5l-23.5 26l-250 0l0 -186.5l349 0q5.5 0 8.5 -2q3 -2 3 -5q0 -1 -1 -3q-0.5 -1.5 -2 -3.5q-20.5 -18.5 -34.5 -30.5l-28 -24.5q-14.5 -12 -36 -28.5l-22 25.5l-18 21.5l-23.5 26.5l-195.5 0l0 -180" />
</g>
<g id="PathID_320" transform="matrix(0.010049, 0, 0, 0.010049, 59.3, 10.55)">
<path style="fill:#000000;fill-opacity:1" d="M968.5 -764q4 0 7 -2q3 -2 3 -5q0 -1.5 -1.5 -4q-1 -2 -3.5 -4.5q-18.5 -14.5 -31 -24l-25 -20l-31 -24.5q-16 19 -25 30.5l-24 30l-252.5 0q-19 0 -37.5 -2q-18.5 -1.5 -50 -6q4 17.5 7.5 35.5l38.5 -3l29 -1l101.5 0q-2.5 30.5 -8.5 58.5q-6 28 -18.5 68.5l-47 0q-15 -10 -26 -16.5q-11 -7 -22.5 -13q-11.5 -6 -29 -14.5q2 25 3 56.5q1 31 1.5 80q0.5 48.5 0.5 126.5l0 87.5l-1 70q0 32.5 -0.5 66.5q-1 34.5 -1.5 77q0 7 3.5 10q4 2.5 14 2.5q28 0 39 -3.5q11.5 -4 11 -13l0 -1l0 -2l0 -23.5l245.5 0l0 29.5l0 3q0 4 2.5 6.5q2.5 2 7.5 2l1 0l1.5 0q4.5 -1 11 -1l13.5 -1q20 -0.5 27 -3.5q7 -3 6.5 -12q0 -1 -0.5 -2q-0.5 -1.5 -0.5 -3l-1.5 -69l-1 -99.5q-1 -55 -1.5 -112.5l-1 -107l0 -84q16 -7 23.5 -11.5q7 -5 7 -9q0 -4 -2.5 -7q-2.5 -3.5 -7.5 -8.5l-23.5 -17.5q-8 -6 -15 -11l-19 -15.5l-19 23.5l-16.5 20.5l-158.5 0q15.5 -20 26 -34.5q10.5 -14 23.5 -34.5q13.5 -20 37 -58l211 0M837.5 -488.5l-245.5 0l0 -125l245.5 0l0 125M837.5 -465l0 128l-245.5 0l0 -128l245.5 0M837.5 -313.5l0 142.5l-245.5 0l0 -142.5l245.5 0M38 13q43 -57 72 -115.5q28.5 -58.5 44.5 -130q16.5 -71.5 23.5 -166.5q6.5 -95.5 6.5 -225.5l0 -122l0 -11l0 -23q17 -5 25.5 -10.5q8.5 -5 8.5 -10q0 -5.5 -8.5 -9.5q-8.5 -4 -31 -7.5q-22.5 -4 -64 -8.5l3.5 49l2 51q0.5 27.5 0.5 65q0 81 -2 159.5q-2.5 78.5 -6.5 143.5q-3.5 65 -9 106.5q-7 55.5 -16 98.5q-9.5 43 -23.5 81.5q-14 39 -35 81l9 4M312.5 -351.5l1 -388q18 -5 26 -10.5q8 -5 7.5 -12q1.5 -7.5 -20 -12.5q-21 -5.5 -78 -13l2.5 55.5q1.5 26.5 2 55.5q0.5 29 0.5 67q0 119.5 -0.5 205q-0.5 85.5 -2 151q-1 65.5 -2.5 126.5q0 6 3 8.5q3.5 3 10 2.5l1 0l1.5 0l5 -0.5l7 -0.5q22 0.5 29.5 -2.5q8 -2.5 8.5 -11.5l-2 -220.5M381 -828.5q1 14 2 34.5q1 20 1.5 57l1 101.5q0 65 0.5 168l0 255.5q0 26.5 -0.5 50.5q0 23.5 -0.5 51l0 65.5q0 6.5 2.5 9.5q3 3 9.5 2.5q11 0 23.5 -0.5q12.5 -1 18.5 -2.5q9 -0.5 12 -3q3 -2.5 3.5 -9q-1.5 -53 -2.5 -95.5l-1 -87q-0.5 -45 -0.5 -105l0 -149l0 -298q20.5 -3.5 29.5 -8q8.5 -5 8.5 -12.5q0.5 -6.5 -13 -10.5q-14 -4.5 -48.5 -9q-15.5 -1.5 -46 -6M740.5 -87q60 30 98 56q38 26 60.5 52.5q17.5 19.5 26.5 26.5q8.5 6.5 16.5 6q7.5 0 12.5 -8.5q4.5 -8 4.5 -22q0.5 -25 -7.5 -40.5q-8.5 -15.5 -28 -28q-21.5 -15 -63.5 -28.5q-42 -13 -115.5 -29l-4 15.5M347 68.5q95.5 -20.5 169 -48.5q73.5 -28.5 137.5 -70.5q31.5 -2.5 40 -5q8 -2.5 7 -9q0 -6 -19.5 -16q-19.5 -10 -62.5 -25q-27 28.5 -70.5 58q-44 29.5 -97 56q-53 26.5 -109 45.5l5 14.5" />
</g>
<g id="PathID_321" transform="matrix(0.010049, 0, 0, 0.010049, 69.55, 10.55)">
<path style="fill:#000000;fill-opacity:1" d="M148.5 -665.5q23 30 45 47.5q22 17 47.5 24.5q25.5 7 60 7l29.5 -1q14.5 -1.5 39 -5q-36 54 -65.5 93q-29.5 38.5 -59.5 68.5q-29.5 30 -65.5 58.5q-14 11 -20.5 17.5q-6 6 -8 12q-1.5 6 -1 16.5q0 24.5 7.5 39.5q7.5 14.5 20 14.5q7.5 0.5 15.5 -6.5q8.5 -6.5 22.5 -26q56 -71 113.5 -109.5q57 -38.5 108.5 -39q17.5 0 31 8.5q14 8 21.5 22q7.5 15.5 10.5 32.5q3 17.5 3.5 48.5q-49.5 31 -78.5 51.5q-29.5 21 -48.5 39.5q-37.5 36 -55.5 70q-18 34.5 -18 70.5q0 37 18 63.5q18.5 26.5 57.5 45q31 14.5 83.5 22q52 7.5 124.5 7.5q32.5 0 66.5 -2l65 -5q30.5 -3 52 -7.5q15.5 -3 23.5 -10q8.5 -7.5 8.5 -17.5q-0.5 -11.5 -11.5 -23.5q-11 -11.5 -27.5 -19.5q-16.5 -8 -33 -8l-9 0.5l-10.5 2.5q-47 13.5 -99.5 21q-52.5 7.5 -106.5 7.5q-86 0 -128.5 -20q-42.5 -20.5 -42.5 -62q0 -23 12.5 -46.5q12.5 -24 38 -48.5q19 -18.5 46 -37q27 -18.5 73.5 -44q-0.5 34 -2.5 60.5q-1.5 27 -4.5 49q-1 5.5 -1 9.5l0 8q0 13.5 9 22q9 8.5 23.5 8.5q9.5 0 17 -5.5q8 -5 12 -13.5q3.5 -8 6 -31q2 -22.5 2 -57l0 -34q0 -12.5 -0.5 -23q0 -10.5 -0.5 -26q41 -20.5 93 -42q52 -21.5 101 -38.5q49 -17.5 80.5 -25q21.5 -4.5 29.5 -11q8 -7 7.5 -20.5q-1 -21.5 -20 -45q-19 -24 -45.5 -41q-26.5 -16.5 -50 -17.5l-10.5 1q-5 1.5 -13 5q22.5 9.5 34.5 22.5q12.5 12.5 12.5 25.5q0.5 9 -10 19.5q-11 10 -38.5 25.5q-27.5 16 -77.5 41q-41 20.5 -59.5 30q-18 9.5 -26 13q-7.5 3.5 -15 7.5q-7.5 -47 -38.5 -74.5q-30.5 -27.5 -76.5 -28q-28 0 -59 9.5q-30.5 9.5 -73 31.5l17 -24l16 -24l22.5 -34q17 -26 29 -43.5q12 -18 25 -36.5q41 -8 74.5 -15.5q34 -8 69 -18q35 -10 80 -24.5q23 -8 33.5 -16q10.5 -8 10.5 -17q-0.5 -15 -19.5 -24q-18.5 -9.5 -49 -10q-5.5 0 -10 2q-5 1.5 -9.5 5.5q-16.5 14 -34.5 24q-17.5 10.5 -44 20q-26.5 9.5 -69 21.5l8.5 -12.5l17 -27.5l14.5 -20.5q8 -12 15 -21.5q9 -11 13 -18q3.5 -6.5 3.5 -11.5q0 -9.5 -9 -18q-8.5 -8.5 -28 -16q-20 -8.5 -41 -13q-20.5 -4.5 -38.5 -4.5q-14 0 -24 2.5q-10 2 -22.5 9q39.5 9.5 56.5 23q17 14 16.5 34q0 17.5 -9.5 44.5q-9.5 27 -26.5 60q-34.5 7 -60 10.5q-25.5 3 -49.5 3q-27 0 -46.5 -4q-20 -4 -38.5 -14.5q-19 -10.5 -43 -29.5l-11 9" />
</g>
<g id="PathID_322" transform="matrix(0.010049, 0, 0, 0.010049, 79.8, 10.55)">
<path style="fill:#000000;fill-opacity:1" d="M82 122q27.5 -13 47 -27.5q19.5 -14 35 -33q20.5 -26 32 -57q11.5 -30.5 12 -62q-0.5 -43.5 -21.5 -68.5q-21 -25 -57.5 -25.5q-30.5 0.5 -49.5 19q-18.5 19 -19 48.5q-0.5 25 13.5 39q14 14.5 47 22.5q11 2 15.5 7q4 4.5 4 13.5q0 27.5 -19.5 51.5q-19 24 -59.5 48l20.5 24.5" />
</g>
</svg>
