<?xml version="1.0" encoding="utf-8"?>
<svg version="1.1" id="Layer_1"
xmlns="http://www.w3.org/2000/svg"
xmlns:xlink="http://www.w3.org/1999/xlink"
xmlns:author="http://www.sothink.com"
width="21px" height="13px"
xml:space="preserve">
<g id="PathID_280" transform="matrix(0.010049, 0, 0, 0.010049, -0.3, 10.65)">
<path style="fill:#000000;fill-opacity:1" d="M207 -167q0 44 -1.5 105.5q-1.5 61.5 -4.5 129q0.5 7 3.5 10.5q3 3 10.5 3q13.5 0 28 -2.5q15 -2 20.5 -4.5q3.5 -2.5 5.5 -5.5q1.5 -3 1.5 -9l-1 -62q-0.5 -24 -0.5 -45.5q-0.5 -22 -0.5 -51.5l0 -78.5l0 -206l36 -7.5q12.5 -2.5 24.5 -5.5l32.5 -7.5q5.5 16.5 9 28.5q3.5 12 6.5 25q2.5 9.5 6 14.5q4 5 9.5 4.5q12.5 -1 23.5 -21q10.5 -20 11 -44q0 -12 -5.5 -24q-5.5 -12.5 -17 -25.5q-21.5 -24.5 -44 -46q-23 -21.5 -49 -41l-10.5 10q14.5 21.5 23.5 37.5q9.5 15.5 16.5 30q7 14.5 14.5 33l-41 3.5l-33 2.5l-41.5 2.5l-66 3q43 -51.5 74.5 -91q31.5 -39 61 -79.5q30 -40 67.5 -94q25.5 -0.5 35.5 -4q10 -3.5 9.5 -10q0.5 -5 -7.5 -10.5q-7.5 -5.5 -29 -14.5q-22 -8.5 -63 -23q-13.5 39 -37.5 89.5q-24 50 -56.5 107.5q-13 23 -24.5 42q-12 19.5 -25.5 40.5l-33 48q-19.5 0.5 -28.5 0.5l-12.5 0.5l-8 0l-20.5 -1l-26.5 -2q7 38.5 11.5 58.5q5 20.5 9 27.5q4 7.5 9 7q5 0.5 9.5 -7.5q4 -7.5 10 -29.5l54.5 -8q17.5 -2.5 28 -4.5l26 -4.5l0 206.5M56.5 -686q32 36 54 68.5q21.5 33 33 61.5q10 29.5 14.5 36q4 7 11 6q11.5 -1.5 20.5 -20.5q9 -18.5 9.5 -42q0.5 -17 -11 -32q-11 -15 -40.5 -35.5q22.5 -26.5 39 -47.5q16.5 -21 35 -47.5q18 -26 45 -67.5l6.5 0.5l4.5 0.5q21 0 30 -3.5q9.5 -3 9 -9q1 -5 -4 -9.5q-5 -4 -28.5 -13q-23 -8.5 -77 -27.5q-3.5 23.5 -14.5 58q-10.5 34.5 -26 74.5q-15.5 40.5 -34.5 80q-17 -12 -30 -20.5q-12.5 -8.5 -35.5 -22.5q-5 6.5 -10 12.5M627 -754.5l24.5 -20.5q10 -8.5 20.5 -19q10 -10 25.5 -27q24.5 -1.5 33.5 -4.5q9 -3 8.5 -10q0.5 -4.5 -6.5 -8.5q-7 -4 -29 -11q-22 -7 -67 -19.5q-4.5 29.5 -14 61q-9 32 -21 59l-66.5 0l-24.5 -16q-10.5 -6.5 -21 -12.5q-11 -6.5 -27 -15.5q1 21 1.5 56q1 35 1 76.5q0.5 41.5 0.5 82l0 35.5q0 14 -0.5 30q0 16 -1 42.5l-1.5 71.5q0.5 7 3.5 9q2.5 2.5 8.5 2.5q11 0 24 -2q13 -2 19.5 -4.5q4.5 -1 6 -4q2 -3 2 -9l0 -28l110.5 0l0 418q0 7.5 -2.5 10.5q-2.5 3 -9.5 3l-52.5 -2l-44 -2.5l-56.5 -5l0 15.5l58.5 14q17.5 4.5 24 6.5q6 2.5 11 5q16 8 23 18.5q7.5 10.5 9.5 28.5q43 -8 66 -17q22.5 -8.5 31 -21.5q8 -13 7.5 -34q-1.5 -37 -2 -62.5q-1 -25 -1 -44l-1 -35l0 -44q-0.5 -17 -1 -22.5l-5 -163.5q10.5 45.5 22 81q12 36 27 68q15.5 32.5 37 68q22 36.5 44.5 65.5q22.5 29 50.5 55.5q27.5 27 64.5 56q10 -25 25 -37q15 -12 40.5 -16l4 -15.5q-37.5 -15 -69.5 -34q-32 -19 -69.5 -50q-29 -22.5 -50 -45q-21.5 -22.5 -40 -50.5q32 -15 53.5 -27.5q21.5 -12 41 -26q19.5 -14 45.5 -34.5l10 1l6.5 0q17.5 0 24.5 -2.5q7.5 -2.5 7 -7.5q0.5 -5 -5 -10q-5.5 -5 -25 -15.5q-19 -10.5 -59 -31q-25 42 -51.5 74.5q-26.5 32.5 -59 62q-20.5 -34 -33.5 -62q-13 -28.5 -21 -59.5q-8 -31 -14 -73.5l110.5 0l0 33q0 7 3 9.5q3.5 3 10.5 3q28 0 41.5 -5q13.5 -4.5 13.5 -13.5l0 -3q-2 -39.5 -3 -67.5q-1.5 -27.5 -1.5 -51.5q-0.5 -24.5 -0.5 -53.5l1 -125.5q17.5 -9 25 -15.5q8 -6 7.5 -11q0 -4 -3 -8.5q-3.5 -4 -10 -10l-25.5 -19l-28 -20q-13 13 -20.5 21.5q-8 8.5 -20 22.5l-172 0M526.5 -615.5l0 -115.5l282.5 0l0 115.5l-282.5 0M809 -592l0 128l-282.5 0l0 -128l282.5 0M45 36q25 -41.5 44.5 -84q19.5 -42.5 34.5 -90q15.5 -48 28.5 -106.5q20.5 -3 28 -7q7.5 -3.5 7 -9.5q0.5 -5 -6 -9q-6.5 -4 -26 -9.5q-19.5 -6 -58 -15.5q-0.5 18.5 -2 36q-1.5 18 -5 40q-3.5 22.5 -9.5 55q-6.5 36 -13 65q-6.5 29 -15.5 59.5q-9 30 -22.5 69.5l15 6M295 -300q14 33 23 59.5q9 26.5 15.5 53.5q6.5 27 11.5 61q4 23 6.5 30q3 6.5 8 6q8 -0.5 17 -11.5q9.5 -11 16 -26.5q6.5 -15.5 7 -28.5q0 -22.5 -24 -60.5q-23.5 -37.5 -69 -87l-11.5 4M446.5 -304l-27.5 -1.5q-13 -1 -33 -5.5q3.5 18 6.5 36.5q12 -3 27.5 -4.5l32.5 -1.5l75 0q-10.5 32 -21 56.5q-11 25 -24.5 48.5q-13.5 23.5 -33.5 51.5q-29 43.5 -57 74.5q-28.5 30.5 -69 64q5.5 7.5 10.5 15.5q45 -28.5 76 -54q30.5 -25 61 -59q38.5 -39.5 66 -81q27 -42 54 -99q27.5 -8 27.5 -15.5q0.5 -2.5 -2 -6.5q-2.5 -3.5 -10 -12q-14.5 -13.5 -24.5 -21.5l-25 -20.5l-16.5 16.5q-6.5 7 -16 18.5l-77 0" />
</g>
<g id="PathID_281" transform="matrix(0.010049, 0, 0, 0.010049, 9.95, 10.65)">
<path style="fill:#000000;fill-opacity:1" d="M721 -424q-2.5 98.5 -8.5 179q-5.5 81 -14 135.5q-6.5 39.5 -14 60.5q-7.5 21 -19 28.5q-12 7.5 -31.5 7l-41.5 -1.5l-68.5 -6.5l-118.5 -13.5l-1 18.5q40 7 63.5 12q24 5 37 9q13 3.5 21.5 7.5q16.5 8.5 24 20q7.5 12 8.5 32.5q60 -1.5 95.5 -7.5q35.5 -5.5 54.5 -18q18.5 -12.5 28.5 -34q19 -40 32.5 -140.5q14 -101 21.5 -263q21 -10.5 28.5 -16q8 -6 7.5 -11.5q0 -3 -2.5 -6.5q-3 -3.5 -9 -9q-18 -14.5 -30 -23q-12.5 -9 -33.5 -22l-21.5 19q-8.5 7.5 -21.5 20l-436 0l-42 -2q-19.5 -1.5 -46 -6l7 38.5q19.5 -3 41 -5l41 -2l130 0q-6.5 49 -13.5 85q-7 36 -16.5 65.5q-9.5 30 -23.5 60.5q-37.5 85 -103.5 152q-66.5 67 -171.5 124.5l7 14.5l47 -17.5q19.5 -8 36.5 -16q16.5 -8 35 -18q70.5 -39 120.5 -86q50 -47.5 81.5 -103.5q29.5 -53.5 48 -115q18.5 -62 30 -146l239.5 0M40 -377q43.5 -27 77.5 -52q34 -24.5 63 -50.5q29.5 -26 59 -58q33 -34.5 60.5 -69q27.5 -35 54 -77q26.5 -42 56.5 -98q28 -3.5 39 -7.5q11 -4 10.5 -11q1 -4.5 -11.5 -10.5q-12 -5.5 -50 -19l-22 -6.5q-13 -4.5 -29.5 -11q-12.5 40.5 -27 76q-15 35 -34 69.5q-19 34 -44.5 73q-29.5 46 -59 84q-29.5 37.5 -66 74.5q-36 37 -86 81l9.5 12M567.5 -826.5q9.5 8 16.5 18.5q7 10.5 16 28.5q25 51.5 44 85.5q19 34 37.5 60.5q18.5 26 42.5 54q40.5 46.5 85.5 84.5q45 38.5 109 80q17.5 -33.5 35 -48.5q17.5 -15 48 -22l-1 -13q-49.5 -15.5 -88.5 -32q-39 -17 -73.5 -38q-34.5 -21 -69.5 -49q-34 -27 -66.5 -63q-32.5 -36 -56.5 -72.5q-24.5 -36.5 -33.5 -64q-2.5 -6 -3.5 -12q-1 -5.5 -0.5 -14q-20.5 8.5 -41 16.5" />
</g>
</svg>
