<?xml version="1.0" encoding="utf-8"?>
<svg version="1.1" id="Layer_1"
xmlns="http://www.w3.org/2000/svg"
xmlns:xlink="http://www.w3.org/1999/xlink"
xmlns:author="http://www.sothink.com"
width="8px" height="13px"
xml:space="preserve">
<g id="PathID_345" transform="matrix(0.0114216, 0, 0, 0.0114216, -0.65, 11.35)">
<path style="fill:#000000;fill-opacity:1" d="M102.5 -412.5q-0.5 12 2 27q2.5 14.5 14.5 25q11.5 11 38.5 11.5q20.5 -1 35.5 -8q14.5 -6.5 19 -10.5q19.5 -14.5 46.5 -26.5q27 -12 72 -12.5q75 0.5 120.5 40.5q45.5 40 46.5 110q0.5 22 -7.5 49q-8 27 -29 52q-21.5 25.5 -61.5 42q-40 16.5 -103.5 17q-44.5 -0.5 -78.5 -8q-33.5 -7.5 -56.5 -15.5q-3 -1.5 -15 -5.5l-24.5 -8q-12.5 -3.5 -17 -4q-19 0.5 -33.5 16.5q-15 16 -15.5 42q0 21 10.5 33.5q10.5 12 32.5 21.5q55.5 23.5 110 32q54.5 8.5 94.5 8q104.5 -1 175.5 -38q71 -37 107 -99q36 -61.5 36 -137.5q-1 -81.5 -39 -140q-38 -58.5 -101.5 -89.5q-63.5 -31 -141 -31.5q-38.5 0.5 -67 8q-28.5 7.5 -57 18.5l0 -171q-0.5 -21 8 -29q8 -7.5 28 -7l257 0q27 0 41.5 -13.5q14.5 -14 14.5 -44q-0.5 -31.5 -17 -43.5q-16 -12 -39 -11.5l-292 0q-56 1 -80.5 22.5q-24.5 21 -29.5 49.5q-5.5 28 -4.5 50.5l0 277" />
</g>
</svg>
