<?xml version="1.0" encoding="utf-8"?>
<svg version="1.1" id="Layer_1"
xmlns="http://www.w3.org/2000/svg"
xmlns:xlink="http://www.w3.org/1999/xlink"
xmlns:author="http://www.sothink.com"
width="8px" height="11px"
xml:space="preserve">
<g id="PathID_348" transform="matrix(0.00970588, 0, 0, 0.00970588, -0.3, 8.95)">
<path style="fill:#000000;fill-opacity:1" d="M728 -371.5q-0.5 -126 -46 -212q-45 -86.5 -127.5 -131q-82 -44.5 -193 -44.5l-313.5 0q-10 0 -14.5 4q-5 3.5 -5 8q0 5 3.5 9q4 4 10 6.5q36 0.5 53 7q17.5 7 23 16q5.5 9.5 6 17q3.5 18.5 5 63.5q1 45.5 1 126.5l0 210q0 75 -0.5 119q0 44 -1 65.5q-1 22 -2 30.5q-1 8.5 -2.5 12.5q-4 13.5 -9.5 20.5q-5.5 7 -20.5 10.5q-15.5 4 -49 6.5q-6 4 -9.5 7.5q-3.5 4 -4 8q0 4.5 5 7q5 3 15.5 3l317.5 0q96 -1 164.5 -32.5q68 -32 111 -85.5q43 -53.5 63 -119q20 -65.5 20 -133.5M623.5 -373.5q-1 112 -34.5 187.5q-34 76 -90 114.5q-56.5 39 -124.5 39l-71.5 0q-39 0.5 -56 -12q-17 -12 -21 -45.5q-3.5 -33 -3 -95l0 -364.5l0 -83.5q0 -27.5 1 -40q0.5 -12.5 2 -23q3.5 -15 16 -24q12.5 -8.5 22 -8.5l96 -1l3.5 0q76.5 0.5 135 42q58.5 42 91.5 121.5q33 79.5 33.5 192.5" />
</g>
</svg>
