<?xml version="1.0" encoding="utf-8"?>
<svg version="1.1" id="Layer_1"
xmlns="http://www.w3.org/2000/svg"
xmlns:xlink="http://www.w3.org/1999/xlink"
xmlns:author="http://www.sothink.com"
width="106px" height="13px"
xml:space="preserve">
<g id="PathID_333" transform="matrix(0.010049, 0, 0, 0.010049, -1.2, 10.45)">
<path style="fill:#000000;fill-opacity:1" d="M119 -635.5q15 24.5 33.5 43q18 18.5 41 31.5q19 11.5 41 16.5q21.5 5 49 5l22 -1l26.5 -3q-30.5 71 -61 128.5q-30 57 -67 112q-10.5 15.5 -21.5 29.5q-11.5 14 -28 32q-6.5 7 -9 14.5q-2.5 7.5 -2 22.5q0 31 9 51.5q9 20.5 22.5 21q9 0.5 17.5 -8q8 -8.5 19.5 -29q4 -7.5 18 -38q14.5 -30.5 33.5 -72q19 -41.5 37 -82q18.5 -40.5 30 -68q21 -46 34.5 -77q13 -31.5 20 -47q121 -28 174.5 -49q53 -21.5 52 -41q-0.5 -13 -20 -22q-19 -8.5 -50 -8.5q-7 0 -11.5 1.5q-4 1.5 -10 6.5q-13.5 12 -25.5 19.5q-11.5 8 -31.5 16q-19.5 8 -56.5 21q27.5 -57 43.5 -88.5q15.5 -31.5 19 -37.5q6 -9 8 -15q2 -6 2 -11.5q0.5 -10.5 -11 -20.5q-11 -10 -37 -22.5q-22.5 -11 -44.5 -17.5q-21.5 -6 -37.5 -6q-5.5 -0.5 -11 1q-5.5 1.5 -13.5 6q36.5 18 51 36q15 18 14.5 43q0 26 -9 61q-8.5 35 -27.5 84q-29 6.5 -51.5 9.5q-22.5 3 -42 3q-25 0 -45 -5q-20.5 -5.5 -40 -18.5q-20 -13 -44 -36q-6 4 -12 8.5M670 -570q53 17.5 83 33q29.5 16 49 37.5l-28 6l-14.5 4q-5.5 1.5 -13 3q-35.5 9.5 -59 21q-23 11.5 -38 27.5q-14 14.5 -21.5 33q-8 18 -11.5 45q-3 27 -3 68.5l0 13.5q0.5 8.5 1 28q0.5 20 2 59.5q-19 -3 -32 -4l-29.5 -1q-57.5 0.5 -100 15.5q-43 15.5 -67 43q-24 27.5 -24.5 63.5q1 49 43 78.5q42.5 29.5 112.5 30q43.5 0 78 -11.5q34.5 -11.5 55.5 -32.5q15 -16.5 22 -36.5q7 -20.5 6.5 -50.5l0 -8.5l0 -11q39.5 18.5 68 39.5q29 21 56 50.5q15.5 17.5 22 22.5q7 5 14 4.5q9 -0.5 14.5 -10q5.5 -9.5 6 -25q0 -24.5 -10.5 -45q-10 -20 -30.5 -36q-23 -18 -60.5 -35.5q-37.5 -17 -85 -31q-7.5 -52 -12 -86q-4.5 -34 -6.5 -55.5q-2 -21.5 -2 -35q-1 -52 23 -73q24 -20.5 84.5 -20q25.5 0 43 2q17 1.5 30 6.5q13.5 4.5 27.5 13q6.5 4.5 12 6.5q5.5 2 11.5 2q12.5 -0.5 19.5 -8.5q7 -8 7 -21.5q0 -18 -17 -39q-17 -21 -47.5 -41q-35 -23.5 -78.5 -37.5q-43.5 -14 -96.5 -18.5l-3 16.5M617.5 -110.5q0 48.5 -32 73.5q-31.5 25 -94 25q-48 0 -75 -16q-27 -16 -27.5 -44.5q0.5 -36.5 37.5 -57q37 -20.5 103 -21q24 0 44.5 2.5q20.5 3 43.5 10l0 27.5" />
</g>
<g id="PathID_334" transform="matrix(0.010049, 0, 0, 0.010049, 9.05, 10.45)">
<path style="fill:#000000;fill-opacity:1" d="M372.5 -820.5q13.5 31.5 25 49.5q11.5 18 27.5 32.5q18.5 17.5 40.5 31q22.5 14 52.5 27.5q-15 6.5 -26 10.5q-11.5 4 -31.5 10l-63.5 18.5q-45.5 13.5 -70 24.5q-25 11 -35 22.5q-10 9 -13.5 20.5q-3.5 12 -3 38q-0.5 15 -5 45.5q-4 30.5 -14.5 89.5l-7.5 48.5l-5 37q-3.5 27 -6 38.5q-2 11.5 -5 22.5q-1 6 -2 10.5q-1 5 -1 6q0 9.5 5.5 22.5q5.5 13.5 16 30q12 17.5 22.5 25.5q11 8 22.5 8q8 0.5 14.5 -4.5q6.5 -4.5 14 -16q11.5 -19 24 -33.5q12 -14 32.5 -31q61 -52.5 125 -82q64 -29 119.5 -29.5q57 0.5 90 30.5q33.5 30 34 81q0 48 -24.5 88.5q-25 40.5 -78 77.5q-33.5 23 -70 40q-37 16.5 -82.5 29q-45.5 12.5 -104.5 22l3 16.5q71.5 -3 126.5 -12.5q55 -9 106 -27.5q96.5 -33.5 149 -90q52.5 -56.5 53 -128q-0.5 -47 -25.5 -83q-24.5 -36 -68.5 -56q-44 -20.5 -102 -21q-70 0 -155 32.5q-85 32.5 -178.5 94.5q1 -34.5 3.5 -72q2.5 -38 6 -73q3 -35.5 7 -63q1.5 -13.5 2 -21.5q1 -7.5 1 -11q0 -7.5 -1.5 -14q-1.5 -6.5 -6 -19q-3 -10 -4.5 -16.5q-1.5 -7 -1.5 -13q0 -8 3 -15q3 -7.5 8.5 -13q5 -5 15.5 -9q10.5 -4 31.5 -9q33.5 -9 69 -15.5q35.5 -6.5 68.5 -10q32.5 -3.5 58 -3.5l27.5 1l22.5 2l15 2.5q4.5 1 6.5 1q11 -0.5 18 -6.5q6.5 -6 7 -15q0 -9.5 -5.5 -21q-6 -11 -17.5 -24.5q-9 -11 -19 -17q-10 -6 -22.5 -8.5q-18.5 -4 -38.5 -9q-20.5 -5.5 -35.5 -10.5q-34.5 -11.5 -57 -23q-22.5 -11 -39.5 -27q-16.5 -15.5 -33.5 -40l-13.5 7" />
</g>
<g id="PathID_335" transform="matrix(0.010049, 0, 0, 0.010049, 19.3, 10.45)">
<path style="fill:#000000;fill-opacity:1" d="M412 -9q75.5 -8.5 133.5 -21.5q58 -13 104.5 -32q46 -19.5 86.5 -47q51.5 -34.5 80.5 -85.5q29.5 -51.5 30 -107q-0.5 -58.5 -29.5 -103.5q-28.5 -44.5 -80 -70q-51 -25 -118.5 -25.5l-43 1.5q-19 1.5 -37 4.5q-44.5 8 -104 26.5q-60 19 -129.5 46.5q-38.5 15.5 -59.5 22.5q-21 6.5 -30.5 6.5q-18.5 0 -35 -14.5q-16 -14 -28.5 -42q-4 7.5 -5.5 12q-2 5 -2 8.5q1 24.5 17.5 52.5q16.5 27.5 39.5 47.5q23 20 42.5 21q9 0 18 -4.5q9 -4.5 23 -15q55 -43 114.5 -74.5q59.5 -31 117.5 -48q57.5 -17 108 -17q69.5 1 110.5 41q41 40 42 108q0 46 -22 88.5q-21.5 42.5 -64 77q-53 45.5 -120.5 75q-68 29.5 -163 49l4 19.5" />
</g>
<g id="PathID_336" transform="matrix(0.010049, 0, 0, 0.010049, 29.55, 10.45)">
<path style="fill:#000000;fill-opacity:1" d="M107.5 -668q-6.5 9 -9 15q-2.5 6 -2 12q0 12.5 7 31q7 18.5 19.5 37.5q18 28 39 44q21 16 40 16.5q9 0.5 17.5 -2.5q8.5 -3 23.5 -12q25.5 -13.5 70 -31.5q44 -18 93.5 -34q58 -19 107.5 -32q49 -13.5 94.5 -23q45.5 -9 92 -15.5q-42.5 21.5 -72 39.5q-30 18.5 -52.5 36.5q-22.5 18.5 -42.5 40.5q-53.5 58 -82.5 122.5q-28.5 64.5 -29 127.5q0 71.5 30 129.5q30 58 88.5 100q29.5 20.5 66.5 37.5q37 16.5 74.5 26q37 10 67 10q17 0 27.5 -7.5q10 -8 10.5 -21q-0.5 -9.5 -8.5 -22.5q-8.5 -12.5 -22.5 -26.5q-10.5 -10 -19.5 -13.5q-8.5 -3.5 -23.5 -3q-22.5 -1 -50.5 -7.5q-28 -6.5 -54 -17q-66 -29 -100.5 -80q-34.5 -51 -34.5 -122q0.5 -65 29 -125.5q28.5 -60.5 77.5 -108.5q48.5 -48 110 -76q61.5 -28.5 127.5 -29l13 0.5q6 0 15.5 1.5q5.5 1 10.5 1l8 0q15 0 23.5 -7q8.5 -7 8.5 -18.5q0 -10.5 -7.5 -20q-7 -9 -22.5 -19q-15.5 -9.5 -30.5 -15.5q-15 -6 -24.5 -6q-6 0 -13.5 2q-7.5 1.5 -22.5 6q-15 5 -32 10q-17.5 4.5 -42.5 10q-25 5.5 -63.5 13q-51 10 -92.5 19q-41.5 9 -73.5 17q-85 20.5 -137 32.5q-52 12.5 -80 18.5q-28 6 -42.5 8l-24 1.5q-15 0 -25.5 -3.5q-10 -4 -20.5 -14q-12 -10.5 -19.5 -22.5q-7.5 -12 -14.5 -30" />
</g>
<g id="PathID_337" transform="matrix(0.010049, 0, 0, 0.010049, 39.8, 10.45)">
<path style="fill:#000000;fill-opacity:1" d="M705.5 -359.5l0 256.5l0 20.5l-0.5 23.5l-0.5 44q0 19.5 4.5 31.5q4.5 11.5 16 18.5q6.5 5 16 7q9.5 2 32 3q23 0.5 69 0.5q56.5 0 89 -3.5q32.5 -3.5 46 -12.5q13.5 -8.5 13 -24q0.5 -10 -5.5 -16.5q-5.5 -6.5 -20 -13.5q-8.5 -3.5 -12 -8.5q-3.5 -5.5 -3.5 -14l0 -2l0 -3q5 -87.5 9.5 -175l-14.5 -1.5q-20.5 89.5 -34.5 139.5q-14 50.5 -20.5 59.5q-5 9 -17.5 12q-12.5 2.5 -45 2.5q-35 0 -45.5 -2.5q-10 -3 -9 -12l0 -330l56.5 0l0 37q-0.5 8 3.5 11q4.5 2.5 17 2q28.5 0.5 38.5 -3q10 -4 9.5 -15q-1 -35 -1.5 -74.5q-0.5 -39 -0.5 -95.5l0 -96.5q25 -18 30.5 -23q5.5 -5 4.5 -8.5q0 -3 -3 -6.5q-2.5 -3.5 -9.5 -8q-16.5 -13 -28 -21.5q-11.5 -8.5 -31.5 -21.5q-11.5 13 -19 22q-7 8.5 -18.5 23l-89.5 0q28.5 -30 48.5 -53.5q20 -23 37 -46q17.5 -23 37.5 -53q26 -2 37.5 -6q12 -3.5 11.5 -11q0.5 -7 -26.5 -18.5q-27 -11 -88 -28q-7 43.5 -28 98q-21 55 -54 118l-164.5 0l-28 -20q-11.5 -8 -23 -15l-29 -17l1.5 53.5q1 20 1 33.5q0.5 13 0.5 25.5q0 46.5 -0.5 95q-0.5 48.5 -1.5 91q-1 42 -2 70q-0.5 8 5.5 11q6 2.5 26 2.5q21 0 29.5 -4q8 -3.5 8.5 -12.5l0 -35l42 0l0 8l0 5.5q0 47 -10 97.5q-10 51 -27 92q-28 66.5 -77 120.5q-49.5 54 -127 101q3.5 6.5 6.5 13.5q33.5 -13.5 53.5 -23.5q20.5 -10 40.5 -23q46.5 -28.5 83 -63.5q36 -34.5 61.5 -75q28.5 -46 44.5 -109.5q16 -63.5 19 -143.5l65.5 0M530.5 -614.5l298 0l0 231.5l-298 0l0 -231.5M90 -746.5q20 -3 33.5 -4l30 -1l246 0q4 0 6 -1.5q2 -1.5 2 -3.5l-0.5 -4l-2.5 -4.5l-25.5 -24.5q-10.5 -10 -21.5 -19l-27 -23q-15.5 17 -26 28l-26 28.5l-125 0q-12.5 0 -21.5 -0.5q-9 -0.5 -20 -2.5q-11 -1.5 -29 -5l7 36.5M37.5 -609.5q22.5 -3 38 -4q15.5 -1 36 -1l329 0q5.5 0 8 -1.5q3 -1.5 3 -4.5l-0.5 -3.5l-3.5 -4q-17.5 -15.5 -29.5 -26.5q-12 -10.5 -24.5 -20.5l-30 -24.5l-28.5 31q-11 11.5 -27 30.5l-196.5 0q-18.5 0 -38 -2.5q-19.5 -2 -43 -6.5l7 37.5M83 -484.5q19 -3 32 -4l25 -1l263.5 0q3 0 5.5 -2.5q2.5 -2 2.5 -4.5q0.5 -1 -1 -3q-1 -2 -4 -4.5l-26 -22.5q-10.5 -9.5 -21.5 -18.5q-11 -9 -27.5 -21.5q-16 16 -25.5 26.5q-10 10.5 -24.5 27l-137.5 0q-14.5 0 -30.5 -2q-15.5 -1.5 -38 -6q3.5 18 7.5 36.5M83 -347q19 -3 32.5 -4l29.5 -1l258.5 0q4 -0.5 6.5 -2.5q2.5 -2 2.5 -5q0 -1 -1 -3.5q-1.5 -2 -3 -4.5l-26 -25q-11 -10 -22.5 -19.5q-12 -10 -29.5 -23l-28 29l-27 30.5l-130.5 0q-14.5 0 -31.5 -2q-17 -1.5 -38 -5.5q3.5 18 7.5 36M158.5 9.5l149.5 0l0 12.5q0 7 4 9.5q4 2.5 17.5 2.5q25.5 0.5 35 -3q9.5 -3.5 10.5 -13.5l-1 -34l0 -32.5l0 -50l0 -86q21.5 -11 29 -17q7 -6 6.5 -11.5q0 -3 -2.5 -7q-2.5 -4 -7.5 -8.5l-27 -22.5q-10.5 -9 -29.5 -22.5q-12.5 12 -20 20l-19 21l-139.5 0q-15 -11.5 -25 -19.5l-21.5 -15q-11 -7.5 -28 -18l1.5 42q1 19 1 42.5q0.5 23.5 0.5 59l0 36q0 15 -0.5 33.5l-0.5 49.5l-1 83.5q0.5 8.5 5 11q4.5 2.5 18.5 2.5q26.5 0.5 35.5 -3.5q9 -3.5 8.5 -15l0 -46M158.5 -209.5l149.5 0l0 195.5l-149.5 0l0 -195.5M491.5 -838.5q19 25 31.5 46q13 21.5 23 45q10 23.5 20.5 55.5q7 22.5 10.5 28.5q3 6 9 5q8.5 -0.5 17.5 -11q9.5 -10 16 -25q7 -14.5 7 -28.5q0.5 -13.5 -7 -25.5q-8 -12.5 -27.5 -30q-18.5 -16.5 -41 -35q-22.5 -18 -48 -36.5q-6 5.5 -11.5 11.5" />
</g>
<g id="PathID_338" transform="matrix(0.010049, 0, 0, 0.010049, 50.05, 10.45)">
<path style="fill:#000000;fill-opacity:1" d="M845 -301l0 255q0.5 11 -2.5 15q-3 3.5 -13 3.5l-3 0l-53.5 -1.5l-37.5 -1.5l-34 -1.5l-44 -2l0 19.5q54 5 81.5 11.5q27.5 6.5 40 20.5q12 14 20 42q48 -7.5 71.5 -15.5q23.5 -7.5 34.5 -20.5q9.5 -9.5 13 -22q3.5 -13 3.5 -35.5q-0.5 -17.5 -0.5 -27.5q-0.5 -10.5 -0.5 -22l0 -33q-0.5 -23 -0.5 -35.5q-0.5 -12.5 -0.5 -26q-0.5 -13.5 -1 -39l0 -527.5q15.5 -8.5 25.5 -16.5q10 -8 10.5 -12q0 -2.5 -2.5 -5l-7 -7.5q-18.5 -15 -31.5 -24.5q-13 -9.5 -34 -25.5q-12 13.5 -19.5 22.5q-8 8.5 -20 22.5l-246 0q-16 -12 -27 -20q-11 -7.5 -22.5 -14.5q-11 -7 -28 -16.5q2 39.5 3 73q1 33.5 1.5 66q0.5 32.5 0.5 70q0 119.5 -4.5 203.5q-4.5 84 -16 143q-12 59.5 -32 104.5q-20.5 45 -52 87.5q-21.5 28.5 -43.5 52q-22 23 -50 45.5q-27.5 22 -66 47.5l8 15.5q54.5 -28 94 -55q39.5 -27 70 -58q31 -30.5 59 -70q33 -44 52 -88q19.5 -44 29 -96.5l275.5 0M587 -562l1.5 -94l0.5 -42l0 -17l0 -22l-1 -31l258 0l0 206l-259 0M845 -538.5l0 214l-271.5 0q4.5 -30 7.5 -80q3 -50.5 4.5 -134l259.5 0M156.5 -257l187.5 0l0 60.5q0.5 6.5 4 9.5q3.5 3 10.5 2.5q32 0.5 42.5 -3.5q11 -4.5 11.5 -18q-0.5 -36 -0.5 -58.5q-0.5 -22.5 -0.5 -36l0 -22l0 -403.5q19 -11.5 26 -16.5q7 -5.5 7 -9q0 -2.5 -2 -5q-2 -3 -7.5 -7.5q-16.5 -14.5 -27.5 -23.5l-28.5 -22.5l-20 20.5l-20 21.5l-176.5 0l-27 -18.5q-11 -7.5 -22.5 -14q-11 -7 -28 -16.5l2 50.5l1 59l1 83l0 124.5l0 108l-1 82l-1 69l-2 71q1.5 8.5 4.5 11.5q3 3.5 9.5 4l39 -2q12 -1.5 15 -5q3 -4 3.5 -12.5l0 -83M344 -527.5l-187.5 0l0 -217l187.5 0l0 217M344 -504l0 223.5l-187.5 0l0 -223.5l187.5 0" />
</g>
<g id="PathID_339" transform="matrix(0.010049, 0, 0, 0.010049, 60.3, 10.45)">
<path style="fill:#000000;fill-opacity:1" d="M846.5 -195.5q-26 22 -47 38q-20.5 16 -40 28.5q-20 12.5 -43 24.5q-59 31 -119.5 48q-61 17 -114 17.5q-27 0 -50.5 -7.5q-23.5 -7 -40.5 -20q-21.5 -17.5 -31.5 -47q-9.5 -29.5 -9.5 -76q0 -37 3.5 -91.5q3.5 -54 9.5 -115.5q6 -61.5 13 -119.5q7 -58 14 -102q7.5 -43.5 13 -63q6.5 -17 8.5 -24.5q1.5 -7.5 1.5 -12.5q0 -16 -15 -31.5q-15 -15 -44.5 -29q-24.5 -10.5 -49 -17q-25 -6.5 -43.5 -6.5q-8 0 -14 2q-6.5 2.5 -14.5 8.5q36 14.5 54 29.5q18 14.5 23.5 39q6 24.5 5.5 67.5q0 17.5 -0.5 37.5q-0.5 20 -2 52l-4.5 86.5q-3 47 -4.5 93q-2 46 -3 85.5q-1 40 -1 68.5q0 64.5 6.5 105.5q7 41.5 22 67.5q24 41.5 67.5 64q44 22.5 102.5 23q64 0 128 -25.5q63.5 -25 122.5 -72.5q59.5 -47 109 -114l-12.5 -11" />
</g>
<g id="PathID_340" transform="matrix(0.010049, 0, 0, 0.010049, 70.55, 10.45)">
<path style="fill:#000000;fill-opacity:1" d="M119 -635.5q15 24.5 33.5 43q18 18.5 41 31.5q19 11.5 41 16.5q21.5 5 49 5l22 -1l26.5 -3q-30.5 71 -61 128.5q-30 57 -67 112q-10.5 15.5 -21.5 29.5q-11.5 14 -28 32q-6.5 7 -9 14.5q-2.5 7.5 -2 22.5q0 31 9 51.5q9 20.5 22.5 21q9 0.5 17.5 -8q8 -8.5 19.5 -29q4 -7.5 18 -38q14.5 -30.5 33.5 -72q19 -41.5 37 -82q18.5 -40.5 30 -68q21 -46 34.5 -77q13 -31.5 20 -47q121 -28 174.5 -49q53 -21.5 52 -41q-0.5 -13 -20 -22q-19 -8.5 -50 -8.5q-7 0 -11.5 1.5q-4 1.5 -10 6.5q-13.5 12 -25.5 19.5q-11.5 8 -31.5 16q-19.5 8 -56.5 21q27.5 -57 43.5 -88.5q15.5 -31.5 19 -37.5q6 -9 8 -15q2 -6 2 -11.5q0.5 -10.5 -11 -20.5q-11 -10 -37 -22.5q-22.5 -11 -44.5 -17.5q-21.5 -6 -37.5 -6q-5.5 -0.5 -11 1q-5.5 1.5 -13.5 6q36.5 18 51 36q15 18 14.5 43q0 26 -9 61q-8.5 35 -27.5 84q-29 6.5 -51.5 9.5q-22.5 3 -42 3q-25 0 -45 -5q-20.5 -5.5 -40 -18.5q-20 -13 -44 -36q-6 4 -12 8.5M670 -570q53 17.5 83 33q29.5 16 49 37.5l-28 6l-14.5 4q-5.5 1.5 -13 3q-35.5 9.5 -59 21q-23 11.5 -38 27.5q-14 14.5 -21.5 33q-8 18 -11.5 45q-3 27 -3 68.5l0 13.5q0.5 8.5 1 28q0.5 20 2 59.5q-19 -3 -32 -4l-29.5 -1q-57.5 0.5 -100 15.5q-43 15.5 -67 43q-24 27.5 -24.5 63.5q1 49 43 78.5q42.5 29.5 112.5 30q43.5 0 78 -11.5q34.5 -11.5 55.5 -32.5q15 -16.5 22 -36.5q7 -20.5 6.5 -50.5l0 -8.5l0 -11q39.5 18.5 68 39.5q29 21 56 50.5q15.5 17.5 22 22.5q7 5 14 4.5q9 -0.5 14.5 -10q5.5 -9.5 6 -25q0 -24.5 -10.5 -45q-10 -20 -30.5 -36q-23 -18 -60.5 -35.5q-37.5 -17 -85 -31q-7.5 -52 -12 -86q-4.5 -34 -6.5 -55.5q-2 -21.5 -2 -35q-1 -52 23 -73q24 -20.5 84.5 -20q25.5 0 43 2q17 1.5 30 6.5q13.5 4.5 27.5 13q6.5 4.5 12 6.5q5.5 2 11.5 2q12.5 -0.5 19.5 -8.5q7 -8 7 -21.5q0 -18 -17 -39q-17 -21 -47.5 -41q-35 -23.5 -78.5 -37.5q-43.5 -14 -96.5 -18.5l-3 16.5M617.5 -110.5q0 48.5 -32 73.5q-31.5 25 -94 25q-48 0 -75 -16q-27 -16 -27.5 -44.5q0.5 -36.5 37.5 -57q37 -20.5 103 -21q24 0 44.5 2.5q20.5 3 43.5 10l0 27.5" />
</g>
<g id="PathID_341" transform="matrix(0.010049, 0, 0, 0.010049, 80.8, 10.45)">
<path style="fill:#000000;fill-opacity:1" d="M637.5 -722l40.5 27q13 9 21.5 15.5q8.5 6.5 21 17q-23 13.5 -40.5 22q-17 8.5 -34 16l-36.5 14.5q-11.5 4.5 -17 7q-5 2 -11 5q-31 -39 -50.5 -64l-28.5 -34.5q-23.5 -26.5 -33 -38.5q-9.5 -12.5 -9 -15.5q0 -5.5 8 -8.5q7.5 -3 23.5 -3l17 1l29.5 3l5 -15q-34.5 -11.5 -63.5 -16.5q-29 -5.5 -56.5 -5q-33 0 -51 10q-18.5 10 -18.5 27.5q-0.5 10.5 7.5 19q8 8.5 31.5 21q31.5 18 70.5 54q38.5 36 71.5 79.5q-51.5 15 -100 23.5q-48 8 -89 8q-47.5 0.5 -85.5 -13q-38 -13 -78.5 -43.5l-11 10.5q38.5 46.5 84.5 68.5q45.5 21.5 103.5 21.5q50.5 0 101.5 -8.5q51.5 -8.5 106.5 -25.5q43 60 74.5 117.5q31.5 57 48.5 110.5q-42.5 -12.5 -95.5 -20q-53 -7 -105.5 -7q-127 0.5 -197.5 43.5q-70.5 43 -71.5 120.5q0.5 56 38.5 99.5q38 43.5 108 67.5q40 13.5 91.5 20.5q51 7 109 7q52.5 0.5 71.5 -6.5q18.5 -6.5 17.5 -25.5q-0.5 -11.5 -10.5 -24q-10 -13 -24.5 -22q-14.5 -9 -28.5 -9l-5.5 0.5l-6.5 1.5q-19.5 3.5 -40 5.5l-49.5 1.5q-41.5 0 -78.5 -6q-36.5 -5.5 -63.5 -16.5q-38 -16.5 -59 -43q-20.5 -27 -21 -60.5q1 -55.5 51.5 -87.5q50.5 -31.5 140 -32q49.5 0 97.5 10q48 10.5 88 29q17 8 35 20.5q18 12.5 33.5 27.5q10.5 10.5 17 14q6.5 3.5 14.5 3.5q15.5 0 21.5 -12.5q6.5 -12.5 6.5 -42q0 -18.5 -5.5 -36.5q-5 -18.5 -17 -40.5q-16 -29 -38.5 -66q-22.5 -37 -49 -77q-26 -40 -53 -78q48.5 -18.5 74.5 -29q26.5 -10.5 42 -18q15.5 -7 33 -16.5q29 -16.5 43 -29.5q13.5 -12.5 13.5 -24q-0.5 -15 -10.5 -23.5q-10.5 -8 -29.5 -8l-6 0l-5.5 1l-5 0q-9.5 0 -29 -4.5q-19.5 -4.5 -42.5 -11.5q-23 -7.5 -44 -15.5q-4 5.5 -7.5 11" />
</g>
<g id="PathID_342" transform="matrix(0.010049, 0, 0, 0.010049, 91.05, 10.45)">
<path style="fill:#000000;fill-opacity:1" d="M450.5 -414.5l-10 16.5l-7.5 13q-4.5 6.5 -12.5 19.5l-31 52.5q-11.5 19.5 -19.5 32.5q-7.5 13 -15.5 26l-20 33.5q-10.5 18.5 -16 27q-5.5 9 -9 14l-8.5 13q-19 -13.5 -30.5 -31.5q-12 -17.5 -23 -48.5q-11.5 -31.5 -17.5 -69q-6 -37.5 -6 -79.5q0 -31 4.5 -68.5q5 -37 14 -84l2.5 -15.5q0.5 -6.5 0.5 -11q0 -17.5 -11.5 -38q-11.5 -20.5 -34.5 -43q-23.5 -23 -43.5 -36.5q-20.5 -13.5 -33.5 -13.5l-4.5 0l-4.5 0q22 27.5 33 50q11 22 15 51q4 28.5 4.5 75q-0.5 54 0 85.5q1 31.5 2.5 52.5q1.5 20.5 4.5 42.5q7.5 61.5 25.5 114q18 52.5 44 90.5q16.5 24 37 43.5q20.5 20 41 31.5q20 12 34.5 12q9.5 0 16 -7.5q6.5 -7 6.5 -18q0 -4 -0.5 -8q-0.5 -4.5 -1.5 -8.5l-5 -24q-1 -5.5 -1 -10.5q-0.5 -20 8.5 -51q8.5 -31 29.5 -84.5q21 -53 58.5 -138l-15.5 -7M679 -580.5q43.5 23.5 75 56.5q31 33 52 77.5q8.5 19 15.5 43q7.5 23.5 11.5 48q4.5 24 4.5 43q0.5 14 -4 20q-4.5 6 -19.5 11l-41.5 12q-34.5 10 -97 27q1.5 7.5 3.5 15l43 -1.5q17.5 -0.5 34.5 -0.5q32.5 0 50 3q17.5 2.5 27 9.5q10.5 6.5 17 9q6.5 2.5 13.5 2q23.5 -0.5 37.5 -22q13.5 -21.5 14 -58.5q-0.5 -72 -31.5 -136q-30.5 -64 -82.5 -109.5q-52.5 -45.5 -117.5 -61l-5 12.5" />
</g>
<g id="PathID_343" transform="matrix(0.010049, 0, 0, 0.010049, 101.3, 10.45)">
<path style="fill:#000000;fill-opacity:1" d="M192.5 -169q-36.5 0.5 -66.5 18q-29.5 18 -47.5 47.5q-17.5 30 -18 66.5q0.5 37 18 67q18 29.5 47.5 47.5q30 17.5 66.5 18q36.5 -0.5 66.5 -18q29.5 -18 47.5 -47.5q17.5 -30 18 -67q-0.5 -37 -18 -67q-17.5 -29.5 -47 -47q-30 -17.5 -67 -18M192.5 -136q42.5 1 70 29q28 28 29 70q-1 42.5 -29 70.5q-27.5 28 -70 29q-41.5 -1 -70 -29.5q-28 -28 -29 -70q1 -42 29 -70q27.5 -28 70 -29" />
</g>
</svg>
