<?xml version="1.0" encoding="utf-8"?>
<svg version="1.1" id="Layer_1"
xmlns="http://www.w3.org/2000/svg"
xmlns:xlink="http://www.w3.org/1999/xlink"
xmlns:author="http://www.sothink.com"
width="33px" height="35px"
xml:space="preserve">
<g id="PathID_279" transform="matrix(0.0343137, 0, 0, 0.0343137, -1.9, 30.6)">
<path style="fill:#FFFFFF;fill-opacity:1" d="M56 -336q240 -68 428 -268l92 16q16 16 -12 20q112 128 412 204l-28 88q-144 -36 -236 -88l0 56l-400 0l0 -52q-96 68 -224 108l-32 -84M680 -384q-84 -44 -172 -140q-56 72 -160 140l332 0M56 -576q96 -84 152 -252l84 24q16 16 -12 20l-28 56l248 0l0 64l-148 0q24 44 48 104l-84 24q-20 -72 -44 -128l-44 0q-48 96 -116 156l-56 -68M632 -728l312 0l0 64l-188 0q32 44 52 96l-84 32q-20 -68 -52 -128l-68 0l-36 64l-68 -40q56 -88 88 -200l80 24q16 16 -12 20l-24 68M300 -172l0 140l432 0l0 -140l-432 0M220 -236l592 0l0 312l-80 0l0 -44l-432 0l0 56l-80 0l0 -324" />
</g>
</svg>
