<?xml version="1.0" encoding="utf-8"?>
<svg version="1.1" id="Layer_1"
xmlns="http://www.w3.org/2000/svg"
xmlns:xlink="http://www.w3.org/1999/xlink"
xmlns:author="http://www.sothink.com"
width="30px" height="12px"
xml:space="preserve">
<g id="PathID_276" transform="matrix(0.00970588, 0, 0, 0.00970588, -0.8, 10.45)">
<path style="fill:#FFFFFF;fill-opacity:1" d="M716 -148q64 80 240 144l-40 88q-312 -104 -396 -440l-24 0q-40 56 -84 100l0 224l228 -44l12 68q-216 52 -424 92q-12 36 -24 12l-28 -96l156 -20l0 -172q-104 72 -232 116l-40 -80q200 -56 340 -200l-320 0l0 -76l388 0l0 -72l-288 0l0 -76l288 0l0 -72l-340 0l0 -76l340 0l0 -96l76 0q32 4 4 24l0 72l340 0l0 76l-340 0l0 72l288 0l0 76l-288 0l0 72l388 0l0 76l-340 0q24 76 80 160q76 -64 144 -140l60 60q4 20 -20 12q-68 64 -144 116" />
</g>
<g id="PathID_277" transform="matrix(0.00970588, 0, 0, 0.00970588, 9.1, 10.45)">
<path style="fill:#FFFFFF;fill-opacity:1" d="" />
</g>
<g id="PathID_278" transform="matrix(0.00970588, 0, 0, 0.00970588, 19, 10.45)">
<path style="fill:#FFFFFF;fill-opacity:1" d="M736 -348q80 132 220 232l-68 76q-132 -108 -224 -260l72 -48M564 -16q0 72 -68 72l-112 0l-16 -88l88 0q16 0 16 -16l0 -376l-392 0l0 -88l860 0l0 88l-376 0l0 408M212 -660l0 -88l608 0l0 88l-608 0M80 -100q112 -80 196 -244l80 44q32 20 -12 28q-68 144 -200 248l-64 -76" />
</g>
</svg>
