<?xml version="1.0" encoding="utf-8"?>
<svg version="1.1" id="Layer_1"
xmlns="http://www.w3.org/2000/svg"
xmlns:xlink="http://www.w3.org/1999/xlink"
xmlns:author="http://www.sothink.com"
width="51px" height="13px"
xml:space="preserve">
<g id="PathID_326" transform="matrix(0.010049, 0, 0, 0.010049, -0.85, 10.5)">
<path style="fill:#000000;fill-opacity:1" d="M88 -411.5l-2 10l0 3q1 21.5 21 47.5q20.5 25.5 48 44.5q27 19 49.5 20q11.5 0 20.5 -6.5q8.5 -6 14.5 -19q16 -32.5 34.5 -62q19 -30 45.5 -65.5q37.5 -49 58 -68.5q20.5 -19.5 35 -18.5q7.5 -0.5 16.5 3q8.5 3.5 27 17.5q18.5 14 55 45q36.5 30.5 99 84.5q92.5 78 151 126.5q58.5 48.5 92 74q33.5 25.5 51 34.5q17.5 9 28 8.5q10.5 0 16.5 -7q6 -7 6 -18.5q-0.5 -17.5 -9.5 -40q-9 -22.5 -22 -41q-12.5 -18 -25 -23.5q-43 -17 -116 -64q-73 -46.5 -183 -127.5l-88.5 -65q-32.5 -23 -48.5 -33q-16.5 -10 -25.5 -12.5q-9 -2 -19 -1.5q-14 -0.5 -30 7q-16 7.5 -40 27q-23.5 19.5 -61 55l-50 47.5q-17 16.5 -25.5 24q-8.5 8 -16.5 14q-14.5 13 -25 18q-10.5 5.5 -20 5.5q-11 0 -27.5 -11.5q-17 -11.5 -34 -31.5M747.5 -760q-44 1 -73 30.5q-29.5 29 -30.5 73q1 44.5 30.5 74q29 29.5 73 30.5q44 -1 73 -30.5q29.5 -29.5 30.5 -74q-1 -44 -30.5 -73q-29 -29.5 -73 -30.5M747.5 -727q30 0.5 50 21q19.5 20 20.5 50.5q-1 31 -20.5 51q-20 20.5 -50 21q-30 -1 -50 -21.5q-19.5 -20 -20.5 -50.5q1 -30.5 20.5 -50.5q20 -20.5 50 -21" />
</g>
<g id="PathID_327" transform="matrix(0.010049, 0, 0, 0.010049, 9.4, 10.5)">
<path style="fill:#000000;fill-opacity:1" d="M115.5 -484.5q-5 5 -6.5 9q-1.5 4.5 -1.5 14.5q0.5 19.5 11.5 46.5q11 27 27.5 48q26 33.5 49 33.5q3.5 0 8 -1l7.5 -2q7.5 -4.5 15.5 -6.5q8 -2.5 21.5 -4l36.5 -2.5l43 -2q31 -1 74 -2q43 -1 89 -2.5q46.5 -1 88.5 -1.5l71 -1.5q72 -0.5 116.5 -1.5q44 -0.5 69 -2q24.5 -1 37.5 -3q13.5 -2.5 23 -5.5q11 -3.5 17 -11q6.5 -7.5 6.5 -17q0 -6.5 -3.5 -11.5q-3 -5 -11 -9q-8.5 -3.5 -22 -5.5q-13.5 -2 -39.5 -2.5q-26 -1 -71.5 -1l-50.5 0.5l-93 1.5q-53.5 0.5 -107.5 1.5q-54 1 -94.5 1.5q-40.5 1 -54 1l-81 2.5q-25 0.5 -32.5 0.5l-12 0q-27 0.5 -44.5 -2q-17.5 -2 -30 -7.5q-12.5 -5.5 -25 -15q-10.5 -7 -16.5 -15.5q-6.5 -8.5 -15.5 -25.5" />
</g>
<g id="PathID_328" transform="matrix(0.010049, 0, 0, 0.010049, 19.65, 10.5)">
<path style="fill:#000000;fill-opacity:1" d="M118 -502q49 27 87.5 60q38.5 33 76 80.5q11 14 18 19q6.5 5 14 4.5q11.5 -0.5 20 -14.5q8 -14 8.5 -34.5q0 -22.5 -9 -38.5q-9.5 -16.5 -30 -29.5q-25.5 -16.5 -70.5 -32q-45 -15 -108.5 -28l-6 13M229.5 -682q40.5 21.5 76 49.5q35 28.5 64 63q21.5 26.5 31.5 38q10 12 14.5 14.5q4.5 2.5 9.5 2q12 -0.5 19.5 -15q8 -14.5 8 -36.5q0.5 -29.5 -19.5 -51.5q-20 -22 -67.5 -40.5q-47.5 -19 -129 -38l-7 14.5M902 -550q-84.5 86.5 -198 174q-114 88 -254.5 174q-80 50 -130 75.5q-49.5 25 -66.5 25q-22 -0.5 -42 -17q-20 -17 -35 -46.5q-4.5 5.5 -7 11q-2 5.5 -2 12.5q0 15 9 36.5q8.5 21 22.5 42.5q21.5 31.5 39.5 46.5q18 15 33.5 15q6 0 11.5 -2.5q6 -2.5 12 -8q9.5 -8.5 28 -22q18 -13 51 -34q84 -54 152 -102.5q67.5 -48.5 125 -96q57 -48 111 -99.5q52.5 -52 91 -96.5q39 -44.5 61.5 -79q-6 -4.5 -12.5 -9M648 -768q26 24.5 45 46q18.5 21.5 34.5 45q15.5 23.5 32.5 54.5q10 20 15.5 25.5q5 5.5 13 5q4 0 7.5 -1.5q3 -1.5 5 -3.5q6 -6.5 10 -20.5q4 -13.5 4 -29q0.5 -31.5 -38 -64q-39 -32 -120.5 -68q-4 5.5 -8.5 10.5M744.5 -832.5q42.5 34 71 66q29 32.5 51 71q8 14.5 14 20q6 6 12.5 5.5q11 -0.5 17.5 -15q7 -14.5 7 -37q0.5 -34.5 -40 -64q-40.5 -29.5 -126 -58l-7 11.5" />
</g>
<g id="PathID_329" transform="matrix(0.010049, 0, 0, 0.010049, 29.9, 10.5)">
<path style="fill:#000000;fill-opacity:1" d="M511 -3q64 -11 110 -25.5q46.5 -14.5 89.5 -38q97.5 -52.5 150.5 -133q53 -80.5 53.5 -177.5q0 -74.5 -24.5 -134.5q-24.5 -60.5 -74 -106q-50 -45.5 -118 -69.5q-68 -24.5 -146 -24.5q-67.5 0 -132.5 17.5q-65 17.5 -121.5 49.5q-56.5 32 -98.5 76q-43 48 -67.5 101q-24 53 -24.5 102q0 24 5.5 46.5q6 22.5 18 46.5q14.5 28.5 23 44.5q8 16.5 13 28q5 11 9 24q8.5 24 13.5 36q4.5 12 7.5 18q3.5 6 8 11.5q8.5 10 20 15.5q11.5 6 25 6q28 0 66 -38q38 -38 86.5 -114.5q39 -63.5 69.5 -129.5q30.5 -66.5 47.5 -125.5q17.5 -58.5 18 -99.5q0.5 -21.5 -6.5 -40q-7 -19 -25.5 -45l19.5 -1.5l16.5 -0.5q49.5 0 96 12.5q46.5 12 81.5 34.5q56.5 36.5 86 94q29.5 57.5 29.5 132.5q0 71 -23 133q-23 62 -68 114q-43 50 -100.5 84q-57 34 -139.5 58q3.5 9 7.5 17.5M484 -677q8.5 18.5 11.5 29.5q3 11 3 22q-0.5 32.5 -17 83.5q-16.5 50.5 -45.5 111q-29.5 60.5 -67.5 122q-38.5 60.5 -71 97.5q-33 36.5 -50.5 37.5q-8.5 0 -18.5 -8q-10 -7.5 -20.5 -21.5q-19.5 -27.5 -30 -63q-11 -35 -11 -72.5q1 -79.5 42.5 -150.5q42 -71 113.5 -120.5q71 -50 161 -67" />
</g>
<g id="PathID_330" transform="matrix(0.010049, 0, 0, 0.010049, 40.15, 10.5)">
<path style="fill:#000000;fill-opacity:1" d="M560.5 -541.5q-5.5 37 -10 61q-5 23.5 -11.5 47.5q-16.5 59.5 -40.5 118q-23.5 58.5 -51 105.5q-39 69.5 -92.5 133.5q-53.5 63.5 -121.5 121.5l10.5 12q83.5 -54.5 142 -110q59 -55.5 105.5 -124.5q32.5 -47 57 -96.5q24 -49.5 42.5 -109q18.5 -60 35 -136.5q21.5 -10.5 28 -15.5q6.5 -5.5 5.5 -11q0 -4 -1.5 -6.5q-2 -3 -6.5 -7q-18 -14.5 -30 -23.5q-12 -9 -31.5 -22.5q-10 12.5 -17 20l-18 20l-129 0q11 -30 18.5 -56.5q7.5 -26.5 13.5 -55q5.5 -28.5 11 -66l213 0q7 0 10.5 -1.5q4 -1.5 4 -4.5q0 -2.5 -1.5 -5q-1 -3 -2.5 -5.5q-15.5 -16 -26.5 -26.5q-10.5 -10.5 -22 -21l-27.5 -25q-17.5 19.5 -28 32.5q-10.5 12.5 -27 33l-169 0q-26 0 -49.5 -2.5q-23.5 -2.5 -47 -7.5q4 18.5 8.5 37.5l28.5 -2.5l26 -1q13.5 -0.5 33.5 -0.5l6 0q-5 41.5 -10.5 75q-6 33.5 -13.5 65q-7.5 31.5 -18 67q-15 49.5 -32.5 92.5q-17.5 43.5 -39 85.5q-22 42 -50.5 88.5l9.5 10q29.5 -30.5 50 -55q20 -24.5 37 -51.5q17.5 -27 38 -65.5q17.5 25 31.5 55q13.5 30 21.5 62q6 21 10 27.5q3.5 6.5 9.5 6q8.5 -0.5 17.5 -10.5q9 -10.5 15 -25.5q6 -14.5 6.5 -28.5q-0.5 -10 -7 -22q-6.5 -11.5 -16.5 -21q-17.5 -15 -39.5 -31q-22 -15.5 -40.5 -26q12.5 -27 22 -49q9.5 -21.5 19 -47.5l142.5 0M27 -344q27 -29.5 46.5 -52.5q19 -23 35 -45q15.5 -21.5 32 -48l0 211l-1 124q-0.5 49 -0.5 79q-0.5 30 -0.5 49.5q-0.5 19 -0.5 35.5q-0.5 16 -0.5 37l0 1.5l0 1.5q0 7.5 2.5 10.5q3 3 9.5 2.5l25 -1q14.5 -1.5 22.5 -4q4.5 -0.5 6.5 -2.5q2 -2 3.5 -6.5l0 -24l0 -18l0 -15l0 -19l-1 -126.5q-0.5 -46 -0.5 -69.5q-0.5 -23.5 -0.5 -36.5l0 -27.5l0 -205q19 -5 25.5 -8.5q6.5 -3.5 6 -9q1 -7 -15 -12q-16.5 -5 -56.5 -9.5q30 -54.5 51.5 -99.5q21.5 -44.5 37.5 -86q16.5 -41.5 30 -86q22.5 -4 32 -8.5q9 -4.5 9 -12q0.5 -4.5 -7.5 -8.5q-7.5 -4 -31 -10.5q-23.5 -6 -70 -16.5q-5.5 45 -21.5 101q-16 56 -46.5 135.5q-21 54.5 -41 98.5q-19.5 43.5 -42 84q-22.5 40.5 -52 86l13.5 10M754 -686q16.5 -4.5 25 -10q8.5 -6 8.5 -12.5q0.5 -5 -6.5 -8.5q-7.5 -3 -29 -5.5l-63.5 -4.5q1.5 14 2 24.5q1 10 1.5 24.5q0 14 0.5 39l0 69l0 86q0 36 -0.5 67.5q0 31 -0.5 66l-1 81q-1 46.5 -2 113q-0.5 7 3 10q3 3.5 10 3.5q32 0 43 -3.5q10.5 -3.5 11.5 -14l0 -60.5q0 -22.5 -0.5 -38.5l0 -33q-0.5 -17 -0.5 -44l-1 -111l0 -88l0 -44l0 -106.5M650.5 -9l63.5 8q21.5 3 31 6q10 3 18 7.5q15 8 23.5 19.5q9 12 15.5 33.5q30.5 -5.5 49.5 -12.5q19 -7 34.5 -18q18 -12 25.5 -26q7.5 -14.5 7 -35.5l0 -5l0 -7l-1 -154l1 -107.5l0 -486.5q25 -8 34 -13q9.5 -4.5 9 -10.5q0.5 -8.5 -26 -15.5q-27 -6.5 -88.5 -14l1.5 22.5q0.5 9 0.5 20l0 31l0 727.5q0.5 11 -2.5 15q-3 4.5 -12 6.5q-24 0 -40 -0.5l-36.5 -2l-57.5 -4q-7.5 0 -20.5 -0.5l-29.5 -1.5l0 16.5" />
</g>
</svg>
