<?xml version="1.0" encoding="utf-8"?>
<svg version="1.1" id="Layer_1"
xmlns="http://www.w3.org/2000/svg"
xmlns:xlink="http://www.w3.org/1999/xlink"
xmlns:author="http://www.sothink.com"
width="5px" height="11px"
xml:space="preserve">
<g id="PathID_331" transform="matrix(0.0107353, 0, 0, 0.0107353, -3.65, 10.3)">
<path style="fill:#000000;fill-opacity:1" d="M685 -10q0 -5.5 -4 -10.5q-3.5 -4.5 -8 -7q-59 -3 -83.5 -12q-24 -9 -28.5 -23q-3.5 -10 -5 -29.5q-1 -19.5 -1 -61.5l0 -468q0 -26 0.5 -45.5q0.5 -19.5 1.5 -33.5q0 -3.5 0.5 -7.5q0.5 -4 0.5 -7.5q0.5 -9.5 -2.5 -15.5q-2.5 -6 -10.5 -6q-6 0.5 -15.5 7.5l-14.5 11q-9.5 6.5 -34 17.5q-25 11 -58 21.5q-33.5 10.5 -67.5 16q-8 1 -12 5.5q-4.5 4 -4.5 9q0 4 4 7q4 3 12.5 3l107.5 0q3 0 5.5 2.5q2.5 2.5 2.5 7l0 495.5q1 47.5 -4 69q-5.5 21 -29.5 27.5q-24.5 6.5 -80 10q-6.5 4 -9.5 8.5q-3 4 -3 9q0 4 4.5 7q4 3 14 3l303 0q10.5 0 14.5 -3q4 -3 4 -7" />
</g>
</svg>
