<?xml version="1.0" encoding="utf-8"?>
<svg version="1.1" id="Layer_1"
xmlns="http://www.w3.org/2000/svg"
xmlns:xlink="http://www.w3.org/1999/xlink"
xmlns:author="http://www.sothink.com"
width="133px" height="13px"
xml:space="preserve">
<g id="PathID_284" transform="matrix(0.010049, 0, 0, 0.010049, -1.1, 10.65)">
<path style="fill:#000000;fill-opacity:1" d="M511 -3q64 -11 110 -25.5q46.5 -14.5 89.5 -38q97.5 -52.5 150.5 -133q53 -80.5 53.5 -177.5q0 -74.5 -24.5 -134.5q-24.5 -60.5 -74 -106q-50 -45.5 -118 -69.5q-68 -24.5 -146 -24.5q-67.5 0 -132.5 17.5q-65 17.5 -121.5 49.5q-56.5 32 -98.5 76q-43 48 -67.5 101q-24 53 -24.5 102q0 24 5.5 46.5q6 22.5 18 46.5q14.5 28.5 23 44.5q8 16.5 13 28q5 11 9 24q8.5 24 13.5 36q4.5 12 7.5 18q3.5 6 8 11.5q8.5 10 20 15.5q11.5 6 25 6q28 0 66 -38q38 -38 86.5 -114.5q39 -63.5 69.5 -129.5q30.5 -66.5 47.5 -125.5q17.5 -58.5 18 -99.5q0.5 -21.5 -6.5 -40q-7 -19 -25.5 -45l19.5 -1.5l16.5 -0.5q49.5 0 96 12.5q46.5 12 81.5 34.5q56.5 36.5 86 94q29.5 57.5 29.5 132.5q0 71 -23 133q-23 62 -68 114q-43 50 -100.5 84q-57 34 -139.5 58q3.5 9 7.5 17.5M484 -677q8.5 18.5 11.5 29.5q3 11 3 22q-0.5 32.5 -17 83.5q-16.5 50.5 -45.5 111q-29.5 60.5 -67.5 122q-38.5 60.5 -71 97.5q-33 36.5 -50.5 37.5q-8.5 0 -18.5 -8q-10 -7.5 -20.5 -21.5q-19.5 -27.5 -30 -63q-11 -35 -11 -72.5q1 -79.5 42.5 -150.5q42 -71 113.5 -120.5q71 -50 161 -67" />
</g>
<g id="PathID_285" transform="matrix(0.010049, 0, 0, 0.010049, 9.15, 10.65)">
<path style="fill:#000000;fill-opacity:1" d="M538.5 -729q56.5 -7 101 -13.5q44 -7 86 -15.5q42.5 -9 92.5 -21q17 6 25 7.5q8 2 15 1.5q6.5 0 11 -3q4.5 -3 4.5 -7q0 -5 -9.5 -14q-9.5 -8.5 -31.5 -23q-7 -5 -18 -13.5q-11.5 -8.5 -26 -20q-30 18 -85.5 35q-55 17.5 -141 35.5q-74 15.5 -146 27q-71.5 11.5 -147.5 20.5q-75.5 9 -161 16l2 15.5q66.5 -0.5 122 -2.5l112 -6q57 -4 128.5 -11l0 134l-266 0l-55 -2q-24 -1.5 -45.5 -6l6 36.5l31 -3l27.5 -1.5q14.5 -0.5 36 -0.5l46 0l0 169l-100.5 0l-55 -2q-21.5 -1.5 -45 -6l6 35.5q17.5 -2 39.5 -3q21.5 -1 54.5 -1l100.5 0l0 182l-55.5 0l-55 -2q-21.5 -2 -41 -7l6 35.5l36.5 -2.5q20 -0.5 53.5 -0.5l275.5 0l0 162l-312 0q-22 0 -38.5 -0.5l-33 -3q-17.5 -2 -42.5 -6.5q3 18 6.5 36.5l52.5 -2.5q26 -0.5 55 -0.5l807.5 0q4 0 6.5 -2q3 -2 3 -5q0 -1 -1.5 -3l-3.5 -4.5l-29.5 -26.5l-25 -22l-30.5 -26q-16.5 16.5 -25 25.5q-8.5 9 -17 17l-22.5 23l-284 0l0 -162l382 0q5 0 8.5 -2q3.5 -2 4 -5q0 -1.5 -1 -3l-1 -3.5l-28 -26.5q-11 -10.5 -23 -20.5q-11.5 -10.5 -29 -25.5q-17.5 18 -28.5 30q-11.5 12 -29 32.5l-26.5 0l0 -182l189.5 0q3 0 6 -2q3 -2 3 -5q0 -1 -1.5 -3q-1 -2 -3.5 -4.5l-27.5 -26.5q-11.5 -11 -23 -21q-11.5 -10 -28.5 -24q-16.5 19 -28 31l-30 31.5l-56.5 0l0 -169l154.5 0q3.5 0 5 -2q2 -2 2.5 -4q0 -1 -1 -3q-0.5 -1.5 -2.5 -3.5q-16 -16.5 -28 -27.5q-11.5 -11.5 -23.5 -21.5q-11.5 -10.5 -29 -25.5q-17.5 19.5 -28 32q-10.5 12 -25.5 31.5l-253 0l0 -142.5M700.5 -563l0 169l-162 0l0 -169l162 0M472 -563l0 169l-156.5 0l0 -169l156.5 0M700.5 -370.5l0 182l-162 0l0 -182l162 0M472 -370.5l0 182l-156.5 0l0 -182l156.5 0" />
</g>
<g id="PathID_286" transform="matrix(0.010049, 0, 0, 0.010049, 19.4, 10.65)">
<path style="fill:#000000;fill-opacity:1" d="M510 -585.5q9.5 -32.5 14 -49.5q5 -17 9 -32l11 -41.5l429.5 0q5 0 8 -2q3.5 -2 3.5 -4q0 -2.5 -1.5 -5q-1.5 -3 -3.5 -5.5q-21.5 -17.5 -36.5 -29q-14.5 -12 -30 -23q-15 -11 -38 -26.5l-22 24.5l-18 21l-22.5 26l-263 0l5.5 -23l5 -19l7 -27.5q26.5 -6 36.5 -11q10 -4.5 9.5 -10.5q1 -5.5 -5 -9q-6 -3.5 -29.5 -8q-23.5 -4.5 -74 -12q-4 30 -9 56.5q-5.5 27 -13.5 63.5l-323.5 0l-52.5 -2q-21 -2.5 -47 -9q3 19.5 6.5 39.5q18.5 -3 37.5 -4q19 -1 46 -1l326.5 0l-13 50.5q-8 31 -19.5 72.5l-36 0l-26 -17.5l-22 -13l-27.5 -14.5q1.5 47 2.5 138q1.5 90.5 1.5 228.5q0 38.5 -0.5 67.5l-1 58l-2.5 68q0 6.5 3.5 9.5q3.5 3 12 2.5q32.5 0.5 44.5 -4q11.5 -4 10.5 -15.5l0 -45l342 0l0 44q0 7.5 3 10.5q3 3 11.5 3l27 -1.5q13 -1.5 20 -3.5q4.5 -1.5 6 -4q1.5 -2 2 -7.5q-1 -32 -1.5 -86l-1 -120.5q0 -65.5 -0.5 -132l0 -123q21.5 -12 29.5 -18q8 -6 7.5 -11.5q0 -2.5 -2.5 -5.5q-2.5 -3 -7 -6q-19.5 -14.5 -32.5 -23.5q-12.5 -9 -33 -22.5l-20 21.5l-20 23.5l-223 0M402.5 -448.5l0 -113.5l342 0l0 113.5l-342 0M744.5 -425l0 125l-342 0l0 -125l342 0M744.5 -276.5l0 130l-342 0l0 -130l342 0M186.5 17.5l803.5 0q4 0 6.5 -2q3 -2 3 -4q0 -2 -1.5 -4.5q-1.5 -2.5 -4 -5q-20.5 -18 -35 -30l-29.5 -24l-36.5 -28l-23 25.5l-18 21.5l-22.5 27l-643 0l0 -527.5q25 -8 34 -13.5q9.5 -5.5 9 -12q0 -3 -2.5 -5.5q-2.5 -2.5 -7.5 -4.5q-4 -2.5 -11 -4q-7.5 -2 -28.5 -4.5l-66 -8l1.5 36.5q1 15 1 29.5q0.5 14.5 0.5 33q0 74.5 -0.5 159q0 84.5 -1 164.5l-1 140.5l-1.5 88q-0.5 7.5 3 10q3.5 2.5 13.5 2.5q18.5 0 33 -2q15 -2 20 -5.5q2 -1 3 -3.5q1 -2.5 1 -7.5l0 -42" />
</g>
<g id="PathID_287" transform="matrix(0.010049, 0, 0, 0.010049, 29.65, 10.65)">
<path style="fill:#000000;fill-opacity:1" d="M165 -648.5q24 -3 46.5 -4.5l48.5 -1.5l598 0q8.5 0 12 -1.5q3.5 -2 3.5 -5.5q0 -1 -1.5 -3.5l-2.5 -5l-37 -34l-30.5 -27l-37 -32l-24.5 29.5q-10 12 -19.5 24.5l-23.5 31l-437.5 0q-21 0 -47.5 -3q-26.5 -2.5 -54 -7q3.5 19.5 6.5 39.5M62.5 -74q23 -3.5 45.5 -5.5q22.5 -1.5 57 -1.5l813 0q4 0 6 -1.5q2 -1.5 2 -3.5q0 -2.5 -1.5 -4.5q-1.5 -2.5 -5.5 -5l-39 -34.5q-16 -14 -32.5 -27.5q-16 -14 -40 -34l-25.5 31l-20 25l-24.5 31l-632.5 0q-22.5 0 -39 -1q-16.5 -0.5 -33 -2.5q-16 -2 -38.5 -5.5l8 39.5" />
</g>
<g id="PathID_288" transform="matrix(0.010049, 0, 0, 0.010049, 39.9, 10.65)">
<path style="fill:#000000;fill-opacity:1" d="M529.5 -533.5l0 -50q24.5 -6 33 -10q8.5 -4 8 -10.5q0.5 -4 -4 -7q-4 -2.5 -18 -5.5l-42.5 -7q21 -19.5 40 -40.5q19.5 -21.5 45 -53l53 0q21.5 27.5 35.5 58q14 30 25 72q2.5 11.5 6.5 17.5q4.5 5.5 10 5.5q7.5 -0.5 16 -10.5q9 -9.5 15 -22.5q6.5 -13.5 7 -24.5q0 -10.5 -7 -21q-7 -10.5 -25 -26.5q-19.5 -17.5 -32 -27q-13 -9.5 -32.5 -21l302 0q3.5 0 6.5 -2q2.5 -2 3 -5q0 -1.5 -1.5 -3.5q-1.5 -2 -5 -5q-48 -36.5 -96 -73.5l-29.5 31.5q-11 13 -30 34l-201.5 0q14 -18 23 -32q9 -13.5 22 -35.5q25 -3 36.5 -8q11.5 -4.5 11.5 -11.5q1 -4.5 -6.5 -8q-7 -3.5 -31.5 -8.5l-74.5 -13q-15 59 -40.5 115.5q-26 56.5 -64 115.5l-14 -1l-12.5 -2l3 38l1 19.5l0 15.5l0 22.5l-203 0q-23.5 0 -42 -2.5q-19 -2.5 -42.5 -9l8 43q19 -3.5 31 -5q11.5 -2 21.5 -2.5q10.5 -0.5 24 -0.5l203 0l0 124l-304 0q-22 0 -37.5 -0.5q-15 -1 -29 -3q-14.5 -2 -34 -6.5l7 40.5l32 -4.5l26 -2q13.5 -0.5 35.5 -0.5l495.5 0l0 118.5l-479 0q-23.5 0 -38 -1q-15 -0.5 -27 -3q-12 -2 -26.5 -6q3.5 20.5 7.5 41.5q11.5 -3.5 22 -5q10 -2 24 -2.5q14 -0.5 38 -0.5l479 0l0 197.5q0 10 -3 13.5q-3 3 -10.5 3l-2 0l-3 0l-58 -2.5l-39 -2l-33.5 -2l-42.5 -2.5l0 16q39 5 61 9q22.5 3.5 34.5 8q12 4.5 20 11q10.5 7 16 18.5q5 11.5 8 32.5q33.5 -5 54 -12q20.5 -6.5 36 -17.5q15 -9.5 21.5 -23q6.5 -13.5 9 -39.5q-0.5 -48.5 -0.5 -70q-0.5 -21.5 -0.5 -29.5l0 -14.5l0 -94l231.5 0q3 0 6 -2q3 -2 3 -4q0 -1.5 -1 -4q-0.5 -2 -3 -4.5q-18.5 -16 -31 -27.5l-26 -21.5q-12.5 -11 -31 -26.5l-20 23.5l-16.5 19l-20 24l-92 0l0 -118.5l243.5 0q5 0 8 -2q3.5 -2 3.5 -4q0 -1.5 -1.5 -4l-3.5 -5.5q-19 -17 -32 -28l-26.5 -22.5l-33 -26l-22.5 23.5q-9 10 -17.5 20q-9 10 -21 25l-291 0l0 -124l324.5 0q3.5 0 5.5 -2q2.5 -2 3 -4q0 -3 -3.5 -6.5q-16 -14.5 -27 -25l-22 -19.5q-11 -10 -27.5 -24q-15 17.5 -25.5 29q-10.5 11 -29 28.5l-198.5 0M231.5 -740.5q12.5 -19.5 20.5 -34.5q7.5 -15 18.5 -39q27.5 -4.5 37 -8q9.5 -3.5 9 -9.5q0 -2 -1.5 -4l-3.5 -4.5q-3 -2.5 -13.5 -5.5q-10 -2.5 -40 -7.5q-9 -1.5 -22 -4.5l-31 -6q-4 20 -9 37.5q-4.5 17.5 -12 36.5q-7.5 19 -19 45q-26 57 -52 100.5q-26.5 43 -61.5 85l15 10q43.5 -39.5 79.5 -80q36 -41 69 -88l55.5 0q14 25 23 45.5q9 20 15 39.5q5.5 19.5 10 43q4.5 20.5 7 26.5q2.5 6 8.5 5.5q15.5 -1.5 29 -19.5q13 -18.5 14 -39q0 -7.5 -4 -16.5q-4 -8.5 -12.5 -18.5q-18.5 -22.5 -35 -37q-17 -15 -40.5 -29.5l223 0q4 0 7 -2.5q3 -2 3 -4.5l-0.5 -2.5l-2.5 -3q-17 -15.5 -28.5 -26.5l-23.5 -22l-28.5 -27q-17.5 19.5 -28 32.5q-11 12.5 -27.5 32l-147.5 0M270.5 -192q35.5 30 60.5 60.5q24.5 30 47 70.5q15.5 30 22 38q6.5 8.5 13 7.5q11.5 -1.5 20.5 -20.5q8.5 -19.5 9 -45.5q0.5 -18.5 -14.5 -35.5q-14.5 -17 -50.5 -36.5q-36 -20 -99 -46.5l-8 8" />
</g>
<g id="PathID_289" transform="matrix(0.010049, 0, 0, 0.010049, 50.15, 10.65)">
<path style="fill:#000000;fill-opacity:1" d="M721 -424q-2.5 98.5 -8.5 179q-5.5 81 -14 135.5q-6.5 39.5 -14 60.5q-7.5 21 -19 28.5q-12 7.5 -31.5 7l-41.5 -1.5l-68.5 -6.5l-118.5 -13.5l-1 18.5q40 7 63.5 12q24 5 37 9q13 3.5 21.5 7.5q16.5 8.5 24 20q7.5 12 8.5 32.5q60 -1.5 95.5 -7.5q35.5 -5.5 54.5 -18q18.5 -12.5 28.5 -34q19 -40 32.5 -140.5q14 -101 21.5 -263q21 -10.5 28.5 -16q8 -6 7.5 -11.5q0 -3 -2.5 -6.5q-3 -3.5 -9 -9q-18 -14.5 -30 -23q-12.5 -9 -33.5 -22l-21.5 19q-8.5 7.5 -21.5 20l-436 0l-42 -2q-19.5 -1.5 -46 -6l7 38.5q19.5 -3 41 -5l41 -2l130 0q-6.5 49 -13.5 85q-7 36 -16.5 65.5q-9.5 30 -23.5 60.5q-37.5 85 -103.5 152q-66.5 67 -171.5 124.5l7 14.5l47 -17.5q19.5 -8 36.5 -16q16.5 -8 35 -18q70.5 -39 120.5 -86q50 -47.5 81.5 -103.5q29.5 -53.5 48 -115q18.5 -62 30 -146l239.5 0M40 -377q43.5 -27 77.5 -52q34 -24.5 63 -50.5q29.5 -26 59 -58q33 -34.5 60.5 -69q27.5 -35 54 -77q26.5 -42 56.5 -98q28 -3.5 39 -7.5q11 -4 10.5 -11q1 -4.5 -11.5 -10.5q-12 -5.5 -50 -19l-22 -6.5q-13 -4.5 -29.5 -11q-12.5 40.5 -27 76q-15 35 -34 69.5q-19 34 -44.5 73q-29.5 46 -59 84q-29.5 37.5 -66 74.5q-36 37 -86 81l9.5 12M567.5 -826.5q9.5 8 16.5 18.5q7 10.5 16 28.5q25 51.5 44 85.5q19 34 37.5 60.5q18.5 26 42.5 54q40.5 46.5 85.5 84.5q45 38.5 109 80q17.5 -33.5 35 -48.5q17.5 -15 48 -22l-1 -13q-49.5 -15.5 -88.5 -32q-39 -17 -73.5 -38q-34.5 -21 -69.5 -49q-34 -27 -66.5 -63q-32.5 -36 -56.5 -72.5q-24.5 -36.5 -33.5 -64q-2.5 -6 -3.5 -12q-1 -5.5 -0.5 -14q-20.5 8.5 -41 16.5" />
</g>
<g id="PathID_290" transform="matrix(0.010049, 0, 0, 0.010049, 60.4, 10.65)">
<path style="fill:#000000;fill-opacity:1" d="M207 -167q0 44 -1.5 105.5q-1.5 61.5 -4.5 129q0.5 7 3.5 10.5q3 3 10.5 3q13.5 0 28 -2.5q15 -2 20.5 -4.5q3.5 -2.5 5.5 -5.5q1.5 -3 1.5 -9l-1 -62q-0.5 -24 -0.5 -45.5q-0.5 -22 -0.5 -51.5l0 -78.5l0 -206l36 -7.5q12.5 -2.5 24.5 -5.5l32.5 -7.5q5.5 16.5 9 28.5q3.5 12 6.5 25q2.5 9.5 6 14.5q4 5 9.5 4.5q12.5 -1 23.5 -21q10.5 -20 11 -44q0 -12 -5.5 -24q-5.5 -12.5 -17 -25.5q-21.5 -24.5 -44 -46q-23 -21.5 -49 -41l-10.5 10q14.5 21.5 23.5 37.5q9.5 15.5 16.5 30q7 14.5 14.5 33l-41 3.5l-33 2.5l-41.5 2.5l-66 3q43 -51.5 74.5 -91q31.5 -39 61 -79.5q30 -40 67.5 -94q25.5 -0.5 35.5 -4q10 -3.5 9.5 -10q0.5 -5 -7.5 -10.5q-7.5 -5.5 -29 -14.5q-22 -8.5 -63 -23q-13.5 39 -37.5 89.5q-24 50 -56.5 107.5q-13 23 -24.5 42q-12 19.5 -25.5 40.5l-33 48q-19.5 0.5 -28.5 0.5l-12.5 0.5l-8 0l-20.5 -1l-26.5 -2q7 38.5 11.5 58.5q5 20.5 9 27.5q4 7.5 9 7q5 0.5 9.5 -7.5q4 -7.5 10 -29.5l54.5 -8q17.5 -2.5 28 -4.5l26 -4.5l0 206.5M56.5 -686q32 36 54 68.5q21.5 33 33 61.5q10 29.5 14.5 36q4 7 11 6q11.5 -1.5 20.5 -20.5q9 -18.5 9.5 -42q0.5 -17 -11 -32q-11 -15 -40.5 -35.5q22.5 -26.5 39 -47.5q16.5 -21 35 -47.5q18 -26 45 -67.5l6.5 0.5l4.5 0.5q21 0 30 -3.5q9.5 -3 9 -9q1 -5 -4 -9.5q-5 -4 -28.5 -13q-23 -8.5 -77 -27.5q-3.5 23.5 -14.5 58q-10.5 34.5 -26 74.5q-15.5 40.5 -34.5 80q-17 -12 -30 -20.5q-12.5 -8.5 -35.5 -22.5q-5 6.5 -10 12.5M627 -754.5l24.5 -20.5q10 -8.5 20.5 -19q10 -10 25.5 -27q24.5 -1.5 33.5 -4.5q9 -3 8.5 -10q0.5 -4.5 -6.5 -8.5q-7 -4 -29 -11q-22 -7 -67 -19.5q-4.5 29.5 -14 61q-9 32 -21 59l-66.5 0l-24.5 -16q-10.5 -6.5 -21 -12.5q-11 -6.5 -27 -15.5q1 21 1.5 56q1 35 1 76.5q0.5 41.5 0.5 82l0 35.5q0 14 -0.5 30q0 16 -1 42.5l-1.5 71.5q0.5 7 3.5 9q2.5 2.5 8.5 2.5q11 0 24 -2q13 -2 19.5 -4.5q4.5 -1 6 -4q2 -3 2 -9l0 -28l110.5 0l0 418q0 7.5 -2.5 10.5q-2.5 3 -9.5 3l-52.5 -2l-44 -2.5l-56.5 -5l0 15.5l58.5 14q17.5 4.5 24 6.5q6 2.5 11 5q16 8 23 18.5q7.5 10.5 9.5 28.5q43 -8 66 -17q22.5 -8.5 31 -21.5q8 -13 7.5 -34q-1.5 -37 -2 -62.5q-1 -25 -1 -44l-1 -35l0 -44q-0.5 -17 -1 -22.5l-5 -163.5q10.5 45.5 22 81q12 36 27 68q15.5 32.5 37 68q22 36.5 44.5 65.5q22.5 29 50.5 55.5q27.5 27 64.5 56q10 -25 25 -37q15 -12 40.5 -16l4 -15.5q-37.5 -15 -69.5 -34q-32 -19 -69.5 -50q-29 -22.5 -50 -45q-21.5 -22.5 -40 -50.5q32 -15 53.5 -27.5q21.5 -12 41 -26q19.5 -14 45.5 -34.5l10 1l6.5 0q17.5 0 24.5 -2.5q7.5 -2.5 7 -7.5q0.5 -5 -5 -10q-5.5 -5 -25 -15.5q-19 -10.5 -59 -31q-25 42 -51.5 74.5q-26.5 32.5 -59 62q-20.5 -34 -33.5 -62q-13 -28.5 -21 -59.5q-8 -31 -14 -73.5l110.5 0l0 33q0 7 3 9.5q3.5 3 10.5 3q28 0 41.5 -5q13.5 -4.5 13.5 -13.5l0 -3q-2 -39.5 -3 -67.5q-1.5 -27.5 -1.5 -51.5q-0.5 -24.5 -0.5 -53.5l1 -125.5q17.5 -9 25 -15.5q8 -6 7.5 -11q0 -4 -3 -8.5q-3.5 -4 -10 -10l-25.5 -19l-28 -20q-13 13 -20.5 21.5q-8 8.5 -20 22.5l-172 0M526.5 -615.5l0 -115.5l282.5 0l0 115.5l-282.5 0M809 -592l0 128l-282.5 0l0 -128l282.5 0M45 36q25 -41.5 44.5 -84q19.5 -42.5 34.5 -90q15.5 -48 28.5 -106.5q20.5 -3 28 -7q7.5 -3.5 7 -9.5q0.5 -5 -6 -9q-6.5 -4 -26 -9.5q-19.5 -6 -58 -15.5q-0.5 18.5 -2 36q-1.5 18 -5 40q-3.5 22.5 -9.5 55q-6.5 36 -13 65q-6.5 29 -15.5 59.5q-9 30 -22.5 69.5l15 6M295 -300q14 33 23 59.5q9 26.5 15.5 53.5q6.5 27 11.5 61q4 23 6.5 30q3 6.5 8 6q8 -0.5 17 -11.5q9.5 -11 16 -26.5q6.5 -15.5 7 -28.5q0 -22.5 -24 -60.5q-23.5 -37.5 -69 -87l-11.5 4M446.5 -304l-27.5 -1.5q-13 -1 -33 -5.5q3.5 18 6.5 36.5q12 -3 27.5 -4.5l32.5 -1.5l75 0q-10.5 32 -21 56.5q-11 25 -24.5 48.5q-13.5 23.5 -33.5 51.5q-29 43.5 -57 74.5q-28.5 30.5 -69 64q5.5 7.5 10.5 15.5q45 -28.5 76 -54q30.5 -25 61 -59q38.5 -39.5 66 -81q27 -42 54 -99q27.5 -8 27.5 -15.5q0.5 -2.5 -2 -6.5q-2.5 -3.5 -10 -12q-14.5 -13.5 -24.5 -21.5l-25 -20.5l-16.5 16.5q-6.5 7 -16 18.5l-77 0" />
</g>
<g id="PathID_291" transform="matrix(0.010049, 0, 0, 0.010049, 70.65, 10.65)">
<path style="fill:#000000;fill-opacity:1" d="M311.5 -382q-27.5 66 -55.5 132l-43 102.5q-9 -30.5 -13 -59.5q-3.5 -29 -3.5 -67.5q0.5 -83 20.5 -169.5q20.5 -86.5 57.5 -164q8 -16.5 11.5 -24.5q3.5 -7.5 4.5 -11.5q0.5 -4 0.5 -9q0 -15 -9.5 -35q-9.5 -20.5 -27.5 -43q-21 -27 -38 -39q-16.5 -11.5 -34 -12q16 25.5 23 46.5q7 21 7 43.5q0 8 -1 17.5q-1 9.5 -4.5 26.5l-10 48q-17.5 79.5 -27.5 139q-10 59.5 -14.5 107.5q-4 48 -4 94.5q0 57.5 8.5 111.5q9 54 24 94q9.5 24 20.5 35q11 11 24 11q6 0 11 -3q4.5 -2.5 8.5 -8q3.5 -5.5 5 -13.5q1.5 -8 2 -31.5q0 -18 3 -36.5q3 -18 10.5 -50.5l16.5 -66.5l22 -83.5q11.5 -43 21 -76l-15.5 -5.5M420 -550.5q37 39 75.5 55.5q38.5 16.5 93 16l45 -2q22 -1.5 45.5 -6l1 130.5l2 109.5l0 6l0 11.5l-35 -2l-27.5 -1q-89 0.5 -140 31.5q-51.5 30.5 -52.5 84q1 47 42.5 75.5q41 28 109 29q77.5 -0.5 120 -31q43 -31 43.5 -86.5q0.5 -5.5 0 -11.5q0 -6.5 -1 -13q29 12 53.5 30q24.5 18 57.5 51.5q14.5 15 22.5 20.5q7.5 5.5 13 5q9 0 14.5 -10.5q6 -10.5 6 -27q0.5 -44.5 -40 -76q-40.5 -31.5 -129 -55q-5 -42 -8 -80q-2.5 -38.5 -4 -85q-1 -46.5 -1 -113.5q53.5 -10.5 94 -23q41 -13 64 -26q22.5 -13 23 -24.5q0 -5.5 -3.5 -10.5q-3.5 -5 -9.5 -8q-10 -5.5 -24.5 -9.5q-14 -3.5 -24 -4q-6.5 0 -10.5 2q-4.5 2 -12 9.5q-13 11.5 -36 21.5q-23 10.5 -58 20.5q3 -52.5 8 -84q5 -32 13.5 -53.5q6.5 -16.5 8 -22q1.5 -5 1 -9.5q0 -11.5 -11 -21q-11.5 -9 -34 -16q-15 -4 -33.5 -6.5q-18.5 -2.5 -36 -2.5q-19 -0.5 -29 3q-10 3.5 -20 13q24.5 2.5 41.5 8q16.5 6 26 16q6.5 6 9.5 17.5q3 11.5 4 40q1 28 0.5 84.5l0 19l0 26q-31.5 7 -60.5 11q-29 3.5 -56 3.5q-37.5 0.5 -67 -9q-29.5 -9.5 -65 -33l-9 11.5M681 -176q0 27.5 -3 43q-3 15.5 -10.5 28.5q-12.5 23.5 -41.5 36q-28.5 12 -71 12q-46 -0.5 -73 -17q-27 -16 -27.5 -43.5q0.5 -34 35 -52.5q35 -18.5 96 -19q28 0 51 3q23 3 44.5 9.5" />
</g>
<g id="PathID_292" transform="matrix(0.010049, 0, 0, 0.010049, 80.9, 10.65)">
<path style="fill:#000000;fill-opacity:1" d="M82 122q27.5 -13 47 -27.5q19.5 -14 35 -33q20.5 -26 32 -57q11.5 -30.5 12 -62q-0.5 -43.5 -21.5 -68.5q-21 -25 -57.5 -25.5q-30.5 0.5 -49.5 19q-18.5 19 -19 48.5q-0.5 25 13.5 39q14 14.5 47 22.5q11 2 15.5 7q4 4.5 4 13.5q0 27.5 -19.5 51.5q-19 24 -59.5 48l20.5 24.5" />
</g>
<g id="PathID_293" transform="matrix(0.010049, 0, 0, 0.010049, 91.15, 10.65)">
<path style="fill:#000000;fill-opacity:1" d="M169 -639l-54.5 -2q-23 -1.5 -52 -6q5 18 9.5 36.5l50.5 -3.5l46.5 -1.5l174 0q-49 136.5 -123 250.5q-73.5 114 -179 217.5q6 6 11.5 12.5q76.5 -55 132.5 -111.5q56 -57 106 -129.5l0 107.5q0 107 -1.5 190.5q-2 83 -5.5 133q-0.5 9.5 5 12.5q5 3.5 19.5 3q29.5 0.5 40 -3.5q10.5 -4 12 -16l0 -69.5l399.5 0l0 75q0.5 7 5 9.5q4 2.5 15.5 2.5q31 0.5 41.5 -3.5q10.5 -4 10.5 -17l-1 -56l-1 -78.5l-1 -83q-0.5 -40.5 -0.5 -71q-0.5 -30 -0.5 -41l0 -17l0 -18q26.5 -14.5 32.5 -18.5q5.5 -4.5 4.5 -8q0 -3 -2 -6l-6.5 -8.5q-17 -16 -29 -25.5q-12 -10 -32 -24.5q-14 13 -22.5 21.5q-9 9 -22.5 23.5l-378 0q-14.5 -10.5 -24 -17q-9 -6.5 -18 -12q-8.5 -5 -21.5 -12q30.5 -47.5 57.5 -99.5q27 -52 53 -112.5l527.5 0q6 0 10 -2q4 -2 4 -5q0 -2.5 -1 -5l-3 -5.5q-17.5 -17 -30 -28.5l-25.5 -23l-33.5 -27q-14.5 14.5 -24.5 25l-19.5 21l-23.5 26.5l-372 0q10.5 -26.5 18 -47q7.5 -21 15 -44.5q7.5 -24 17.5 -59q27 -1.5 39 -6q11.5 -4 11 -12.5q0 -10.5 -21.5 -15.5l-15.5 -5l-36.5 -10l-22.5 -6.5l-31 -8q-3.5 41.5 -16 93q-12.5 52 -35 121l-182.5 0M360.5 -339l398.5 0l0 297l-398.5 0l0 -297" />
</g>
<g id="PathID_294" transform="matrix(0.010049, 0, 0, 0.010049, 101.4, 10.65)">
<path style="fill:#000000;fill-opacity:1" d="M511 -3q64 -11 110 -25.5q46.5 -14.5 89.5 -38q97.5 -52.5 150.5 -133q53 -80.5 53.5 -177.5q0 -74.5 -24.5 -134.5q-24.5 -60.5 -74 -106q-50 -45.5 -118 -69.5q-68 -24.5 -146 -24.5q-67.5 0 -132.5 17.5q-65 17.5 -121.5 49.5q-56.5 32 -98.5 76q-43 48 -67.5 101q-24 53 -24.5 102q0 24 5.5 46.5q6 22.5 18 46.5q14.5 28.5 23 44.5q8 16.5 13 28q5 11 9 24q8.5 24 13.5 36q4.5 12 7.5 18q3.5 6 8 11.5q8.5 10 20 15.5q11.5 6 25 6q28 0 66 -38q38 -38 86.5 -114.5q39 -63.5 69.5 -129.5q30.5 -66.5 47.5 -125.5q17.5 -58.5 18 -99.5q0.5 -21.5 -6.5 -40q-7 -19 -25.5 -45l19.5 -1.5l16.5 -0.5q49.5 0 96 12.5q46.5 12 81.5 34.5q56.5 36.5 86 94q29.5 57.5 29.5 132.5q0 71 -23 133q-23 62 -68 114q-43 50 -100.5 84q-57 34 -139.5 58q3.5 9 7.5 17.5M484 -677q8.5 18.5 11.5 29.5q3 11 3 22q-0.5 32.5 -17 83.5q-16.5 50.5 -45.5 111q-29.5 60.5 -67.5 122q-38.5 60.5 -71 97.5q-33 36.5 -50.5 37.5q-8.5 0 -18.5 -8q-10 -7.5 -20.5 -21.5q-19.5 -27.5 -30 -63q-11 -35 -11 -72.5q1 -79.5 42.5 -150.5q42 -71 113.5 -120.5q71 -50 161 -67" />
</g>
<g id="PathID_295" transform="matrix(0.010049, 0, 0, 0.010049, 111.65, 10.65)">
<path style="fill:#000000;fill-opacity:1" d="M238.5 -424q58.5 32.5 95 53q36.5 20.5 59.5 34.5q23.5 13.5 43 26q19 12.5 43.5 29q-17.5 19.5 -33 35q-16 15.5 -35 31.5q-34 30.5 -65.5 54q-31 24 -63.5 44.5q-32.5 20.5 -71.5 42l9 15q42 -16.5 75.5 -32.5q33 -16.5 64 -35.5q30.5 -19 65.5 -44.5q28 -20.5 50.5 -40q22.5 -19.5 43.5 -42q43.5 30.5 73.5 54.5q30 23.5 55 46.5q25 23.5 53 53.5q19 21 25.5 26.5q6.5 5 12.5 4.5q7.5 -0.5 12.5 -7.5q4.5 -7 5 -17q-1.5 -29 -7.5 -49q-6 -20 -17.5 -35q-17 -21.5 -63.5 -53.5q-46.5 -31.5 -110.5 -65.5q46.5 -56 81.5 -106.5q35 -51 65 -108.5q30.5 -58 62.5 -134l1.5 0l0.5 0q20.5 0 29 -3q8 -3 8 -10.5q0.5 -4.5 -8 -9.5q-8.5 -5.5 -30.5 -14q-22.5 -8.5 -64 -22.5q-20.5 92.5 -70 192q-49.5 99.5 -121.5 192q-47.5 -24 -87.5 -42.5q-40.5 -18.5 -82 -36q-42 -17.5 -94.5 -38.5l-8.5 13.5M260 -657.5q19 33 31.5 55.5q12.5 23 21 42q8.5 19.5 16 42q8 22.5 17.5 55q3 10 7 14.5q3.5 4 9.5 4q8.5 -0.5 17 -11q9 -10.5 14.5 -25.5q6 -15.5 6.5 -30q0 -11 -4.5 -22q-4 -11.5 -12 -23q-21 -28.5 -49 -56q-28 -27.5 -62.5 -53.5l-12.5 8M421 -708.5q30 44.5 51.5 87q21.5 42.5 35.5 84q6.5 21.5 11.5 29q4.5 7 12 6.5q7.5 -0.5 15.5 -11q8 -10.5 13.5 -25.5q5.5 -15 6 -29q0 -10 -4 -20q-4 -10 -11.5 -21q-19 -26.5 -45 -51q-26.5 -24 -73 -58.5q-6 4.5 -12 9.5M169 0l682 0l0 54.5q-0.5 7.5 4 10q4.5 2.5 16.5 2l25.5 -1.5q13 -1 18.5 -3.5q4.5 -1.5 6.5 -4.5q2.5 -3 2.5 -9l0 -42.5q0 -16.5 -0.5 -30q0 -13.5 -0.5 -31l-1 -47l-1 -93.5q-0.5 -37.5 -0.5 -66.5q-0.5 -28.5 -0.5 -57l0 -65l0 -91.5l0 -261.5q24 -14 31.5 -21q8 -7 7.5 -12.5q0 -3 -2.5 -6.5q-2.5 -3.5 -8 -9l-22.5 -18q-9 -7.5 -19 -14.5l-24 -16.5q-21.5 24.5 -42.5 49l-658.5 0l-30.5 -20q-12.5 -7.5 -25.5 -14q-12.5 -6 -31 -14l3 119q1 44 1 58q0 164.5 -0.5 281q0 116.5 -1 197q-0.5 80.5 -2 137q-1.5 56.5 -3.5 101q1 6.5 5 9q4 2.5 12 2l26 -1q12.5 -0.5 20 -3q6 -0.5 9 -4q3 -3.5 4.5 -10.5l0 -51M169 -763l682 0l0 739.5l-682 0l0 -739.5" />
</g>
<g id="PathID_296" transform="matrix(0.010049, 0, 0, 0.010049, 121.9, 10.65)">
<path style="fill:#000000;fill-opacity:1" d="M511 -3q64 -11 110 -25.5q46.5 -14.5 89.5 -38q97.5 -52.5 150.5 -133q53 -80.5 53.5 -177.5q0 -74.5 -24.5 -134.5q-24.5 -60.5 -74 -106q-50 -45.5 -118 -69.5q-68 -24.5 -146 -24.5q-67.5 0 -132.5 17.5q-65 17.5 -121.5 49.5q-56.5 32 -98.5 76q-43 48 -67.5 101q-24 53 -24.5 102q0 24 5.5 46.5q6 22.5 18 46.5q14.5 28.5 23 44.5q8 16.5 13 28q5 11 9 24q8.5 24 13.5 36q4.5 12 7.5 18q3.5 6 8 11.5q8.5 10 20 15.5q11.5 6 25 6q28 0 66 -38q38 -38 86.5 -114.5q39 -63.5 69.5 -129.5q30.5 -66.5 47.5 -125.5q17.5 -58.5 18 -99.5q0.5 -21.5 -6.5 -40q-7 -19 -25.5 -45l19.5 -1.5l16.5 -0.5q49.5 0 96 12.5q46.5 12 81.5 34.5q56.5 36.5 86 94q29.5 57.5 29.5 132.5q0 71 -23 133q-23 62 -68 114q-43 50 -100.5 84q-57 34 -139.5 58q3.5 9 7.5 17.5M484 -677q8.5 18.5 11.5 29.5q3 11 3 22q-0.5 32.5 -17 83.5q-16.5 50.5 -45.5 111q-29.5 60.5 -67.5 122q-38.5 60.5 -71 97.5q-33 36.5 -50.5 37.5q-8.5 0 -18.5 -8q-10 -7.5 -20.5 -21.5q-19.5 -27.5 -30 -63q-11 -35 -11 -72.5q1 -79.5 42.5 -150.5q42 -71 113.5 -120.5q71 -50 161 -67" />
</g>
</svg>
