<?xml version="1.0" encoding="utf-8"?>
<svg version="1.1" id="Layer_1"
xmlns="http://www.w3.org/2000/svg"
xmlns:xlink="http://www.w3.org/1999/xlink"
xmlns:author="http://www.sothink.com"
width="17px" height="11px"
xml:space="preserve">
<g id="PathID_323" transform="matrix(0.0107353, 0, 0, 0.0107353, -1.05, 9.6)">
<path style="fill:#000000;fill-opacity:1" d="M430 -28.5q-58.5 -3.5 -83 -12q-24 -9 -28.5 -23q-3.5 -10.5 -5 -29.5q-1 -19.5 -1 -61.5l0 -467q0 -26 0.5 -46q0.5 -19.5 1.5 -33q0 -4 0.5 -7.5q0.5 -4 0.5 -8q0.5 -9.5 -2.5 -15.5q-2.5 -5.5 -11 -6q-5.5 1 -15 8l-14.5 10.5q-9.5 6.5 -34 17.5q-25 11 -58 21.5q-33.5 11 -67.5 16.5q-8 1 -12 5q-4.5 4.5 -4.5 9q0 4 4 7q4 3.5 12.5 3.5l107.5 0q3 0 5.5 2q2.5 2.5 2.5 7l0 495q1 47.5 -4 68.5q-5.5 21.5 -29.5 28q-24.5 6 -80 10q-6.5 3.5 -9.5 8q-3 4.5 -3 9q0 4 4.5 7.5q4 3 14 3l303 0q10.5 0 14.5 -3q4 -3.5 4 -7.5q0 -5.5 -4 -10q-3.5 -4.5 -8.5 -7" />
</g>
<g id="PathID_324" transform="matrix(0.0107353, 0, 0, 0.0107353, 4.45, 9.6)">
<path style="fill:#000000;fill-opacity:1" d="M468 -242.5q0 -61 -25 -109.5q-25 -48.5 -73 -76.5q-48 -28.5 -117 -29l-1 0l-1 0q-14.5 0 -38.5 5q-24.5 5.5 -50 19.5q-26 14 -45.5 40q2.5 -24.5 5.5 -59.5l6 -72.5q3.5 -37.5 6 -71.5l5 -55.5l251.5 1q10.5 0 15.5 -4q4.5 -4.5 8 -13.5q8.5 -20.5 16.5 -41q1.5 -3.5 2 -6.5l0 -4.5q0 -5.5 -4 -7.5q-3.5 -2 -11.5 -2l-282 0q-18 0.5 -22.5 7q-4 6.5 -4.5 17.5q-2 34 -6.5 78.5q-4 44.5 -9 93q-5 48.5 -8.5 94.5q-3.5 46.5 -3.5 83l0 1.5q0.5 7 9 11.5q8.5 4.5 17.5 4.5l4.5 0q2.5 -0.5 4 -2q18.5 -41 54 -64.5q35.5 -23 76 -23.5l0.5 0l1.5 0q48 1 75 28.5q27 28 38 69.5q11 42 10.5 85.5q0.5 57 -11 109q-12 52 -40.5 85q-28.5 33.5 -79.5 34.5q-42 -1 -67 -20q-25.5 -19 -26 -46.5q0 -8.5 2.5 -17.5q2.5 -9 9 -17.5q3.5 -6.5 6.5 -17q2.5 -10 2.5 -20q0.5 -1.5 -3 -15.5q-3 -14.5 -15.5 -28.5q-12 -14 -38.5 -15.5q-7 -0.5 -21 3q-14 3.5 -26 17q-11.5 13.5 -12.5 44q-0.5 10 5.5 35q6 25 25 54q18.5 28.5 57 49q38.5 20.5 102.5 21.5q83 -1 133 -37.5q50 -36 72 -93q22 -57 21.5 -120.5" />
</g>
<g id="PathID_325" transform="matrix(0.0107353, 0, 0, 0.0107353, 9.95, 9.6)">
<path style="fill:#000000;fill-opacity:1" d="M489.5 -198.5q0.5 -11 -2.5 -13.5q-3.5 -2.5 -16 -2l-95 0l0 -486.5q0 -26.5 -4 -32q-4.5 -6 -16.5 -4.5q-8.5 -1 -13 4q-4.5 4.5 -16.5 24.5q-25.5 42 -62 103l-77 127.5l-78 127l-63 102.5q-8 12 -16 25q-8 13 -8.5 28q-0.5 9 9.5 13q9.5 3.5 34.5 3.5l230.5 0l0 69.5q0.5 35 -5.5 51.5q-6 17 -23.5 22.5q-17.5 6 -51 7q-3 3 -6 8q-3 4.5 -3 9q0 5 3 7.5q3.5 3 12.5 3l225 0q10 0 14 -3.5q3.5 -3 3.5 -8q0 -4.5 -3 -9q-2.5 -4.5 -7 -7q-37.5 -2 -54.5 -9q-16.5 -6.5 -21 -17q-4 -10.5 -3.5 -22.5l0 -9.5l0 -11.5l0 -81l95 0q13.5 0.5 16.5 -2.5q2.5 -3 2 -17M303 -614.5q-0.5 23 -2 54l-2 64q-1.5 32.5 -2 60q-1 27 -1 42.5l0 180l-235.5 0l58.5 -95q32 -52.5 65.5 -108.5q34 -56 64.5 -107q31 -51 54 -90" />
</g>
</svg>
