<?xml version="1.0" encoding="utf-8"?>
<svg version="1.1" id="Layer_1"
xmlns="http://www.w3.org/2000/svg"
xmlns:xlink="http://www.w3.org/1999/xlink"
xmlns:author="http://www.sothink.com"
width="10px" height="12px"
xml:space="preserve">
<g id="PathID_351" transform="matrix(0.0107353, 0, 0, 0.0107353, -0.1, 10.7)">
<path style="fill:#000000;fill-opacity:1" d="M792.5 -12q0 -4 -3 -8.5q-3.5 -4 -10 -8q-27 -2 -42 -9q-15 -6.5 -25 -21q-9.5 -15 -20.5 -42q-24.5 -59.5 -57 -140q-32 -80 -67 -169q-35 -89 -68 -175q-33.5 -86 -60.5 -157.5q-5.5 -14.5 -10 -25q-4.5 -10.5 -11.5 -11q-0.5 -0.5 -7 2q-6.5 2.5 -23 13.5q-8 5 -18 9q-10 3.5 -15.5 5q-9 3 -12.5 18.5q-4 15.5 -11 37q-39 102 -75.5 202l-67.5 185.5q-31 85.5 -53.5 145q-22.5 59.5 -33 80.5q-10.5 22.5 -27.5 35.5q-17 13 -53.5 16q-7 4 -9.5 8q-3 4.5 -3 8.5q0 5 4.5 8.5q4.5 3.5 13 3.5l193.5 0q9.5 0 13.5 -4q4 -3.5 4 -8q0 -5 -3 -9.5q-2.5 -4.5 -7 -7q-35.5 -3.5 -53.5 -7.5q-17.5 -4.5 -23.5 -11q-5.5 -6 -5 -16.5q0.5 -15 11.5 -49q11.5 -33.5 27 -74l28 -75.5q1 -5 4 -7.5q3 -3 11.5 -3l295.5 0l44.5 119l23 61.5q7 19 8.5 24.5q1.5 5 1 6q-1 19 -20.5 25q-20 6.5 -49 8q-7 4 -10.5 8q-4 4.5 -4 8.5q0 5 5.5 8.5q5 3.5 15 3.5l237.5 0q9.5 0 14.5 -3.5q5 -3.5 5 -8.5M513 -305.5l-286.5 0l137 -382.5q75 191 149.5 382.5" />
</g>
</svg>
