<?xml version="1.0" encoding="utf-8"?>
<svg version="1.1" id="Layer_1"
xmlns="http://www.w3.org/2000/svg"
xmlns:xlink="http://www.w3.org/1999/xlink"
xmlns:author="http://www.sothink.com"
width="10px" height="13px"
xml:space="preserve">
<g id="PathID_350" transform="matrix(0.010049, 0, 0, 0.010049, -0.7, 10.4)">
<path style="fill:#000000;fill-opacity:1" d="M525.5 -698.5l0 -102.5q24.5 -8 32 -12.5q7.5 -4 7 -10q0.5 -5.5 -6.5 -9q-7 -3 -31 -6.5q-24 -3.5 -74 -9q2 23.5 3 40q1 16.5 1 37l0 237.5l-161 0l-29.5 -20.5q-12.5 -8.5 -25.5 -15.5q-12.5 -7.5 -32 -17.5q1 16.5 1.5 31.5q1 15.5 1 38q0.5 23 0.5 63.5l0 106.5l0 52q0 20 -0.5 36.5l-1.5 39.5l0 1.5l0 0.5q0 6 4.5 9q4.5 2.5 16 2.5q11 0 23.5 -2q12.5 -2 19.5 -4q4.5 -1.5 6 -4.5q2 -3 2 -11l0 -39l459 0l0 28.5q0 8.5 3.5 12q3 3.5 11 3.5l16.5 -1l22.5 -1.5l12 -1.5q3.5 -1.5 5.5 -4.5q1.5 -2.5 1.5 -8l-1.5 -63.5q-0.5 -25.5 -0.5 -45.5l0 -44.5l0 -34l0 -25.5l0 -35.5q20 -12 28.5 -19.5q8.5 -7 8.5 -12q0 -2.5 -2.5 -5.5q-2.5 -3.5 -8 -8q-20 -16 -33.5 -25.5q-13 -9.5 -34 -23.5q-9 12 -19 24.5l-18.5 23.5l-207 0l0 -141.5l379.5 0q4 0 7 -2.5q3.5 -2 3.5 -4.5q0 -1.5 -1 -4q-1 -2.5 -4 -5.5q-19.5 -18 -33 -30l-27 -24.5l-34.5 -29.5l-22.5 27l-19 22.5q-10 11 -24 27.5l-225 0M281.5 -510l459 0l0 220l-459 0l0 -220M210 -182.5q-3 30 -10.5 49.5q-8 20 -25.5 40.5q-16 20 -33.5 34q-18 14.5 -40 23.5q-19.5 8 -25 16q-5.5 7.5 -5 25q0.5 22 8.5 36.5q7.5 15 19.5 15.5q20.5 -0.5 45.5 -23.5q24.5 -22.5 44.5 -59.5q19.5 -35.5 28 -71q8 -35.5 8 -84.5l-14.5 -2M348 -180.5q15.5 39.5 24.5 78.5q8.5 39 11.5 83.5l3 33l1.5 14.5l2 6.5q2 5.5 6 8.5q4 3 9 3q11.5 -0.5 23.5 -13q12.5 -12 21 -29.5q8.5 -17 9 -32.5q0 -26 -25.5 -67q-26 -40.5 -76 -93.5l-9.5 8M554 -180.5q25.5 50.5 42.5 98.5q17 47.5 25 93q4.5 22.5 9 30.5q4.5 8 11.5 7.5q9 -0.5 18.5 -8.5q9 -7.5 15.5 -20.5q7 -13 11 -26q4.5 -13 4.5 -21q0 -9 -5 -19q-5 -10.5 -16.5 -25q-18 -23.5 -31 -39q-13.5 -16 -30 -32.5q-16.5 -17 -44.5 -44l-10.5 6M763 -180.5q28 36 48.5 66q20.5 30.5 36.5 60.5q16 29.5 30.5 64q10 24 16.5 33.5q7 9 14.5 8.5q7 -0.5 15 -12q8 -11.5 14 -28q5.5 -17 5.5 -32.5q0.5 -17.5 -14.5 -38.5q-15.5 -21 -53 -52q-38 -30.5 -104.5 -77.5l-9 8" />
</g>
</svg>
