<?xml version="1.0" encoding="utf-8"?>
<svg version="1.1" id="Layer_1"
xmlns="http://www.w3.org/2000/svg"
xmlns:xlink="http://www.w3.org/1999/xlink"
xmlns:author="http://www.sothink.com"
width="405px" height="439px"
xml:space="preserve">
<g id="223" transform="matrix(1, 0, 0, 1, 0.65, 0.65)">
<path style="fill:none;stroke-width:1.35;stroke-linecap:round;stroke-linejoin:miter;stroke-miterlimit:4;stroke:#00AFEC;stroke-opacity:1" d="M370.05,0L403.65 0L403.65 33.6L403.65 67.4L403.65 101.05L403.65 134.65L403.65 168.25L403.65 201.9L403.65 235.55L403.65 269.15L403.65 302.75L403.65 336.4L403.65 370.05L403.65 403.6L403.65 437.25L370.05 437.25L336.45 437.25L302.8 437.25L269 437.25L235.35 437.25L201.7 437.25L168.1 437.25L134.5 437.25L100.85 437.25L67.2 437.25L33.6 437.25L0 437.25L0 403.6L0 370.05L0 336.4L0 302.75L0 269.15L0 235.55L0 201.9L0 168.25L0 134.65L0 101.05L0 67.4L0 33.6L0 0L33.6 0L67.2 0L100.85 0L134.5 0L168.1 0L201.7 0L235.35 0L269 0L302.8 0L336.45 0L370.05 0L370.05 33.6L403.65 33.6M336.45,0L336.45 33.6L370.05 33.6L370.05 67.4L403.65 67.4M302.8,0L302.8 33.6L336.45 33.6L336.45 67.4L370.05 67.4L370.05 101.05L403.65 101.05M302.8,67.4L302.8 101.05L336.45 101.05L336.45 67.4L302.8 67.4L302.8 33.6L269 33.6L269 67.4L302.8 67.4M269,0L269 33.6L235.35 33.6L235.35 67.4L269 67.4L269 101.05L302.8 101.05L302.8 134.65L336.45 134.65L336.45 101.05L370.05 101.05L370.05 134.65L403.65 134.65M235.35,0L235.35 33.6L201.7 33.6L201.7 67.4L235.35 67.4L235.35 101.05L269 101.05L269 134.65L302.8 134.65L302.8 168.25L336.45 168.25L336.45 134.65L370.05 134.65L370.05 168.25L403.65 168.25M201.7,0L201.7 33.6L168.1 33.6L168.1 67.4L201.7 67.4L201.7 101.05L235.35 101.05L235.35 134.65L269 134.65L269 168.25L302.8 168.25L302.8 201.9L336.45 201.9L336.45 168.25L370.05 168.25L370.05 201.9L403.65 201.9M235.35,134.65L235.35 168.25L269 168.25L269 201.9L302.8 201.9L302.8 235.55L336.45 235.55L336.45 201.9L370.05 201.9L370.05 235.55L403.65 235.55M235.35,134.65L201.7 134.65L201.7 168.25L235.35 168.25L235.35 201.9L269 201.9L269 235.55L302.8 235.55L302.8 269.15L336.45 269.15L336.45 235.55L370.05 235.55L370.05 269.15L403.65 269.15M168.1,0L168.1 33.6L134.5 33.6L134.5 67.4L168.1 67.4L168.1 101.05L201.7 101.05L201.7 134.65L168.1 134.65L168.1 168.25L201.7 168.25L201.7 201.9L235.35 201.9L235.35 235.55L269 235.55L269 269.15L302.8 269.15L302.8 302.75L336.45 302.75L336.45 269.15L370.05 269.15L370.05 302.75L403.65 302.75M134.5,0L134.5 33.6L100.85 33.6L100.85 67.4L134.5 67.4L134.5 101.05L168.1 101.05L168.1 134.65L134.5 134.65L134.5 168.25L168.1 168.25L168.1 201.9L201.7 201.9L201.7 235.55L235.35 235.55L235.35 269.15L269 269.15L269 302.75L302.8 302.75L302.8 336.4L336.45 336.4L336.45 302.75L370.05 302.75L370.05 336.4L403.65 336.4M100.85,0L100.85 33.6L67.2 33.6L67.2 67.4L100.85 67.4L100.85 101.05L134.5 101.05L134.5 134.65L100.85 134.65L100.85 168.25L134.5 168.25L134.5 201.9L168.1 201.9L168.1 235.55L201.7 235.55L201.7 269.15L235.35 269.15L235.35 302.75L269 302.75L269 336.4L302.8 336.4L302.8 370.05L336.45 370.05L336.45 336.4L370.05 336.4L370.05 370.05L403.65 370.05M67.2,0L67.2 33.6L33.6 33.6L33.6 67.4L67.2 67.4L67.2 101.05L100.85 101.05L100.85 134.65L67.2 134.65L67.2 168.25L100.85 168.25L100.85 201.9L134.5 201.9L134.5 235.55L168.1 235.55L168.1 269.15L201.7 269.15L201.7 302.75L235.35 302.75L235.35 336.4L269 336.4L269 370.05L302.8 370.05L302.8 403.6L336.45 403.6L336.45 370.05L370.05 370.05L370.05 403.6L403.65 403.6M33.6,0L33.6 33.6L0 33.6M0,67.4L33.6 67.4L33.6 101.05L67.2 101.05L67.2 134.65L33.6 134.65L33.6 168.25L67.2 168.25L67.2 201.9L100.85 201.9L100.85 235.55L134.5 235.55L134.5 269.15L168.1 269.15L168.1 302.75L201.7 302.75L201.7 336.4L235.35 336.4L235.35 370.05L269 370.05L269 403.6L302.8 403.6L302.8 437.25M0,101.05L33.6 101.05L33.6 134.65L0 134.65M0,168.25L33.6 168.25L33.6 201.9L67.2 201.9L67.2 235.55L100.85 235.55L100.85 269.15L134.5 269.15L134.5 302.75L168.1 302.75L168.1 336.4L201.7 336.4L201.7 370.05L235.35 370.05L235.35 403.6L269 403.6L269 437.25M0,201.9L33.6 201.9L33.6 235.55L67.2 235.55L67.2 269.15L100.85 269.15L100.85 302.75L134.5 302.75L134.5 336.4L168.1 336.4L168.1 370.05L201.7 370.05L201.7 403.6L235.35 403.6L235.35 437.25M0,235.55L33.6 235.55L33.6 269.15L67.2 269.15L67.2 302.75L100.85 302.75L100.85 336.4L134.5 336.4L134.5 370.05L168.1 370.05L168.1 403.6L201.7 403.6L201.7 437.25M0,269.15L33.6 269.15L33.6 302.75L67.2 302.75L67.2 336.4L100.85 336.4L100.85 370.05L134.5 370.05L134.5 403.6L168.1 403.6L168.1 437.25M0,302.75L33.6 302.75L33.6 336.4L67.2 336.4L67.2 370.05L100.85 370.05L100.85 403.6L134.5 403.6L134.5 437.25M0,336.4L33.6 336.4L33.6 370.05L67.2 370.05L67.2 403.6L100.85 403.6L100.85 437.25M0,370.05L33.6 370.05L33.6 403.6L67.2 403.6L67.2 437.25M0,403.6L33.6 403.6L33.6 437.25M336.45,403.6L370.05 403.6L370.05 437.25M336.45,403.6L336.45 437.25" />
</g>
</svg>
