<?xml version="1.0" encoding="utf-8"?>
<svg version="1.1" id="Layer_1"
xmlns="http://www.w3.org/2000/svg"
xmlns:xlink="http://www.w3.org/1999/xlink"
xmlns:author="http://www.sothink.com"
width="9px" height="8px"
xml:space="preserve">
<g id="215" transform="matrix(1, 0, 0, 1, -1, -0.75)">
<path style="fill:#FF0000;fill-opacity:1" d="M7.55,8.2L6.75 8.1Q5.6 7.85 4.7 7.25Q4.7 6.55 4.25 6.1Q3.9 5.8 3.35 5.8L2.9 5.85Q0.9 3.85 1 2.2Q1 1.65 1.3 1.25Q1.7 0.85 2.2 0.8L2.7 0.75L3.5 0.8Q5.15 1.15 6.75 2.5Q7.95 3.5 8.65 4.7Q9.3 5.85 9.25 6.75L8.95 7.65L8.1 8.15L7.55 8.2" />
</g>
</svg>
