<?xml version="1.0" encoding="utf-8"?>
<svg version="1.1" id="Layer_1"
xmlns="http://www.w3.org/2000/svg"
xmlns:xlink="http://www.w3.org/1999/xlink"
xmlns:author="http://www.sothink.com"
width="10px" height="9px"
xml:space="preserve">
<g id="220" transform="matrix(1, 0, 0, 1, -0.6, -0.8)">
<path style="fill:#FF0000;fill-opacity:1" d="M4.95,7.95Q5.85 8.55 7 8.8L7.8 8.9L8.35 8.85Q8.95 8.7 9.2 8.35L9.5 7.45Q9.55 6.55 8.9 5.4Q8.2 4.2 7 3.2Q5.4 1.85 3.75 1.5L2.95 1.45L2.45 1.5Q1.95 1.55 1.55 1.95Q1.25 2.35 1.25 2.9Q1.15 4.55 3.15 6.55L3.75 7.1L4.95 7.95M7.8,9.5Q5.65 9.5 3.35 7.6Q1.55 6.05 0.95 4.4Q0.6 3.7 0.6 2.85Q0.7 2.1 1.1 1.55L2.3 0.85L3 0.8Q5.15 0.8 7.4 2.75Q9.1 4.15 9.85 5.9L10.15 7.45L9.65 8.75Q9.2 9.3 8.45 9.45L7.8 9.5" />
</g>
</svg>
