<?xml version="1.0" encoding="utf-8"?>
<svg version="1.1" id="Layer_1"
xmlns="http://www.w3.org/2000/svg"
xmlns:xlink="http://www.w3.org/1999/xlink"
xmlns:author="http://www.sothink.com"
width="149px" height="38px"
xml:space="preserve">
<g id="PathID_1354" transform="matrix(0.0372549, 0, 0, 0.0372549, -2.05, 33.05)">
<path style="fill:#333333;fill-opacity:1" d="M196.5 -50.5l-84 0q-26.5 0.5 -42.5 16.5q-16.5 16 -17 42q1 25.5 17.5 43q16 17.5 40 18.5l805 0q34.5 0 51.5 -16q17 -16 17 -47.5q0 -28 -17.5 -42q-18 -14.5 -51 -14.5l-320.5 0l0 -298.5l254 0q28 -0.5 43 -16q15 -15.5 15.5 -43.5q-0.5 -28 -16 -43q-16 -15.5 -44.5 -15.5l-252 0l0 -227.5l293 0q26.5 -0.5 42 -16q16 -16 16 -42.5q0 -25.5 -16.5 -41.5q-16 -16 -42.5 -16.5l-749 0q-28 0.5 -45 16.5q-17 16 -17.5 41.5q0.5 26.5 17.5 42.5q17 15.5 45 16l330 0l0 644l-150.5 0l0 -364q-0.5 -27 -17.5 -44q-17.5 -17 -44 -17.5q-28 0 -43.5 16.5q-15.5 16.5 -16 45l0 364" />
</g>
<g id="PathID_1355" transform="matrix(0.0372549, 0, 0, 0.0372549, 35.95, 33.05)">
<path style="fill:#333333;fill-opacity:1" d="M77.5 -37q1 56 25 78q24 22.5 84 21.5l651 0q52.5 -1.5 77.5 -25.5q24.5 -24 25 -74l0 -684.5q2.5 -62 -20 -87.5q-23 -25.5 -82.5 -27.5l-651 0q-43.5 0 -67 10q-24 10 -33 34.5q-9.5 25 -9 70.5l0 684.5M822 -81q-0.5 20 -8.5 30q-8 9.5 -23 9l-559 0q-22.5 -1 -29.5 -8.5q-7 -7.5 -6.5 -30.5l0 -615q-0.5 -22.5 7 -30.5q8 -8.5 29 -8.5l108.5 0l0 58.5q-1 102 -10 172q-9.5 70 -31 123q-21.5 52.5 -58.5 102q-17 22 -22.5 34.5q-5.5 13 -5 29q0.5 23 15.5 37q15 13.5 41 14q18 0 33 -7q15 -7.5 29.5 -25q13 -15.5 26 -34.5q13 -19 22 -37q34.5 -67.5 53 -169q18.5 -101.5 18.5 -229l0 -68.5l99.5 0l0 427.5q-0.5 39 13.5 61q14 22 47.5 31.5q33.5 9.5 91.5 9q20.5 0 33.5 -0.5q13 0 26 -1.5q12.5 -1.5 33.5 -5q2.5 -0.5 9.5 -1.5q7.5 -1 16 -1.5l0 135M822 -310.5q-15 -5.5 -23.5 -7.5q-8.5 -2.5 -14.5 -2.5q-2 0 -11 1q-9 1.5 -23.5 4q-7 1 -15.5 1.5q-8 0.5 -17.5 0.5q-28 0 -42 -7q-14 -7 -14 -20.5l0 -394l130 0q16.5 0.5 24 10q7.5 10 7.5 29l0 385.5" />
</g>
<g id="PathID_1356" transform="matrix(0.0372549, 0, 0, 0.0372549, 73.95, 33.05)">
<path style="fill:#333333;fill-opacity:1" d="M431 -730l-61.5 97l-206.5 0q-48 1.5 -67.5 23q-20 21.5 -19.5 71.5l0 510q1 37 10.5 57.5q9 20 31 28q22.5 8.5 61.5 8.5l651.5 0q43 0.5 67.5 -8.5q24 -8.5 34.5 -30.5q10 -22 10.5 -62l0 -497q1.5 -51.5 -21.5 -75q-23.5 -23 -78.5 -25.5l-342.5 0l53.5 -97l328.5 0q31.5 0 46 -13q14.5 -13 14.5 -41.5q0 -25 -13.5 -38.5q-13 -13.5 -38.5 -13.5l-752.5 0q-31 0 -46.5 13.5q-16 13.5 -16 39.5q0 26.5 16 40q16.5 13.5 46.5 13.5l292.5 0M311 -48l-85 0q-19.5 -0.5 -27 -8q-8 -7.5 -7.5 -25l0 -402q0.5 -17.5 8.5 -24.5q8 -7 28.5 -6.5l82.5 0l0 466M429 -434l0 -80l165 0l0 80l-165 0M429 -48l0 -81l165 0l0 81l-165 0M429 -245.5l0 -73l165 0l0 73l-165 0M710.5 -48l0 -466l81 0q16.5 0 25 9.5q9 9.5 10 27.5l0 397q0 20.5 -6.5 26q-6 6 -28.5 6l-81 0" />
</g>
<g id="PathID_1357" transform="matrix(0.0372549, 0, 0, 0.0372549, 111.95, 33.05)">
<path style="fill:#333333;fill-opacity:1" d="M143.5 19.5q0.5 28.5 16.5 45.5q16 16.5 44 17q28.5 0 44 -16q15.5 -16 15.5 -46.5l0 -565.5q28.5 -89 43.5 -151.5q14.5 -63 15 -97q-1 -25 -18 -41.5q-17 -16.5 -43.5 -17q-21 0 -36 12.5q-14.5 12.5 -19.5 34.5q-14 66.5 -25 112q-11.5 45 -24 80q-12.5 35 -29.5 69.5q-17 35 -42.5 80.5q-19.5 33 -30.5 54q-11 21 -15.5 34.5q-4 13.5 -4 24.5q0.5 23 17 39q16 16.5 39.5 17q13 0.5 25 -6q12.5 -6.5 28 -22.5l0 343M493.5 -555q-8 40.5 -34 94q-25.5 53 -61.5 107q-36 54 -75 96q-32 32.5 -44.5 52q-12.5 20 -12 36q0.5 22 15.5 37q15 15 37.5 15.5q18.5 0.5 38.5 -11.5q19.5 -12.5 48.5 -42q27.5 -27 51 -57q23.5 -29.5 47.5 -69q24.5 -39.5 55 -95l0 196.5l-94 0q-28 0 -43.5 13.5q-15.5 13.5 -16 38q0.5 24 15 37q15 13 41.5 13l97 0l0 113.5q0.5 31 17.5 50q17 19 46 19.5q31 0 47 -17.5q16.5 -17.5 16.5 -50l0 -115.5l99.5 0q24 -0.5 38 -13.5q14 -13 14 -34.5q0 -26.5 -15.5 -40q-15.5 -13.5 -44 -13.5l-92 0l0 -187.5q72.5 126.5 136 192q63.5 66 113 66q22 -0.5 36.5 -16.5q15 -16 15.5 -39.5q0 -14 -6.5 -27.5q-6.5 -13.5 -18 -24q-51.5 -41.5 -89 -83.5q-37 -42.5 -69.5 -98.5q-33 -56.5 -70 -140.5l188.5 0q26 -0.5 42 -16.5q16 -16.5 16.5 -43q0 -26 -17 -40q-17 -14 -48.5 -14l-229.5 0l0 -122q-0.5 -29.5 -18 -47.5q-18 -17.5 -47.5 -18q-28 0.5 -44.5 18q-16.5 17.5 -17 48.5l0 121l-210.5 0q-28 0 -43.5 14.5q-15.5 14 -16 39.5q0.5 26 16 42.5q15.5 16.5 40.5 17l147 0" />
</g>
</svg>
