<?xml version="1.0" encoding="utf-8"?>
<svg version="1.1" id="Layer_1"
xmlns="http://www.w3.org/2000/svg"
xmlns:xlink="http://www.w3.org/1999/xlink"
xmlns:author="http://www.sothink.com"
width="36px" height="37px"
xml:space="preserve">
<g id="PathID_1358" transform="matrix(0.0372549, 0, 0, 0.0372549, -1.1, 32.95)">
<path style="fill:#333333;fill-opacity:1" d="M80 -60.5q-2.5 3.5 -12 15.5q-9.5 12 -25 30.5q-8.5 10 -12 17.5q-3.5 8 -3.5 15.5q0.5 17.5 13 29.5q12.5 12 31 12.5q19.5 0 37 -11.5q18 -11.5 34 -33.5q24.5 -35.5 39 -66q14 -30.5 14 -49q-0.5 -15 -13 -25.5q-12 -11 -29 -11.5q-11 0.5 -20.5 6q-10 5.5 -16 14.5l-37 55.5M254 -483.5l-165 0q-27.5 0 -41.5 10.5q-13.5 10.5 -13.5 31.5q0 22.5 15.5 33.5q15.5 11.5 47 11.5l443 0q26 0 39 -11q13.5 -11 13.5 -33q-0.5 -21 -13.5 -32q-13.5 -11 -39 -11l-172 0l0 -41.5l108.5 0q39 -0.5 52.5 -17q13.5 -16.5 11 -61l0 -139.5q1.5 -38.5 -5.5 -58.5q-7.5 -20 -30 -26.5q-22.5 -7 -67 -7l-286.5 0q-40 0 -59 16q-19.5 16.5 -18.5 48.5l0 169q-0.5 44.5 18 60.5q18 16.5 68 15.5l95 0l0 41.5M434 -649.5l0 26q0.5 12 -4.5 15.5q-5 3.5 -22 3l-204.5 0q-18 -1 -22 -4q-4 -3 -3 -14.5l0 -26l256 0M178 -722l0 -14q0 -8.5 5 -12q4.5 -4 16.5 -4.5l211 0q13.5 0 18.5 3.5q5.5 3.5 5 13l0 14l-256 0M367.5 -145.5l99.5 0q40 0.5 57 -14q16.5 -14.5 15.5 -48.5l0 -83.5q0.5 -40 -12 -55.5q-12.5 -16 -46.5 -16.5l-336.5 0q-41 0.5 -57 14q-16 14 -14.5 46.5l0 97q0.5 32 18.5 46.5q18 14.5 56 14l106.5 0l0 101.5q0 14.5 -3.5 21.5q-4 6.5 -13 8q-28 2.5 -40.5 4q-12.5 1 -16.5 2q-4 1 -6.5 2.5q-10 4.5 -16 16q-6 11.5 -6.5 24.5q0 26.5 22 40q22.5 13.5 66 13.5q66.5 0.5 97.5 -25q31 -25.5 30.5 -80.5l0 -128M178 -263q-0.5 -11.5 4.5 -15q4.5 -4 20.5 -4.5l208.5 0q13 0.5 18 4q5 3 4.5 11.5l0 23.5q-0.5 7 -4.5 9.5q-4.5 2.5 -18 2.5l-208.5 0q-17 0.5 -21.5 -2.5q-4 -3 -3.5 -14l0 -15M438 -139.5q-17.5 0.5 -30 12.5q-12.5 12 -13 28.5q0 6 1.5 12q2 6 11 20.5q9 15 29.5 47.5q13.5 24 19.5 34.5q6 10.5 8 13.5q2 2.5 3.5 3q6.5 8 14 11q7.5 3.5 16.5 3.5q18.5 -0.5 31 -12.5q12.5 -12.5 13 -30.5q0 -21 -12 -46.5q-12 -25.5 -38 -59q-15.5 -20 -28.5 -29q-13 -9 -26 -9M939 -331.5q-14.5 -1 -26 5q-11 6.5 -29.5 30.5q-18 24 -54 77q-31 42.5 -63.5 75q-32.5 32.5 -74 61.5q-42 28.5 -100 60q-24 12 -34 25q-10.5 13 -10.5 29q1 22 18 37q17.5 15 42.5 15.5q19 0 46.5 -11q28 -11 62 -31q57.5 -34.5 108 -80q50.5 -45.5 99 -107.5q34 -42.5 50 -75q16.5 -33 16.5 -56q-0.5 -23.5 -15 -39q-14 -15.5 -36 -16M924.5 -621.5q-7 0.5 -12 2.5q-5.5 1.5 -8.5 3.5q-13 10.5 -35.5 37.5q-22.5 27 -52.5 69q-27 37.5 -68.5 76q-41.5 38 -86 67.5q-49 30.5 -72 47q-23.5 16.5 -30 27q-6.5 10.5 -5.5 24.5q0.5 24.5 15 39.5q15 15 40 15.5q18 0 35 -6.5q17.5 -6.5 43 -22q20.5 -13.5 46 -33q25.5 -19.5 52 -41.5q26 -21.5 48.5 -42.5q67.5 -63.5 107 -119.5q39.5 -56 40.5 -91q-1 -23 -17.5 -38.5q-16.5 -15 -39 -15M892 -853q-13.5 -0.5 -31 13.5q-18 13.5 -48 47q-40.5 44.5 -73.5 74.5q-32.5 30.5 -58.5 47.5q-50.5 32.5 -72.5 47q-22.5 15 -29 21q-6.5 5.5 -10.5 11.5q-3.5 5.5 -6 12q-2 7 -2 14q1 20.5 17.5 36.5q16 15.5 38 16.5q30 0 75.5 -27q46 -27 104.5 -78.5q74 -64.5 111 -111q37.5 -47 37.5 -75.5q-1 -19 -16.5 -33.5q-16 -14.5 -36.5 -15.5" />
</g>
</svg>
