<?xml version="1.0" encoding="utf-8"?>
<svg version="1.1" id="Layer_1"
xmlns="http://www.w3.org/2000/svg"
xmlns:xlink="http://www.w3.org/1999/xlink"
xmlns:author="http://www.sothink.com"
width="50px" height="52px"
xml:space="preserve">
<g id="PathID_2" transform="matrix(0.941176, 0, 0, 0.941176, 2, 43.1)">
<path style="fill:#000000;fill-opacity:1" d="M11.15 -29.45l3.35 0l0 9.75l9.8 0l0 3.2l-9.8 0l0 9.75l-3.35 0l0 -9.75l-9.8 0l0 -3.2l9.8 0l0 -9.75" />
</g>
<g id="PathID_3" transform="matrix(0.941176, 0, 0, 0.941176, 2, 90.9)">
<path style="fill:#000000;fill-opacity:1" d="M11.55 -31.25q1.75 -1.8 1.95 -4l2.4 0l0 34.5l-4.55 0l0 -26.5l-6 0l0 -2.4l1.8 0q2.8 0 4.4 -1.6" />
</g>
</svg>
