<?xml version="1.0" encoding="utf-8"?>
<svg version="1.1" id="Layer_1"
xmlns="http://www.w3.org/2000/svg"
xmlns:xlink="http://www.w3.org/1999/xlink"
xmlns:author="http://www.sothink.com"
width="50px" height="52px"
xml:space="preserve">
<g id="PathID_19" transform="matrix(0.941176, 0, 0, 0.941176, 2, 43.1)">
<path style="fill:#000000;fill-opacity:1" d="M11.15 -29.45l3.35 0l0 9.75l9.8 0l0 3.2l-9.8 0l0 9.75l-3.35 0l0 -9.75l-9.8 0l0 -3.2l9.8 0l0 -9.75" />
</g>
<g id="PathID_20" transform="matrix(0.941176, 0, 0, 0.941176, 2, 90.9)">
<path style="fill:#000000;fill-opacity:1" d="M2.75 -23.3q0 -5.95 3.6 -9.55q2.2 -2.2 6 -2.2q3.55 0 6.15 2.6q4.2 4.2 4.2 14.55q0 10.55 -4.4 14.95q-2.8 2.8 -6.55 2.8q-3.8 0 -6 -2.2q-2.6 -2.6 -2.6 -6.8l4.6 0q-0.2 2.6 1.6 4.4q0.8 0.8 2.4 0.8q1.75 0 3.15 -1.4q3.2 -3.2 3.2 -11.75q-0.8 1.2 -1.8 2.2q-2.2 2.15 -5.35 2.15q-3 0 -5 -1.95q-3.2 -3.2 -3.2 -8.6M12.35 -31.45q-1.6 0 -2.8 1.2q-2 2 -2 6.95q0 4 1.6 5.6q1.4 1.4 2.8 1.4q2.35 0 3.55 -1.2q2.2 -2.2 2.2 -5.4q0 -4.95 -2.2 -7.15q-1.4 -1.4 -3.15 -1.4" />
</g>
</svg>
