<?xml version="1.0" encoding="utf-8"?>
<svg version="1.1" id="Layer_1"
xmlns="http://www.w3.org/2000/svg"
xmlns:xlink="http://www.w3.org/1999/xlink"
xmlns:author="http://www.sothink.com"
width="50px" height="52px"
xml:space="preserve">
<g id="PathID_17" transform="matrix(0.941176, 0, 0, 0.941176, 2, 43.1)">
<path style="fill:#000000;fill-opacity:1" d="M11.15 -29.45l3.35 0l0 9.75l9.8 0l0 3.2l-9.8 0l0 9.75l-3.35 0l0 -9.75l-9.8 0l0 -3.2l9.8 0l0 -9.75" />
</g>
<g id="PathID_18" transform="matrix(0.941176, 0, 0, 0.941176, 2, 90.9)">
<path style="fill:#000000;fill-opacity:1" d="M3.35 -25.5q0 -4.35 2.8 -7.15q2.4 -2.4 6.6 -2.4q4.15 0 6.75 2.6q2.6 2.6 2.6 6.95q0 3.4 -2.4 5.8q-1 1 -2.4 1.4l0 0.4q1.8 0.4 3.4 2q2.4 2.4 2.4 6.35q0 4 -2.8 6.8q-2.6 2.6 -7.55 2.6q-5 0 -7.6 -2.6q-2.8 -2.8 -2.8 -6.8q0 -3.95 2.4 -6.35q1.6 -1.6 3.4 -2l0 -0.4q-1.2 -0.4 -2.6 -1.8q-2.2 -2.2 -2.2 -5.4M12.75 -31.45q-2 0 -3.4 1.4q-1.6 1.6 -1.6 4.55q0 2.8 1.6 4.4q1.4 1.4 3.2 1.4q2.35 0 3.55 -1.2q1.6 -1.6 1.6 -4.6q0 -2.95 -1.6 -4.55q-1.4 -1.4 -3.35 -1.4M12.75 -16.3q-2.6 0 -4.2 1.6q-1.6 1.6 -1.6 4.55q0 3 1.8 4.8q1.6 1.6 4 1.6q2.35 0 3.95 -1.6q1.8 -1.8 1.8 -4.8q0 -2.95 -1.8 -4.75q-1.4 -1.4 -3.95 -1.4" />
</g>
</svg>
