<?xml version="1.0" encoding="utf-8"?>
<svg version="1.1" id="Layer_1"
xmlns="http://www.w3.org/2000/svg"
xmlns:xlink="http://www.w3.org/1999/xlink"
xmlns:author="http://www.sothink.com"
width="50px" height="52px"
xml:space="preserve">
<g id="PathID_8" transform="matrix(0.941176, 0, 0, 0.941176, 2, 43.1)">
<path style="fill:#000000;fill-opacity:1" d="M11.15 -29.45l3.35 0l0 9.75l9.8 0l0 3.2l-9.8 0l0 9.75l-3.35 0l0 -9.75l-9.8 0l0 -3.2l9.8 0l0 -9.75" />
</g>
<g id="PathID_9" transform="matrix(0.941176, 0, 0, 0.941176, 2, 90.9)">
<path style="fill:#000000;fill-opacity:1" d="M15.1 -35.05l4.6 0l0 21.95l4.2 0l0 3.75l-4.2 0l0 8.8l-4.6 0l0 -8.8l-13.35 0l0 -3.95l13.35 -21.75M15.1 -27.65l-8.95 14.55l8.95 0l0 -14.55" />
</g>
<g id="PathID_10" transform="matrix(0.941176, 0, 0, 0.941176, 2, 138.7)">
<path style="fill:#000000;fill-opacity:1" d="M15.1 -35.05l4.6 0l0 21.95l4.2 0l0 3.75l-4.2 0l0 8.8l-4.6 0l0 -8.8l-13.35 0l0 -3.95l13.35 -21.75M15.1 -27.65l-8.95 14.55l8.95 0l0 -14.55" />
</g>
</svg>
