<?xml version="1.0" encoding="utf-8"?>
<svg version="1.1" id="Layer_1"
xmlns="http://www.w3.org/2000/svg"
xmlns:xlink="http://www.w3.org/1999/xlink"
xmlns:author="http://www.sothink.com"
width="172px" height="60px"
xml:space="preserve">
<g id="PathID_48" transform="matrix(0.941176, 0, 0, 0.941176, 2, 43.1)">
<path style="fill:#000000;fill-opacity:1" d="M11.75 4q-10 -9.35 -10 -21.7q0 -12.35 10 -21.7l2.15 2.15q-9.15 8.6 -9.15 19.55q0 10.95 9.15 19.5l-2.15 2.2" />
</g>
<g id="PathID_49" transform="matrix(0.941176, 0, 0, 0.941176, 16.6, 43.1)">
<path style="fill:#000000;fill-opacity:1" d="M11.15 -29.45l3.35 0l0 9.75l9.8 0l0 3.2l-9.8 0l0 9.75l-3.35 0l0 -9.75l-9.8 0l0 -3.2l9.8 0l0 -9.75" />
</g>
<g id="PathID_50" transform="matrix(0.941176, 0, 0, 0.941176, 40.6, 43.1)">
<path style="fill:#000000;fill-opacity:1" d="M3.35 -24.9q0 -4.55 3 -7.55q2.6 -2.6 6.4 -2.6q4.35 0 6.95 2.6q2.4 2.4 2.4 6.4q0 3.95 -2 5.95q-1.4 1.4 -3 1.6q2 0.6 3.4 2q2.4 2.4 2.4 6.35q0 4.4 -2.8 7.2q-2.8 2.8 -7.75 2.8q-4.2 0 -7 -2.8q-2.8 -2.8 -2.8 -6.6l0 -1.6l4.6 0l0 1.4q0 2.6 1.8 4.4q1.4 1.4 3.4 1.4q2.55 0 4.15 -1.6q1.6 -1.6 1.6 -5q0 -2.75 -1.6 -4.35q-1.6 -1.6 -3.6 -1.6l-1.55 0l0 -3.4l1.2 0q1.75 0 3.35 -1.6q1.6 -1.6 1.6 -4.55q0 -2.6 -1.6 -4.2q-1.2 -1.2 -3.15 -1.2q-1.8 0 -3.2 1.4q-1.6 1.6 -1.8 5.15l-4.4 0" />
</g>
<g id="PathID_51" transform="matrix(0.941176, 0, 0, 0.941176, 64.6, 43.1)">
<path style="fill:#000000;fill-opacity:1" d="M10.55 -17.7q0 -10.95 -9.2 -19.55l2.2 -2.15q9.95 9.35 9.95 21.7q0 12.35 -9.95 21.7l-2.2 -2.2q9.2 -8.55 9.2 -19.5" />
</g>
<g id="PathID_52" transform="matrix(0.941176, 0, 0, 0.941176, 93.8, 43.1)">
<path style="fill:#000000;fill-opacity:1" d="M11.15 -29.45l3.35 0l0 9.75l9.8 0l0 3.2l-9.8 0l0 9.75l-3.35 0l0 -9.75l-9.8 0l0 -3.2l9.8 0l0 -9.75" />
</g>
</svg>
