<?xml version="1.0" encoding="utf-8"?>
<svg version="1.1" id="Layer_1"
xmlns="http://www.w3.org/2000/svg"
xmlns:xlink="http://www.w3.org/1999/xlink"
xmlns:author="http://www.sothink.com"
width="212px" height="260px"
xml:space="preserve">
<g id="PathID_196" transform="matrix(0.0352941, 0, 0, 0.0352941, 0, 37.8)">
<path style="fill:#000000;fill-opacity:1" d="" />
</g>
<g id="PathID_197" transform="matrix(0.0352941, 0, 0, 0.0352941, 48, 37.8)">
<path style="fill:#000000;fill-opacity:1" d="M884 -120q-224 -164 -412 -332q-24 -20 -48 -20q-24 0 -40 16q-184 164 -252 220l-80 -80q108 -64 284 -228q40 -36 80 -36q52 0 96 36q304 252 464 332l-92 92" />
</g>
<g id="PathID_198" transform="matrix(0.0352941, 0, 0, 0.0352941, 96, 37.8)">
<path style="fill:#000000;fill-opacity:1" d="M644 -20q64 -8 108 -52q48 -48 48 -128q0 -88 -52 -140q-52 -52 -164 -52q-132 0 -204 52q-68 48 -176 172l-68 -60q288 -288 436 -480q-132 16 -264 28l-28 -92q196 0 348 -20l36 -16l44 44q44 40 -20 52q-120 136 -240 268q84 -20 140 -20q152 0 224 72q72 72 72 184q0 116 -64 180q-96 96 -244 96q-140 0 -204 -64q-52 -52 -52 -124q0 -48 36 -84q40 -40 92 -40q72 0 120 48q56 56 76 176M564 -8q-12 -104 -48 -140q-28 -28 -56 -28q-32 0 -48 16q-20 20 -20 44q0 36 32 68q40 40 104 40l36 0" />
</g>
<g id="PathID_199" transform="matrix(0.0352941, 0, 0, 0.0352941, 144, 37.8)">
<path style="fill:#000000;fill-opacity:1" d="M576 -364q172 132 340 304l-80 68q-168 -176 -324 -296q-156 168 -356 300l-76 -68q424 -276 544 -552l-436 28l-12 -96l464 -20l48 -12l64 64q28 28 -16 36q-76 132 -160 244" />
</g>
<g id="PathID_200" transform="matrix(0.0352941, 0, 0, 0.0352941, 0, 84)">
<path style="fill:#000000;fill-opacity:1" d="M840 -488q-28 260 -144 376q-116 116 -304 184l-52 -76q184 -60 288 -164q112 -112 128 -380l84 28q36 12 0 32M500 -344q-48 -108 -96 -180l76 -40q60 76 104 180l-84 40M296 -284q-48 -112 -100 -188l80 -40q56 76 100 184l-80 44" />
</g>
<g id="PathID_201" transform="matrix(0.0352941, 0, 0, 0.0352941, 48, 84)">
<path style="fill:#000000;fill-opacity:1" d="M500 -400l-400 0l0 -88l820 0l0 88l-328 0l0 52q0 252 -180 416l-80 -60q168 -132 168 -356l0 -52M244 -644l0 -88l532 0l0 88l-532 0" />
</g>
<g id="PathID_202" transform="matrix(0.0352941, 0, 0, 0.0352941, 96, 84)">
<path style="fill:#000000;fill-opacity:1" d="M888 -688q32 0 52 -20q20 -20 20 -52q0 -32 -20 -52q-20 -20 -52 -20q-32 0 -52 20q-20 20 -20 52q0 32 20 52q20 20 52 20M888 -648q-48 0 -80 -32q-32 -32 -32 -80q0 -48 32 -80q32 -32 80 -32q48 0 80 32q32 32 32 80q0 48 -32 80q-32 32 -80 32M172 -596l0 -88l592 0l104 76q-20 484 -548 632l-72 -88q500 -116 524 -532l-600 0" />
</g>
<g id="PathID_203" transform="matrix(0.0352941, 0, 0, 0.0352941, 144, 84)">
<path style="fill:#000000;fill-opacity:1" d="M936 80q-268 -64 -360 -260q-48 204 -328 272l-24 -76q252 -56 284 -228l-264 0q-12 172 -120 284l-56 -64q96 -92 96 -252l0 -392l708 0l0 256l-80 0l0 -24l-548 0l0 116l272 0l0 -92l76 0q32 4 4 24l0 68l340 0l0 76l-300 0q56 148 332 208l-32 84M920 -780l0 76l-804 0l0 -76l804 0M792 -560l-548 0l0 80l548 0l0 -80" />
</g>
<g id="PathID_204" transform="matrix(0.0352941, 0, 0, 0.0352941, 0, 132)">
<path style="fill:#000000;fill-opacity:1" d="M936 72q-244 -96 -340 -332q-68 244 -384 336l-44 -84q372 -96 372 -420l0 -156l-52 0q-52 104 -148 200l-68 -68q156 -156 204 -372l92 24q16 12 -12 28q-12 36 -40 112l356 0l16 -16l68 56q16 20 -16 24q-52 128 -164 284l-68 -60q96 -120 128 -212l-204 0l0 136q0 284 344 424l-40 96M352 -288q-108 120 -224 200q-8 32 -20 16l-56 -84q136 -88 244 -196l56 64M236 -532q-60 -68 -144 -112l60 -80q88 40 152 104l-68 88" />
</g>
<g id="PathID_205" transform="matrix(0.0352941, 0, 0, 0.0352941, 48, 132)">
<path style="fill:#000000;fill-opacity:1" d="M736 -348q80 132 220 232l-68 76q-132 -108 -224 -260l72 -48M564 -16q0 72 -68 72l-112 0l-16 -88l88 0q16 0 16 -16l0 -376l-392 0l0 -88l860 0l0 88l-376 0l0 408M212 -660l0 -88l608 0l0 88l-608 0M80 -100q112 -80 196 -244l80 44q32 20 -12 28q-68 144 -200 248l-64 -76" />
</g>
<g id="PathID_206" transform="matrix(0.0352941, 0, 0, 0.0352941, 96, 132)">
<path style="fill:#000000;fill-opacity:1" d="M56 -336q240 -68 428 -268l92 16q16 16 -12 20q112 128 412 204l-28 88q-144 -36 -236 -88l0 56l-400 0l0 -52q-96 68 -224 108l-32 -84M680 -384q-84 -44 -172 -140q-56 72 -160 140l332 0M56 -576q96 -84 152 -252l84 24q16 16 -12 20l-28 56l248 0l0 64l-148 0q24 44 48 104l-84 24q-20 -72 -44 -128l-44 0q-48 96 -116 156l-56 -68M632 -728l312 0l0 64l-188 0q32 44 52 96l-84 32q-20 -68 -52 -128l-68 0l-36 64l-68 -40q56 -88 88 -200l80 24q16 16 -12 20l-24 68M300 -172l0 140l432 0l0 -140l-432 0M220 -236l592 0l0 312l-80 0l0 -44l-432 0l0 56l-80 0l0 -324" />
</g>
<g id="PathID_207" transform="matrix(0.0352941, 0, 0, 0.0352941, 144, 132)">
<path style="fill:#000000;fill-opacity:1" d="M716 -148q64 80 240 144l-40 88q-312 -104 -396 -440l-24 0q-40 56 -84 100l0 224l228 -44l12 68q-216 52 -424 92q-12 36 -24 12l-28 -96l156 -20l0 -172q-104 72 -232 116l-40 -80q200 -56 340 -200l-320 0l0 -76l388 0l0 -72l-288 0l0 -76l288 0l0 -72l-340 0l0 -76l340 0l0 -96l76 0q32 4 4 24l0 72l340 0l0 76l-340 0l0 72l288 0l0 76l-288 0l0 72l388 0l0 76l-340 0q24 76 80 160q76 -64 144 -140l60 60q4 20 -20 12q-68 64 -144 116" />
</g>
</svg>
