<?xml version="1.0" encoding="utf-8"?>
<svg version="1.1" id="Layer_1"
xmlns="http://www.w3.org/2000/svg"
xmlns:xlink="http://www.w3.org/1999/xlink"
xmlns:author="http://www.sothink.com"
width="164px" height="212px"
xml:space="preserve">
<g id="PathID_258" transform="matrix(0.0352941, 0, 0, 0.0352941, 0, 37.8)">
<path style="fill:#000000;fill-opacity:1" d="M792.5 -12q0 -4 -3 -8.5q-3.5 -4 -10 -8q-27 -2 -42 -9q-15 -6.5 -25 -21q-9.5 -15 -20.5 -42q-24.5 -59.5 -57 -140q-32 -80 -67 -169q-35 -89 -68 -175q-33.5 -86 -60.5 -157.5q-5.5 -14.5 -10 -25q-4.5 -10.5 -11.5 -11q-0.5 -0.5 -7 2q-6.5 2.5 -23 13.5q-8 5 -18 9q-10 3.5 -15.5 5q-9 3 -12.5 18.5q-4 15.5 -11 37q-39 102 -75.5 202l-67.5 185.5q-31 85.5 -53.5 145q-22.5 59.5 -33 80.5q-10.5 22.5 -27.5 35.5q-17 13 -53.5 16q-7 4 -9.5 8q-3 4.5 -3 8.5q0 5 4.5 8.5q4.5 3.5 13 3.5l193.5 0q9.5 0 13.5 -4q4 -3.5 4 -8q0 -5 -3 -9.5q-2.5 -4.5 -7 -7q-35.5 -3.5 -53.5 -7.5q-17.5 -4.5 -23.5 -11q-5.5 -6 -5 -16.5q0.5 -15 11.5 -49q11.5 -33.5 27 -74l28 -75.5q1 -5 4 -7.5q3 -3 11.5 -3l295.5 0l44.5 119l23 61.5q7 19 8.5 24.5q1.5 5 1 6q-1 19 -20.5 25q-20 6.5 -49 8q-7 4 -10.5 8q-4 4.5 -4 8.5q0 5 5.5 8.5q5 3.5 15 3.5l237.5 0q9.5 0 14.5 -3.5q5 -3.5 5 -8.5M513 -305.5l-286.5 0l137 -382.5q75 191 149.5 382.5" />
</g>
<g id="PathID_259" transform="matrix(0.0352941, 0, 0, 0.0352941, 48, 37.8)">
<path style="fill:#000000;fill-opacity:1" d="M700.5 -211q0 -90 -66 -138.5q-65.5 -49 -194 -56q49.5 -4 97.5 -23q47.5 -18.5 79 -55.5q31.5 -37 32.5 -94.5q-0.5 -63.5 -30.5 -103q-30.5 -40 -84.5 -58.5q-54 -18.5 -127 -18.5l-361.5 0q-10.5 0 -15.5 4q-5 3.5 -5 8q0 5 3.5 9q3.5 4.5 11 7.5q37 0.5 54.5 6.5q17 6.5 22.5 15q5 9 6 16.5q3 17 5 59q2 42 2 119l0 239.5q0 78.5 -1 133q-1.5 54.5 -5 73q-2.5 12 -8 20q-5.5 7.5 -21.5 12.5q-16.5 4.5 -51.5 7.5q-6 3 -10 8q-3.5 4.5 -3.5 9.5q0 4.5 5 7.5q5 3.5 15.5 3.5l342 0q40 0.5 92 -7.5q52 -8.5 101 -30.5q49.5 -22.5 82 -64.5q32.5 -41.5 33.5 -108.5M549 -582.5q-0.5 47.5 -17.5 80q-17 32.5 -43.5 52q-27 19.5 -57.5 28.5q-30.5 8.5 -58 8.5l-133 0q-5.5 0 -10 -1q-4.5 -1 -8.5 -3l0 -141.5q0 -29 0.5 -58.5q0.5 -29.5 1.5 -53q1 -23.5 3 -36q0 -4 6 -11.5q6 -7.5 16.5 -10l34.5 -1.5q25.5 -0.5 54 -0.5l46 0q68 0.5 104 21.5q36 20.5 49.5 54q13 33.5 12.5 72M593 -205.5q0 47.5 -21.5 87.5q-21.5 39.5 -65 64q-43.5 24 -109 24.5q-62.5 0.5 -98 -2.5q-36 -3 -53 -12.5q-17 -9 -21.5 -28q-4.5 -19.5 -4 -51.5l0 -257q1.5 -2 6 -3q4 -1 9.5 -1l144.5 0q65.5 -0.5 112.5 15.5q47.5 15.5 73.5 55q25.5 39 26 109" />
</g>
<g id="PathID_260" transform="matrix(0.0352941, 0, 0, 0.0352941, 96, 37.8)">
<path style="fill:#000000;fill-opacity:1" d="M687 -166.5q-1 -8.5 -4.5 -12q-3 -3.5 -7 -3.5q-3 0 -6 1.5q-3 1.5 -6 3.5q-49.5 75.5 -110.5 109.5q-61 33.5 -130.5 33q-73 0 -131.5 -38.5q-59 -38.5 -94 -117.5q-34.5 -78.5 -35.5 -199.5q1 -123 34.5 -202.5q33 -79.5 86 -118q53 -38 113 -38q62.5 0.5 107.5 23.5q45 23 77.5 66q32.5 43 57.5 102q4 4 7.5 5.5q4 2 7 1.5q7 0 10.5 -5.5q4 -5 4 -10.5l-42 -199q-1 -4.5 -3 -7q-2 -3 -5.5 -3q-2 0 -5 2.5q-2.5 2.5 -5 8q-5.5 10.5 -14.5 21q-8.5 10.5 -17.5 11.5l-2 0l-2 -1q-25.5 -15.5 -55.5 -25q-30 -9.5 -59.5 -13.5q-30 -4.5 -55 -4.5q-81 1 -145.5 34q-64.5 33 -110 89q-46 56 -70 124.5q-24.5 68.5 -24.5 140.5q0.5 132.5 44 222.5q44 90.5 125 136.5q81 46.5 193.5 46.5q55 0 107.5 -19.5q52.5 -20 96 -61q43 -40.5 71 -103.5" />
</g>
<g id="PathID_261" transform="matrix(0.0352941, 0, 0, 0.0352941, 0, 84)">
<path style="fill:#000000;fill-opacity:1" d="M728 -370.5q-0.5 -126 -46 -212.5q-45 -86.5 -127.5 -131q-82 -44.5 -193 -44.5l-313.5 0q-10 0 -14.5 4q-5 3.5 -5 8q0 5 3.5 9q3.5 4 10 6.5q35.5 0.5 53 7q17.5 7 23 16q5.5 9.5 6 17q3.5 18.5 5 63.5q1 45.5 1 127l0 210q0 74.5 -0.5 118.5q-0.5 44 -1 66q-1 22 -2 30.5q-1 8 -2.5 12q-4 13.5 -9.5 21q-5.5 7 -20.5 10.5q-15.5 3.5 -49 6.5q-6 4 -9.5 7.5q-3.5 4 -4 8q0 4.5 5 7q5 3 15.5 3l317.5 0q96 -1 164.5 -32.5q68 -32 111 -85.5q43 -53.5 63 -119q20 -65.5 20 -133.5M623.5 -372.5q-1 111.5 -34.5 187.5q-34 76 -90 114.5q-56.5 39 -124.5 39l-71.5 0q-39 0.5 -56 -12q-17 -12 -21 -45.5q-3.5 -33.5 -3 -95l0 -364.5l0 -83.5q0.5 -28 1 -40.5q0.5 -12.5 2 -22.5q3.5 -15.5 16 -24q12.5 -9 22 -9l96.5 -1l3 0q76.5 0.5 135 42q58.5 42 91.5 121.5q33 79.5 33.5 193" />
</g>
<g id="PathID_262" transform="matrix(0.0352941, 0, 0, 0.0352941, 48, 84)">
<path style="fill:#000000;fill-opacity:1" d="M685 -10q0 -5.5 -4 -10.5q-3.5 -4.5 -8 -7q-59 -3 -83.5 -12q-24 -9 -28.5 -23q-3.5 -10 -5 -29.5q-1 -19.5 -1 -61.5l0 -468q0 -26 0.5 -45.5q0.5 -19.5 1.5 -33.5q0 -3.5 0.5 -7.5q0.5 -4 0.5 -7.5q0.5 -9.5 -2.5 -15.5q-2.5 -6 -10.5 -6q-6 0.5 -15.5 7.5l-14.5 11q-9.5 6.5 -34 17.5q-25 11 -58 21.5q-33.5 10.5 -67.5 16q-8 1 -12 5.5q-4.5 4 -4.5 9q0 4 4 7q4 3 12.5 3l107.5 0q3 0 5.5 2.5q2.5 2.5 2.5 7l0 495.5q1 47.5 -4 69q-5.5 21 -29.5 27.5q-24.5 6.5 -80 10q-6.5 4 -9.5 8.5q-3 4 -3 9q0 4 4.5 7q4 3 14 3l303 0q10.5 0 14.5 -3q4 -3 4 -7" />
</g>
</svg>
