<?xml version="1.0" encoding="utf-8"?>
<svg version="1.1" id="Layer_1"
xmlns="http://www.w3.org/2000/svg"
xmlns:xlink="http://www.w3.org/1999/xlink"
xmlns:author="http://www.sothink.com"
width="157px" height="47px"
xml:space="preserve">
<g id="PathID_2399" transform="matrix(0.705882, 0, 0, 0.705882, 2, 32.8)">
<path style="fill:#000000;fill-opacity:1" d="M0.55 -0.55l13.55 -34.5l4 0l13.55 34.5l-4.8 0l-4.15 -10.4l-13.15 0l-4.2 10.4l-4.8 0M16.1 -28.45l-5.15 13.75l10.35 0l-5.2 -13.75" />
</g>
<g id="PathID_2400" transform="matrix(0.705882, 0, 0, 0.705882, 24.75, 32.8)">
<path style="fill:#000000;fill-opacity:1" d="M3.15 -34.65l15.95 0q4.4 0 7.15 2.8q2.8 2.8 2.8 7.75q0 5 -2.6 7.6q-2.55 2.6 -7.35 2.6l-11.35 0l0 13.35l-4.6 0l0 -34.1M7.75 -30.85l0 13.15l10.35 0q2.8 0 4.4 -1.6q1.8 -1.8 1.8 -4.8q0 -3.35 -1.6 -4.95q-1.8 -1.8 -4.6 -1.8l-10.35 0" />
</g>
<g id="PathID_2401" transform="matrix(0.705882, 0, 0, 0.705882, 46.95, 32.8)">
<path style="fill:#000000;fill-opacity:1" d="M27.45 -28.05q-3.35 19.9 -8.15 24.7q-2.6 2.6 -5.4 2.6q-3.15 0 -4.95 -1.8q-4.8 -4.8 -4.8 -11.95q0 -8.8 6.2 -14.95q6.75 -6.8 16.5 -6.8q8.8 0 13.75 5q5.6 5.6 5.6 13.15q0 8.15 -5.2 13.35q-3.35 3.4 -10.35 6.55l-4.2 -4.15q7 -2.2 11 -6.2q3.75 -3.8 3.75 -9.15q0 -6.4 -4.15 -10.55q-4.2 -4.2 -13.15 -3.8l3.55 1.8q2.4 1 0 2.2M22.9 -31.85q-5.2 1.2 -9 5q-5.15 5.15 -5.15 12.75q0 4.55 3 7.55q0.6 0.6 1.75 0.6q1.2 0 2.6 -1.4q4.6 -4.6 6.8 -24.5" />
</g>
<g id="PathID_2402" transform="matrix(0.705882, 0, 0, 0.705882, 82.95, 32.8)">
<path style="fill:#000000;fill-opacity:1" d="M45.8 3.8q-17.15 -3.95 -22.7 -18.1l-6.2 0l0 13.15l11.15 -2l0.8 3.35l-20.5 4.2q-0.2 1.6 -1 0.8l-1.4 -4.8l6.95 -0.95l0 -13.75l-9.55 0l0 -3.8l9.55 0l0 -21.5l28.7 0l0 3.75l-24.7 0l0 3l21.9 0l0 3.8l-21.9 0l0 3.4l22.3 0l0 3.75l-22.3 0l0 3.8l30.7 0l0 3.8l-20.55 0q1.2 2.55 4.4 5.75l6.4 -4.95l3.35 2.35q1.4 1 -0.6 1l-6.15 4.2q3.95 2.8 13.75 5.4l-2.4 4.35" />
</g>
<g id="PathID_2403" transform="matrix(0.705882, 0, 0, 0.705882, 118.95, 32.8)">
<path style="fill:#000000;fill-opacity:1" d="M20.1 -26.45q-8.15 0.6 -16.15 0.6l-1.2 -4q9.8 0 15.75 -0.4q-2 -5.6 -2.8 -10.35l4.4 0q1.8 0.4 0.4 1.6q0.8 3.75 2.4 8.35q6.95 -0.6 11.95 -1.8l1 4.4q-5.8 0.8 -11.35 1.2q3.95 7.55 12.15 13.15l-3 3.55q-7.4 -3.35 -14.55 -3.35q-6.55 0 -9.15 2.55q-1.2 1.2 -1.2 3.4q0 2 1.8 3.8q2.75 2.8 13.15 2.8l6.95 0l-1 4.35l-7.55 0q-10.35 0 -14.55 -4.15q-3 -3 -3 -6.8q0 -3.8 2.2 -5.95q3.6 -3.6 11.15 -3.6q7.6 0 8.75 0.8q-4.75 -6 -6.55 -10.15" />
</g>
</svg>
