<?xml version="1.0" encoding="utf-8"?>
<svg version="1.1" id="Layer_1"
xmlns="http://www.w3.org/2000/svg"
xmlns:xlink="http://www.w3.org/1999/xlink"
xmlns:author="http://www.sothink.com"
width="52px" height="34px"
xml:space="preserve">
<g id="PathID_2394" transform="matrix(0.470588, 0, 0, 0.470588, 2, 22.55)">
<path style="fill:#000000;fill-opacity:1" d="M11.75 4q-10 -9.35 -10 -21.7q0 -12.35 10 -21.7l2.15 2.15q-9.15 8.6 -9.15 19.55q0 10.95 9.15 19.5l-2.15 2.2" />
</g>
<g id="PathID_2395" transform="matrix(0.470588, 0, 0, 0.470588, 9.3, 22.55)">
<path style="fill:#000000;fill-opacity:1" d="M2.35 -11.55q0 -5.35 3.2 -8.55q3 -3 7.35 -3q4.8 0 7.2 2.4q2.2 2.2 2.6 5.4l-4.4 0q-0.2 -1.6 -1.6 -3q-1.2 -1.2 -3.6 -1.2q-2.35 0 -3.95 1.6q-2.4 2.4 -2.4 6.55q0 4 2.2 6.2q1.6 1.6 3.95 1.6q2.8 0 4.4 -1.6q1.6 -1.6 1.6 -4.2l4.4 0q-0.2 4.2 -2.8 6.8q-2.6 2.55 -7.6 2.55q-4.15 0 -6.95 -2.75q-3.6 -3.6 -3.6 -8.8" />
</g>
<g id="PathID_2396" transform="matrix(0.470588, 0, 0, 0.470588, 21.3, 22.55)">
<path style="fill:#000000;fill-opacity:1" d="M6.95 -0.55l-4 0l0 -22.35l4 0l0 3.4q2.6 -3.8 5.95 -3.8q3.8 0 5.8 2q1 1 1.6 2.2q2.6 -4.2 7.15 -4.2q3.2 0 5 1.8q2 2 2 4.4l0 16.55l-4 0l0 -15.75q0 -1.2 -0.8 -2q-1.2 -1.2 -2.8 -1.2q-2.75 0 -4.55 1.8q-1.6 1.6 -1.6 3l0 14.15l-4 0l0 -15.55q0 -1.2 -1.2 -2.4q-1 -1 -2.95 -1q-2.2 0 -3.8 1.6q-1.8 1.8 -1.8 3.4l0 13.95" />
</g>
<g id="PathID_2397" transform="matrix(0.470588, 0, 0, 0.470588, 38.9, 22.55)">
<path style="fill:#000000;fill-opacity:1" d="M10.55 -17.7q0 -10.95 -9.2 -19.55l2.2 -2.15q9.95 9.35 9.95 21.7q0 12.35 -9.95 21.7l-2.2 -2.2q9.2 -8.55 9.2 -19.5" />
</g>
</svg>
