<?xml version="1.0" encoding="utf-8"?>
<svg version="1.1" id="Layer_1"
xmlns="http://www.w3.org/2000/svg"
xmlns:xlink="http://www.w3.org/1999/xlink"
xmlns:author="http://www.sothink.com"
width="602px" height="202px"
xml:space="preserve">
<g id="208" transform="matrix(1, 0, 0, 1, 301, 101)">
<path style="fill:#FFFFFF;fill-opacity:1" d="M300,0Q300 41.45 212.15 70.75Q124.3 100 0 100Q-124.25 100 -212.15 70.75Q-300 41.45 -300 0Q-300 -41.4 -212.15 -70.7Q-155.3 -89.6 -83.3 -96.3Q-43.95 -100 0 -100Q43.95 -100 83.35 -96.3Q155.35 -89.6 212.15 -70.7Q300 -41.4 300 0" />
<path style="fill:none;stroke-width:2;stroke-linecap:round;stroke-linejoin:round;stroke-miterlimit:3;stroke:#0066FF;stroke-opacity:1" d="M300,0Q300 41.45 212.15 70.75Q124.3 100 0 100Q-124.25 100 -212.15 70.75Q-300 41.45 -300 0Q-300 -41.4 -212.15 -70.7Q-155.3 -89.6 -83.3 -96.3Q-43.95 -100 0 -100Q43.95 -100 83.35 -96.3Q155.35 -89.6 212.15 -70.7Q300 -41.4 300 0z" />
</g>
</svg>
