<?xml version="1.0" encoding="utf-8"?>
<svg version="1.1" id="Layer_1"
xmlns="http://www.w3.org/2000/svg"
xmlns:xlink="http://www.w3.org/1999/xlink"
xmlns:author="http://www.sothink.com"
width="231px" height="34px"
xml:space="preserve">
<g id="PathID_2404" transform="matrix(0.470588, 0, 0, 0.470588, 2, 22.55)">
<path style="fill:#000000;fill-opacity:1" d="M9.35 -11.95l0 6.2l31.85 0l0 -11.55q-1 5.35 -4.55 5.35l-5.8 0q-3.4 0 -3.4 -3.55l0 -16.35l-6.15 0l0 7.55q0 11.55 -9.75 15.55l-2.2 -3.2M41.2 -19.3l0 -12.55l-9.75 0l0 14.55q0 1.6 1.4 1.6l2 0q1.8 0 2.4 -4.6l3.95 1M45.2 -35.65l0 36.65l-4 0l0 -2.95l-31.85 0l0 3.35l-4 0l0 -37.05l39.85 0M9.35 -31.85l0 19.1q7.95 -2.55 7.95 -12.15l0 -6.95l-7.95 0" />
</g>
<g id="PathID_2405" transform="matrix(0.470588, 0, 0, 0.470588, 26, 22.55)">
<path style="fill:#000000;fill-opacity:1" d="M43.8 0.6q0 3.4 -3.2 3.4l-4.95 0l-0.8 -3.8l4.15 0q0.8 0 0.8 -0.75l0 -6.8l-24.5 0q-0.4 7 -8.15 12.15l-2.6 -3.8q7 -3.75 7 -12.35l0 -14.3q-2.8 2.75 -6.2 4.55l-2 -4q9.55 -5.35 14.15 -16.7l4.2 1q0.8 0.8 -0.6 1l-0.8 1.75l12.95 0l1 -1.35l3.8 2.35q0.95 1 -1 1.2l-6 7l12.75 0l0 29.45M25.5 -25.65l-10 0l0 5.75l10 0l0 -5.75M29.45 -25.65l0 5.75l10.35 0l0 -5.75l-10.35 0M25.5 -16.7l-10 0l0 6.15l10 0l0 -6.15M29.45 -16.7l0 6.15l10.35 0l0 -6.15l-10.35 0M31.05 -34.85l-12.35 0q-1.2 2.4 -4.2 6l11.95 0l4.6 -6" />
</g>
<g id="PathID_2406" transform="matrix(0.470588, 0, 0, 0.470588, 50, 22.55)">
<path style="fill:#000000;fill-opacity:1" d="M9.35 -19.1l-5.8 0l0 -3.8l5.8 0l0 -10.95l-4 0l0 -3.8l21.1 0l0 3.8l-3.75 0l0 10.95l5.75 0l0 3.8l-5.75 0l0 22.5l-4 0l0 -22.5l-5.4 0l0 3.4q0 12.75 -5.15 19.1l-3.8 -3q5 -4.95 5 -16.1l0 -3.4M18.7 -33.85l-5.4 0l0 10.95l5.4 0l0 -10.95M27.45 -27.05q9.8 -5.2 12.95 -11.2l4 3q0.6 0.4 -1 0.8q-3.4 5.8 -13.35 11.35l-2.6 -3.95M27.25 -14.7q11.35 -5 14.75 -11.95l4 3.15q0.6 0.4 -1 0.8q-5.6 7.8 -14.95 12.35l-2.8 -4.35M48.4 -12.75q1 0.4 -1 1q-6.6 9.8 -18.95 14.55l-2.4 -4.35q12.75 -4.8 18.35 -14.35l4 3.15" />
</g>
<g id="PathID_2407" transform="matrix(0.470588, 0, 0, 0.470588, 74, 22.55)">
<path style="fill:#000000;fill-opacity:1" d="M3.35 -34.65l21.95 0l0 3.8l-17.35 0l0 10.55l16.15 0l0 3.8l-16.15 0l0 12.15l18.3 0l0 3.8l-22.9 0l0 -34.1" />
</g>
<g id="PathID_2408" transform="matrix(0.470588, 0, 0, 0.470588, 87.6, 22.55)">
<path style="fill:#000000;fill-opacity:1" d="M3.95 -34.65l22.9 0l0 3.8l-18.3 0l0 11.15l14.35 0l0 3.8l-14.35 0l0 15.35l-4.6 0l0 -34.1" />
</g>
<g id="PathID_2409" transform="matrix(0.470588, 0, 0, 0.470588, 100.8, 22.55)">
<path style="fill:#000000;fill-opacity:1" d="M3.15 -17.5q0 -8.75 4.6 -13.35q4.2 -4.2 10.15 -4.2q6 0 9.75 3.8q3.2 3.2 3.4 7.75l-4.8 0q-0.2 -3.35 -2.35 -5.55q-2.2 -2.2 -6 -2.2q-3.8 0 -6.35 2.6q-3.6 3.55 -3.6 11.15q0 7.15 3.8 10.95q2.55 2.6 7.15 2.6q3.4 0 5.6 -2.2q2.15 -2.2 2.55 -4.6l0 -3.15l-5.75 0l0 -3.8l10.35 0l0 17.55l-3.4 0l-1.2 -3.4q-3.35 3.4 -8.55 3.4q-6.35 0 -10.35 -4q-5 -5 -5 -13.35" />
</g>
<g id="PathID_2410" transform="matrix(0.470588, 0, 0, 0.470588, 117.1, 22.55)">
<path style="fill:#000000;fill-opacity:1" d="M3.55 -34.65l4.6 0l0 14.35l16.35 0l0 -14.35l4.55 0l0 34.1l-4.55 0l0 -15.95l-16.35 0l0 15.95l-4.6 0l0 -34.1" />
</g>
<g id="PathID_2411" transform="matrix(0.470588, 0, 0, 0.470588, 132.45, 22.55)">
<path style="fill:#000000;fill-opacity:1" d="M27.45 -28.05q-3.35 19.9 -8.15 24.7q-2.6 2.6 -5.4 2.6q-3.15 0 -4.95 -1.8q-4.8 -4.8 -4.8 -11.95q0 -8.8 6.2 -14.95q6.75 -6.8 16.5 -6.8q8.8 0 13.75 5q5.6 5.6 5.6 13.15q0 8.15 -5.2 13.35q-3.35 3.4 -10.35 6.55l-4.2 -4.15q7 -2.2 11 -6.2q3.75 -3.8 3.75 -9.15q0 -6.4 -4.15 -10.55q-4.2 -4.2 -13.15 -3.8l3.55 1.8q2.4 1 0 2.2M22.9 -31.85q-5.2 1.2 -9 5q-5.15 5.15 -5.15 12.75q0 4.55 3 7.55q0.6 0.6 1.75 0.6q1.2 0 2.6 -1.4q4.6 -4.6 6.8 -24.5" />
</g>
<g id="PathID_2412" transform="matrix(0.470588, 0, 0, 0.470588, 156.45, 22.55)">
<path style="fill:#000000;fill-opacity:1" d="M35.65 -7.35q3.15 4 11.95 7.2l-2 4.35q-15.55 -5.15 -19.75 -21.9l-1.15 0q-2 2.8 -4.2 4.95l0 11.2l11.35 -2.2l0.6 3.4q-10.75 2.55 -21.1 4.55q-0.6 1.8 -1.2 0.6l-1.4 -4.8l7.75 -0.95l0 -8.6q-5.15 3.6 -11.55 5.8l-2 -4q9.95 -2.8 16.95 -9.95l-15.95 0l0 -3.8l19.35 0l0 -3.6l-14.35 0l0 -3.75l14.35 0l0 -3.6l-16.95 0l0 -3.8l16.95 0l0 -4.75l3.75 0q1.6 0.2 0.2 1.2l0 3.55l16.95 0l0 3.8l-16.95 0l0 3.6l14.35 0l0 3.75l-14.35 0l0 3.6l19.35 0l0 3.8l-16.95 0q1.2 3.8 4 7.95q3.8 -3.15 7.15 -6.95l3 3q0.2 0.95 -1 0.6q-3.4 3.15 -7.15 5.75" />
</g>
<g id="PathID_2413" transform="matrix(0.470588, 0, 0, 0.470588, 180.45, 22.55)">
<path style="fill:#000000;fill-opacity:1" d="M36.65 -17.3q3.95 6.55 10.95 11.55l-3.4 3.8q-6.55 -5.4 -11.15 -12.95l3.6 -2.4M28.05 -0.75q0 3.55 -3.35 3.55l-5.6 0l-0.8 -4.35l4.4 0q0.8 0 0.8 -0.8l0 -18.75l-19.55 0l0 -4.4l42.85 0l0 4.4l-18.75 0l0 20.35M10.55 -32.85l0 -4.4l30.25 0l0 4.4l-30.25 0M3.95 -4.95q5.6 -4 9.75 -12.15l4 2.2q1.6 1 -0.6 1.4q-3.4 7.15 -9.95 12.35l-3.2 -3.8" />
</g>
</svg>
